<?xml version="1.0" encoding="UTF-8"?><svg id="Layer_2" xmlns="http://www.w3.org/2000/svg" viewBox="0 0 584.3 669.59"><defs><style>.cls-1{fill:#82565d;}.cls-2{fill:#f0e2bf;}</style></defs><g id="LOGO"><path class="cls-2" d="M181.01,146.51l10.56-2.05c5.88-1.14,10.46-5.8,11.5-11.7l1.87-10.59,2.05,10.56c1.14,5.88,5.8,10.46,11.7,11.5l10.59,1.87-10.56,2.05c-5.88,1.14-10.46,5.8-11.5,11.7l-1.87,10.59-2.05-10.56c-1.14-5.88-5.8-10.46-11.7-11.5l-10.59-1.87Z"/><path class="cls-2" d="M362.89,146.51l10.56-2.05c5.88-1.14,10.46-5.8,11.5-11.7l1.87-10.59,2.05,10.56c1.14,5.88,5.8,10.46,11.7,11.5l10.59,1.87-10.56,2.05c-5.88,1.14-10.46,5.8-11.5,11.7l-1.87,10.59-2.05-10.56c-1.14-5.88-5.8-10.46-11.7-11.5l-10.59-1.87Z"/><path class="cls-2" d="M6.89,263.06c0-12.47-1.31-21.99-6.89-25.28,9.52-4.92,19.7-10.5,31.84-20.35v207.8c0,12.47,2.3,22.32,4.92,24.95H1.97c2.63-2.63,4.92-12.47,4.92-24.95v-162.17Z"/><path class="cls-2" d="M79.11,427.2h15.76c12.15,0,21.99-2.3,24.95-4.92v27.9H53.83v-23.31c0-61.72,49.57-105.38,49.57-157.57,0-16.09-4.6-29.54-20.68-29.54-14.44,0-23.64,10.83-27.25,18.38v-28.56c5.58-7.88,15.76-13.13,30.2-13.13,32.83,0,43.66,27.9,43.66,53.51,0,53.84-46.94,95.53-50.23,157.24Z"/><path class="cls-2" d="M243.9,253.55c-4.92-6.57-12.8-13.13-23.64-13.13-14.77,0-20.03,11.82-20.03,27.58,0,17.4,6.57,27.58,19.37,46.62,20.02,29.87,31.51,47.6,31.51,77.8,0,32.83-13.79,60.73-45.3,60.73-14.44,0-23.96-5.91-29.54-14.77v-26.26c4.27,7.55,14.77,18.06,28.23,18.06,16.41,0,21.67-15.1,21.67-33.16,0-25.93-10.83-42.35-24.95-63.36-14.77-21.01-26.26-39.39-26.26-65.98,0-30.86,15.76-50.55,42.02-50.55,12.47,0,21.34,4.6,26.92,11.49v24.95Z"/><path class="cls-2" d="M257.68,221.05h34.8c-2.63,2.63-4.92,12.47-4.92,24.95v179.24c0,12.47,2.3,22.32,4.92,24.95h-34.8c2.63-2.63,4.92-12.47,4.92-24.95v-179.24c0-12.47-2.3-22.32-4.92-24.95Z"/><path class="cls-2" d="M382.42,258.8c-4.27-7.88-15.43-18.38-30.53-18.38-22.65,0-23.64,19.37-23.64,42.35v117.85c0,18.38,3.28,28.56,16.74,28.56,11.82,0,14.12-9.85,14.12-13.79v-51.87c0-12.47-2.3-28.56-4.92-31.19h34.14c-2.3,2.3-4.92,18.71-4.92,31.19v86.66c-2.63-3.61-6.24-4.92-10.18-4.92-9.52,0-15.1,7.88-32.5,7.88-28.23,0-37.75-21.34-37.75-60.73v-107.67c0-45.63,11.16-67.62,46.94-67.62,17.07,0,26.92,5.91,32.5,15.1v26.59Z"/><path class="cls-2" d="M395.55,221.05h41.03c-.98,2.3-1.31,7.22-1.31,9.85,0,31.19,16.09,72.88,29.22,102.42,2.95,6.89,5.58,13.79,7.88,20.03v-107.35c0-12.47-2.63-22.32-4.6-24.95h34.14c-2.63,2.63-4.6,12.47-4.6,24.95v182.85c.33,10.83,2.3,19.04,4.6,21.34h-38.08c11.82-24.62-7.22-78.46-19.7-106.36-6.89-15.1-13.79-31.84-19.37-48.91v130.33c0,12.47,2.3,22.32,4.6,24.95h-33.81c1.97-2.63,4.6-12.47,4.6-24.95v-182.85c-.33-10.5-2.63-19.04-4.6-21.34Z"/><path class="cls-2" d="M577.08,253.55c-4.92-6.57-12.8-13.13-23.64-13.13-14.77,0-20.03,11.82-20.03,27.58,0,17.4,6.57,27.58,19.37,46.62,20.02,29.87,31.51,47.6,31.51,77.8,0,32.83-13.79,60.73-45.3,60.73-14.44,0-23.96-5.91-29.54-14.77v-26.26c4.27,7.55,14.77,18.06,28.23,18.06,16.41,0,21.67-15.1,21.67-33.16,0-25.93-10.83-42.35-24.95-63.36-14.77-21.01-26.26-39.39-26.26-65.98,0-30.86,15.76-50.55,42.02-50.55,12.47,0,21.34,4.6,26.92,11.49v24.95Z"/><path class="cls-2" d="M189.44,532.47c-1.86-.96-3.3-2.31-4.32-4.05-1.01-1.73-1.52-3.74-1.52-6.03v-12.11c0-2.29.51-4.3,1.52-6.03,1.01-1.73,2.45-3.07,4.32-4.02,1.86-.95,4.02-1.42,6.47-1.42s4.56.46,6.42,1.37c1.86.92,3.3,2.21,4.32,3.87,1.01,1.67,1.52,3.6,1.52,5.79,0,.16-.06.3-.17.42s-.25.17-.42.17l-4.51.25c-.39,0-.59-.18-.59-.54,0-1.93-.6-3.48-1.79-4.66-1.19-1.18-2.79-1.77-4.78-1.77s-3.6.59-4.81,1.77c-1.21,1.18-1.81,2.73-1.81,4.66v12.5c0,1.9.6,3.43,1.81,4.61,1.21,1.18,2.81,1.77,4.81,1.77s3.59-.58,4.78-1.74c1.19-1.16,1.79-2.7,1.79-4.63,0-.36.2-.54.59-.54l4.51.2c.16,0,.3.05.42.15.11.1.17.21.17.34,0,2.22-.51,4.18-1.52,5.86-1.01,1.68-2.45,2.98-4.32,3.9-1.86.92-4,1.37-6.42,1.37s-4.61-.48-6.47-1.45Z"/><path class="cls-2" d="M229.16,532.52c-1.9-1-3.36-2.41-4.39-4.24-1.03-1.83-1.54-3.94-1.54-6.33v-11.18c0-2.35.52-4.44,1.57-6.25,1.05-1.81,2.51-3.22,4.39-4.22,1.88-1,4.05-1.5,6.5-1.5s4.67.5,6.55,1.5c1.88,1,3.34,2.4,4.39,4.22,1.05,1.81,1.57,3.9,1.57,6.25v11.18c0,2.39-.52,4.5-1.57,6.33-1.05,1.83-2.51,3.25-4.39,4.24-1.88,1-4.06,1.5-6.55,1.5s-4.63-.5-6.52-1.5ZM240.64,527.2c1.24-1.28,1.86-2.96,1.86-5.05v-11.43c0-2.12-.62-3.82-1.86-5.1-1.24-1.27-2.89-1.91-4.95-1.91s-3.66.64-4.9,1.91c-1.24,1.27-1.86,2.98-1.86,5.1v11.43c0,2.09.62,3.78,1.86,5.05,1.24,1.27,2.88,1.91,4.9,1.91s3.71-.64,4.95-1.91Z"/><path class="cls-2" d="M287.35,503.93c-.12.11-.25.17-.42.17h-16.67c-.16,0-.25.08-.25.25v9.17c0,.16.08.25.25.25h11.23c.16,0,.3.06.42.17.11.11.17.25.17.42v3.73c0,.16-.06.3-.17.42-.11.12-.25.17-.42.17h-11.23c-.16,0-.25.08-.25.25v14.02c0,.16-.06.3-.17.42s-.25.17-.42.17h-4.51c-.16,0-.3-.06-.42-.17-.12-.11-.17-.25-.17-.42v-33.15c0-.16.06-.3.17-.42.11-.11.25-.17.42-.17h22.02c.16,0,.3.06.42.17.11.11.17.25.17.42v3.73c0,.16-.06.3-.17.42Z"/><path class="cls-2" d="M324.76,503.93c-.12.11-.25.17-.42.17h-16.67c-.16,0-.25.08-.25.25v9.17c0,.16.08.25.25.25h11.23c.16,0,.3.06.42.17.11.11.17.25.17.42v3.73c0,.16-.06.3-.17.42-.11.12-.25.17-.42.17h-11.23c-.16,0-.25.08-.25.25v14.02c0,.16-.06.3-.17.42s-.25.17-.42.17h-4.51c-.16,0-.3-.06-.42-.17-.12-.11-.17-.25-.17-.42v-33.15c0-.16.06-.3.17-.42.11-.11.25-.17.42-.17h22.02c.16,0,.3.06.42.17.11.11.17.25.17.42v3.73c0,.16-.06.3-.17.42Z"/><path class="cls-2" d="M362.22,503.93c-.11.11-.25.17-.42.17h-16.72c-.16,0-.25.08-.25.25v9.17c0,.16.08.25.25.25h11.23c.16,0,.3.06.42.17.11.11.17.25.17.42v3.73c0,.16-.06.3-.17.42-.11.12-.25.17-.42.17h-11.23c-.16,0-.25.08-.25.25v9.46c0,.16.08.25.25.25h16.72c.16,0,.3.06.42.17.11.11.17.25.17.42v3.73c0,.16-.06.3-.17.42-.11.12-.25.17-.42.17h-22.07c-.16,0-.3-.06-.42-.17-.12-.11-.17-.25-.17-.42v-33.15c0-.16.06-.3.17-.42.11-.11.25-.17.42-.17h22.07c.16,0,.3.06.42.17.11.11.17.25.17.42v3.73c0,.16-.06.3-.17.42Z"/><path class="cls-2" d="M401.06,503.93c-.11.11-.25.17-.42.17h-16.72c-.16,0-.25.08-.25.25v9.17c0,.16.08.25.25.25h11.23c.16,0,.3.06.42.17.11.11.17.25.17.42v3.73c0,.16-.06.3-.17.42-.11.12-.25.17-.42.17h-11.23c-.16,0-.25.08-.25.25v9.46c0,.16.08.25.25.25h16.72c.16,0,.3.06.42.17.11.11.17.25.17.42v3.73c0,.16-.06.3-.17.42-.11.12-.25.17-.42.17h-22.07c-.16,0-.3-.06-.42-.17-.12-.11-.17-.25-.17-.42v-33.15c0-.16.06-.3.17-.42.11-.11.25-.17.42-.17h22.07c.16,0,.3.06.42.17.11.11.17.25.17.42v3.73c0,.16-.06.3-.17.42Z"/><path class="cls-1" d="M124.07,601.05c-5.49-4.3-6.47-12.27-2.16-17.77s12.27-6.47,17.77-2.16c5.49,4.3,6.47,12.27,2.16,17.77s-12.27,6.47-17.77,2.16ZM136.77,584.83c-3.45-2.7-8.46-2.09-11.16,1.36-2.7,3.45-2.09,8.46,1.36,11.16,3.45,2.7,8.46,2.09,11.16-1.36,2.7-3.45,2.09-8.46-1.36-11.16Z"/><path class="cls-1" d="M147.47,627.45c-.11-.09-.23-.18-.34-.28-2.39-1.98-5.25-5.55-5.36-11.37,0-.07,0-.13,0-.2.42-6.4,3.51-11.7,9.17-15.78,4.52-3.25,9.66-5,13.06-6.16l.15-.05c3.46-1.18,6.6-5.22,7.31-9.41.45-2.64.13-6.46-3.91-9.62-3.23-2.53-6.68-3.18-9.97-1.86-3.73,1.49-6.76,5.36-7.36,9.41-2.09,14.11-11.61,19.69-12.02,19.92l-2.33-4.08h-.01s2.03-1.19,4.22-3.82c2.91-3.5,4.76-7.78,5.49-12.71.85-5.72,4.98-10.98,10.27-13.09,4.86-1.94,10.05-1.04,14.62,2.53,2.39,1.87,4.08,4.13,5.03,6.71.85,2.33,1.06,4.82.62,7.4-.48,2.86-1.79,5.74-3.69,8.1-1.89,2.37-4.29,4.14-6.74,4.97l-.15.05c-6.37,2.17-18.21,6.2-19.04,17.7.19,7.55,6.91,9.66,7.2,9.74h-.01s-1.3,4.51-1.3,4.51c-.26-.07-2.5-.76-4.88-2.62Z"/><rect class="cls-1" x="320.68" y="654.7" width="58.96" height="4.7" transform="translate(-135.14 92.42) rotate(-12.62)"/><path class="cls-1" d="M375.94,637.26l-22.41,5.02-1.99-4.12c3.7-2.99,5.36-7.72,4.32-12.36-1.49-6.67-8.13-10.88-14.8-9.38-6.67,1.49-10.88,8.13-9.38,14.8,1.04,4.64,4.56,8.22,9.18,9.34l-.04,4.58-22.41,5.02-1.03-4.59,15.9-3.56c-.56-.44-1.1-.91-1.6-1.41-2.29-2.29-3.88-5.17-4.59-8.35-2.06-9.2,3.75-18.36,12.94-20.42,9.2-2.06,18.36,3.75,20.42,12.94.71,3.17.51,6.46-.59,9.5-.24.67-.52,1.33-.85,1.96l15.9-3.56,1.03,4.59Z"/><rect class="cls-1" x="501.56" y="482.54" width="4.7" height="59.46" transform="translate(-135.31 184.03) rotate(-18.29)"/><polygon class="cls-1" points="525.34 496.71 523.23 500.91 495.73 487.07 481.71 514.92 477.51 512.81 493.64 480.75 525.34 496.71"/><rect class="cls-1" x="495.18" y="518.17" width="22.92" height="4.7" transform="translate(-137.77 185.31) rotate(-18.29)"/><path class="cls-1" d="M233.87,654.73l-4.59-1.03,8.85-39.52c.72-3.21-1.31-6.41-4.52-7.13-3.21-.72-6.41,1.31-7.13,4.52l-8.85,39.52-4.59-1.03,8.85-39.52c1.29-5.74,7-9.37,12.75-8.08,5.74,1.29,9.37,7,8.08,12.75l-8.85,39.52Z"/><path class="cls-1" d="M217.63,651.1l-4.59-1.03,8.85-39.52c.72-3.21-1.31-6.41-4.52-7.13l1.03-4.59c5.74,1.29,9.37,7,8.08,12.75l-8.85,39.52Z"/><path class="cls-1" d="M253.71,669.59c-5.74-1.29-9.37-7-8.08-12.75l8.85-39.52,4.59,1.03-8.85,39.52c-.72,3.21,1.31,6.41,4.52,7.13l-1.03,4.59Z"/><path class="cls-1" d="M250.11,658.37l-4.59-1.03,8.85-39.52c.72-3.21-1.31-6.41-4.52-7.13s-6.41,1.31-7.13,4.52l-8.85,39.52-4.59-1.03,8.85-39.52c1.29-5.74,7-9.37,12.75-8.08,5.74,1.29,9.37,7,8.08,12.75l-8.85,39.52Z"/><path class="cls-1" d="M240.57,664.15l-.58-4.67c14.84-1.85,24.01-10.74,27.64-18.43,2.05-4.35,2.48-8.59,1.09-10.78-.8-1.27-1.85-2.02-3.2-2.3-3.53-.73-8.34,1.87-9.9,2.94l-2.66-3.88c.07-.05,1.82-1.24,4.27-2.29,3.45-1.47,6.55-1.93,9.23-1.39,2.63.54,4.73,2.02,6.24,4.39,2.3,3.63,2,9.36-.81,15.31-1.66,3.52-4.94,8.68-11.12,13.24-2.73,2.01-5.75,3.69-8.97,4.99-3.5,1.41-7.28,2.37-11.21,2.86Z"/><path class="cls-1" d="M447.13,609.96l-3.7,2.9-24.96-31.89c-2.03-2.59-5.79-3.05-8.38-1.02-2.59,2.03-3.05,5.79-1.02,8.38l24.96,31.89-3.7,2.9-24.96-31.89c-3.63-4.63-2.81-11.35,1.83-14.98,4.63-3.63,11.35-2.81,14.98,1.83l24.96,31.89Z"/><path class="cls-1" d="M434.02,620.22l-3.7,2.9-24.96-31.89c-2.03-2.59-5.79-3.05-8.38-1.02l-2.9-3.7c4.63-3.63,11.35-2.81,14.98,1.83l24.96,31.89Z"/><path class="cls-1" d="M460.23,599.7l-3.7,2.9-24.96-31.89c-2.03-2.59-5.79-3.05-8.38-1.02-2.59,2.03-3.05,5.79-1.02,8.38l24.96,31.89-3.7,2.9-24.96-31.89c-3.63-4.63-2.81-11.35,1.83-14.98,4.63-3.63,11.35-2.81,14.98,1.83l24.96,31.89Z"/><path class="cls-1" d="M471.3,604.16c-4.63,3.63-11.35,2.81-14.98-1.83l-24.96-31.89,3.7-2.9,24.96,31.89c2.03,2.59,5.79,3.05,8.38,1.02,2.59-2.03,3.05-5.79,1.02-8.38l3.7-2.9c3.63,4.63,2.81,11.35-1.83,14.98Z"/><polygon class="cls-1" points="482.88 596.35 479.18 599.25 473.13 591.52 465.4 597.57 462.5 593.87 473.93 584.92 482.88 596.35"/><path class="cls-1" d="M71.29,499c-2.92-5.81-.57-12.92,5.24-15.84s12.92-.57,15.84,5.24c2.92,5.81.57,12.92-5.24,15.84-5.81,2.92-12.92.57-15.84-5.24ZM88.16,490.51c-1.76-3.49-6.03-4.91-9.52-3.15s-4.91,6.03-3.15,9.52c1.76,3.49,6.03,4.91,9.52,3.15,3.49-1.76,4.91-6.03,3.15-9.52Z"/><path class="cls-1" d="M75.11,535.08c-2.92-5.81-.57-12.92,5.24-15.84s12.92-.57,15.84,5.24c2.92,5.81.57,12.92-5.24,15.84-5.81,2.92-12.92.57-15.84-5.24ZM91.99,526.59c-1.76-3.49-6.03-4.91-9.52-3.15s-4.91,6.03-3.15,9.52,6.03,4.91,9.52,3.15,4.91-6.03,3.15-9.52Z"/><path class="cls-1" d="M82.04,486.59l-.31-4.69c5.8-.39,11.55.91,16.63,3.76,5.21,2.92,9.4,7.29,12.09,12.65,2.2,4.37,3.3,9.24,3.19,14.1-.11,4.7-1.34,9.38-3.58,13.53l-4.14-2.23c3.9-7.24,4.02-15.95.33-23.29-4.57-9.08-14.07-14.5-24.21-13.83Z"/><path class="cls-1" d="M57.02,525.18c-2.2-4.37-3.3-9.24-3.19-14.1.11-4.7,1.34-9.38,3.58-13.53l4.14,2.23c-3.9,7.24-4.02,15.95-.33,23.29,4.65,9.24,14.31,14.65,24.62,13.79l.39,4.69c-5.88.49-11.72-.76-16.91-3.6-5.31-2.92-9.57-7.33-12.3-12.76Z"/><polygon class="cls-1" points="440.75 75.18 437.77 102.92 460.44 94.66 462.05 99.08 432.28 109.93 435.27 82.18 409.05 91.74 412.44 60.24 417.11 60.75 414.53 84.73 440.75 75.18"/><polygon class="cls-1" points="456.29 55.32 453.31 83.07 475.98 74.8 477.59 79.22 447.83 90.07 450.81 62.33 424.59 71.88 427.98 40.39 432.65 40.89 430.08 64.88 456.29 55.32"/><rect class="cls-1" x="238.06" y="4.3" width="4.7" height="43.27" transform="translate(.14 53.17) rotate(-12.62)"/><path class="cls-1" d="M217.31,41.89l4.07,2.36c-1.48,2.55-1.94,5.53-1.3,8.41,1.41,6.28,7.65,10.24,13.93,8.83,6.28-1.41,10.24-7.65,8.83-13.93l4.59-1.03c1.97,8.81-3.59,17.57-12.39,19.55-8.81,1.97-17.57-3.59-19.55-12.39-.9-4.03-.26-8.22,1.82-11.8Z"/><path class="cls-1" d="M268.1,30.51c3.4,2.35,5.77,5.86,6.68,9.89,1.97,8.81-3.59,17.57-12.39,19.55-8.81,1.97-17.57-3.59-19.55-12.39l4.59-1.03c1.41,6.28,7.65,10.24,13.93,8.83,6.28-1.41,10.24-7.65,8.83-13.93-.64-2.88-2.33-5.38-4.76-7.05l2.67-3.87Z"/><rect class="cls-1" x="40.43" y="142.81" width="36.55" height="4.7" transform="translate(-97.36 132.36) rotate(-63.29)"/><rect class="cls-1" x="90.5" y="168.01" width="36.55" height="4.7" transform="translate(-92.3 190.96) rotate(-63.29)"/><rect class="cls-1" x="84.54" y="123.48" width="4.7" height="56.05" transform="translate(-87.5 161.03) rotate(-63.29)"/><rect class="cls-1" x="78.24" y="136" width="4.7" height="56.05" transform="translate(-102.15 162.29) rotate(-63.29)"/><path class="cls-1" d="M322.49,0c3.7.83,7.13,2.36,10.19,4.55,2.96,2.11,5.45,4.75,7.4,7.83,1.95,3.08,3.27,6.46,3.92,10.03.67,3.7.59,7.46-.24,11.16-.83,3.7-2.36,7.13-4.55,10.19-2.11,2.96-4.75,5.45-7.83,7.4s-6.46,3.27-10.03,3.92c-3.7.67-7.46.59-11.16-.24l1.03-4.59c12.59,2.82,25.13-5.13,27.95-17.72,2.82-12.59-5.13-25.13-17.72-27.95l1.03-4.59Z"/><path class="cls-1" d="M380.49,12.99l-1.03,4.59c-12.59-2.82-25.13,5.13-27.95,17.72-2.82,12.59,5.13,25.13,17.72,27.95l-1.03,4.59c-3.7-.83-7.13-2.36-10.19-4.55-2.96-2.11-5.45-4.75-7.4-7.83s-3.27-6.46-3.92-10.03c-.67-3.7-.59-7.46.24-11.16s2.36-7.13,4.55-10.19c2.11-2.96,4.75-5.45,7.83-7.4,3.08-1.95,6.46-3.27,10.03-3.92,3.7-.67,7.46-.59,11.16.24Z"/><rect class="cls-1" x="342.82" y="16.41" width="5.05" height="35.01" transform="translate(236.77 363.51) rotate(-77.38)"/><path class="cls-1" d="M129.74,53.39c4.73-3.7,10.61-5.34,16.57-4.61,5.96.73,11.27,3.73,14.97,8.45,3.7,4.73,5.34,10.61,4.61,16.57-.73,5.96-3.73,11.27-8.45,14.97-4.73,3.7-10.61,5.34-16.57,4.61-5.96-.73-11.27-3.73-14.97-8.45-3.7-4.73-5.34-10.61-4.61-16.57.73-5.96,3.73-11.27,8.45-14.97ZM154.54,85.07c7.71-6.04,9.08-17.22,3.04-24.94-6.04-7.71-17.22-9.08-24.94-3.04-7.71,6.04-9.08,17.22-3.04,24.94,6.04,7.71,17.22,9.08,24.94,3.04Z"/><path class="cls-1" d="M154.54,85.07c4.73-3.7,10.61-5.34,16.57-4.61,5.96.73,11.27,3.73,14.97,8.45l-3.7,2.9c-6.04-7.71-17.22-9.08-24.94-3.04s-9.08,17.22-3.04,24.94l-3.7,2.9c-3.7-4.73-5.34-10.61-4.61-16.57.73-5.96,3.73-11.27,8.45-14.97Z"/><path class="cls-1" d="M518.65,143.1l2.11,4.2-35.46,17.84c-4.02,2.02-5.64,6.94-3.62,10.95,2.02,4.02,6.94,5.64,10.95,3.62l35.46-17.84,2.11,4.2-35.46,17.84c-6.33,3.19-14.08.63-17.27-5.71-3.19-6.33-.63-14.08,5.71-17.27l35.46-17.84Z"/><path class="cls-1" d="M528.09,161.87l2.11,4.2-35.46,17.84c-4.02,2.02-5.64,6.94-3.62,10.95l-4.2,2.11c-3.19-6.33-.63-14.08,5.71-17.27l35.46-17.84Z"/><path class="cls-1" d="M526.47,130.03c3.19,6.33.63,14.08-5.71,17.27-6.33,3.19-14.08.63-17.27-5.71-3.19-6.33-.63-14.08,5.71-17.27,6.33-3.19,14.08-.63,17.27,5.71ZM507.69,139.48c2.02,4.02,6.94,5.64,10.95,3.62,4.02-2.02,5.64-6.94,3.62-10.95-2.02-4.02-6.94-5.64-10.95-3.62s-5.64,6.94-3.62,10.95Z"/><path class="cls-1" d="M535.92,148.81l-4.2,2.11c-2.02-4.02-6.94-5.64-10.95-3.62l-2.11-4.2c6.33-3.19,14.08-.63,17.27,5.71Z"/><path class="cls-1" d="M293.54,146.3c.04-8.05.25-16.08.94-24.09-8.46.8-15.07,7.93-15.07,16.59v14.99c0,8.67,6.61,15.79,15.07,16.59-.69-8.01-.9-16.04-.94-24.09Z"/><path class="cls-1" d="M297.68,122.22c.69,8.01.9,16.04.94,24.09-.04,8.05-.25,16.08-.94,24.09,8.45-.81,15.07-7.93,15.07-16.59v-14.99c0-8.67-6.62-15.79-15.07-16.59Z"/></g></svg>