<?xml version="1.0" encoding="UTF-8"?><svg id="Layer_2" xmlns="http://www.w3.org/2000/svg" viewBox="0 0 698.52 1048.34"><defs><style>.cls-1{fill:#58365f;}</style></defs><g id="graphics"><path class="cls-1" d="M464.43,919.63h-13.33c-17.83,0-34.08-6.66-46.98-19.25-.3-.3-.41-.74-.29-1.15.13-.41.48-.71.9-.78,167.48-26.78,293.78-175.01,293.78-344.79,0-40.95-4.74-73.13-14.92-101.26-4.75-13.15-11.21-19.82-19.19-19.82-7.31.06-15.2,6.27-21.66,17.03-.26.42-.76.64-1.23.52-.48-.12-.83-.54-.86-1.03-3.17-54.2-24.34-82.43-41.54-96.57-20.92-17.19-47.67-23.64-75.3-18.17-.63.12-1.19.51-1.51,1.06-.32.55-.4,1.22-.21,1.83,3.76,11.99-1.72,31.88-13.03,47.27-9.36,12.74-20.97,20.05-31.86,20.05-1.24,0-2.26,1.01-2.26,2.26,0,17.41,6.41,31.28,18.04,39.05.42.28.6.8.45,1.28-.15.48-.59.93-1.11.78-49.29-1.3-68.58-50.1-70.2-73.52-.02-.31.08-.62.3-.85.21-.23.51-.36.82-.36h15.55c1.24,0,2.26-1.01,2.26-2.26v-29.85c0-1.24-1.01-2.26-2.26-2.26h-9.86c-.31,0-.61-.13-.82-.36-.21-.23-.32-.53-.3-.85,1.71-26.53,22.53-48.63,36.9-54.39.29-.11.61-.11.88.02.28.12.49.36.6.64,3.4,9.24,4.44,19.8,3.09,31.39-.99,8.5,2.32,14.47,9.08,16.37,10.36,2.88,27.71-4.93,35.78-22.42,7.08-15.35,31.96-9.34,44.14-4.01,8.08,3.53,21.06,2.78,24.69-3.12,2.17-3.53.56-7.81-4.56-12.05-63.54-55.25-144.91-85.68-229.14-85.68-96.14,0-185.78,38.44-252.4,108.25l-1.49,1.21c-.23.19-.43.48-.57.82-.05.13-.13.25-.22.35-34.56,36.87-61.17,81.55-76.92,129.21l-.46,1.19c-.19.47-.37.92-.54,1.38-.06.16-.08.33-.1.54C5.55,481.92,0,517.59,0,553.67c0,169.77,126.29,317.99,293.76,344.78.42.07.77.37.9.78.13.41.02.85-.29,1.15-12.9,12.6-29.14,19.26-46.96,19.26h-13.33c-1.24,0-2.26,1.01-2.26,2.26v29.84c0,1.24,1.01,2.26,2.26,2.26h230.35c1.24,0,2.26-1.01,2.26-2.26v-29.84c0-1.24-1.01-2.26-2.26-2.26ZM656.73,440.16c2.72-2.01,5.35-3.05,7.79-3.07,7.22,0,12.05,9.17,14.83,16.85,9.99,27.64,14.65,59.33,14.65,99.72,0,45.86-9.09,90.64-27.03,133.1-20.69,37.92-36.35,49.62-43.53,48.05-2.2-.47-3.52-2.41-3.73-5.46-.47-6.72-4.63-11.66-10.12-12.01-5.77-.4-13.57,4.54-16.73,20.24-4.53,22.51-15.94,41.49-32.13,53.44-.48.36-.8.89-.89,1.48-.09.59.06,1.19.42,1.67.7.95,2.21,1.17,3.16.48,17.08-12.62,29.12-32.56,33.87-56.18,2.53-12.57,7.9-16.82,11.99-16.63,3.24.21,5.61,3.36,5.93,7.83.35,5.09,3.08,8.66,7.29,9.56,5.51,1.15,12.62-2.38,20.57-10.3.41-.41,1.04-.44,1.49-.09.45.35.56.98.27,1.47-4.97,8.27-10.28,16.31-15.91,24.1-54.38,75.26-138.22,127-229.33,140.34-.1-.02-.15-.04-.23-.05-.46-.11-.68-.2-.8-.34-5.59-6.75-10.36-14.85-13.8-23.44-.14-.35-.1-.74.11-1.05.21-.31.56-.5.93-.5h30.36c1.24,0,2.26-1.01,2.26-2.26v-20.05c0-1.24-1.01-2.26-2.26-2.26h-2.98c-.46,0-.88-.28-1.05-.71-.17-.43-.06-.93.28-1.24,10.1-9.39,19.48-19.34,27.88-29.57.07-.08.15-.15.23-.21,22.26-15.32,36.12-11.65,52.16-7.39,5.35,1.41,10.88,2.86,16.92,3.62.59.07,1.18-.07,1.65-.44.49-.37.81-.92.89-1.52.15-1.23-.72-2.36-1.95-2.52-5.77-.73-11.18-2.15-16.41-3.53-12.4-3.28-25.18-6.66-41.7.23-.47.21-1,.05-1.32-.34-.31-.4-.32-.96-.02-1.36,7.1-9.69,13.76-19.97,19.79-30.58.07-.12.16-.23.27-.32,18.37-14.7,36.91-32.73,55.12-53.61.07-.07.14-.14.22-.2,26.24-17.52,35.36-13.9,42.68-10.99,3.56,1.42,7.24,2.89,12.02,1.3,6.37-2.12,8.8-9.17,11.38-16.63,3.27-9.47,6.65-19.25,18.02-21.05,24.92-3.97,62.83-78.62,62.49-163.11-.11-26.49-4.2-56.77-15.34-62.3-.15-.07-.3-.14-.45-.21-.37-.15-.64-.5-.69-.9-.05-.4.12-.8.45-1.04ZM181.43,738.76c-3.39-2.36-6.79-4.72-9.69-7.15-10.64-8.96-12.67-20.96-6.77-40.1,3.53-11.47-3.69-21.93-14.63-37.76-1.86-2.71-3.82-5.55-5.85-8.58-.31-.47-.23-1.1.2-1.48.43-.37,1.06-.37,1.49,0,14.04,12.44,29.16,21.96,43.71,27.54.35.14.61.44.69.8,12.32,53.43,34.5,100.25,65.94,139.15.32.4.33.96.04,1.37-.22.3-.56.47-.92.47-.13,0-.26-.02-.39-.07-18.94-7.02-45.92-22.83-59.66-44.32-.26-.41-.23-.95.08-1.33,2.52-3.04,3.66-6.16,3.4-9.27-.63-7.49-8.9-13.22-17.66-19.28ZM579.38,526.71c.82,10.82-1.6,19.45-6.31,22.52-2.65,1.71-5.86,1.59-9.56-.39-3.59-1.93-6.74-2.34-9.65-1.26-3.68,1.36-6.66,5.06-9.08,11.3-2.78,7.13-10.69,19.01-24.55,30.95-.21.18-.47.27-.74.27-.16,0-.33-.04-.48-.11-.41-.19-.66-.6-.65-1.04.06-2.9.09-5.63.09-8.15v-127.45c0-.58.44-1.07,1.02-1.12,6.14-.61,11.34-2.88,15.04-6.58,4.02-4.02,6.24-9.43,6.24-15.22,0-9.48-6.6-20.38-21.1-21.9-.3-.04-.57-.19-.76-.42s-.27-.54-.24-.84c2.05-17.5,19.63-31.74,39.19-31.74,13.13,0,25.05,6.7,33.58,18.88,10.78,15.38,16.24,38.56,16.24,68.89,0,8.34-.43,16.82-1.31,25.91-.06.61-.48,1.11-1.21,1.01-4.41-.31-8.9,1.14-12.92,4.29-8.62,6.75-13.78,19.69-12.84,32.21ZM518.47,597.18c14.42-11.34,26.11-25.39,30.5-36.67,1.91-4.9,4.08-7.83,6.45-8.71,1.6-.62,3.55-.28,5.95,1,5.11,2.73,10.13,2.81,14.15.2,6.18-4.02,9.31-13.98,8.36-26.63-.83-11.08,3.64-22.46,11.12-28.33,2.09-1.64,5.49-3.58,9.54-3.38.31.01.61.16.81.4.2.24.3.56.26.87-12.59,104.48-82.37,195.27-111.78,229.46-.22.26-.54.39-.85.39-.2,0-.4-.05-.58-.16-.47-.28-.67-.86-.47-1.37,19.08-49.04,24.74-95.71,26.12-126.23.02-.33.17-.63.43-.83ZM246.39,533.68c5.03-4.34,9.78-8.45,19.37-8.45s14.13,3.93,19.39,8.47c5.44,4.69,11.06,9.55,22.33,9.55s16.9-4.86,22.35-9.56c5.04-4.35,9.8-8.46,19.38-8.46s14.36,4.12,19.41,8.47c5.44,4.69,11.06,9.55,22.34,9.55s16.89-4.86,22.34-9.56c5.04-4.35,9.8-8.46,19.38-8.46s14.36,4.11,19.41,8.46c5.45,4.7,11.08,9.56,22.35,9.56s16.9-4.86,22.35-9.56c4.37-3.77,8.49-7.32,15.88-8.21.36-.03.65.06.89.27.24.22.38.52.38.85v54.2c0,11.36-.59,29.47-3.4,51.17-.08.61-.59,1.05-1.24.98-7.5-.82-12.23-4.44-16.8-7.95-5.87-4.51-11.91-9.15-22.72-9.15s-16.3,4.68-21.55,9.22c-4.83,4.18-9.39,8.12-18.6,8.12s-13.77-3.95-18.6-8.13c-5.25-4.53-10.68-9.21-21.55-9.21s-16.31,4.68-21.56,9.22c-4.83,4.18-9.39,8.12-18.6,8.12s-13.77-3.94-18.6-8.12c-5.01-4.33-10.67-9.22-21.55-9.22s-16.31,4.68-21.56,9.21c-4.84,4.18-9.41,8.13-18.62,8.13s-13.79-3.94-18.63-8.12c-5.25-4.53-10.68-9.22-21.57-9.22s-16.87,4.64-22.72,9.13c-4.83,3.71-9.37,7.2-16.85,8-.59.08-1.16-.37-1.24-.98-2.81-21.72-3.4-39.83-3.4-51.21v-54.21c0-.32.14-.63.38-.85.25-.21.57-.3.89-.27,7.42.93,11.52,4.48,15.86,8.23,5.44,4.69,11.06,9.55,22.33,9.55s16.89-4.86,22.34-9.57l.74.85-.74-.85ZM189.12,637.84c.19-.24.46-.4.77-.43,8.66-.97,14.11-5.16,18.92-8.85l.69.89-.68-.9c5.49-4.22,10.68-8.2,19.97-8.2s13.79,3.94,18.63,8.12c5.25,4.53,10.68,9.22,21.57,9.22s16.31-4.68,21.56-9.21c4.84-4.18,9.41-8.13,18.62-8.13s13.77,3.94,18.6,8.12c5.01,4.33,10.67,9.22,21.55,9.22s16.3-4.68,21.55-9.21c4.83-4.18,9.4-8.13,18.61-8.13s13.77,3.95,18.6,8.13c5.25,4.53,10.68,9.21,21.55,9.21s16.3-4.68,21.55-9.22c4.83-4.18,9.39-8.12,18.6-8.12s14.46,3.98,19.94,8.2c4.81,3.7,10.25,7.87,18.9,8.84.3.03.58.19.77.43.19.24.26.55.22.85-.45,3.05-.94,6.16-1.48,9.32-.09.54-.56.94-1.11.94H191.49c-.55,0-1.02-.4-1.11-.94-.54-3.15-1.04-6.27-1.48-9.31-.04-.3.04-.61.22-.85ZM513.93,519.79c0,.58-.44,1.07-1.02,1.12-9.24.87-14.47,5.38-19.08,9.36-5.04,4.34-9.8,8.45-19.39,8.45s-14.36-4.11-19.41-8.46c-5.45-4.7-11.08-9.55-22.35-9.55s-16.9,4.86-22.35,9.56c-5.04,4.35-9.8,8.46-19.38,8.46s-14.37-4.12-19.41-8.47c-5.44-4.69-11.06-9.55-22.33-9.55s-16.9,4.86-22.35,9.56c-5.04,4.35-9.8,8.46-19.38,8.46s-14.13-3.93-19.39-8.47c-5.44-4.69-11.06-9.55-22.32-9.55s-16.9,4.86-22.35,9.57c-5.04,4.34-9.79,8.45-19.37,8.45s-14.34-4.11-19.38-8.46c-4.6-3.97-9.81-8.47-19.05-9.35-.58-.06-1.02-.54-1.02-1.12v-8.84c0-.62.51-1.13,1.13-1.13h327.1c.62,0,1.13.51,1.13,1.13v8.83ZM182.32,447.97c-1.24,0-2.26,1.01-2.26,2.26v130.56c0,18.87,1.52,48.62,8.75,83.2.08.41-.07.84-.39,1.1-.21.17-.46.26-.71.26-.15,0-.3-.03-.45-.09-51.98-22.46-99.42-90.13-99.53-141.97,1.7-27.18,8.06-48.53,11.18-56.03,4.53-10.89,10.74-14.75,14.69-14.75.44,0,.86.04,1.26.13,3.69.79,5.79,5.21,5.6,11.82-.26,9.02,3.41,16.67,9.8,20.45,4.77,2.83,10.24,2.99,14.62.41,3.13-1.83,8.34-6.68,8.07-18.52-1.89-82.76,71.77-121.88,97.73-129.07.6-.16,1.19.17,1.37.74,3.59,11.28,5.42,22.2,5.42,32.48,0,1.24,1.01,2.26,2.26,2.26h15.57c.31,0,.61.13.83.36.21.23.32.54.3.85-1.77,23.99-21.75,73.55-72.25,73.55h-21.85ZM227.59,759.2c-.27-.51-.11-1.14.36-1.46.47-.33,1.12-.25,1.49.19,22.5,26.09,49.37,34.74,82.13,26.48,6.87-1.73,13.11-4.18,19.11-7.5.53-.29.91-.77,1.08-1.35.17-.58.1-1.19-.19-1.72-.6-1.08-1.98-1.48-3.07-.88-5.61,3.11-11.51,5.43-18.02,7.07-43.18,10.88-75.58-9.3-101.96-63.46-7.25-19.68-12.93-40.43-16.93-61.79-.06-.33.03-.67.24-.93.22-.26.53-.41.87-.41h313.13c.34,0,.65.15.87.41.22.26.3.6.24.93-3.93,21.01-9.5,41.43-16.53,60.73-.15.42-.54.71-.99.74-.44.11-.87-.21-1.07-.61-5.03-9.74-13.59-17.37-24.76-22.05-18.51-7.76-41.47-6.36-59.91,3.65-16.33,8.86-27.03,23.46-37.39,37.59l-.91,1.24c-.35.48-.5,1.08-.41,1.67.09.59.41,1.12.89,1.48.45.33,1.07.49,1.67.37.62-.09,1.16-.41,1.49-.85l.9-1.22c10.51-14.36,20.45-27.92,35.91-36.31,17.27-9.38,38.74-10.71,56.01-3.45,12.54,5.26,21.46,14.52,25.13,26.08.08.25.07.51-.03.75-18.79,47.44-46.71,87.79-82.97,119.91-.21.18-.47.28-.75.28h-107.92c-.28,0-.54-.1-.75-.28-26.98-23.91-49.51-52.61-66.96-85.3ZM412.79,849.3c.62,0,1.13.51,1.13,1.13v13.28c0,.62-.51,1.13-1.13,1.13h-127.06c-.62,0-1.13-.51-1.13-1.13v-13.28c0-.62.51-1.13,1.13-1.13h127.06ZM538.5,700.34c22.95-28.34,43.74-59.81,60.13-91.02.11-.22.3-.39.52-.49,23.99-11.44,39.07-34.32,44.7-50.44,2.67-7.64,8.41-12.29,13.97-16.79,2.3-1.87,4.73-3.88,6.86-6.06.33-.34.85-.43,1.29-.23.44.21.69.67.64,1.14-7.67,72.01-39.4,124.02-57.03,126.82-14.04,2.23-18.22,14.32-21.57,24.04-2.3,6.66-4.28,12.4-8.55,13.82-3.19,1.07-5.61.11-8.97-1.22-6.23-2.47-13.99-5.55-30.63,2.16-.15.07-.32.11-.48.11-.34,0-.67-.15-.89-.44-.32-.41-.32-1,.01-1.4ZM641.07,463.9c0-.13.02-.25.07-.37,2.01-5.68,4.99-11.34,8.4-15.93.07-.1.16-.18.26-.25,3.14-2.19,4.99-1.3,5.6-1,7.45,3.7,12.73,27.66,12.85,58.28.02,4.44-.08,9.04-.31,14.06-.44,9.22-6.53,14.16-12.98,19.39-5.76,4.67-12.29,9.96-15.38,18.81-4.26,12.22-15.63,30.74-33.64,42.69-.19.13-.41.19-.63.19-.27,0-.53-.1-.74-.28-.38-.33-.49-.89-.27-1.34,23.93-48.52,36.64-94.95,36.77-134.25ZM479.53,410.08c-.03-.6.41-1.11,1-1.18,11.37-1.25,22.79-8.96,32.15-21.71,11.07-15.07,16.93-34.26,14.56-47.73-.05-.3.02-.6.19-.85.17-.24.44-.41.74-.46,25.02-4.01,49.17,2.33,68.06,17.86,18.4,15.12,40.33,46,40.33,107.27,0,99.94-80.19,224.6-155.64,291.15-.21.19-.48.28-.74.28-.24,0-.48-.08-.69-.23-.43-.33-.56-.91-.32-1.4,1.51-3.05,3.04-6.24,4.6-9.65.05-.11.12-.21.21-.3,21.41-22.72,128.19-143.01,128.19-279.85,0-31.28-5.74-55.33-17.06-71.48-9.39-13.41-22.64-20.8-37.27-20.8-23.39,0-43.9,18.5-43.9,39.59,0,1.24,1.01,2.26,2.26,2.26,13.77,0,20.04,9.1,20.04,17.56,0,4.59-1.74,8.86-4.91,12.03-3.62,3.62-8.85,5.53-15.13,5.53-21.79,0-35.5-14.17-36.66-37.9ZM512.81,452.49c.62,0,1.13.51,1.13,1.13v50.58c0,.62-.51,1.13-1.13,1.13H185.71c-.62,0-1.13-.51-1.13-1.13v-50.58c0-.62.51-1.13,1.13-1.13h327.1ZM464.27,445.83c.48.22.73.75.62,1.26-.12.52-.57.88-1.1.88h-229.05c-.53,0-.98-.37-1.1-.88-.11-.52.14-1.04.62-1.26,28.91-13.71,45.37-46.37,46.69-71.54.03-.6.53-1.07,1.13-1.07h134.39c.6,0,1.1.47,1.13,1.07,1.32,25.17,17.78,57.83,46.69,71.54ZM435.4,343.37c.62,0,1.13.51,1.13,1.13v23.08c0,.62-.51,1.13-1.13,1.13h-172.35c-.61,0-1.11-.48-1.13-1.09-.74-20.88-8.13-39.05-12.47-48.01-.18-.36-.15-.78.07-1.11.22-.34.59-.53,1-.51,18.84.95,34.66,6.44,51.4,12.25,18.63,6.46,37.85,13.14,61.78,13.14h71.69ZM462.81,279.19c-14.96,6.14-37.87,29.02-39.54,58.61-.04.6-.53,1.07-1.13,1.07h-17.19c-.3,0-.6-.12-.81-.34-.21-.22-.33-.52-.32-.82,1.27-38.8,24.06-66.36,43.18-78.17.41-.24.91-.22,1.3.07,6.42,5.07,11.5,11.14,15.08,18.02.15.28.17.61.06.91-.11.3-.33.53-.63.66ZM138.48,281.15c60.12-46.58,134.97-72.23,210.77-72.23,83.16,0,163.48,30.03,226.17,84.55,1.49,1.23,4.87,4.36,3.68,6.3-1.94,3.15-12.1,4.37-19.03,1.35-14.57-6.38-41.5-12.25-50.05,6.24-5.86,12.7-18.08,20.42-26.99,20.42-1.23,0-2.39-.15-3.47-.45-3.16-.89-6.73-3.6-5.81-11.5,4.45-38.29-15.99-57.63-33.91-67.11-10.08-5.34-20.83-6.22-28.18-2.29-5.38,2.86-8.61,7.89-9.31,14.53-.26,2.46-2.04,4.62-5.01,6.08-6.79,3.34-20.26,3.06-37.72-7.76-24.67-15.28-61.49-20.9-103.64-15.84-39.33,4.73-79.53,18.41-116.24,39.56-.51.29-1.17.15-1.5-.35-.33-.49-.22-1.16.25-1.52ZM238.69,880.22c-72.15-34-107.36-81.22-127.57-113.79-9.59-15.44-12.96-25-10.32-29.22.75-1.2,2.57-2.61,5.23-2.61,4.25.06,8.73,3.75,12.65,10.39,3.45,5.83,9.19,8.73,15.38,7.69,5.25-.87,9.39-4.39,10.29-8.75.53-2.53.37-7.46-6.65-12.01-17.81-11.54-32.96-25.28-45.01-40.84-.37-.48-.91-.78-1.5-.86-.59-.06-1.2.1-1.67.46-.98.76-1.16,2.18-.4,3.16,12.38,15.96,27.9,30.05,46.13,41.86,3.53,2.28,5.19,4.88,4.69,7.3-.52,2.47-3.3,4.67-6.61,5.22-2.08.33-7.24.43-10.76-5.53-6.09-10.32-12.4-12.55-16.63-12.61-3.69,0-7.13,1.81-8.96,4.73-3.81,6.07-.73,16.23,10.3,34,14.01,22.57,37.5,56.06,79.56,86.21.48.35.62,1.01.3,1.52-.31.51-.97.67-1.49.39-55.83-30.27-102.32-75.52-134.45-130.84-24.32-62.45-32.49-124.57-24.35-184.79.08-.6-.07-1.2-.44-1.67-.36-.47-.89-.78-1.44-.85-.63-.11-1.2.02-1.68.37-.49.36-.82.93-.9,1.55-6.23,46.08-2.99,93.6,9.62,141.24.15.58-.17,1.17-.73,1.36-.57.19-1.18-.1-1.4-.64-16.82-41.16-25.34-84.55-25.34-128.97,0-36.67,5.84-72.95,17.36-107.82,19.04-50.54,55.65-93.06,103.11-119.77.53-.3.91-.78,1.07-1.36.17-.58.09-1.19-.2-1.71-.3-.53-.78-.91-1.37-1.07-.58-.16-1.19-.09-1.7.2-26.29,14.79-50.17,35.11-69.07,58.77-.37.46-1.04.56-1.52.22-.49-.33-.63-.99-.34-1.5,13.44-22.87,29.53-44.21,47.82-63.42,88.29-72.56,204.42-86,257.57-53.07,16.16,10,31.89,12.98,42.07,7.98,4.36-2.13,7.1-5.65,7.52-9.65.54-5.09,2.93-8.9,6.94-11.03,6.03-3.21,15.22-2.32,23.95,2.3,1.55.82,3.08,1.7,4.54,2.62.32.2.52.56.53.93s-.18.74-.49.95c-9.71,6.64-41.53,32.07-42.99,80.53-.02.61-.52,1.09-1.13,1.09h-34.48c-2.36,0-4.7-.07-7.17-.22-.56-.04-1-.46-1.06-1.01-2.53-24.76-34.47-49.34-64.7-60.85-1.15-.41-2.46.19-2.9,1.32-.44,1.16.15,2.47,1.31,2.91,27.29,10.38,58.15,33.42,61.58,55.67.05.35-.06.7-.3.96-.24.25-.59.37-.94.33-17.3-1.99-32.61-7.31-46.11-12-10.8-3.75-22.96-7.97-35.88-10.41-.29-.06-.55-.22-.72-.47-10.24-14.91-33.15-21.99-62.84-19.45-1.24.11-2.16,1.2-2.05,2.44.1,1.23,1.07,2.05,2.36,2.05,23.86-2.03,42.95,2.2,53.85,11.92.37.33.48.85.28,1.3-.19.45-.67.72-1.15.67-4.24-.46-8.32-.68-12.46-.68-.81,0-1.56.43-1.96,1.13-.4.71-.4,1.57,0,2.26.02.03,3.44,5.94,6.96,15.3.11.3.09.62-.05.9-.15.28-.4.49-.7.58-22.14,6.32-65.57,29.16-87.88,74.7-.23.47-.76.71-1.26.6-2.11-.48-3.63-1.48-4.5-2.99-3.75-6.43,2.61-19.95,3.93-22.59,4.21-8.46,4.58-15.1,1.04-18.7-2.52-2.55-7.87-4.45-19.12.98-21.13,10.16-50.85,43.3-66.16,92.05-1.47,4.68-3.89,7.6-6.63,8.01-1.59.21-3.12-.44-3.96-1.67-.5-.72-1.15-2.25.02-4.31,2.34-4.13,2.75-7.58,1.23-10.25-1.48-2.6-4.4-3.57-6.44-3.6-5.79.05-10.82,4.98-14.92,14.66l-.51,1.21c-3.01,7.07-10.95,25.72-16.95,53.15-.13.59-.02,1.19.3,1.69.33.52.83.86,1.42.99,1.21.27,2.42-.51,2.68-1.72,5.94-27.16,13.76-45.48,16.71-52.37l.5-1.19c3.2-7.57,7.09-11.91,10.68-11.91.76.01,2.05.37,2.6,1.32.67,1.17.22,3.23-1.23,5.8-1.71,3.03-1.64,6.43.19,9.09,1.82,2.65,5.08,4.05,8.35,3.57,2.65-.4,7.51-2.38,10.26-11.12,14.25-45.35,42.89-79.27,63.82-89.34,6.7-3.22,11.92-3.92,13.96-1.87,2,2.03,1.29,7.21-1.86,13.52-2.7,5.41-8.47,18.86-3.79,26.88,1.3,2.23,3.37,3.8,6.16,4.68.3.09.55.31.69.6.13.29.14.62.01.91-7.03,16.5-10.37,34.2-9.95,52.62.16,7.06-1.91,12.22-5.83,14.52-2.97,1.72-6.72,1.57-10.04-.39-4.96-2.94-7.8-9.09-7.59-16.44.26-8.96-3.17-15.07-9.17-16.36-6.31-1.37-15.29,3.43-21.07,17.3-11.08,26.62-23.56,98.9,8.63,152.42,3.39,5.64,3.84,10.62,1.26,14.02-2.36,3.12-7.12,4.51-11.29,3.36-4.06-1.13-6.58-4.26-7.08-8.8-1.73-15.71-5.17-24.88-10.83-28.87-3.06-2.15-6.73-2.75-10.95-1.75-5.68,1.35-10.77,8.61-9.03,19.39,2.38,14.78,6.46,28.95,12.14,42.11.22.52.68.94,1.26,1.17.57.22,1.19.23,1.71,0,.56-.24.98-.68,1.21-1.24.22-.56.21-1.18-.03-1.72-5.53-12.85-9.51-26.66-11.83-41.04-1.26-7.82,1.88-13.4,5.63-14.29,2.92-.71,5.3-.36,7.3,1.05,4.46,3.15,7.39,11.55,8.94,25.68.7,6.32,4.57,11.06,10.36,12.66,5.98,1.65,12.61-.39,16.08-4.98,2.19-2.88,4.97-9.18-.98-19.07-8.58-14.27-14.48-30.76-17.51-49-.09-.57.26-1.12.82-1.27.58-.15,1.15.15,1.35.69,7.34,19.36,18.8,38.65,33.14,55.8,7.65,14.31,15.35,25.47,21.53,34.43,10.24,14.8,16.97,24.54,14.08,33.93-4.6,14.92-7.21,31.92,8.17,44.88,3.04,2.56,6.58,5.01,10,7.38,7.54,5.22,15.31,10.6,15.76,15.97.2,2.4-1.06,4.88-3.83,7.58-.74.73-.9,1.86-.37,2.75,14.61,24.95,48.91,45.29,73.78,51.77.22.06.41.18.56.35,6.63,7.54,13.82,14.93,21.37,21.95.34.31.45.81.28,1.24-.17.43-.59.71-1.05.71h-2.98c-1.24,0-2.26,1.01-2.26,2.26v20.05c0,1.24,1.01,2.26,2.26,2.26h30.34c.37,0,.72.19.93.5.21.31.25.7.11,1.05-3.44,8.59-8.21,16.69-13.8,23.44-.22.26-.53.41-.87.41-20.63-3.01-40.89-7.89-60.38-14.52ZM277.7,917.48c18.53-8.74,33.17-25.57,41.21-47.39.16-.44.59-.74,1.06-.74h58.57c.47,0,.89.3,1.06.74,8.03,21.81,22.67,38.64,41.21,47.39.48.23.74.75.62,1.27s-.57.88-1.1.88h-142.15c-.53,0-.99-.37-1.1-.88s.14-1.04.62-1.27ZM462.18,948.34c0,.62-.51,1.13-1.13,1.13h-223.58c-.62,0-1.13-.51-1.13-1.13v-23.07c0-.62.51-1.13,1.13-1.13h223.58c.62,0,1.13.51,1.13,1.13v23.07Z"/><path class="cls-1" d="M341.86,769.39c3.11-2.5,6.06-5.2,9.02-8.27.42-.43.64-1,.63-1.61-.01-.6-.26-1.16-.69-1.58-.38-.38-.91-.57-1.71-.63-.5.01-1.06.26-1.48.69-2.87,2.97-5.68,5.54-8.6,7.87-.97.78-1.13,2.2-.35,3.18.75.93,2.23,1.09,3.17.35Z"/><path class="cls-1" d="M259.24,274.2c3.35.17,6.88.59,10.5,1.25.11.02.25.03.39.03,1.08,0,2.02-.78,2.22-1.86.22-1.22-.59-2.4-1.82-2.62-3.84-.7-7.54-1.14-10.98-1.3-.13-.02-.25-.02-.37-.02-.52,0-.93.15-1.28.45-.48.4-.77,1.02-.8,1.71-.03.6.18,1.18.59,1.63.4.45.96.71,1.56.73Z"/><path class="cls-1" d="M174.69,305.51c2.7-.73,5.44-1.41,8.13-2.01,1.21-.27,1.98-1.48,1.71-2.71-.24-1.05-1.15-1.76-2.19-1.76-.17,0-.33.02-.51.06-2.74.62-5.52,1.3-8.32,2.06-.58.16-1.07.53-1.37,1.06-.3.52-.38,1.13-.22,1.71.32,1.16,1.54,1.92,2.77,1.59Z"/><path class="cls-1" d="M81.13,674.1c-.31-.52-.8-.89-1.38-1.04-.19-.04-.38-.07-.57-.07-.4,0-.79.11-1.14.32-.52.31-.89.8-1.04,1.38-.15.59-.06,1.19.25,1.7,1.15,1.95,2.32,3.85,3.51,5.68.65,1.01,2.09,1.34,3.12.67,1.04-.67,1.34-2.08.67-3.12-1.16-1.8-2.3-3.64-3.42-5.53Z"/><path class="cls-1" d="M535.31,803.68c-.36-.22-.76-.33-1.15-.33-.17,0-.34.02-.51.06-3.14.72-6.39,1.25-9.67,1.6-1.24.13-2.14,1.24-2.01,2.48.12,1.15,1.08,2.02,2.24,2.02,3.67-.37,7.1-.93,10.43-1.69.59-.13,1.08-.49,1.41-1,.32-.51.42-1.11.29-1.71-.14-.6-.5-1.11-1.02-1.43Z"/><path class="cls-1" d="M68.22,184.98c3.11,1.15,5.64,2.02,7.7,2.72,8.13,2.78,8.34,3,11.13,11.13.71,2.07,1.57,4.59,2.72,7.7.33.89,1.17,1.48,2.12,1.48s1.79-.59,2.12-1.47c1.15-3.12,2.02-5.64,2.72-7.7,2.78-8.13,3-8.35,11.13-11.13,2.07-.71,4.59-1.57,7.7-2.72.89-.33,1.48-1.17,1.48-2.12s-.59-1.79-1.47-2.12c-3.05-1.12-5.52-1.97-7.68-2.71-8.16-2.79-8.37-3-11.16-11.13-.71-2.07-1.57-4.59-2.72-7.7-.3-.81-1.13-1.34-2.12-1.34s-1.82.52-2.12,1.33c-1.15,3.11-2.02,5.64-2.72,7.7-2.78,8.13-3,8.35-11.13,11.13-2.07.71-4.59,1.57-7.7,2.72-.89.33-1.48,1.17-1.48,2.12s.59,1.79,1.47,2.12ZM78.82,181.8c8.14-2.85,9.15-3.86,12-12,.16-.45.59-.76,1.07-.76s.91.3,1.07.76c2.85,8.15,3.86,9.16,12,12,.45.16.76.59.76,1.07s-.3.91-.75,1.07c-8.15,2.85-9.16,3.86-12,12-.16.45-.59.75-1.07.75s-.91-.3-1.07-.75c-2.85-8.14-3.86-9.15-12-12-.45-.16-.75-.59-.75-1.07s.3-.91.75-1.07Z"/><path class="cls-1" d="M86.51,72.42c2.35.87,4.26,1.52,5.82,2.05,5.82,1.99,6.05,2.22,8.03,8.03.53,1.56,1.19,3.46,2.06,5.81.33.89,1.17,1.48,2.12,1.48s1.79-.59,2.12-1.47c.87-2.36,1.52-4.26,2.06-5.82,1.99-5.81,2.21-6.04,8.03-8.03,1.56-.53,3.46-1.19,5.81-2.05.89-.33,1.48-1.17,1.48-2.12s-.59-1.79-1.47-2.12c-2.35-.87-4.26-1.52-5.82-2.05-5.82-1.99-6.05-2.21-8.03-8.03-.53-1.56-1.19-3.47-2.06-5.82-.3-.81-1.13-1.33-2.12-1.33s-1.82.52-2.12,1.33c-.87,2.35-1.52,4.26-2.06,5.82-1.99,5.82-2.22,6.05-8.03,8.03-1.56.53-3.46,1.19-5.81,2.05-.89.33-1.48,1.17-1.48,2.12s.59,1.79,1.47,2.12ZM96.99,69.25c3.89-1.52,4.98-2.61,6.5-6.5.33-.86,1.76-.86,2.1,0,1.52,3.88,2.61,4.98,6.5,6.5.43.17.72.59.72,1.05s-.28.88-.72,1.05c-3.89,1.52-4.98,2.62-6.5,6.5-.17.43-.59.72-1.05.72s-.88-.29-1.05-.72c-1.52-3.88-2.61-4.97-6.5-6.5-.44-.17-.72-.59-.72-1.05s.29-.88.72-1.05Z"/><path class="cls-1" d="M165.99,130.97c3.67,1.35,6.67,2.39,9.16,3.24l.36.12c10.31,3.53,10.58,3.79,14.1,14.1l.1.29c.88,2.56,1.92,5.57,3.27,9.23.33.89,1.17,1.48,2.12,1.48s1.79-.59,2.12-1.47c1.39-3.76,2.44-6.82,3.37-9.52,3.53-10.31,3.79-10.57,14.28-14.16,2.52-.87,5.58-1.92,9.33-3.3.89-.33,1.48-1.17,1.48-2.12s-.59-1.79-1.47-2.12c-3.85-1.43-6.97-2.49-9.53-3.37-10.3-3.53-10.57-3.79-14.1-14.1-.87-2.56-1.94-5.67-3.36-9.51-.33-.89-1.17-1.48-2.12-1.48s-1.79.59-2.12,1.47c-1.43,3.85-2.49,6.97-3.37,9.53-3.53,10.3-3.79,10.57-14.1,14.1-2.56.87-5.67,1.94-9.51,3.36-.89.33-1.48,1.17-1.48,2.12s.59,1.79,1.47,2.12ZM176.55,127.79s.26-.09.27-.09c12.4-4.24,12.88-4.72,17.07-16.96l.15-.42c.16-.45.59-.76,1.07-.76s.91.31,1.07.76l.14.41c4.19,12.25,4.67,12.72,16.91,16.91l.42.15c.45.15.76.58.76,1.07s-.3.91-.76,1.07l-.42.15c-12.25,4.19-12.73,4.66-16.91,16.91l-.15.42c-.16.45-.59.76-1.07.76s-.91-.31-1.07-.76l-.15-.42c-4.19-12.24-4.66-12.72-16.9-16.9l-.42-.15c-.45-.16-.76-.58-.76-1.06s.3-.91.75-1.07Z"/><path class="cls-1" d="M608.75,159.2c-.3-.81-1.13-1.34-2.12-1.34s-1.82.52-2.12,1.33c-1.15,3.12-2.02,5.64-2.72,7.71-2.78,8.13-3,8.34-11.25,11.16-2.04.71-4.53,1.56-7.58,2.68-.89.33-1.48,1.17-1.48,2.12s.59,1.79,1.47,2.12c3.12,1.15,5.64,2.02,7.71,2.72,8.13,2.78,8.34,3,11.13,11.13.71,2.07,1.57,4.59,2.72,7.7.33.89,1.17,1.48,2.12,1.48s1.79-.59,2.12-1.47c1.15-3.12,2.02-5.64,2.72-7.7,2.78-8.13,3-8.35,11.13-11.13,2.07-.71,4.59-1.57,7.7-2.72.89-.33,1.48-1.17,1.48-2.12s-.59-1.79-1.47-2.12c-3.12-1.15-5.64-2.02-7.71-2.72-8.13-2.78-8.34-3-11.13-11.13-.71-2.07-1.57-4.59-2.72-7.7ZM619.7,181.8c.45.16.75.59.75,1.07s-.3.91-.75,1.07c-8.14,2.85-9.15,3.86-12,12-.16.45-.59.75-1.07.75s-.91-.3-1.07-.75c-2.85-8.14-3.86-9.15-12-12-.45-.16-.75-.59-.75-1.07s.3-.91.76-1.07c8.14-2.84,9.15-3.85,12-12,.32-.91,1.82-.91,2.13,0,2.85,8.15,3.86,9.16,12,12Z"/><path class="cls-1" d="M575.96,72.42c2.35.87,4.26,1.52,5.82,2.05,5.82,1.99,6.05,2.22,8.03,8.03.53,1.56,1.19,3.46,2.06,5.81.33.89,1.17,1.48,2.12,1.48s1.79-.59,2.12-1.47c.87-2.36,1.52-4.26,2.06-5.82,1.99-5.81,2.21-6.04,8.03-8.03,1.56-.53,3.46-1.19,5.81-2.05.89-.33,1.48-1.17,1.48-2.12s-.59-1.79-1.47-2.12c-2.35-.87-4.26-1.52-5.82-2.05-5.82-1.99-6.05-2.21-8.03-8.03-.53-1.56-1.19-3.47-2.06-5.82-.3-.81-1.13-1.33-2.12-1.33s-1.82.52-2.12,1.33c-.87,2.35-1.52,4.26-2.06,5.82-1.99,5.82-2.22,6.05-8.03,8.03-1.56.53-3.46,1.19-5.81,2.05-.89.33-1.48,1.17-1.48,2.12s.59,1.79,1.47,2.12ZM586.43,69.25c3.89-1.52,4.98-2.61,6.5-6.5.33-.86,1.76-.86,2.1,0,1.52,3.88,2.61,4.98,6.5,6.5.43.17.72.59.72,1.05s-.28.88-.72,1.05c-3.89,1.52-4.98,2.62-6.5,6.5-.17.43-.59.72-1.05.72s-.88-.29-1.05-.72c-1.52-3.88-2.61-4.97-6.5-6.5-.44-.17-.72-.59-.72-1.05s.29-.88.72-1.05Z"/><path class="cls-1" d="M474.32,130.97c3.76,1.39,6.82,2.44,9.52,3.37,10.31,3.53,10.57,3.79,14.16,14.28.87,2.52,1.92,5.58,3.31,9.33.33.89,1.17,1.48,2.12,1.48s1.79-.59,2.12-1.47c1.35-3.67,2.39-6.67,3.24-9.16l.12-.36c3.53-10.31,3.79-10.58,14.1-14.1l.29-.1c2.56-.88,5.57-1.92,9.23-3.27.89-.33,1.48-1.17,1.48-2.12s-.59-1.79-1.47-2.12c-3.85-1.42-6.97-2.49-9.52-3.36-10.31-3.53-10.57-3.79-14.1-14.1-.87-2.56-1.94-5.68-3.37-9.52-.3-.81-1.13-1.33-2.12-1.33s-1.82.52-2.12,1.33c-1.42,3.85-2.49,6.96-3.36,9.52-3.53,10.31-3.79,10.57-14.1,14.1-2.56.87-5.68,1.94-9.52,3.37-.89.33-1.48,1.17-1.48,2.12s.59,1.79,1.47,2.12ZM484.88,127.79l.42-.15c12.24-4.19,12.72-4.66,16.91-16.91.15-.45.65-.97,1.13-.97.49,0,.98.1,1.14.56l.15.42c4.19,12.25,4.66,12.72,16.91,16.91.45.15.96.65.97,1.13,0,.48-.1.98-.56,1.14l-.42.15c-12.25,4.19-12.72,4.66-16.91,16.9l-.15.42c-.15.45-.58.76-1.07.76s-.91-.3-1.07-.76l-.15-.42c-4.19-12.25-4.66-12.73-16.91-16.91l-.42-.15c-.45-.16-.76-.59-.76-1.07s.31-.91.76-1.07Z"/><path class="cls-1" d="M263.84,86.48l21.58,11.72c.29.15.49.42.56.74.07.32,0,.65-.19.91l-14.36,19.93c-.49.67-.57,1.55-.21,2.29.36.75,1.1,1.24,1.93,1.28l24.53,1.2c.33.02.63.17.83.42.2.26.29.58.23.9l-4.29,24.18c-.15.82.16,1.64.81,2.15.66.52,1.53.65,2.29.32l22.62-9.57c.14-.06.29-.09.44-.09.17,0,.33.04.49.11.29.14.51.4.6.71l6.63,23.65c.22.8.85,1.41,1.66,1.59.77.2,1.65-.08,2.2-.71l16.23-18.44c.21-.24.52-.38.85-.38s.63.14.85.38l16.22,18.44c.52.58,1.46.86,2.2.71.8-.19,1.44-.79,1.67-1.6l6.62-23.65c.09-.31.31-.57.6-.71.29-.15.63-.15.93-.02l22.63,9.57c.76.33,1.63.21,2.26-.31.66-.52.97-1.35.83-2.17l-4.29-24.18c-.06-.32.03-.65.23-.9.2-.25.5-.41.83-.42l24.53-1.2c.83-.04,1.56-.52,1.92-1.26.37-.75.29-1.63-.2-2.3l-14.36-19.93c-.19-.26-.26-.59-.19-.91.07-.32.28-.59.56-.74l21.58-11.72c.72-.4,1.18-1.15,1.18-1.98s-.45-1.59-1.18-1.98l-21.58-11.72c-.29-.15-.49-.42-.56-.74-.07-.32,0-.65.19-.91l14.36-19.93c.49-.67.57-1.55.21-2.29-.36-.75-1.1-1.24-1.93-1.28l-24.53-1.19c-.33-.02-.63-.17-.83-.42-.2-.26-.29-.58-.23-.9l4.29-24.18c.15-.82-.16-1.64-.81-2.15-.63-.52-1.51-.64-2.31-.32l-22.6,9.57c-.3.12-.64.12-.93-.02s-.51-.4-.6-.71l-6.63-23.65c-.22-.8-.85-1.41-1.65-1.59-.86-.22-1.66.07-2.21.71l-16.23,18.43c-.42.48-1.27.48-1.69,0L332.19.78c-.54-.63-1.41-.89-2.19-.72-.81.19-1.45.8-1.68,1.6l-6.62,23.65c-.09.31-.31.57-.6.71-.3.14-.63.14-.93.02l-22.63-9.57c-.75-.33-1.63-.21-2.26.31-.66.52-.97,1.35-.83,2.16l4.29,24.18c.06.32-.03.65-.23.9-.2.25-.5.41-.83.42l-24.53,1.19c-.83.04-1.56.52-1.92,1.26-.37.75-.29,1.63.2,2.3l14.36,19.93c.19.26.26.59.19.91-.07.32-.28.59-.56.74l-21.58,11.72c-.72.4-1.18,1.15-1.18,1.98s.45,1.59,1.18,1.98ZM296.71,119.36c-.2.35-.58.56-.98.56-.05,0-16.13-.78-16.13-.78-.41-.02-.78-.26-.96-.64-.18-.37-.14-.82.1-1.15l9.39-13.03c.25-.34.63-.53,1.08-.45.41.06.76.35.9.75,1.63,4.76,3.84,9.32,6.57,13.57.23.36.24.81.03,1.18ZM316.37,139.66l-14.84,6.28c-.14.06-.29.09-.44.09-.25,0-.5-.08-.71-.25-.32-.26-.48-.67-.41-1.08l2.82-15.91c.07-.41.37-.75.78-.88.41-.12.85-.01,1.14.29,3.56,3.64,7.54,6.82,11.8,9.46.36.22.56.63.53,1.05-.03.42-.3.78-.68.95ZM343.56,148.46l-10.65,12.1c-.22.25-.52.38-.85.38-.08,0-.17,0-.25-.03-.4-.09-.72-.4-.84-.8l-4.34-15.49c-.11-.41.01-.84.32-1.13.31-.28.75-.37,1.15-.23,4.69,1.69,9.65,2.81,14.72,3.33.42.04.78.32.93.71.15.4.08.84-.2,1.16ZM367.54,160.12c-.11.4-.44.71-.84.8-.08.02-.17.03-.25.03-.32,0-.63-.14-.85-.38l-10.65-12.1c-.28-.32-.36-.76-.2-1.16.15-.39.52-.67.93-.71,5.07-.52,10.02-1.64,14.72-3.33.4-.14.85-.05,1.15.23.31.29.43.73.32,1.13l-4.34,15.49ZM398.13,145.78c-.21.16-.45.25-.71.25-.15,0-.3-.03-.44-.09l-14.84-6.28c-.39-.17-.65-.53-.68-.95-.04-.42.17-.82.53-1.05,4.27-2.64,8.24-5.82,11.8-9.46.3-.3.72-.41,1.14-.29.4.13.7.47.78.88l2.82,15.91c.07.41-.08.82-.41,1.08ZM419.78,117.36c.24.33.28.78.1,1.15-.18.37-.55.62-.96.64-.24.01-.34.02-.43.02-.38.02-.86.04-.86.04-.21.01-.45.02-.7.03l-1.02.05c-.32.02-.65.03-1.01.05-.93.05-1.97.1-3.02.15l-9.03.44c-.45,0-.83-.22-1.03-.56-.21-.37-.2-.82.03-1.18,2.73-4.24,4.94-8.81,6.57-13.57.14-.4.48-.69.9-.75.44-.07.83.11,1.08.45l9.39,13.03ZM412.89,75.81l14.16,7.69c.37.2.59.58.59.99s-.22.79-.59.99l-14.16,7.69c-.17.09-.35.14-.54.14-.22,0-.44-.07-.64-.2-.35-.24-.53-.65-.48-1.08.35-2.73.52-5.2.52-7.54s-.17-4.82-.52-7.54c-.05-.42.13-.84.48-1.08.36-.24.81-.27,1.18-.06ZM401.81,49.63c.21-.37.59-.58,1.03-.56l16.08.78c.41.02.78.26.96.64.18.37.14.82-.1,1.15l-9.39,13.03c-.22.3-.56.47-.92.47-.58-.07-.93-.37-1.07-.76-1.62-4.75-3.83-9.32-6.57-13.56-.23-.36-.24-.81-.03-1.18ZM382.15,29.33l14.84-6.28c.37-.16.82-.11,1.15.16.32.26.48.67.41,1.08l-2.82,15.9c-.07.41-.37.75-.78.88-.11.03-.22.05-.34.05-.3,0-.59-.12-.81-.34-3.56-3.63-7.53-6.81-11.8-9.45-.36-.22-.56-.63-.53-1.05.03-.42.3-.78.68-.95ZM375.03,33.21c.34-.2.75-.19,1.09-.02,6.05,3.18,11.43,7.34,16.01,12.37.23.26.33.62.27.96-.07.35-.29.64-.6.8-2.73,1.37-5.71,1.95-8.59,1.95-4.29,0-8.39-1.29-11.19-3.21-.47-.32-.63-.94-.36-1.45,1.68-3.24,2.65-6.87,2.81-10.48.02-.39.23-.74.56-.93ZM354.95,20.53l10.65-12.1c.27-.31.69-.44,1.1-.36.4.09.72.4.84.8l4.34,15.49c.11.41-.01.84-.32,1.13-.21.2-.48.3-.77.3-.13,0-.26-.02-.38-.07-4.72-1.7-9.67-2.82-14.72-3.33-.42-.04-.78-.32-.93-.71-.15-.39-.08-.84.2-1.15ZM369.07,30.07c.39.14.67.49.73.9.09.7.18,1.4.18,2.08,0,11.43-9.29,20.72-20.72,20.72s-20.72-9.29-20.72-20.72c0-.68.08-1.38.18-2.08.06-.41.34-.76.73-.9,12.96-4.75,26.66-4.75,39.62,0ZM330.98,8.87c.11-.4.44-.71.84-.8.41-.08.82.05,1.1.36l10.65,12.1c.28.32.36.76.2,1.15-.15.4-.52.67-.93.71-5.05.51-10,1.63-14.72,3.33-.13.04-.26.07-.38.07-.28,0-.56-.11-.77-.3-.31-.29-.43-.72-.32-1.13l4.34-15.49ZM322.4,33.19c.34-.17.75-.17,1.09.02.33.19.55.54.56.93.16,3.61,1.13,7.24,2.81,10.48.26.51.11,1.13-.37,1.45-2.8,1.91-6.9,3.2-11.19,3.2-2.88,0-5.85-.58-8.58-1.94-.32-.16-.54-.45-.61-.8-.06-.35.04-.71.27-.96,4.57-5.04,9.96-9.2,16.01-12.37ZM300.38,23.21c.33-.26.77-.31,1.15-.16l14.84,6.28c.39.17.65.53.68.95.04.42-.17.82-.53,1.05-4.27,2.64-8.24,5.82-11.8,9.45-.22.22-.51.34-.81.34-.11,0-.22-.02-.33-.05-.4-.13-.7-.47-.78-.88l-2.82-15.9c-.07-.41.08-.82.41-1.08ZM302,51.05c.34-.48.99-.62,1.48-.32,3.53,2.04,7.58,3.12,11.71,3.12,5.07,0,10.13-1.48,13.89-4.06.47-.31,1.1-.24,1.48.17,4.78,5.28,11.59,8.32,18.69,8.32s13.92-3.03,18.69-8.32c.37-.42,1-.49,1.48-.17,3.76,2.58,8.83,4.06,13.89,4.06,4.13,0,8.18-1.08,11.71-3.12.5-.3,1.15-.15,1.49.32,7.02,9.87,10.73,21.43,10.73,33.45,0,31.97-26.01,57.99-57.99,57.99s-57.99-26.02-57.99-57.99c0-12.01,3.71-23.57,10.73-33.45ZM278.74,51.64c-.24-.33-.28-.78-.1-1.15.18-.37.55-.62.96-.64l16.08-.78c.41,0,.82.2,1.03.56.21.37.2.82-.03,1.18-2.74,4.25-4.94,8.81-6.57,13.56-.14.4-.48.69-.9.75-.53.01-.87-.16-1.08-.45l-9.39-13.03ZM271.47,83.5l14.16-7.69c.37-.21.82-.18,1.18.06.35.24.53.65.48,1.08-.35,2.73-.52,5.2-.52,7.54s.17,4.82.52,7.54c.05.42-.13.84-.48,1.08-.19.13-.41.2-.64.2-.19,0-.37-.04-.54-.14l-14.16-7.69c-.37-.2-.59-.58-.59-.99s.22-.79.59-.99Z"/><path class="cls-1" d="M339.67,112.12h19.18c1.24,0,2.26-1.01,2.26-2.26s-1.01-2.26-2.26-2.26h-19.18c-1.24,0-2.26,1.01-2.26,2.26s1.01,2.26,2.26,2.26Z"/><path class="cls-1" d="M321.51,86.41c4.6,0,8.98-2.25,11.72-6.02.35-.48.49-1.08.4-1.67-.1-.6-.42-1.12-.91-1.48-1.01-.72-2.42-.48-3.15.51-1.91,2.64-4.85,4.16-8.06,4.16s-6.19-1.56-8.06-4.16c-.35-.49-.88-.82-1.48-.91-.13-.02-.26-.04-.39-.04-.45,0-.88.15-1.28.44-.49.35-.81.87-.9,1.46-.1.6.04,1.2.4,1.69,2.72,3.77,7.1,6.02,11.72,6.02Z"/><path class="cls-1" d="M377.01,86.41c4.61,0,8.99-2.25,11.72-6.02.35-.49.49-1.09.4-1.68-.09-.59-.41-1.11-.9-1.46-.48-.35-1.08-.49-1.71-.4-.56.09-1.09.41-1.45.91-1.87,2.6-4.88,4.15-8.06,4.15s-6.15-1.52-8.06-4.16c-.44-.61-1.14-.93-1.83-.93-.45,0-.91.14-1.31.43-.49.36-.82.88-.91,1.48-.1.59.04,1.19.4,1.67,2.73,3.78,7.11,6.03,11.72,6.03Z"/><path class="cls-1" d="M138.27,855.1c0-1.24-1.01-2.26-2.26-2.26h-42.59c-.59,0-1.09-.46-1.12-1.06-1.67-25.93-22.47-46.74-48.39-48.41-.59-.04-1.06-.53-1.06-1.12v-47.05c0-1.24-1.01-2.26-2.26-2.26s-2.26,1.01-2.26,2.26v99.9c0,1.24,1.01,2.26,2.26,2.26h95.41c1.24,0,2.26-1.01,2.26-2.26ZM87.48,852.48c-.21.23-.51.36-.82.36h-42.67c-.62,0-1.13-.51-1.13-1.13v-42.68c0-.31.13-.61.36-.82.22-.22.54-.34.85-.3,23.62,1.71,42,20.09,43.71,43.72.02.31-.08.62-.3.85Z"/><path class="cls-1" d="M657.91,753.83c-1.24,0-2.26,1.01-2.26,2.26v46.19c0,.59-.46,1.09-1.06,1.12-25.92,1.67-46.72,22.47-48.39,48.39-.04.59-.53,1.06-1.12,1.06h-43.18c-1.24,0-2.26,1.01-2.26,2.26s1.01,2.26,2.26,2.26h96c1.24,0,2.26-1.01,2.26-2.26v-99.02c0-1.24-1.01-2.26-2.26-2.26ZM655.66,851.71c0,.62-.51,1.13-1.13,1.13h-42.66c-.31,0-.61-.13-.82-.36-.22-.23-.32-.54-.3-.85,1.71-23.62,20.09-42,43.7-43.71.31-.05.62.08.85.3.23.21.36.51.36.82v42.67Z"/><path class="cls-1" d="M541.07,240.04h64.05c.59,0,1.09.46,1.12,1.05,1.71,26.39,22.05,46.74,48.36,48.4.59.04,1.06.53,1.06,1.12v122.33c0,1.24,1.01,2.26,2.26,2.26s2.26-1.01,2.26-2.26v-175.16c0-1.24-1.01-2.26-2.26-2.26h-116.84c-1.24,0-2.26,1.01-2.26,2.26s1.01,2.26,2.26,2.26ZM611.03,240.4c.21-.23.51-.36.82-.36h42.68c.62,0,1.13.51,1.13,1.13v42.66c0,.31-.13.61-.36.82-.21.2-.48.3-.77.3-23.71-1.71-42.09-20.09-43.8-43.71-.02-.31.08-.62.3-.85Z"/><path class="cls-1" d="M40.6,353.04c1.24,0,2.26-1.01,2.26-2.26v-60.15c0-.59.46-1.09,1.06-1.12,25.94-1.67,46.74-22.48,48.41-48.41.04-.59.53-1.06,1.12-1.06h64.32c1.24,0,2.26-1.01,2.26-2.26s-1.01-2.26-2.26-2.26H40.6c-1.24,0-2.26,1.01-2.26,2.26v113c0,1.24,1.01,2.26,2.26,2.26ZM42.86,241.17c0-.62.51-1.13,1.13-1.13h42.68c.31,0,.61.13.82.36.22.23.32.54.3.85-.21,2.95-.69,5.83-1.4,8.59-4.99,19.37-21.65,33.64-42.33,35.13-.36,0-.64-.1-.85-.3-.23-.21-.36-.51-.36-.82v-42.68Z"/><path class="cls-1" d="M194.88,914.48c-5.59,0-8.25-2.13-11.34-4.6-3.28-2.62-6.99-5.59-14.16-5.59s-10.88,2.97-14.16,5.59c-3.08,2.47-5.75,4.6-11.34,4.6s-8.24-2.13-11.33-4.6c-3.27-2.62-6.98-5.59-14.15-5.59s-10.88,2.97-14.15,5.59c-3.08,2.47-5.75,4.6-11.33,4.6s-8.24-2.13-11.33-4.6c-3.27-2.62-6.98-5.59-14.15-5.59-1.24,0-2.26,1.01-2.26,2.26s1.01,2.26,2.26,2.26c5.58,0,8.24,2.13,11.33,4.6,3.27,2.62,6.98,5.59,14.15,5.59s10.88-2.97,14.15-5.59c3.08-2.47,5.75-4.6,11.33-4.6s8.24,2.13,11.33,4.6c3.27,2.62,6.98,5.59,14.15,5.59s10.89-2.97,14.17-5.6c3.09-2.47,5.75-4.6,11.33-4.6s8.25,2.13,11.34,4.6c3.28,2.62,6.99,5.59,14.16,5.59,1.24,0,2.26-1.01,2.26-2.26s-1.01-2.26-2.26-2.26Z"/><path class="cls-1" d="M194.88,947.35c-5.59,0-8.25-2.13-11.34-4.6-3.28-2.62-6.99-5.59-14.16-5.59s-10.88,2.97-14.16,5.59c-3.08,2.47-5.75,4.6-11.34,4.6s-8.25-2.13-11.33-4.6c-3.27-2.62-6.98-5.59-14.15-5.59s-10.88,2.97-14.15,5.59c-3.08,2.47-5.75,4.6-11.33,4.6s-8.25-2.13-11.33-4.6c-3.27-2.62-6.98-5.59-14.15-5.59-1.24,0-2.26,1.01-2.26,2.26s1.01,2.26,2.26,2.26c5.59,0,8.25,2.13,11.33,4.61,3.27,2.62,6.98,5.59,14.15,5.59s10.88-2.97,14.15-5.59c3.08-2.47,5.75-4.61,11.33-4.61s8.25,2.13,11.33,4.61c3.27,2.62,6.98,5.59,14.15,5.59s10.88-2.97,14.16-5.59c3.08-2.47,5.75-4.61,11.34-4.61s8.25,2.13,11.34,4.61c3.28,2.62,6.99,5.59,14.16,5.59,1.24,0,2.26-1.01,2.26-2.26s-1.01-2.26-2.26-2.26Z"/><path class="cls-1" d="M631.07,904.28c-7.16,0-10.88,2.97-14.15,5.59-3.08,2.47-5.75,4.6-11.33,4.6s-8.25-2.13-11.34-4.6c-3.27-2.62-6.99-5.59-14.15-5.59s-10.88,2.97-14.15,5.59c-3.08,2.47-5.75,4.6-11.33,4.6s-8.25-2.13-11.34-4.6c-3.28-2.62-6.99-5.59-14.16-5.59s-10.88,2.97-14.16,5.59c-3.08,2.47-5.75,4.6-11.34,4.6-1.24,0-2.26,1.01-2.26,2.26s1.01,2.26,2.26,2.26c7.17,0,10.89-2.97,14.17-5.6,3.09-2.47,5.75-4.6,11.33-4.6s8.25,2.13,11.34,4.6c3.28,2.62,6.99,5.59,14.16,5.59s10.87-2.97,14.15-5.59c3.08-2.47,5.75-4.6,11.33-4.6s8.25,2.13,11.34,4.61c3.27,2.62,6.99,5.59,14.15,5.59s10.88-2.97,14.15-5.59c3.08-2.47,5.75-4.6,11.33-4.6,1.24,0,2.26-1.01,2.26-2.26s-1.01-2.26-2.26-2.26Z"/><path class="cls-1" d="M631.07,937.16c-7.16,0-10.88,2.97-14.15,5.59-3.08,2.47-5.74,4.6-11.33,4.6s-8.25-2.14-11.34-4.61c-3.27-2.62-6.99-5.59-14.15-5.59s-10.88,2.97-14.15,5.59c-3.08,2.47-5.74,4.6-11.33,4.6s-8.25-2.13-11.34-4.6c-3.28-2.62-6.99-5.59-14.16-5.59s-10.88,2.97-14.16,5.59c-3.08,2.47-5.75,4.6-11.34,4.6-1.24,0-2.26,1.01-2.26,2.26s1.01,2.26,2.26,2.26c7.17,0,10.88-2.97,14.16-5.59,3.08-2.47,5.75-4.61,11.34-4.61s8.25,2.13,11.34,4.61c3.28,2.62,6.99,5.59,14.16,5.59s10.88-2.97,14.15-5.59c3.08-2.47,5.74-4.61,11.33-4.61s8.25,2.14,11.34,4.61c3.27,2.62,6.99,5.59,14.15,5.59s10.88-2.97,14.15-5.59c3.08-2.47,5.74-4.61,11.33-4.61,1.24,0,2.26-1.01,2.26-2.26s-1.01-2.26-2.26-2.26Z"/><path class="cls-1" d="M347.3,984.47c-3.15,5.42-18.79,32.9-18.79,43.12,0,11.44,9.31,20.75,20.75,20.75s20.75-9.31,20.75-20.75c0-10.22-15.66-37.72-18.79-43.12-.81-1.38-3.09-1.38-3.9,0ZM349.26,1043.83c-8.95,0-16.23-7.28-16.23-16.23,0-7.48,11.67-29.18,15.25-35.65.4-.71,1.58-.71,1.97,0,3.58,6.47,15.25,28.18,15.25,35.65,0,8.95-7.28,16.23-16.23,16.23Z"/><path class="cls-1" d="M270.07,983.43c-.85,0-1.57.39-1.95,1.04-6.37,10.96-13.81,25.88-13.81,31.82,0,8.69,7.07,15.77,15.77,15.77s15.77-7.08,15.77-15.77c0-5.95-7.44-20.86-13.82-31.82-.37-.64-1.12-1.04-1.95-1.04ZM270.07,1027.55c-6.2,0-11.25-5.05-11.25-11.26,0-4.05,5.3-15.22,10.26-24.32.4-.73,1.59-.73,1.98,0,4.96,9.1,10.27,20.27,10.27,24.32,0,6.21-5.05,11.26-11.26,11.26Z"/><path class="cls-1" d="M428.44,983.43c-.85,0-1.57.39-1.95,1.04-6.37,10.96-13.81,25.88-13.81,31.82,0,8.69,7.07,15.77,15.77,15.77s15.77-7.08,15.77-15.77c0-5.95-7.44-20.86-13.82-31.82-.37-.64-1.12-1.04-1.95-1.04ZM428.44,1027.55c-6.2,0-11.25-5.05-11.25-11.26,0-4.05,5.3-15.22,10.26-24.32.4-.73,1.59-.73,1.98,0,4.96,9.1,10.27,20.27,10.27,24.32,0,6.21-5.05,11.26-11.26,11.26Z"/></g></svg>