<?xml version="1.0" encoding="UTF-8"?><svg id="Layer_2" xmlns="http://www.w3.org/2000/svg" viewBox="0 0 129.97 127.57"><defs><style>.cls-1{fill:#e3cda2;}</style></defs><g id="graphics2"><path class="cls-1" d="M94.96,0c-12.7,0-23.84,6.8-29.98,16.95C58.85,6.8,47.71,0,35.01,0,15.7,0,0,15.7,0,35.01c0,8.84,3.31,17.29,9.31,23.77l7.38-6.83c-4.28-4.62-6.63-10.64-6.63-16.94,0-13.76,11.19-24.95,24.95-24.95s24.95,11.19,24.95,24.95v92.57h10.06V35.01c0-13.76,11.19-24.95,24.95-24.95s24.95,11.19,24.95,24.95c0,6.3-2.36,12.32-6.63,16.94l7.38,6.83c6-6.49,9.31-14.93,9.31-23.77C129.97,15.7,114.26,0,94.96,0Z"/></g></svg>