<?xml version="1.0" encoding="UTF-8"?><svg id="Layer_2" xmlns="http://www.w3.org/2000/svg" viewBox="0 0 698.52 884.48"><defs><style>.cls-1{fill:#58365f;}</style></defs><g id="graphics"><path class="cls-1" d="M349.56,830.13l48.83-64.59c.5-.66.5-1.58,0-2.24l-32.07-42.43c-.1-.06-.2-.17-.27-.26,0,0-.2-.15-.2-.15-.11-.07-.21-.12-.39-.18-.12-.05-.2-.08-.29-.1-.1-.02-.2-.03-.39-.02-.07,0-.2,0-.31.02-.1.02-.18.05-.3.1l-.48.24c-.07.13-.12.16-.23.24l-14.65,19.33c-.35.46-1.13.46-1.48,0l-14.53-19.22c-.11-.06-.18-.15-.26-.25-.01-.02-.05-.06-.2-.16-.11-.08-.22-.12-.42-.2-.09-.04-.17-.07-.27-.09-.07-.01-.16-.02-.27-.02-.15,0-.3,0-.44.02-.09.02-.18.05-.3.11-.1.11-.27.14-.41.2-.06.09-.21.22-.3.28l-32.18,42.54c-.5.66-.5,1.58,0,2.24l48.82,64.59c.7.93,2.26.93,2.97,0ZM350.83,743.59l13.26-17.54c.17-.23.45-.37.74-.37s.57.14.74.37l28.57,37.81c.25.33.25.79,0,1.12l-13.26,17.54c-.17.23-.45.37-.74.37s-.57-.14-.74-.37l-28.58-37.81c-.25-.33-.25-.79,0-1.12ZM316,782.89c-.29,0-.57-.14-.74-.37l-13.26-17.54c-.25-.33-.25-.79,0-1.12l28.57-37.81c.35-.46,1.13-.47,1.48,0l13.26,17.54c.25.33.25.79,0,1.12l-28.58,37.81c-.17.23-.45.37-.74.37ZM318.76,786.02l28.58-37.81c.35-.46,1.13-.46,1.48,0l28.58,37.81c.25.33.25.79,0,1.12l-28.58,37.81c-.17.23-.45.37-.74.37s-.57-.14-.74-.37l-28.58-37.81c-.25-.33-.25-.79,0-1.12Z"/><path class="cls-1" d="M473.28,730.26c-1.03,0-1.86.83-1.86,1.86v29.52c0,.51-.42.93-.93.93h-21.1c-.29,0-.57-.14-.74-.37l-17.81-23.57c-.3-.4-.74-.66-1.23-.73-.5-.05-.98.07-1.37.36-.4.3-.66.74-.72,1.23-.07.49.06.98.36,1.38l15.27,20.21c.21.28.25.66.09.97-.16.32-.48.52-.83.52h-11.66c-.29,0-.57-.14-.74-.37l-23.58-31.2c-.3-.4-.74-.66-1.24-.73-.49-.05-.98.07-1.36.36-.4.3-.66.74-.73,1.23-.07.49.06.98.36,1.38l23.14,30.62c.25.33.25.79,0,1.12l-23.14,30.61c-.3.4-.43.89-.36,1.38.07.49.32.93.72,1.22.37.28.86.4,1.37.33.51-.07.95-.32,1.23-.69l23.58-31.19c.17-.23.45-.37.74-.37h11.66c.35,0,.68.2.83.52.16.32.12.69-.09.97l-15.27,20.2c-.3.4-.43.89-.36,1.38.07.49.32.93.72,1.22.37.28.86.4,1.38.33.5-.07.95-.32,1.23-.69l17.82-23.57c.17-.23.45-.37.74-.37h21.1c.51,0,.93.42.93.93v29.51c0,1.03.83,1.86,1.86,1.86s1.86-.83,1.86-1.86v-64.6c0-1.03-.83-1.86-1.86-1.86Z"/><path class="cls-1" d="M609.58,762.64l-55.11-16.68c-.57-.18-1.19-.07-1.66.29l-21.33,16.12c-.16.12-.36.19-.56.19h-40.2c-.51,0-.93-.42-.93-.93v-89.67c0-1.03-.83-1.86-1.86-1.86s-1.86.83-1.86,1.86v111.49c0,1.03.83,1.86,1.86,1.86s1.86-.83,1.86-1.86v-16.25c0-.51.42-.93.93-.93h40.2c.2,0,.4.07.56.19l21.33,16.12c.46.35,1.1.47,1.65.3l55.12-16.69c.79-.24,1.32-.95,1.32-1.78s-.53-1.54-1.32-1.78ZM599.69,765.31l-44.94,13.61c-.09.03-.18.04-.27.04-.2,0-.4-.07-.56-.19l-18-13.61c-.23-.17-.37-.45-.37-.74s.14-.57.37-.74l18-13.61c.24-.18.55-.24.83-.15l44.94,13.61c.39.12.66.48.66.89s-.27.77-.66.89Z"/><path class="cls-1" d="M247.5,766.65l17.81,23.56c.28.37.73.62,1.23.69.5.07,1.01-.05,1.37-.32.4-.3.66-.74.72-1.23.07-.49-.06-.98-.36-1.38l-15.27-20.2c-.21-.28-.25-.66-.09-.97.16-.32.48-.52.83-.52h11.66c.29,0,.57.14.74.37l23.58,31.19c.59.78,1.82.95,2.61.36.82-.62.98-1.79.36-2.61l-23.14-30.61c-.25-.33-.25-.79,0-1.12l23.14-30.62c.3-.4.43-.89.36-1.38-.07-.49-.32-.93-.72-1.22-.4-.31-.87-.43-1.37-.36-.5.07-.93.32-1.23.72l-23.58,31.2c-.17.23-.45.37-.74.37h-11.66c-.35,0-.68-.2-.83-.52-.16-.32-.12-.69.09-.97l15.27-20.21c.3-.4.43-.89.36-1.38-.07-.49-.32-.93-.72-1.22-.41-.31-.89-.44-1.38-.36-.5.07-.93.32-1.23.72l-17.82,23.58c-.17.23-.45.37-.74.37h-21.1c-.51,0-.93-.42-.93-.93v-29.52c0-1.03-.83-1.86-1.86-1.86s-1.86.83-1.86,1.86v64.6c0,1.03.83,1.86,1.86,1.86s1.86-.83,1.86-1.86v-29.51c0-.51.42-.93.93-.93h21.11c.29,0,.57.14.74.37Z"/><path class="cls-1" d="M208.23,670.11c-1.03,0-1.86.83-1.86,1.86v89.67c0,.51-.42.93-.93.93h-40.21c-.2,0-.4-.07-.56-.19l-21.33-16.12c-.47-.36-1.1-.47-1.65-.3l-55.12,16.69c-.79.24-1.32.95-1.32,1.78s.53,1.54,1.32,1.78l55.11,16.69c.55.17,1.21.05,1.66-.3l21.33-16.12c.16-.12.36-.19.56-.19h40.21c.51,0,.93.42.93.93v16.25c0,1.03.83,1.86,1.86,1.86s1.86-.83,1.86-1.86v-111.49c0-1.03-.83-1.86-1.86-1.86ZM160.24,765.16l-18,13.61c-.16.12-.36.19-.56.19-.09,0-.18-.01-.27-.04l-44.94-13.61c-.39-.12-.66-.48-.66-.89s.27-.77.66-.89l44.94-13.61c.28-.09.59-.03.83.15l18,13.61c.23.17.37.45.37.74s-.14.57-.37.74Z"/><path class="cls-1" d="M348.08,862.46c-6.07,0-11.01,4.94-11.01,11.01s4.94,11.01,11.01,11.01,11.01-4.94,11.01-11.01-4.94-11.01-11.01-11.01ZM348.08,880.77c-4.02,0-7.29-3.27-7.29-7.29s3.27-7.29,7.29-7.29,7.29,3.27,7.29,7.29-3.27,7.29-7.29,7.29Z"/><path class="cls-1" d="M325.02,870.83c-30.33-5.08-58.5-20.48-79.32-43.35-.33-.37-.79-.58-1.29-.61-.53,0-1,.18-1.34.48-.37.33-.58.79-.61,1.28s.15.97.48,1.34c21.38,23.49,50.3,39.3,81.45,44.52.11.02.22.03.31.03.91,0,1.68-.65,1.83-1.55.17-1.01-.52-1.97-1.53-2.14Z"/><path class="cls-1" d="M451.85,826.87c-.6.03-1.06.24-1.4.61-20.82,22.87-48.99,38.27-79.32,43.36-1.01.17-1.69,1.13-1.53,2.14.17.99,1.16,1.71,2.13,1.53,31.16-5.22,60.09-21.04,81.46-44.52.34-.37.51-.84.48-1.34-.02-.5-.24-.95-.6-1.28-.35-.32-.78-.49-1.23-.49Z"/><path class="cls-1" d="M256.64,132.64c5.73,2.35,11.76,1.32,16.98-2.91.39-.31.63-.76.68-1.25.05-.49-.09-.98-.4-1.36-.64-.8-1.82-.92-2.61-.28-5.28,4.27-10.11,3.64-13.23,2.36-5.49-2.25-9.68-8.1-10.41-14.56-.76-6.7,2.26-12.81,8.48-17.2,3.41-2.4,7.82-3.59,12.79-3.59,6.3,0,13.52,1.91,20.76,5.67,27.7,14.36,57.31,55.31,57.31,127.17,0,1.03.83,1.86,1.86,1.86s1.86-.83,1.86-1.86c0-71.86,29.6-112.81,57.31-127.17,12.98-6.73,25.83-7.52,33.55-2.07,6.23,4.39,9.24,10.49,8.48,17.19-.73,6.46-4.91,12.31-10.41,14.56-3.13,1.28-7.96,1.91-13.23-2.36-.79-.64-1.96-.52-2.61.28-.31.38-.45.87-.4,1.36.05.5.29.94.68,1.25,5.22,4.22,11.24,5.26,16.98,2.91,6.71-2.75,11.81-9.81,12.69-17.58.53-4.7-.07-13.63-10.03-20.65-8.99-6.34-22.97-5.66-37.41,1.81-28.37,14.71-49.51,49.99-56.53,94.36-.15.9-1.69.9-1.84,0-7.02-44.37-28.16-79.65-56.53-94.36-14.42-7.47-28.4-8.15-37.41-1.81-9.97,7.02-10.56,15.95-10.03,20.65.88,7.76,5.98,14.83,12.69,17.58Z"/><path class="cls-1" d="M312.3,44.09c15.61,8.47,34.68,54.61,34.68,72.28,0,1.03.83,1.86,1.86,1.86s1.86-.83,1.86-1.86c0-17.67,19.07-63.81,34.67-72.28.5-.27.85-.75.95-1.3.1-.56-.06-1.12-.43-1.55L350.24.56c-.31-.35-.83-.56-1.4-.56s-1.09.21-1.4.56l-35.65,40.67c-.38.43-.53.99-.43,1.55.1.56.44,1.04.94,1.31ZM325.53,31.2l22.61-25.8c.35-.4,1.05-.4,1.4,0l22.61,25.8c.3.34.31.85.02,1.2-.29.35-.79.44-1.18.22l-21.23-12.11c-.56-.32-1.29-.32-1.84,0l-21.23,12.11c-.15.08-.3.12-.46.12-.27,0-.54-.12-.72-.34-.29-.35-.28-.86.02-1.2ZM317.9,41.91l30.48-17.39c.29-.16.64-.16.92,0l30.48,17.39c.26.15.44.42.46.72.03.3-.1.6-.33.8-11.97,10.02-24.74,36.62-30.18,56.56-.11.4-.48.68-.9.68s-.79-.28-.9-.68c-5.43-19.94-18.21-46.55-30.18-56.56-.23-.2-.36-.49-.33-.8.03-.3.2-.57.46-.72Z"/><path class="cls-1" d="M165.78,133.02c16.96,0,31.26-13.24,32.56-30.14.09-.85.13-1.7.13-2.55s-.04-1.69-.13-2.5c-1.3-16.94-15.61-30.19-32.56-30.19-18.03,0-32.69,14.67-32.69,32.69s14.67,32.69,32.69,32.69ZM194.62,98.19c.04.41.13,1.74.13,2.14,0,.66-.05,1.3-.1,2.04-1.11,10.87-10.1,18.98-20.92,18.98-11.59,0-21.02-9.43-21.02-21.02s9.43-21.02,21.02-21.02c10.51,0,19.82,8.53,20.89,18.88ZM165.78,71.35c4.23,0,8.5.96,12.35,2.78.42.2.63.67.49,1.11-.13.44-.54.73-1.03.64-1.27-.2-2.57-.31-3.86-.31-13.64,0-24.74,11.1-24.74,24.74s11.1,24.74,24.74,24.74c1.29,0,2.59-.1,3.87-.31.46-.05.9.2,1.03.64.14.44-.07.92-.49,1.12-3.85,1.82-8.13,2.79-12.36,2.79-15.98,0-28.98-13-28.98-28.98s13-28.97,28.98-28.97Z"/><path class="cls-1" d="M531.89,133.02c18.02,0,32.69-14.67,32.69-32.69s-14.67-32.69-32.69-32.69c-16.96,0-31.26,13.24-32.56,30.14-.09.85-.13,1.7-.13,2.55s.04,1.69.13,2.52c1.31,16.93,15.61,30.18,32.56,30.18ZM519.54,74.14c3.85-1.82,8.12-2.78,12.35-2.78,15.98,0,28.97,13,28.97,28.97s-13,28.98-28.97,28.98c-4.23,0-8.51-.96-12.36-2.79-.42-.2-.63-.67-.49-1.12.14-.44.58-.7,1.03-.64,1.27.2,2.57.31,3.87.31,13.64,0,24.74-11.1,24.74-24.74s-11.1-24.74-24.74-24.74c-1.29,0-2.59.1-3.86.31-.47.08-.9-.2-1.03-.64-.14-.44.07-.92.49-1.11ZM503.01,98.37c1.12-10.96,10.11-19.07,20.93-19.07,11.59,0,21.02,9.43,21.02,21.02s-9.43,21.02-21.02,21.02c-10.83,0-19.82-8.16-20.92-18.98-.05-.74-.1-1.39-.1-2.05s.05-1.31.09-1.96Z"/><path class="cls-1" d="M154.94,676.61c0-6.07-4.94-11.01-11.01-11.01s-11.01,4.94-11.01,11.01,4.94,11.01,11.01,11.01,11.01-4.94,11.01-11.01ZM136.63,676.61c0-4.02,3.27-7.29,7.29-7.29s7.29,3.27,7.29,7.29-3.27,7.29-7.29,7.29-7.29-3.27-7.29-7.29Z"/><path class="cls-1" d="M565.6,676.61c0-6.07-4.94-11.01-11.01-11.01s-11.01,4.94-11.01,11.01,4.94,11.01,11.01,11.01,11.01-4.94,11.01-11.01ZM547.29,676.61c0-4.02,3.27-7.29,7.29-7.29s7.29,3.27,7.29,7.29-3.27,7.29-7.29,7.29-7.29-3.27-7.29-7.29Z"/><path class="cls-1" d="M73.32,142.56c6.07,0,11.01-4.94,11.01-11.01s-4.94-11.01-11.01-11.01-11.01,4.94-11.01,11.01,4.94,11.01,11.01,11.01ZM73.32,124.25c4.02,0,7.29,3.27,7.29,7.29s-3.27,7.29-7.29,7.29-7.29-3.27-7.29-7.29,3.27-7.29,7.29-7.29Z"/><path class="cls-1" d="M622.57,142.56c6.07,0,11.01-4.94,11.01-11.01s-4.94-11.01-11.01-11.01-11.01,4.94-11.01,11.01,4.94,11.01,11.01,11.01ZM622.57,124.25c4.02,0,7.29,3.27,7.29,7.29s-3.27,7.29-7.29,7.29-7.29-3.27-7.29-7.29,3.27-7.29,7.29-7.29Z"/><path class="cls-1" d="M41.2,346.02c1.02.21,1.99-.47,2.19-1.45.68-3.34,1.45-6.69,2.29-9.98.25-.99-.34-2.01-1.33-2.26-.16-.04-.32-.06-.48-.06-.32,0-.64.09-.93.25-.44.25-.74.66-.87,1.15-.87,3.39-1.65,6.8-2.33,10.16-.1.49,0,.98.27,1.4.27.42.69.7,1.18.79Z"/><path class="cls-1" d="M269.11,490.37c-.29-.4-.72-.67-1.21-.75-.49-.08-.98.04-1.38.33-.83.6-1.02,1.77-.42,2.6.64.89,1.13,1.82,1.44,2.77.32.95,1.36,1.49,2.36,1.17.96-.32,1.49-1.38,1.17-2.35-.44-1.31-1.1-2.58-1.96-3.78Z"/><path class="cls-1" d="M114.6,406.76c-1.46-.5-2.92-1.06-4.34-1.67-.24-.11-.49-.16-.74-.16-.23,0-.46.04-.67.13-.47.19-.83.54-1.03,1s-.2.96-.02,1.42c.18.46.54.82.99,1.02,1.49.64,3.03,1.23,4.59,1.77.94.32,2.04-.21,2.36-1.15.16-.47.13-.97-.09-1.42-.22-.45-.6-.78-1.06-.94Z"/><path class="cls-1" d="M230.54,245.43c.6.8,1.81.96,2.6.37.82-.62.99-1.79.37-2.6-2.55-3.38-4.9-5.97-6.8-7.49-.8-.64-1.97-.51-2.62.29-.64.8-.51,1.97.29,2.61,1.65,1.32,3.83,3.75,6.16,6.83Z"/><path class="cls-1" d="M143.26,275.07c1.67-1.71,3.67-3.47,5.93-5.22.81-.63.96-1.79.34-2.6-.3-.4-.74-.65-1.23-.71-.09-.01-.17-.02-.26-.02-.4,0-.79.13-1.12.39-2.4,1.85-4.53,3.73-6.33,5.57-.72.73-.7,1.91.04,2.63.71.69,1.94.67,2.62-.04Z"/><path class="cls-1" d="M75.08,496.29c-.1-.49-.39-.91-.81-1.18-.31-.2-.65-.3-1-.3-.13,0-.26.01-.4.04-.49.1-.9.39-1.17.8-.27.42-.37.91-.26,1.4.89,4.17,2.01,8.41,3.34,12.58.3.96,1.41,1.5,2.34,1.2.98-.31,1.52-1.36,1.21-2.34-1.3-4.09-2.39-8.2-3.24-12.22Z"/><path class="cls-1" d="M655.13,344.57c.2.98,1.16,1.65,2.19,1.45.49-.1.91-.38,1.18-.79.27-.42.37-.91.27-1.4-.69-3.42-1.48-6.84-2.33-10.16-.12-.48-.43-.89-.86-1.14-.43-.26-.92-.32-1.39-.2-.49.13-.9.43-1.15.86-.25.43-.33.93-.2,1.41.84,3.29,1.61,6.64,2.29,9.98Z"/><path class="cls-1" d="M430.61,489.62c-.49.08-.92.34-1.21.75-.86,1.19-1.52,2.46-1.96,3.78-.16.47-.12.97.1,1.42.22.44.6.77,1.07.93.96.33,2.03-.22,2.35-1.17.32-.96.81-1.89,1.45-2.77.6-.83.41-1.99-.42-2.59-.4-.29-.9-.42-1.39-.33Z"/><path class="cls-1" d="M589.67,405.06c-.22-.09-.45-.13-.68-.13-.25,0-.5.05-.73.15-1.41.61-2.87,1.17-4.34,1.67-.47.16-.85.5-1.07.94-.22.45-.25.95-.09,1.42.32.95,1.43,1.47,2.36,1.15,1.56-.54,3.11-1.13,4.6-1.77.94-.4,1.38-1.5.97-2.44-.2-.46-.56-.82-1.03-1Z"/><path class="cls-1" d="M467.97,245.44c2.99-3.96,5-5.9,6.16-6.83.8-.64.93-1.81.28-2.61-.36-.45-.9-.69-1.45-.69-.41,0-.82.13-1.17.41-1.89,1.52-4.25,4.11-6.8,7.49-.3.4-.43.89-.36,1.38.07.49.32.93.72,1.22.8.61,2.01.43,2.6-.36Z"/><path class="cls-1" d="M551.6,266.91c-.38-.29-.73-.4-1.1-.4-.56,0-1.14.25-1.51.74-.62.81-.47,1.98.34,2.61,2.28,1.76,4.27,3.51,5.93,5.22.69.71,1.92.73,2.63.04.36-.34.55-.81.56-1.31s-.18-.97-.52-1.32c-1.79-1.84-3.92-3.72-6.32-5.57Z"/><path class="cls-1" d="M625.64,494.85c-.13-.03-.26-.04-.39-.04-.35,0-.7.1-1.01.3-.41.27-.7.69-.8,1.17-.85,4.02-1.94,8.14-3.24,12.22-.31.98.23,2.03,1.21,2.34.93.3,2.03-.24,2.34-1.21,1.33-4.17,2.45-8.41,3.34-12.58.1-.48.01-.98-.26-1.4-.27-.41-.69-.7-1.17-.8Z"/><path class="cls-1" d="M365.81,365.58c-1.03,0-1.86.83-1.86,1.86,0,11.79-6.59,21.38-14.69,21.38s-14.69-9.59-14.69-21.38c0-1.03-.83-1.86-1.86-1.86s-1.86.83-1.86,1.86c0,13.84,8.26,25.1,18.41,25.1s18.41-11.26,18.41-25.1c0-1.03-.83-1.86-1.86-1.86Z"/><path class="cls-1" d="M365.81,321.74c-1.03,0-1.86.83-1.86,1.86,0,6.55-6.59,11.87-14.69,11.87s-14.69-5.33-14.69-11.87c0-1.03-.83-1.86-1.86-1.86s-1.86.83-1.86,1.86c0,8.6,8.26,15.59,18.41,15.59s18.41-6.99,18.41-15.59c0-1.03-.83-1.86-1.86-1.86Z"/><path class="cls-1" d="M310.52,347.98c-1.03,0-1.86.83-1.86,1.86,0,9.65-5.64,17.51-12.58,17.51s-12.58-7.85-12.58-17.51c0-1.03-.83-1.86-1.86-1.86s-1.86.83-1.86,1.86c0,11.7,7.31,21.22,16.3,21.22s16.3-9.52,16.3-21.22c0-1.03-.83-1.86-1.86-1.86Z"/><path class="cls-1" d="M416.87,347.98c-1.03,0-1.86.83-1.86,1.86,0,9.65-5.64,17.51-12.58,17.51s-12.58-7.85-12.58-17.51c0-1.03-.83-1.86-1.86-1.86s-1.86.83-1.86,1.86c0,11.7,7.31,21.22,16.3,21.22s16.3-9.52,16.3-21.22c0-1.03-.83-1.86-1.86-1.86Z"/><path class="cls-1" d="M692.65,447.34c-2.52-.46-5.04-.82-7.56-1.19l-.42-.06c-.48-.07-.83-.5-.79-.99.65-8.58.98-17.24.98-25.74,0-73.84-21.15-134.9-61.17-176.58-32.93-34.3-77.67-53.97-122.74-53.97-62.96,0-125,46.1-138.29,102.76-.1.41-.46.71-.88.72-2.74.07-5.38.58-7.63,1.06-1.85.39-3.58.75-4.89.75s-3.03-.36-4.87-.75c-2.27-.48-4.9-.99-7.66-1.06-.42-.01-.78-.31-.88-.72-13.29-56.66-75.33-102.76-138.29-102.76-45.07,0-89.81,19.67-122.74,53.97-40.02,41.68-61.17,102.74-61.17,176.58,0,8.52.33,17.18.99,25.74.04.49-.31.92-.79.99l-.26.04c-2.67.39-5.2.75-7.72,1.21-3.23.59-5.58,3.21-5.84,6.52-.26,3.26,1.54,6.05,4.58,7.13,3.48,1.23,7.33,1.88,11.14,1.89.45,0,.84.33.91.77,8.45,50.49,28.43,91.96,57.77,119.92,32.19,30.56,71.13,41.38,96.9,41.38,59.07,0,63.66-43.06,63.66-56.26,0-26.44-15.79-54.77-43.32-77.74-23.62-19.71-53.39-34.1-86.1-41.62-.43-.1-.73-.48-.72-.92.2-10.84.83-18.23,1.79-26.65.03-.28.19-.53.43-.68.24-.15.53-.18.81-.09,5.17,1.85,10.4,3.07,15.97,3.72,2.93.34,5.94.52,8.97.52,19.47,0,37.78-7.1,53.94-13.35,10.58-4.1,20.55-7.96,29.16-9.05.4,0,.67.12.85.35.2.26.25.6.13.91-2.95,7.58-3.21,16.12-.73,23.42.05.16.06.33.03.49-.46,2.2-.93,4.33-1.39,6.38-2.77,12.39-5.16,23.08-.24,33.68,4.95,10.67,16.07,14.33,22.25,15.56.26.05.49.22.63.45,4.49,7.94,10.66,37.73,14.75,57.44,2.38,11.49,4.1,19.76,5.08,22.3,1.85,4.82,4.96,9.28,8.54,14.44,4.24,6.11,9.03,13.01,12.66,21.89.52,2.85,1,5.06,1.46,6.58,1.05,3.49,4.41,7.22,10.27,11.39.08.05.15.12.2.2,1.99,2.64,3.4,6.49,4.77,10.21,1.23,3.34,2.49,6.76,4.21,9.75,5.31,9.23,31.43,22.06,49.87,22.06s44.44-12.63,49.87-22.06c1.73-3,2.98-6.41,4.2-9.71,1.45-3.94,2.8-7.63,4.78-10.25.06-.08.13-.14.2-.2,5.78-4.12,9.24-7.95,10.27-11.4.46-1.54.94-3.74,1.35-6.19,3.74-9.28,8.54-16.19,12.78-22.29,3.59-5.17,6.69-9.63,8.54-14.44.98-2.54,2.7-10.86,5.09-22.37,4.08-19.68,10.25-49.43,14.74-57.37.13-.24.36-.4.63-.45,6.19-1.24,17.3-4.9,22.25-15.56,4.92-10.6,2.53-21.29-.23-33.68-.46-2.06-.93-4.19-1.39-6.39-.03-.16-.02-.33.03-.49,2.48-7.3,2.21-15.84-.73-23.42-.12-.3-.07-.65.13-.91s.52-.4.85-.35c8.61,1.09,18.61,4.96,29.19,9.06,16.15,6.25,34.46,13.35,53.92,13.34,3.03,0,6.05-.17,8.97-.52,5.57-.65,10.8-1.87,15.97-3.72.27-.1.57-.07.81.09.24.15.4.4.43.68.95,8.42,1.58,15.81,1.79,26.65,0,.44-.29.83-.72.92-32.71,7.52-62.48,21.91-86.1,41.61-27.53,22.97-43.31,51.3-43.31,77.74,0,13.2,4.59,56.26,63.66,56.26,25.77,0,64.71-10.82,96.7-41.17,29.55-28.16,49.53-69.63,57.98-120.12.07-.45.46-.77.92-.77,3.79,0,7.62-.65,11.13-1.89,3.04-1.07,4.84-3.87,4.58-7.12-.26-3.31-2.61-5.93-5.84-6.52ZM500.95,192.53c11.16,0,22.43,1.19,33.48,3.54.46.1.77.52.73.99-.04.47-.43.83-.9.85-9.32.27-16.31,1.48-19.18,3.34-.42.27-.7.69-.81,1.17-.11.49-.01.98.26,1.4.25.39.68.68,1.17.78.5.11,1,.02,1.4-.23,5.38-3.48,33.86-3.86,43.1-.37,75.85,28.6,120.94,110.37,120.94,215.36,0,8.25-.32,16.68-.94,25.05-.02.25-.14.49-.34.65-.2.16-.44.24-.71.2-27.2-3.46-54.34-2.49-80.68,2.91-.06.01-.13.02-.19.02-.21,0-.41-.07-.58-.2-.22-.17-.34-.43-.35-.71-.23-10.8-.89-18.24-1.96-27.45-.05-.4.17-.78.54-.95,26.56-12.21,33.48-37.84,33.81-45.86.51-12.25-2.32-21.68-8.4-28.02-5.56-5.8-13.69-8.74-24.17-8.74-7.15,0-14.73,2.32-23.17,7.1-.44.25-1.01.09-1.26-.35-26.29-46.09-63.95-48.01-64.32-48.02-7.56-.23-26.3.52-37.38,12.21-.28.3-.71.38-1.08.2-.36-.18-.57-.57-.52-.97,2.26-15.94,7.57-31.32,15.38-44.48.06-.1.13-.18.21-.25,19.9-16.06,47.36-2.42,55.3,2.14.85.48,2.05.16,2.54-.69.25-.43.31-.93.18-1.41-.13-.48-.44-.88-.87-1.12-6.48-3.73-29.18-15.28-49.28-7.66-.4.14-.83.02-1.08-.32-.25-.34-.24-.79.01-1.12,1.6-2.06,3.25-4.03,4.93-5.86,13.91-15.19,30.82-23.21,48.91-23.21,41.55,0,84,40.57,103.22,98.67.16.48.49.86.93,1.08.45.22.95.26,1.41.1.48-.16.86-.49,1.08-.93.22-.44.26-.95.1-1.42-19.71-59.6-63.61-101.22-106.74-101.22-19.16,0-37.02,8.44-51.65,24.42-19.88,21.71-31.11,55.32-29.32,87.73.02.31-.13.62-.38.8-.26.19-.6.23-.88.11-6.23-2.42-16.11-8.45-20.32-11.03l-1.62-.99c-.28-.17-.45-.48-.44-.81.54-28.26,15.51-55.55,20.08-63.25.25-.43.33-.93.2-1.41-.12-.48-.42-.89-.85-1.14-.42-.25-.92-.33-1.42-.21-.47.12-.88.42-1.13.85-4.42,7.44-18.97,33.9-20.46,62.12-.02.32-.19.6-.47.76-.28.15-.61.16-.89.02-9.37-4.88-17.92-6.43-26.15-4.76-.13.03-.27.02-.41,0-7.5-1.88-17.24-6.98-25.84-11.47-6.85-3.58-12.73-6.65-16.6-7.68-.49-.13-.78-.63-.66-1.12,13.25-54.68,73.59-99.16,134.5-99.16ZM535.87,356.65c-16.97,0-30.48-7.08-42.87-13.56-7.74-4.05-15.75-8.25-23.74-9.82-.41-.08-.72-.43-.75-.85-.32-4.61-.37-9.35-.16-14.11,0-.11.03-.21.07-.3,7.31-18.26,30.36-19.55,39.9-19.28.36.01,35.88,1.62,61.27,46.28.24.43.11.97-.3,1.24-2.27,1.46-4.65,3.1-7.26,5.01-.06.05-.13.09-.21.11-9.53,3.77-18.1,5.28-25.94,5.28ZM549.75,360.67c-11.7,9.15-24.95,19.53-37.35,19.53-10.99,0-28.55-7.38-37.74-19.3-.05-.07-.09-.14-.13-.22-2.62-6.48-4.46-14.02-5.47-22.41-.04-.3.08-.6.3-.81.23-.2.54-.28.84-.21,6.86,1.68,13.76,5.29,21.06,9.11,12.59,6.59,26.84,14.05,44.51,14.05,4.22,0,8.66-.47,13.21-1.39.42-.08.85.13,1.03.52.18.39.07.86-.27,1.12ZM138.32,203.99c9.23-3.48,37.71-3.11,43.09.38.39.25.9.34,1.4.23.49-.11.92-.39,1.17-.78.56-.86.31-2.01-.55-2.57-2.87-1.85-9.85-3.07-19.16-3.34-.47-.01-.86-.38-.9-.85-.04-.47.27-.89.73-.99,11.04-2.34,22.3-3.53,33.46-3.53,60.91,0,121.24,44.48,134.49,99.16.12.49-.18.99-.66,1.12-3.87,1.03-9.76,4.11-16.58,7.67-8.62,4.5-18.37,9.6-25.86,11.48-.13.03-.28.04-.41,0-8.21-1.69-16.77-.12-26.15,4.76-.28.15-.61.14-.89-.02-.27-.16-.45-.44-.47-.76-1.49-28.23-16.03-54.68-20.45-62.12-.25-.43-.66-.73-1.14-.86-.48-.12-.98-.05-1.4.21-.43.25-.73.66-.85,1.14-.12.48-.05.98.2,1.41,4.57,7.69,19.54,34.99,20.08,63.25,0,.33-.16.64-.44.81l-1.62.99c-4.21,2.57-14.08,8.61-20.32,11.03-.29.12-.62.08-.88-.11-.26-.19-.4-.49-.38-.8,1.79-32.41-9.44-66.03-29.32-87.73-14.63-15.98-32.49-24.42-51.65-24.42-43.14,0-87.03,41.62-106.74,101.22-.16.47-.12.98.1,1.42.22.44.6.77,1.07.93.48.16.98.13,1.42-.09.45-.22.78-.61.94-1.09,19.22-58.09,61.66-98.67,103.22-98.67,18.09,0,35,8.03,48.91,23.21,1.68,1.83,3.34,3.8,4.92,5.85.25.33.26.79.01,1.12-.25.34-.69.46-1.08.32-20.11-7.62-42.8,3.94-49.27,7.67-.43.25-.74.65-.87,1.13-.13.48-.06.98.18,1.41.48.84,1.69,1.17,2.54.68,7.94-4.56,35.41-18.21,55.3-2.14.09.07.16.15.21.25,7.79,13.15,13.11,28.51,15.37,44.44.06.4-.15.79-.52.97-.36.18-.8.1-1.08-.2-11.05-11.62-29.82-12.38-37.38-12.17-.37.01-38.03,1.94-64.31,48.02-.25.44-.82.6-1.26.35-8.44-4.78-16.02-7.1-23.17-7.1-10.48,0-18.61,2.94-24.17,8.73-6.08,6.34-8.91,15.77-8.4,28.02.33,8.02,7.26,33.65,33.81,45.86.36.17.58.55.54.95-1.07,9.17-1.73,16.61-1.96,27.45,0,.28-.13.53-.35.71-.17.13-.37.2-.58.2-.06,0-.13,0-.19-.02-26.24-5.37-53.62-6.36-80.68-2.91-.25.03-.51-.04-.71-.2-.2-.16-.32-.4-.34-.65-.63-8.37-.94-16.8-.94-25.05,0-105,45.1-186.75,120.95-215.37ZM229.26,333.26c-7.97,1.57-15.98,5.76-23.72,9.81-12.4,6.5-25.92,13.58-42.89,13.58-7.84,0-16.41-1.51-25.94-5.28-.07-.03-.14-.07-.21-.11-2.61-1.91-4.99-3.55-7.26-5.01-.42-.27-.55-.81-.3-1.24,25.4-44.66,60.91-46.27,61.27-46.28,9.57-.21,32.64,1.16,39.9,19.28.04.1.06.2.07.3.22,4.75.16,9.5-.16,14.11-.03.42-.34.77-.75.85ZM229.45,338.27c-1.01,8.4-2.85,15.94-5.47,22.41-.03.08-.07.15-.13.22-9.19,11.92-26.75,19.3-37.74,19.3-12.39,0-25.63-10.36-37.3-19.49-.34-.26-.45-.73-.27-1.12.18-.39.6-.61,1.03-.52,4.48.9,8.91,1.36,13.16,1.36,17.67,0,31.93-7.46,44.5-14.04,6.96-3.65,14.16-7.42,21.07-9.12.3-.08.61,0,.84.21.23.2.34.5.31.81ZM20.44,463.72c-.04-.26.03-.53.19-.74.17-.21.42-.33.69-.34,25.2-.98,53.63,4.7,80.08,16.06.31.13.52.42.56.76,7.12,69.41,51.44,104.53,71.78,110.66.29.09.52.31.61.6.1.29.04.6-.14.85-.7.93-1.39,1.73-2.1,2.44-2.58,2.56-5.84,4.6-9.7,6.06-.18.07-.38.08-.56.03-27.68-7.09-58.23-36.38-76.01-72.88-.44-.91-1.56-1.3-2.49-.85-.92.45-1.3,1.56-.85,2.48,16.42,33.72,43.05,61.25,69.49,71.83.4.16.64.57.58.99-.06.42-.4.75-.82.79-1.93.2-3.94.3-6.11.3-.18,0-.36,0-.54,0-25.32-.17-56.5-13.86-66.82-20.81-29.87-28.05-49.29-67.79-57.85-118.22ZM106.05,482.32c-.04-.34.1-.67.38-.87.28-.19.64-.23.94-.09,16.96,7.94,32.13,17.97,43.87,29,19.19,18.03,29.33,38.38,29.33,58.84,0,6.7-1.11,12.51-3.29,17.27-.15.34-.49.54-.84.54-13.14-2.44-61.71-33.45-70.38-104.71ZM189.29,493.8c26.68,22.26,41.98,49.55,41.98,74.89,0,12.33-4.32,52.54-59.94,52.54-11.25,0-40.84-2.24-72.47-23.04-.4-.26-.53-.78-.32-1.2.22-.42.71-.61,1.16-.44,11.55,4.47,28.8,9.82,45.37,9.93,12.99.17,22.95-3.15,29.66-9.83,6.33-6.29,9.54-15.52,9.54-27.44,0-21.52-10.55-42.8-30.5-61.55-33.51-31.49-89.36-51.45-135.79-48.57-4.24.25-8.43-.3-12.15-1.61-1.7-.6-2.21-2.11-2.11-3.32.1-1.24.9-2.81,2.8-3.16,67.56-12.3,135.88,3.69,182.76,42.8ZM214.43,398.79c-.11.33-.39.57-.74.63-8.67,1.39-18.2,5.08-28.28,8.98-15.99,6.2-33.82,13.1-52.64,13.1-2.81,0-5.65-.15-8.5-.49-41.54-4.86-51.42-39.21-51.79-48.14-.46-11.21,2.02-19.72,7.37-25.3,4.83-5.04,12.06-7.59,21.49-7.59,15,0,29.63,11.46,43.79,22.55,14.03,10.99,27.28,21.38,40.99,21.38,8.13,0,18.68-3.48,27.53-9.07.38-.24.89-.17,1.19.17.3.34.32.85.03,1.2-1.29,1.6-2.46,2.91-3.38,3.93-2.3,2.57-3.96,4.42-3.81,6.46.07.95.42,2.14,1,3.45.12.26.11.57-.03.82-.14.25-.38.43-.67.48-8.96,1.45-18.38,4.85-27.48,8.14-18.16,6.55-36.93,13.33-57.09,9.59-.5-.09-.99,0-1.4.28-.41.28-.69.71-.77,1.2-.09.49.01.98.29,1.39.28.41.71.68,1.19.77,3.97.73,8.11,1.11,12.31,1.11,16.64,0,32.62-5.77,46.71-10.85,10.28-3.71,19.98-7.22,29.12-8.32.35-.04.65.1.85.35.75.97,1.59,1.92,2.48,2.83.24.25.33.61.22.94ZM277.05,581.46c-.05,1.21-.05,2.5-.02,3.89,0,.42-.26.79-.67.91-.09.03-.17.04-.26.04-.32,0-.62-.16-.79-.45-2.12-3.48-4.34-6.71-6.43-9.73-3.47-4.99-6.44-9.27-8.13-13.66-.87-2.26-2.73-11.21-4.88-21.58-3.86-18.61-9.08-43.8-13.6-55.21-.12-.29-.08-.63.11-.88.18-.26.46-.42.8-.39.95.05,1.86.06,2.68.04,4.45-.11,9.26.86,13.26,2.72.42.19.94.21,1.42.04.47-.17.86-.51,1.05-.93.21-.45.23-.96.06-1.42-.17-.47-.51-.84-.96-1.05-4.43-2.07-9.9-3.17-14.94-3.07-7.21.34-22.22-2.22-27.8-14.24-4.39-9.45-2.15-19.47.44-31.06.08-.36.36-.64.73-.71.36-.07.73.08.94.38,4.85,6.9,12.05,11,20.83,11.85.87,0,1.66-.72,1.75-1.68.1-1.02-.65-1.93-1.67-2.04-8.69-.86-15.68-5.51-19.67-13.1-4.04-7.69-4.18-17.4-.39-25.99.1-.23.3-.41.53-.5.24-.08.51-.07.73.04,1.26.63,2.54,1.14,3.81,1.54.45.14.72.59.64,1.05-2.72,15.33,2.5,25.71,14.7,29.23,2.26.65,4.58.99,6.88.99,8.05,0,14.95-4.07,19.98-7.04,5.14-3.03,8.4-4.8,10.74-3.27.16.11.28.26.36.44.57,1.45,1.01,2.88,1.33,4.26,3.45,15.12-.16,59.21-1.9,80.41-.58,7.15-.97,11.84-.97,13.55,0,3.49,1.35,6.65,2.77,9.99,1.64,3.85,3.5,8.21,3.57,14,0,.08,0,.17-.03.25l-.17.67c-2.95,11.31-6.59,25.3-6.84,31.72ZM235.07,415.42c1.33,3.61,3.59,6.12,6.54,7.27.44.18.96.16,1.42-.05.46-.2.82-.57.99-1.01.37-.95-.1-2.03-1.06-2.41-2.44-.95-3.74-3.3-4.4-5.1-1.4-3.81-1.33-9.08.18-12.81.11-.28.35-.48.64-.55,5.59-1.36,10.76-.29,14.11.84,3.99,1.36,8.12,3.71,11.96,6.8.26.21.39.54.33.87-.82,5.1-5.84,10.71-10.52,11.76-1,.23-1.63,1.22-1.4,2.22.21.96,1.27,1.62,2.22,1.4,5.02-1.13,10.27-6.06,12.46-11.71.11-.3.37-.51.68-.58.3-.07.63.04.85.27,2.4,2.5,4.5,5.2,6.22,8.02.16.26.18.59.05.87-.13.28-.39.48-.7.53-3.06.5-6.41,2.47-9.36,4.21-5.04,2.97-11.05,6.51-18.07,6.51-1.88,0-3.83-.25-5.86-.84-10.87-3.14-14.85-12.05-11.83-26.48.05-.22.17-.41.34-.55.6-.46,1.21-.89,1.86-1.29.31-.19.7-.19,1,.01.3.2.46.56.41.91-.56,3.78-.22,7.74.93,10.86ZM400.77,624.8c-.2.51-3.43,9.12-4.87,11.61-4.37,7.6-28.59,20.2-46.65,20.2s-42.27-12.6-46.65-20.2c-1.57-2.72-2.77-6-3.94-9.16-.31-.84-.62-1.65-.92-2.45-.14-.36-.04-.78.26-1.04.29-.26.72-.3,1.06-.11,2.55,1.42,5.33,2.85,8.25,4.27,11.08,5.36,26.78,11.1,32.5,11.1,3.6,0,6.72-1.12,8.78-3.17.36-.36.94-.36,1.31,0,2.07,2.05,5.19,3.17,8.78,3.17,5.72,0,21.43-5.74,32.5-11.1,2.94-1.42,5.72-2.86,8.26-4.27.34-.19.77-.15,1.06.11.3.26.4.67.25,1.04ZM415.02,605.65c-2.02,6.74-16.81,14.75-25.44,18.93-11.6,5.62-26.32,10.73-30.88,10.73-3.77,0-7.58-1.71-7.58-5.54v-31.17c0-.19.06-.38.17-.53,11.42-16.26,33.84-30.18,46.1-34.87.93-.36,1.41-1.38,1.1-2.32-.16-.48-3.95-11.66-12.42-12.87-.36-.05-.74,0-1.08.17-10.26,5-28.1,23.5-34.88,38.97-.3.68-1.4.68-1.7,0-6.77-15.48-24.63-33.97-34.89-38.97-.32-.16-.7-.22-1.07-.17-8.45,1.21-12.26,12.4-12.42,12.87-.32.95.17,1.97,1.1,2.33,12.27,4.69,34.68,18.6,46.1,34.87.11.16.17.34.17.53v31.17c0,3.83-3.81,5.54-7.58,5.54-4.56,0-19.28-5.11-30.88-10.73-8.63-4.18-23.42-12.19-25.44-18.93-1.33-4.42-3.07-15.53-2.74-24.04.23-6.03,3.99-20.44,6.73-30.95,1.3-4.99,2.51-9.63,3.09-12.4.7-3.36,3.13-6.33,6.66-8.16,4.19-2.17,9.14-2.32,13.58-.38,12.91,5.63,35.86,5.79,38.44,5.79s25.52-.16,38.44-5.79c4.43-1.93,9.38-1.79,13.58.38,3.53,1.82,5.96,4.8,6.66,8.15.58,2.77,1.79,7.41,3.07,12.33,2.77,10.62,6.52,24.99,6.75,31.03.33,8.51-1.41,19.62-2.74,24.04ZM355.63,584.43c7.06-12.8,20.58-27.37,30.13-32.48.21-.12.46-.14.7-.07,3.69,1.07,6.24,5.26,7.43,7.66.11.23.13.49.04.73-.09.24-.27.43-.5.53-9.82,4.25-24.52,12.98-36.32,24.73-.18.18-.42.27-.66.27-.2,0-.39-.06-.56-.19-.37-.28-.48-.79-.25-1.19ZM342.63,585.62c-.17.13-.36.19-.56.19-.24,0-.48-.09-.66-.27-11.8-11.75-26.5-20.48-36.33-24.73-.23-.1-.42-.29-.5-.53-.09-.24-.07-.5.04-.73,1.19-2.4,3.74-6.59,7.43-7.66.24-.06.48-.04.7.07,9.55,5.11,23.07,19.68,30.13,32.48.22.4.12.91-.25,1.19ZM325.24,493.18c1.26-1.87,2.56-3.81,3.51-5.43,5.83-10,7.91-23.82,7.91-33.42,0-14.43,4.94-23.76,12.6-23.76s12.6,9.33,12.6,23.76c0,9.6,2.08,23.42,7.91,33.42.95,1.63,2.24,3.56,3.5,5.43,5.67,8.45,13.43,20.02,12.05,32.92-.04.35-.27.64-.59.77-10.23,3.89-27.1,4.92-35.46,4.92s-25.23-1.04-35.46-4.92c-.33-.13-.56-.42-.59-.77-1.38-12.89,6.38-24.46,12.04-32.91ZM480.58,466.49c-5.55,11.96-20.63,14.52-27.82,14.24-5.06-.15-10.56,1-15.1,3.15-.45.21-.79.59-.95,1.05-.17.47-.14.97.07,1.42.42.89,1.58,1.31,2.48.88,4.04-1.91,8.95-2.91,13.41-2.79.83.02,1.73,0,2.68-.04.33-.02.62.13.8.39.19.26.23.59.11.88-4.52,11.39-9.75,36.59-13.56,54.98-2.2,10.59-4.05,19.55-4.92,21.81-1.68,4.38-4.66,8.66-8.1,13.62-2.12,3.05-4.34,6.29-6.46,9.76-.17.28-.48.45-.79.45-.09,0-.17-.01-.26-.04-.4-.12-.68-.49-.67-.91.03-1.38.02-2.67-.02-3.89-.25-6.43-3.9-20.45-6.84-31.71l-.18-.68c-.02-.08-.03-.16-.03-.24.07-5.8,1.93-10.15,3.57-14,1.43-3.34,2.77-6.5,2.77-9.99,0-1.71-.38-6.4-.96-13.5-1.74-21.25-5.35-65.34-1.9-80.46.31-1.37.76-2.8,1.33-4.26.07-.18.2-.33.36-.44,2.33-1.53,5.61.25,10.75,3.28,5.03,2.97,11.93,7.02,19.96,7.02,2.31,0,4.63-.33,6.89-.99,12.2-3.52,17.42-13.91,14.7-29.23-.08-.46.19-.91.64-1.05,1.28-.4,2.56-.92,3.82-1.55.23-.11.49-.13.73-.04.24.09.43.27.53.5,3.79,8.58,3.64,18.3-.4,26-3.99,7.59-10.97,12.24-19.67,13.1-1.02.1-1.77,1.01-1.66,2.03.09.95.89,1.67,1.85,1.67h.22c8.42-.84,15.72-5.05,20.53-11.85.21-.3.59-.45.94-.38.36.07.65.35.73.71,2.7,12.07,4.83,21.61.44,31.07ZM443.26,421.04c-4.68-1.05-9.69-6.66-10.52-11.76-.05-.33.07-.66.33-.87,3.84-3.09,7.97-5.44,11.96-6.8,3.35-1.14,8.52-2.22,14.11-.85.29.07.53.28.64.55,1.51,3.73,1.58,9,.18,12.81-.67,1.8-1.97,4.15-4.41,5.1-.95.37-1.43,1.45-1.06,2.41.36.92,1.48,1.41,2.41,1.06,2.95-1.15,5.21-3.67,6.54-7.28,1.15-3.12,1.49-7.07.93-10.86-.05-.36.11-.72.41-.91.3-.2.69-.2,1-.01.65.4,1.26.83,1.86,1.28.18.13.3.33.34.55,3.02,14.43-.96,23.33-11.83,26.48-2.03.58-3.98.84-5.86.84-7.03,0-13.04-3.54-18.08-6.51-2.96-1.74-6.3-3.71-9.36-4.21-.3-.05-.56-.25-.69-.53-.13-.28-.11-.61.05-.87,1.72-2.81,3.81-5.5,6.21-8,.22-.23.53-.34.85-.27.31.06.57.28.68.57,2.2,5.65,7.45,10.57,12.48,11.7.97.2,2.01-.45,2.22-1.41.22-1-.41-1.99-1.41-2.22ZM476.12,399.61c-.34.2-.77.16-1.07-.09-.3-.25-.41-.67-.27-1.04,2.69-7.21-.2-11.7-2.16-13.74-7.72-8.02-28.14-7.94-40.47.16-.85.56-1.09,1.72-.53,2.57.28.42.7.71,1.19.8.48.1.98,0,1.38-.27,10.86-7.12,29.23-7.48,35.76-.69,3.09,3.21,3,7.67-.27,13.24-.13.22-.34.38-.6.44-.25.06-.51,0-.72-.13-7.19-4.82-15.67-5.77-24.51-2.76-13.77,4.68-26.47,18.42-29.56,31.96-3.57,15.66-.07,58.51,1.81,81.54.51,6.25.96,11.65.96,13.25,0,2.73-1.15,5.42-2.47,8.53-.47,1.1-.95,2.26-1.41,3.48-.14.36-.48.6-.87.6-.45-.02-.79-.3-.9-.69-1.1-4.14-4.17-7.77-8.42-9.97-3.84-1.99-8.39-2.6-12.73-1.73-.27.06-.57-.02-.78-.2-.22-.18-.34-.46-.33-.74.42-13.33-7.56-25.23-12.84-33.1-1.32-1.97-2.45-3.65-3.32-5.15-5.47-9.37-7.41-22.85-7.41-31.55,0-16.69-6.4-27.48-16.31-27.48s-16.31,10.78-16.31,27.48c0,8.7-1.94,22.18-7.41,31.55-.86,1.47-1.98,3.14-3.28,5.08-5.36,7.99-13.3,19.83-12.89,33.16,0,.28-.11.56-.33.74-.21.19-.51.26-.78.2-4.34-.88-8.86-.27-12.73,1.73-4.24,2.19-7.31,5.82-8.41,9.96-.11.39-.45.67-.85.69-.4.04-.77-.22-.92-.6-.46-1.21-.95-2.37-1.42-3.48-1.32-3.11-2.47-5.79-2.47-8.52,0-1.6.44-7.02.96-13.29,1.88-23.01,5.38-65.84,1.81-81.5-3.09-13.54-15.79-27.28-29.56-31.96-8.85-3.01-17.32-2.06-24.51,2.76-.21.14-.47.19-.72.13-.25-.06-.46-.21-.6-.44-3.27-5.57-3.36-10.03-.27-13.24,6.54-6.78,24.91-6.43,35.75.69.42.28.92.37,1.4.27.49-.1.91-.39,1.18-.8.56-.86.32-2.01-.53-2.57-12.33-8.1-32.76-8.18-40.47-.16-1.96,2.04-4.85,6.54-2.15,13.75.14.37.03.78-.27,1.04-.3.25-.73.28-1.07.09-6.49-3.79-10.62-10.13-11-13.07-.02-.18,0-.36.09-.52.28-.59,1.23-1.69,2.76-3.4,5.67-6.31,16.22-18.07,19.1-45.78.04-.38.3-.7.67-.8,6.59-1.86,17.46-8.51,23.3-12.08l.64-.39c6.14-3.77,17.5-10.74,30.37-7.84.27.06.56.06.84,0,8.05-1.86,18.31-7.23,27.37-11.96,6.45-3.37,12.54-6.55,15.97-7.41,3.71-.93,7.63-.1,11.1.64,2.05.43,3.95.83,5.63.83s3.62-.4,5.66-.83c3.45-.73,7.36-1.55,11.07-.63,3.43.86,9.53,4.05,15.99,7.42,9.05,4.73,19.31,10.1,27.36,11.95.27.07.56.07.8,0,12.89-2.9,24.29,4.08,30.4,7.83l.64.39c5.84,3.57,16.72,10.22,23.31,12.08.37.1.63.42.67.8,2.88,27.71,13.46,39.49,19.14,45.82,1.51,1.68,2.43,2.76,2.72,3.33.09.17.12.36.09.54-.38,2.94-4.52,9.29-10.99,13.08ZM574.25,421.01c-2.85.33-5.69.49-8.51.49-18.83,0-36.64-6.9-52.6-13.09-9.63-3.73-19.54-7.58-28.33-8.99-.34-.06-.63-.3-.74-.63-.11-.33-.02-.69.22-.94.9-.91,1.74-1.86,2.49-2.84.2-.26.5-.4.85-.35,9.14,1.11,18.84,4.61,29.11,8.32,14.1,5.09,30.07,10.86,46.72,10.86,4.2,0,8.35-.37,12.31-1.11.49-.09.91-.37,1.19-.77.28-.41.39-.9.3-1.39-.09-.49-.37-.91-.78-1.2-.41-.28-.9-.37-1.38-.29-20.19,3.73-38.95-3.04-57.09-9.59-9.1-3.29-18.52-6.69-27.48-8.14-.28-.05-.53-.22-.67-.48-.14-.25-.15-.56-.03-.82.58-1.3.93-2.5,1.01-3.45.15-2.04-1.51-3.89-3.81-6.46-.92-1.03-2.1-2.33-3.38-3.93-.29-.35-.27-.86.03-1.2.3-.34.81-.41,1.19-.17,8.86,5.6,19.41,9.07,27.53,9.07,13.7,0,26.95-10.38,40.98-21.37,14.16-11.09,28.79-22.56,43.8-22.56,9.43,0,16.66,2.55,21.49,7.59,5.35,5.58,7.83,14.09,7.37,25.3-.37,8.93-10.24,43.28-51.79,48.14ZM620.4,581.8c-10.49,7.06-41.74,20.79-66.99,20.96-.28,0-.57,0-.85,0-1.88,0-3.81-.1-5.75-.3-.42-.04-.76-.37-.82-.79s.18-.83.57-.99c26.42-10.6,53.03-38.12,69.45-71.83.45-.92.06-2.04-.86-2.49-.92-.45-2.03-.06-2.48.86-17.77,36.49-48.31,65.78-75.98,72.88-.19.05-.38.04-.56-.03-3.89-1.47-7.16-3.51-9.72-6.06-.71-.71-1.4-1.5-2.1-2.44-.18-.24-.24-.56-.14-.85.09-.29.32-.51.62-.6,20.36-6.15,64.69-41.31,71.79-110.72.03-.34.25-.63.56-.76,24.2-10.39,50.6-16.12,74.31-16.12,1.93,0,3.86.04,5.76.11.27.01.52.14.69.34.17.21.24.48.19.74-8.55,50.4-27.95,90.12-57.68,118.08ZM522.26,587.01c-.53.02-.86-.19-1.01-.53-2.18-4.76-3.29-10.57-3.29-17.27,0-20.47,10.14-40.81,29.33-58.84,11.72-11.01,26.89-21.04,43.87-29,.3-.14.66-.11.94.09.27.2.42.53.38.87-8.68,71.25-57.24,102.26-70.21,104.68ZM692.67,457.48c-3.7,1.3-7.9,1.86-12.14,1.61-46.47-2.89-102.31,17.1-135.8,48.57-19.95,18.75-30.5,40.04-30.5,61.55,0,11.92,3.21,21.15,9.54,27.44,6.57,6.52,16.38,9.83,29.16,9.83h.49c16.57-.11,33.82-5.46,45.37-9.93.44-.17.94.02,1.16.44.22.42.08.94-.32,1.2-31.63,20.79-61.21,23.04-72.47,23.04-55.62,0-59.94-40.22-59.94-52.54,0-25.33,15.3-52.63,41.98-74.89,36.22-30.22,85.2-46.86,137.91-46.86,14.94,0,30.03,1.37,44.84,4.06,1.91.35,2.7,1.92,2.8,3.16.09,1.22-.41,2.73-2.11,3.33Z"/></g></svg>