<?xml version="1.0" encoding="UTF-8"?><svg id="Layer_2" xmlns="http://www.w3.org/2000/svg" viewBox="0 0 783.47 121.93"><defs><style>.cls-1{fill:#58365f;}</style></defs><g id="graphics2"><path class="cls-1" d="M780.65,60.46l-25.44,4.94c-14.18,2.75-25.19,13.96-27.7,28.19l-4.5,25.52-4.94-25.44c-2.75-14.18-13.96-25.19-28.19-27.7l-25.52-4.5,25.44-4.94c14.18-2.75,25.19-13.96,27.7-28.19l4.5-25.52,4.94,25.44c2.75,14.18,13.96,25.19,28.19,27.7l25.52,4.5Z"/><path class="cls-1" d="M722,0c1.35,0,2.51.96,2.77,2.28l4.94,25.44c2.51,12.94,12.92,23.17,25.91,25.46l25.52,4.5c1.34.24,2.32,1.39,2.33,2.76.01,1.36-.95,2.54-2.28,2.8l-25.44,4.94c-12.94,2.51-23.17,12.92-25.46,25.91l-4.5,25.52c-.24,1.34-1.39,2.32-2.76,2.33h-.02c-1.35,0-2.51-.96-2.77-2.28l-4.94-25.44c-2.51-12.94-12.92-23.17-25.91-25.46l-25.52-4.5c-1.34-.24-2.32-1.39-2.33-2.76-.01-1.36.95-2.54,2.28-2.8l25.44-4.94c12.94-2.51,23.17-12.93,25.46-25.91l4.5-25.52c.24-1.34,1.39-2.32,2.76-2.33h.03ZM765.15,60.59l-10.51-1.85c-15.27-2.69-27.51-14.72-30.47-29.94l-2.04-10.48-1.85,10.51c-2.69,15.27-14.72,27.51-29.94,30.47l-10.48,2.04,10.51,1.85c15.27,2.69,27.51,14.72,30.47,29.94l2.04,10.48,1.85-10.51c2.69-15.27,14.72-27.51,29.94-30.47l10.48-2.04Z"/><path class="cls-1" d="M2.82,57.95h633.31c1.56,0,2.82,1.26,2.82,2.82s-1.26,2.82-2.82,2.82H2.82c-1.56,0-2.82-1.26-2.82-2.82s1.26-2.82,2.82-2.82Z"/></g></svg>