<?xml version="1.0" encoding="UTF-8"?><svg id="Layer_2" xmlns="http://www.w3.org/2000/svg" viewBox="0 0 123.08 127.94"><defs><style>.cls-1{fill:#e3cda2;}</style></defs><g id="graphics2"><path class="cls-1" d="M50.47,50.28c0-13.91-11.32-25.23-25.23-25.23-.36,0-.71.01-1.06.03,9.84-9.46,23.13-15.02,37.37-15.02,17.57,0,34.09,8.6,44.19,23.02l8.24-5.77c-5.78-8.25-13.53-15.11-22.41-19.84C82.38,2.58,72,0,61.54,0c-12.83,0-25.21,3.78-35.79,10.94C15.42,17.93,7.41,27.67,2.58,39.12h.03c-1.67,3.38-2.61,7.16-2.61,11.17,0,13.91,11.32,25.23,25.23,25.23s25.23-11.32,25.23-25.23ZM10.06,50.28c0-8.37,6.81-15.17,15.17-15.17s15.17,6.81,15.17,15.17-6.81,15.17-15.17,15.17-15.17-6.81-15.17-15.17Z"/><path class="cls-1" d="M123.08,77.66c0-13.91-11.32-25.23-25.23-25.23s-25.23,11.32-25.23,25.23,11.32,25.23,25.23,25.23c.37,0,.73-.01,1.09-.03-9.82,9.47-23.09,15.02-37.4,15.02-17.57,0-34.09-8.6-44.19-23.02l-8.24,5.77c5.78,8.25,13.53,15.11,22.41,19.84,9.18,4.88,19.55,7.46,30.01,7.46,13.01,0,25.53-3.88,36.21-11.23,10.25-7.05,18.14-16.8,22.89-28.24,1.56-3.28,2.44-6.95,2.44-10.81ZM82.67,77.66c0-8.37,6.81-15.17,15.17-15.17s15.17,6.81,15.17,15.17-6.81,15.17-15.17,15.17-15.17-6.81-15.17-15.17Z"/></g></svg>