<?xml version="1.0" encoding="UTF-8"?><svg id="Layer_2" xmlns="http://www.w3.org/2000/svg" viewBox="0 0 698.52 1046.04"><defs><style>.cls-1{fill:#58365f;}</style></defs><g id="graphics"><path class="cls-1" d="M319.19,484c.44,1.09,1.77,1.65,2.84,1.22,1.12-.45,1.66-1.72,1.22-2.84-.91-2.29-1.88-5.55-2.87-9.69-.24-.99-1.14-1.67-2.13-1.67-.17,0-.33.02-.5.06-.56.13-1.04.48-1.34.98-.31.5-.4,1.08-.26,1.65,1.05,4.38,2.08,7.84,3.06,10.29Z"/><path class="cls-1" d="M120.01,374.02c-.4-.33-.86-.49-1.37-.49-.08,0-.16,0-.24.01-.58.06-1.1.34-1.46.79-.37.45-.54,1.02-.48,1.59.06.59.34,1.11.79,1.48,1.98,1.61,4.03,3.51,6.1,5.62.81.83,2.23.85,3.09.03.86-.84.87-2.22.03-3.08-2.22-2.28-4.4-4.28-6.47-5.96Z"/><path class="cls-1" d="M197.95,217c2.3-2.18,4.67-4.18,7.04-5.96.96-.72,1.16-2.09.44-3.06-.72-.95-2.09-1.14-3.06-.43-2.52,1.89-5.01,4-7.42,6.28-.42.4-.66.95-.68,1.53-.01.58.2,1.13.6,1.55.8.85,2.24.89,3.08.09Z"/><path class="cls-1" d="M185.11,309.41c1.07.49,2.41,0,2.9-1.05.51-1.09.03-2.39-1.06-2.9-7.75-3.62-12.89-9.74-15.29-18.2-4.22-14.88.66-35.56,12.73-53.96.66-1,.38-2.36-.63-3.02-.37-.24-.79-.36-1.2-.36-.71,0-1.41.35-1.82.98-12.75,19.43-17.84,41.49-13.28,57.55,2.71,9.59,8.81,16.83,17.64,20.96Z"/><path class="cls-1" d="M95.44,299.83c1.07.42,2.4-.15,2.83-1.23,2.83-7.23,7.06-14.02,12.55-20.19.39-.43.58-.99.55-1.58-.03-.58-.29-1.11-.73-1.5-.4-.36-.9-.56-1.41-.56-.75.04-1.29.3-1.67.73-5.85,6.55-10.34,13.78-13.36,21.5-.21.54-.2,1.13.03,1.66.23.54.66.95,1.2,1.16Z"/><path class="cls-1" d="M185.42,534.78c-2.65-.96-4.75-4.42-6.03-7.16-.25-.53-.69-.93-1.24-1.13-.24-.09-.49-.13-.74-.13-.31,0-.62.07-.91.21-.54.26-.94.69-1.14,1.24-.2.55-.17,1.14.08,1.67,2.39,5.07,5.24,8.23,8.5,9.4,1.1.4,2.39-.21,2.8-1.31.19-.55.17-1.14-.08-1.66-.25-.53-.69-.93-1.24-1.12Z"/><path class="cls-1" d="M173.02,513.75c.58-.08,1.1-.38,1.45-.84.35-.46.5-1.04.42-1.61-.77-5.58-.82-10.86-.16-14.48.09-.5.51-.86,1.01-.89,12.19-.66,24.01-9.86,31.83-15.95,2.84-2.21,5.45-4.25,6.77-4.78.55-.22.97-.63,1.19-1.17.23-.54.23-1.13.02-1.68-.46-1.12-1.73-1.66-2.84-1.2-1.89.76-4.38,2.7-7.82,5.38l-.23.17c-7.89,6.15-19.74,15.48-31.22,14.87-1.1,0-1.87.54-2.2,1.41-1.5,4.02-1.76,11.08-.69,18.89.16,1.18,1.34,2.05,2.45,1.87Z"/><path class="cls-1" d="M223.06,628.44c-2-1.12-4.05-2.32-6.2-3.59l-2.22-1.31c-.34-.2-.72-.3-1.1-.3-.18,0-.37.02-.55.07-.57.15-1.05.51-1.35,1.02-.61,1.03-.26,2.37.78,2.98l2.22,1.31c2.18,1.29,4.25,2.51,6.28,3.64,1.02.57,2.4.18,2.97-.84.58-1.05.21-2.38-.84-2.97Z"/><path class="cls-1" d="M444.91,523.7c1.01.56,2.4.17,2.97-.84,0,0,2.51-4.51,6.11-11.39.27-.51.32-1.11.15-1.67-.17-.55-.56-1.01-1.08-1.28-.32-.16-.66-.24-.99-.24-.79,0-1.56.43-1.95,1.17-3.12,5.97-5.43,10.16-5.93,11.08-.4.71-.46,1.29-.31,1.85.16.56.53,1.02,1.04,1.31Z"/><path class="cls-1" d="M568,391.14c4.46-5.57,9.05-10.32,13.25-13.74.46-.37.74-.89.8-1.47.06-.58-.11-1.15-.48-1.6-.37-.45-.89-.73-1.47-.79-.07,0-.15-.01-.22-.01-.51,0-.98.17-1.38.49-4.42,3.6-9.23,8.58-13.89,14.39-.37.46-.53,1.02-.47,1.6.06.58.35,1.1.81,1.46.9.73,2.34.57,3.07-.33Z"/><path class="cls-1" d="M496.15,207.55c-.97-.72-2.34-.53-3.05.44-.72.96-.52,2.33.44,3.05,23.64,17.73,38.83,50.92,33.87,73.97-.25,1.17.5,2.34,1.67,2.59,1.16.27,2.34-.52,2.59-1.67,5.28-24.56-10.65-59.72-35.52-78.38Z"/><path class="cls-1" d="M521.13,299.28c-.58,0-1.13.22-1.54.63-2.25,2.24-4.95,4.11-8.04,5.55-1.09.51-1.56,1.81-1.05,2.9.49,1.05,1.84,1.55,2.9,1.05,3.54-1.66,6.66-3.81,9.27-6.41.41-.41.64-.95.64-1.53,0-.59-.22-1.14-.63-1.55-.41-.42-.98-.69-1.54-.64Z"/><path class="cls-1" d="M594.06,286.68c.64.97,2.05,1.26,3.03.63,1-.66,1.28-2.02.62-3.02-1.99-3.03-4.26-5.99-6.76-8.78-.39-.44-.92-.69-1.5-.73-.65,0-1.18.2-1.58.56-.89.8-.97,2.18-.17,3.08,2.36,2.64,4.5,5.43,6.36,8.27Z"/><path class="cls-1" d="M504.57,489.62c6.69,3.95,12.64,6.01,18.2,6.31.5.03.92.39,1.01.89,1.32,7.16-.19,21.16-4.55,30.58-1.85,4-4.03,6.62-6.13,7.38-.55.2-.99.59-1.24,1.12-.25.53-.28,1.12-.08,1.67.4,1.11,1.73,1.71,2.79,1.32,3.31-1.19,6.21-4.44,8.62-9.65,5.01-10.84,6.99-28.46,4.06-36.25-.35-.94-1.18-1.5-2.09-1.42-5.51.25-11.35-1.56-18.38-5.71-.5-.3-1.09-.38-1.65-.23s-1.04.5-1.33,1c-.3.5-.38,1.09-.24,1.66.14.56.5,1.04,1.01,1.33Z"/><path class="cls-1" d="M484.17,475.2c1.23.49,3.47,2.21,6.76,4.77l.87.68c.92.72,2.35.53,3.06-.38.36-.46.52-1.04.44-1.61-.07-.58-.36-1.09-.82-1.45l-.88-.68c-3.44-2.68-5.92-4.62-7.81-5.38-1.12-.45-2.39.1-2.83,1.21-.22.55-.22,1.14.01,1.67.23.54.65.95,1.19,1.17Z"/><path class="cls-1" d="M392.94,653.15c-7.29,3.81-33.97,5.22-43.63,5.44-9.73-.22-36.45-1.63-43.75-5.44-9.21-4.8-43.03-15.23-57.71-16.49-.72,0-1.2.16-1.58.49-.45.38-.73.91-.78,1.5-.1,1.19.79,2.25,1.99,2.35,14.27,1.22,47.13,11.35,56.07,16.01,9.73,5.08,44.29,5.9,45.76,5.94,1.41-.03,35.98-.89,45.66-5.94.52-.27.9-.73,1.07-1.28.17-.56.12-1.15-.15-1.67-.55-1.06-1.87-1.48-2.95-.92Z"/><path class="cls-1" d="M485.52,623.31c-.19-.05-.37-.07-.55-.07-.38,0-.75.1-1.08.3l-2.26,1.33c-10.54,6.21-18.16,10.69-30.96,11.79-7.89.68-19.93,3.8-26.39,5.61-.57.16-1.04.52-1.32,1.03-.29.51-.36,1.1-.2,1.66.31,1.13,1.56,1.83,2.68,1.51,10.95-3.05,20.05-4.99,25.61-5.46,13.8-1.18,22.18-6.13,32.81-12.38l2.24-1.32c.5-.3.86-.77,1.01-1.33.15-.56.07-1.15-.23-1.65-.3-.51-.78-.86-1.35-1.01Z"/><path class="cls-1" d="M683.97,651.86c-14.84-13.75-29.07-30.46-38.48-41.52l-1.16-1.37c-10.45-12.26-24.89-12-44.8-7.62-14.73,3.24-32.12,3.19-50.28-.14-.5-.09-.87-.52-.89-1.03s.31-.97.8-1.1c5.11-1.4,10.53-2.73,16.57-4.2,23.99-5.85,48.8-11.9,64.57-26.47,18.97-17.54,76.69-70.93,53.94-205.34-.19-1.13-1.27-1.9-2.38-1.8-1.14.12-2,1.11-1.95,2.26,1.58,38.2-10.68,64.66-20.54,85.91-9.26,19.97-16.58,35.73-4.49,50.03.2.25.29.57.24.89-.05.32-.24.59-.52.76-4.33,2.56-8.64,4.8-13.04,7.07-9.78,5.04-17.51,9.02-20.47,14.38-3.83,6.91-2.86,11.68-1.58,15.06.13.35.07.75-.16,1.05-.23.3-.59.45-.97.42-9.15-.9-18.35,6.44-29.02,14.93-7.5,5.98-16.83,13.42-28.07,19.12-.4.2-.86.14-1.19-.14-.34-.28-.47-.73-.35-1.15,2.28-7.68,1.57-16.94-2.01-26.07-6.29-16.02-7.72-31.7-4.37-47.93,1.95-9.43-.72-18.91-6.96-24.76-.37-.29-.69-.95-.52-1.39,1.52-4.07,5.66-14.12,11.38-19.42,6.41-5.94,8.12-13.74,4.46-20.36-.16-.29-.18-.64-.05-.95,12.17-28.63,40.61-51.78,50.06-55.35.93-.35,1.51-1.3,1.4-2.29-.31-2.66-1.18-5.61-2.53-8.52-.21-.45-.09-.98.29-1.3,16.92-14.04,18.23-55.4,6.85-76.02-4.81-8.72-10.93-16.41-17.71-22.22-.11-.1-.21-.22-.27-.36-24.22-50.92-103.49-79.03-123.77-82.45-21.9-3.69-47.57-.14-56.03,7.76-2.66,2.47-3.04,4.9-2.88,6.5.08.77.56,1.45,1.27,1.77.7.32,1.53.24,2.16-.21,5.57-3.95,14.7-4.09,25.72-.39,20.29,6.81,47.98,27.07,60.83,55.46.2.43.09.95-.27,1.27-.36.32-.88.36-1.29.12-7.51-4.55-14.97-4.62-20.96-4.68-3.09-.03-6-.06-8.34-.41-19.64-6.53-42.21-19.87-47.23-37.88-.27-.99-1.18-1.67-2.19-1.59-1.04.05-1.88.79-2.06,1.79-2.44,13.63,9.33,48.64,41.48,69.87,12.4,8.19,25.4,12.53,32.05,14.39.57.16.91.75.76,1.32-1.66,6.51-3.58,18.98,2.15,29.25,1.66,2.97,4.34,5.84,7.75,8.29.19.14.33.33.4.55.86,2.69,2.63,5.24,4.68,8.07,1.64,2.26,3.2,4.48,4.14,6.7.2.47.05,1.02-.37,1.32-1.84,1.31-2.86,3.23-2.86,5.4,0,4.02-4.98,34.75-13.82,50.97-.19.35-.55.56-.94.57-3.59.07-12.04.94-12.86,7.62-.45,3.55-3.44,12.66-11.57,21.71-.39.43-1.04.48-1.5.12-3.75-3.04-7.24-6.12-10.16-8.72-7.14-6.36-13.3-11.85-20.05-14.83-6.18-2.72-12.77-3-17.19-.74-2.01,1.02-3.61,2.61-4.64,4.58-.23.45-.73.66-1.22.56-8.75-2.11-25.09-3.86-29.88-4.35-.38-.04-.72-.28-.88-.63-4.76-10.3-31.56-23.98-40.93-23.98s-36.17,13.68-40.93,23.98c-.16.35-.49.59-.88.63-4.8.49-21.13,2.24-29.88,4.35-.49.11-.99-.11-1.22-.56-1.03-1.97-2.63-3.56-4.64-4.58-4.44-2.26-11.03-1.98-17.19.75-6.76,2.98-12.92,8.47-20.06,14.83-2.92,2.61-6.42,5.68-10.16,8.71-.45.36-1.11.31-1.5-.12-8.13-9.04-11.12-18.15-11.57-21.7-.83-6.69-9.27-7.56-12.86-7.62-.39,0-.75-.22-.94-.57-8.84-16.23-13.82-46.96-13.82-50.97,0-2.17-1.01-4.09-2.86-5.4-.42-.3-.57-.85-.37-1.32.95-2.21,2.5-4.43,4.14-6.7,2.04-2.82,3.8-5.37,4.68-8.07.07-.22.21-.41.4-.55,3.41-2.45,6.09-5.31,7.75-8.29,5.73-10.27,3.8-22.74,2.15-29.25-.14-.57.19-1.16.76-1.32,6.65-1.86,19.65-6.2,32.05-14.39,32.15-21.23,43.92-56.23,41.48-69.87-.18-1.01-1.02-1.74-2.04-1.79-.97-.05-1.93.59-2.21,1.59-5.01,17.97-27.33,31.26-46.55,37.71-3.02.52-5.94.55-9.03.58-6.34.06-13.51.13-20.94,4.65-.4.24-.93.2-1.29-.12-.36-.32-.47-.83-.27-1.27,12.86-28.37,40.54-48.62,60.82-55.43,11.01-3.7,20.15-3.56,25.72.39.65.46,1.44.53,2.18.2.69-.32,1.18-1,1.26-1.77.15-1.59-.23-4.02-2.88-6.49-8.46-7.89-34.12-11.44-56.05-7.76-20.27,3.42-99.55,31.53-123.76,82.45-.06.14-.16.26-.27.36-6.77,5.81-12.9,13.5-17.71,22.22-11.38,20.62-10.07,61.98,6.86,76.02.38.32.5.85.29,1.3-1.35,2.91-2.22,5.86-2.53,8.53-.11.99.46,1.93,1.4,2.29,9.46,3.58,37.9,26.72,50.06,55.35.13.31.11.66-.05.95-3.65,6.62-1.94,14.43,4.46,20.36,5.72,5.29,9.86,15.34,11.38,19.42.16.44.03.94-.34,1.23-6.42,6.01-9.09,15.5-7.14,24.92,3.35,16.23,1.92,31.91-4.37,47.94-3.58,9.13-4.29,18.39-2.01,26.07.13.42-.01.87-.35,1.15-.33.28-.81.33-1.19.14-11.24-5.7-20.57-13.14-28.08-19.12-10.7-8.53-19.92-15.89-29-14.96-.38.01-.75-.13-.97-.42-.23-.3-.29-.69-.16-1.04,1.15-3.13,2.25-8.09-1.6-15.04-2.97-5.36-10.69-9.34-20.47-14.38-4.4-2.27-8.71-4.52-13.04-7.07-.28-.16-.47-.44-.52-.76-.06-.32.03-.64.24-.89,12.09-14.3,4.77-30.07-4.49-50.05-9.85-21.25-22.12-47.69-20.53-85.9.05-1.15-.81-2.14-1.95-2.26-1.05-.13-2.19.68-2.38,1.8-22.75,134.42,34.97,187.8,53.94,205.35,15.77,14.57,40.58,20.62,64.57,26.47,6.04,1.47,11.46,2.81,16.57,4.2.49.13.82.59.8,1.1-.02.51-.39.93-.89,1.03-18.17,3.33-35.55,3.38-50.28.14-19.91-4.39-34.35-4.64-44.8,7.62l-1.17,1.38c-9.41,11.05-23.62,27.75-38.48,41.51-12.85,11.9-17.81,30.47-12.36,46.2,6.37,18.4,25.66,38.43,46.08,59.63,27.25,28.29,55.39,57.51,55.39,85.14,0,1.08.8,2,1.85,2.16,1.08.17,2.11-.48,2.42-1.53,9.8-32.82-8.02-73.83-18.17-82.35-6.11-5.14-11.89-5.34-19.21-5.59l-1.7-.06c-.42-.02-.79-.27-.96-.66-.17-.38-.1-.83.17-1.15,3.77-4.36,8.1-7.69,10.72-9.06.91-.47,1.36-1.5,1.1-2.49-3.71-13.96-14.82-18.79-26.58-23.89-7.93-3.44-16.12-7-23.42-13.59-1.7-1.54-3.32-3.27-4.83-5.14-.24-.3-.31-.71-.17-1.08.14-.36.47-.62.85-.68,18.58-2.87,19.53-20.56,20.37-36.16l.03-.66c.17-3.2,1.99-7.4,5.72-13.22.26-.4.74-.59,1.19-.47,3.32.85,6.28,1.26,9.04,1.26,5.44,0,10.42-1.35,14.78-4.02,1.84-1.13,3.61-2.53,5.24-4.16.23-.23.56-.33.87-.32,27.13,2.41,52.82-13.79,69.57-27.8.2-.17.45-.25.7-.25s.49.08.69.24c.41.33.52.9.28,1.36-14.82,27.78-44.61,42.29-61.04,48.47-5.81,2.18-10.5,6.92-12.88,13-1.95,4.97-2.02,10.12-.18,13.78.58,1.17,1.61,3.04,2.93,5.41l.22.39c6.07,10.92,18.69,33.65,18.45,44.07-.31,13.67,8.31,21.25,16.99,22.71.42.07.75.37.87.78,2.62,9.14,14.01,15.75,27.21,23.4,20.68,11.98,46.4,26.88,49.12,57.49.09,1.1,1.01,1.92,2.24,1.99.96,0,1.86-.73,2.07-1.73,8.78-41.3-11.09-77.19-35.38-88.03-4.09-1.82-9.88-2.26-18.25-1.41-.36.05-.75-.12-.98-.42-.23-.3-.29-.7-.14-1.06.55-1.41,1.24-2.78,2.02-4.29,3.06-5.91,6.22-12.02.36-24.33-.3-.63-.89-1.09-1.58-1.21-8.53-1.56-32.29-18.39-37.43-31.69-.16-.4-.06-.86.26-1.17.31-.3.77-.4,1.17-.23,1.18.48,2.35.97,3.53,1.45,7.01,2.91,13.62,5.66,19.14,5.66,1.47,0,2.77-.19,3.97-.58.89-.29,1.5-1.11,1.52-2.05.09-7.3,2.3-12.79,4.44-14.45.64-.5.95-1.31.81-2.11-.33-1.8-1.31-3.56-2.92-5.2-.38-.39-.42-1.02-.07-1.45,2.5-3.12,6.61-7.07,10.24-10.55,3.76-3.6,7.26-6.96,9.47-9.7,6.48-8.03,7.21-17.03,7.59-29.85.01-.43.27-.8.66-.97.4-.16.84-.09,1.16.19.33.3.66.57,1,.82.92.7,2.02,1.51,3.25,2.42.14.1.26.24.33.4,11.81,23.99-2.09,59.55-2.68,61.05-3.85,9.66-2.06,17.13,4.9,20.48,5.43,2.62,22.56,41.35,21.38,51.32-.11.92.37,1.8,1.19,2.21.12.06.25.11.38.15,10.19,3.02,21.7,21.72,31.86,38.21,6.56,10.65,12.74,20.68,18.06,25.59,17.84,16.47,37.25,18.95,55.46,7.56.77-.48,1.17-1.39.99-2.27-.17-.89-.89-1.58-1.78-1.73-30.04-5.01-40.84-37.11-47.3-56.3-2.26-6.71-3.89-11.54-5.83-13.89-2.73-3.31-7.11-6.42-12.01-8.54-.29-.13-.51-.37-.61-.67-.09-.3-.06-.63.11-.9,4.77-7.82,3.8-15.47-2.71-21.55-1.77-1.66-5.21-4.29-9.19-7.35-6.32-4.86-14.89-11.45-21.39-17.6-.15-.14-.26-.32-.31-.53-1.64-6.48-.12-14.8,1.22-22.15,1.44-7.91,2.58-14.16-.28-17.28-3.35-3.66-8.96-9.78-12.41-19.42-.16-.45,0-.96.38-1.25.39-.29.92-.28,1.3.01,7.4,5.66,12.96,10.23,16.98,13.97,7.5,6.98,20.63,8.51,34.54,10.12,10.71,1.24,21.78,2.53,30.69,6.37,21.53,9.29,38.17,15.38,71.98,15.38s50.45-6.09,71.98-15.38c8.91-3.84,20-5.13,30.71-6.38,13.9-1.61,27.02-3.14,34.52-10.12,4.01-3.73,9.53-8.27,16.85-13.88.38-.3.92-.3,1.31-.01.39.29.55.79.38,1.25-3.51,9.75-9.22,15.98-12.29,19.32-2.86,3.12-1.72,9.37-.28,17.28,1.34,7.34,2.85,15.67,1.22,22.15-.05.2-.16.38-.31.53-6.5,6.15-15.07,12.74-21.33,17.56-4.04,3.1-7.48,5.74-9.25,7.39-6.51,6.08-7.48,13.74-2.71,21.55.16.27.2.6.11.9-.1.3-.32.55-.61.67-4.9,2.12-9.28,5.23-12.02,8.54-1.93,2.35-3.56,7.18-5.82,13.87-6.47,19.22-17.28,51.32-47.31,56.33-.89.15-1.61.84-1.78,1.72-.18.89.22,1.8.98,2.28,18.22,11.39,37.62,8.91,55.47-7.56,5.32-4.91,11.51-14.95,18.06-25.59,10.16-16.5,21.67-35.19,31.85-38.21.14-.04.26-.09.4-.15.81-.41,1.29-1.29,1.18-2.2-1.18-9.98,15.95-48.72,21.38-51.33,6.96-3.35,8.75-10.82,4.9-20.48-.6-1.5-14.49-37.06-2.68-61.05.08-.16.19-.29.33-.4,1.24-.91,2.33-1.72,3.26-2.42.33-.25.66-.52.99-.83.32-.28.78-.36,1.16-.19.39.17.65.55.66.97.38,12.82,1.12,21.82,7.59,29.85,2.22,2.74,5.72,6.1,9.42,9.65,3.7,3.55,7.8,7.49,10.29,10.6.35.43.31,1.05-.07,1.45-1.61,1.64-2.59,3.39-2.92,5.21-.14.8.17,1.6.81,2.1,2.13,1.66,4.35,7.16,4.44,14.46.01.94.62,1.76,1.51,2.04,1.19.39,2.53.58,3.98.58,5.51,0,12.14-2.75,19.15-5.67,1.19-.49,2.35-.98,3.51-1.45.41-.17.87-.07,1.17.23.31.3.41.76.26,1.17-5.13,13.31-28.9,30.13-37.43,31.7-.69.13-1.28.58-1.57,1.2-5.87,12.32-2.71,18.43.35,24.34.78,1.51,1.47,2.88,2.02,4.29.14.35.09.75-.14,1.06-.23.3-.62.46-.98.42-8.39-.86-14.17-.42-18.25,1.41-24.28,10.84-44.16,46.73-35.38,88.03.22,1.01,1.12,1.72,2.2,1.72,1.1-.07,2.02-.9,2.11-1.99,2.71-30.61,28.44-45.52,49.11-57.49,13.2-7.65,24.6-14.26,27.21-23.4.12-.4.45-.71.87-.78,8.68-1.45,17.3-9.04,16.99-22.71-.24-10.41,12.38-33.15,18.45-44.07l.37-.69c1.24-2.23,2.22-4,2.77-5.11,1.83-3.67,1.76-8.82-.18-13.79-2.38-6.08-7.08-10.82-12.88-13-16.44-6.18-46.23-20.7-61.04-48.48-.25-.46-.13-1.03.28-1.36s.99-.32,1.38,0c13.7,11.46,40.98,30.3,69.58,27.81.31-.04.64.09.86.32,1.64,1.64,3.41,3.04,5.24,4.16,4.37,2.67,9.34,4.02,14.77,4.02,2.76,0,5.72-.41,9.04-1.26.46-.11.94.07,1.19.47,3.73,5.82,5.55,10.02,5.72,13.22l.03.65c.75,14,1.78,33.18,20.44,36.1.38.06.71.32.85.68s.08.77-.17,1.08c-1.53,1.91-3.17,3.67-4.9,5.22-7.3,6.59-15.49,10.15-23.42,13.59-11.76,5.11-22.87,9.93-26.58,23.9-.26.99.2,2.02,1.1,2.49,2.61,1.36,6.93,4.69,10.7,9.06.27.32.34.76.17,1.15-.17.38-.54.64-.95.66l-1.53.06c-7.49.26-13.27.46-19.38,5.59-10.15,8.52-27.97,49.53-18.17,82.35.31,1.03,1.41,1.7,2.39,1.54,1.08-.16,1.88-1.08,1.88-2.16,0-27.63,28.15-56.85,55.37-85.11,20.45-21.23,39.73-41.25,46.1-59.65,5.45-15.73.48-34.3-12.36-46.2ZM663.33,451.25c6.56-14.15,14.68-31.69,18.64-53.84.09-.52.55-.9,1.07-.9.6.03,1.04.46,1.09,1.01,2.3,29.85.37,57.37-5.72,81.79-.02.1-.06.2-.11.29-3.76,6.44-9.66,12.31-18.04,17.94-.19.13-.4.19-.61.19-.3,0-.6-.13-.81-.37-11.11-12.48-4.9-25.86,4.5-46.1ZM624.9,524.67c2.32-4.19,9.88-8.09,18.63-12.61,8.31-4.28,19.66-10.12,28.53-18.26.37-.34.92-.38,1.33-.11.42.27.6.79.43,1.27-8.6,25.07-22.12,46.7-40.19,64.27-.2.2-.48.31-.76.31-.14,0-.28-.03-.41-.08-.4-.16-.66-.55-.68-.98-.19-7.62-3.1-12.76-5.44-16.89-3.17-5.61-5.46-9.66-1.44-16.93ZM468.61,278.18c-25.27-16.69-34.54-39.82-37.36-48.99-.15-.49.07-1.03.52-1.28.46-.25,1.02-.14,1.35.25,12.95,15.27,35.43,23.52,42.01,25.68,3.05.49,6.27.52,9.38.55,8.9.09,17.31.17,26.62,10.8.12.14.2.3.24.48,2.11,9.63.95,19.35-2.9,24.18-1.55,1.95-3.4,2.93-5.5,2.93-.16,0-.32,0-.49-.02-2.03-.47-18.75-4.62-33.87-14.6ZM504.98,324.66c-5.29-9.47-2.83-21.9-1.52-26.81.11-.43.47-.74.91-.8,2.91-.39,5.51-1.93,7.53-4.46,5.28-6.65,6.42-20.03,2.71-31.83-10.19-32.33-42.11-58.65-66.97-67.01-5.38-1.81-10.36-2.79-14.82-2.92-.53-.02-.98-.42-1.05-.95-.07-.53.26-1.03.77-1.19,11.81-3.57,28.58-4.32,42.75-1.94,16.88,2.84,85.61,26.4,114.4,69.27.27.4.24.94-.07,1.31-.32.37-.83.49-1.28.3-1.64-.72-3.26-1.29-4.82-1.68-5.07-1.28-9.57-.77-13.05,1.49-12.08,7.82-8.89,24.43-7.36,32.41,2.75,14.31-1.74,38.83-17.05,45.76-4.08,1.85-8.54,2.67-12.98,2.67-11.92,0-23.78-5.89-28.1-13.63ZM518.17,342.04c-.27-.39-.27-.9.02-1.28.28-.38.78-.53,1.22-.38,9.72,3.3,20.08,3.01,28.44-.78,17.56-7.95,22.63-34.47,19.53-50.56-2.17-11.27-3.01-22.45,5.44-27.93,2.45-1.58,5.78-1.9,9.62-.92,10.77,2.71,23.13,14.25,31.48,29.4,9.97,18.08,9.33,56.62-4.93,69.81-.2.19-.47.29-.74.29-.43-.04-.71-.21-.89-.46-1.75-2.49-3.77-4.71-6.02-6.62-.41-.35-.51-.95-.23-1.41,6.16-9.93,10.82-27.58,5.46-47.32-.32-1.16-1.5-1.84-2.68-1.53-.56.15-1.03.51-1.32,1.02-.29.51-.37,1.1-.21,1.65,4.93,18.18.46,34.84-4.87,43.59-.3.5-.95.66-1.45.39-3.97-2.13-8.18-3.21-12.53-3.21-5.81,0-12.1,2.89-18.17,5.68-1.68.77-3.21,1.47-4.73,2.12-11.1,4.72-25.05,4.36-30.45-.79-1.71-1.64-4.11-2.58-6.74-2.66-.44-.01-.83-.29-.99-.71-.98-2.6-2.63-5.09-4.27-7.39ZM504.77,410.44c9.22-16.73,14.5-47.54,14.5-53.33,0-1.04.57-1.81,1.68-2.29,1.68-.72,4.43-.57,6.21,1.13,7.54,7.18,23.8,6.47,35.17,1.64,1.65-.7,3.32-1.47,5.01-2.24,5.57-2.56,11.34-5.2,16.19-5.2,13.36,0,22.7,12.66,24.82,21.22.12.49-.11,1.01-.57,1.24-11.82,5.99-38.77,29.02-50.53,57.57-.06.13-.13.24-.23.34-1.6,1.66-5.3,2.59-10.23,2.59-.26,0-.53,0-.8,0-.35,0-.68-.19-.88-.48-.2-.29-.24-.66-.12-1,3.21-8.56,7.45-17.26,12.28-25.15.62-1.02.29-2.37-.73-3-.5-.31-1.09-.39-1.66-.25-.56.14-1.04.48-1.33.98-5.33,8.73-9.92,18.26-13.28,27.58-.17.49-.67.79-1.19.71-4.69-.72-9.34-2.01-13.43-3.73-10.13-4.25-17.55-10.4-20.91-17.32-.16-.32-.14-.69.03-1ZM478.7,441.18c9.03-9.91,12.37-19.98,12.92-24.37.4-3.26,6.43-3.73,8.27-3.8.35-.02.82.22,1.01.6,3.88,7.74,12.07,14.55,23.07,19.16,10.14,4.26,25.31,6.67,33.42,2.72.29-.14.63-.14.91-.02.29.13.52.37.61.68,1.9,6.24-3.05,11.46-4.62,12.92-5.86,5.42-10.02,14.66-11.97,19.69-.11.28-.33.5-.6.61-.13.05-.27.08-.41.08-.15,0-.31-.03-.45-.1-4.2-1.9-9.02-2.26-13.95-1.05-.14.03-.28.04-.42.02-9.08-1.29-17.57-7.35-25.06-12.7-7.4-5.28-14.44-10.33-21.11-9.94-.6,0-1.06-.4-1.14-.94-.13-.93-.34-1.72-.65-2.39-.18-.4-.11-.87.19-1.19ZM213.99,254.41c3.12-.03,6.34-.06,10.04-.72,6.34-2.13,28.52-10.37,41.36-25.52.33-.4.9-.51,1.35-.25.45.25.67.78.52,1.28-2.82,9.17-12.1,32.3-37.36,48.99-14.52,9.59-30.47,13.8-33.52,14.55-.24.02-.48.03-.72.03-2.25,0-4.1-.98-5.63-2.89-3.85-4.83-5.01-14.55-2.9-24.18.04-.18.12-.35.24-.48,9.31-10.63,17.71-10.72,26.61-10.8ZM108.84,256.04c28.8-42.88,97.52-66.43,114.4-69.27,14.17-2.39,30.95-1.63,42.75,1.93.51.15.84.66.77,1.19-.07.53-.52.93-1.05.95-4.46.13-9.44,1.12-14.81,2.92-24.87,8.35-56.8,34.67-66.98,67.01-3.71,11.8-2.58,25.19,2.71,31.83,2.02,2.54,4.62,4.08,7.53,4.46.43.06.8.37.91.8,1.31,4.9,3.77,17.33-1.52,26.81-4.32,7.74-16.17,13.63-28.09,13.63-4.45,0-8.9-.82-12.99-2.67-15.3-6.93-19.79-31.47-17.04-45.77,1.53-7.98,4.72-24.58-7.36-32.4-3.47-2.24-8-2.76-13.05-1.5-1.57.4-3.19.96-4.82,1.69-.45.19-.97.07-1.28-.3-.31-.37-.34-.91-.07-1.31ZM84.59,289.59c8.35-15.15,20.71-26.7,31.49-29.41,3.84-.96,7.17-.65,9.61.93,8.45,5.47,7.61,16.66,5.44,27.93-3.09,16.09,1.98,42.6,19.53,50.56,8.36,3.78,18.72,4.06,28.44.77.45-.15.94,0,1.22.38.29.38.29.9.01,1.28-1.63,2.29-3.28,4.77-4.26,7.39-.16.42-.55.69-.99.71-2.63.08-5.03,1.02-6.75,2.65-5.48,5.23-19.14,5.59-30.45.79-1.53-.65-3.07-1.36-4.78-2.14-6.11-2.8-12.31-5.65-18.12-5.65-4.36,0-8.59,1.09-12.57,3.23-.51.27-1.15.1-1.45-.4-2.6-4.32-8.45-16.25-6.67-33.68.12-1.19-.75-2.27-1.96-2.39-1.21-.1-2.27.75-2.38,1.94-1.93,18.92,4.58,31.96,7.46,36.69.28.46.18,1.05-.23,1.4-2.26,1.9-4.29,4.14-6.04,6.64-.18.26-.46.42-.78.46-.39,0-.65-.1-.86-.28-14.26-13.18-14.9-51.73-4.93-69.81ZM90.73,372.61c-.45-.23-.69-.74-.57-1.24,2.11-8.56,11.46-21.22,24.82-21.22,4.86,0,10.63,2.65,16.2,5.21,1.67.77,3.35,1.54,5,2.24,11.37,4.83,27.62,5.54,35.17-1.65,1.78-1.7,4.53-1.85,6.22-1.12,1.11.47,1.67,1.24,1.67,2.29,0,5.79,5.28,36.6,14.5,53.33.17.31.18.68.03,1-3.35,6.92-10.78,13.06-20.91,17.32-4.01,1.68-8.77,3-13.42,3.72-.5.09-1.01-.22-1.19-.71-4.79-13.29-12.17-27.05-20.78-38.74-.71-.97-2.08-1.16-3.05-.46-.96.71-1.17,2.08-.46,3.05,7.93,10.77,14.87,23.56,19.55,36.01.12.33.08.71-.12,1-.2.29-.53.47-.89.48-.18,0-.38,0-.6,0-2.79,0-8.21-.31-10.41-2.59-.1-.1-.17-.22-.23-.34-11.75-28.55-38.71-51.58-50.53-57.57ZM144.23,449.09c-1.57-1.45-6.53-6.68-4.62-12.92.09-.3.32-.55.61-.68.29-.13.63-.12.91.02,8.11,3.94,23.27,1.54,33.42-2.72,11-4.61,19.19-11.42,23.06-19.15.19-.38.58-.62,1.02-.6,2.36.1,7.87.66,8.27,3.79.56,4.44,3.94,14.61,13.1,24.56.29.31.37.75.21,1.14-.26.66-.45,1.42-.58,2.26-.08.56-.59.97-1.16.93-6.77-.49-13.82,4.55-21.31,9.89-7.55,5.39-16.04,11.45-25.12,12.74-.14.02-.28.01-.42-.02-4.91-1.22-9.74-.86-13.95,1.04-.14.07-.3.1-.45.1-.14,0-.28-.03-.41-.08-.28-.11-.49-.33-.61-.62-1.95-5.02-6.1-14.25-11.97-19.69ZM144.85,547.38c6.6-16.83,8.1-33.32,4.57-50.41-1.64-7.95.54-15.88,5.67-20.7,4.24-3.98,9.92-5.25,15.99-3.58.26.07.54.09.85.07,10.42-1.23,19.59-7.78,27.69-13.56,7.13-5.09,13.84-9.91,19.26-8.97.46.08.83.46.89.93,2.71,19.6,22.48,56.67,30.85,71.7.26.48.75.85,1.32,1.01.57.16,1.18.1,1.65-.17.51-.28.88-.75,1.04-1.31.16-.56.09-1.15-.19-1.66-18.87-33.84-35.35-72.96-29.83-77.27,4.67-3.64,8.92-7.43,12.66-10.76,6.94-6.18,12.86-11.45,18.98-14.15,4.84-2.14,10.26-2.48,13.45-.85,1.85.94,2.98,2.44,3.45,4.59l.55,2.55c1.5,7,3.05,14.24,5.67,20.58.22.54.64.96,1.18,1.19.53.23,1.13.23,1.67,0,1.11-.46,1.64-1.74,1.18-2.85-2.45-5.94-3.98-13.07-5.33-19.36-.13-.58.23-1.15.81-1.29,7.45-1.76,20.59-3.29,27.75-4.04.31-.02.59.06.81.25.23.19.37.46.39.75.38,5.02,1.53,15.39,3.49,28.11.19,1.24,1.24,2,2.5,1.82,1.18-.18,1.99-1.3,1.81-2.49-2.16-14.06-3.62-27.36-3.62-30.96,0-5.25,26.59-22.2,37.24-22.2,7.42,0,19.3,7.02,22.76,9.17,1.48.92,14.48,9.1,14.48,13.03,0,6.56-5.6,51.78-11.22,65.84-.22.54-.21,1.13.02,1.67.23.53.65.95,1.19,1.16.51.21,1.12.19,1.66-.04.54-.23.97-.66,1.18-1.17,5.42-13.55,10.37-51.72,11.34-63.94.02-.29.16-.56.39-.75.23-.19.52-.28.81-.24,5.76.6,20.01,2.21,27.76,4.04.58.14.94.71.81,1.29-1.35,6.28-2.88,13.41-5.33,19.36-.46,1.11.08,2.39,1.19,2.85,1.1.46,2.39-.07,2.84-1.19,2.62-6.34,4.17-13.58,5.67-20.58l.55-2.54c.47-2.15,1.6-3.66,3.45-4.6,3.25-1.66,8.54-1.32,13.45.85,6.12,2.7,12.04,7.97,18.89,14.07,3.8,3.39,8.05,7.18,12.75,10.85,1.07.86,5.18,7.33-16.63,51.87-.53,1.08-.08,2.39,1,2.92.49.24,1.1.27,1.65.08.56-.19,1.02-.59,1.27-1.08,10.29-21.03,16.27-36.55,17.75-46.14.07-.48.45-.85.93-.91,5.36-.74,12,3.99,19.02,9,8.1,5.79,17.28,12.34,27.7,13.56.29.04.55.02.84-.06,6.1-1.67,11.77-.4,16,3.58,5.14,4.82,7.32,12.75,5.67,20.69-3.53,17.09-2.03,33.58,4.57,50.41,4.76,12.13,5.23,28.91-9.12,36.28-13.43,6.89-31,14.79-47.77,14.79-14.42,0-24.42-4.73-34.52-16.32-5.33-6.12-53.74-59.77-112.99-59.77s-107.66,53.65-112.99,59.76c-10.09,11.59-20.1,16.32-34.52,16.32-16.77,0-34.34-7.91-47.77-14.79-14.35-7.36-13.88-24.14-9.12-36.28ZM20.11,479.3c-6.1-24.42-8.02-51.94-5.72-81.79.04-.55.49-.98,1.03-1.01.6-.07,1.03.36,1.13.9,3.97,22.19,12.11,39.76,18.65,53.87,9.39,20.23,15.59,33.6,4.49,46.08-.21.24-.51.37-.81.37-.21,0-.42-.06-.61-.19-8.38-5.63-14.28-11.5-18.04-17.94-.05-.09-.09-.19-.12-.29ZM66.74,558.49c-.01.43-.28.82-.68.98-.14.06-.27.08-.41.08-.28,0-.55-.11-.76-.31-18.08-17.58-31.6-39.21-40.2-64.3-.16-.47.02-.99.43-1.27.41-.27.97-.23,1.33.11,8.87,8.15,20.23,14,28.53,18.28,0,0-.5.97-.5.97l.51-.97c8.75,4.51,16.3,8.41,18.62,12.6,4.02,7.27,1.73,11.32-1.44,16.92-2.34,4.14-5.25,9.27-5.44,16.89ZM70.4,759.88c6.98.24,11.6.4,16.56,4.57,7.85,6.6,19.61,33.45,19.44,58.88,0,.53-.38.97-.9,1.07-.64.02-1.05-.26-1.21-.69-7.81-20.94-26.71-41.73-47.04-62.96-.32-.34-.4-.84-.18-1.26.21-.42.68-.65,1.13-.57,4.69.71,8.68.85,12.2.97ZM26.96,707.86c7.82,7.07,16.74,10.94,24.61,14.35,10.95,4.76,19.6,8.51,23.33,18.59.17.48,0,1.01-.42,1.29-3.6,2.38-8.78,6.87-12.53,12.31-.2.3-.54.47-.9.47-4.07-.48-7.69-1.23-11.53-2.37-.18-.05-.35-.15-.47-.29-17.2-17.87-36.7-38.12-42.74-55.58-3.24-9.35-2.36-20.16,2.4-29.67.23-.46.76-.7,1.26-.56.5.14.84.61.8,1.13-1.05,15.38,4.85,30.08,16.19,40.32ZM41.79,660.66l-.04.66c-.87,16.28-1.69,31.66-20,32.4-.43,0-.8-.21-.99-.56-6.45-11.54-7.52-25.47-2.92-38.25.06-.16.16-.31.28-.43,14.88-13.89,28.94-30.4,38.24-41.33l1.16-1.37c3.71-4.36,8-6.92,13.51-8.07.35-.07.74.04.99.3.26.26.37.63.3.99-1.93,9.22-9.87,20.18-16.24,28.99-7.15,9.88-13.88,19.18-14.28,26.65ZM151.58,607.3c-15.12,13.02-38.36,28.53-63.26,28.53-.4,0-1.01-.21-1.21-.56-.2-.34-.44-.77-.24-1.1,2.42-3.97,4.14-8.58,4.96-13.35.1-.57-.03-1.15-.37-1.63-.34-.48-.84-.79-1.41-.89-1.26-.22-2.32.61-2.52,1.78-1.56,9.05-6.28,16.58-12.93,20.65-3.67,2.25-7.81,3.37-12.38,3.37-1.84,0-3.74-.18-5.71-.55-.37-.07-.67-.32-.81-.66-.14-.35-.09-.74.12-1.04,1.1-1.56,2.26-3.17,3.51-4.9l.26-.36c7.46-10.3,15.91-21.98,17.32-32.6.09-.63.69-.95,1.37-.95,5.46,0,11.93.84,19.78,2.57,15.49,3.4,33.68,3.33,52.61-.21.49-.1.97.16,1.18.6.21.45.1.98-.27,1.3ZM133.83,590.64c-23.01-5.61-46.8-11.41-61.84-24.77-.18-.16-.3-.37-.35-.61-1.83-9.27.73-15,3.27-19.63.09-.17.23-.31.4-.41,8.6-5.14,17.01.97,31.12,12.21,9.65,7.69,21.66,17.26,36.84,23.3.17.07.32.17.43.31,2.23,2.65,5.01,4.83,8.26,6.5,1.41.72,2.87,1.45,4.37,2.19.29.14.5.4.57.71.43,1.72.86,3.36,1.28,4.94.1.38,0,.79-.29,1.07-.2.2-.48.31-.76.31-.11,0-.21-.01-.32-.05-7.11-2.17-14.94-4.11-23-6.08ZM163.05,759.24c17.47,7.8,35.05,32.66,34.85,65.09,0,.52-.37.96-.87,1.06-.07.02-.14.02-.22.02-.43,0-.83-.25-1-.66-9.1-21.14-30.01-33.26-46.82-43-11.34-6.57-21.1-12.23-24.41-18.81-.16-.32-.15-.7.02-1.01.17-.31.48-.52.84-.56,2.54-.28,5.61-.8,8.87-1.35,9.88-1.66,22.17-3.72,28.75-.79ZM143.85,726.41c.3.1.55.32.68.61,4.07,9.39,1.76,13.87-.93,19.05-1.27,2.46-2.48,4.92-3.2,7.88-.11.43-.46.75-.89.82-2.03.31-4.03.64-5.93.96l-.81.14c-4.21.71-8.2,1.39-10.83,1.39-.2,0-.4,0-.59-.01-7.78-.28-15.52-6.72-15.26-18.49.26-11.58-12.26-34.16-18.99-46.29l-1.99-3.6c-.24-.45-.14-1.01.24-1.34,3.74-3.27,9.14-3.53,17.51-.83.41.13.71.49.75.92,1.64,15.68,29.09,35.32,40.24,38.8ZM163.71,616.33s-1.09-.02-1.09-.02l1.09.04c-.36,14.3-.6,23.75-6.75,31.37-2.04,2.53-5.44,5.79-9.04,9.25-3.79,3.63-8.09,7.75-10.82,11.21-.33.42-.92.54-1.39.28-6.31-3.52-14.24-5.17-15.12-5.35-.56-.11-1.16.02-1.63.33-.49.33-.83.82-.94,1.38-.11.57,0,1.15.32,1.64.32.48.81.81,1.39.93,6.02,1.21,16.02,4.59,18.88,8.98.26.39.23.91-.06,1.27-2.35,2.97-3.96,7.91-4.4,13.55-.04.56-.5.99-1.07,1.01-.08,0-.15,0-.23,0-4.58,0-10.97-2.65-17.14-5.22l-.26-.11c-7.22-3-15.37-6.38-22.37-6.38-3.17,0-5.85.66-8.21,2.03-.34.21-.78.19-1.12-.02-.34-.21-.54-.59-.51-1,.1-1.64.48-3.3,1.12-4.92,1.93-4.93,5.71-8.76,10.36-10.51,18.67-7.02,52.1-23.68,66.24-56.42.17-.4.56-.66,1-.66.43,0,.83.26,1,.65.26.58.51,1.13.77,1.66.07.16.11.33.11.5,0,0-.11,4.39-.12,4.53ZM247.61,758.64c1.43,1.73,3.11,6.72,5.05,12.49,6.02,17.88,16.08,47.74,42.29,57.06.43.15.72.55.72,1.01,0,.45-.27.86-.69,1.03-4.33,1.7-8.66,2.55-12.99,2.55-9.96,0-19.87-4.51-29.61-13.49-4.88-4.51-10.92-14.3-17.31-24.68-9.57-15.54-19.43-31.56-29.55-37.88-.3-.19-.49-.52-.51-.88-.01-.36.15-.71.44-.92,6.23-4.63,13.11-6.75,20.47-6.31,9.69.58,18.03,5.6,21.68,10.03ZM223.89,720.31c3.92,3.01,7.3,5.61,8.88,7.08,5.31,4.95,5.68,10.99,1.08,17.45-.26.36-.72.53-1.15.43-2.26-.55-4.39-.88-6.51-1.01-8.01-.49-15.85,1.84-22.75,6.75-.19.13-.41.2-.63.2-.14,0-.27-.03-.4-.08-.35-.14-.6-.44-.66-.81-3.04-15.58-16.76-46.12-23.27-49.26-3.2-1.54-6.32-5.24-3.02-14.15.07-.19.19-.35.35-.47,6.2-4.92,11.73.29,20.08,9.45,1.84,2.01,3.73,4.08,5.59,5.87,6.69,6.44,15.79,13.43,22.44,18.54ZM202.57,662.25c1.05,1.15.85,4.57-.79,13.55-.81,4.43-1.82,9.94-1.96,15.17-.01.45-.29.84-.71.99-.13.04-.26.07-.38.07-.3,0-.59-.12-.81-.35-5.65-6.15-11.83-12.18-18.49-11.43-.36.03-.73-.11-.96-.39-.23-.28-.31-.66-.2-1.02,3.17-10.24,7.81-30.08,3.4-47.79-.11-.45.07-.91.45-1.17.39-.25.89-.25,1.26.03l3.24,2.39c.22.16.37.4.43.68,2.91,15.49,11.43,24.8,15.53,29.27ZM492.98,756.72c-9.93,6.21-20.14,22.69-29.54,37.89-6.19,10.01-12.58,20.29-17.32,24.67-9.73,8.98-19.65,13.49-29.61,13.49-4.32,0-8.65-.85-12.98-2.55-.42-.17-.7-.58-.69-1.03,0-.46.3-.86.72-1.01,26.21-9.32,36.27-39.18,42.28-57.02,1.95-5.81,3.63-10.79,5.07-12.53,3.64-4.42,11.98-9.45,21.67-10.03,7.38-.44,14.25,1.69,20.47,6.31.29.22.45.56.44.92-.02.36-.21.69-.51.88ZM523.07,686.93c3.29,8.9.17,12.61-3.02,14.15-6.51,3.14-20.23,33.68-23.27,49.26-.07.36-.32.67-.66.81-.13.05-.27.08-.4.08-.22,0-.44-.07-.63-.2-6.88-4.9-14.83-7.25-22.75-6.75-2.13.13-4.26.46-6.51,1.01-.44.1-.89-.06-1.15-.43-4.6-6.46-4.23-12.49,1.08-17.45,1.58-1.47,4.95-4.06,8.85-7.07,6.67-5.12,15.76-12.11,22.46-18.56,1.87-1.8,3.77-3.88,5.61-5.9,8.33-9.14,13.82-14.36,20.05-9.42.16.12.28.29.35.48ZM520.26,678.85c.11.35.03.73-.2,1.02-.23.28-.63.43-.95.39-6.8-.7-12.88,5.29-18.58,11.49-.21.23-.51.35-.81.35-.13,0-.26-.02-.38-.07-.42-.16-.7-.55-.71-.99-.11-5.06-1-10.3-1.9-15.24-1.64-8.99-1.84-12.4-.8-13.55,4.1-4.48,12.63-13.78,15.54-29.27.05-.27.2-.51.43-.68l3.27-2.41c.37-.27.88-.28,1.25-.03.38.26.56.73.45,1.17-4.46,17.71.21,37.56,3.39,47.81ZM525.1,617.18c-1.76,1.34-4.18,3.1-7,5.16l-.55.41c-9.94,7.26-24.94,18.2-34.05,26.68-6.45,6-18.89,7.45-32.05,8.98-11.04,1.28-22.44,2.61-31.94,6.7-21.03,9.07-37.29,15.02-70.25,15.02s-49.22-5.95-70.25-15.02c-9.5-4.1-20.91-5.42-31.93-6.7-13.17-1.53-25.61-2.97-32.06-8.98-9.1-8.47-24.1-19.42-34.02-26.66l-.46-.33c-2.96-2.15-5.37-3.92-7.14-5.26-4.27-3.23-7.43-9.78-10.91-22.6-.11-.4.02-.84.34-1.11.32-.27.77-.34,1.15-.17,14.48,6.4,26.82,9.52,37.76,9.52,15.63,0,26.94-5.33,37.81-17.82,2.07-2.38,51.42-58.27,109.7-58.27s107.63,55.89,109.7,58.27c10.88,12.49,22.19,17.81,37.81,17.81,10.93,0,23.27-3.11,37.74-9.51.39-.17.83-.11,1.15.17.32.27.45.71.34,1.11-2.4,8.91-5.58,18.57-10.9,22.59ZM573.94,762.95c-3.31,6.58-13.08,12.24-24.39,18.79-16.83,9.76-37.75,21.87-46.84,43.01-.17.41-.57.66-1,.66-.07,0-.14,0-.22-.02-.51-.1-.87-.55-.87-1.06-.2-32.43,17.39-57.3,34.85-65.09,2.19-.98,5.26-1.48,9.11-1.48,6.15,0,13.38,1.22,19.76,2.29,3.42.57,6.27,1.05,8.75,1.32.36.04.67.25.84.56.17.31.17.69.02,1.01ZM613.41,688.86l-2.02,3.65c-6.71,12.11-19.22,34.66-18.96,46.23.26,11.78-7.48,18.22-15.26,18.5-.17,0-.35,0-.52,0-2.67,0-6.62-.67-10.79-1.37l-.92-.15c-1.9-.32-3.9-.65-5.93-.96-.43-.07-.79-.39-.89-.82-.72-2.97-1.93-5.42-3.2-7.88-2.68-5.19-5-9.66-.93-19.05.13-.29.37-.51.68-.61,11.16-3.48,38.61-23.12,40.24-38.8.05-.43.34-.79.75-.92,8.36-2.7,13.77-2.44,17.51.83.39.34.49.89.24,1.34ZM603.79,666.07c4.65,1.75,8.42,5.58,10.36,10.51.63,1.59,1,3.22,1.12,4.86.03.4-.17.79-.51,1-.35.21-.78.22-1.12.02-8.38-4.81-20.16.08-30.56,4.39-7.03,2.93-13.19,5.34-17.62,5.34-.59,0-1.06-.44-1.1-1.01-.44-5.64-2.05-10.58-4.4-13.55-.29-.37-.32-.88-.06-1.27,2.87-4.38,12.86-7.77,18.88-8.98,1.18-.24,1.94-1.39,1.71-2.57-.11-.56-.45-1.05-.95-1.38-.49-.32-1.07-.44-1.61-.33-.89.17-8.8,1.81-15.13,5.35-.46.26-1.06.14-1.39-.28-2.74-3.47-7.03-7.58-10.82-11.21-3.6-3.46-7.01-6.72-9.04-9.25-6.14-7.62-6.39-17.08-6.75-31.41l-.12-4.51c0-.17.03-.35.11-.5.26-.53.51-1.08.77-1.66.17-.4.57-.65,1-.65.44,0,.83.26,1,.66,14.14,32.74,47.57,49.41,66.24,56.42ZM541.68,596.71c-.11.03-.21.05-.32.05-.28,0-.55-.11-.76-.31-.29-.27-.4-.68-.29-1.07.42-1.58.85-3.22,1.28-4.94.08-.31.29-.57.58-.71,1.5-.73,2.96-1.47,4.37-2.19,3.25-1.67,6.03-3.85,8.26-6.5.12-.14.26-.24.43-.31,15.18-6.03,27.19-15.6,36.84-23.29,14.11-11.25,22.53-17.37,31.13-12.21.17.1.31.24.4.41,2.54,4.63,5.1,10.35,3.27,19.63-.05.23-.17.45-.35.61-15.03,13.36-38.82,19.16-61.84,24.77-8.06,1.97-15.9,3.91-23,6.08ZM642.81,642.88c-.14.35-.45.59-.81.66-1.96.36-3.86.54-5.7.54-4.57,0-8.72-1.12-12.38-3.36-6.65-4.06-11.37-11.59-12.94-20.65-.2-1.18-1.35-1.97-2.53-1.78-.56.1-1.06.41-1.4.89-.34.48-.46,1.05-.36,1.62.82,4.75,2.52,9.35,4.93,13.31.2.34.21.76.02,1.1s-.56.56-.95.56h-.52c-24.91,0-48.13-15.48-63.22-28.48-.37-.32-.49-.85-.27-1.3.21-.44.71-.69,1.18-.6,18.95,3.55,37.14,3.62,52.61.21,8.15-1.79,14.67-2.67,20.08-2.56.54,0,1,.41,1.07.95,1.41,10.62,9.86,22.29,17.31,32.6l.38.52c1.15,1.6,2.29,3.18,3.39,4.73.21.3.26.7.12,1.04ZM656.75,661.3c0-.21-.02-.43-.03-.64-.4-7.46-7.14-16.77-14.27-26.63-6.39-8.83-14.33-19.79-16.26-29.01-.07-.36.04-.73.3-.99.26-.26.63-.36.99-.3,5.51,1.15,9.8,3.71,13.51,8.07l1.16,1.37c9.3,10.93,23.36,27.44,38.24,41.33.12.12.22.26.28.43,4.59,12.77,3.53,26.71-2.92,38.25-.19.35-.56.56-.95.56-18.35-.75-19.18-16.13-20.05-32.42ZM641.27,760.74c-20.33,21.23-39.23,42.02-47.04,62.96-.16.43-.58.71-1.02.71-.71-.11-1.09-.56-1.09-1.08-.18-25.44,11.58-52.29,19.44-58.88,4.96-4.17,9.58-4.33,16.56-4.57,3.52-.12,7.51-.26,12.2-.97.46-.06.92.16,1.13.57.22.41.15.92-.18,1.26ZM692.21,696.64c-6.04,17.46-25.54,37.71-42.74,55.58-.13.14-.29.24-.47.29-3.84,1.14-7.46,1.89-11.4,2.36-.49,0-.83-.17-1.03-.46-3.75-5.44-8.93-9.93-12.53-12.31-.42-.28-.6-.81-.42-1.29,3.73-10.08,12.39-13.84,23.35-18.6,7.86-3.41,16.78-7.28,24.59-14.35,11.34-10.25,17.24-24.95,16.18-40.34-.04-.52.3-.99.8-1.13.52-.13,1.03.1,1.27.56,4.77,9.5,5.65,20.32,2.41,29.68Z"/><path class="cls-1" d="M297.11,153.92c.78.77,2.31.77,3.08,0l15.7-15.7c.43-.43,1.12-.43,1.54,0l29.32,29.32c.2.2.32.48.32.77v74.8c0,.29-.12.57-.32.77l-133.49,133.48c-.85.85-.85,2.23,0,3.08.85.85,2.23.85,3.08,0l132.13-132.13c.21-.21.49-.32.77-.32s.56.11.77.32l132.13,132.13c.83.82,2.26.82,3.08,0,.85-.85.85-2.23,0-3.08l-133.49-133.48c-.2-.2-.32-.48-.32-.77v-74.8c0-.29.11-.57.32-.77l29.32-29.32c.43-.43,1.12-.43,1.54,0l15.7,15.7c.78.77,2.31.77,3.08,0l36.03-36.03c.41-.41.64-.96.64-1.54s-.23-1.13-.64-1.54l-36.03-36.03c-.85-.85-2.23-.85-3.08,0l-15.7,15.7c-.43.43-1.12.43-1.54,0l-29.32-29.32c-.2-.2-.32-.48-.32-.77V10.02c0-.44.26-.84.67-1.01.41-.17.87-.08,1.19.24l45.02,45.02c.78.77,2.31.77,3.08,0,.85-.85.85-2.23,0-3.08L350.8.58c-.78-.77-2.31-.77-3.08,0l-50.61,50.61c-.85.85-.85,2.23,0,3.08.85.85,2.23.85,3.08,0l45.02-45.02c.32-.31.78-.41,1.19-.24.41.17.67.57.67,1.01v54.37c0,.29-.12.57-.32.77l-29.32,29.32c-.43.43-1.12.43-1.54,0l-15.7-15.7c-.85-.85-2.23-.85-3.08,0l-36.03,36.03c-.41.41-.64.96-.64,1.54s.23,1.13.64,1.54l36.03,36.03ZM385.71,97.56l13.39-13.39c.43-.43,1.12-.43,1.54,0l31.41,31.41c.2.2.32.48.32.77s-.11.57-.32.77l-31.41,31.41c-.21.21-.49.32-.77.32s-.56-.11-.77-.32l-13.39-13.39c-.2-.2-.32-.48-.32-.77s.11-.57.32-.77l15.7-15.7c.85-.85.85-2.23,0-3.08l-15.7-15.7c-.43-.43-.43-1.12,0-1.54ZM382.62,102.19l13.39,13.39c.43.43.43,1.12,0,1.54l-13.39,13.39c-.21.21-.49.32-.77.32s-.56-.11-.77-.32l-13.39-13.39c-.43-.43-.43-1.12,0-1.54l13.39-13.39c.43-.43,1.12-.43,1.54,0ZM320.52,97.56l27.97-27.97c.43-.43,1.12-.43,1.54,0l27.97,27.97c.43.43.43,1.12,0,1.54l-15.7,15.7c-.41.41-.64.96-.64,1.54s.23,1.13.64,1.54l15.7,15.7c.43.43.43,1.12,0,1.54l-27.97,27.97c-.21.21-.49.32-.77.32s-.56-.11-.77-.32l-27.97-27.97c-.43-.43-.43-1.12,0-1.54l15.7-15.7c.41-.41.64-.96.64-1.54s-.23-1.13-.64-1.54l-15.7-15.7c-.43-.43-.43-1.12,0-1.54ZM317.44,102.19l13.39,13.39c.43.43.43,1.12,0,1.54l-13.39,13.39c-.21.21-.49.32-.77.32s-.56-.11-.77-.32l-13.39-13.39c-.43-.43-.43-1.12,0-1.54l13.39-13.39c.43-.43,1.12-.43,1.54,0ZM266.47,115.58l31.41-31.41c.43-.43,1.12-.43,1.54,0l13.39,13.39c.43.43.43,1.12,0,1.54l-15.7,15.7c-.85.85-.85,2.23,0,3.08l15.7,15.7c.2.2.32.48.32.77s-.12.57-.32.77l-13.39,13.39c-.21.21-.49.32-.77.32s-.56-.11-.77-.32l-31.41-31.41c-.2-.2-.32-.48-.32-.77s.11-.57.32-.77Z"/><path class="cls-1" d="M372.15,1017.89l-18.85,18.85c-.32.31-.78.4-1.19.24-.41-.17-.67-.57-.67-1.01v-35.27c0-1.2-.98-2.18-2.18-2.18s-2.18.98-2.18,2.18v35.27c0,.44-.26.84-.67,1.01-.42.17-.88.07-1.19-.24l-18.85-18.85c-.43-.42-.98-.63-1.54-.63s-1.12.21-1.54.64c-.85.85-.85,2.23,0,3.08l24.43,24.44c.2.2.43.36.71.47.55.22,1.12.22,1.68,0,.26-.11.5-.27.71-.47l24.42-24.43c.85-.85.85-2.23,0-3.08-.85-.85-2.23-.85-3.08,0Z"/><path class="cls-1" d="M347.72,282.37l-117.28,117.28c-.85.85-.85,2.23,0,3.08.85.85,2.23.85,3.08,0l114.97-114.96c.21-.21.49-.32.77-.32s.56.11.77.32l114.97,114.96c.83.82,2.26.82,3.08,0,.85-.85.85-2.23,0-3.08l-117.28-117.28c-.85-.85-2.23-.85-3.08,0Z"/><path class="cls-1" d="M366.41,974.08c.57-.11,1.06-.45,1.38-.93.33-.49.44-1.07.32-1.64-.23-1.17-1.4-1.91-2.59-1.71-8.31,1.69-17.07,2.07-26.03,1.16-16.29-1.66-31.15-7.45-41.85-16.3-.4-.32-.51-.88-.28-1.33.23-.46.72-.69,1.24-.56,1.25.32,2.53.55,3.82.68,14.77,1.47,27.88-9.26,29.38-23.94,1.5-14.7-9.24-27.88-23.94-29.38-.94-.1-1.87-.14-2.8-.14-6.09,0-11.97,2.08-16.79,6-5.58,4.54-9.06,10.96-9.79,18.08-.11,1.05-.14,2.17-.1,3.53.3,23.32,26.94,44.27,60.65,47.71,9.36.95,18.63.54,27.36-1.22ZM282.83,924.51c1.25-12.25,12.1-21.32,24.6-20.04,12.3,1.26,21.3,12.29,20.05,24.59-.61,5.97-3.51,11.34-8.17,15.13-4.04,3.28-8.97,5.03-14.09,5.03-.78,0-1.56-.04-2.34-.12-12.31-1.26-21.3-12.29-20.05-24.6Z"/><path class="cls-1" d="M359.47,878.49c-9.39-.97-18.59-.55-27.36,1.22-.57.12-1.06.45-1.38.93-.33.49-.44,1.07-.32,1.64.11.58.45,1.07.93,1.39.5.33,1.06.45,1.64.32,8.33-1.69,17.09-2.09,26.05-1.16,16.29,1.66,31.15,7.45,41.85,16.3.4.32.51.88.28,1.33-.23.45-.72.69-1.24.56-1.25-.32-2.53-.55-3.82-.68-.93-.1-1.86-.14-2.78-.14-6.11,0-12,2.09-16.83,6.02-5.57,4.53-9.04,10.95-9.76,18.06-1.5,14.7,9.24,27.88,23.94,29.38,14.9,1.51,27.89-9.31,29.38-23.94.11-1.05.14-2.17.1-3.53-.3-23.32-26.94-44.27-60.65-47.71ZM415.68,929.29c-1.18,11.54-10.95,20.16-22.32,20.16-.75,0-1.52-.04-2.28-.12-12.3-1.26-21.3-12.29-20.04-24.6.61-5.95,3.48-11.31,8.08-15.09,4.64-3.81,10.51-5.57,16.52-4.95,12.3,1.25,21.3,12.29,20.04,24.6Z"/><path class="cls-1" d="M234.77,688.65c-.41.41-.64.96-.64,1.54s.23,1.13.64,1.54l111.99,111.99c.2.2.32.48.32.77v46.18c0,1.2.98,2.18,2.18,2.18s2.18-.98,2.18-2.18v-46.18c0-.29.11-.57.32-.77l111.99-111.99c.41-.41.64-.96.64-1.54s-.23-1.13-.64-1.54c-.85-.85-2.23-.85-3.08,0l-110.63,110.63c-.43.43-1.12.43-1.54,0l-110.63-110.63c-.85-.85-2.23-.85-3.08,0Z"/><path class="cls-1" d="M350.8,765.23l68.92-68.92c.85-.85.85-2.23,0-3.08-.85-.85-2.23-.85-3.08,0l-66.61,66.61c-.41.41-1.13.41-1.54,0l-66.61-66.61c-.43-.42-.98-.63-1.54-.63s-1.12.21-1.54.64c-.85.85-.85,2.23,0,3.08l68.92,68.92c.83.82,2.26.82,3.08,0Z"/><path class="cls-1" d="M47.61,118.43l22.88,7.13c.38.12.66.43.75.82l7.06,34.21c.2,1.01,1.1,1.74,2.13,1.74s1.93-.73,2.13-1.74l7.06-34.21c.08-.39.37-.7.75-.82l22.88-7.13c.92-.29,1.53-1.12,1.53-2.08s-.62-1.8-1.53-2.08l-22.88-7.13c-.38-.12-.66-.43-.75-.82l-7.06-34.21c-.2-1.01-1.1-1.74-2.13-1.74s-1.93.73-2.13,1.74l-7.06,34.21c-.08.39-.37.7-.75.82l-22.88,7.13c-.92.29-1.53,1.12-1.53,2.08s.62,1.8,1.53,2.08ZM58.94,115.31l14.69-4.58c.76-.24,1.33-.86,1.49-1.64l4.24-20.56c.21-1.01,1.93-1.01,2.14,0l4.24,20.56c.16.78.73,1.41,1.49,1.64l14.69,4.58c.46.14.77.56.77,1.04s-.31.9-.77,1.04l-14.69,4.58c-.76.24-1.33.86-1.49,1.64l-4.24,20.56c-.11.51-.55.87-1.07.87s-.96-.36-1.07-.87l-4.24-20.56c-.16-.78-.73-1.41-1.49-1.64l-14.69-4.58c-.46-.14-.77-.56-.77-1.04s.31-.9.77-1.04Z"/><path class="cls-1" d="M179.77,67.92h6.39c.6,0,1.09.49,1.09,1.09v9.4c0,1.2.98,2.18,2.18,2.18s2.18-.98,2.18-2.18v-9.4c0-.6.49-1.09,1.09-1.09h6.39c1.2,0,2.18-.98,2.18-2.18s-.98-2.18-2.18-2.18h-6.39c-.6,0-1.09-.49-1.09-1.09v-9.4c0-1.2-.98-2.18-2.18-2.18s-2.18.98-2.18,2.18v9.4c0,.6-.49,1.09-1.09,1.09h-6.39c-1.2,0-2.18.98-2.18,2.18s.98,2.18,2.18,2.18Z"/><path class="cls-1" d="M15.5,239.49h6.38c.6,0,1.09.49,1.09,1.09v9.4c0,1.2.98,2.18,2.18,2.18s2.18-.98,2.18-2.18v-9.4c0-.6.49-1.09,1.09-1.09h6.39c1.2,0,2.18-.98,2.18-2.18s-.98-2.18-2.18-2.18h-6.39c-.6,0-1.09-.49-1.09-1.09v-9.4c0-1.2-.98-2.18-2.18-2.18s-2.18.98-2.18,2.18v9.4c0,.6-.49,1.09-1.09,1.09h-6.38c-1.2,0-2.18.98-2.18,2.18s.98,2.18,2.18,2.18Z"/><path class="cls-1" d="M585.27,118.43l22.88,7.13c.38.12.66.43.75.82l7.06,34.21c.2,1.01,1.1,1.74,2.13,1.74s1.93-.73,2.13-1.74l7.06-34.21c.08-.39.37-.7.75-.82l22.88-7.13c.92-.29,1.53-1.12,1.53-2.08s-.62-1.8-1.53-2.08l-22.88-7.13c-.38-.12-.66-.43-.75-.82l-7.06-34.21c-.2-1.01-1.1-1.74-2.13-1.74s-1.93.73-2.13,1.74l-7.06,34.21c-.08.39-.37.7-.75.82l-22.88,7.13c-.92.29-1.53,1.12-1.53,2.08s.62,1.8,1.53,2.08ZM596.6,115.31l14.69-4.58c.76-.24,1.33-.86,1.49-1.64l4.24-20.56c.21-1.01,1.93-1.01,2.14,0l4.24,20.56c.16.78.73,1.41,1.49,1.64l14.69,4.58c.46.14.77.56.77,1.04s-.31.9-.77,1.04l-14.69,4.58c-.76.24-1.33.86-1.49,1.64l-4.24,20.56c-.11.51-.55.87-1.07.87s-.96-.36-1.07-.87l-4.24-20.56c-.16-.78-.73-1.41-1.49-1.64l-14.69-4.58c-.46-.14-.77-.56-.77-1.04s.31-.9.77-1.04Z"/><path class="cls-1" d="M499.43,67.92h6.39c.6,0,1.09.49,1.09,1.09v9.4c0,1.2.98,2.18,2.18,2.18s2.18-.98,2.18-2.18v-9.4c0-.6.49-1.09,1.09-1.09h6.39c1.2,0,2.18-.98,2.18-2.18s-.98-2.18-2.18-2.18h-6.39c-.6,0-1.09-.49-1.09-1.09v-9.4c0-1.2-.98-2.18-2.18-2.18s-2.18.98-2.18,2.18v9.4c0,.6-.49,1.09-1.09,1.09h-6.39c-1.2,0-2.18.98-2.18,2.18s.98,2.18,2.18,2.18Z"/><path class="cls-1" d="M663.7,239.49h6.39c.6,0,1.09.49,1.09,1.09v9.4c0,1.2.98,2.18,2.18,2.18s2.18-.98,2.18-2.18v-9.4c0-.6.49-1.09,1.09-1.09h6.38c1.2,0,2.18-.98,2.18-2.18s-.98-2.18-2.18-2.18h-6.38c-.6,0-1.09-.49-1.09-1.09v-9.4c0-1.2-.98-2.18-2.18-2.18s-2.18.98-2.18,2.18v9.4c0,.6-.49,1.09-1.09,1.09h-6.39c-1.2,0-2.18.98-2.18,2.18s.98,2.18,2.18,2.18Z"/><path class="cls-1" d="M564.95,917.91l-28.25-18.5c-.72-.46-1.67-.47-2.39,0l-26.45,17.32c-.36.24-.84.24-1.19,0l-26.45-17.33c-.73-.47-1.67-.47-2.39,0l-28.24,18.49c-1,.66-1.28,2.02-.62,3.02.66,1,2.01,1.29,3.02.63l26.44-17.32c.36-.24.84-.24,1.19,0l26.45,17.33c.72.46,1.66.46,2.39,0l26.44-17.32c.18-.12.39-.18.6-.18s.42.06.6.18l26.45,17.33c.96.63,2.37.34,3.02-.63.66-1.01.38-2.36-.63-3.02Z"/><path class="cls-1" d="M564.95,942.46l-28.24-18.5c-.72-.46-1.67-.47-2.39,0l-26.45,17.32c-.36.24-.84.24-1.19,0l-26.45-17.33c-.73-.47-1.67-.47-2.39,0l-28.24,18.49c-1,.66-1.28,2.02-.62,3.02.66,1,2.01,1.29,3.02.63l26.44-17.32c.36-.24.84-.24,1.19,0l26.45,17.33c.72.46,1.66.47,2.39,0l26.44-17.32c.18-.12.39-.18.6-.18s.42.06.6.18l26.45,17.33c.96.63,2.37.34,3.02-.63.66-1.01.37-2.36-.63-3.02Z"/><path class="cls-1" d="M135.96,921.56l26.45-17.32c.36-.24.84-.24,1.19,0l26.45,17.33c.73.46,1.67.46,2.39,0l26.44-17.32c.36-.24.84-.24,1.19,0l26.44,17.33c1.01.65,2.36.36,3.02-.63.66-1,.37-2.36-.63-3.02l-28.24-18.5c-.73-.47-1.67-.47-2.39,0l-26.44,17.32c-.36.24-.84.24-1.19,0l-26.45-17.33c-.36-.23-.78-.35-1.19-.35s-.84.12-1.21.36l-28.24,18.49c-1,.66-1.28,2.02-.62,3.02.63.98,2.04,1.26,3.02.63Z"/><path class="cls-1" d="M248.92,942.46l-28.24-18.5c-.73-.47-1.67-.47-2.39,0l-26.44,17.32c-.36.24-.84.24-1.19,0l-26.45-17.33c-.36-.23-.78-.35-1.19-.35s-.84.12-1.21.36l-28.24,18.49c-1,.66-1.28,2.02-.62,3.02.63.98,2.04,1.26,3.02.63l26.45-17.32c.36-.24.84-.24,1.19,0l26.45,17.33c.72.46,1.66.47,2.39,0l26.44-17.32c.36-.24.84-.24,1.19,0l26.44,17.33c1.01.65,2.36.36,3.02-.63.66-1,.37-2.36-.63-3.02Z"/><path class="cls-1" d="M34.82,857.67h-6.39c-.6,0-1.09-.49-1.09-1.09v-9.4c0-1.2-.98-2.18-2.18-2.18s-2.18.98-2.18,2.18v9.4c0,.6-.49,1.09-1.09,1.09h-6.38c-1.2,0-2.18.98-2.18,2.18s.98,2.18,2.18,2.18h6.38c.6,0,1.09.49,1.09,1.09v9.4c0,1.2.98,2.18,2.18,2.18s2.18-.98,2.18-2.18v-9.4c0-.6.49-1.09,1.09-1.09h6.39c1.2,0,2.18-.98,2.18-2.18s-.98-2.18-2.18-2.18Z"/><path class="cls-1" d="M683.01,857.67h-6.38c-.6,0-1.09-.49-1.09-1.09v-9.4c0-1.2-.98-2.18-2.18-2.18s-2.18.98-2.18,2.18v9.4c0,.6-.49,1.09-1.09,1.09h-6.39c-1.2,0-2.18.98-2.18,2.18s.98,2.18,2.18,2.18h6.39c.6,0,1.09.49,1.09,1.09v9.4c0,1.2.98,2.18,2.18,2.18s2.18-.98,2.18-2.18v-9.4c0-.6.49-1.09,1.09-1.09h6.38c1.2,0,2.18-.98,2.18-2.18s-.98-2.18-2.18-2.18Z"/></g></svg>