<?xml version="1.0" encoding="UTF-8"?><svg id="Layer_2" xmlns="http://www.w3.org/2000/svg" viewBox="0 0 117.43 139.92"><defs><style>.cls-1{fill:#e3cda2;}</style></defs><g id="graphics2"><path class="cls-1" d="M89.92,84.91c-6.62,0-12.7,2.35-17.45,6.26V27.51c0-15.17-12.34-27.51-27.51-27.51-9.28,0-17.49,4.62-22.48,11.68C17.49,4.62,9.28,0,0,0v10.06c9.62,0,17.45,7.83,17.45,17.45h0v84.91h10.06V27.51c0-9.62,7.83-17.45,17.45-17.45s17.45,7.83,17.45,17.45v84.91c0,9.62-7.83,17.45-17.45,17.45v10.06c9.28,0,17.49-4.62,22.48-11.68,4.98,7.06,13.2,11.68,22.48,11.68,15.17,0,27.51-12.34,27.51-27.51s-12.34-27.51-27.51-27.51ZM89.92,129.86c-9.62,0-17.45-7.83-17.45-17.45s7.83-17.45,17.45-17.45,17.45,7.83,17.45,17.45-7.83,17.45-17.45,17.45Z"/></g></svg>