<?xml version="1.0" encoding="UTF-8"?><svg id="Layer_2" xmlns="http://www.w3.org/2000/svg" viewBox="0 0 698.52 943.82"><defs><style>.cls-1{fill:#58365f;}</style></defs><g id="graphics"><path class="cls-1" d="M262.91,396.91c2.37-3.35,6.43-5.54,10.62-5.72.52-.02,1.01-.25,1.36-.63.35-.39.54-.89.51-1.41-.02-.57-.28-1.09-.7-1.45-.34-.29-.73-.44-1.14-.44-5.6.26-10.82,3.08-13.86,7.39-.3.43-.42.95-.33,1.47.09.52.37.97.8,1.27.85.6,2.14.38,2.74-.46Z"/><path class="cls-1" d="M282.78,408.75c3.99-2.3,8.89-2.99,13.42-1.9,1.06.25,2.1-.4,2.35-1.45.26-1.06-.39-2.12-1.44-2.38-1.7-.42-3.45-.62-5.2-.62-3.87,0-7.73,1-11.09,2.94-.45.26-.78.69-.92,1.19-.13.5-.07,1.03.2,1.48.52.91,1.76,1.25,2.69.73Z"/><path class="cls-1" d="M288.11,374.08c3.49-1.33,7.24-1.99,10.98-1.99s7.64.69,11.21,2.07c1,.4,2.17-.14,2.55-1.11.19-.49.18-1.02-.03-1.51-.21-.48-.6-.85-1.09-1.04-7.94-3.08-17.06-3.12-25.02-.09-1.01.39-1.52,1.52-1.14,2.54.38,1.01,1.51,1.52,2.54,1.14Z"/><path class="cls-1" d="M303.76,393.71c-.03,1.08.83,1.99,1.91,2.02,6.04.16,12.01,2.57,16.38,6.62.76.71,2.06.66,2.77-.11.74-.79.69-2.04-.11-2.78-5.05-4.68-11.97-7.48-18.97-7.66-1.01,0-1.95.9-1.98,1.91Z"/><path class="cls-1" d="M315.95,416.24c-.24-.1-.49-.15-.74-.15-.77,0-1.51.46-1.83,1.22-.41,1,.07,2.15,1.08,2.56,4.65,1.91,8.42,5.81,10.07,10.44.35.99,1.46,1.57,2.52,1.19.49-.17.89-.53,1.11-1.01.22-.48.25-1.01.07-1.5-2.02-5.65-6.61-10.42-12.28-12.76Z"/><path class="cls-1" d="M329.26,384.79c3.66,1.39,9.32,5.69,12.09,10.24.55.9,1.8,1.21,2.7.66.45-.27.76-.7.89-1.21.12-.51.04-1.04-.23-1.48-3.36-5.53-9.76-10.25-14.06-11.88-1.01-.37-2.14.14-2.52,1.14-.38,1.01.13,2.15,1.14,2.54Z"/><path class="cls-1" d="M339.8,415.96c-.85-.66-2.09-.49-2.76.36-.32.41-.46.93-.39,1.45.07.52.33.98.74,1.3,4.28,3.31,7.61,7.89,9.4,12.89.33.93,1.49,2.08,2.47,2.09,1.03,0,2.14-1.18,2.47-2.09,1.78-5,5.12-9.58,9.39-12.89.41-.32.68-.78.75-1.31.07-.52-.07-1.03-.4-1.45-.66-.86-1.9-1.01-2.76-.35-3.45,2.67-6.43,6.19-8.59,10.18-.35.64-1.38.64-1.73,0-2.17-3.99-5.14-7.51-8.59-10.19Z"/><path class="cls-1" d="M424.99,391.19c4.18.19,8.25,2.38,10.62,5.72.6.84,1.85,1.08,2.75.46.87-.62,1.08-1.85.46-2.73-3.05-4.31-8.26-7.13-13.59-7.37-.64,0-1.07.15-1.41.44-.42.36-.67.88-.7,1.43-.02.53.16,1.03.51,1.42.35.39.84.61,1.36.63Z"/><path class="cls-1" d="M401.41,403.03c-1.05.26-1.7,1.32-1.44,2.37.25,1.04,1.28,1.67,2.4,1.45,1.39-.34,2.83-.51,4.26-.51,3.18,0,6.36.82,9.12,2.41.91.53,2.16.18,2.68-.72.26-.46.33-.99.2-1.5-.13-.5-.46-.92-.92-1.19-4.85-2.8-10.79-3.64-16.29-2.31Z"/><path class="cls-1" d="M388.21,374.16c7.04-2.74,15.13-2.77,22.21-.07,1,.36,2.14-.15,2.52-1.14.19-.49.17-1.02-.04-1.5-.22-.48-.6-.85-1.09-1.04-3.95-1.5-8.17-2.24-12.4-2.24s-8.62.78-12.62,2.34c-.49.19-.87.56-1.09,1.04-.21.48-.22,1.02-.03,1.51.38.97,1.56,1.5,2.54,1.12Z"/><path class="cls-1" d="M376.47,402.35c4.36-4.04,10.33-6.46,16.37-6.62,1.08-.03,1.94-.94,1.91-2.02-.03-1.11-1.07-1.88-2.04-1.91-6.98.19-13.87,2.98-18.92,7.67-.79.74-.84,1.98-.11,2.77.71.76,2.02.82,2.78.11Z"/><path class="cls-1" d="M370.36,430.49c.22.47.62.83,1.12,1.01,1.01.35,2.16-.2,2.5-1.19,1.65-4.63,5.42-8.53,10.08-10.44,1-.41,1.48-1.57,1.07-2.57-.41-.99-1.56-1.47-2.57-1.07-5.67,2.34-10.26,7.11-12.27,12.75-.18.49-.15,1.03.07,1.5Z"/><path class="cls-1" d="M354.47,395.69c.92.56,2.16.24,2.7-.66,2.77-4.55,8.44-8.86,12.1-10.24,1.01-.39,1.52-1.53,1.14-2.54-.38-1.01-1.52-1.52-2.54-1.14-4.3,1.63-10.68,6.34-14.05,11.87-.27.45-.35.97-.23,1.48.12.51.44.94.89,1.22Z"/><path class="cls-1" d="M360.45,449.57c-.93-.56-2.14-.26-2.69.68-.28.47-.58,1-.89,1.57-1.85,3.39-4.01,7.35-7.61,7.35s-5.76-3.96-7.49-7.15c-.39-.71-.7-1.28-1-1.78-.27-.45-.7-.76-1.21-.89-.16-.04-.32-.06-.48-.06-.35,0-.7.1-1.01.28-.45.27-.77.7-.89,1.21-.13.51-.05,1.04.22,1.48.25.42.5.89.83,1.48,1.97,3.61,5.11,9.36,11.03,9.36s8.98-5.6,11-9.3l.12-.22c.26-.47.5-.91.74-1.3.27-.45.35-.98.23-1.48-.13-.51-.44-.94-.9-1.22Z"/><path class="cls-1" d="M416.82,270.96c10.55,1.9,23,5.26,37.01,9.97,1.01.34,2.15-.23,2.48-1.24.17-.5.13-1.03-.1-1.5-.23-.46-.64-.81-1.14-.99-14.19-4.77-26.83-8.18-37.57-10.12-1.05-.17-2.07.52-2.26,1.59-.09.52.02,1.04.32,1.47.3.43.75.72,1.26.81Z"/><path class="cls-1" d="M449.81,296.09c-5.61-2.19-11.41-3.98-17.24-5.34-.16-.04-.31-.05-.46-.05-.35,0-.7.1-1,.28-.45.28-.77.72-.89,1.24-.12.51-.03,1.04.24,1.48.28.45.71.76,1.22.87,5.63,1.31,11.25,3.05,16.7,5.17.98.39,2.16-.13,2.55-1.11.39-1.01-.11-2.15-1.12-2.54Z"/><path class="cls-1" d="M436.91,230.08c6.73.89,11.34,2.47,17.17,4.49l3.41,1.17c1.02.34,2.14-.24,2.48-1.24.17-.5.13-1.03-.1-1.5-.23-.47-.63-.82-1.13-.98l-3.38-1.16c-6.05-2.09-10.83-3.73-17.93-4.67-.53-.09-1.03.04-1.46.36-.42.32-.69.79-.76,1.32-.07.52.07,1.04.39,1.45.32.42.78.69,1.3.76Z"/><path class="cls-1" d="M510.82,129.78s8.91,1.9,8.91,1.9c.12.02.26.04.39.04.92,0,1.73-.66,1.92-1.56.22-1.06-.45-2.1-1.51-2.33l-8.91-1.9c-.13-.02-.26-.03-.38-.03-.92,0-1.73.63-1.93,1.56-.22,1.06.45,2.1,1.51,2.33Z"/><path class="cls-1" d="M560.74,195.18c-1.54-.07-3.1-.59-4.39-1.45-.33-.22-.71-.33-1.08-.33-.63,0-1.26.31-1.64.87-.29.43-.4.96-.3,1.47.1.51.4.96.84,1.25,1.9,1.27,4.15,2,6.52,2.1,1.01,0,1.87-.82,1.92-1.87.05-1.08-.79-2-1.87-2.05Z"/><path class="cls-1" d="M587.56,123.69l-4.8-1.96c-.24-.1-.49-.14-.73-.14-.78,0-1.51.46-1.82,1.22-.41,1,.07,2.15,1.07,2.56l4.8,1.96c.97.4,2.16-.1,2.56-1.07.41-1.01-.07-2.15-1.08-2.56Z"/><path class="cls-1" d="M242.3,278.19c-.23.47-.27,1.01-.1,1.5.33,1,1.45,1.57,2.49,1.24,13.99-4.71,26.44-8.06,37-9.97.52-.09.97-.38,1.27-.81.3-.43.41-.96.32-1.47-.17-.94-1.02-1.6-1.97-1.6-.11,0-.22,0-.33.03-10.71,1.93-23.35,5.34-37.54,10.11-.5.17-.9.52-1.13.99Z"/><path class="cls-1" d="M267.41,290.98c-.31-.19-.66-.29-1.01-.29-.15,0-.3.02-.45.05-5.85,1.36-11.64,3.16-17.25,5.34-1.01.39-1.51,1.53-1.12,2.54.39.98,1.55,1.49,2.55,1.11,5.44-2.12,11.06-3.86,16.7-5.17.51-.12.95-.43,1.22-.87.28-.45.36-.97.25-1.48-.12-.52-.44-.96-.89-1.24Z"/><path class="cls-1" d="M238.64,233c-.23.47-.27,1.01-.1,1.5.34.99,1.37,1.6,2.5,1.23,7.54-2.54,13.66-4.04,20.52-5.51,1.06-.23,1.73-1.28,1.51-2.33-.2-.92-1.03-1.55-1.95-1.55-.13,0-.26.01-.4.04-6.98,1.5-13.21,3.03-20.95,5.63-.49.17-.9.52-1.13.99Z"/><path class="cls-1" d="M176.59,129.77c-.21.48-.21,1.02-.01,1.51.4.99,1.62,1.47,2.55,1.08,2.55-1.03,6.88-2.16,8.62-2.59,1.06-.26,1.71-1.33,1.45-2.38-.25-1.03-1.31-1.68-2.38-1.44-.29.07-5.9,1.45-9.16,2.77-.49.2-.86.57-1.07,1.05Z"/><path class="cls-1" d="M108.13,137.05c-.22.48-.23,1.01-.05,1.5.37.99,1.58,1.5,2.53,1.15l8.8-3.32c.49-.18.88-.55,1.1-1.02.22-.48.23-1.01.05-1.5-.19-.5-.55-.89-1.03-1.1-.26-.11-.53-.18-.81-.18-.23,0-.46.04-.68.13l-8.81,3.32c-.49.18-.88.55-1.1,1.02Z"/><path class="cls-1" d="M396.2,862.61c-.35-.61-1-.98-1.7-.98h-90.45c-.7,0-1.35.38-1.7.98-.35.61-.35,1.36,0,1.96l45.22,78.33c.7,1.21,2.7,1.21,3.4,0l45.22-78.33c.35-.61.35-1.36,0-1.96ZM326.66,897.85c-.35,0-.68-.19-.85-.49l-17.51-30.33c-.18-.3-.18-.68,0-.98.17-.3.5-.49.85-.49h35.02c.35,0,.68.19.85.49.18.3.18.68,0,.98l-17.51,30.33c-.17.3-.5.49-.85.49ZM367.63,906.19l-17.51,30.33c-.17.3-.5.49-.85.49s-.68-.19-.85-.49l-17.51-30.33c-.18-.3-.18-.68,0-.98.17-.3.5-.49.85-.49h35.02c.35,0,.68.19.85.49.18.3.18.68,0,.98ZM367.63,900.3c-.17.3-.5.49-.85.49h-35.02c-.35,0-.68-.19-.85-.49-.18-.3-.18-.68,0-.98l17.51-30.33c.35-.61,1.35-.61,1.7,0l17.51,30.33c.18.3.18.68,0,.98ZM390.24,867.03l-17.51,30.33c-.17.3-.5.49-.85.49s-.68-.19-.85-.49l-17.51-30.33c-.18-.3-.18-.68,0-.98.17-.3.5-.49.85-.49h35.02c.35,0,.68.19.85.49.18.3.18.68,0,.98Z"/><path class="cls-1" d="M347.57,807.3l-22.61,39.16c-.35.61-.35,1.36,0,1.96s1,.98,1.7.98h45.22c.7,0,1.35-.38,1.7-.98s.35-1.36,0-1.96l-22.61-39.16c-.58-.99-2.83-.99-3.4,0ZM367.63,844.99c-.17.3-.5.49-.85.49h-35.02c-.35,0-.68-.19-.85-.49-.18-.3-.18-.68,0-.98l17.51-30.33c.35-.61,1.35-.61,1.7,0l17.51,30.33c.18.3.18.68,0,.98Z"/><path class="cls-1" d="M293.41,889.44c-4.67,0-8.74,2.85-10.38,7.25-.16.41-.58.68-1.01.64-27.05-2.61-51.96-6.72-74.03-12.23-.16-.04-.33-.06-.49-.06-.35,0-.69.1-1,.28-.45.27-.77.7-.9,1.21-.26,1.05.38,2.12,1.43,2.38,22.17,5.53,47.24,9.67,74.52,12.31.45.05.82.4.88.85.74,5.49,5.46,9.64,10.98,9.64,6.14,0,11.13-4.99,11.13-11.13s-4.99-11.13-11.13-11.13ZM293.41,907.77c-3.97,0-7.2-3.23-7.2-7.2s3.23-7.2,7.2-7.2,7.2,3.23,7.2,7.2-3.23,7.2-7.2,7.2Z"/><path class="cls-1" d="M241.37,912.3c-7.78,5.52-17.51,7.37-26.72,5.05-17.35-4.38-27.9-22.05-23.53-39.39,2.12-8.4,7.38-15.48,14.82-19.92,7.44-4.45,16.16-5.73,24.57-3.61,9.2,2.31,16.91,8.54,21.14,17.09.46.94,1.55,1.35,2.5.95.96-.4,1.45-1.47,1.12-2.44-4.73-14.11-16.14-24.69-30.5-28.31-3.53-.89-7.1-1.33-10.65-1.33-7.74,0-15.36,2.09-22.18,6.17-9.96,5.95-16.99,15.4-19.82,26.61-2.83,11.21-1.1,22.87,4.84,32.83,5.95,9.96,15.4,16.99,26.61,19.82,3.48.87,7.05,1.32,10.62,1.32,11.01,0,21.55-4.19,29.66-11.8.75-.71.83-1.88.18-2.67-.66-.8-1.82-.95-2.66-.36ZM213.92,923.21c-3.17-.02-6.32-.43-9.38-1.2-21.08-5.31-33.92-26.79-28.6-47.88,4.42-17.55,20.15-29.8,38.24-29.8,3.23,0,6.47.4,9.63,1.2,3.06.77,6.03,1.91,8.83,3.4.44.23.64.76.46,1.23-.18.46-.68.72-1.17.59l-.45-.12c-9.41-2.4-19.19-.96-27.55,4.04-8.34,4.98-14.24,12.91-16.61,22.34-4.9,19.44,6.94,39.25,26.38,44.16l.46.11c.48.12.8.58.74,1.08-.06.49-.48.86-.97.86Z"/><path class="cls-1" d="M193.72,787.32c0-.64-.05-1.32-.16-2.08-.07-.48.23-.94.7-1.08,26.21-7.7,58.26-13.38,92.69-16.44.52-.05,1-.29,1.33-.69.34-.4.5-.91.45-1.43-.09-1.06-.98-1.78-2.17-1.78-34.66,3.07-66.99,8.81-93.47,16.59-.46.13-.94-.08-1.15-.5-2.83-5.62-8.48-9.11-14.74-9.11-9.11,0-16.52,7.41-16.52,16.52,0,1.23.17,2.45.53,3.84.12.46-.11.94-.54,1.14-25.58,11.81-39.1,25.8-39.1,40.46,0,13.4,11.4,26.36,32.96,37.48.94.5,2.17.1,2.65-.84.49-.96.12-2.15-.85-2.65-20.17-10.41-30.84-22.16-30.84-33.99,0-12.77,13.03-25.84,36.69-36.82.44-.2.97-.05,1.24.35,3.08,4.73,8.24,7.55,13.79,7.55,9.11,0,16.52-7.41,16.52-16.52ZM167.27,795c-.18-.24-.25-.55-.17-.84.08-.3.29-.54.56-.66.94-.41,1.9-.81,2.88-1.2.49-.2.87-.57,1.07-1.06.2-.48.21-1.02.01-1.5-.2-.49-.57-.87-1.06-1.07-.48-.2-1.01-.21-1.5-.01-1.01.41-1.98.82-2.94,1.23-.28.12-.6.11-.86-.04-.26-.15-.45-.4-.5-.7-.11-.64-.16-1.24-.16-1.82,0-6.94,5.65-12.6,12.59-12.6s12.6,5.65,12.6,12.6-5.65,12.59-12.6,12.59c-3.91,0-7.53-1.79-9.93-4.91Z"/><path class="cls-1" d="M506.57,846.55c-9.97-5.95-21.63-7.67-32.82-4.83-14.37,3.62-25.77,14.2-30.51,28.31-.32.98.16,2.05,1.11,2.44.96.41,2.06-.02,2.52-.94,4.23-8.54,11.93-14.78,21.14-17.1,8.38-2.12,17.1-.83,24.55,3.62,7.45,4.45,12.72,11.53,14.83,19.92,4.37,17.35-6.19,35.01-23.53,39.39-9.22,2.32-18.95.48-26.71-5.04-.34-.25-.74-.36-1.14-.36-.57,0-1.14.25-1.53.72-.65.79-.57,1.96.18,2.67,8.1,7.61,18.63,11.8,29.65,11.8,3.57,0,7.15-.45,10.63-1.32,11.22-2.83,20.67-9.86,26.61-19.82,5.95-9.96,7.67-21.62,4.84-32.83-2.83-11.22-9.87-20.67-19.83-26.62ZM493.98,922c-3.06.77-6.21,1.17-9.37,1.19-.5,0-.92-.37-.98-.86-.06-.5.26-.96.74-1.08l.31-.07c9.56-2.41,17.48-8.31,22.47-16.66,4.99-8.35,6.43-18.13,4.06-27.53-4.08-16.18-18.59-27.49-35.28-27.49-2.97,0-5.96.37-8.87,1.1l-.45.12c-.49.13-.99-.12-1.17-.59-.18-.46.01-.99.45-1.23,2.8-1.48,5.77-2.62,8.82-3.4,21.1-5.29,42.57,7.54,47.88,28.61,5.31,21.09-7.52,42.56-28.6,47.88Z"/><path class="cls-1" d="M537.85,792.29c-.43-.2-.66-.68-.54-1.14.36-1.39.53-2.61.53-3.84,0-9.11-7.41-16.52-16.52-16.52-6.26,0-11.91,3.49-14.74,9.11-.22.42-.71.63-1.15.5-26.46-7.78-58.8-13.52-93.53-16.6-.54-.04-1.02.11-1.42.43-.4.34-.65.82-.7,1.35-.05.52.12,1.03.45,1.43.33.4.81.65,1.33.69,34.41,3.05,66.46,8.74,92.69,16.44.47.14.77.6.7,1.08-.11.76-.16,1.43-.16,2.08,0,9.11,7.41,16.52,16.52,16.52,5.55,0,10.7-2.82,13.79-7.55.19-.28.5-.45.82-.45.14,0,.28.03.41.09,23.65,10.98,36.68,24.06,36.68,36.82,0,11.83-10.66,23.58-30.84,33.99-.96.5-1.34,1.69-.85,2.65.48.93,1.71,1.33,2.65.84,21.57-11.13,32.96-24.09,32.96-37.48,0-14.66-13.52-28.65-39.1-40.46ZM533.75,789.14c-.05.3-.23.56-.5.7-.26.14-.58.15-.86.04-1.07-.46-2-.85-2.95-1.24-1-.39-2.15.09-2.55,1.09-.4,1.01.08,2.15,1.08,2.56.98.4,1.93.8,2.88,1.2.28.12.49.36.57.66s.01.61-.17.85c-2.41,3.12-6.03,4.91-9.94,4.91-6.94,0-12.6-5.65-12.6-12.6s5.65-12.6,12.6-12.6,12.59,5.65,12.59,12.6c0,.59-.05,1.18-.16,1.82Z"/><path class="cls-1" d="M492.92,886.52c-.26-1.04-1.33-1.68-2.39-1.43-22.1,5.51-47,9.62-74.03,12.23-.46.05-.86-.22-1.01-.64-1.63-4.4-5.71-7.24-10.37-7.24-6.14,0-11.13,4.99-11.13,11.13s4.99,11.13,11.13,11.13c5.52,0,10.24-4.14,10.98-9.64.06-.45.42-.8.88-.85,27.27-2.64,52.35-6.78,74.52-12.31,1.05-.26,1.69-1.33,1.43-2.38ZM405.11,907.76c-3.97,0-7.2-3.23-7.2-7.2s3.23-7.2,7.2-7.2,7.2,3.23,7.2,7.2-3.23,7.2-7.2,7.2Z"/><path class="cls-1" d="M696.55,600.7h-10.93c-1.08,0-1.96.88-1.96,1.96s.88,1.96,1.96,1.96h10.93c1.08,0,1.96-.88,1.96-1.96s-.88-1.96-1.96-1.96Z"/><path class="cls-1" d="M660.89,602.66c0-1.08-.88-1.96-1.96-1.96h-158.21c-1.08,0-1.96.88-1.96,1.96s.88,1.96,1.96,1.96h158.21c1.08,0,1.96-.88,1.96-1.96Z"/><path class="cls-1" d="M470.21,602.66c0,1.08.88,1.96,1.96,1.96h8.61c1.08,0,1.96-.88,1.96-1.96s-.88-1.96-1.96-1.96h-8.61c-1.08,0-1.96.88-1.96,1.96Z"/><path class="cls-1" d="M229.33,602.66c0-1.08-.88-1.96-1.96-1.96H35.73c-1.08,0-1.96.88-1.96,1.96s.88,1.96,1.96,1.96h191.64c1.08,0,1.96-.88,1.96-1.96Z"/><path class="cls-1" d="M10.97,600.7H1.96c-1.08,0-1.96.88-1.96,1.96s.88,1.96,1.96,1.96h9c1.08,0,1.96-.88,1.96-1.96s-.88-1.96-1.96-1.96Z"/><path class="cls-1" d="M674.71,658.05s-50.44-8.89-50.44-8.89c-.13-.02-.26-.04-.39-.04-.39,0-.76.12-1.08.33-.44.3-.74.77-.84,1.29s.02,1.04.32,1.47c.3.43.75.72,1.26.81l50.45,8.89c1.22.25,2.11-.54,2.3-1.58.09-.52-.02-1.04-.32-1.47-.3-.43-.75-.72-1.26-.81Z"/><path class="cls-1" d="M615.81,649.67c.09-.52-.02-1.04-.32-1.47-.3-.43-.75-.72-1.26-.81l-6.97-1.23c-.14-.03-.28-.04-.41-.04-.38,0-.73.11-1.05.33-.45.3-.75.77-.84,1.3-.09.52.02,1.04.32,1.47.3.43.75.72,1.26.81l6.98,1.23c1.21.25,2.11-.54,2.3-1.58Z"/><path class="cls-1" d="M547.7,635.66c-.13-.02-.25-.03-.37-.03-.38,0-.76.11-1.08.33-.44.3-.74.77-.83,1.29-.09.52.02,1.04.32,1.47.3.43.75.72,1.26.81l41.38,7.3c1.23.24,2.11-.54,2.3-1.58.09-.52-.02-1.04-.32-1.47-.3-.43-.75-.72-1.26-.81l-41.39-7.3Z"/><path class="cls-1" d="M531.49,634.8c.09-.52-.02-1.04-.32-1.47-.3-.43-.75-.72-1.26-.81l-62.65-11.05c-.13-.03-.26-.04-.39-.04-.39,0-.76.12-1.07.33-.44.3-.74.77-.84,1.29s.02,1.04.32,1.47c.3.43.75.72,1.26.81l62.66,11.05c1.22.24,2.11-.54,2.3-1.58Z"/><path class="cls-1" d="M173.98,570.31c-.44.3-.74.77-.84,1.3-.09.52.02,1.04.32,1.47.3.43.75.72,1.26.81l47.07,8.3c1.22.24,2.11-.54,2.3-1.58.09-.52-.02-1.04-.32-1.47-.3-.43-.75-.72-1.26-.81l-47.06-8.3c-.52-.1-1.04,0-1.47.29Z"/><path class="cls-1" d="M138.52,567.5s9.36,1.65,9.36,1.65c1.22.24,2.11-.54,2.3-1.58.09-.52-.02-1.04-.32-1.47-.3-.43-.75-.72-1.26-.81l-9.36-1.65c-.13-.03-.27-.04-.4-.04-.38,0-.75.11-1.06.33-.44.3-.74.77-.84,1.3-.09.52.02,1.04.32,1.47.3.43.75.72,1.26.81Z"/><path class="cls-1" d="M23.8,547.27s92.96,16.39,92.96,16.39c1.22.24,2.11-.54,2.3-1.58.09-.52-.02-1.04-.32-1.47-.3-.43-.75-.72-1.26-.81l-92.95-16.39c-.13-.03-.27-.04-.4-.04-.38,0-.74.11-1.06.33-.44.3-.74.77-.83,1.29s.02,1.04.32,1.47c.3.43.75.72,1.26.81Z"/><path class="cls-1" d="M625.75,703.3c.37-1.02-.16-2.15-1.18-2.52l-8.71-3.17c-.22-.08-.44-.12-.67-.12-.28,0-.56.06-.83.18-.48.22-.84.62-1.02,1.11-.18.49-.16,1.03.07,1.5.22.47.62.83,1.11,1.02l8.71,3.17c1.02.37,2.16-.18,2.52-1.17Z"/><path class="cls-1" d="M593.3,689.4l-89.66-32.63c-.22-.08-.45-.13-.68-.13-.28,0-.56.07-.82.19-.48.22-.84.61-1.02,1.11-.18.49-.16,1.03.07,1.5.22.47.62.83,1.11,1.02l89.66,32.63c1.02.38,2.16-.18,2.52-1.17.18-.5.16-1.03-.07-1.51-.22-.47-.61-.83-1.11-1.01Z"/><path class="cls-1" d="M488.99,651.43l-26.56-9.66c-.22-.08-.45-.12-.67-.12-.28,0-.56.07-.83.19-.48.22-.84.62-1.02,1.11-.18.5-.16,1.03.07,1.5.22.47.62.83,1.11,1.02l26.56,9.66c1.02.38,2.16-.18,2.52-1.17.18-.5.16-1.03-.07-1.51-.22-.47-.62-.83-1.11-1.02Z"/><path class="cls-1" d="M104.92,511.77c-.8,0-1.56.49-1.85,1.29-.18.5-.16,1.03.07,1.5.22.47.62.83,1.11,1.02l100.66,36.63c1.02.38,2.16-.18,2.52-1.17.18-.5.16-1.03-.07-1.51-.22-.47-.62-.83-1.11-1.02l-100.66-36.63c-.22-.08-.44-.12-.66-.12Z"/><path class="cls-1" d="M75.24,500.84c-.22-.08-.44-.12-.67-.12-.28,0-.56.06-.83.19-.48.22-.84.61-1.02,1.11-.18.49-.16,1.03.07,1.5.22.47.62.83,1.11,1.02l8.64,3.14c1.02.38,2.16-.18,2.52-1.17.37-1.02-.16-2.15-1.18-2.52l-8.64-3.14Z"/><path class="cls-1" d="M543.33,716.98s24.41,14.09,24.41,14.09c.91.52,2.16.18,2.69-.72.26-.46.33-.99.2-1.49-.14-.51-.46-.93-.91-1.19l-24.41-14.09c-.31-.18-.65-.27-.99-.27-.17,0-.33.02-.5.07-.51.14-.93.46-1.2.92-.26.46-.33.99-.2,1.49.14.51.46.93.91,1.19Z"/><path class="cls-1" d="M527.7,705.69c.26-.46.33-.99.2-1.49-.14-.51-.46-.93-.91-1.19l-51.16-29.54c-.31-.18-.65-.27-.99-.27-.17,0-.33.02-.5.07-.51.13-.93.46-1.2.92-.26.46-.33.99-.2,1.49.14.51.46.93.91,1.19l51.17,29.54c.91.54,2.16.19,2.69-.71Z"/><path class="cls-1" d="M455.73,666.4s5.04,2.91,5.04,2.91c.91.52,2.16.19,2.68-.72.26-.46.33-.99.2-1.49-.14-.51-.46-.93-.91-1.19l-5.04-2.9c-.31-.18-.65-.27-.99-.27-.17,0-.34.02-.5.07-.5.13-.93.46-1.19.92-.26.46-.33.99-.2,1.49.14.51.46.93.91,1.19Z"/><path class="cls-1" d="M182.71,508.77s19.38,11.19,19.38,11.19c.9.52,2.16.18,2.68-.72.26-.46.33-.99.2-1.49-.14-.51-.46-.93-.91-1.19l-19.38-11.19c-.31-.18-.65-.27-.99-.27-.17,0-.33.02-.5.07-.51.14-.94.46-1.2.92-.26.46-.33.99-.2,1.49.14.51.46.93.91,1.19Z"/><path class="cls-1" d="M128.81,477.65s38.89,22.46,38.89,22.46c.91.52,2.16.18,2.69-.72.26-.46.33-.99.2-1.49-.14-.51-.46-.93-.91-1.19l-38.89-22.45c-.31-.18-.64-.28-.98-.28-.17,0-.33.02-.5.07-.52.13-.94.46-1.21.92-.26.46-.33.99-.2,1.49s.46.93.91,1.19Z"/><path class="cls-1" d="M156.86,638c.3-.43.42-.95.32-1.46-.09-.53-.4-.99-.83-1.3-.32-.22-.69-.34-1.07-.34-.12,0-.24.01-.36.03l-131.12,23.12c-.52.09-.97.38-1.27.81-.3.43-.42.95-.32,1.46.18,1.06,1.31,1.79,2.26,1.6l131.12-23.12c.52-.09.97-.38,1.27-.81Z"/><path class="cls-1" d="M181.21,630.3s-9.16,1.62-9.16,1.62c-.52.09-.97.38-1.27.81-.3.43-.42.95-.32,1.46.19,1.06,1.32,1.79,2.26,1.6l9.14-1.61c.52-.09.97-.38,1.27-.81.3-.43.42-.95.32-1.46-.09-.53-.4-1.01-.84-1.3-.32-.22-.69-.33-1.05-.33-.12,0-.23.01-.34.03Z"/><path class="cls-1" d="M201.39,630.73l31.58-5.57c.52-.09.97-.38,1.27-.81.3-.43.42-.95.32-1.46-.09-.53-.4-1.01-.85-1.31-.31-.21-.68-.32-1.05-.32-.12,0-.24.01-.36.03l-31.58,5.57c-.52.09-.97.38-1.27.81-.3.43-.42.95-.32,1.46.19,1.06,1.3,1.8,2.26,1.6Z"/><path class="cls-1" d="M522.31,574.14c.52-.09.97-.38,1.27-.81.3-.43.42-.95.32-1.46-.09-.53-.4-1-.84-1.3-.32-.22-.69-.33-1.06-.33-.12,0-.24.01-.35.03l-43.55,7.68c-.52.09-.97.38-1.27.81-.3.43-.42.95-.32,1.46.18,1.05,1.18,1.82,2.26,1.6.02,0,43.53-7.68,43.53-7.68Z"/><path class="cls-1" d="M550.7,565.18c-.12,0-.24.01-.36.04-.04,0-7.84,1.38-7.84,1.38-.52.09-.97.38-1.27.81-.3.43-.42.95-.32,1.46.18,1.06,1.31,1.8,2.26,1.6l7.83-1.38c.52-.09.97-.38,1.27-.81.3-.43.42-.95.32-1.46-.09-.53-.4-1.01-.85-1.31-.32-.21-.68-.33-1.03-.33Z"/><path class="cls-1" d="M674.02,543.4l-105.64,18.63c-.52.09-.97.38-1.27.81-.3.43-.42.95-.32,1.46.19,1.06,1.31,1.78,2.26,1.6l105.67-18.63c.52-.09.97-.38,1.27-.81.3-.43.42-.95.32-1.46-.09-.53-.4-1-.83-1.3-.42-.28-.93-.4-1.45-.3Z"/><path class="cls-1" d="M84.04,697.71c-.27-.12-.55-.18-.83-.18-.22,0-.45.04-.67.12l-8.63,3.15c-1.02.37-1.54,1.5-1.17,2.51.36.99,1.5,1.55,2.52,1.18l8.62-3.14c.49-.18.89-.54,1.11-1.01.22-.48.25-1.01.07-1.5-.18-.5-.54-.89-1.02-1.11Z"/><path class="cls-1" d="M239.47,644.1c.22-.48.25-1.01.07-1.5-.29-.79-1.05-1.29-1.85-1.29-.22,0-.45.04-.67.12l-129.22,47.03c-1.02.37-1.54,1.5-1.17,2.51.36.99,1.5,1.55,2.52,1.18l129.22-47.03c.49-.18.89-.54,1.11-1.01Z"/><path class="cls-1" d="M596.43,514.18c.22-.48.25-1.01.07-1.5-.18-.49-.54-.89-1.02-1.11-.26-.12-.55-.18-.83-.18-.22,0-.45.04-.67.12l-100.62,36.62c-.49.18-.89.54-1.11,1.01-.22.48-.25,1.01-.07,1.5.36.99,1.49,1.54,2.52,1.18l100.62-36.62c.49-.18.89-.54,1.11-1.01Z"/><path class="cls-1" d="M624.76,500.91c-.26-.13-.54-.19-.82-.19-.23,0-.45.04-.68.12l-7,2.55c-.49.18-.89.54-1.11,1.02-.22.48-.25,1.01-.07,1.49.36,1,1.5,1.55,2.52,1.18l7-2.55c.5-.18.89-.54,1.11-1.02.22-.48.25-1.01.07-1.49-.18-.51-.54-.9-1.02-1.12Z"/><path class="cls-1" d="M163.76,708.14c-.16-.04-.33-.07-.49-.07-.34,0-.68.09-.98.27l-33.48,19.33c-.46.26-.78.68-.92,1.19-.13.5-.07,1.03.2,1.49.52.9,1.78,1.23,2.68.72l33.47-19.33c.46-.26.78-.68.92-1.19.13-.5.07-1.03-.2-1.49-.26-.46-.69-.79-1.21-.92Z"/><path class="cls-1" d="M216.17,681.11c.14-.51.07-1.04-.2-1.49-.27-.46-.7-.79-1.21-.92-.16-.04-.33-.07-.5-.07-.34,0-.67.09-.97.26l-38.17,22.04c-.46.26-.78.68-.92,1.19-.13.5-.07,1.03.2,1.49.52.9,1.78,1.23,2.68.72l38.17-22.04c.45-.26.78-.68.92-1.19Z"/><path class="cls-1" d="M236.46,670.05s7.22-4.17,7.22-4.17c.46-.26.78-.68.92-1.19.13-.5.07-1.03-.2-1.49-.27-.46-.7-.79-1.21-.92-.17-.05-.33-.07-.5-.07-.34,0-.67.09-.97.26l-7.23,4.17c-.46.26-.78.68-.92,1.19-.13.5-.07,1.03.2,1.49.52.9,1.78,1.24,2.68.72Z"/><path class="cls-1" d="M498.5,518.76s13.33-7.7,13.33-7.7c.46-.26.78-.68.92-1.19.13-.5.07-1.04-.2-1.49-.27-.46-.7-.79-1.21-.92-.17-.05-.33-.07-.5-.07-.34,0-.67.09-.96.26l-13.33,7.7c-.46.26-.78.68-.92,1.19-.13.5-.07,1.03.2,1.49.52.9,1.77,1.24,2.68.72Z"/><path class="cls-1" d="M526.98,502.32s42.72-24.66,42.72-24.66c.46-.26.78-.68.92-1.19.13-.5.07-1.03-.2-1.49-.27-.46-.69-.79-1.2-.92-.17-.05-.34-.07-.5-.07-.34,0-.68.09-.97.26l-42.72,24.67c-.46.26-.78.68-.92,1.19-.13.5-.07,1.03.2,1.49.52.9,1.77,1.24,2.68.72Z"/><path class="cls-1" d="M504.02,730.71c-.52.05-.99.3-1.33.69-.34.4-.5.91-.45,1.43.05.53.29,1,.69,1.34l7.86,6.6c.8.68,2.1.56,2.77-.24.34-.4.5-.91.45-1.43-.04-.53-.29-1-.69-1.34l-7.86-6.6c-.4-.34-.89-.5-1.44-.45Z"/><path class="cls-1" d="M480.3,712.63c.7-.83.59-2.08-.24-2.77l-30.6-25.67c-.36-.3-.79-.46-1.26-.46-.7.05-1.17.3-1.51.7-.7.83-.59,2.08.24,2.77l30.6,25.68c.8.68,2.1.56,2.77-.24Z"/><path class="cls-1" d="M451.97,722.9c-.09-.01-.16-.02-.22-.02-.43,0-.86.17-1.22.47-.83.69-.94,1.94-.24,2.77l13.09,15.6c.67.8,1.97.92,2.76.25.83-.7.94-1.94.24-2.77l-13.09-15.6c-.34-.41-.81-.65-1.33-.7Z"/><path class="cls-1" d="M434.96,702.63c-.63,0-1.08.16-1.44.46-.83.69-.93,1.93-.24,2.77l7.13,8.49c.67.81,1.97.92,2.76.25.83-.7.94-1.94.24-2.77l-7.13-8.49c-.34-.41-.81-.65-1.33-.7Z"/><path class="cls-1" d="M198.49,726.61l-13.3,11.16c-.4.34-.65.81-.69,1.34-.04.52.12,1.02.45,1.42.67.81,1.97.92,2.76.25l13.3-11.16c.4-.34.65-.81.69-1.34.04-.52-.12-1.02-.45-1.42-.34-.41-.81-.65-1.33-.7-.51-.04-1.04.12-1.44.46Z"/><path class="cls-1" d="M251.82,684.42c-.33-.4-.8-.64-1.32-.69-.64,0-1.09.15-1.44.45l-31.68,26.58c-.83.69-.94,1.94-.24,2.77.67.8,1.97.92,2.76.25l31.69-26.59c.83-.69.94-1.94.24-2.77Z"/><path class="cls-1" d="M243.47,725.69l-11.34,13.51c-.34.4-.5.91-.45,1.43.05.53.29,1,.69,1.34.8.68,2.11.56,2.77-.24l11.34-13.52c.34-.4.5-.91.45-1.43-.05-.53-.29-1-.69-1.34-.4-.34-.9-.48-1.43-.45-.52.04-1,.29-1.34.69Z"/><path class="cls-1" d="M262.23,703.32l-8.44,10.06c-.34.4-.5.91-.45,1.43.04.53.29,1,.69,1.34.8.68,2.1.56,2.77-.24l8.44-10.06c.34-.4.5-.91.45-1.43-.05-.53-.29-1-.69-1.34-.35-.3-.8-.46-1.24-.46-.71.05-1.19.3-1.53.7Z"/><path class="cls-1" d="M26.13,226.52c11.45,0,21.27,17.54,21.27,31.91,0,1.08.88,1.96,1.96,1.96s1.96-.88,1.96-1.96c0-14.36,9.82-31.91,21.27-31.91,1.08,0,1.96-.88,1.96-1.96s-.88-1.96-1.96-1.96c-11.46,0-21.27-17.54-21.27-31.9,0-1.08-.88-1.96-1.96-1.96s-1.96.88-1.96,1.96c0,14.36-9.82,31.9-21.27,31.9-1.08,0-1.96.88-1.96,1.96s.88,1.96,1.96,1.96ZM35.33,223.72c5.43-3.4,10.21-9.83,13.11-17.64.29-.77,1.55-.77,1.84,0,2.9,7.81,7.68,14.24,13.11,17.64.29.18.46.5.46.83s-.17.65-.46.83c-5.43,3.41-10.21,9.84-13.11,17.64-.14.38-.51.64-.92.64s-.78-.25-.92-.64c-2.91-7.81-7.68-14.25-13.11-17.64-.29-.18-.46-.49-.46-.83s.17-.65.46-.83Z"/><path class="cls-1" d="M49.36,180.35c1.08,0,1.96-.88,1.96-1.96v-14.73c0-1.08-.88-1.96-1.96-1.96s-1.96.88-1.96,1.96v14.73c0,1.08.88,1.96,1.96,1.96Z"/><path class="cls-1" d="M49.36,268.75c-1.08,0-1.96.88-1.96,1.96v14.73c0,1.08.88,1.96,1.96,1.96s1.96-.88,1.96-1.96v-14.73c0-1.08-.88-1.96-1.96-1.96Z"/><path class="cls-1" d="M84.71,222.59c-1.08,0-1.96.88-1.96,1.96s.88,1.96,1.96,1.96h11.28c1.08,0,1.96-.88,1.96-1.96s-.88-1.96-1.96-1.96h-11.28Z"/><path class="cls-1" d="M14.01,222.59H2.73c-1.08,0-1.96.88-1.96,1.96s.88,1.96,1.96,1.96h11.28c1.08,0,1.96-.88,1.96-1.96s-.88-1.96-1.96-1.96Z"/><path class="cls-1" d="M625.92,226.52c11.46,0,21.27,17.54,21.27,31.91,0,1.08.88,1.96,1.96,1.96s1.96-.88,1.96-1.96c0-14.36,9.82-31.91,21.27-31.91,1.08,0,1.96-.88,1.96-1.96s-.88-1.96-1.96-1.96c-11.45,0-21.27-17.54-21.27-31.9,0-1.08-.88-1.96-1.96-1.96s-1.96.88-1.96,1.96c0,14.36-9.82,31.9-21.27,31.9-1.08,0-1.96.88-1.96,1.96s.88,1.96,1.96,1.96ZM635.12,223.72c5.43-3.41,10.21-9.84,13.11-17.64.14-.38.51-.64.92-.64s.78.26.92.64c2.9,7.81,7.68,14.24,13.11,17.64.29.18.46.5.46.83s-.17.65-.46.83c-5.43,3.4-10.21,9.83-13.11,17.64-.14.38-.51.64-.92.64s-.78-.26-.92-.64c-2.9-7.81-7.68-14.24-13.11-17.64-.29-.18-.46-.49-.46-.83s.17-.65.46-.83Z"/><path class="cls-1" d="M649.15,180.35c1.08,0,1.96-.88,1.96-1.96v-14.73c0-1.08-.88-1.96-1.96-1.96s-1.96.88-1.96,1.96v14.73c0,1.08.88,1.96,1.96,1.96Z"/><path class="cls-1" d="M649.15,268.75c-1.08,0-1.96.88-1.96,1.96v14.73c0,1.08.88,1.96,1.96,1.96s1.96-.88,1.96-1.96v-14.73c0-1.08-.88-1.96-1.96-1.96Z"/><path class="cls-1" d="M695.79,226.52c1.08,0,1.96-.88,1.96-1.96s-.88-1.96-1.96-1.96h-11.28c-1.08,0-1.96.88-1.96,1.96s.88,1.96,1.96,1.96h11.28Z"/><path class="cls-1" d="M615.77,224.55c0-1.08-.88-1.96-1.96-1.96h-11.28c-1.08,0-1.96.88-1.96,1.96s.88,1.96,1.96,1.96h11.28c1.08,0,1.96-.88,1.96-1.96Z"/><path class="cls-1" d="M305.78,66.19c1.92-.91,6.81-3.36,13.41-3.76.49,0,.88.29,1,.71l14.88,51.19c.1.22.3.61.78.97.21.12.34.2.5.25.36.1.77.1,1.09,0,.22-.06.39-.17.56-.29.36-.26.57-.54.7-.94.36-1.07,2.26-7.57,14.96-51.26.12-.42.51-.71.94-.71h5.88c.25,0,.5.1.68.28,2.39,2.3,5.03,4.52,7.33,6.41,7.31,6.06,14.21,11.77,14.21,19.29s-6,13.39-13.39,13.39c-1.08,0-1.96.88-1.96,1.96s.88,1.96,1.96,1.96c9.55,0,17.31-7.77,17.31-17.31s-7.94-15.94-15.63-22.31c-.79-.65-1.56-1.3-2.32-1.94-.31-.26-.43-.7-.29-1.09.14-.39.51-.64.92-.64,9.55,0,17.31-7.77,17.31-17.31s-7.77-17.31-17.31-17.31-17.31,7.77-17.31,17.31c0,4.11,1.33,7.98,4.05,11.84.21.3.24.69.07,1.02-.17.33-.51.53-.87.53h-2.86c-.87,0-1.64.58-1.89,1.42l-12.65,43.53c-.12.42-.51.71-.94.71s-.82-.29-.94-.71l-12.65-43.53c-.24-.83-1.02-1.42-1.89-1.42-11.62,0-18.01,4.71-18.08,4.76-.88.64-1.07,1.87-.44,2.74.66.9,2.09.62,2.85.26ZM355.95,45.05c0-7.38,6-13.39,13.38-13.39s13.39,6,13.39,13.39-6,13.39-13.39,13.39h-6.41c-.27,0-.53-.11-.71-.31-4.33-4.57-6.26-8.61-6.26-13.08Z"/><path class="cls-1" d="M349.26,151.91c41.88,0,75.96-34.07,75.96-75.95S391.14,0,349.26,0s-75.96,34.07-75.96,75.95,34.07,75.95,75.96,75.95ZM349.26,3.93c39.72,0,72.03,32.31,72.03,72.03s-32.31,72.03-72.03,72.03-72.03-32.31-72.03-72.03S309.54,3.93,349.26,3.93Z"/><path class="cls-1" d="M346.34,172.26c.53.02.95.45.95.98v39.83c0,.54-.44.98-.98.98h-19.66c-.65,0-1.25.31-1.61.84-.37.53-.45,1.2-.23,1.81l22.43,60.28c.04.11.06.23.06.34v55.95c0,1.08.88,1.96,1.96,1.96s1.96-.88,1.96-1.96v-55.95c0-.12.02-.23.06-.34l22.43-60.28c.22-.6.14-1.28-.23-1.81-.36-.53-.97-.84-1.61-.84h-19.66c-.54,0-.98-.44-.98-.98v-39.83c0-.53.42-.97.95-.98,34.39-1.04,65.85-20.53,82.1-50.85.25-.46.3-.99.15-1.5-.15-.5-.49-.91-.95-1.16-.46-.25-.99-.31-1.49-.16-.5.15-.92.49-1.17.96-16.15,30.14-47.4,48.87-81.55,48.87s-65.4-18.73-81.55-48.87c-.25-.47-.67-.81-1.18-.96-.5-.13-1.03-.09-1.47.16-.47.25-.81.66-.96,1.17-.15.5-.1,1.03.15,1.5,16.25,30.33,47.71,49.82,82.1,50.85ZM367.63,217.99c.32,0,.62.16.81.42.18.26.23.6.12.9l-18.37,49.38c-.14.39-.51.64-.92.64s-.78-.25-.92-.64l-18.37-49.38c-.11-.3-.07-.64.12-.9.18-.26.48-.42.81-.42h36.74Z"/><path class="cls-1" d="M60.41,415.09c0,1.08.88,1.96,1.96,1.96h12.76c.54,0,.98.44.98.98v17.65c0,1.08.88,1.96,1.96,1.96s1.96-.88,1.96-1.96v-17.65c0-.54.44-.98.98-.98h12.76c1.08,0,1.96-.88,1.96-1.96s-.88-1.96-1.96-1.96h-12.76c-.54,0-.98-.44-.98-.98v-17.65c0-1.08-.88-1.96-1.96-1.96s-1.96.88-1.96,1.96v17.65c0,.54-.44.98-.98.98h-12.76c-1.08,0-1.96.88-1.96,1.96Z"/><path class="cls-1" d="M217,69.9h4.43c.54,0,.98.44.98.98v6.73c0,1.08.88,1.96,1.96,1.96s1.96-.88,1.96-1.96v-6.73c0-.54.44-.98.98-.98h4.43c1.08,0,1.96-.88,1.96-1.96s-.88-1.96-1.96-1.96h-4.43c-.54,0-.98-.44-.98-.98v-6.73c0-1.08-.88-1.96-1.96-1.96s-1.96.88-1.96,1.96v6.73c0,.54-.44.98-.98.98h-4.43c-1.08,0-1.96.88-1.96,1.96s.88,1.96,1.96,1.96Z"/><path class="cls-1" d="M79.7,792.73h-4.43c-.54,0-.98-.44-.98-.98v-6.73c0-1.08-.88-1.96-1.96-1.96s-1.96.88-1.96,1.96v6.73c0,.54-.44.98-.98.98h-4.43c-1.08,0-1.96.88-1.96,1.96s.88,1.96,1.96,1.96h4.43c.54,0,.98.44.98.98v6.73c0,1.08.88,1.96,1.96,1.96s1.96-.88,1.96-1.96v-6.73c0-.54.44-.98.98-.98h4.43c1.08,0,1.96-.88,1.96-1.96s-.88-1.96-1.96-1.96Z"/><path class="cls-1" d="M620.44,392.52c-1.08,0-1.96.88-1.96,1.96v17.65c0,.54-.44.98-.98.98h-12.76c-1.08,0-1.96.88-1.96,1.96s.88,1.96,1.96,1.96h12.76c.54,0,.98.44.98.98v17.65c0,1.08.88,1.96,1.96,1.96s1.96-.88,1.96-1.96v-17.65c0-.54.44-.98.98-.98h12.76c1.08,0,1.96-.88,1.96-1.96s-.88-1.96-1.96-1.96h-12.76c-.54,0-.98-.44-.98-.98v-17.65c0-1.08-.88-1.96-1.96-1.96Z"/><path class="cls-1" d="M466.77,69.9h4.43c.54,0,.98.44.98.98v6.73c0,1.08.88,1.96,1.96,1.96s1.96-.88,1.96-1.96v-6.73c0-.54.44-.98.98-.98h4.43c1.08,0,1.96-.88,1.96-1.96s-.88-1.96-1.96-1.96h-4.43c-.54,0-.98-.44-.98-.98v-6.73c0-1.08-.88-1.96-1.96-1.96s-1.96.88-1.96,1.96v6.73c0,.54-.44.98-.98.98h-4.43c-1.08,0-1.96.88-1.96,1.96s.88,1.96,1.96,1.96Z"/><path class="cls-1" d="M633.56,792.73h-4.43c-.54,0-.98-.44-.98-.98v-6.73c0-1.08-.88-1.96-1.96-1.96s-1.96.88-1.96,1.96v6.73c0,.54-.44.98-.98.98h-4.43c-1.08,0-1.96.88-1.96,1.96s.88,1.96,1.96,1.96h4.43c.54,0,.98.44.98.98v6.73c0,1.08.88,1.96,1.96,1.96s1.96-.88,1.96-1.96v-6.73c0-.54.44-.98.98-.98h4.43c1.08,0,1.96-.88,1.96-1.96s-.88-1.96-1.96-1.96Z"/><path class="cls-1" d="M81.73,90.9c-1.11,1.41-1.43,3.57-.87,5.93.7,3.01,2.5,5.36,4.68,6.11.29.1.51.33.61.62,2.6,7.79,5.67,16.23,9.12,25.08.09.23.09.48,0,.7-.49,1.3-.46,3,.07,4.91.67,2.39,2.23,5.41,4.63,6.73.2.11.35.28.43.48,3.97,9.64,8.25,19.47,12.71,29.22.07.15.1.31.09.48-.16,2.4.77,5.57,2.2,7.54.62.86,1.3,1.46,2.08,1.85.2.1.36.26.45.46,4.29,9.05,8.67,17.88,12.99,26.25,1.23,2.38,2.49,4.77,3.75,7.15.12.23.15.5.07.74-.87,2.89.31,5.88,1.58,7.57,1.02,1.36,2.37,2.25,3.79,2.51.29.05.54.23.68.49,30.38,54.96,62.77,96.9,80.58,104.33.79.33,1.76.09,2.3-.59.54-.68.57-1.65.06-2.36-40.42-56.42-98.24-191.02-106.94-239.67-.08-.43.14-.87.54-1.06.39-.2.87-.09,1.16.24,1.5,1.73,3.01,3.53,4.53,5.37.22.26.28.63.17.95-.69,1.97-.16,4.51,1.44,6.96,2.11,3.23,5.35,5.32,8.25,5.32.33,0,.62.15.8.4,4.56,6.1,9.22,12.71,13.86,19.64.18.26.21.59.1.89-1.05,2.78.25,6.54,1.82,9.13,2.05,3.39,4.77,5.34,7.46,5.34.34,0,.65.18.83.46,5.8,9.3,11.59,19.18,17.22,29.34.16.29.16.64,0,.94-1.08,2.04-.85,5.08.6,8.13,1.35,2.83,3.92,5.97,7.1,6.28.33.03.62.23.77.52,5.16,9.84,10.29,20.22,15.23,30.82.13.28.12.61-.03.89-1.42,2.57-.67,6.67.5,9.64,1.67,4.24,4.36,7.05,7.19,7.5.33.05.61.27.74.58,4.05,9.28,8.01,18.83,11.77,28.37.13.32.08.69-.13.96-1.64,2.13-1.7,5.76-.17,9.96,1.29,3.54,4.01,7.99,7.39,8.9.31.08.56.31.67.61,6.04,16.53,11.68,33.52,16.76,50.49.11.35,0,.74-.26.99-3.31,3.13-3.43,8.78-2.15,12.7,1.53,4.67,4.84,7.48,8.7,7.54l.79,2.57c-.7.36-1.35.73-1.84,1.08-5.85,4.15-5.36,12.17-4.93,19.24.31,5.01.42,8.64-.89,10.04-.29.3-.81.68-2.07.68-12.47,0-22.17-13.74-34.46-31.13-7.59-10.74-16.19-22.91-27.3-34.69-14.94-15.85-39.57-36.83-72.06-46.84-.22-.07-.43-.11-.64-.11-.12,0-.24.01-.36.03-.09.02-.18.04-.28.08-.43.14-.8.44-1.04.84-.21.34-.31.71-.29,1.1.1,2.91.12,6.41.15,10.52.13,23.53.34,62.91,17.84,84.66,7.42,9.22,19.87,16.09,33.06,23.35,23.04,12.7,49.15,27.1,57.59,58.39.08.29.02.6-.16.84-7.72,10.35-7.47,19.28.99,35.38.11.21.14.46.09.69-.99,4.09-1.49,12.07,6.22,19.46.18.18.29.41.3.67.16,3.86,1.04,7.42,2.61,10.58.07.14.11.3.1.46-.05,2.57-.36,5.1-.74,7.92-.68,5.1-1.37,10.35-.14,15.96.98,4.48,7.22,15.44,14.95,24.6.1.12.17.26.21.41,2.44,10.66,6.22,25.42,9.88,39.7,6.12,23.91,12.42,48.5,14.71,61.84,1.69,9.83,7.45,15.57,14.13,22.22,3.28,3.26,7.28,7.26,11.25,12.31.13.17.21.38.21.59,0,.51.02.97.02,1.34,0,3.54,2.97,6.6,5.56,8.86.08.07.15.16.21.25,2.6,4.53,5.28,11.54,7.87,18.33,3.73,9.76,7.25,18.97,10.93,22.37,11.05,10.21,23.18,15.17,37.07,15.17s26.03-4.96,37.07-15.17c3.68-3.4,7.21-12.62,10.93-22.38,2.59-6.78,5.26-13.77,7.87-18.32.05-.1.12-.18.21-.25,2.75-2.41,5.56-5.34,5.56-8.87,0-.37,0-.84.02-1.35,0-.21.08-.41.21-.58,3.98-5.08,8-9.08,11.22-12.29,6.7-6.67,12.47-12.41,14.15-22.24,2.29-13.34,8.59-37.94,14.68-61.72,3.69-14.4,7.46-29.16,9.91-39.82.03-.15.11-.3.21-.41,7.73-9.17,13.97-20.12,14.95-24.6,1.23-5.61.53-10.87-.14-15.95-.38-2.84-.69-5.37-.74-7.94,0-.16.03-.31.1-.46,1.57-3.16,2.45-6.71,2.61-10.58.01-.25.12-.49.3-.67,7.72-7.39,7.21-15.36,6.22-19.46-.06-.23-.02-.48.09-.69,8.46-16.1,8.71-25.03.99-35.38-.18-.24-.24-.55-.16-.84,8.45-31.29,34.55-45.69,57.58-58.39,13.19-7.27,25.65-14.13,33.07-23.36,17.5-21.75,17.71-61.24,17.84-84.83.02-3.94.04-7.44.14-10.32.02-.41-.07-.79-.28-1.12-.25-.41-.64-.72-1.1-.87l-.25-.06c-.31-.06-.64-.04-.93.06-32.53,10.03-57.16,31.02-72.1,46.86-11.11,11.78-19.71,23.95-27.3,34.69-12.29,17.39-22,31.13-34.46,31.13-1.26,0-1.78-.38-2.06-.66-1.33-1.42-1.21-5.05-.91-10.04.43-7.09.92-15.11-4.93-19.25-.28-.2-.6-.4-.95-.6-.39-.22-.58-.68-.46-1.11l.35-1.3c.11-.39.43-.67.83-.72,3.58-.43,6.45-3.15,7.86-7.47,1.29-3.92,1.16-9.56-2.15-12.7-.27-.26-.37-.64-.26-.99,5.09-16.98,10.73-33.97,16.76-50.49.11-.3.36-.53.67-.61,3.38-.91,6.09-5.36,7.39-8.9,1.53-4.19,1.47-7.82-.17-9.96-.21-.27-.26-.64-.13-.96,3.76-9.54,7.72-19.09,11.77-28.37.13-.31.41-.53.74-.58,2.83-.46,5.52-3.27,7.19-7.5,1.17-2.97,1.92-7.07.5-9.64-.15-.28-.16-.61-.03-.89,4.87-10.44,9.98-20.81,15.2-30.82.15-.3.45-.5.78-.53,3.2-.3,5.78-3.44,7.13-6.27,1.46-3.07,1.68-6.12.58-8.17-.16-.3-.16-.65,0-.94,5.8-10.39,11.6-20.25,17.25-29.3.18-.29.49-.46.83-.46,2.68,0,5.4-1.95,7.46-5.34,1.57-2.59,2.87-6.35,1.82-9.13-.11-.3-.07-.63.1-.89,5.11-7.63,9.71-14.05,14.06-19.65.19-.24.47-.38.78-.38,2.8,0,5.97-2.09,8.08-5.33,1.61-2.45,2.13-4.99,1.45-6.96-.11-.32-.05-.68.17-.95,1.51-1.83,3.02-3.63,4.52-5.36.29-.33.76-.44,1.17-.24.4.19.62.63.54,1.06-8.7,48.66-66.52,183.25-106.93,239.66-.51.71-.49,1.68.06,2.37.53.66,1.51.92,2.29.59,17.82-7.44,50.21-49.37,80.59-104.33.14-.26.39-.44.68-.49,1.42-.26,2.77-1.15,3.79-2.51,1.27-1.69,2.45-4.69,1.58-7.58-.07-.25-.05-.52.07-.74,1.27-2.38,2.52-4.77,3.75-7.15,4.4-8.51,8.77-17.34,12.99-26.24.1-.2.25-.36.45-.46.78-.39,1.46-1,2.09-1.86,1.43-1.98,2.36-5.15,2.2-7.55-.01-.16.02-.33.09-.48,4.47-9.75,8.74-19.58,12.71-29.22.08-.2.24-.38.43-.48,2.4-1.32,3.97-4.34,4.63-6.73.54-1.92.56-3.61.07-4.91-.09-.23-.08-.48,0-.7,3.46-8.9,6.53-17.35,9.12-25.08.1-.29.32-.52.61-.62,2.19-.76,3.98-3.1,4.68-6.11.55-2.36.23-4.52-.87-5.93-.2-.25-.26-.58-.17-.88,9.66-33.16,4.34-35.88,2.34-36.9-.56-.3-1.24-.66-2.06-1.1-4.55-2.47-14.02-7.61-31.26-14.03-4.4-1.63-9.98-.87-16.59,2.26-48.84,23.07-148.65,166.87-195.51,301.83-.09.26-.3.48-.56.59-4.13,1.68-8.37,7.59-12.87,13.84-6.39,8.89-9.12,11.89-10.84,11.89s-4.46-3-10.84-11.88c-4.5-6.26-8.74-12.17-12.87-13.85-.26-.11-.46-.32-.56-.59C278.13,207.11,178.32,63.3,129.48,40.24c-6.62-3.13-12.2-3.9-16.6-2.26-17.22,6.42-26.71,11.56-31.26,14.03-.82.45-1.49.81-2.05,1.09-2,1.03-7.32,3.76,2.34,36.91.09.31.02.63-.17.88ZM212.05,440.33c-.09.03-.19.04-.28.04-.36,0-.7-.2-.87-.53-11.76-22.32-34.28-34.97-53.59-45.62-12.54-6.92-25.13-13.97-31.9-22.37-16.63-20.68-16.85-59.2-16.97-82.22l-.04-5.19c0-.36.19-.69.51-.87.32-.17.7-.16,1.01.03,55.8,35.81,97.12,98.38,102.83,155.69.05.46-.24.9-.69,1.04ZM221.56,505.91c-.15.33-.46.55-.82.58-.37.04-.7-.14-.9-.44-5.39-8.2-.97-15.9.51-18.06,5-7.32,15.39-11.94,25.57-6.63.66.35,1.44.29,2.05-.14.6-.42.91-1.14.81-1.87-2.99-21.45.41-37.32,4.84-42.98.82-1.06,1.7-1.73,2.35-1.8,3.07-.24,4.93,2.37,7.79,6.65,2.48,3.72,5.88,8.81,11.52,10.82.37.13.63.48.65.87.21,4,.86,8.13,1.91,12.29,3.98,15.71,6.21,35.84,8,52.01l.03.24c.54,4.86,1.02,9.26,1.49,12.93,1.21,9.38,5.71,16.61,10.05,23.6,3.11,4.99,6.04,9.71,7.47,14.84.33,1.18.72,2.54,1.18,4.11,4.03,13.95,12.41,42.94,5.78,56.01-4.63,6.58-9.79,10.91-13.89,11.7-.41.02-.63-.06-.81-.2-.23-.18-.36-.46-.36-.75-.15-22.2-2.04-38.26-5.95-50.53-1.91-6-3.4-13.49-4.83-20.73-1.9-9.61-3.7-18.68-6.38-23.57-1.49-2.72-3.72-5.62-6.31-8.97-5.41-7.01-12.07-15.67-15.38-27.17-.07-.25-.2-.5-.37-.7-4.83-5.85-13.56-9.78-21.72-9.78-2.5,0-4.81.37-6.85,1.1-3.55,1.27-6.05,3.49-7.44,6.58ZM283.79,435.24c2.23-2.87,5.24-4.33,8.95-4.33,8.97,0,17.1,13.95,24.95,27.44,9.12,15.66,18.54,31.84,31.57,31.84s22.45-16.18,31.56-31.83c7.86-13.5,15.98-27.44,24.96-27.44,3.71,0,6.72,1.45,8.95,4.33,4.48,5.76,5.28,16.6,2.14,29-4.05,15.99-6.3,36.28-8.1,52.59l-.07.63c-.52,4.68-.99,8.89-1.44,12.42-1.1,8.55-5.36,15.39-9.48,22-3.26,5.24-6.35,10.2-7.93,15.88-.29,1.04-.63,2.21-1,3.5l-.16.57c-2.86,9.88-7.64,26.42-8.27,40.52-.02.48-.38.87-.85.93-.46.05-.92-.22-1.07-.67-1.33-4.07-2.45-10.74-3.74-18.47-3.93-23.47-8.82-52.69-25.49-52.69s-21.57,29.22-25.49,52.69c-1.31,7.8-2.42,14.45-3.79,18.62-.13.41-.51.68-.93.68-.6-.07-.96-.47-.98-.94-.61-14.32-5.37-30.79-8.21-40.63l-.13-.46c-.41-1.44-.75-2.61-1.04-3.64-1.58-5.68-4.66-10.63-7.93-15.88-4.12-6.61-8.38-13.46-9.48-22-.45-3.53-.92-7.73-1.44-12.37l-.07-.66c-1.81-16.33-4.05-36.62-8.1-52.61-3.14-12.4-2.35-23.24,2.14-29ZM227.38,504.76c.3-.24.73-.28,1.07-.1.35.18.55.55.52.94-.66,8.88,3.44,17.34,9.52,19.67.46.18,1,.15,1.49-.06.49-.21.87-.61,1.05-1.07.19-.49.17-1.03-.04-1.51-.21-.48-.6-.84-1.09-1.03-4.69-1.8-8.57-9.88-6.66-18.61.09-.41.44-.73.87-.77,6.98-.67,15.42,2.62,20.02,7.81.09.11.17.23.21.37,1.91,6.38,5.03,12.68,9.52,19.24.21.3.23.7.05,1.02-.17.32-.5.52-.87.52-.08.03-.17,0-.25,0-2.47,0-5.06.44-7.57.86-3.08.53-6.14,1.05-9.45,1.05-10.67,0-21.47-7.31-21.47-21.29,0-3.05,1.03-5.42,3.07-7.06ZM288.72,678.18c-1.42,5.75-1.44,15.41-1.34,22.17,0,.41-.24.78-.62.93-.12.05-.24.07-.36.07-.27,0-.54-.12-.73-.32-2.42-2.69-4.78-5.06-6.76-7.03-6.71-6.69-11.56-11.51-13.03-20.1-2.32-13.51-8.65-38.23-14.77-62.15l-.12-.46c-2.45-9.58-5.23-20.43-7.44-29.5-.1-.42.08-.85.45-1.07.37-.22.84-.18,1.16.1,6.27,5.53,12.07,8.34,17.21,8.34,10.76,0,15.26-9.01,15.45-9.4.48-.97.08-2.15-.89-2.63-.97-.48-2.14-.08-2.63.89-.15.29-3.7,7.21-11.93,7.21-14.4,0-34.4-29.53-36.26-38.06-1.08-4.96-.46-9.65.2-14.61.07-.5.12-1,.18-1.51.04-.37.28-.68.63-.81.34-.14.74-.06,1.01.19,4.67,4.26,10.94,6.61,17.65,6.61,3.63,0,7.01-.58,9.98-1.08,5.17-.87,9.25-1.56,12.97.54.12.07.21.15.3.26l1.14,1.48c2.51,3.25,4.65,6.04,6.01,8.51,2.39,4.37,4.13,13.17,5.98,22.49,1.45,7.33,2.95,14.9,4.93,21.11,3.95,12.4,5.79,28.99,5.79,52.21,0,8.06-2.05,27.15-4.16,35.64ZM396.18,730.4c-.78,1.95-1.86,4.83-2.57,6.66-3.31,8.6-7.05,18.21-9.95,20.89-10.29,9.51-21.54,14.13-34.41,14.13s-24.12-4.62-34.41-14.13c-3-2.77-6.52-11.97-9.93-20.88-.84-2.21-1.71-4.47-2.59-6.68-.18-.44,0-.95.4-1.2.4-.25.93-.17,1.25.18,1.85,2.07,3.9,4.58,5.71,6.8,3.3,4.04,6.15,7.52,8.17,9.1,3.54,2.75,13.17,3.02,21.04,3.05,3.55,0,6.72-1.45,9.73-4.44.38-.37.99-.38,1.38,0,3.07,2.98,6.42,4.43,10.26,4.44,7.66,0,16.89-.35,20.38-3.05,2.02-1.57,4.88-5.07,8.19-9.12,1.98-2.42,3.92-4.79,5.7-6.78.33-.36.85-.42,1.25-.18.4.25.57.76.39,1.2ZM314.26,684.3c-.41-.03-.76-.31-.88-.7-.87-2.96-1.72-6.1-1.96-9.03-.03-.37.15-.73.47-.92.32-.2.72-.19,1.03.01,6.12,3.88,18.98,10.38,36.34,10.38s30.22-6.5,36.34-10.38c.32-.21.71-.21,1.04-.01.32.2.5.55.47.92-.25,2.94-1.11,6.14-2,9.15-.12.4-.47.68-.89.7-9.76.54-27.17,5.27-34.01,30.79-.12.43-.5.73-.95.73s-.83-.3-.95-.73c-6.82-25.4-24.26-30.28-34.05-30.92ZM342.78,712.37c-.19.18-.43.27-.68.27-.13,0-.26-.02-.38-.08-8.46-3.52-20.36-12.61-25.76-22.51-.18-.33-.16-.73.05-1.03.21-.3.58-.45.94-.42,8.54,1.14,20,6.01,26.06,22.71.13.36.04.77-.24,1.04ZM382.56,690.06c-5.4,9.9-17.31,18.98-25.77,22.5-.12.05-.25.08-.38.08-.25,0-.49-.1-.68-.27-.28-.27-.38-.68-.24-1.04,6.07-16.7,17.53-21.57,26.07-22.71.38-.05.73.12.94.42.21.3.23.7.05,1.03ZM407.06,706.64c-.05,1.98-.09,3.42-.09,4.38,0,2.49-3.61,5.54-7.98,8.99-1.67,1.32-3.39,2.67-4.77,4-2.53,2.45-5.57,6.17-8.49,9.74-2.86,3.5-5.83,7.14-7.5,8.43-1.89,1.48-8.05,2.23-18.3,2.23-3.26-.12-5.94-1.57-8.48-4.57-.15-.18-.23-.41-.23-.64.06-7.72.8-14.73,2.2-20.82.08-.36.36-.64.72-.73,12.15-3.06,29.7-17.15,34.11-30.72l.45-1.53c1.3-4.39,3.48-11.72,1.73-16.89-.21-.61-.71-1.09-1.33-1.27-.61-.17-1.29-.03-1.79.39-1.52,1.27-15.59,12.49-38.06,12.49s-36.54-11.22-38.07-12.5c-.5-.4-1.16-.54-1.8-.37-.61.17-1.1.64-1.31,1.26-1.75,5.16.43,12.49,1.72,16.86l.45,1.53c4.41,13.58,21.96,27.69,34.12,30.75.36.09.64.37.72.73,1.4,6.1,2.14,13.1,2.2,20.82,0,.23-.08.46-.23.64-2.64,3.12-5.37,4.57-8.6,4.57-10.08,0-16.3-.77-18.18-2.23-1.65-1.28-4.53-4.8-7.58-8.53-2.93-3.58-5.89-7.19-8.41-9.64-1.34-1.3-3-2.61-4.75-3.99-4.38-3.45-7.99-6.5-7.99-8.99,0-.96-.04-2.4-.08-4.16v-.25c-.2-7.29-.56-20.88,1.08-27.49,1.96-7.91,3.83-24.24,4.2-33.56.02-.49.39-.89.88-.94,10.25-1.1,21.54-16.83,26.13-30.76,1.43-4.36,2.57-11.18,3.9-19.08,3.49-20.85,8.27-49.41,21.62-49.41s18.13,28.56,21.62,49.41c1.32,7.89,2.46,14.71,3.89,19.08,4.58,13.93,15.88,29.66,26.13,30.77.48.05.86.45.88.94.37,9.32,2.24,25.65,4.2,33.56,1.64,6.6,1.28,20.2,1.09,27.51ZM472.4,547.17c-1.86,8.52-21.86,38.06-36.26,38.06-8.23,0-11.78-6.91-11.92-7.2-.23-.47-.63-.82-1.14-1-.49-.16-1.03-.13-1.5.1-.46.23-.82.63-.99,1.12-.17.49-.13,1.03.1,1.5.19.38,4.73,9.4,15.45,9.4,5.15,0,10.94-2.8,17.21-8.34.32-.28.79-.32,1.16-.1.37.22.55.66.44,1.07-2.24,9.19-5.04,20.13-7.51,29.78-6.17,24.1-12.5,48.83-14.82,62.33-1.48,8.59-6.32,13.41-13.02,20.09-2.12,2.11-4.4,4.41-6.77,7.04-.19.21-.46.33-.73.33-.12,0-.24-.02-.36-.07-.38-.15-.63-.52-.62-.93.11-6.76.08-16.42-1.34-22.16-2.1-8.49-4.16-27.59-4.16-35.64,0-23.22,1.84-39.81,5.79-52.21,1.98-6.21,3.49-13.82,4.94-21.17,1.84-9.29,3.58-18.07,5.96-22.43,1.35-2.47,3.5-5.26,5.99-8.49l1.15-1.5c.08-.1.18-.19.3-.26,3.73-2.1,7.82-1.41,12.98-.54,2.98.51,6.35,1.08,9.98,1.08,6.72,0,12.99-2.35,17.67-6.61.27-.25.67-.31,1.02-.19.35.13.59.46.62.83.05.51.1,1.01.16,1.51.66,4.96,1.28,9.66.2,14.61ZM452.73,533.1c-3.3,0-6.37-.52-9.33-1.03-2.68-.45-5.29-.86-7.77-.86-.35,0-.68-.19-.86-.5-.17-.31-.17-.69.01-.99l1.19-1.97c.91-1.5,1.8-2.96,2.61-4.4.15-.27.42-.45.73-.49.32-.03.61.07.83.28,1.53,1.55,3.68,2.69,5.9,3.12,1.08.17,2.09-.51,2.29-1.56.1-.51,0-1.04-.3-1.47-.29-.43-.74-.73-1.27-.83-1.64-.31-4.83-1.72-5.16-4.81-.02-.17,0-.34.07-.5,1.04-2.39,1.85-4.58,2.49-6.68.04-.13.11-.26.21-.37,4.6-5.19,12.99-8.49,20.02-7.82.43.04.78.35.87.77,1.92,8.73-1.97,16.81-6.66,18.61-.49.19-.88.55-1.09,1.03-.21.48-.23,1.01-.04,1.5.37.98,1.56,1.5,2.54,1.14,6.08-2.33,10.16-10.81,9.48-19.71-.03-.39.17-.76.52-.94.35-.18.76-.14,1.07.1,2.06,1.64,3.11,4.02,3.11,7.09,0,13.97-10.8,21.29-21.47,21.29ZM478.67,506.05c-.2.3-.54.49-.9.44-.36-.03-.67-.25-.82-.58-1.39-3.09-3.89-5.31-7.44-6.58-8.95-3.22-22.04.76-28.57,8.68-.17.2-.3.45-.37.71-3.31,11.48-9.97,20.14-15.33,27.09-2.63,3.41-4.87,6.31-6.36,9.04-2.68,4.9-4.48,13.98-6.38,23.6-1.44,7.24-2.92,14.71-4.83,20.7-3.91,12.27-5.8,28.32-5.95,50.53,0,.29-.13.57-.36.75-.18.15-.4.22-.62.22-4.28-.81-9.41-5.07-13.92-11.43-6.79-13.35,1.6-42.4,5.64-56.36.44-1.51.83-2.87,1.16-4.05,1.43-5.13,4.37-9.85,7.48-14.85,4.34-6.98,8.83-14.19,10.04-23.58.47-3.67.96-8.07,1.49-12.92l.03-.25c1.79-16.16,4.01-36.29,8-52,1.05-4.16,1.7-8.29,1.91-12.29.02-.4.28-.74.65-.87,5.64-2.02,9.04-7.11,11.52-10.82,3.24-4.86,5.06-6.95,7.73-6.66.72.08,1.58.74,2.41,1.81,4.42,5.66,7.83,21.53,4.84,42.97-.1.73.21,1.45.82,1.88.61.43,1.39.47,2.04.13,10.18-5.32,20.57-.68,25.58,6.63,1.48,2.16,5.9,9.86.51,18.06ZM589.61,283.57c.31.17.51.51.51.87l-.04,5.19c-.13,23.03-.34,61.54-16.97,82.21-6.92,8.61-19.04,15.29-31.87,22.36-19.57,10.79-41.7,22.99-53.62,45.64-.17.33-.51.53-.87.53-.09,0-.19-.01-.28-.04-.45-.13-.74-.57-.69-1.04,5.71-57.31,47.03-119.88,102.83-155.69.31-.2.69-.21,1.01-.03ZM526.89,81.57c17.19-19.29,32.34-32.36,43.82-37.78,5.64-2.66,10.2-3.38,13.54-2.13,16.97,6.32,25.95,11.19,30.77,13.8l.3.16c.78.42,1.31.71,1.64.86.1.05.19.11.26.18.42.4,3.84,4.73-4.95,34.27-.04.28-.06.45-.04.63.08.69.51,1.3,1.14,1.59.28.13.48.38.55.67.13.54.09,1.34-.09,2.12-.39,1.68-1.32,3-1.96,3.26-.16.07-.34.08-.51.07-1.73-.24-4.31-1.4-7.29-2.74-3.48-1.57-7.33-3.3-11.66-4.5-1.05-.31-2.13.32-2.42,1.36-.29,1.04.32,2.13,1.36,2.42,4,1.12,7.72,2.78,10.99,4.25,2,.9,3.72,1.67,5.28,2.23.5.18.77.73.6,1.24-2.66,7.89-5.73,16.28-9.12,24.93-.13.31-.18.6-.17.95.04.25.07.44.15.63.08.2.19.37.32.52.13.15.21.34.23.53.03.29.09,1.37-.57,3.04-.47,1.2-1.14,2.28-1.85,2.95-.27.25-.67.34-1.02.2l-15.2-5.76c-.49-.19-1.02-.18-1.5.04-.48.21-.85.61-1.03,1.1-.19.49-.17,1.02.05,1.5.22.48.6.84,1.09,1.02l13.6,5.16c.25.09.45.28.55.53.11.25.11.52,0,.77-3.92,9.47-8.05,18.92-12.26,28.08,0,.03-.07.3-.08.33-.03.1-.06.21-.07.31-.01.15,0,.28.02.4l.03.31c.41,1.53-.98,5.12-2.09,5.94-.12.09-.25.15-.4.18-.11.02-.24.05-.39.11-.09.04-.19.11-.31.19-.09.07-.19.13-.28.21-.1.1-.16.2-.23.3l-.19.26c-4.3,9.1-8.83,18.27-13.45,27.21-1.44,2.78-2.9,5.56-4.37,8.32-.01.06-.05.18-.07.24-.04.1-.09.23-.11.35-.02.13-.03.25-.03.39,0,.13,0,.25.04.38.03.12.07.23.09.27l.13.33c.67,1.14.36,3.18-.73,4.63-.16.21-.72.91-1.29,1.04-.16.03-.31.03-.46,0-3.78-.98-8.99-2.69-11.61-4.07-.96-.51-2.15-.13-2.66.83-.24.46-.29.99-.13,1.49.16.5.5.91.96,1.15,1.92,1.01,5.14,2.24,8.85,3.37.28.09.51.3.62.57.11.28.09.59-.05.84-22.32,40.1-47.15,75.22-64.82,91.65-.19.18-.43.26-.67.26-.22,0-.45-.08-.63-.23-.38-.32-.47-.87-.2-1.28,10.59-16.66,22.69-38.69,35.01-63.71.23-.46.77-.68,1.26-.47l1.79.75c1.75.74,3.49,1.47,4.25,1.75.47.17,1.02.13,1.5-.09.48-.23.86-.62,1.02-1.09.37-1.01-.16-2.14-1.18-2.51-.66-.24-2.07-.84-3.65-1.5l-1.91-.8c-.25-.1-.44-.31-.54-.56-.1-.25-.08-.53.03-.78,32.87-67.73,60.74-142.84,62.12-167.43.01-.23.11-.45.27-.62,1.26-1.32,2.49-2.58,3.7-3.77.21-.21.48-.31.79-.28,3.89.43,7.36-2.46,8.89-5.31.57-1.06.86-2.06.85-2.99,0-.33.16-.64.44-.83,2.45-1.64,4.07-2.27,5-2.51.29-.08.61,0,.85.18.24.19.38.48.38.78-.01,1.96-.61,6.12-3.34,14.75-.16.5-.11,1.04.13,1.51.24.46.65.8,1.15.96.49.16,1.02.11,1.49-.13.47-.24.82-.66.98-1.14,5.29-16.69,3.68-19.82,1.14-20.72-2.44-.84-5.76.2-10.18,3.22-.32.22-.74.23-1.06.03-6.31-3.83-18.1-8.42-19.42-8.93-.5-.18-1.04-.18-1.53.03-.47.21-.84.6-1.03,1.09-.19.49-.17,1.02.04,1.51.22.48.6.85,1.12,1.04,2.27.88,13.83,5.45,19.25,8.9.43.27.58.83.35,1.28-.26.51-.87,1.48-2,2.34-1.31.99-2.63,1.29-3.81.85-.04,0-.26-.05-.3-.06l-.28-.09c-.25.02-.33.04-.5.08-.16.03-.28.05-.36.08-.11.05-.18.1-.27.16-.2.12-.28.16-.35.23-4.89,4.72-10.3,10.67-16.1,17.68-.33.39-.9.48-1.32.18-6.56-4.55-20.89-11.42-30.95-14-1.04-.26-2.11.37-2.39,1.42-.27,1.05.37,2.12,1.42,2.39,10.75,2.76,26.93,10.73,31.62,14.9.08.07.14.15.2.24.48.83-.16,2.52-.96,3.74-1.06,1.63-2.63,2.94-3.98,3.33-.43.13-.88-.05-1.11-.43-3.07-5.04-15.53-10.76-38.11-17.5-.32-.1-.57-.35-.67-.67-.09-.32-.01-.67.21-.92ZM378.07,341.03c19.27-54.78,49.39-115.94,84.83-172.22.09-.14.21-.26.36-.34,4.2-2.33,11.28-.56,15.09.39l.33.08c.77.18,1.46.36,2.05.48,1.06.23,2.12-.47,2.34-1.52.11-.51,0-1.04-.28-1.48-.29-.44-.73-.74-1.25-.84-.53-.11-1.15-.26-1.83-.43l-.41-.1c-2.63-.65-7.05-1.74-11.16-1.65-.35-.08-.7-.18-.88-.5-.18-.32-.17-.71.03-1.01,18.57-28.91,37.71-54.99,55.34-75.43.25-.29.66-.41,1.02-.3,28.26,8.24,35.92,13.47,37.98,15.86.3.35.32.86.04,1.23-4.41,5.91-8.91,12.28-13.4,18.95-.3.44-.89.56-1.34.28-6.31-3.94-20.67-10.96-32.33-13.07-.51-.1-1.01.02-1.44.31-.44.31-.73.76-.83,1.27-.19,1.06.52,2.08,1.59,2.28,11.72,2.12,28.01,10.2,32.97,13.89.21.15.34.38.38.63.12.76-.06,2.87-1.62,5.44-1.27,2.09-3.28,3.99-4.73,3.29,0,0-.25-.06-.25-.06-.17-.05-.27-.07-.37-.08-.12,0-.26,0-.44.02-.11.01-.2.02-.29.04-.12.03-.25.1-.34.15-.14.07-.23.12-.34.2-.08.07-.16.16-.26.28l-.2.22c-5.98,9.52-12,19.74-17.9,30.36-.26.47-.85.65-1.33.39-7.32-3.96-21.44-10.63-28.5-12.37-1.05-.27-2.11.4-2.37,1.44-.13.51-.05,1.04.23,1.48.27.45.7.77,1.21.89,7.81,1.92,25.03,10.39,29.92,13.3.14.08.25.2.34.33.49.81.2,2.81-.68,4.66-1.24,2.59-3.26,4.4-4.5,3.99,0,0-.24-.04-.25-.04-.2-.04-.35-.06-.43-.07-.15,0-.27.02-.3.03-.2.03-.32.06-.42.1-.14.05-.25.12-.4.21-.08.05-.17.11-.25.19-.09.09-.16.19-.23.29l-.19.25c-5.26,10.02-10.55,20.71-15.71,31.74-.23.49-.81.71-1.29.48-10.05-4.52-30.75-12.04-41.63-14.04-1.06-.18-2.07.51-2.26,1.58-.1.52.02,1.04.31,1.47.3.44.75.73,1.26.82,11.22,2.06,34.04,10.44,42.98,14.82.26.13.45.37.52.65.2.83.23,3.02-.92,5.92-1.17,2.96-3.22,5.64-4.82,5.03-.3-.03-.44-.06-.57-.04-.15,0-.25.03-.35.06-.14.03-.27.07-.38.12-.11.05-.19.11-.32.2-.1.07-.2.14-.3.25-.08.09-.14.18-.21.3l-.18.27c-4.08,9.3-8.21,19.23-12.26,29.46-.2.5-.75.75-1.25.56-9.35-3.46-29-9.21-29.18-9.26-1.04-.28-2.14.31-2.44,1.33-.15.51-.09,1.04.16,1.5.26.47.68.8,1.22.96.25.07,24.68,7.26,31.45,10.17,1.19.75,1.12,3.48,0,6.56-1.43,3.91-3.65,6.18-4.33,6.47-.21.09-.45.1-.67.03-.68-.22-1.37-.03-1.91.5-.19.18-.27.33-.33.46l-.18.3c-4.94,13.45-9.73,27.53-14.2,41.8-.08.25-.25.46-.49.58-.23.12-.5.14-.75.07-6.9-2.22-16.89-4.67-16.98-4.7-.52-.13-1.05-.04-1.49.23-.45.27-.76.7-.89,1.21-.26,1.07.4,2.12,1.51,2.39,3.17.79,11.13,2.82,16.72,4.63.51.17.8.71.64,1.23l-1.22,3.98c-.08.25-.25.47-.49.59-.24.12-.52.14-.77.05-12.06-4.09-46.41-11.67-52.27-12.56-.37-.04-.94-.03-1.46.34-.43.31-.71.77-.79,1.3-.08.52.05,1.04.36,1.47.31.42.77.7,1.28.78,6.73,1.03,47.56,10.16,54.23,13.4,2.74,1.34,3.18,5.77,2.03,9.28-.42,1.3-2.06,5.54-5.93,4.76-.35,0-.51,0-.81.06-.27.09-.44.16-.59.26-.31.26-.42.37-.53.51-.05.07-.09.16-.17.33-.06.11-.12.23-.14.3l-.69,2.54c-.07.26-.26.49-.5.61-.14.07-.29.11-.44.11-.12,0-.24-.02-.35-.07-15.53-5.95-51.31-13.27-64.7-14.54-.3-.03-.57-.2-.73-.45-.16-.25-.2-.57-.1-.86ZM323.45,346.08c2.37.22,6.11,4.83,11.78,12.72,5.21,7.25,9.71,13.52,14.03,13.52s8.82-6.27,14.04-13.52c5.66-7.89,9.4-12.5,11.77-12.71,7.91-.68,62.92,10.22,72.51,17.02,4.07,2.89,3.67,9.45,3.28,15.79-.34,5.5-.63,10.24,1.95,12.98,1.2,1.27,2.85,1.91,4.93,1.91,14.5,0,24.73-14.48,37.69-32.82,7.51-10.63,16.03-22.68,26.93-34.23,9.4-9.97,24.8-24.13,44.75-34.95.44-.25,1.01-.11,1.29.32.28.42.19.99-.21,1.31-50.14,39.88-85.05,101.94-86.87,154.43-.02.43-.31.79-.72.91-.41.13-.85-.05-1.09-.4-8.59-12.97-14.25-27.36-17.63-35.96l-.74-1.88c-.19-.5-.57-.88-1.06-1.09-.48-.2-1.01-.21-1.48-.02-1.01.4-1.51,1.55-1.11,2.55l.73,1.86c4.31,10.97,11.51,29.3,23.49,44.29,6.89,8.63,7.3,15.67,1.65,27.89-.15.32-.46.54-.82.56-.4.06-.7-.14-.89-.44l-.23-.35c-4.74-6.92-14.89-12.93-25.94-9.77-.31.1-.65.02-.9-.19-.25-.21-.38-.53-.35-.85,2.16-21.61-2-35.59-6.22-41-1.56-2-3.26-3.1-5.06-3.3-5.54-.58-8.52,4-11.45,8.38-2.11,3.16-4.29,6.42-7.49,8.34-.29.17-.65.18-.95.03-.3-.16-.5-.46-.53-.79-.47-5.69-2.09-10.46-4.68-13.79-2.98-3.82-7.14-5.84-12.05-5.84-11.24,0-19.55,14.28-28.36,29.4-8.55,14.69-17.39,29.87-28.16,29.87s-19.62-15.19-28.17-29.88c-8.8-15.12-17.12-29.4-28.35-29.4-4.91,0-9.08,2.02-12.05,5.84-2.59,3.33-4.21,8.1-4.68,13.79-.03.34-.23.64-.53.79-.3.16-.66.15-.95-.03-3.19-1.92-5.38-5.18-7.49-8.34-2.96-4.43-6-8.98-11.45-8.39-1.8.2-3.5,1.3-5.06,3.3-4.22,5.41-8.38,19.39-6.22,41,.03.33-.1.64-.35.85-.25.21-.58.29-.9.19-11.05-3.16-21.2,2.85-25.94,9.77l-.23.34c-.18.29-.49.46-.83.46-.42-.03-.74-.25-.89-.57-5.66-12.23-5.24-19.26,1.65-27.89,11.99-15.01,19.19-33.34,23.49-44.3l.73-1.85c.19-.49.18-1.02-.02-1.5-.21-.48-.59-.85-1.07-1.04-.49-.2-1.01-.2-1.5.02-.48.21-.86.59-1.05,1.09l-.73,1.86c-3.37,8.59-9.02,22.97-17.64,35.99-.24.36-.67.53-1.09.4-.41-.11-.7-.48-.72-.91-1.82-52.5-36.73-114.56-86.87-154.44-.4-.31-.49-.89-.21-1.31.28-.43.84-.57,1.29-.32,19.95,10.82,35.35,24.98,44.75,34.95,10.9,11.56,19.43,23.62,26.95,34.26,12.95,18.32,23.18,32.79,37.67,32.79,2.08,0,3.74-.64,4.93-1.91,2.58-2.74,2.29-7.48,1.95-12.97-.39-6.35-.79-12.91,3.28-15.8,9.28-6.58,65.62-17.71,72.5-17.02ZM175.9,86.46c17.65,20.46,36.79,46.55,55.35,75.44.2.3.21.69.03,1.01-.18.31-.53.49-.88.5-4.11-.1-8.54.99-11.16,1.63l-.43.1c-.68.17-1.3.32-1.83.43-.51.11-.96.41-1.24.84-.29.44-.39.96-.28,1.48.22,1.04,1.4,1.73,2.32,1.53.68-.14,1.47-.34,2.35-.56,3.9-.96,10.97-2.7,15.15-.4.15.08.27.2.35.34,35.43,56.26,65.56,117.42,84.83,172.21.1.28.06.6-.1.86-.16.25-.43.42-.73.45-13.02,1.24-50.14,8.68-65.61,14.9-.29-.99-.68-2.29-1.02-3.37-.32-1.02-1.24-1.78-2.37-1.61-3.76.69-5.43-3.48-5.85-4.78-1.15-3.51-.71-7.94,2.03-9.28,6.67-3.24,47.5-12.37,54.23-13.4.52-.08.97-.36,1.29-.78.31-.43.44-.94.36-1.46-.08-.52-.37-.99-.8-1.3-.43-.31-.93-.43-1.42-.35-5.91.91-40.33,8.5-52.37,12.59-.25.09-.53.07-.77-.06-.24-.12-.41-.33-.49-.59l-1.21-3.99c-.16-.51.13-1.06.64-1.22,6.18-1.99,15.12-4.24,16.85-4.66,1.05-.26,1.7-1.33,1.44-2.38-.12-.51-.44-.94-.89-1.21-.45-.27-.97-.35-1.49-.23-.1.02-10.11,2.48-17.03,4.71-.25.08-.52.05-.75-.07-.23-.12-.41-.33-.49-.58-4.36-14.08-9.13-28.16-14.17-41.86l-.13-.21c-.12-.21-.18-.33-.31-.47-.61-.58-1.32-.71-1.71-.56-.18.08-.39.08-.59.03-1.06-.28-3.28-2.69-4.68-6.5-1.07-2.94-1.17-5.71-.23-6.44.07-.05.14-.1.21-.13,6.73-2.9,30.49-9.89,31.5-10.19.5-.15.92-.48,1.17-.94.25-.46.31-.99.16-1.5-.31-1.03-1.4-1.63-2.44-1.33-.19.06-19.88,5.82-29.18,9.26-.5.19-1.06-.06-1.25-.56-4.05-10.24-8.17-20.16-12.28-29.5-.02-.03-.17-.24-.19-.27-.06-.09-.11-.18-.19-.26-.09-.09-.19-.17-.34-.27-.08-.05-.16-.11-.26-.16-.12-.05-.23-.08-.38-.12-.14-.04-.24-.06-.37-.07-.14,0-.3.03-.33.03l-.34.04c-1.3.47-3.38-1.7-4.71-5.07-1.15-2.91-1.12-5.09-.92-5.92.07-.28.26-.52.52-.65,8.94-4.38,31.75-12.76,42.98-14.82.51-.09.96-.38,1.26-.82.3-.43.41-.95.32-1.47-.19-1.06-1.2-1.78-2.33-1.57-10.83,1.98-31.52,9.51-41.56,14.03-.49.23-1.06.01-1.29-.48-5.19-11.09-10.48-21.78-15.72-31.78-.08-.06-.12-.13-.18-.21-.06-.08-.14-.19-.22-.28-.1-.1-.19-.16-.29-.21-.12-.08-.23-.15-.38-.2-.07-.03-.17-.05-.31-.07-.13-.02-.25-.03-.37-.05-.11,0-.23.02-.38.05l-.33.06c-.19.1-.55.1-.96-.03-.99-.35-2.46-1.7-3.54-3.96-.95-2-1.08-3.81-.87-4.39.08-.21.22-.39.42-.51,4.86-2.93,22.1-11.44,30.02-13.39.51-.12.94-.44,1.21-.89s.35-.97.23-1.48c-.25-1.03-1.34-1.68-2.38-1.44-7.07,1.74-21.18,8.41-28.49,12.37-.47.26-1.06.08-1.33-.39-5.9-10.62-11.92-20.84-17.92-30.39-.04-.04-.15-.15-.18-.19-.09-.1-.17-.21-.27-.29-.09-.08-.17-.12-.25-.16-.13-.07-.26-.15-.44-.2-.08-.02-.16-.03-.26-.04-.13-.02-.29-.03-.47-.02-.08,0-.18.04-.34.08l-.3.08c-1.41.7-3.42-1.24-4.68-3.32-1.56-2.56-1.74-4.68-1.62-5.44.04-.25.18-.48.38-.63,4.96-3.69,21.25-11.77,32.97-13.89,1.06-.2,1.77-1.22,1.58-2.29-.2-1.06-1.22-1.8-2.28-1.58-11.65,2.11-26,9.14-32.32,13.07-.45.28-1.04.15-1.34-.28-4.48-6.66-8.99-13.04-13.4-18.95-.28-.37-.26-.88.04-1.23,2.05-2.39,9.71-7.62,37.98-15.86.36-.11.77.01,1.02.3ZM81.16,56.81c.09-.11.2-.2.32-.27.45-.23.98-.51,1.59-.84l.43-.23c4.81-2.61,13.77-7.47,30.76-13.8,3.34-1.25,7.9-.54,13.54,2.12,11.48,5.42,26.63,18.48,43.83,37.78.22.25.3.6.21.92-.09.32-.34.58-.67.67-22.58,6.74-35.05,12.46-38.11,17.49-.23.38-.69.56-1.11.43-1.35-.38-2.92-1.69-3.99-3.33-.79-1.21-1.43-2.89-.98-3.71.05-.1.12-.18.21-.26,4.34-3.86,17.86-11.32,29.14-14.21.51-.13.94-.45,1.2-.91.27-.45.34-.98.21-1.48-.13-.51-.45-.94-.91-1.21-.46-.28-.98-.35-1.46-.21-10.24,2.63-22.31,8.8-28.46,13.27-.42.31-1,.23-1.34-.17-5.79-7-11.2-12.95-16.09-17.66-.07-.07-.14-.11-.28-.18-.18-.12-.29-.18-.35-.21-.07-.03-.19-.05-.41-.1-.3-.06-.47-.04-.73.02l-.33.07c-1.12.46-2.45.16-3.78-.86-1.12-.85-1.73-1.83-1.99-2.34-.23-.45-.08-1.01.35-1.28,5.42-3.44,17.01-8.02,19.28-8.91.5-.19.88-.55,1.1-1.03.21-.48.23-1.02.04-1.51-.19-.49-.56-.88-1.04-1.09-.49-.21-1.01-.23-1.48-.04-.54.21-12.91,4.96-19.46,8.94-.33.2-.74.19-1.07-.03-4.56-3.13-7.93-4.16-10.28-3.17-4.17,1.74-3.01,8.54.6,20.49.14.48.5.89.97,1.14.47.26,1.01.32,1.48.17,1.04-.31,1.63-1.41,1.31-2.45-3.04-10.09-3.27-13.65-3.14-14.87.03-.26.17-.51.38-.67.21-.16.49-.23.74-.19.92.13,2.64.71,5.54,2.68.27.18.43.49.43.82,0,.93.28,1.94.85,2.99,1.53,2.83,4.98,5.74,8.9,5.31.29-.03.58.07.79.28,1.21,1.19,2.44,2.45,3.7,3.77.16.17.25.39.27.62,1.38,24.64,29.3,99.86,62.24,167.67.12.25.13.54.02.8-.1.26-.31.46-.58.56l-4.89,1.76c-1.02.37-1.55,1.5-1.19,2.51.36,1.02,1.49,1.55,2.52,1.19l5.48-1.98c.47-.16,1,.04,1.21.49,12.25,24.88,24.31,46.81,34.88,63.44.26.41.18.96-.2,1.28-.18.15-.4.23-.63.23-.24,0-.48-.09-.67-.26-17.66-16.43-42.5-51.55-64.82-91.65-.15-.26-.17-.57-.05-.84.11-.27.34-.48.62-.57,3.71-1.14,6.93-2.37,8.85-3.37.47-.24.81-.65.96-1.16.16-.5.11-1.03-.14-1.5-.24-.46-.66-.81-1.16-.96-.5-.16-1.03-.11-1.49.13-2.7,1.42-7.89,3.11-11.57,4.08-.14.03-.3.04-.45,0-.41-.08-.91-.48-1.34-1.04-1.09-1.44-1.41-3.48-.72-4.65.14-.35.18-.48.21-.59.03-.13.04-.24.04-.36,0-.11,0-.24-.02-.37-.02-.15-.07-.26-.08-.3l-.12-.35c-1.47-2.75-2.93-5.52-4.36-8.31l-1.18-2.33c-.13-.26-.14-.56-.03-.82.11-.26.33-.47.6-.56,3.78-1.24,8.86-3.33,10.08-4.15.44-.29.73-.73.83-1.24.1-.52,0-1.04-.3-1.48-.3-.44-.75-.74-1.27-.84-.51-.1-1.02,0-1.45.3-1.11.74-6.98,3.04-9.98,3.99-.46.14-.96-.07-1.17-.5-3.54-7.02-6.67-13.39-9.55-19.48-.22-.38-.33-.54-.45-.66-.07-.07-.12-.11-.21-.17-.13-.1-.26-.18-.41-.25-.12-.05-.26-.08-.55-.15-.14-.03-.27-.1-.38-.19-.94-.77-2.32-4.27-1.91-5.88,0-.05.02-.21.02-.26.02-.15.04-.29.02-.43,0-.12-.04-.23-.08-.38l-.08-.3c-4.71-10.25-9.25-20.68-13.47-30.95-.1-.15-.19-.28-.33-.45l-.15-.15c-.11-.1-.24-.19-.37-.25-.03-.01-.31-.15-.34-.16-.02,0-.16-.06-.21-.08-.74-.24-1.91-1.55-2.67-3.52-.45-1.17-.56-2.04-.58-2.56,0-.41.24-.79.63-.94,3.06-1.17,11.51-4.32,14.28-5.12.5-.15.92-.48,1.17-.94.25-.46.31-.99.17-1.5-.15-.51-.48-.92-.94-1.18-.46-.25-.99-.31-1.49-.17-2.62.77-9.42,3.27-13.03,4.63-.51.2-1.07-.06-1.26-.56-3-7.76-5.73-15.27-8.11-22.33-.17-.5.09-1.04.58-1.23,1.49-.57,3.11-1.32,4.65-2.03,3.94-1.83,8.37-3.88,12.89-4.71,1.06-.2,1.77-1.23,1.57-2.29-.19-1.05-1.19-1.72-2.33-1.57-4.97.92-9.85,3.18-13.78,5-2.68,1.24-5.2,2.41-6.59,2.63-.16.02-.31,0-.45-.03-.81-.26-1.77-1.75-2.13-3.3-.18-.78-.22-1.57-.09-2.12.07-.3.27-.54.55-.67.62-.28,1.05-.88,1.13-1.56.03-.21,0-.38-.07-.69-8.09-27.24-5.91-32.98-5.05-34.08Z"/></g></svg>