<?xml version="1.0" encoding="UTF-8"?><svg id="Layer_2" xmlns="http://www.w3.org/2000/svg" viewBox="0 0 779.88 637.53"><defs><style>.cls-1{fill:#bc9f88;}.cls-1,.cls-2,.cls-3{stroke:#3f1847;}.cls-1,.cls-2,.cls-3,.cls-4{stroke-miterlimit:10;stroke-width:12px;}.cls-2{fill:#3f1847;}.cls-3{fill:none;}.cls-4{fill:#b29176;stroke:#58365f;}</style></defs><g id="graphics"><path class="cls-2" d="M639.91,86.3c0,44.34-125.82,80.29-281.03,80.29S77.85,130.64,77.85,86.3,203.67,6,358.88,6s281.03,35.95,281.03,80.3Z"/><path class="cls-4" d="M711.76,530.7c0,55.69-157.99,100.83-352.88,100.83S6,586.39,6,530.7c0-32.97,55.39-62.25,141.05-80.64,4.2,4.83,8.58,9.52,13.11,14.05,50.85,50.85,121.11,82.31,198.72,82.31,84.52,0,160.33-37.31,211.84-96.35,85.65,18.39,141.04,47.67,141.04,80.64Z"/><path class="cls-1" d="M639.91,86.3v179.08c0,70.69-26.1,135.29-69.19,184.68-51.52,59.04-127.33,96.35-211.84,96.35-77.6,0-147.86-31.46-198.72-82.31-4.53-4.53-8.91-9.22-13.11-14.05-43.1-49.38-69.2-113.98-69.2-184.67V86.3c0,44.34,125.82,80.29,281.03,80.29s281.03-35.95,281.03-80.29Z"/><path class="cls-3" d="M633.66,179.28h73.05c37.09,0,67.17,44.22,67.17,98.77h0c0,54.55-30.07,98.77-67.17,98.77h-89.76"/></g></svg>