<?xml version="1.0" encoding="UTF-8"?><svg id="Layer_2" xmlns="http://www.w3.org/2000/svg" viewBox="0 0 112.97 125.58"><defs><style>.cls-1{fill:#e3cda2;}</style></defs><g id="graphics2"><path class="cls-1" d="M109.21,114.23h.03c-.6.22-14.69,5.52-24.97-6.93-13.76-20.45.87-42.86,8.74-54.91l.18-.28c3.03-4.65,4.74-10.78,4.8-17.27.07-6.49-1.52-13.06-4.48-18.51-2.67-4.92-6.3-8.84-10.8-11.64-4.99-3.11-10.82-4.68-17.32-4.68-12.39,0-22.32,5.33-27.95,15.01-6.13,10.54-6.15,24.85-.04,35.6,2.28,4.01,4.04,8.08,5.28,12.2-4.42-3.13-9.8-4.98-15.61-4.98-14.93,0-27.07,12.14-27.07,27.07s12.14,27.07,27.07,27.07c11.34,0,21.07-7.02,25.09-16.93h.01c.03-.07.12-.29.24-.63.51-1.34.91-2.73,1.2-4.17,1.86-7.99,3.65-25.05-7.46-44.61-4.33-7.62-4.33-18.13,0-25.57,3.81-6.55,10.47-10.01,19.26-10.01,10.98,0,16.54,6.01,19.28,11.06,4.32,7.99,4.36,18.95.09,25.49l-.18.28c-4.2,6.43-10.55,16.16-13.87,27.59-4.16,14.32-2.36,27.33,5.36,38.66.08.12.16.23.25.34,7.85,9.66,17.4,11.91,24.02,12.09.32,0,.63.01.94.01,6.47,0,11.14-1.81,11.68-2.02l-3.76-9.33ZM27.07,101.91c-9.38,0-17.01-7.63-17.01-17.01s7.63-17.01,17.01-17.01,17.01,7.63,17.01,17.01c0,1.11-.11,2.19-.32,3.24-.24,1.03-.48,1.82-.65,2.35-2.32,6.64-8.63,11.42-16.05,11.42Z"/></g></svg>