<?xml version="1.0" encoding="UTF-8"?><svg id="Layer_2" xmlns="http://www.w3.org/2000/svg" viewBox="0 0 698.52 935.47"><defs><style>.cls-1{fill:#58365f;}</style></defs><g id="graphics"><path class="cls-1" d="M333.28,253.34c.22,1.02,1.32,1.69,2.29,1.49,1.04-.22,1.71-1.25,1.49-2.3-.57-2.65-1.12-5.4-1.68-8.2-.1-.52-.4-.96-.84-1.25-.31-.21-.67-.31-1.03-.31-.13,0-.26.01-.39.04-.52.1-.96.39-1.25.83-.29.43-.39.94-.29,1.45.56,2.82,1.12,5.58,1.69,8.26Z"/><path class="cls-1" d="M252.51,200.71c-.22-.46-.61-.81-1.1-.99-.21-.07-.43-.11-.64-.11-.29,0-.57.06-.84.19-.96.46-1.36,1.62-.9,2.58,4.52,9.4,12.4,15.56,21.48,22.07.84.6,2.1.39,2.7-.44.3-.42.42-.93.34-1.44-.08-.51-.36-.96-.78-1.26-8.63-6.2-16.12-12.02-20.25-20.61Z"/><path class="cls-1" d="M281.24,227.46c-.34-.26-.74-.39-1.14-.39-.09,0-.18,0-.27.02-.53.07-.98.34-1.3.76-.64.85-.46,2.07.39,2.71,1.9,1.42,3.56,2.74,5.1,4.03.79.67,2.06.55,2.73-.24.68-.81.57-2.04-.24-2.72-1.53-1.28-3.25-2.64-5.27-4.16Z"/><path class="cls-1" d="M107.49,534.95c.4.96,1.58,1.43,2.53,1.04.98-.41,1.45-1.55,1.04-2.53-.55-1.32-1-2.68-1.32-4.05-.12-.5-.43-.93-.87-1.2-.32-.19-.66-.29-1.02-.29-.15,0-.29.02-.44.05-1.04.25-1.69,1.29-1.44,2.33.37,1.57.88,3.14,1.52,4.66Z"/><path class="cls-1" d="M276.33,430.78c-7.23,3.87-23.95,2.54-29.98-3.85-.36-.38-.83-.59-1.35-.61-.54,0-1.03.19-1.38.52-.38.36-.59.84-.61,1.35s.17,1.01.53,1.38c5.02,5.33,14.51,7.23,21.72,7.23,5.17,0,9.75-.93,12.9-2.62.94-.5,1.29-1.68.79-2.62-.51-.94-1.68-1.29-2.62-.79Z"/><path class="cls-1" d="M286.69,659.18l1.42-1.99c.62-.87.42-2.08-.45-2.71-.34-.24-.73-.35-1.11-.35-.61,0-1.21.28-1.58.8l-1.34,1.87c-.89,1.25-1.84,2.57-2.82,3.98-.61.87-.4,2.08.47,2.69.85.6,2.11.37,2.7-.47.94-1.35,1.86-2.63,2.71-3.83Z"/><path class="cls-1" d="M362.93,254.83c.99.23,2.08-.46,2.3-1.48.61-2.86,1.2-5.81,1.82-8.92,1.28-6.4,2.6-13.02,4.28-19.62.13-.5.05-1.02-.21-1.47-.26-.44-.68-.76-1.18-.88-.17-.05-.34-.07-.5-.07-.33,0-.66.09-.96.26-.45.26-.77.69-.9,1.2-1.7,6.68-3.04,13.36-4.33,19.82-.6,3.03-1.2,6.01-1.81,8.87-.22,1.04.44,2.07,1.48,2.29Z"/><path class="cls-1" d="M445.76,208.53c1.46-1.96,2.71-4.03,3.73-6.15.46-.96.05-2.12-.9-2.58-.27-.13-.56-.19-.84-.19-.21,0-.43.04-.64.11-.49.17-.88.52-1.11.99-.92,1.91-2.01,3.72-3.35,5.52-.31.41-.44.92-.36,1.44.08.51.35.96.76,1.27.83.62,2.1.43,2.71-.4Z"/><path class="cls-1" d="M518.88,574.93c.19-.06.39-.07.57-.02,2.38.63,4.84,1.36,7.48,2.16,9,2.75,19.2,5.87,31.34,5.87,35.23,0,57.99-22.57,57.99-57.51,0-18.31-6.58-53.57-24.72-75.66-.27-.33-.29-.81-.05-1.16.25-.36.69-.5,1.11-.37,9.15,3.06,16.83,3.07,24.17,0,8.13-3.39,13.89-11.69,15.82-22.77,2.14-12.28-.37-25.51-7.06-37.24-.43-.82-.88-1.57-1.32-2.22-2.9-4.62-6.34-8.75-10.26-12.32-6.45-5.89-14.48-11.13-24.54-16.04-.27-.13-.46-.38-.52-.67-.06-.29.01-.6.2-.82,7.1-8.49,12.96-22.81,6.1-35.21-.26-.47-.7-.81-1.22-.94-.36-.09-.79-.05-1.23.14-16.38,7.07-24.95.19-33.69-8.82-.23-.24-.32-.57-.25-.9.08-.32.31-.58.62-.69,20.74-7.31,32.37-23.06,30.37-41.11-.09-.77-.63-1.42-1.38-1.64-.73-.2-1.55.04-2.04.63-4.63,5.64-12.79,1.38-22.96-4.77-3.82-2.31-6.97-4.15-9.73-5.07-.34-.12-.6-.41-.65-.77l-.19-1.15c-2.53-15.07-8.94-32.33-16.29-36.16-3.34-1.75-9.66-2.1-17.78-.98-.34.04-.66-.08-.87-.34-.21-.26-.28-.6-.18-.92,4.38-13.5,2.71-25.2-4.97-34.77-.41-.5-1.06-.78-1.7-.71-.64.06-1.21.45-1.52,1.03-4.23,8.08-14.84,7.76-26.06,7.43-6.23-.18-12.52-.37-18.04.85-.27.06-.57,0-.8-.18-.23-.17-.36-.44-.38-.72-.34-7.13-2.55-14.1-6.56-20.73-.41-.68-1.21-1.04-1.98-.9-.79.14-1.41.73-1.57,1.52-2.03,9.95-13.04,12.65-23.68,15.25-.34.08-.69-.02-.93-.27-.24-.25-.33-.61-.23-.94,1.48-5.01.5-10.88-2.84-16.97-.28-.51-.77-.87-1.35-.97-.55-.11-1.17.06-1.6.43-4.46,3.81-9.62,5.08-15.07,6.43-2.11.52-4,1-5.89,1.59-.43.14-.89-.04-1.12-.43-5.45-9.11-19.71-13.62-32.29-17.6-8.15-2.58-15.84-5.01-18.45-8.05-.16-.15-.25-.2-.3-.22-.16-.1-.27-.17-.39-.22-.1-.04-.21-.07-.35-.1-.17-.03-.22-.03-.36-.04-.15-.01-.22,0-.33.03-.19.04-.3.07-.39.1-.14.05-.24.12-.3.16l-.29.18c-2.73,3.15-10.42,5.59-18.57,8.16-12.59,3.98-26.84,8.49-32.3,17.6-.23.38-.7.56-1.12.43-1.9-.6-3.79-1.07-5.89-1.59-5.45-1.35-10.6-2.62-15.07-6.43-.44-.38-1.01-.53-1.62-.43-.56.1-1.05.46-1.33.97-3.34,6.1-4.33,11.96-2.88,16.96.1.33,0,.69-.23.94-.24.25-.6.35-.93.27-10.62-2.6-21.61-5.29-23.64-15.24-.16-.79-.77-1.38-1.56-1.52-.77-.15-1.57.21-1.99.9-4.01,6.62-6.22,13.59-6.56,20.73-.01.29-.15.55-.38.72-.23.17-.53.23-.8.18-5.57-1.23-11.92-1.03-18.06-.85-11.22.32-21.81.66-26.05-7.44-.3-.58-.88-.97-1.54-1.03-.64-.08-1.27.2-1.69.71-7.7,9.59-9.39,21.29-5.02,34.76.1.32.04.66-.18.92-.21.26-.54.38-.87.34-8.1-1.11-14.39-.76-17.73.99-7.35,3.84-13.76,21.1-16.29,36.16l-.19,1.15c-.05.36-.31.66-.65.77-2.75.92-5.9,2.76-9.73,5.07-10.17,6.15-18.33,10.41-22.96,4.77-.5-.6-1.3-.84-2.05-.63-.74.22-1.28.87-1.37,1.64-2,18.05,9.63,33.8,30.37,41.11.31.11.55.37.62.69.08.32-.02.66-.25.9-8.75,9.01-17.32,15.89-33.76,8.76-.41-.14-.81-.18-1.14-.08-.53.13-.98.48-1.24.95-6.87,12.41-1,26.72,6.1,35.2.19.23.27.53.21.82-.06.29-.26.54-.52.67-10.07,4.91-18.1,10.16-24.55,16.05-3.92,3.57-7.35,7.7-10.21,12.26-.49.71-.94,1.46-1.33,2.22-6.72,11.79-9.23,25.03-7.09,37.3,1.93,11.09,7.69,19.38,15.82,22.77,7.37,3.08,15.1,3.07,24.32-.06.4-.13.86.01,1.11.37.24.36.22.83-.05,1.17-18.25,22.1-24.88,57.39-24.88,75.71,0,34.94,22.76,57.51,57.99,57.51,12.14,0,22.34-3.12,31.34-5.87,2.64-.8,5.1-1.53,7.48-2.16.19-.05.39-.05.57.02,4.32,1.52,7.12,4.87,7.67,9.19.57,4.5-1.53,8.75-5.49,11.07-3.7,2.17-9.71,2.32-16.08,2.48-9.53.24-20.32.51-27.9,7.41-5.18,4.72-7.71,10.4-7.29,16.44.43,6.37,4.19,12.43,10.32,16.65.72.49,1.54.45,2.28-.13.19-.13.31-.23.42-.37.07-.1.11-.23.18-.4,0,0,.12-.29.12-.29,0-.05.01-.31.01-.39,0-.19.02-.28,0-.38-.01-.03-.09-.23-.1-.26-.04-.14-.08-.26-.26-.53-.16-.18-.28-.32-.44-.43-2.23-1.54-2.01-4.45-1.06-6.65,1.64-3.82,6.11-7.37,11.97-6.12,3,.63,5.85,1.33,8.68,2.02,3.2.78,6.09,1.48,9.12,2.1.28.06.52.23.66.48.14.25.16.54.05.81-5.27,13.84-3.72,28.51,4.24,40.25,8.62,12.71,23.25,20.37,37.37,19.55.79-.04,1.46-.55,1.73-1.3.12-.37.13-.78,0-1.19-3.15-10.3,4.71-16.01,14.67-23.25,3.92-2.85,8.06-5.94,11.81-9.59.3-.3.77-.35,1.13-.16.37.2.57.62.49,1.03-5.63,30.04-8.13,56.42,18.41,74.99.17.12.3.3.37.5,2.49,7.81,6.98,15.32,13.34,22.32.53.58,1.28.79,2.01.55.71-.23,1.24-.85,1.34-1.59,1.2-9.03,6.6-9.99,14.78-11.44,4.24-.76,8.76-1.67,13.19-3.73.13-.06.27-.09.41-.09.13,0,.25.02.37.08.25.1.45.31.54.56,2.54,6.99,11.48,11.9,20.13,16.65,7.88,4.33,16.01,8.79,18.82,14.5.19.26.37.43.56.57l-.32.96.52-.81c.6.33,1.14.36,1.87-.01.38-.31.56-.5.7-.76,2.81-5.66,10.95-10.12,18.81-14.44,8.66-4.76,17.61-9.66,20.15-16.67.09-.26.29-.46.54-.56.25-.11.54-.1.78.02,4.44,2.07,8.95,2.98,13.19,3.74,8.18,1.45,13.58,2.41,14.78,11.44.1.74.63,1.37,1.35,1.59.71.22,1.49,0,1.99-.55,6.19-6.82,10.61-14.28,13.14-22.17.07-.2.19-.38.37-.5,26.75-18.57,24.26-44.98,18.63-75.05-.08-.41.12-.83.49-1.03.38-.2.83-.13,1.13.15,3.87,3.73,8.26,6.92,11.79,9.49,9.96,7.24,17.82,12.96,14.63,23.3-.09.39-.08.8.04,1.16.26.74.93,1.25,1.72,1.29,14.13.82,28.76-6.84,37.39-19.55,7.96-11.74,9.51-26.41,4.24-40.25-.1-.26-.08-.56.05-.81.14-.25.38-.43.66-.48,3.02-.62,5.92-1.31,9.12-2.1,2.83-.7,5.68-1.39,8.68-2.03,5.87-1.22,10.32,2.31,11.97,6.13.95,2.21,1.16,5.12-1.07,6.66-.16.11-.28.25-.41.43-.19.25-.24.4-.29.56l-.1.28c0,.05,0,.15,0,.34,0,.19,0,.34.02.41,0,.01.03.07.08.18.1.27.14.38.21.48.06.08.14.15.26.24.77.68,1.69.76,2.42.26,6.12-4.23,9.88-10.3,10.32-16.65.41-6.03-2.11-11.72-7.3-16.44-7.58-6.9-18.38-7.17-27.9-7.41-6.37-.16-12.38-.31-16.08-2.47-3.96-2.33-6.07-6.58-5.5-11.08.55-4.32,3.35-7.67,7.67-9.19ZM603.18,557.83c-9.44,13.69-25.39,21.23-44.91,21.23-11.56,0-21.47-3.03-30.21-5.7-7.18-2.2-13.38-4.09-19.36-4.09-8.99,0-16.32,2.79-21.19,8.07-4.28,4.65-6.54,10.95-6.54,18.24,0,6.03,1.6,12.3,4.5,17.66.23.42.11.94-.27,1.23-.17.13-.38.2-.58.2-.25,0-.49-.09-.68-.28-6.5-6.35-9.93-14.89-9.93-24.71,0-11.66,3.92-21.48,11.35-28.42,7.44-6.94,18.19-10.69,29.12-9.91,6.64.46,15.24,3.5,24.34,6.71,11.79,4.17,23.91,8.46,34.66,8.46s20.62-3.45,28.28-9.98c.37-.32.91-.31,1.28.02.36.32.42.87.15,1.27ZM472.34,473.8c-1.13-4.59-2.29-9.32-.57-11.64,1.34-2.01,1.88-3.06,2.09-3.57.37-.89.7-2.41.97-4.54.05-.35.29-.65.62-.78.33-.13.71-.06.98.18,10.02,8.75,27.45,14.02,43.18,18.03.13.03.26.09.36.18,22.02,17.53,27.61,41.67,25.71,57.02-1.33,10.71-6.24,18.99-13.48,22.7-.14.07-.29.11-.44.11-.1,0-.2-.02-.3-.05-2.98-.98-5.54-1.75-7.83-2.34-.28-.07-.51-.26-.63-.52-.12-.26-.13-.55-.01-.81,2.65-5.97,2.57-13.14-.22-20.76-5.41-14.76-22.41-33.14-48.19-40.93-.44-.13-.72-.55-.68-1.01.31-3.67-.73-7.89-1.56-11.28ZM457.86,494.01c-5.74,1.88-11.67,3.83-14.8,9.36-5.44,9.62.5,25.29,7.24,35.78,5.73,8.93,5.92,21.81.45,29.96-2.76,4.11-7.85,8.66-12.78,13.07-2.11,1.88-4.48,4-6.56,6.04-.19.18-.43.28-.68.28-.1,0-.2-.02-.3-.05-.34-.11-.6-.4-.65-.76-.11-.67-.26-1.3-.46-1.9-.1-.31-.04-.66.17-.92,5.3-6.43,7.65-15.27,6.15-23.06-.05-.25,0-.51.15-.73,2.71-3.99,4.04-7.8,4.68-10.3,2.78-10.91-.2-23.04-6.78-27.62-.24-.17-.39-.44-.41-.73-.15-2.51-.62-5.39-1.21-8.89-.81-4.79-1.72-10.2-1.72-15.24,0-9.04,8.1-11.81,17.12-14.07,1.42-.36,2.69-.67,3.7-1.01,3.22-1.05,8.58-5.91,14.72-13.32.24-.29.62-.41.98-.32.36.09.64.39.71.75.3,1.54.67,3.07.99,4.38,1.3,5.3,2.65,10.79.14,13.73-2.38,2.79-6.49,4.13-10.85,5.56ZM463.96,513.45c-.52,3.81-3.3,6.68-6.24,9.72-2.13,2.2-4.53,4.68-5.94,7.69-.16.34-.49.55-.86.56-.38,0-.71-.21-.88-.53-1.99-3.98-8.14-17.6-3.61-25.59,2.4-4.24,7.38-5.87,12.65-7.59l.3-.1c.29-.1.62-.05.87.13.25.18.4.47.41.78.03,2.48,1.11,5.66,1.85,7.71.77,2.16,1.74,5.14,1.46,7.24ZM468.64,459.9c-4.68,6.93-14.51,18.3-18.67,19.66-.92.3-2.06.59-3.44.93-3.8.95-8.53,2.13-12.54,4.62-.35.22-.8.19-1.12-.08-.32-.26-.44-.7-.29-1.09,2.64-6.99,7.55-11.04,14.58-12.03,1.05-.15,1.79-1.13,1.64-2.19-.07-.51-.34-.97-.76-1.28-.42-.31-.91-.44-1.41-.36-7.53,1.07-20.15,6.42-20.15,30.24,0,5.37.94,10.97,1.78,15.91.63,3.77,1.23,7.3,1.23,9.83,0,6.6-6.82,26.02-37.1,28.6-.51.05-.98.29-1.31.68-.33.4-.49.9-.45,1.41.09,1.01.95,1.77,2.01,1.77,29.41-2.49,37.64-19.68,39.81-26.95.11-.36.41-.63.78-.68.37-.07.74.11.95.42,2.6,3.88,4.83,11.59,2.55,20.55-1.88,7.39-9.61,24.35-40.42,23.03-1.05.05-1.88.82-1.93,1.85-.05,1.06.78,1.97,1.85,2.02,1.23.05,2.43.08,3.59.08,13.09,0,23.44-3.3,30.76-9.8.29-.26.71-.32,1.06-.15.35.17.57.53.55.92-.27,5.55-2.53,11.12-6.19,15.26-4.6,5.21-13.59,10.99-30.36,8.96-.52-.08-1.01.05-1.43.36-.42.32-.69.8-.76,1.33-.06.51.08,1.02.4,1.42.32.41.77.66,1.29.73,12.08,1.49,22-.62,29.44-6.28.3-.22.69-.26,1.02-.09.33.17.54.5.53.87-.02,3.36-1.32,7.42-3.56,11.14-3.45,5.73-8.23,9.68-12.81,10.55-.45.02-.71-.09-.89-.29-2.1-2.27-7.46-4.13-17.53-7.49-15.99-5.34-40.13-13.41-40.13-25.22v-11.77c0-15.08,13.71-19.06,28.21-23.29,11.17-3.25,22.73-6.62,26.05-16,.08-.23.25-.42.46-.53,2.45-1.28,4.42-3.51,5.55-6.27,1.85-4.52,1.47-10.08-1.03-15.25-9.6-19.84-14.27-50.9-14.27-94.95,0-5.49-.66-10.94-2-16.65-.01-.03-.11-.48-.11-.52-1.59-6.63-3.86-12.54-5.36-16.45-.57-1.48-1.1-2.87-1.57-4.17-2.14-5.93-1.21-12.83,2.41-17.99,3.51-4.99,9.04-7.74,15.58-7.74,18.59,0,27.86,17.86,34,29.67l1.52,2.91c.17.32.15.72-.07,1.01-.21.3-.56.46-.94.39-8.28-1.31-14.47-3.55-17.25-5.08-.36-.2-.8-.27-1.22-.22-6.63,1.01-13.32,10.41-14.07,11.47-.61.87-.39,2.08.49,2.69.39.27.91.37,1.44.28.52-.09.98-.37,1.25-.77,2.21-3.18,6.82-8.36,10.49-9.61.25-.09.51-.07.74.05,5.37,2.64,14.54,4.93,22.82,5.69.24.02.47.14.63.32,2.38,2.64,5.37,5.03,8.65,6.88.4.23.59.71.44,1.15-.15.44-.59.72-1.04.65-4.47-.58-10.03-2.28-13.35-3.29-1.52-.46-2.74-.83-3.79-1.12-7.48-2.07-20.98-.24-25.86,8.46-2.03,3.61-2.4,7.67-2.77,11.6-.43,4.56-.79,8.49-3.56,10.86-.73.63-.89,1.71-.36,2.52.53.82,1.55,1.11,2.46.69l1.36-.65c3.92-1.88,7.97-3.83,11.04-2.26.71.37,17.63,8.81,31.21-2.88,6.34-5.46,7.43-14.27,7.51-19.04,0-.48.37-.88.85-.94.45-.06.88-.13,1.28-.23.28-.06.55,0,.77.14.23.16.38.4.41.67.78,6.03,3.04,11.5,6.18,15,3.78,4.21,5.7,9.41,5.7,15.44,0,9.19-.58,24.2-1.82,27.21-.24.57-.79,1.51-1.64,2.78ZM392.54,625.82c-2.68,0-5.93-1.31-10.04-2.98-7.45-3.01-17.65-7.13-33.25-7.13s-25.8,4.13-33.26,7.14c-4.11,1.66-7.35,2.97-10.03,2.97-7.28,0-13.05-4.73-13.42-11.01-.02-.31.11-.61.35-.8,1.7-1.39,8.58-3.76,15.49-6.07,6.89-2.3,14.69-4.91,21.83-8.12.09-.04.18-.06.27-.08.49-.06,12.18-1.56,18.76-1.56s18.26,1.5,18.76,1.56c.09.01.19.04.27.08,7.14,3.2,14.94,5.81,21.82,8.11,6.65,2.22,13.89,4.68,15.49,5.84.26.19.41.5.4.82-.25,6.4-6.03,11.23-13.46,11.23ZM398.83,629.95c-.13,6.71-.93,13.34-5.86,16.45-11.56,7.3-25.94,16.38-43.71,16.38s-32.16-9.08-43.71-16.37c-4.93-3.12-5.73-9.75-5.86-16.45,0-.31.13-.59.37-.78.24-.19.55-.25.85-.17,1.67.46,3.38.69,5.06.69,3.43,0,6.97-1.44,11.47-3.25,7.19-2.91,16.98-6.86,31.82-6.86s24.63,3.96,31.78,6.85c4.53,1.83,8.07,3.26,11.5,3.26,1.69,0,3.39-.23,5.07-.69.3-.08.61-.02.85.17.24.19.38.48.37.78ZM304.3,592.35c-.4-.3-.89-.41-1.34-.36-16.82,2.07-25.84-3.73-30.44-8.95-3.66-4.14-5.91-9.71-6.19-15.26-.02-.39.2-.75.55-.92.35-.17.77-.11,1.06.15,7.31,6.5,17.66,9.79,30.76,9.79,1.16,0,2.37-.03,3.6-.08,1.06-.05,1.89-.96,1.84-2.02-.05-1.06-.89-1.8-2.1-1.85-30.67,1.46-38.36-15.62-40.25-23.03-2.28-8.95-.05-16.65,2.56-20.53.21-.31.56-.49.95-.42.37.05.67.32.78.68,2.18,7.27,10.43,24.45,39.97,26.95.91,0,1.76-.78,1.84-1.77.04-.52-.12-1.02-.45-1.41-.33-.39-.8-.63-1.32-.68-30.28-2.57-37.1-22-37.1-28.6,0-2.53.6-6.08,1.23-9.84.83-4.95,1.78-10.53,1.78-15.9,0-24.23-12.98-29.39-20.71-30.31-.51-.07-1.02.07-1.42.39-.41.32-.67.78-.73,1.3-.06.51.08,1.02.4,1.42.32.41.78.67,1.29.73,7.31.87,12.38,4.94,15.08,12.1.15.39.03.83-.29,1.09-.32.26-.77.3-1.12.07-4.01-2.49-8.8-3.69-12.65-4.65-1.28-.32-2.42-.6-3.34-.9-4.17-1.36-13.96-12.68-18.62-19.57-.89-1.32-1.46-2.28-1.7-2.86-1.24-3.02-1.82-18.02-1.82-27.21,0-6.04,1.92-11.23,5.7-15.44,3.15-3.5,5.4-8.97,6.19-15,.04-.27.19-.52.41-.67.22-.15.51-.21.77-.15.41.1.84.17,1.29.23.48.06.84.46.84.94.08,4.77,1.17,13.58,7.51,19.04,13.55,11.66,30.5,3.24,31.22,2.88,3.05-1.55,7.13.39,11.07,2.28l1.35.64c.87.4,1.92.1,2.44-.71.52-.81.36-1.89-.37-2.52-2.76-2.37-3.13-6.3-3.56-10.86-.37-3.93-.75-7.99-2.77-11.6-4.89-8.7-18.4-10.52-25.86-8.46-1.06.29-2.3.67-3.77,1.12-3.39,1.03-9.02,2.75-13.41,3.32-.48.07-.9-.22-1.04-.65-.15-.44.04-.92.44-1.15,3.28-1.85,6.29-4.24,8.68-6.9.16-.18.39-.29.63-.32,8.28-.76,17.45-3.05,22.82-5.69.23-.12.5-.13.74-.05,3.67,1.25,8.29,6.43,10.49,9.61.58.82,1.86,1.06,2.7.48.87-.61,1.09-1.82.48-2.69-.74-1.07-7.44-10.46-14.06-11.47-.43-.06-.85,0-1.22.21-2.8,1.53-8.99,3.78-17.26,5.09-.36.05-.73-.1-.94-.39-.21-.3-.24-.69-.07-1.01.43-.81.87-1.65,1.33-2.54l.2-.38c6.14-11.82,15.41-29.68,34-29.68,6.54,0,12.07,2.75,15.58,7.74,3.63,5.16,4.55,12.06,2.41,17.99-.47,1.3-1,2.68-1.56,4.16-1.99,5.18-3.89,10.34-5.41,16.6,0,.06-.03.2-.04.26-1.36,5.8-2.02,11.29-2.02,16.77,0,44.05-4.67,75.11-14.27,94.95-2.5,5.17-2.88,10.73-1.03,15.25,1.13,2.76,3.09,4.98,5.55,6.27.22.11.38.3.46.53,3.32,9.38,14.88,12.75,26.05,16,14.51,4.22,28.21,8.21,28.21,23.29v11.77c0,11.82-24.16,19.89-40.14,25.22-10.07,3.37-15.42,5.23-17.53,7.49-.18.2-.44.31-.71.31-4.76-.89-9.55-4.84-13-10.57-2.24-3.73-3.54-7.79-3.56-11.14,0-.37.2-.71.53-.87.33-.16.73-.12,1.02.09,7.45,5.66,17.37,7.78,29.44,6.28.52-.06.98-.32,1.29-.73.32-.4.46-.91.4-1.42-.06-.53-.35-1.02-.77-1.33ZM248.21,539.16c6.74-10.5,12.68-26.17,7.24-35.78-3.13-5.54-9.07-7.49-14.81-9.37-4.35-1.42-8.46-2.77-10.84-5.55-2.51-2.95-1.17-8.43.13-13.73.38-1.55.73-2.99,1-4.39.07-.37.35-.66.71-.75.36-.09.74.03.98.32,6.13,7.41,11.49,12.27,14.71,13.32,1.02.33,2.29.65,3.7,1.01,9.02,2.26,17.12,5.03,17.12,14.07,0,5.04-.91,10.45-1.72,15.22-.59,3.53-1.06,6.41-1.21,8.91-.02.3-.17.57-.41.73-6.58,4.58-9.56,16.71-6.78,27.62.64,2.5,1.96,6.32,4.67,10.3.15.21.2.48.15.73-1.5,7.79.86,16.62,6.15,23.06.21.26.28.6.17.91-.2.61-.35,1.25-.46,1.91-.06.36-.31.65-.65.76-.1.03-.2.05-.3.05-.25,0-.49-.09-.68-.28-1.91-1.86-4.1-3.84-6.57-6.05-4.95-4.42-10.03-8.97-12.78-13.06-5.48-8.15-5.29-21.03.45-29.96ZM246.73,530.86c-1.41-3.02-3.81-5.5-5.93-7.69-2.94-3.04-5.71-5.91-6.24-9.72-.33-2.39.54-4.75,1.46-7.24.84-2.28,1.8-4.86,1.84-7.72,0-.31.16-.6.41-.78s.57-.22.87-.13l.31.1c5.26,1.72,10.24,3.35,12.64,7.59,4.52,8-1.62,21.62-3.61,25.6-.16.33-.5.53-.87.53-.38,0-.72-.22-.88-.56ZM224.62,485.08c.04.46-.25.87-.68,1.01-25.77,7.79-42.77,26.17-48.19,40.92-2.78,7.57-2.83,14.74-.15,20.74.12.26.11.56-.01.81-.12.26-.35.45-.63.52-2.36.61-4.94,1.38-7.9,2.36-.1.03-.2.05-.3.05-.15,0-.3-.04-.44-.11-7.24-3.72-12.15-11.99-13.48-22.71-1.9-15.35,3.69-39.49,25.71-57.02.11-.08.23-.15.36-.18,15.73-4,33.16-9.28,43.18-18.03.27-.23.64-.3.98-.18.33.13.57.43.62.78.28,2.13.61,3.65.97,4.54.31.75,1.07,2.04,2.15,3.63,1.66,2.24.5,6.98-.63,11.56-.83,3.4-1.87,7.61-1.56,11.29ZM153.79,473.41l-9.47,2.15c-3.53.81-7.04,1.73-10.43,2.72-.09.03-.18.04-.27.04-.39,0-.76-.24-.91-.63-.18-.48.05-1.01.51-1.22,7.84-3.52,16.23-6.78,23.63-9.66,23.67-9.21,48.15-18.73,64.02-35.8.27-.29.69-.39,1.06-.24.37.14.61.5.62.89.03,3.12.13,9.24.48,15.06.02.24-.06.49-.22.67-10.59,12.85-40.29,19.54-69.02,26.02ZM244.99,320.34c-1.53-17.8,3.39-29.93,13.49-33.28,1.86-.62,3.66-.92,5.51-.92,5.41,0,9.94,2.62,14.33,5.15,4.32,2.5,8.79,5.07,13.64,4.47.72-.09,1.34-.61,1.58-1.31.23-.7.05-1.48-.48-2-3.28-3.21-5.8-8.32-6.57-13.34-.06-.4.13-.79.48-.99.35-.19.79-.16,1.1.11,6.61,5.59,16.78,11.38,26.61,16.98,7.8,4.44,15.16,8.64,20.44,12.54.12.09.21.2.28.32,3.93,7.42,8.15,12.48,12.9,15.47.31.16.63.25.97.26.35,0,.66-.09,1-.29,4.72-2.96,8.94-8.01,12.87-15.44.07-.13.16-.24.28-.32,5.28-3.9,12.65-8.1,20.44-12.54,9.83-5.6,19.99-11.39,26.6-16.98.31-.26.75-.29,1.1-.11.35.2.55.59.48.99-.77,5.02-3.29,10.13-6.57,13.34-.53.52-.72,1.3-.48,1.99.24.7.86,1.21,1.59,1.31,4.82.63,9.12-1.87,13.66-4.49,5.84-3.38,11.87-6.86,19.81-4.21,10.1,3.35,15.02,15.48,13.49,33.28-1.61,18.7,7.53,43.35,17.07,54.65,3.53,4.17,5.1,7.91,4.66,11.1-.4,2.97-2.55,5.01-4.28,6.19-1.62,1.09-4.36,1.29-7.73.57l-.71-.15c-6.15-1.55-14.07-6.33-17.97-13.53-.61-1.12-1.24-2.35-1.92-3.65-6.66-12.82-16.58-31.93-37.53-31.93-7.83,0-14.49,3.33-18.75,9.39-4.34,6.17-5.45,14.42-2.89,21.52.15.42,0,.89-.37,1.13-.37.25-.86.21-1.19-.09-5.5-5.03-11.02-7.54-14.77-6.72-3.04.66-5.6,2.94-8.3,5.35-3.02,2.68-6.13,5.46-9.6,5.46s-6.58-2.77-9.59-5.45c-2.71-2.41-5.26-4.69-8.31-5.35-3.77-.8-9.29,1.71-14.77,6.72-.33.3-.82.34-1.19.09-.37-.25-.52-.71-.37-1.13,2.56-7.11,1.45-15.35-2.89-21.53-4.25-6.05-10.91-9.39-18.75-9.39-20.94,0-30.87,19.12-37.44,31.77-.76,1.47-1.4,2.69-2.01,3.81-3.97,7.31-11.98,12.1-18.17,13.59-1.48.36-2.88.54-4.11.54-1.72,0-3.14-.34-4.13-1.01-1.73-1.18-3.87-3.21-4.28-6.18-.43-3.19,1.14-6.92,4.67-11.1,9.54-11.29,18.68-35.94,17.07-54.65ZM349.26,556.66c-.35,0-.67-.19-.84-.49-5.3-9.23-17.48-12.78-28.22-15.91-11.13-3.24-21.66-6.3-23.87-14.67-1.62-4.08-1.11-8.84,1.33-12.03.95-1.24,2.99-3.26,6.22-2.85,2.62.3,4.51,1.31,5.63,2.99,1.27,1.92,1.23,4.3.81,5.75-.95,3.24-.85,7.93,1.62,10.57.81.87,2.27,1.92,4.56,1.92.6,0,1.25-.07,1.9-.22,6.18-1.33,23.15-1.89,30.86-1.89s24.68.55,30.86,1.89c.66.14,1.3.22,1.91.22,2.29,0,3.74-1.04,4.56-1.92,2.46-2.64,2.56-7.33,1.62-10.57-.43-1.46-.47-3.84.8-5.76,1.12-1.68,3.02-2.69,5.65-3,3.34-.38,5.44,1.86,6.2,2.85,2.44,3.19,2.92,8.03,1.23,12.32-2.11,8.08-12.63,11.14-23.77,14.39-10.75,3.13-22.93,6.68-28.23,15.91-.17.3-.49.49-.84.49ZM355.89,592.83c.34.26.47.71.32,1.11-.14.38-.5.63-.9.63-2.46-.17-4.42-.26-6.05-.26s-3.62.08-5.98.25c-.43.05-.83-.23-.97-.62-.15-.4-.02-.85.32-1.11,2.47-1.87,4.43-3.83,5.83-5.83.36-.52,1.22-.52,1.59,0,1.4,2.01,3.37,3.97,5.84,5.85ZM394.2,506.87c-4.75.55-7.2,2.86-8.41,4.7-2,3.02-1.98,6.62-1.29,8.98.65,2.22.55,5.47-.74,6.85-.38.41-1.09.93-2.82.55-6.84-1.48-24.61-1.97-31.68-1.97s-24.84.5-31.68,1.97c-.42.09-.78.13-1.09.13-.96,0-1.44-.37-1.73-.69-1.29-1.38-1.38-4.63-.73-6.85.69-2.36.71-5.96-1.3-8.98-1.22-1.84-3.67-4.15-8.42-4.7-3.76-.43-7.3,1.16-9.73,4.34-1.33,1.74-2.28,3.86-2.74,6.13-.09.46-.54.85-.96.77-.47,0-.86-.34-.94-.8-.52-3.02.05-6.46,1.62-9.7,7.93-16.39,12.53-39.79,14.07-71.52.01-.24.11-.47.29-.64,1.34-1.32,2.53-1.84,3.48-1.51,2.05.76,4.21,5.47,4.21,12.71,0,5.03-.38,9.51-.71,13.46-.44,5.16-.81,9.61-.2,13.5,1.26,8.01,7.34,26.64,36.56,26.64s35.3-18.63,36.56-26.64c.61-3.89.23-8.36-.2-13.52-.33-3.94-.71-8.41-.71-13.44,0-7.24,2.17-11.95,4.2-12.71.96-.35,2.13.16,3.49,1.51.17.17.27.4.28.64,1.54,31.74,6.15,55.13,14.07,71.52,1.57,3.24,2.14,6.69,1.62,9.7-.08.46-.47.8-.94.8-.47,0-.87-.32-.96-.78-.46-2.27-1.41-4.39-2.74-6.13-2.44-3.19-5.98-4.77-9.73-4.34ZM392.23,430.03c-.24.19-.56.25-.86.17-1.55-.44-2.82-.19-3.62.12-4.14,1.54-6.72,7.8-6.72,16.33,0,5.17.39,9.75.73,13.79.42,4.92.77,9.15.23,12.58-1.37,8.73-7.44,23.37-32.74,23.37s-31.37-14.64-32.73-23.37c-.54-3.43-.18-7.69.24-12.62.34-4.03.72-8.58.72-13.74,0-8.53-2.57-14.79-6.72-16.33-1.14-.42-2.39-.47-3.62-.12-.29.08-.62.02-.86-.17-.24-.19-.38-.49-.37-.8.2-6.03.31-12.18.31-18.26,0-5.24.64-10.5,1.96-16.07,4.06-12.43,17.44-23.41,22.36-22.3,2.03.44,4.23,2.39,6.55,4.46,3.39,3.01,7.23,6.43,12.16,6.43s8.78-3.42,12.18-6.44c2.31-2.06,4.5-4,6.55-4.45,4.91-1.11,18.28,9.86,22.31,22.15,1.36,5.7,2.01,10.98,2.01,16.22,0,6.08.1,12.23.31,18.26,0,.31-.13.6-.37.8ZM265.27,410.19c-.31-.41-.76-.68-1.27-.76-5.08-.75-8.46-5.16-9.04-11.77-.04-.46.25-.89.7-1.01,1.49-.43,2.95-.86,4.32-1.28l.26-.08c1.36-.42,2.47-.75,3.43-1.02,5.13-1.41,13.45-.53,18.51,3.4.26.2.4.52.37.84-.49,5.92-2.86,9.51-7.25,10.99-1.01.34-1.55,1.44-1.21,2.45.16.47.52.87.99,1.1.47.23,1.01.28,1.46.12,3.93-1.33,6.73-3.94,8.33-7.76.16-.39.55-.61.99-.59.42.04.77.35.85.77.36,1.78.56,3.72.72,5.4.18,1.95.37,3.96.78,5.87.07.33-.04.68-.29.92-.25.23-.61.31-.94.21-3.28-1-6.03-.89-8.41.32-2.69,1.38-7.27,2.83-12.35,2.83-4.81,0-10.06-1.3-14.58-5.2-5.18-4.46-6.08-12.07-6.16-16.21,0-.49.35-.91.84-.97,1.08-.15,2.27-.37,3.74-.69.27-.05.54,0,.77.15.22.16.37.4.4.67,1.02,8.01,5.58,13.38,12.2,14.37,1.04.12,2.03-.6,2.19-1.63.08-.51-.05-1.02-.36-1.44ZM424.32,410.48c-.23-.46-.63-.81-1.11-.97-4.39-1.48-6.76-5.08-7.25-11-.03-.33.11-.64.37-.84,5.01-3.88,13.51-4.79,18.51-3.4,1.07.29,2.32.67,3.69,1.09,1.37.42,2.83.85,4.32,1.28.45.13.74.55.7,1.01-.58,6.62-3.96,11.02-9.05,11.78-.51.08-.96.35-1.27.76-.31.42-.43.93-.36,1.44.16,1.09,1.1,1.79,2.21,1.63,6.62-.98,11.19-6.35,12.21-14.36.03-.27.18-.51.4-.67.22-.16.5-.21.77-.15,1.43.32,2.62.54,3.71.69.49.07.85.49.84.97-.08,4.14-.98,11.75-6.16,16.21-4.53,3.89-9.78,5.19-14.59,5.19-5.07,0-9.65-1.45-12.34-2.82-2.4-1.22-5.1-1.33-8.41-.32-.33.09-.69.02-.94-.21-.25-.23-.36-.58-.29-.92.41-1.9.6-3.93.79-5.89.16-1.68.36-3.6.71-5.37.08-.42.43-.73.85-.77.44-.04.82.2.99.59,1.6,3.82,4.4,6.42,8.32,7.75.46.16.99.12,1.46-.11.48-.23.84-.63,1-1.1.16-.49.13-1.01-.1-1.48ZM475.58,446.65c.28-5.72.36-11.83.38-14.97,0-.4.25-.75.62-.89.38-.14.79-.05,1.06.24,15.87,17.06,40.34,26.57,64.01,35.78,8.04,3.12,16.35,6.36,23.93,9.75.46.21.69.74.51,1.22-.14.39-.51.63-.91.63-.09,0-.18-.01-.28-.04-3.48-1.03-7.08-1.98-10.72-2.81l-9.47-2.15c-28.73-6.47-58.44-13.17-68.92-26.1-.15-.18-.23-.42-.21-.66ZM573.48,562.66c-3.37,0-7.12-.47-11.48-1.44-.43-.09-.74-.46-.76-.9-.02-.44.26-.83.68-.96,6.36-2.01,12.41-5.27,17.48-9.43.4-.33.65-.79.7-1.31.05-.51-.1-1.01-.43-1.41-.33-.4-.79-.65-1.31-.7-.52-.03-1.02.11-1.41.43-7.75,6.35-18.2,10.46-27.26,10.74-.15,0-.23-.01-.33-.05-3.07-1.02-6.15-2.1-9.2-3.18l-1.78-.63c-.33-.11-.57-.4-.63-.75-.06-.34.07-.7.35-.92,6.16-4.96,10.22-13.13,11.44-22.99,1.75-14.14-2.38-35.56-19.24-53.25-.29-.31-.35-.78-.14-1.15.21-.37.63-.56,1.06-.46,4.16.97,8.4,1.93,12.66,2.89l9.45,2.14c17.76,4.07,59.06,16.72,59.06,46.1,0,18.3-14.55,37.23-38.91,37.23ZM610.14,502.68c.08.44-.14.87-.55,1.06-.13.06-.27.09-.4.09-.29,0-.57-.13-.76-.37-1.4-1.76-3.02-3.5-4.82-5.17-13-16.59-36.1-25.57-60.55-35.09-26.59-10.35-54.07-21.04-68.44-42.03-.05-.07-.09-.15-.12-.24-1.14-3.42-2.9-6.47-5.22-9.05-2.75-3.07-4.69-8.04-5.3-13.63-.03-.31.08-.61.31-.82.23-.21.54-.29.84-.23,28.29,5.75,60.58-.36,94.77-6.83,5.04-.96,10.15-1.92,15.32-2.87,29.06-5.32,40.42,5.35,43.95,10.18,3.64,4.98,4.59,11,2.41,15.32-2.43,3.3-5.88,5.57-10.35,6.87-9.9,2.88-18.52-2.06-27.64-7.29-11.69-6.7-23.76-13.62-39.18-4.57-5.24,3.08-8.57,8.51-9.36,15.29-1.34,11.35,4.39,24.7,14.96,34.85.58.56,1.48.7,2.19.34.73-.36,1.16-1.14,1.07-1.95-1.07-9.72,3.33-15.44,13.09-17,3.41-.55,7.47.85,11.34,2.46,22.51,16.14,30.51,50.52,32.43,60.67ZM627.2,410.94c.16-.41.58-.67,1.03-.6.44.06.78.41.83.85.68,5.94.22,10.68-.29,13.62-1.7,9.76-6.62,17-13.5,19.87-11.47,4.79-22.13,0-31.53-4.23-6.44-2.89-12.5-5.6-17.98-4.73-9.11,1.46-14.69,6.29-16.14,13.96-.07.37-.35.67-.72.76-.08.02-.15.03-.23.03-.29,0-.57-.13-.76-.37-6.7-8.47-9.98-18.07-9.01-26.35.66-5.62,3.25-9.91,7.48-12.4,4.31-2.53,8.51-3.76,12.85-3.76,7.88,0,14.96,4.06,22.45,8.35,9.41,5.4,19.16,10.99,30.64,7.64,7.28-2.12,12.43-6.49,14.87-12.65ZM620.98,388.17c1.12,1.64,2.08,3.72,2.77,6.03.13.45-.07.93-.49,1.14-.42.21-.93.1-1.21-.28-4.03-5.29-16.71-16.99-47.52-11.36-5.18.95-10.29,1.91-15.35,2.87-24.49,4.64-47.87,9.06-69.38,9.06-4.62,0-9.15-.2-13.59-.66-.37-.04-.69-.28-.81-.63-.12-.35-.04-.74.22-1.01,1.96-2,3.13-4.26,3.46-6.73.59-4.32-1.28-9.07-5.54-14.11-3.79-4.49-7.5-11.18-10.46-18.85-.16-.41-.02-.88.34-1.14.36-.25.85-.24,1.18.05,18.01,15.09,51.32,16.6,83.52,18.06,32.27,1.46,62.74,2.84,72.84,17.56ZM605.18,371.51c.38.28.5.79.29,1.21-.17.33-.51.53-.86.53-.09,0-.19-.01-.29-.04-14.85-4.61-34.84-5.51-55.99-6.46-37.93-1.72-77.13-3.49-89.32-26.84-.04-.08-.07-.16-.09-.24-1.5-6.98-2.01-13.36-1.53-18.98.42-4.87.37-9.48-.16-13.71-.03-.27.05-.53.22-.74.17-.21.42-.33.69-.34,11.19-.65,24.24,5.81,38.01,12.59,5.68,2.8,11.92,5.87,18.34,8.6.1.04.19.1.27.17,9.43,8.46,28.74,16.55,43.28,21.86,15.57,5.68,33.22,12.11,47.15,22.41ZM591.72,325.27c.24-.15.55-.18.82-.08.27.1.49.31.59.58,4.23,11.66-3.45,24.16-8.1,29.14-.19.2-.44.31-.71.31-.13,0-.27-.03-.39-.08-8.01-3.58-16.19-6.61-24.57-9.67-8.19-2.98-15.54-6.01-21.87-8.98-.44-.21-.66-.71-.51-1.18.15-.46.64-.74,1.11-.64,19.42,3.89,36.45.91,53.62-9.39ZM553.81,263.58c-.03-.35.13-.69.42-.89.29-.19.67-.22.98-.06,1.85.94,3.97,2.21,6.17,3.53,7.33,4.43,16.45,9.94,23.37,7.31.31-.12.65-.07.92.13.26.19.41.51.39.84-.91,14.6-12.63,27.06-30.58,32.53-.09.03-.19.04-.28.04-.25,0-.49-.1-.68-.28-2.51-2.46-4.81-4.3-7.03-5.62-.23-.14-.39-.37-.45-.63-.05-.26,0-.54.16-.76,7.28-10.22,7.62-25.29,6.62-36.14ZM534.74,223.12c4.66,2.44,11.27,15.58,14.26,33.37,3.22,19.18.65,35.4-6.89,43.38-13.46,14.26-29.98,11.09-42.24,5.23-.82-.39-1.6-.82-2.39-1.2-2.46-1.18-4.16,2.1-1.79,3.43.82.46,1.67.86,2.5,1.25,7.34,3.5,14.44,5.28,21.12,5.28,9.14,0,17.25-3.32,24.08-9.86.3-.28.74-.35,1.11-.16,3.56,1.85,6.74,5,10.53,8.92,5.24,5.44,11.77,12.2,21.07,13.77.43.07.76.43.8.87.04.44-.22.85-.63,1-7.8,2.84-15.36,4.03-22.69,4.03-20.3,0-38.83-9.11-55.7-17.41-14.27-7.02-26.58-13.08-38.15-13.14-.35,0-.68-.2-.85-.51-.17-.31-.15-.69.04-.99,8.58-13.29,28.74-17.4,39.67-16.03.66.1,1.36-.2,1.78-.74.42-.54.51-1.28.25-1.91-2.8-6.8-8.05-12.72-15.59-17.58-.43-.28-.57-.84-.32-1.29,6.2-10.95,21.32-20.19,32.74-24.13,5.1-1.76,8.23-2.02,9.07-1.78.08.02.15.06.22.1,2.96,1.78,4.92,9.77,5.46,14.38.06.52.32.97.73,1.3.41.33.9.47,1.41.4.52-.06.98-.32,1.3-.72.32-.41.46-.91.4-1.42-.74-6.37-3.1-14.71-7.31-17.24-1.91-1.16-5.64-.87-11.1.86-10.43,3.29-28.69,13.02-36.26,26.32-.26.45-.83.62-1.28.38-5.24-2.71-11.38-4.95-17.28-6.29-.29-.07-.54-.27-.66-.54-.13-.27-.12-.59.02-.86,7.81-14.8,30.12-24.9,46.85-29.06,13.3-3.31,22.49-3.1,25.7-1.42ZM430.32,189.53c10.18-2.49,20.62-5.21,25.2-12.44.19-.3.55-.46.89-.45.36.03.67.25.81.58,8.73,20.42-3.01,38.42-8.46,45.21-5.05,6.29-13.33,11.33-22.08,16.67-9.39,5.72-20.03,12.21-28.77,21.51-.31.33-.82.4-1.21.16-.39-.24-.56-.72-.41-1.15,5.89-16.72,18-25.37,29.72-33.74,4.09-2.92,7.96-5.68,11.58-8.79.81-.69.9-1.92.21-2.73-.69-.81-1.92-.9-2.73-.21-3.45,2.96-7.25,5.68-11.28,8.56-14.43,10.31-30.76,21.97-34.3,49.18-.12.89.42,1.76,1.27,2.07.82.3,1.83-.05,2.29-.79,9.19-14.65,23.25-23.22,35.65-30.78,9.06-5.52,17.6-10.72,23.08-17.55,4.07-5.07,11.08-15.52,12.3-28.57.04-.4.32-.73.7-.84,5.46-1.55,12.39-1.33,18.5-1.14,10.39.31,21.11.64,27.22-6.03.21-.22.5-.33.81-.31.3.03.57.2.73.46,5.24,8.6,5.58,18.96,1.01,30.79-.12.31-.39.53-.71.6-1.39.29-2.81.61-4.25.97-19.3,4.8-42.38,16.75-50.45,32.61-.18.36-.57.58-.98.52-2.36-.29-4.33-.37-5.71-.24-.52.05-.99.29-1.32.69-.33.4-.49.9-.44,1.41.05.53.31,1.02.71,1.35.39.32.9.45,1.35.41,6.61-.62,32.97,4.79,43.45,21.2.19.3.2.67.03.98-.17.31-.5.5-.85.5-12.21.01-29.13,5.33-37.44,16.97-.21.29-.57.45-.9.4-.35-.04-.65-.27-.78-.6-2.73-6.86-7.41-11.56-13.53-13.59-9.59-3.18-17.02,1.11-22.99,4.55-1.46.85-2.88,1.66-4.24,2.33-.37.19-.83.11-1.12-.19-.29-.3-.36-.76-.16-1.13,1.45-2.73,4.62-9.88,2.91-17.25-.17-.73-.75-1.3-1.48-1.46-.71-.15-1.49.13-1.94.72-4.92,6.43-17.82,13.78-30.3,20.89-4.06,2.32-8.74,5-12.86,7.54-.16.1-.33.14-.51.14-.22,0-.45-.08-.62-.23-.32-.27-.43-.71-.27-1.1,3.92-9.67,7.38-21.11,11.05-33.22,7.1-23.44,15.13-50,28.48-67.06.07-.09.15-.16.25-.22,6.51-4.09,15.26-6.32,22.88-8.18ZM273.97,172.32c.11-.27.33-.47.6-.56.27-.09.57-.05.81.11,4.4,2.8,9.17,3.98,13.78,5.11,4.42,1.09,8.59,2.12,12.28,4.5,16.62,10.72,23.15,31.34,27.34,50.11.22.99,1.33,1.7,2.31,1.47.5-.11.94-.42,1.21-.85.28-.44.37-.95.25-1.46-4.36-19.53-11.23-41.04-29.02-52.52-.7-.45-1.44-.87-2.23-1.28-.25-.13-.43-.36-.5-.63-.07-.27-.01-.56.15-.79,5.11-7.3,18.12-11.41,29.6-15.04,7.62-2.41,14.21-4.49,18.13-7.33.34-.25.8-.25,1.13,0,3.92,2.84,10.51,4.92,18.13,7.33,11.47,3.63,24.48,7.74,29.6,15.04.16.23.22.52.15.79-.07.27-.25.5-.5.63-.79.4-1.52.82-2.23,1.28-10.13,6.54-17.7,16.91-23.14,31.71-.18.48-.16,1.01.06,1.48.22.47.6.83,1.08,1,.46.17.99.14,1.47-.08.48-.22.85-.61,1.02-1.06,5.13-13.98,12.2-23.73,21.6-29.79,3.68-2.37,7.86-3.41,12.28-4.5,4.62-1.14,9.38-2.32,13.78-5.11.24-.15.54-.19.81-.11.27.09.49.29.6.56,2.31,5.7,2.06,10.76-.74,14.64-.13.18-.32.31-.54.37-5.71,1.51-12.34,3.56-18.18,7.31-.18.11-.26.19-.34.27l-.29.26c-13.96,17.59-22.18,44.74-29.43,68.7-7.25,23.95-14.09,46.56-25.17,55.19-.18.14-.39.2-.6.2s-.42-.07-.6-.2c-11.07-8.63-17.92-31.25-25.17-55.2-7.25-23.96-15.47-51.11-29.45-68.73-.05-.04-.28-.24-.32-.28-6.12-3.96-12.77-6.02-18.47-7.53-.22-.06-.41-.19-.54-.37-2.8-3.87-3.06-8.93-.74-14.63ZM186.46,188.42c.16-.26.43-.43.73-.46.3-.02.6.08.81.31,6.11,6.66,16.83,6.33,27.21,6.03,6.11-.19,13.02-.41,18.51,1.14.39.11.66.44.7.84,1.22,13.06,8.23,23.51,12.3,28.57,5.49,6.83,14.03,12.04,23.08,17.55,12.41,7.56,26.47,16.13,35.66,30.77.46.74,1.47,1.09,2.3.79.84-.3,1.38-1.18,1.26-2.07-1.66-12.79-6.32-23.36-14.24-32.33-.7-.79-1.93-.87-2.73-.16-.38.34-.61.81-.65,1.33-.03.52.14,1.01.48,1.4,4.68,5.3,8.07,11.03,10.35,17.51.15.43-.02.91-.41,1.15-.39.24-.9.17-1.21-.16-8.75-9.32-19.4-15.81-28.8-21.53-8.75-5.33-17.01-10.36-22.07-16.66-5.45-6.79-17.19-24.78-8.46-45.21.14-.33.45-.56.81-.58.35-.02.7.14.89.45,4.72,7.45,14.67,9.87,25.2,12.44,7.92,1.93,16.1,3.93,22.88,8.18.09.06.18.14.25.22,13.34,17.06,21.38,43.61,28.47,67.04,3.67,12.12,7.14,23.58,11.06,33.25.16.39.05.83-.27,1.1-.18.15-.4.23-.62.23-.18,0-.35-.05-.51-.14-4.13-2.55-8.62-5.13-12.86-7.55-12.47-7.11-25.37-14.46-30.29-20.89-.44-.58-1.23-.86-1.94-.71-.73.16-1.31.73-1.48,1.45-1.71,7.37,1.46,14.52,2.91,17.25.19.37.13.83-.16,1.13-.29.3-.74.38-1.12.19-1.38-.68-2.78-1.49-4.26-2.35-5.98-3.44-13.39-7.7-22.97-4.54-6.12,2.03-10.8,6.73-13.53,13.6-.13.33-.43.56-.78.6-.37.04-.7-.11-.9-.4-8.31-11.64-25.23-16.96-37.43-16.98-.35,0-.68-.19-.85-.5-.17-.31-.16-.69.03-.98,10.59-16.59,36.56-21.81,43.4-21.2.55.07,1.02-.08,1.42-.41.4-.33.66-.82.7-1.35.09-1.07-.69-2.01-1.75-2.1-1.49-.13-3.56-.03-5.98.27-.4.07-.83-.17-1-.56-7.64-16.74-30.93-27.82-50.17-32.61-1.44-.36-2.86-.68-4.25-.97-.32-.07-.59-.29-.71-.6-4.57-11.84-4.23-22.2,1.01-30.79ZM112.46,274.44c-.02-.33.13-.64.39-.84.26-.19.61-.24.92-.13,6.95,2.63,16.05-2.89,23.37-7.31,2.2-1.32,4.32-2.59,6.17-3.53.32-.16.69-.13.98.06.29.2.45.54.42.89-1,10.84-.67,25.92,6.62,36.14.16.22.21.49.16.76-.05.26-.22.49-.45.63-2.22,1.32-4.52,3.16-7.03,5.62-.18.18-.43.28-.68.28-.09,0-.19-.01-.28-.04-17.95-5.46-29.67-17.93-30.58-32.53ZM122.41,326.54c9.29-1.57,15.82-8.33,21.06-13.77,3.78-3.92,6.96-7.06,10.53-8.91.37-.19.82-.12,1.11.16,6.83,6.54,14.94,9.86,24.08,9.86,6.63,0,13.65-1.74,20.91-5.18.9-.43,1.82-.87,2.72-1.36,2.83-1.55,1.19-4.96-1.82-3.42-.81.42-1.6.82-2.4,1.2-16.62,7.9-31.54,6.08-42.22-5.24-7.54-7.98-10.11-24.2-6.89-43.38,2.99-17.79,9.6-30.94,14.26-33.37,3.21-1.68,12.4-1.89,25.7,1.42,16.74,4.16,39.05,14.27,46.86,29.07.14.27.15.58.02.86-.12.27-.37.47-.66.54-5.9,1.34-12.04,3.58-17.28,6.29-.46.24-1.03.07-1.28-.38-7.57-13.31-25.82-23.04-36.25-26.33-5.46-1.72-9.2-2.02-11.11-.86-5.55,3.34-7.14,15.83-7.31,17.24-.06.51.08,1.02.4,1.42.32.41.78.67,1.3.72,1.07.12,2.02-.66,2.14-1.69.59-4.96,2.63-12.68,5.36-14.33,1-.35,3.83-.29,9.39,1.63,11.43,3.94,26.55,13.18,32.75,24.14.25.45.11,1.01-.32,1.29-7.54,4.86-12.78,10.77-15.58,17.57-.26.63-.16,1.37.26,1.92.42.55,1.1.81,1.79.74,10.9-1.4,31.06,2.71,39.65,16.03.19.3.21.67.04.99-.17.31-.49.5-.85.51-11.56.05-23.95,6.15-38.29,13.21-16.81,8.27-35.27,17.35-55.53,17.35-7.33,0-14.9-1.19-22.72-4.04-.41-.15-.67-.56-.63-1,.04-.44.37-.79.8-.87ZM105.39,325.77c.1-.27.31-.49.59-.58.27-.1.57-.07.82.08,17.18,10.3,34.22,13.29,53.61,9.39.5-.1.96.18,1.11.65.15.46-.06.97-.51,1.18-6.35,2.98-13.7,6.01-21.86,8.98-8.36,3.05-16.54,6.08-24.56,9.66-.13.06-.26.08-.39.08-.26,0-.52-.11-.71-.31-4.65-4.98-12.33-17.48-8.1-29.14ZM93.34,371.51c13.93-10.3,31.57-16.73,47.14-22.41,14.54-5.31,33.86-13.41,43.28-21.86.08-.07.17-.13.27-.17,6.43-2.73,12.39-5.67,18.17-8.51,13.8-6.79,26.82-13.25,38.18-12.67.27.01.52.14.7.34.17.21.25.48.22.74-.53,4.22-.58,8.83-.16,13.7.48,5.62-.03,12.01-1.53,18.98-.02.09-.05.17-.09.24-12.19,23.36-51.4,25.13-89.31,26.84-21.16.96-41.15,1.86-56,6.47-.1.03-.19.04-.29.04-.36,0-.7-.2-.86-.53-.21-.42-.09-.93.29-1.21ZM77.53,388.17c10.1-14.72,40.57-16.1,72.82-17.56,32.23-1.46,65.54-2.96,83.55-18.06.34-.28.83-.3,1.18-.05.36.26.5.72.34,1.14-2.96,7.68-6.67,14.37-10.46,18.86-4.27,5.05-6.13,9.8-5.54,14.12.33,2.46,1.49,4.72,3.45,6.72.26.26.34.66.22,1-.13.35-.44.6-.81.63-4.45.45-9,.66-13.63.66-21.5,0-44.85-4.42-69.32-9.05-5.06-.96-10.18-1.93-15.35-2.87-5.46-1-10.65-1.5-15.44-1.5-19.4,0-28.43,8.06-32.08,12.87-.29.37-.8.48-1.21.28-.42-.21-.62-.69-.49-1.14.69-2.31,1.65-4.4,2.78-6.04ZM83.25,444.67c-6.88-2.87-11.8-10.11-13.5-19.86-.51-2.94-.97-7.68-.29-13.62.05-.44.39-.79.83-.85.44-.06.86.19,1.03.6,2.44,6.16,7.59,10.53,14.87,12.64,11.48,3.34,21.24-2.25,30.67-7.66,11.21-6.43,21.79-12.49,35.27-4.57,4.23,2.48,6.82,6.77,7.48,12.4.97,8.27-2.31,17.88-9.01,26.35-.19.23-.47.37-.76.37-.08,0-.15,0-.23-.03-.37-.09-.65-.39-.72-.76-1.45-7.67-7.02-12.5-16.13-13.95-.69-.11-1.42-.17-2.17-.17-4.92,0-10.23,2.39-15.86,4.92-9.39,4.22-20.02,8.99-31.48,4.2ZM120.51,442.18c.06-.04.12-.08.19-.11,3.91-1.65,8-3.09,11.45-2.53,9.75,1.56,14.15,7.28,13.08,17-.09.81.34,1.59,1.07,1.95.72.36,1.62.21,2.2-.34,10.56-10.14,16.29-23.5,14.95-34.85-.8-6.78-4.12-12.21-9.36-15.29-15.42-9.05-27.49-2.13-39.15,4.55-9.16,5.25-17.78,10.19-27.67,7.3-4.4-1.28-7.92-3.56-10.18-6.59-2.32-4.54-1.4-10.61,2.24-15.6,3.53-4.83,14.88-15.5,43.95-10.18,5.17.94,10.28,1.91,15.32,2.87,34.19,6.47,66.48,12.57,94.77,6.83.31-.06.62.03.84.23.23.21.34.51.31.82-.61,5.6-2.54,10.57-5.3,13.63-2.32,2.58-4.08,5.63-5.22,9.05-.03.09-.07.17-.12.24-14.37,20.99-41.85,31.68-68.42,42.02-24.47,9.52-47.56,18.5-60.37,34.87-1.94,1.82-3.6,3.6-5.03,5.4-.19.24-.47.37-.76.37-.14,0-.27-.03-.4-.09-.4-.19-.63-.62-.55-1.06,1.91-10.13,9.88-44.43,32.14-60.51ZM145.19,479.33s9.45-2.14,9.45-2.14c4.28-.96,8.52-1.92,12.68-2.89.42-.1.85.09,1.06.46.21.37.15.84-.14,1.15-16.87,17.69-21,39.11-19.25,53.26,1.22,9.86,5.3,18.02,11.49,22.98.27.22.41.57.35.92-.06.34-.3.63-.63.75l-1.83.65c-3.05,1.08-6.12,2.15-9.19,3.17-.11.04-.22.05-.33.05-11.51-.34-24.5-6.62-32.33-15.63-.7-.8-1.93-.89-2.73-.19-.39.34-.62.81-.66,1.32-.04.52.13,1.02.47,1.41,5.68,6.53,14.09,11.91,23.07,14.76.42.13.69.53.67.96-.02.44-.33.81-.76.9-4.38.98-8.15,1.45-11.54,1.45-24.36,0-38.91-18.93-38.91-37.23,0-29.38,41.3-42.03,59.06-46.1ZM170.46,573.37c-8.51,2.59-19.04,5.7-30.21,5.7-19.52,0-35.47-7.54-44.91-21.23-.28-.4-.21-.94.15-1.27.36-.33.9-.34,1.28-.02,7.65,6.53,17.43,9.97,28.28,9.97s22.87-4.29,34.6-8.43c9.16-3.24,17.76-6.28,24.41-6.73,10.75-.77,21.64,2.94,29.12,9.91,7.43,6.93,11.35,16.76,11.35,28.42,0,9.82-3.43,18.36-9.93,24.71-.19.18-.43.28-.68.28-.2,0-.41-.06-.58-.2-.38-.29-.5-.81-.27-1.23,2.9-5.36,4.5-11.63,4.5-17.66,0-12.72-7.28-26.31-27.73-26.31-5.72,0-12.57,2.02-19.37,4.09ZM163.54,620.47c-2.93-.72-5.79-1.42-8.81-2.06-8.02-1.67-14.08,3.19-16.31,8.38-.11.26-.21.52-.3.79-.12.36-.45.62-.83.65-.43,0-.76-.19-.93-.5-1.16-2.12-1.82-4.29-1.97-6.47-.33-4.81,1.76-9.42,6.04-13.31,6.52-5.94,16.12-6.17,25.41-6.4,6.89-.17,13.38-.34,17.93-3.01,5.32-3.12,8.15-8.83,7.37-14.9-.43-3.34-1.92-6.35-4.33-8.71-.27-.26-.36-.66-.24-1.01.12-.36.44-.6.82-.64.87-.09,1.67-.12,2.44-.12,22.14,0,23.86,17.18,23.86,22.44,0,13.93-9.36,28.85-23.29,28.85-10.66,0-18.52-1.93-26.85-3.97ZM228.18,658.54c-7.7,5.6-14.97,10.89-16.62,18.51-.09.4-.41.7-.81.75-.49.01-.82-.18-.99-.5-1.28-2.38-1.98-4.84-2.11-7.5-.61-11.74,9.88-24.91,20.23-36.25,9.55-10.46,15.43-23.33,16.58-36.25.04-.45.39-.82.85-.87.48-.06.88.22,1.03.65,4.64,13.76,2.41,29.38-.26,44.21-.02.11-.06.22-.12.32-4.2,7.09-11.09,12.1-17.76,16.94ZM274.92,740.4c-.02.42-.3.77-.7.88-.09.03-.18.04-.26.04-.31,0-.62-.15-.8-.42-13.07-19.19-11.86-41.12,3.7-67.03.55-.91.25-2.11-.67-2.66-.88-.52-2.13-.2-2.65.67-10.52,17.52-14.73,33.09-12.85,47.62.05.4-.15.79-.51.98-.36.18-.8.12-1.1-.14-20.5-18.57-15.72-43.81-10.67-70.54,4.4-23.26,8.95-47.31-4.72-66.2-.53-.73-1.49-1.01-2.29-.67-.84.35-1.33,1.21-1.19,2.09,2.48,15.88-3.06,32.62-15.19,45.92-10.88,11.92-21.92,25.89-21.24,39.06.22,4.16,1.62,8.09,4.16,11.71.22.31.23.73.03,1.07-.2.33-.57.52-.97.45-10.64-1.62-20.78-8.18-27.12-17.53-4.42-6.52-10.75-20.1-3.46-37.78.17-.41.6-.66,1.04-.59,4.41.66,8.64.97,12.93.97,15.77,0,37.99-11.98,37.99-38.61,0-12.76-4.35-23.56-12.58-31.24-8.32-7.78-20.01-11.78-32.02-10.95-.91.06-1.9.18-3.08.37-.41.06-.81-.13-1-.49-3.6-6.63-2.15-14.01-.31-19.04,6-16.36,24.83-32.23,45.79-38.59.41-.13.87.04,1.1.41.17.27.36.54.58.8,1.46,1.71,3.46,3.1,6.28,4.37.27.12.46.35.54.63.83,3.17-.19,5.95-1.28,8.9-1.04,2.82-2.12,5.75-1.67,9.1.69,5.07,4.05,8.54,7.3,11.89,3.93,4.06,7.32,7.56,5.76,13.27-5.37,10.39-5.02,23.54.77,32.16,3.02,4.49,8.29,9.21,13.39,13.77,4.99,4.46,9.63,8.62,11.69,11.9.82,2.4,1.8,4.53,3,6.52,1.51,2.51,7.1,10.83,15.51,12.32.4.07.72.39.79.79.67,3.99,2.96,7.5,6.44,9.89.26.18.42.48.42.8.01,6.99.03,17.57,7.69,22.41,6.03,3.8,13.47,8.49,21.9,11.94.37.15.61.52.6.91-.05,2.37-.19,4.96-.41,7.68-8.57,28.32-22.33,37.88-33.38,45.55-8.95,6.21-16.68,11.57-17.27,24.64ZM293.45,734.47c-4.64.83-9.43,1.68-12.87,4.51-.18.14-.39.22-.61.22-.16,0-.32-.04-.47-.12-.35-.19-.54-.58-.49-.98,1.31-9.39,7.52-13.7,15.38-19.16,7.92-5.5,17.78-12.34,25.92-26.36.24-.41.74-.6,1.18-.42.44.17.7.63.6,1.1-3.71,17.96-8.93,32.16-13.3,36.17-5.08,3.22-10.29,4.15-15.33,5.04ZM367.88,748.37c-6.73,3.7-13.7,7.52-17.89,12.42-.18.22-.45.34-.73.34s-.55-.12-.73-.34c-4.19-4.9-11.15-8.72-17.89-12.42-8.69-4.77-17.68-9.7-18.75-16.01-.05-.29.04-.59.24-.81,9.5-10.47,16.8-46.67,17.64-66.99.01-.3.17-.58.41-.75.25-.17.56-.22.85-.13,12.42,3.97,24.01,3.98,36.45,0,.29-.09.6-.04.85.13.25.17.4.45.41.75.85,20.32,8.15,56.51,17.66,66.98.2.22.29.52.24.81-1.08,6.31-10.06,11.24-18.75,16.01ZM419.02,739.08c-.15.08-.31.12-.47.12-.22,0-.44-.08-.61-.22-3.45-2.83-8.23-3.68-12.86-4.51-5.05-.9-10.27-1.83-15.07-4.84-4.59-4.18-9.87-18.41-13.58-36.37-.1-.46.16-.93.6-1.1.44-.18.94,0,1.18.42,8.13,14.01,17.99,20.85,25.91,26.35,7.86,5.46,14.07,9.77,15.39,19.16.05.4-.14.79-.49.98ZM487.9,677.81c-.54-.07-.86-.37-.94-.76-1.65-7.61-8.91-12.9-16.61-18.49-6.68-4.85-13.57-9.86-17.78-16.95-.06-.1-.1-.21-.12-.32-2.68-14.83-4.9-30.45-.26-44.21.15-.43.56-.68,1.03-.65.45.05.81.42.85.87,1.14,12.92,7.03,25.79,16.57,36.25,10.35,11.34,20.84,24.51,20.23,36.25-.14,2.66-.83,5.12-2.12,7.5-.17.32-.5.51-.85.51ZM518.63,665.69c-6.34,9.35-16.48,15.91-27.13,17.53-.41.05-.77-.12-.97-.45-.2-.33-.19-.75.03-1.07,2.55-3.62,3.95-7.55,4.16-11.71.68-13.16-10.35-27.13-21.24-39.06-12.13-13.3-17.67-30.03-15.19-45.91.14-.89-.34-1.74-1.16-2.08-.85-.38-1.77-.11-2.32.65-13.68,18.89-9.13,42.94-4.73,66.2,5.07,26.8,9.86,52.11-10.83,70.68-.3.28-.75.32-1.1.14-.36-.19-.56-.58-.51-.98.85-6.37.57-12.94-.85-19.52-.11-.51-.41-.94-.84-1.22-.43-.28-.94-.37-1.45-.26-.52.11-.95.4-1.23.84-.28.43-.38.95-.27,1.46,3.09,14.34.51,27.76-7.68,39.89-.18.27-.49.43-.8.43-.09,0-.17-.01-.26-.03-.4-.11-.69-.47-.7-.89-.62-13.01-8.33-18.36-17.26-24.56-11.06-7.68-24.82-17.23-33.31-45.15-.28-2.93-.43-5.58-.48-8.09,0-.4.23-.77.6-.92,8.45-3.45,15.9-8.15,21.88-11.92,7.68-4.85,7.7-15.43,7.71-22.42,0-.32.16-.61.42-.79,3.47-2.39,5.76-5.9,6.44-9.89.07-.4.38-.72.79-.79,8.41-1.48,13.99-9.8,15.51-12.31,1.2-2,2.17-4.11,2.8-6.09,2.26-3.71,6.93-7.89,11.87-12.31,5.13-4.59,10.4-9.3,13.42-13.79,5.81-8.64,6.17-21.7.89-31.75-1.67-6.1,1.72-9.61,5.65-13.67,3.25-3.35,6.6-6.82,7.29-11.89.46-3.35-.63-6.28-1.67-9.11-1.09-2.94-2.12-5.72-1.28-8.89.07-.28.27-.51.54-.63,2.82-1.27,4.82-2.66,6.28-4.37.23-.27.42-.54.59-.81.23-.37.68-.54,1.1-.41,20.96,6.36,39.79,22.24,45.79,38.59,1.84,5.03,3.28,12.41-.31,19.03-.19.36-.6.56-1,.49-1.18-.19-2.17-.31-3.09-.37-12.02-.83-23.68,3.17-32.02,10.95-8.23,7.68-12.58,18.49-12.58,31.24,0,26.63,22.22,38.61,37.99,38.61,4.29,0,8.52-.32,12.93-.97.43-.08.86.17,1.04.59,7.29,17.67.96,31.25-3.46,37.78ZM514.75,598.53c4.55,2.67,11.05,2.83,17.93,3.01,9.29.23,18.89.47,25.41,6.4,4.28,3.9,6.37,8.5,6.04,13.31-.15,2.18-.81,4.36-1.97,6.47-.17.31-.5.5-.85.5-.46-.03-.79-.29-.91-.65-.09-.26-.19-.53-.31-.78-1.87-4.35-6.65-8.73-13.12-8.73-1.03,0-2.11.11-3.2.34-3.04.64-5.94,1.35-8.84,2.07-8.33,2.04-16.17,3.96-26.82,3.96-13.93,0-23.29-14.92-23.29-28.85,0-4.39.96-10.67,5.51-15.62,4.18-4.53,10.35-6.82,18.34-6.82.76,0,1.56.04,2.44.12.37.04.69.29.82.64.12.36.03.75-.24,1.01-2.41,2.36-3.91,5.37-4.33,8.71-.77,6.06,2.06,11.77,7.38,14.9Z"/><path class="cls-1" d="M591.1,527.96c-.15-.03-.29-.05-.44-.05-.88,0-1.68.6-1.89,1.49-.91,3.87-2.79,7.63-5.58,11.19-.32.41-.46.91-.4,1.43.06.51.32.97.73,1.29.82.64,2.08.48,2.71-.33,3.14-4,5.26-8.28,6.3-12.7.12-.5.03-1.02-.24-1.46-.27-.44-.7-.75-1.2-.86Z"/><path class="cls-1" d="M453.57,426.32c-.57.02-1.05.23-1.4.61-6.02,6.39-22.75,7.73-29.98,3.85-.94-.5-2.12-.14-2.62.79-.5.94-.15,2.12.79,2.62,3.15,1.69,7.73,2.62,12.9,2.62,7.21,0,16.69-1.9,21.72-7.23.36-.38.54-.87.53-1.38-.02-.52-.23-1-.6-1.35-.39-.38-.89-.54-1.33-.53Z"/><path class="cls-1" d="M429.83,680.73c-.34-.68-1.03-1.07-1.74-1.07-.29,0-.58.06-.85.2-.96.47-1.35,1.63-.87,2.59.94,1.91,1.82,3.82,2.59,5.69.4.96,1.55,1.44,2.53,1.04.47-.2.85-.57,1.04-1.05.2-.48.2-1,0-1.48-.81-1.95-1.72-3.94-2.7-5.92Z"/><path class="cls-1" d="M414.47,656.22l-.91-1.27c-.38-.53-.97-.81-1.58-.81-.39,0-.78.12-1.12.36-.86.62-1.06,1.83-.45,2.69l.93,1.3c2.66,3.72,5.91,8.27,9.07,13.34.54.87,1.76,1.17,2.67.62.9-.56,1.18-1.76.61-2.66-3.28-5.26-6.58-9.87-9.22-13.57Z"/><path class="cls-1" d="M49.09,194.13c11.5,0,21.36,17.61,21.36,32.02,0,1.07.87,1.93,1.93,1.93s1.93-.87,1.93-1.93c0-14.41,9.86-32.02,21.36-32.02,1.07,0,1.93-.87,1.93-1.93s-.87-1.93-1.93-1.93c-11.5,0-21.36-17.61-21.36-32.02,0-1.07-.87-1.93-1.93-1.93s-1.93.87-1.93,1.93c0,14.42-9.86,32.02-21.36,32.02-1.07,0-1.93.87-1.93,1.93s.87,1.93,1.93,1.93ZM58.23,191.37c5.5-3.42,10.33-9.92,13.25-17.84.28-.76,1.53-.76,1.81,0,2.92,7.92,7.75,14.43,13.25,17.84.29.18.46.49.46.82s-.17.64-.46.82c-5.5,3.42-10.33,9.92-13.25,17.84-.14.38-.5.63-.91.63s-.77-.25-.91-.63c-2.92-7.92-7.74-14.43-13.25-17.84-.29-.18-.46-.49-.46-.82s.17-.64.46-.82Z"/><path class="cls-1" d="M95.69,689.36c-11.5,0-21.36-17.61-21.36-32.02,0-1.07-.87-1.93-1.93-1.93s-1.93.87-1.93,1.93c0,14.41-9.86,32.02-21.36,32.02-1.07,0-1.93.87-1.93,1.93s.87,1.93,1.93,1.93c11.5,0,21.36,17.61,21.36,32.02,0,1.07.87,1.93,1.93,1.93s1.93-.87,1.93-1.93c0-14.41,9.86-32.02,21.36-32.02,1.07,0,1.93-.87,1.93-1.93s-.87-1.93-1.93-1.93ZM86.54,692.11c-5.5,3.43-10.33,9.93-13.25,17.85-.14.38-.5.63-.91.63s-.77-.25-.91-.63c-2.91-7.92-7.74-14.42-13.25-17.85-.29-.17-.46-.49-.46-.82s.17-.65.46-.82c5.5-3.42,10.33-9.93,13.25-17.84.28-.76,1.53-.76,1.82,0,2.91,7.92,7.74,14.43,13.25,17.84.28.17.46.48.46.82s-.17.65-.46.82Z"/><path class="cls-1" d="M37.74,283.69h-4.36c-.53,0-.97-.43-.97-.97v-6.62c0-1.07-.87-1.93-1.93-1.93s-1.93.87-1.93,1.93v6.62c0,.53-.43.97-.97.97h-4.36c-1.07,0-1.93.87-1.93,1.93s.87,1.93,1.93,1.93h4.36c.53,0,.97.43.97.97v6.63c0,1.07.87,1.93,1.93,1.93s1.93-.87,1.93-1.93v-6.63c0-.53.43-.97.97-.97h4.36c1.07,0,1.93-.87,1.93-1.93s-.87-1.93-1.93-1.93Z"/><path class="cls-1" d="M37.74,591.12h-4.36c-.53,0-.97-.43-.97-.97v-6.62c0-1.07-.87-1.93-1.93-1.93s-1.93.87-1.93,1.93v6.62c0,.53-.43.97-.97.97h-4.36c-1.07,0-1.93.87-1.93,1.93s.87,1.93,1.93,1.93h4.36c.53,0,.97.43.97.97v6.63c0,1.07.87,1.93,1.93,1.93s1.93-.87,1.93-1.93v-6.63c0-.53.43-.97.97-.97h4.36c1.07,0,1.93-.87,1.93-1.93s-.87-1.93-1.93-1.93Z"/><path class="cls-1" d="M160.08,753.62c0-1.07-.87-1.93-1.93-1.93h-4.36c-.53,0-.97-.43-.97-.97v-6.62c0-1.07-.87-1.93-1.93-1.93s-1.93.87-1.93,1.93v6.62c0,.53-.43.97-.97.97h-4.36c-1.07,0-1.93.87-1.93,1.93s.87,1.93,1.93,1.93h4.36c.53,0,.97.43.97.97v6.63c0,1.07.87,1.93,1.93,1.93s1.93-.87,1.93-1.93v-6.63c0-.53.43-.97.97-.97h4.36c1.07,0,1.93-.87,1.93-1.93Z"/><path class="cls-1" d="M649.42,190.26c-11.5,0-21.36-17.61-21.36-32.02,0-1.07-.87-1.93-1.93-1.93s-1.93.87-1.93,1.93c0,14.42-9.86,32.02-21.36,32.02-1.07,0-1.93.87-1.93,1.93s.87,1.93,1.93,1.93c11.5,0,21.36,17.61,21.36,32.02,0,1.07.87,1.93,1.93,1.93s1.93-.87,1.93-1.93c0-14.41,9.86-32.02,21.36-32.02,1.07,0,1.93-.87,1.93-1.93s-.87-1.93-1.93-1.93ZM640.28,193.02c-5.5,3.42-10.33,9.92-13.25,17.84-.14.38-.5.63-.91.63s-.77-.25-.91-.63c-2.91-7.92-7.74-14.43-13.25-17.84-.29-.18-.46-.49-.46-.82s.17-.64.46-.82c5.5-3.42,10.33-9.92,13.25-17.84.28-.76,1.53-.76,1.81,0,2.92,7.92,7.75,14.43,13.25,17.84.29.18.46.49.46.82s-.17.64-.46.82Z"/><path class="cls-1" d="M649.42,689.36c-11.5,0-21.36-17.61-21.36-32.02,0-1.07-.87-1.93-1.93-1.93s-1.93.87-1.93,1.93c0,14.41-9.86,32.02-21.36,32.02-1.07,0-1.93.87-1.93,1.93s.87,1.93,1.93,1.93c11.5,0,21.36,17.61,21.36,32.02,0,1.07.87,1.93,1.93,1.93s1.93-.87,1.93-1.93c0-14.41,9.86-32.02,21.36-32.02,1.07,0,1.93-.87,1.93-1.93s-.87-1.93-1.93-1.93ZM640.28,692.11c-5.5,3.43-10.33,9.93-13.25,17.85-.14.38-.5.63-.91.63s-.77-.25-.91-.63c-2.91-7.92-7.74-14.42-13.25-17.85-.29-.17-.46-.49-.46-.82s.17-.65.46-.82c5.5-3.42,10.33-9.93,13.25-17.84.28-.76,1.53-.76,1.82,0,2.91,7.92,7.74,14.43,13.25,17.84.28.17.46.48.46.82s-.17.65-.46.82Z"/><path class="cls-1" d="M675.3,283.69h-4.36c-.53,0-.97-.43-.97-.97v-6.62c0-1.07-.87-1.93-1.93-1.93s-1.93.87-1.93,1.93v6.62c0,.53-.43.97-.97.97h-4.36c-1.07,0-1.93.87-1.93,1.93s.87,1.93,1.93,1.93h4.36c.53,0,.97.43.97.97v6.63c0,1.07.87,1.93,1.93,1.93s1.93-.87,1.93-1.93v-6.63c0-.53.43-.97.97-.97h4.36c1.07,0,1.93-.87,1.93-1.93s-.87-1.93-1.93-1.93Z"/><path class="cls-1" d="M675.3,591.12h-4.36c-.53,0-.97-.43-.97-.97v-6.62c0-1.07-.87-1.93-1.93-1.93s-1.93.87-1.93,1.93v6.62c0,.53-.43.97-.97.97h-4.36c-1.07,0-1.93.87-1.93,1.93s.87,1.93,1.93,1.93h4.36c.53,0,.97.43.97.97v6.63c0,1.07.87,1.93,1.93,1.93s1.93-.87,1.93-1.93v-6.63c0-.53.43-.97.97-.97h4.36c1.07,0,1.93-.87,1.93-1.93s-.87-1.93-1.93-1.93Z"/><path class="cls-1" d="M554.89,751.69h-4.36c-.53,0-.97-.43-.97-.97v-6.62c0-1.07-.87-1.93-1.93-1.93s-1.93.87-1.93,1.93v6.62c0,.53-.43.97-.97.97h-4.36c-1.07,0-1.93.87-1.93,1.93s.87,1.93,1.93,1.93h4.36c.53,0,.97.43.97.97v6.63c0,1.07.87,1.93,1.93,1.93s1.93-.87,1.93-1.93v-6.63c0-.53.43-.97.97-.97h4.36c1.07,0,1.93-.87,1.93-1.93s-.87-1.93-1.93-1.93Z"/><path class="cls-1" d="M263.45,869.44c0-1.07-.87-1.93-1.93-1.93h-104.53c-1.07,0-1.93.87-1.93,1.93s.87,1.93,1.93,1.93h104.53c1.07,0,1.93-.87,1.93-1.93Z"/><path class="cls-1" d="M178.72,890.15c-.09,0-.18,0-.27.02,0,0-4.54.6-4.54.6-1.06.14-1.8,1.11-1.66,2.17.14,1.05,1.08,1.81,2.19,1.67l4.52-.6c.51-.07.97-.33,1.28-.74.31-.41.45-.92.38-1.43-.07-.52-.33-.97-.74-1.29-.34-.26-.74-.4-1.15-.4Z"/><path class="cls-1" d="M264.28,880.82c-.13-.99-.94-1.68-1.94-1.68-.08,0-.17,0-.25.02l-74.82,9.85c-1.06.14-1.8,1.11-1.66,2.17.14,1.04,1.1,1.8,2.19,1.67l74.82-9.85c1.05-.14,1.8-1.11,1.67-2.17Z"/><path class="cls-1" d="M235.31,898.23l-30.02,8.04c-1.02.28-1.64,1.34-1.36,2.37.26,1.01,1.24,1.65,2.38,1.37l30.02-8.04c1.03-.28,1.64-1.34,1.36-2.37-.27-1.03-1.31-1.62-2.38-1.36Z"/><path class="cls-1" d="M264.83,890.32l-20.33,5.44c-1.03.28-1.64,1.34-1.36,2.37.27,1,1.23,1.64,2.38,1.36l20.33-5.44c1.03-.28,1.64-1.34,1.36-2.37-.27-1.01-1.35-1.63-2.38-1.36Z"/><path class="cls-1" d="M187.26,849.87c1.07.12,2.04-.63,2.18-1.67.14-1.05-.61-2.03-1.67-2.17l-13.35-1.76c-.52-.09-1.01.05-1.43.37-.42.32-.68.78-.75,1.3-.14,1.06.61,2.03,1.67,2.17,0,0,13.03,1.72,13.35,1.76Z"/><path class="cls-1" d="M198.58,851.36c1.07.12,2.04-.62,2.18-1.67.07-.51-.07-1.02-.38-1.43-.32-.41-.77-.68-1.28-.74l-3.61-.48c-1.12-.15-2.03.59-2.16,1.67-.07.51.07,1.02.38,1.43.32.41.77.68,1.28.74l3.6.48Z"/><path class="cls-1" d="M208.16,849.26c-.41.32-.68.78-.75,1.31-.14,1.05.61,2.03,1.67,2.17l53.54,7.05c.93.14,2.03-.62,2.17-1.67.14-1.05-.61-2.03-1.67-2.17l-53.53-7.05c-.52-.09-1.03.06-1.43.36Z"/><path class="cls-1" d="M231.15,835.52s-24.86-6.66-24.86-6.66c-.15-.03-.29-.05-.44-.05-.85,0-1.67.58-1.9,1.43-.27,1.03.34,2.09,1.37,2.37l24.85,6.66c.97.22,2.08-.37,2.35-1.38.27-1.02-.34-2.09-1.37-2.37Z"/><path class="cls-1" d="M266.83,845.09l-25.63-6.87c-.15-.03-.3-.05-.45-.05-.86,0-1.67.57-1.89,1.43-.27,1.03.34,2.09,1.37,2.37l25.62,6.87c.96.22,2.08-.37,2.35-1.38.27-1.03-.34-2.09-1.37-2.37Z"/><path class="cls-1" d="M541.52,867.5h-104.53c-1.07,0-1.93.87-1.93,1.93s.87,1.93,1.93,1.93h104.53c1.07,0,1.93-.87,1.93-1.93s-.87-1.93-1.93-1.93Z"/><path class="cls-1" d="M524.6,890.77l-4.53-.6c-.08-.01-.17-.02-.25-.02-.44,0-.85.13-1.19.4-.4.31-.66.77-.73,1.28-.07.51.07,1.02.38,1.43.32.41.77.67,1.28.74l4.53.6c.95.14,2.03-.62,2.17-1.67.07-.51-.07-1.02-.38-1.43-.32-.41-.77-.67-1.28-.74Z"/><path class="cls-1" d="M511.24,889l-74.84-9.85c-.08-.01-.16-.02-.25-.02-.96,0-1.78.7-1.92,1.69-.14,1.05.61,2.03,1.67,2.17l74.83,9.85c.94.14,2.03-.62,2.17-1.67.14-1.05-.61-2.03-1.67-2.17Z"/><path class="cls-1" d="M493.21,906.27l-30.04-8.05c-.15-.03-.3-.05-.44-.05-.86,0-1.68.57-1.91,1.43-.27,1.02.34,2.09,1.37,2.37l30.04,8.05c.96.21,2.08-.37,2.35-1.38.27-1.03-.34-2.09-1.37-2.37Z"/><path class="cls-1" d="M454.02,895.76l-20.35-5.45c-.16-.04-.31-.06-.47-.06-.86,0-1.65.57-1.89,1.43-.27,1.03.34,2.09,1.37,2.37l20.35,5.46c.96.22,2.08-.37,2.35-1.38.27-1.03-.34-2.09-1.37-2.37Z"/><path class="cls-1" d="M524.61,848.11c1.06-.14,1.8-1.12,1.66-2.18-.07-.52-.34-.99-.75-1.3-.41-.31-.91-.43-1.4-.37l-13.38,1.76c-1.05.14-1.8,1.11-1.66,2.17.14,1.05,1.09,1.81,2.19,1.67l13.35-1.76Z"/><path class="cls-1" d="M499.43,847.52c-.51.07-.97.33-1.28.74-.32.41-.45.92-.38,1.43.14,1.04,1.08,1.81,2.19,1.67l3.59-.48c.51-.07.97-.33,1.28-.74.32-.41.45-.92.38-1.43-.14-1.07-1.07-1.8-2.18-1.67l-3.6.48Z"/><path class="cls-1" d="M435.39,855.95c-1.06.14-1.81,1.11-1.67,2.17.14,1.04,1.09,1.79,2.19,1.67l53.53-7.05c1.06-.14,1.8-1.11,1.66-2.17-.07-.53-.34-.99-.75-1.3-.4-.3-.9-.43-1.4-.37l-53.56,7.05Z"/><path class="cls-1" d="M494.57,830.24c-.23-.87-1.01-1.43-1.88-1.43-.16,0-.33.02-.5.06l-24.83,6.65c-1.02.28-1.64,1.34-1.36,2.37.27,1.01,1.23,1.65,2.38,1.37l24.83-6.65c1.02-.28,1.64-1.34,1.36-2.37Z"/><path class="cls-1" d="M432.7,848.82l25.6-6.85c1.02-.28,1.64-1.34,1.36-2.37-.23-.87-1.01-1.43-1.88-1.43-.17,0-.33.02-.5.06l-25.59,6.85c-1.02.28-1.64,1.34-1.36,2.37.26,1.01,1.24,1.65,2.38,1.37Z"/><path class="cls-1" d="M16.46,445.22h-4.36c-.53,0-.97-.43-.97-.97v-6.62c0-1.07-.87-1.93-1.93-1.93s-1.93.87-1.93,1.93v6.62c0,.53-.43.97-.97.97H1.93c-1.07,0-1.93.87-1.93,1.93s.87,1.93,1.93,1.93h4.36c.53,0,.97.43.97.97v6.63c0,1.07.87,1.93,1.93,1.93s1.93-.87,1.93-1.93v-6.63c0-.53.43-.97.97-.97h4.36c1.07,0,1.93-.87,1.93-1.93s-.87-1.93-1.93-1.93Z"/><path class="cls-1" d="M696.58,445.22h-4.36c-.53,0-.97-.43-.97-.97v-6.62c0-1.07-.87-1.93-1.93-1.93s-1.93.87-1.93,1.93v6.62c0,.53-.43.97-.97.97h-4.36c-1.07,0-1.93.87-1.93,1.93s.87,1.93,1.93,1.93h4.36c.53,0,.97.43.97.97v6.63c0,1.07.87,1.93,1.93,1.93s1.93-.87,1.93-1.93v-6.63c0-.53.43-.97.97-.97h4.36c1.07,0,1.93-.87,1.93-1.93s-.87-1.93-1.93-1.93Z"/><path class="cls-1" d="M302.82,58.81c5.11,0,9.26-4.15,9.26-9.26s-4.15-9.26-9.26-9.26-9.26,4.15-9.26,9.26,4.15,9.26,9.26,9.26ZM302.82,44.15c2.97,0,5.39,2.42,5.39,5.39s-2.42,5.39-5.39,5.39-5.39-2.42-5.39-5.39,2.42-5.39,5.39-5.39Z"/><path class="cls-1" d="M395.69,58.81c5.11,0,9.26-4.15,9.26-9.26s-4.15-9.26-9.26-9.26-9.26,4.15-9.26,9.26,4.15,9.26,9.26,9.26ZM395.69,44.15c2.97,0,5.39,2.42,5.39,5.39s-2.42,5.39-5.39,5.39-5.39-2.42-5.39-5.39,2.42-5.39,5.39-5.39Z"/><path class="cls-1" d="M349.26,120.2c47.29,0,86.19-36.97,88.57-84.16.05-.91-.56-1.74-1.45-1.97-.88-.22-1.81.2-2.22,1.02-14.32,28.89-43.13,48.88-75.2,52.18-.33.05-.68-.12-.88-.39-.2-.28-.24-.64-.1-.96l15-33.97c.03-.16.05-.3.08-.48.01-.1.02-.19.01-.29,0-.15-.05-.29-.07-.36l-.08-.32L351.03.97c-.57-1.3-2.97-1.3-3.54,0l-21.9,49.54c0,.09-.02.15-.05.24-.04.12-.08.27-.09.42,0,.1,0,.2.02.34,0,.06.02.17.05.26.15.43,2.64,6.12,15.03,34.14.14.32.1.68-.1.96-.2.28-.54.45-.88.39-32.07-3.29-60.89-23.29-75.21-52.18-.34-.68-.99-1.07-1.72-1.07-.17,0-.34.02-.51.06-.87.23-1.48,1.06-1.43,1.97,2.37,47.19,41.27,84.16,88.56,84.16ZM330.17,49.74l18.21-41.2c.31-.7,1.46-.7,1.77,0l18.21,41.2c.2.45.03.97-.39,1.22l-18.21,10.95c-.15.09-.33.14-.5.14s-.35-.05-.5-.14l-18.21-10.95c-.42-.25-.58-.77-.39-1.22ZM332.84,58.9c-.17-.39-.07-.84.24-1.12.32-.28.78-.32,1.14-.1l14.04,8.44c.61.36,1.39.36,2,0l14.03-8.44c.36-.22.82-.17,1.14.1.32.28.42.73.24,1.12l-15.53,35.15c-.15.35-.5.58-.88.58s-.73-.23-.88-.58l-2.25-5.08c-.16-.36-4.63-10.47-13.29-30.07ZM267,48.83c.42-.19.92-.05,1.18.34,16.91,24.42,44.66,40.22,74.24,42.25.36.02.67.25.82.57l4.26,9.63c.62,1.4,2.92,1.4,3.54,0l4.26-9.63c.15-.33.46-.55.82-.57,29.57-2.04,57.32-17.84,74.24-42.26.26-.38.76-.53,1.18-.33.42.18.66.64.56,1.09-8.56,39.1-42.61,66.41-82.82,66.41s-74.27-27.31-82.82-66.41c-.1-.45.13-.91.56-1.09Z"/><path class="cls-1" d="M216.6,170.15c.96.22,2.09-.42,2.32-1.45.12-.5.03-1.02-.25-1.46-.27-.44-.7-.75-1.21-.86-44.33-10.22-70.79-25.3-70.79-40.32,0-9.69,10.61-19.32,30.69-27.85.43-.19.95-.02,1.2.38,2.44,3.97,6.63,6.34,11.21,6.34,7.29,0,13.22-5.93,13.22-13.22,0-.49-.04-.97-.1-1.4-.06-.48.24-.93.7-1.05,14.02-3.9,29.99-7.2,47.45-9.83,1.05-.16,1.78-1.15,1.62-2.2-.16-1.07-1.15-1.78-2.21-1.62-17.73,2.67-33.94,6.04-48.18,10.01-.41.12-.88-.06-1.1-.45-2.39-4.17-6.66-6.66-11.41-6.66-7.29,0-13.22,5.93-13.22,13.22,0,.59.04,1.18.13,1.8.06.43-.18.86-.58,1.03-21.79,9.23-33.31,20.13-33.31,31.52,0,17.46,26.2,33.12,73.78,44.09ZM189.79,82.36c2.77,0,5.37,1.23,7.15,3.38.21.25.28.59.18.9-.09.31-.34.55-.65.65-1.49.45-2.96.9-4.41,1.37-1.01.33-1.57,1.42-1.25,2.44.15.48.5.88.96,1.12.47.25.99.29,1.47.13,1.52-.49,3.07-.97,4.64-1.44.3-.09.61-.03.86.15.25.19.39.48.39.79-.07,5.09-4.26,9.23-9.35,9.23s-9.35-4.2-9.35-9.35,4.19-9.35,9.35-9.35Z"/><path class="cls-1" d="M447.45,79.42c63.41,9.56,104.38,27.86,104.38,46.64,0,5.82-4.16,11.94-12.04,17.68-.37.26-.86.25-1.2-.05-1.53-1.31-3.41-2.01-5.43-2.01-4.62,0-8.38,3.76-8.38,8.38,0,.44.04.88.13,1.35.08.44-.15.87-.55,1.06-11.53,5.25-26.1,9.93-43.32,13.9-1.04.24-1.69,1.28-1.45,2.32.24,1.03,1.38,1.67,2.31,1.45,17.63-4.07,32.55-8.88,44.36-14.29.37-.17.79-.09,1.08.19,1.58,1.55,3.65,2.4,5.82,2.4,4.62,0,8.38-3.76,8.38-8.38,0-.6-.08-1.22-.25-1.88-.1-.39.05-.79.38-1.02,9.3-6.64,14.02-13.74,14.02-21.11,0-21.44-40.26-40.3-107.69-50.47-1.03-.12-2.03.6-2.19,1.63-.16,1.05.57,2.04,1.62,2.2ZM537.07,152.33c-.81,1.39-2.3,2.25-3.91,2.25-2.49,0-4.51-2.03-4.51-4.51,0-2.74,2.58-4.99,5.27-4.44.39.08.69.39.76.78.07.39-.11.78-.44.99-.31.19-.64.39-.97.58-.45.26-.77.67-.91,1.17-.14.5-.07,1.02.19,1.47.24.42.67.73,1.18.87.51.15,1.04.08,1.46-.15l.56-.33c.38-.23.86-.17,1.18.14.32.31.38.79.16,1.18Z"/><path class="cls-1" d="M388.8,885.87c-1.07,0-1.93.87-1.93,1.93,0,7.59-6.17,13.76-13.76,13.76s-13.76-6.17-13.76-13.76c0-9.5,2.24-17.57,4.21-24.69,1.72-6.18,3.34-12.03,3.34-17.97,0-9.72-7.91-17.63-17.63-17.63s-17.63,7.91-17.63,17.63c0,5.96,1.62,11.79,3.33,17.97.82,2.95,1.68,6.12,2.41,9.52.09.39-.08.8-.42,1.02-.34.22-.78.2-1.1-.03-3.03-2.25-6.64-3.44-10.44-3.44-9.72,0-17.63,7.91-17.63,17.63s7.91,17.63,17.63,17.63,17.63-7.91,17.63-17.63-2.31-18.35-4.35-25.71c-1.65-5.93-3.2-11.52-3.2-16.95,0-7.59,6.17-13.76,13.76-13.76s13.76,6.17,13.76,13.76c0,5.43-1.55,11.02-3.2,16.94-2.04,7.36-4.35,15.69-4.35,25.72s7.91,17.63,17.63,17.63,17.63-7.91,17.63-17.63c0-1.07-.87-1.93-1.93-1.93ZM339.17,887.81c0,7.59-6.17,13.76-13.76,13.76s-13.76-6.17-13.76-13.76,6.17-13.76,13.76-13.76,13.76,6.17,13.76,13.76Z"/><path class="cls-1" d="M388.66,816.54c-.3-.22-.44-.6-.37-.97.07-.37.35-.66.72-.75,57.28-14.16,102.85-58.21,118.91-114.97.14-.5.08-1.02-.17-1.47-.25-.45-.66-.77-1.16-.92-.49-.14-1.02-.08-1.47.17-.45.25-.78.67-.92,1.16-16.31,57.65-62.83,101.16-121.41,113.56-.23.06-.47.01-.68-.11-10.02-5.78-21.38-8.83-32.84-8.83s-22.81,3.05-32.84,8.83c-.21.12-.45.17-.68.11-58.58-12.4-105.1-55.91-121.41-113.55-.14-.5-.47-.91-.93-1.17-.29-.16-.62-.25-.94-.25-.17,0-.35.03-.52.08-.5.14-.92.47-1.17.92s-.31.97-.17,1.47c16.06,56.75,61.63,100.8,118.94,114.95.36.09.64.38.72.75.07.37-.07.74-.37.97-16.69,12.45-26.66,32.23-26.66,52.92,0,36.41,29.62,66.03,66.03,66.03s66.03-29.62,66.03-66.03c0-20.68-9.95-40.45-26.63-52.9ZM349.26,931.6c-34.27,0-62.16-27.88-62.16-62.16s27.88-62.16,62.16-62.16,62.16,27.88,62.16,62.16-27.88,62.16-62.16,62.16Z"/></g></svg>