<?xml version="1.0" encoding="UTF-8"?><svg id="Layer_2" xmlns="http://www.w3.org/2000/svg" viewBox="0 0 126.13 104.17"><defs><style>.cls-1{fill:#e3cda2;}</style></defs><g id="graphics2"><rect class="cls-1" y="94.11" width="126.13" height="10.06"/><path class="cls-1" d="M91.28,59.82c.97-1.17,1.86-2.41,2.68-3.7,3.71-5.85,5.67-12.61,5.67-19.56C99.63,16.4,83.23,0,63.07,0S26.5,16.4,26.5,36.56c0,6.95,1.96,13.72,5.67,19.56.82,1.29,1.72,2.53,2.68,3.7H0v10.06h49.13l2.23-9.54c-9.12-4.5-14.79-13.62-14.79-23.78,0-14.61,11.89-26.5,26.5-26.5s26.5,11.89,26.5,26.5c0,10.17-5.67,19.28-14.79,23.78l2.23,9.54h49.13v-10.06h-34.86Z"/></g></svg>