<?xml version="1.0" encoding="UTF-8"?><svg id="Layer_2" xmlns="http://www.w3.org/2000/svg" viewBox="0 0 696.08 934.83"><defs><style>.cls-1{fill:#58365f;}</style></defs><g id="graphics"><path class="cls-1" d="M348.04,274.64c-10.66,0-19.34,8.67-19.34,19.34s8.67,19.34,19.34,19.34,19.34-8.67,19.34-19.34-8.67-19.34-19.34-19.34ZM348.04,309.43c-8.52,0-15.45-6.93-15.45-15.45s6.93-15.45,15.45-15.45,15.45,6.93,15.45,15.45-6.93,15.45-15.45,15.45Z"/><path class="cls-1" d="M63.48,641.63h6.8c1.07,0,1.94-.87,1.94-1.94s-.87-1.94-1.94-1.94h-6.8c-1.07,0-1.94.87-1.94,1.94s.87,1.94,1.94,1.94Z"/><path class="cls-1" d="M694.13,624.99h-3.97c-.37,0-.71-.21-.88-.55l-131.13-271.7c-.12-.26-.13-.55-.02-.81.11-.26.34-.46.61-.54,5.82-1.77,9.88-7.25,9.88-13.31,0-6.58-4.71-12.3-11.2-13.6-.46-.09-.78-.49-.78-.95v-9.24c0-.54.44-.97.97-.97h86.46c11.83,0,19.65-6.6,24.13-12.14,5.64-6.99,8.3-15.2,7.53-18.81-.15-.7-.68-1.26-1.37-1.46-.68-.2-1.43,0-1.94.52-5.48,5.64-14.31,6.83-20.75,6.83-14.25-.04-28.56-5.78-33.65-11.08-.43-.45-1.09-.68-1.65-.58-.65.09-1.19.48-1.48,1.03-2.11,4.06-5.54,7.35-10.2,9.78-.14.08-.28.13-.47.11-27.87-.61-51.75-36.69-51.75-65.8,0-20.37,12.82-27.62,24.82-27.62,7.27,0,15.2,4.68,19.27,11.39,3.88,6.38,3.94,13.89.17,21.14-.31.6-.29,1.33.06,1.91.35.57.99.93,1.66.93,11.34,0,19.77-10.42,20.5-25.33.85-17.4-9.99-37.27-35.77-39.79-19.45-1.93-36.5,7.66-45.65,25.59-6.65,13.03-10.24,35.1-.38,57.99.18.41.05.89-.3,1.16-.35.27-.84.27-1.2,0-7.36-5.83-18.78-12.28-32.72-1.03-.64.52-.88,1.39-.61,2.16.28.77,1.01,1.29,1.83,1.29,9.26,0,17.38,9.57,17.38,20.47s-13.44,22.41-35.16,22.41c-2.12,0-4.4-.15-6.75-.43-.26-.03-.5-.17-.66-.38s-.22-.48-.18-.74c1.2-7.23,1.81-14.5,1.81-21.62,0-73.1-59.47-132.57-132.58-132.57s-132.58,59.47-132.58,132.57c0,7.1.6,14.38,1.79,21.62.04.26-.02.53-.18.74-.16.21-.4.35-.66.38-2.33.29-4.6.43-6.73.43-21.72,0-35.16-11.63-35.16-22.41s8.12-20.47,17.38-20.47c.82,0,1.56-.52,1.83-1.3.27-.77.03-1.64-.61-2.16-13.93-11.25-25.35-4.8-32.72,1.04-.35.27-.84.28-1.2,0-.35-.27-.48-.75-.3-1.16,9.86-22.89,6.27-44.97-.38-57.99-9.14-17.9-26.18-27.47-45.65-25.59-25.78,2.52-36.61,22.4-35.77,39.79.73,14.92,9.16,25.33,20.5,25.33.68,0,1.31-.36,1.66-.94.35-.58.37-1.3.06-1.9-3.77-7.25-3.7-14.76.17-21.14,4.07-6.7,11.99-11.39,19.27-11.39,12,0,24.82,7.26,24.82,27.62,0,29.11-23.88,65.19-51.75,65.8-.16.02-.33-.03-.47-.11-4.66-2.42-8.09-5.71-10.2-9.78-.29-.56-.83-.94-1.44-1.03-.62-.09-1.25.12-1.69.58-5.08,5.29-19.45,11.04-33.78,11.08-6.38,0-15.13-1.19-20.62-6.84-.51-.52-1.24-.71-1.91-.51-.71.2-1.23.76-1.38,1.47-.77,3.61,1.89,11.82,7.53,18.81,4.48,5.54,12.29,12.14,24.13,12.14h86.46c.54,0,.97.43.97.97v9.24c0,.46-.33.86-.78.95-6.49,1.3-11.2,7.02-11.2,13.6,0,6.07,4.06,11.54,9.88,13.31.27.08.49.28.6.54.11.26.11.56-.01.81L6.79,624.44c-.16.34-.5.55-.88.55H1.94c-1.07,0-1.94.87-1.94,1.94v12.75c0,1.07.87,1.94,1.94,1.94h7.73c.21,0,.41.06.57.19,5.88,4.31,59.52,42.13,131.12,42.13s125.24-37.82,131.12-42.13c.17-.13.37-.19.57-.19h7.73c1.07,0,1.94-.87,1.94-1.94v-12.75c0-1.07-.87-1.94-1.94-1.94h-3.96c-.37,0-.71-.21-.88-.55l-131.13-271.7c-.12-.26-.13-.55-.02-.81.11-.26.34-.46.61-.54,5.82-1.77,9.88-7.25,9.88-13.31,0-6.58-4.71-12.29-11.2-13.6-.46-.09-.78-.49-.78-.95v-9.24c0-.54.44-.97.97-.97h77.37c.42,0,.79.26.92.66,12.95,37.95,43.24,68.64,81.03,82.09.48.17.75.69.61,1.18-4.21,14.57-51.53,23.42-82.31,25.81-1.04.08-1.83.97-1.79,2.02.04,1.04.9,1.87,1.94,1.87h108.88c.54,0,.97.43.97.97v213.29c0,.29-.13.57-.36.76-6.13,4.98-9.79,12.59-9.79,20.34s3.63,15.29,9.71,20.27c.25.2.38.51.35.82-1.74,23.26-45.2,58.89-95.47,58.89h-11.6c-1.07,0-1.94.87-1.94,1.94v23.96c0,1.07.87,1.94,1.94,1.94h246.58c1.07,0,1.94-.87,1.94-1.94v-23.96c0-1.07-.87-1.94-1.94-1.94h-11.6c-50.27,0-93.73-35.64-95.47-58.89-.03-.32.11-.62.35-.82,6.08-4.98,9.71-12.56,9.71-20.27s-3.66-15.36-9.79-20.34c-.23-.19-.36-.46-.36-.76v-213.29c0-.54.44-.97.97-.97h108.88c1.05,0,1.9-.82,1.94-1.87.04-1.04-.75-1.93-1.79-2.01-30.78-2.39-78.11-11.24-82.31-25.81-.14-.49.13-1.01.61-1.18,37.79-13.45,68.08-44.14,81.03-82.09.13-.39.5-.66.92-.66h77.37c.54,0,.97.43.97.97v9.24c0,.46-.33.86-.78.95-6.49,1.3-11.2,7.02-11.2,13.6,0,6.07,4.07,11.54,9.88,13.31.27.08.49.28.6.54s.11.56-.01.81l-131.13,271.7c-.16.34-.5.55-.88.55h-3.96c-1.07,0-1.94.87-1.94,1.94v12.75c0,1.07.87,1.94,1.94,1.94h7.73c.21,0,.41.06.57.19,5.88,4.31,59.52,42.13,131.12,42.13s125.24-37.82,131.12-42.13c.17-.13.37-.19.57-.19h7.73c1.07,0,1.94-.87,1.94-1.94v-12.75c0-1.07-.87-1.94-1.94-1.94ZM563.62,374.99c.46-.16.99.04,1.2.49l119.74,248.12c.14.3.13.66-.05.94-.18.28-.49.46-.82.46h-59.87c-.45,0-.84-.31-.95-.74l-59.87-248.12c-.12-.48.15-.98.62-1.14ZM541.02,191.68c7.69-15.07,21.33-23.71,37.4-23.71,1.46,0,2.94.07,4.41.22,23.38,2.29,33.05,19.6,32.26,35.73-.37,7.58-3.61,17.55-11.55,20.69-.34.14-.74.06-1.02-.19-.27-.25-.38-.64-.27-1,2.13-6.88,1.29-13.98-2.35-19.98-4.81-7.93-13.89-13.25-22.59-13.25-13.88,0-28.71,8.28-28.71,31.51s17.69,57.98,43.07,67.28c.44.16.71.62.62,1.09-.08.46-.49.8-.96.8-14.35-.09-25.72-11.07-37.07-23.29-22.79-25.77-23.08-56.68-13.26-75.9ZM348.04,142.49c70.96,0,128.69,57.73,128.69,128.69,0,6.92-.58,13.98-1.73,20.98-.05.26-.19.49-.41.64-.16.11-.36.17-.55.17-.07,0-.13,0-.2-.02-6.89-1.44-14.63-4.05-23.66-7.97-.32-.14-.55-.45-.58-.8-4.95-51.72-49.56-92.24-101.56-92.24s-96.61,40.52-101.56,92.24c-.03.35-.26.66-.58.8-9.03,3.92-16.77,6.53-23.66,7.97-.27.05-.53,0-.75-.15-.22-.15-.36-.38-.41-.64-1.15-7-1.73-14.06-1.73-20.98,0-70.96,57.73-128.69,128.69-128.69ZM308.01,324.55c.32.69,1.01,1.13,1.76,1.13,9.84,0,21.32,26.18,22.05,63.76,0,.29-.12.57-.34.76-.17.15-.4.23-.63.23-39.62-7.04-70.46-36.84-78.76-75.94-.06-.29,0-.58.19-.81s.46-.36.76-.36h60.99c.38,0,.73.22.88.57.16.35.1.75-.15,1.04l-6.48,7.56c-.49.58-.61,1.39-.29,2.07ZM349.55,216.76c-.32-.4-.88-.63-1.51-.63s-1.19.24-1.51.64c-.44.54-10.81,13.5-11.86,28.4-.03.43-.35.8-.77.88-18.63,3.81-38.53,14.13-57.77,24.1-7.89,4.09-16.03,8.31-23.99,12.02-.13.06-.27.09-.41.09-.2,0-.41-.06-.57-.19-.29-.21-.44-.56-.39-.91,6.35-48.65,48.18-85.34,97.28-85.34s90.91,36.69,97.28,85.34c.05.35-.1.7-.39.91-.28.21-.66.25-.98.1-7.96-3.71-16.09-7.93-23.97-12.01-19.26-9.98-39.16-20.3-57.79-24.11-.43-.09-.74-.45-.77-.88-1.04-14.93-11.42-27.86-11.87-28.41ZM357.36,243.99c.03.3-.07.59-.28.8-.19.18-.43.28-.68.28-5.97-.77-10.72-.77-16.58,0-.3.04-.6-.06-.81-.27-.21-.21-.32-.5-.28-.8,1.05-9.07,5.78-17.37,8.51-21.52.36-.55,1.26-.55,1.62,0,2.73,4.14,7.46,12.45,8.51,21.53ZM277.89,273.61c23.66-12.26,48.93-25.22,70.14-25.22s46.22,12.82,70.15,25.22c16.78,8.69,32.6,16.89,47.62,21.3.48.14.78.63.68,1.12-.09.46-.49.79-.95.79-14.42-1.46-29.76-4.93-42.09-7.72-13.03-2.95-24.27-5.49-31.99-5.49-2.3,0-4.26.23-5.81.69-.25.07-.52.04-.74-.08-.23-.13-.4-.34-.47-.59-4.61-16.21-19.58-27.53-36.4-27.53s-31.8,11.32-36.4,27.54c-.07.25-.24.46-.47.59-.23.13-.5.15-.74.08-7.19-2.14-20.69.92-37.79,4.79-12.33,2.79-27.67,6.26-41.99,7.72-.58.05-.96-.29-1.05-.78-.1-.49.2-.98.68-1.12,14.77-4.34,31.18-12.78,47.62-21.3ZM104.36,288.99c25.4-9.28,43.11-42.91,43.11-67.28s-14.83-31.51-28.71-31.51c-8.7,0-17.78,5.33-22.59,13.25-3.64,6-4.48,13.1-2.35,19.98.11.36,0,.75-.27,1-.28.25-.68.33-1.02.19-7.93-3.14-11.18-13.11-11.55-20.69-.79-16.14,8.88-33.45,32.26-35.74,17.75-1.72,33.4,7.03,41.81,23.5,9.82,19.22,9.53,50.13-13.23,75.87-11.38,12.26-22.77,23.25-37.14,23.32-.47,0-.87-.34-.96-.8-.08-.46.18-.92.62-1.09ZM11.51,623.6l119.74-248.12c.22-.45.75-.65,1.2-.49.47.17.74.66.62,1.14l-59.87,248.11c-.11.44-.5.74-.95.74H12.39c-.33,0-.65-.17-.82-.46-.18-.28-.2-.64-.05-.94ZM277.88,628.88c.54,0,.97.44.97.97v6.92c0,.54-.44.97-.97.97H85.83c-1.07,0-1.94.87-1.94,1.94s.87,1.94,1.94,1.94h176.88c.43,0,.81.28.93.7s-.05.86-.41,1.09c-17.16,11.02-63.41,36.64-121.87,36.64s-104.68-25.62-121.86-36.64c-.36-.23-.53-.68-.41-1.09s.5-.7.93-.7h20.61c1.07,0,1.94-.87,1.94-1.94s-.87-1.94-1.94-1.94H4.86c-.54,0-.97-.44-.97-.97v-6.92c0-.54.44-.97.97-.97h273.02ZM150.28,374.99c.46-.16.99.04,1.2.49l119.75,248.12c.14.3.13.66-.05.94-.18.28-.49.46-.82.46h-59.87c-.45,0-.84-.31-.95-.74l-59.87-248.12c-.12-.48.15-.98.62-1.14ZM205.42,623.79c.07.29,0,.6-.18.83-.18.24-.47.37-.76.37h-126.21c-.3,0-.58-.14-.76-.37-.19-.23-.25-.54-.18-.83l63.11-261.53c.21-.87,1.68-.87,1.89,0l63.11,261.53ZM143.72,328.71c.25-.19.58-.23.88-.13,4.08,1.38,6.81,5.2,6.81,9.5,0,5.53-4.51,10.04-10.04,10.04s-10.04-4.5-10.04-10.04c0-4.3,2.74-8.12,6.81-9.5.29-.1.62-.06.88.13.25.18.41.48.41.79v4.29c0,1.07.87,1.94,1.94,1.94s1.94-.87,1.94-1.94v-4.29c0-.31.15-.61.41-.79ZM51.99,309.43c-10.3,0-17.16-5.82-21.1-10.7-2.77-3.43-4.41-6.76-5.29-8.95-.15-.38-.06-.81.24-1.08.3-.27.73-.34,1.1-.15,4.69,2.38,10.56,3.59,17.47,3.59,12.1-.03,25.98-4.12,33.76-9.94.21-.16.46-.22.73-.18.26.04.49.18.64.4,6.94,9.77,19.4,12.35,25.02,12.35,15.96,0,28.6-12.16,40.16-24.61l2.76-2.98c12.74-13.84,23.73-25.77,37.22-19.86.35.16.58.51.58.89s-.23.74-.59.89c-8.28,3.54-14.06,12.94-14.06,22.86,0,6.87,4.45,13.91,11.91,18.84,7.95,7.26,19.32,10.74,34.88,10.74,17.89,0,38.17-4.6,56.08-8.65,15.95-3.61,31.01-7.02,36.42-4.8.41.17.65.59.6,1.03-.25,1.81-.36,3.36-.36,4.87,0,4.86.92,9.61,2.74,14.11.12.3.09.64-.09.91-.18.27-.48.43-.8.43H51.99ZM226.95,314.61c-.11-.3-.06-.63.12-.89.18-.26.48-.41.79-.41h19.21c.46,0,.86.33.95.78,8.23,41.12,41.61,73.41,83.05,80.35.47.08.81.48.81.96v2.27c0,.28-.12.55-.33.73-.18.16-.41.24-.64.24-47.17-6.33-87.93-39.31-103.98-84.03ZM331.61,422.78c-.18.18-.43.28-.69.28-10.93,0-49.04-.01-67.58-.01-.5,0-.91-.38-.97-.87-.05-.5.28-.95.77-1.05,26.27-5.54,41.7-13.39,44.63-22.68.16-.51.71-.8,1.21-.64,7.22,2.22,14.64,3.84,22.07,4.79.48.06.85.47.85.96v18.53c0,.26-.1.5-.28.69ZM468.41,746.17c.54,0,.97.44.97.97v18.13c0,.54-.44.97-.97.97h-240.75c-.54,0-.97-.44-.97-.97v-18.13c0-.54.44-.97.97-.97h240.75ZM423.99,740.39c.46.15.74.6.66,1.07-.07.47-.48.82-.96.82h-151.11c-.48,0-.88-.35-.96-.82-.07-.47.21-.93.66-1.08,36.67-11.77,60.99-37.51,63.3-55.6.06-.48.47-.85.96-.85h23.06c.49,0,.9.36.96.85,2.3,18.11,26.65,43.86,63.41,55.59ZM370.44,662.3c0,6.76-3.21,13.32-8.59,17.56-.17.14-.38.21-.6.21h-26.44c-.22,0-.43-.07-.6-.21-5.38-4.23-8.59-10.79-8.59-17.56s3.21-13.32,8.58-17.56c.17-.14.38-.21.6-.21h26.44c.22,0,.43.07.6.21,5.37,4.24,8.58,10.8,8.58,17.56ZM360.29,393.3v246.37c0,.54-.44.97-.97.97h-22.78c-.26,0-.51-.1-.69-.29-.18-.18-.28-.43-.28-.69.21-28.05.22-244.18.22-246.36,0-34.46-8.93-64.03-21.24-70.3-.27-.13-.46-.39-.51-.68s.02-.59.22-.82l5.39-6.29c.56-.66.61-1.62.13-2.34-3.75-5.61-5.74-12.14-5.74-18.89,0-18.75,15.25-34,34-34s34,15.25,34,34c0,6.75-1.99,13.29-5.74,18.89-.48.72-.43,1.69.14,2.35l5.38,6.28c.19.23.27.53.22.82s-.25.54-.51.68c-12.31,6.27-21.24,35.84-21.24,70.3ZM387.78,322.48s-6.48-7.56-6.48-7.56c-.25-.29-.3-.69-.15-1.04.16-.35.5-.57.88-.57h60.99c.29,0,.57.13.76.36s.25.53.19.81c-8.3,39.1-39.14,68.9-78.75,75.94-.23,0-.46-.08-.63-.23-.22-.19-.35-.47-.34-.76.73-37.57,12.21-63.75,22.05-63.75.76,0,1.45-.44,1.76-1.13.32-.69.21-1.51-.28-2.08ZM432.93,421.13c.49.1.82.56.77,1.05-.05.5-.47.87-.97.87h-67.58c-.54,0-.97-.43-.97-.97v-18.52c0-.49.36-.9.85-.96,7.4-.95,14.8-2.56,22.02-4.78.51-.16,1.06.13,1.21.64,2.93,9.29,18.37,17.13,44.67,22.67ZM469.12,314.61c-16.05,44.72-56.81,77.7-103.98,84.03-.24,0-.46-.09-.64-.24-.21-.18-.33-.45-.33-.73v-2.27c0-.47.34-.88.81-.96,41.45-6.95,74.82-39.23,83.05-80.35.09-.45.49-.78.95-.78h19.21c.32,0,.61.15.79.41.18.26.23.59.12.89ZM384.09,309.43c-.32,0-.63-.16-.8-.43-.18-.27-.22-.61-.1-.91,1.81-4.51,2.74-9.25,2.74-14.11,0-1.52-.11-3.06-.36-4.87-.06-.44.19-.86.59-1.03,5.4-2.22,20.41,1.17,36.31,4.77,18.03,4.08,38.32,8.68,56.2,8.68,15.57,0,26.88-3.44,34.6-10.51,7.67-5.12,12.18-12.22,12.18-19.07,0-9.92-5.78-19.32-14.06-22.86-.35-.15-.59-.5-.59-.89s.23-.74.58-.89c13.48-5.91,24.48,6.03,37.22,19.87l2.73,2.96c11.58,12.46,24.22,24.63,40.18,24.63,3.31,0,8.72-.89,13.96-3.4.25-.09.36-.15.4-.18,4.53-2.23,8.09-5.17,10.65-8.77.15-.21.38-.36.64-.4.28-.04.52.02.73.18,7.78,5.82,21.66,9.9,33.75,9.94,6.53.14,12.65-1.1,17.48-3.58.36-.19.79-.13,1.1.15.3.27.39.71.24,1.08-.88,2.19-2.52,5.52-5.29,8.94-3.94,4.88-10.81,10.7-21.1,10.7h-260ZM544.67,338.08c0-4.3,2.74-8.12,6.81-9.5.29-.1.62-.06.88.13.25.18.41.48.41.79v4.29c0,1.07.87,1.94,1.94,1.94s1.94-.87,1.94-1.94v-4.29c0-.31.15-.61.41-.79.25-.19.58-.23.88-.13,4.07,1.38,6.81,5.2,6.81,9.5,0,5.53-4.5,10.04-10.04,10.04s-10.04-4.5-10.04-10.04ZM553.77,362.26c.21-.87,1.68-.87,1.89,0l63.11,261.53c.07.29,0,.6-.18.83-.18.24-.47.37-.76.37h-126.21c-.3,0-.58-.14-.76-.37-.19-.23-.25-.54-.18-.83l63.11-261.53ZM424.85,623.6l119.75-248.12c.22-.45.75-.66,1.2-.49.47.17.74.66.62,1.14l-59.87,248.12c-.11.44-.5.74-.95.74h-59.87c-.33,0-.65-.17-.82-.46-.18-.28-.2-.64-.05-.94ZM692.19,636.77c0,.54-.44.97-.97.97h-168.61c-1.07,0-1.94.87-1.94,1.94s.87,1.94,1.94,1.94h153.45c.43,0,.81.28.93.7s-.05.86-.41,1.09c-17.16,11.02-63.38,36.64-121.87,36.64s-104.69-25.62-121.86-36.64c-.36-.23-.53-.68-.41-1.09s.5-.7.93-.7h32.39c1.07,0,1.94-.87,1.94-1.94s-.87-1.94-1.94-1.94h-47.56c-.54,0-.97-.44-.97-.97v-6.92c0-.54.44-.97.97-.97h273.02c.54,0,.97.44.97.97v6.92Z"/><path class="cls-1" d="M506.09,637.74h-6.8c-1.07,0-1.94.87-1.94,1.94s.87,1.94,1.94,1.94h6.8c1.07,0,1.94-.87,1.94-1.94s-.87-1.94-1.94-1.94Z"/><path class="cls-1" d="M238.38,278.47c1-.02,1.83-.8,1.91-1.81,1.37-20.1,8.33-39.36,20.12-55.7.31-.42.43-.93.35-1.44-.08-.51-.36-.96-.78-1.27-.34-.24-.73-.37-1.13-.37-.11,0-.21,0-.32.03-.51.08-.96.36-1.27.78-12.21,16.92-19.43,36.88-20.85,57.71-.03.51.13,1,.46,1.38.36.41.88.65,1.51.7Z"/><path class="cls-1" d="M271.43,207.99c1.4-1.41,2.88-2.82,4.39-4.18.39-.35.61-.82.64-1.34.03-.52-.15-1.02-.49-1.41-.35-.39-.83-.61-1.36-.64-.56,0-1.03.17-1.38.49-1.54,1.39-3.07,2.84-4.56,4.33-.75.76-.75,1.99,0,2.75.74.73,2.01.73,2.76,0Z"/><path class="cls-1" d="M286.8,194.43c.51.1,1.03,0,1.46-.28,17.72-11.8,38.39-18.04,59.78-18.04,25.17,0,49.66,8.84,68.99,24.89.79.66,2.08.54,2.74-.25.33-.4.49-.91.44-1.42-.05-.52-.3-.99-.69-1.32-20.01-16.63-45.4-25.79-71.47-25.79-22.16,0-43.57,6.46-61.93,18.69-.43.29-.72.72-.83,1.23-.1.51,0,1.03.29,1.46.28.43.72.73,1.23.83Z"/><path class="cls-1" d="M455.79,276.62c.08,1.03.93,1.81,1.99,1.81.54-.04,1.06-.28,1.42-.69.33-.38.5-.87.47-1.38-1.76-25.69-12.48-50.18-30.18-68.96-.74-.78-1.97-.81-2.75-.08-.38.36-.59.84-.61,1.36s.17,1.01.53,1.38c17.09,18.14,27.44,41.78,29.14,66.57Z"/><path class="cls-1" d="M359.37,322.89h-22.66c-.71,0-1.36.39-1.7,1.01-.34.62-.32,1.38.06,1.98l11.33,17.9c.72,1.13,2.57,1.13,3.29,0l11.33-17.9c.38-.6.4-1.36.06-1.97-.34-.62-.99-1.01-1.7-1.01ZM354.89,328.27l-6.04,9.53c-.18.28-.49.45-.82.45s-.64-.17-.82-.45l-6.04-9.53c-.19-.3-.2-.68-.03-.99.17-.31.5-.5.85-.5h12.07c.35,0,.68.19.85.5.17.31.16.69-.03.99Z"/><path class="cls-1" d="M129.08,83.57h437.91c1.01,0,1.85-.76,1.94-1.77.09-1.01-.6-1.91-1.59-2.08-9.66-1.72-19.98-5.39-29.97-8.94-18.58-6.6-36.09-12.82-48.6-6.72-.25.13-.55.13-.82.02-.26-.12-.46-.34-.54-.61-.68-2.34-1.94-4.33-3.73-5.9-6.17-5.41-18.18-5.16-26.66-4.51-.29.02-.57-.08-.77-.28s-.3-.49-.28-.77c1.06-11.83-4.49-22.53-14.84-28.63-11.24-6.63-24.67-6.08-35.05,1.42-.4.29-.95.23-1.28-.13-14.49-15.65-35.18-24.63-56.76-24.63s-42.28,8.98-56.76,24.63c-.33.36-.88.41-1.28.13-10.37-7.51-23.8-8.05-35.05-1.42-10.34,6.1-15.88,16.8-14.83,28.63.03.28-.08.57-.28.77-.2.21-.47.3-.77.28-8.5-.66-20.5-.9-26.66,4.51-1.8,1.57-3.05,3.56-3.74,5.9-.08.27-.28.5-.54.61-.26.12-.56.11-.82-.02-3.59-1.75-7.6-2.49-11.93-2.49-10.73,0-23.45,4.52-36.68,9.22-9.98,3.55-20.3,7.22-29.95,8.93-1,.18-1.68,1.07-1.59,2.08.09,1.01.92,1.77,1.94,1.77ZM408.77,27.61c9.02-6.3,20.67-6.66,30.39-.92,7.31,4.31,14.55,13.41,12.93,26.04-.06.45-.41.8-.86.84-3.79.41-7.66.91-11.54,1.42-6.76.88-13.14,1.72-18.65,1.95-.5,0-.93-.39-.97-.89-.72-8.87-4.81-18.47-11.52-27.04-.16-.21-.24-.48-.19-.74.04-.26.19-.5.41-.65ZM256.92,26.69c9.71-5.72,21.36-5.37,30.39.92.22.15.37.39.41.65.04.26-.03.53-.19.74-6.71,8.57-10.8,18.18-11.52,27.05-.04.51-.46.89-.97.89-5.52-.24-11.92-1.07-18.69-1.96-3.84-.5-7.71-1-11.49-1.41-.45-.05-.8-.4-.86-.84-1.62-12.63,5.62-21.73,12.93-26.04ZM150.43,77.79c2.91-.98,6.72-2.34,9.57-3.35,19.15-6.8,38.07-13.34,48.8-4.89.58.46,1.39.55,2.06.22.66-.32,1.09-1.01,1.09-1.75,0-3.3.99-5.77,3.02-7.55,6.92-6.07,24.96-3.71,40.88-1.63,8.08,1.06,15.71,2.06,21.99,2.06,1.07,0,1.94-.87,1.94-1.94,0-25.46,29.82-55.06,68.27-55.06s68.27,29.6,68.27,55.06c0,1.07.87,1.94,1.94,1.94,6.28,0,13.92-1,22.02-2.06,15.94-2.08,33.94-4.44,40.85,1.63,2.03,1.78,3.02,4.25,3.02,7.55,0,.74.43,1.43,1.1,1.75.65.31,1.47.22,2.05-.22,10.89-8.57,29.29-2.04,48.76,4.88l.33.12c3.05,1.08,6.16,2.19,9.28,3.25.45.15.72.61.65,1.08-.08.47-.49.81-.96.81H150.74c-.47,0-.88-.34-.96-.81-.08-.47.2-.92.65-1.08Z"/><path class="cls-1" d="M141.46,805.34c0,1.07.87,1.94,1.94,1.94s1.94-.87,1.94-1.94c0-15.82,10.85-35.15,23.51-35.15,1.07,0,1.94-.87,1.94-1.94s-.87-1.94-1.94-1.94c-12.66,0-23.51-19.33-23.51-35.15,0-1.07-.87-1.94-1.94-1.94s-1.94.87-1.94,1.94c0,15.82-10.85,35.15-23.51,35.15-1.07,0-1.94.87-1.94,1.94s.87,1.94,1.94,1.94c12.66,0,23.51,19.33,23.51,35.15ZM127.05,768.25c0-.34.18-.66.47-.84,6.3-3.76,11.76-11.14,14.97-20.25.27-.77,1.56-.77,1.83,0,3.21,9.11,8.67,16.49,14.97,20.25.3.17.47.49.47.84s-.18.66-.47.84c-6.3,3.76-11.76,11.14-14.97,20.25-.14.39-.5.65-.91.65s-.78-.26-.91-.65c-3.21-9.11-8.67-16.49-14.97-20.25-.3-.17-.47-.49-.47-.84Z"/><path class="cls-1" d="M578.12,766.3c-12.66,0-23.51-19.33-23.51-35.15,0-1.07-.87-1.94-1.94-1.94s-1.94.87-1.94,1.94c0,15.82-10.85,35.15-23.51,35.15-1.07,0-1.94.87-1.94,1.94s.87,1.94,1.94,1.94c12.66,0,23.51,19.33,23.51,35.15,0,1.07.87,1.94,1.94,1.94s1.94-.87,1.94-1.94c0-15.82,10.85-35.15,23.51-35.15,1.07,0,1.94-.87,1.94-1.94s-.87-1.94-1.94-1.94ZM568.56,769.08c-6.3,3.76-11.76,11.14-14.97,20.25-.14.39-.5.65-.91.65s-.78-.26-.91-.65c-3.21-9.11-8.67-16.49-14.97-20.25-.3-.17-.47-.49-.47-.84s.18-.66.47-.84c6.3-3.76,11.76-11.14,14.97-20.25.27-.77,1.56-.77,1.83,0,3.21,9.11,8.67,16.49,14.97,20.25.3.17.47.49.47.84s-.18.66-.47.84Z"/><path class="cls-1" d="M203.53,119.81c0-1.07-.87-1.94-1.94-1.94s-1.94.87-1.94,1.94c0,11.08-7.51,24.61-16.27,24.61-1.07,0-1.94.87-1.94,1.94s.87,1.94,1.94,1.94c8.76,0,16.27,13.53,16.27,24.61,0,1.07.87,1.94,1.94,1.94s1.94-.87,1.94-1.94c0-11.08,7.51-24.61,16.27-24.61,1.07,0,1.94-.87,1.94-1.94s-.87-1.94-1.94-1.94c-8.76,0-16.27-13.53-16.27-24.61ZM211.65,147.16c-3.71,2.59-6.97,6.91-9.17,12.18-.15.36-.5.6-.9.6s-.74-.24-.9-.6c-2.21-5.26-5.46-9.59-9.17-12.18-.26-.18-.41-.48-.41-.8s.16-.61.41-.8c3.71-2.59,6.97-6.91,9.17-12.18.15-.36.5-.6.9-.6s.74.24.9.6c2.21,5.26,5.46,9.59,9.17,12.18.26.18.41.48.41.8s-.16.61-.41.8Z"/><path class="cls-1" d="M496.44,119.81c0-1.07-.87-1.94-1.94-1.94s-1.94.87-1.94,1.94c0,11.08-7.51,24.61-16.27,24.61-1.07,0-1.94.87-1.94,1.94s.87,1.94,1.94,1.94c8.76,0,16.27,13.53,16.27,24.61,0,1.07.87,1.94,1.94,1.94s1.94-.87,1.94-1.94c0-11.08,7.51-24.61,16.27-24.61,1.07,0,1.94-.87,1.94-1.94s-.87-1.94-1.94-1.94c-8.76,0-16.27-13.53-16.27-24.61ZM504.57,147.16c-3.71,2.59-6.97,6.91-9.17,12.18-.15.36-.5.6-.9.6s-.74-.24-.9-.6c-2.21-5.26-5.46-9.59-9.17-12.18-.26-.18-.41-.48-.41-.8s.16-.61.41-.8c3.71-2.59,6.97-6.91,9.17-12.18.3-.72,1.49-.72,1.79,0,2.21,5.26,5.46,9.59,9.17,12.18.26.18.41.48.41.8s-.16.61-.41.8Z"/><path class="cls-1" d="M77.09,726.45c-5.92,0-10.99-9.3-10.99-16.91,0-1.07-.87-1.94-1.94-1.94s-1.94.87-1.94,1.94c0,7.61-5.07,16.91-10.99,16.91-1.07,0-1.94.87-1.94,1.94s.87,1.94,1.94,1.94c5.92,0,10.99,9.3,10.99,16.91,0,1.07.87,1.94,1.94,1.94s1.94-.87,1.94-1.94c0-7.61,5.07-16.91,10.99-16.91,1.07,0,1.94-.87,1.94-1.94s-.87-1.94-1.94-1.94ZM70.15,729.15c-1.98,1.62-3.76,3.92-5.13,6.65-.17.33-.5.54-.87.54s-.7-.2-.87-.54c-1.37-2.73-3.15-5.03-5.13-6.65-.23-.19-.36-.46-.36-.75s.13-.57.36-.75c1.98-1.62,3.76-3.92,5.13-6.65.33-.66,1.4-.66,1.74,0,1.37,2.73,3.15,5.03,5.13,6.65.22.18.36.46.36.75s-.13.57-.36.75Z"/><path class="cls-1" d="M644.86,726.45c-5.92,0-10.99-9.3-10.99-16.91,0-1.07-.87-1.94-1.94-1.94s-1.94.87-1.94,1.94c0,7.61-5.07,16.91-10.99,16.91-1.07,0-1.94.87-1.94,1.94s.87,1.94,1.94,1.94c5.92,0,10.99,9.3,10.99,16.91,0,1.07.87,1.94,1.94,1.94s1.94-.87,1.94-1.94c0-7.61,5.07-16.91,10.99-16.91,1.07,0,1.94-.87,1.94-1.94s-.87-1.94-1.94-1.94ZM637.93,729.15c-1.98,1.62-3.76,3.92-5.13,6.65-.17.33-.5.54-.87.54s-.7-.2-.87-.54c-1.37-2.73-3.15-5.03-5.13-6.65-.23-.19-.36-.46-.36-.75s.13-.57.36-.75c1.98-1.62,3.76-3.92,5.13-6.65.33-.66,1.4-.66,1.74,0,1.37,2.73,3.15,5.03,5.13,6.65.22.18.36.46.36.75s-.13.57-.36.75Z"/><path class="cls-1" d="M62.21,388.73c0,1.07.87,1.94,1.94,1.94s1.94-.87,1.94-1.94c0-7.61,5.07-16.91,10.99-16.91,1.07,0,1.94-.87,1.94-1.94s-.87-1.94-1.94-1.94c-5.92,0-10.99-9.3-10.99-16.91,0-1.07-.87-1.94-1.94-1.94s-1.94.87-1.94,1.94c0,7.61-5.07,16.91-10.99,16.91-1.07,0-1.94.87-1.94,1.94s.87,1.94,1.94,1.94c5.92,0,10.99,9.3,10.99,16.91ZM58.15,369.13c1.98-1.62,3.75-3.92,5.13-6.65.33-.65,1.4-.65,1.74,0,1.38,2.74,3.15,5.04,5.13,6.65.22.18.36.46.36.75s-.13.57-.36.75c-1.98,1.62-3.75,3.92-5.13,6.65-.17.33-.5.53-.87.53s-.7-.21-.87-.53c-1.38-2.74-3.15-5.04-5.13-6.65-.22-.18-.36-.46-.36-.75s.13-.57.36-.75Z"/><path class="cls-1" d="M633.87,351.02c0-1.07-.87-1.94-1.94-1.94s-1.94.87-1.94,1.94c0,7.61-5.07,16.91-10.99,16.91-1.07,0-1.94.87-1.94,1.94s.87,1.94,1.94,1.94c5.92,0,10.99,9.3,10.99,16.91,0,1.07.87,1.94,1.94,1.94s1.94-.87,1.94-1.94c0-7.61,5.07-16.91,10.99-16.91,1.07,0,1.94-.87,1.94-1.94s-.87-1.94-1.94-1.94c-5.92,0-10.99-9.3-10.99-16.91ZM637.93,370.63c-1.98,1.62-3.75,3.92-5.13,6.65-.17.33-.5.53-.87.53s-.7-.21-.87-.53c-1.38-2.74-3.15-5.04-5.13-6.65-.22-.18-.36-.46-.36-.75s.13-.57.36-.75c1.98-1.62,3.75-3.92,5.13-6.65.33-.65,1.4-.65,1.74,0,1.38,2.74,3.15,5.04,5.13,6.65.22.18.36.46.36.75s-.13.57-.36.75Z"/><path class="cls-1" d="M294.6,489.4c0-1.07-.87-1.94-1.94-1.94-5.92,0-10.99-9.3-10.99-16.91,0-1.07-.87-1.94-1.94-1.94s-1.94.87-1.94,1.94c0,7.61-5.07,16.91-10.99,16.91-1.07,0-1.94.87-1.94,1.94s.87,1.94,1.94,1.94c5.92,0,10.99,9.3,10.99,16.91,0,1.07.87,1.94,1.94,1.94s1.94-.87,1.94-1.94c0-7.61,5.07-16.91,10.99-16.91,1.07,0,1.94-.87,1.94-1.94ZM285.72,490.15c-1.98,1.62-3.75,3.92-5.13,6.65-.17.33-.5.53-.87.53s-.7-.21-.87-.53c-1.38-2.74-3.15-5.04-5.13-6.65-.22-.18-.36-.46-.36-.75s.13-.57.36-.75c1.98-1.62,3.75-3.92,5.13-6.65.33-.65,1.4-.65,1.74,0,1.38,2.74,3.15,5.04,5.13,6.65.22.18.36.46.36.75s-.13.57-.36.75Z"/><path class="cls-1" d="M416.36,510.2c1.07,0,1.94-.87,1.94-1.94,0-7.61,5.07-16.91,10.99-16.91,1.07,0,1.94-.87,1.94-1.94s-.87-1.94-1.94-1.94c-5.92,0-10.99-9.3-10.99-16.91,0-1.07-.87-1.94-1.94-1.94s-1.94.87-1.94,1.94c0,7.61-5.07,16.91-10.99,16.91-1.07,0-1.94.87-1.94,1.94s.87,1.94,1.94,1.94c5.92,0,10.99,9.3,10.99,16.91,0,1.07.87,1.94,1.94,1.94ZM410.36,490.15c-.22-.18-.36-.46-.36-.75s.13-.57.36-.75c1.98-1.62,3.75-3.92,5.13-6.65.33-.65,1.4-.65,1.74,0,1.38,2.74,3.15,5.04,5.13,6.65.22.18.36.46.36.75s-.13.57-.36.75c-1.98,1.62-3.75,3.92-5.13,6.65-.17.33-.5.53-.87.53s-.7-.21-.87-.53c-1.38-2.74-3.15-5.04-5.13-6.65Z"/><path class="cls-1" d="M456.34,788.58c1.07,0,1.94-.87,1.94-1.94s-.87-1.94-1.94-1.94h-216.6c-1.07,0-1.94.87-1.94,1.94s.87,1.94,1.94,1.94h216.6Z"/><path class="cls-1" d="M370.81,882.92c-.17-.3-.17-.67,0-.97,2.34-4,3.58-8.57,3.58-13.22,0-14.53-11.82-26.35-26.35-26.35s-26.35,11.82-26.35,26.35c0,4.65,1.24,9.22,3.58,13.22.17.3.18.67,0,.97-.17.3-.49.49-.84.49h-20.61c-1.07,0-1.94.87-1.94,1.94s.87,1.94,1.94,1.94h26.39c.77,0,1.47-.46,1.78-1.17.31-.71.16-1.53-.36-2.1-3.9-4.18-6.05-9.62-6.05-15.3,0-12.39,10.08-22.47,22.47-22.47s22.47,10.08,22.47,22.47c0,5.69-2.15,11.12-6.05,15.3-.53.57-.67,1.39-.36,2.1.31.71,1.01,1.17,1.78,1.17h26.39c1.07,0,1.94-.87,1.94-1.94s-.87-1.94-1.94-1.94h-20.61c-.35,0-.67-.19-.84-.49Z"/><path class="cls-1" d="M382.09,899.32h-68.1c-1.07,0-1.94.87-1.94,1.94s.87,1.94,1.94,1.94h68.1c1.07,0,1.94-.87,1.94-1.94s-.87-1.94-1.94-1.94Z"/><path class="cls-1" d="M566.99,872.04h-41.81c-.49,0-.9-.36-.96-.84-1.4-10.42-10.01-17.98-20.47-17.98-.3.05-.8-.08-1.01-.32-6.17-7.2-15.13-11.34-24.58-11.34-16.65,0-30.82,13-32.27,29.6-.04.5-.46.89-.97.89h-35.2c-.52,0-.95-.41-.97-.93-1.51-32.51-28.18-57.98-60.71-57.98s-59.2,25.47-60.71,57.98c-.03.52-.45.93-.97.93h-35.2c-.5,0-.93-.39-.97-.89-1.45-16.6-15.62-29.6-32.27-29.6-9.45,0-18.41,4.13-24.58,11.34-.2.24-.5.38-.82.33-10.68,0-19.27,7.56-20.67,17.97-.06.48-.48.84-.96.84h-41.81c-1.07,0-1.94.87-1.94,1.94s.87,1.94,1.94,1.94h41.81c.49,0,.9.36.96.84,1.4,10.42,10.01,17.98,20.47,17.98.32-.02.8.08,1.01.32,6.18,7.2,15.13,11.34,24.58,11.34,16.65,0,30.82-13,32.27-29.6.04-.5.46-.89.97-.89h35.2c.52,0,.95.41.97.93,1.51,32.51,28.18,57.98,60.71,57.98s59.2-25.47,60.71-57.98c.03-.52.45-.93.97-.93h35.2c.5,0,.93.39.97.89,1.45,16.6,15.62,29.6,32.27,29.6,9.44,0,18.4-4.13,24.58-11.34.21-.24.52-.37.82-.33,10.67,0,19.27-7.56,20.66-17.97.06-.48.48-.84.96-.84h41.81c1.07,0,1.94-.87,1.94-1.94s-.87-1.94-1.94-1.94ZM192.33,890.87c-9.31,0-16.88-7.57-16.88-16.88s7.57-16.88,16.88-16.88,16.88,7.57,16.88,16.88-7.57,16.88-16.88,16.88ZM217.92,902.53c-7.12,0-13.91-2.61-19.13-7.36-.25-.23-.37-.58-.3-.91.07-.34.31-.61.63-.72,8.37-2.9,13.98-10.75,13.98-19.55s-5.62-16.65-13.99-19.55c-.32-.11-.57-.39-.63-.73-.07-.33.05-.68.3-.91,5.23-4.74,12.02-7.36,19.14-7.36,15.74,0,28.55,12.8,28.55,28.54s-12.81,28.54-28.55,28.54ZM348.04,930.94c-31.41,0-56.96-25.55-56.96-56.96s25.55-56.96,56.96-56.96,56.96,25.55,56.96,56.96-25.55,56.96-56.96,56.96ZM497.29,895.17c-5.22,4.75-12.02,7.36-19.13,7.36-15.74,0-28.55-12.8-28.55-28.54s12.81-28.54,28.55-28.54c7.11,0,13.91,2.61,19.14,7.36.25.23.37.58.3.91-.07.34-.31.61-.63.73-8.37,2.9-13.99,10.75-13.99,19.55s5.62,16.65,13.98,19.55c.32.11.57.39.63.72.07.33-.05.68-.3.91ZM503.75,890.87c-9.31,0-16.88-7.57-16.88-16.88s7.57-16.88,16.88-16.88,16.88,7.57,16.88,16.88-7.57,16.88-16.88,16.88Z"/></g></svg>