<?xml version="1.0" encoding="UTF-8"?><svg id="Layer_2" xmlns="http://www.w3.org/2000/svg" viewBox="0 0 127.14 120.23"><defs><style>.cls-1{fill:#e3cda2;}</style></defs><g id="graphics2"><path class="cls-1" d="M127.14,10.06V0c-8.11,0-15.99,1.59-23.4,4.73-7.16,3.03-13.59,7.36-19.11,12.88-5.52,5.52-9.85,11.95-12.88,19.11-2.43,5.76-3.92,11.79-4.48,17.99h-7.42c-.55-6.21-2.04-12.24-4.48-17.99-3.03-7.16-7.36-13.59-12.88-19.11S30.56,7.75,23.4,4.73C15.99,1.59,8.11,0,0,0v10.06c25.77,0,47.05,19.58,49.76,44.65h-23.63v10.81h23.63c-2.71,25.07-23.99,44.65-49.76,44.65v10.06c8.11,0,15.99-1.59,23.4-4.73,7.16-3.03,13.59-7.36,19.11-12.88,5.52-5.52,9.85-11.95,12.88-19.11,2.43-5.76,3.92-11.79,4.48-17.99h7.42c.55,6.21,2.04,12.24,4.48,17.99,3.03,7.16,7.36,13.59,12.88,19.11,5.52,5.52,11.95,9.85,19.11,12.88,7.41,3.14,15.29,4.73,23.4,4.73v-10.06c-25.77,0-47.05-19.58-49.76-44.65h23.63v-10.81h-23.63c2.71-25.07,23.99-44.65,49.76-44.65Z"/></g></svg>