<?xml version="1.0" encoding="UTF-8"?><svg id="Layer_2" xmlns="http://www.w3.org/2000/svg" viewBox="0 0 698.52 912.68"><defs><style>.cls-1{fill:#58365f;}</style></defs><g id="graphics"><path class="cls-1" d="M526.92,526.43c.15-.02.35-.06.54-.14,6.29-2.55,14.11-23.96,19.34-43.14.09-.34.36-.6.7-.68,5.36-1.34,7.55-10.34,9.34-19.44.03-.18.12-.35.24-.48,5.26-5.55,19.75-11.12,33.75-16.51,13.57-5.22,27.61-10.62,35.26-16.61,18.19-14.25,32.07-43.28,21.95-69.03-.34-.86-1.2-1.38-2.07-1.21-.91.14-1.58.85-1.65,1.75-.85,10.82-6.88,16.43-17.91,16.68-1.23.03-3.07-.08-5.02-.2l-.63-.04c-8.62-.53-23.04-1.42-32.55,3.77-10.07,5.49-14.78,17.49-18.92,28.07-1.64,4.17-3.29,8.39-5.2,11.88-.22.4-.68.59-1.12.47-.44-.13-.72-.55-.69-1,1.17-15.62,2.07-37.57-.27-53.46-.03-.2,0-.39.09-.57,4.85-9.73,9.09-21.13,3.67-31.96-12.11-24.19-12.67-56.12-5.07-67.46.47-.7.43-1.62-.11-2.29-.53-.66-1.45-.88-2.21-.57-12.4,5.02-17.44,12.96-21.2,20.01-.17.31-.49.5-.84.51-.33.07-.68-.18-.85-.48-4.24-7.38-8.13-13.78-11.9-19.59-.06-.09-.1-.18-.12-.28-1.58-6.1-.17-14.78,1.33-23.97,2.08-12.77,4.43-27.24-.41-39.71-5.11-13.12-14.72-16.42-22.45-19.06-5.3-1.81-9.49-3.25-11.4-7.16-.42-.85-1.41-1.28-2.32-.99-.91.29-1.47,1.2-1.31,2.15,1.18,7.29,4.07,10.09,6.17,12.13,1.59,1.54,2.15,2.21,2.22,3.72.12,2.65-.95,4.3-2.18,6.22-1.64,2.55-3.51,5.43-2.36,10.46.67,2.96,2.45,5.84,4.51,9.17,2.45,3.94,5.76,9.29,7.32,16.33.09.43-.11.87-.5,1.07-.4.2-.87.11-1.16-.22-44.55-50.66-92.42-58.8-124.81-56.76-12.18.76-23.59,2.48-33.93,5.09-12.02,2.69-26.59-.53-42-3.93-13.41-2.95-27.09-5.93-39.72-5.14-17.06,1.07-35.74,11.58-46.47,26.16-8.97,12.19-11.9,26.05-8.47,40.07.18.73.79,1.3,1.55,1.45.73.12,1.48-.18,1.92-.81,9.65-14.12,25.22-10.36,40.29-6.72,8.91,2.14,18.01,4.34,25.59,2.42.35-.08.71.02.95.28.24.26.32.63.2.96-4.55,13.33-4.05,24.05-3.98,25.22.76,12.14,5.93,52.46,40.67,61.58.85.25,1.77-.15,2.19-.93.43-.78.27-1.74-.37-2.34-8.96-8.34-8.85-18.28-4.96-23.99,2.8-4.12,7.72-6.73,12.48-9.26,8.18-4.35,17.45-9.27,14.5-22.52-2.59-11.63.94-35.19,16.87-51.15.87-.87,1.77-1.69,2.53-2.38,22.45-12.93,41.51-9.16,53.56-3.75,16.64,7.47,27.8,20.97,32.7,31.11.18.37.1.82-.2,1.11-.3.28-.75.36-1.11.16-4.85-2.53-9.74-3.81-14.55-3.81-9.17.21-15.48,4.42-21.04,8.14-6.62,4.43-11.86,7.93-20.2,3.89-.87-.41-1.93-.12-2.47.69-.52.81-.36,1.89.38,2.52,4.67,3.93,7.12,8.12,9.28,11.81,3.37,5.73,6.55,11.16,16.49,12.76,2.29.37,5.26.67,8.14.95,13.29,1.31,33.37,3.29,45.14,15.27.11.12.2.26.24.42,3.42,12.61,8.81,37.1,6.46,59.43-1.19,11.31-4.66,23.88-8.01,36.04-2.88,10.47-6.16,22.34-7.55,33.03-.05.37-.31.68-.66.79-.37.11-.75,0-1-.26-4.06-4.38-5.33-11.25-6.8-19.21-1.43-7.76-2.91-15.78-7.43-22.2-10.86-15.48-30.67-13.08-38.13-12.18l-.44.05c-.51.07-.96.12-1.34.15-6.25.56-20.97-.06-22.64-18.22-.08-.88-.75-1.59-1.63-1.72-.1-.02-.2-.02-.3-.02-.76,0-1.45.45-1.77,1.18-8.62,20.34-9.21,38.09-1.75,52.75,8.4,16.51,25.67,25.71,39.02,28.82,12.97,3.01,22.64,8.31,30.42,12.57,4.06,2.23,7.64,4.15,10.83,5.31.46.17.73.67.6,1.14-.23.92-.57,1.96-.93,3.1-1.37,4.19-2.92,8.94-.69,12.72.99,1.68,2.59,2.91,4.9,3.75.46.17.72.64.61,1.11-4.04,18.74-4.67,31.55-1.73,35.16.11.13.24.25.41.38.29.21.43.56.38.91-2.5,17.03-.29,56.4,22.56,62.44,1.81.47,3.67.72,5.54.72,21.07,0,39.38-29.56,44.95-43.87.13-.32.42-.55.76-.6ZM572.87,410.64c4.11-10.48,8.36-21.29,17.18-26.09,8.52-4.63,22.3-3.79,30.53-3.31l.28.02c2.28.14,4.25.26,5.65.23,8.84-.2,15.34-3.65,18.8-9.96.2-.36.59-.57,1.02-.49.41.08.72.4.78.81,3.25,22.34-9.85,43.93-23.4,54.54-7.18,5.62-20.94,10.92-34.26,16.05-10.96,4.22-22.27,8.57-29.6,13.17-.16.1-.34.15-.51.15-.19,0-.38-.06-.54-.16-.32-.21-.48-.59-.41-.97.24-1.38.49-3.03.76-4.82.02-.16.09-.31.18-.44,8.26-10.93,23.6-17.03,38.43-22.92l.31-.12c4.67-1.86,9.06-3.61,13.18-5.49.96-.44,1.39-1.59.95-2.56-.44-.96-1.6-1.39-2.57-.95-4.2,1.92-8.82,3.76-13.3,5.54-11.06,4.4-24.8,9.87-34.35,18.29-.3.26-.73.31-1.08.13-.35-.18-.56-.57-.51-.97.34-2.89.66-5.98.98-9.23.03-.25.15-.48.34-.64,5.05-4.24,8.15-12.15,11.16-19.81ZM539.77,287.65c2.75-5.23,5.85-11.15,12.76-15.91.34-.23.79-.23,1.11.02.33.24.47.66.36,1.05-4.98,16.79-1.4,44.1,8.32,63.52,5.87,11.73-1.36,24.72-9.02,38.49-6.25,11.24-12.7,22.82-12.67,34.77.03,14.28-7.6,23.32-16.44,33.79-1.91,2.26-3.95,4.71-5.97,7.3-.19.24-.47.37-.76.37-.17,0-.34-.05-.49-.14-.42-.25-.58-.77-.39-1.22,2.15-4.87,4.59-9.15,6.75-12.93,5.2-9.11,9.68-16.98,8.84-28.1-.63-8.32,1.53-18.73,5.63-27.16.46-.95.06-2.11-.9-2.58-.94-.46-2.14-.03-2.58.89-4.44,9.14-6.68,20.04-6,29.13.75,9.94-3.46,17.34-8.34,25.89-.91,1.6-1.84,3.24-2.78,4.98-.22.41-.69.6-1.14.46-.44-.14-.72-.58-.66-1.04,7.55-60.67-1.14-125.39-23.24-173.14-.2-.43-.06-.95.34-1.21.4-.26.93-.2,1.25.15,3.24,3.49,6.53,8.26,9.44,12.46,8.6,12.44,17.49,25.33,28.47,20.15,3.79-1.78,5.79-5.61,8.11-10.03ZM498.55,215.42c-1.67-2.71-3.57-5.9-4.05-8.03-.78-3.45.38-5.25,1.85-7.52,1.39-2.16,2.97-4.6,2.79-8.48-.11-2.5-1.12-4.03-2.6-5.54-.32-.32-.37-.82-.12-1.2.25-.38.72-.53,1.14-.38,1.04.38,2.08.74,3.11,1.1,7.33,2.51,15.65,5.36,20.11,16.82,4.47,11.48,2.2,25.4.2,37.69-.85,5.28-1.64,10.4-1.88,15.14-.02.41-.3.76-.7.88-.09.03-.18.04-.27.04-.31,0-.6-.15-.79-.41-3.29-4.67-6.58-9.04-9.77-13.01-.14-.17-.21-.38-.21-.61-.02-11.22-5.23-20.58-8.83-26.49ZM399.31,182.17c36.89,3.91,90.09,25.57,134.08,106.57l.4.72c.17.31.16.69-.03.99-1.29,2-2.41,3.11-3.73,3.74-1.07.51-2.14.74-3.2.74-6.92,0-13.75-9.9-20.4-19.51-6.28-9.08-12.15-17.57-18.88-19.27-.26-.07-.49-.24-.61-.48l-.28-.53c-1.32-2.49-2.66-5.03-4.08-7.41-16.79-28.18-38-45.8-61.33-50.95-3.16-.7-6.46-1.28-10.07-1.77-.26-.04-.5-.18-.66-.4-1.31-1.88-5.09-6.69-11.78-10.65-.39-.23-.57-.7-.43-1.13.14-.43.56-.71,1.02-.66ZM240.23,183.37c6.76-3.29,13.83-5.25,20.46-5.67,12.3-.76,25.73,2.21,38.75,5.08,8.05,1.77,16.22,3.57,23.88,4.44.43.05.78.38.84.82.06.43-.17.85-.58,1.03-5.35,2.27-10.42,4.94-15.07,7.92-.1.06-.2.11-.32.13-.6.13-1.24.19-1.91.19-4.19,0-9.83-2.3-16.22-4.91l-.26-.11c-9.67-3.95-21.71-8.87-35.26-8.87-4.63,0-9.22.59-13.66,1.75-.5.11-.98-.14-1.15-.6-.17-.47.04-.99.48-1.2ZM250.18,230.25c-13.73-3.31-29.26-7.07-40.36,3.49-.18.18-.42.27-.67.27-.11,0-.23-.02-.34-.06-.34-.13-.59-.44-.63-.81-1.35-13.11,3.68-23.44,8.13-29.8,12.2-10.87,24.64-16.07,38.21-16.07,12.82,0,24.46,4.76,33.82,8.58,4.73,1.93,8.95,3.6,12.68,4.5.36.09.64.37.72.73s-.05.73-.34.96c-6.18,4.89-11.51,10.49-15.82,16.65-.32.46-.61.91-.9,1.36l-.35.54c-.11.17-.27.3-.46.38-5.54,2.14-15.63.27-25.72-2.08-1.05-.22-2.06.41-2.31,1.45-.12.5-.03,1.02.24,1.45.27.44.7.75,1.2.86,6.55,1.52,14.06,3.15,20.27,3.15.67,0,1.34-.02,2.01-.07.33-.06.69.14.87.43.19.29.21.67.05.98-.58,1.1-1.1,2.15-1.58,3.18-.08.16-.19.3-.34.4-7.03,4.67-17.4,2.16-28.38-.49ZM350.67,211.57c-17.91,17.94-20.49,43.08-17.9,54.71,2.31,10.39-4.25,13.87-12.55,18.28-5.17,2.74-10.51,5.58-13.87,10.49-3.11,4.57-4.94,12.43-.75,20.77.19.38.11.83-.19,1.12-.18.18-.43.27-.67.27-.15,0-.31-.04-.45-.11-24-12.74-27.82-44.9-28.42-54.45-.14-2.19-.95-21.98,12.89-41.73,11.55-16.49,29.8-28.01,54.22-34.22,10.12-2.57,21.29-4.25,33.2-5.01,13.94.32,22.65,6.07,27.52,10.84.29.28.37.71.21,1.08s-.54.59-.94.57c-27.22-1.66-43.46,8.54-52.29,17.38ZM462.96,283.37c-.09.03-.2.05-.29.05-.3,0-.59-.14-.78-.4-9.6-13.1-32.14-20.11-42.06-20.35-1.03,0-1.88.83-1.91,1.88-.01.52.18,1,.53,1.37.36.37.84.59,1.35.6,7.89.19,24.14,5,34.13,13.55.37.32.45.86.18,1.26-.27.41-.8.55-1.23.34-11.61-5.66-25.45-7.03-35.57-8.02l-.34-.03c-3.02-.3-5.55-.55-7.6-.88-8.16-1.32-10.52-5.35-13.79-10.93-1.08-1.84-2.28-3.87-3.74-5.9-.21-.29-.24-.67-.08-.99.16-.32.48-.53.84-.54,5.69-.18,10.34-3.29,14.84-6.3,5.38-3.59,10.94-7.3,19-7.48h.42c9.41,0,20.45,6.86,28.14,17.48,5.72,7.9,8.71,16.34,8.63,24.4,0,.42-.27.78-.67.91ZM440.62,440.82c-7.99-4.38-17.92-9.84-31.44-12.97-12.51-2.9-28.65-11.47-36.46-26.81-5.83-11.46-6.3-25.17-1.38-40.73.12-.38.47-.65.87-.67.49,0,.78.21.94.58,5.75,13.16,20.28,12.87,24.59,12.46.46-.04,1.02-.11,1.89-.21,7.46-.91,24.95-3.05,34.51,10.57,4.03,5.75,5.43,13.34,6.79,20.69,1.86,10.03,3.77,20.39,12.75,24.87,6.82,3.4,6.44,10.29,5.77,12.43l-.15.47c-.1.3-.34.53-.65.61-.29.09-.63.02-.87-.18-5.64-4.61-14.9-10.63-19.04-12.38-.48-.2-1-.21-1.48-.02-.48.19-.85.56-1.05,1.03-.21.48-.21,1-.02,1.48.2.48.56.85,1.04,1.05,3.7,1.57,13.07,7.7,18.22,11.91.29.24.42.63.32.99-.09.37-.4.64-.77.7-.22.04-.45.06-.69.06-.41,0-.86-.06-1.35-.18-3.39-.84-7.53-3.11-12.32-5.74ZM451.86,464.48c-1.34-2.28-.08-6.15,1.03-9.56.39-1.17.78-2.41,1.07-3.6.1-.41.46-.71.88-.73,3.76-.23,6.62-3.14,8.28-8.43,1.24-3.99.66-11.54-6.07-15.97-.3-.2-.46-.54-.43-.9,1.06-11.03,4.5-23.51,7.82-35.58,3.41-12.37,6.91-25.09,8.13-36.68,2.41-22.89-3.06-47.87-6.54-60.72-.05-.18-.05-.37.01-.55,3.46-10.88.5-24.32-7.92-35.96-2.63-3.63-5.75-6.94-9.27-9.86-.16-.13-.27-.31-.32-.52-3.15-13.03-17.35-31.75-37.47-40.79-5.41-2.43-11.01-4.05-16.66-4.81-.5-.07-.86-.5-.84-1.01.03-.5.43-.9.93-.91,8.02-.27,16.73.62,25.9,2.64,22.27,4.91,42.62,21.91,58.85,49.15,35.54,59.66,45.17,155.04,23.77,233.13-.29,1.07-.6,2.14-.9,3.21-.84,3.03,2.84,4.05,3.71,1.06.27-.95.58-2.03.85-3.04,1.1-4.02,2.11-8.04,3.01-11.98,4.48-10.84,11.08-18.65,17.45-26.2,8.94-10.59,17.38-20.6,17.35-36.29-.02-10.94,6.17-22.08,12.17-32.85l.63-1.14c.21-.37.65-.56,1.05-.47.41.09.72.44.75.87,2,26.53-2.01,64.29-4.61,78.61-2.65,14.62-4.69,24.2-8.79,24.2-11.73-.94-22.75,9.91-32.5,19.48-6.95,6.82-14.11,13.86-19.3,13.86-.44,0-.85-.05-1.26-.15-4.41-1.11-6.39-7.32-8.68-14.49-2.14-6.67-4.79-14.94-10.32-21.14-.2-.23-.28-.53-.23-.82,1.42-7.62,2.84-14.84,4.19-21.73,4.9-24.93,9.12-46.37,10.04-69.89.04-1.06-.8-1.96-1.87-2-1.16,0-1.94.71-1.99,1.86-.91,23.22-5.1,44.52-9.95,69.17-1.16,5.89-2.36,12.06-3.57,18.48-.06.32-.28.59-.58.72-.3.12-.65.08-.91-.1-3.42-2.38-7.3-3.97-11.87-4.85-2.58-.5-4.27-1.4-5.03-2.7ZM457.85,534.54c-.46-.03-.83-.38-.9-.83-.61-4.47-.91-9.12-.87-13.82,0-.44.31-.83.74-.93.41-.11.87.1,1.08.5.14.26.26.54.38.82,1.62,3.83,1.83,8.89.56,13.56-.11.42-.5.71-.99.71ZM517.57,536.15c-2.29,4.1-4.85,8.01-7.63,11.63-.19.24-.47.38-.76.38-.14,0-.29-.03-.42-.1-.41-.2-.63-.66-.52-1.1,1.2-4.8,3.78-8.91,7.23-11.56.24-.18.47-.35.71-.52.37-.24.86-.21,1.19.09.33.3.41.79.19,1.18ZM521.23,528.87c-.15.34-.5.56-.87.57-2.29.02-4.79,1.02-7.23,2.9-4.92,3.77-9.99,11.59-9.44,22.21.01.27-.09.53-.28.73-5.58,5.63-13.63,11.76-22.24,11.76-1.49,0-2.99-.18-4.5-.58-10.26-2.71-15.3-13.97-17.72-22.93-.07-.26-.03-.54.12-.77,5.72-8.97,5.19-18.27,2.78-23.99-1.19-2.84-2.87-4.94-4.85-6.09-.32-.19-.51-.55-.47-.93.08-.81.17-1.61.27-2.38.04-.3.22-.56.48-.71.26-.15.59-.17.86-.04,1.87.82,3.75,2.25,5.32,4.03,2.42,2.78,6.25,8.95,4.64,19.08-1.74,11.02,4.77,19.6,12.08,21.54,1.13.3,2.34.45,3.58.45,6.26,0,14.12-4.09,17.56-13.21,3.62-9.62,10-13.08,13.47-14.29,2.21-.78,4.62-1.1,6.61-.89.3.03.57.2.72.46.16.26.18.58.07.86-.29.73-.6,1.46-.94,2.21ZM513.49,522.58c-4.11,1.43-11.64,5.49-15.81,16.58-2.69,7.14-8.67,10.72-13.87,10.72-.92,0-1.82-.11-2.67-.34-5.65-1.49-10.65-8.34-9.25-17.21,1.85-11.68-2.68-18.94-5.55-22.22-3.25-3.71-7.28-6.02-10.52-6.03-.36,0-.69-.2-.85-.53-1.07-2.1-1.26-12.41,2.81-31.15.06-.26.22-.49.45-.63.23-.14.5-.17.76-.1,13.95,4.06,17.86,16.24,21.3,26.98,2.65,8.28,4.93,15.43,11.41,17.06.74.19,1.5.28,2.27.28,6.7,0,13.76-6.94,21.94-14.97,7.87-7.73,16.79-16.5,25.53-18.14.33-.06.66.05.89.3.22.24.31.59.22.91-6.42,23.04-13.24,36.53-15.83,38.39-.3.21-.69.24-1.01.07-2.97-1.54-7.76-1.54-12.21.02Z"/><path class="cls-1" d="M493.81,555c-.11-.02-.23-.03-.35-.03-.39,0-.78.12-1.1.34-2.48,1.69-4.68,2.29-4.92,2.36-1.05.25-1.69,1.29-1.44,2.32.24,1.02,1.14,1.69,2.33,1.43.49-.12,3.16-.84,6.2-2.93.43-.29.72-.73.81-1.24.1-.5-.01-1.02-.3-1.44-.3-.44-.72-.72-1.24-.81Z"/><path class="cls-1" d="M468.52,549c-.23-.46-.61-.81-1.1-.98-.21-.08-.43-.11-.65-.11-.29,0-.56.07-.83.2-.46.23-.81.62-.98,1.1-.17.49-.14,1.01.09,1.47,1.61,3.31,3.59,5.27,3.96,5.63.76.7,2.03.63,2.71-.1.72-.78.68-2-.1-2.73-.19-.19-1.8-1.78-3.11-4.48Z"/><path class="cls-1" d="M305.3,219.3c-.09,0-.17,0-.26.02-.52.07-.97.34-1.28.74-1.13,1.48-2.2,2.97-3.28,4.57-.59.88-.35,2.08.53,2.68.84.56,2.1.32,2.68-.53.97-1.45,2.02-2.91,3.13-4.38.32-.41.45-.92.38-1.43-.07-.51-.33-.96-.74-1.28-.34-.26-.75-.4-1.16-.4Z"/><path class="cls-1" d="M298.05,232.28c-.29-.15-.59-.23-.89-.23-.19,0-.39.03-.58.09-.5.15-.9.49-1.13.95-8.98,17.29-10.78,35.22-5.49,54.84.27,1.01,1.38,1.62,2.35,1.37.51-.14.93-.46,1.18-.9.26-.44.32-.96.19-1.46-5.03-18.65-3.33-35.67,5.18-52.06.24-.46.28-.98.13-1.46-.15-.49-.49-.89-.94-1.13Z"/><path class="cls-1" d="M246.26,216.24c-2.45-.46-4.42-.72-6.04-.77-1.07.02-1.91.8-1.95,1.86-.02.52.17,1.01.52,1.38.35.38.83.59,1.34.61,1.38.05,3.15.28,5.41.7,1.01.18,2.06-.51,2.24-1.53.1-.51,0-1.02-.3-1.45-.29-.42-.73-.71-1.24-.8Z"/><path class="cls-1" d="M539.5,371.96c.08.5.36.95.78,1.25.84.6,2.1.39,2.69-.44,1.08-1.5,2.16-2.84,3.23-4,.71-.78.66-2.01-.13-2.73-.78-.72-2-.66-2.72.12-1.2,1.32-2.38,2.78-3.51,4.35-.3.42-.42.93-.34,1.44Z"/><path class="cls-1" d="M625.1,412.58c1.95-1.67,3.52-3.45,4.67-5.29.56-.9.29-2.09-.61-2.66-.32-.2-.67-.29-1.01-.29-.64,0-1.28.32-1.65.91-.93,1.49-2.25,2.98-3.92,4.42-.39.34-.63.81-.67,1.32-.04.51.13,1.01.46,1.4.66.78,1.94.88,2.72.21Z"/><path class="cls-1" d="M586.86,402.87c.89.51,2.12.2,2.64-.68,2.1-3.55,5.78-6.15,9.83-6.92,1.04-.2,1.72-1.22,1.52-2.26-.2-1.02-1.21-1.7-2.26-1.53-5.11.99-9.76,4.26-12.42,8.75-.26.44-.34.96-.21,1.46.13.5.44.92.89,1.19Z"/><path class="cls-1" d="M528.38,305.03c-.22-.08-.44-.12-.67-.12-.78,0-1.52.47-1.81,1.23-.38.99.12,2.11,1.11,2.49,4.26,1.63,9.57.28,12.52-3.13.34-.39.5-.89.47-1.4-.04-.52-.27-.98-.67-1.32-.79-.7-2.01-.61-2.72.2-1.95,2.26-5.41,3.13-8.22,2.05Z"/><path class="cls-1" d="M506.64,203.32c-.37-.49-.95-.75-1.54-.75-.41,0-.82.12-1.17.39-1.38,1.05-2.28,2.71-2.45,4.56-.18,1.86.38,3.67,1.54,4.97.67.76,1.96.84,2.72.15.38-.34.61-.82.64-1.33.03-.52-.15-1.01-.49-1.39-.44-.49-.65-1.24-.58-2.01.08-.77.44-1.47.96-1.87.84-.64,1.01-1.85.37-2.71Z"/><path class="cls-1" d="M325,263.1c-.23-.09-.47-.13-.7-.13-.27,0-.53.06-.78.17-.47.21-.83.59-1.01,1.07s-.17,1.01.04,1.48c1.2,2.68.11,6.24-2.39,7.78-.44.27-.75.69-.87,1.2-.12.5-.03,1.02.24,1.46.55.87,1.8,1.16,2.64.63,4.15-2.55,5.89-8.22,3.9-12.65-.21-.47-.59-.82-1.07-1.01Z"/><path class="cls-1" d="M485.89,374.3c.52,0,1.01-.21,1.37-.58.36-.37.56-.85.56-1.37-.02-2.37-.07-4.77-.16-7.21-.04-1.11-1.08-1.86-2.03-1.86-.48.02-.96.23-1.31.61-.35.38-.54.87-.52,1.38.09,2.4.14,4.77.16,7.11,0,1.05.87,1.91,1.93,1.91Z"/><path class="cls-1" d="M380.62,387.62c-.2-.91-.99-1.52-1.9-1.52-.13,0-.27.02-.41.04-1.02.22-1.68,1.25-1.46,2.29,1.89,8.78,7.37,16.61,16.26,23.26.83.62,2.09.43,2.7-.39.64-.85.46-2.06-.39-2.7-8.13-6.08-13.11-13.14-14.8-20.99Z"/><path class="cls-1" d="M406.75,415.39c-1.23-.59-2.43-1.21-3.59-1.84-.29-.16-.61-.24-.93-.24-.18,0-.37.02-.55.08-.49.14-.9.47-1.14.92-.25.45-.31.97-.16,1.46.14.5.47.9.92,1.15,1.23.68,2.49,1.33,3.79,1.95.94.45,2.13.03,2.58-.91.22-.47.25-.99.08-1.47-.17-.49-.52-.88-.99-1.1Z"/><path class="cls-1" d="M204.86,350.8c2.55-1.74,4.83-2.34,4.93-2.36,1.04-.25,1.68-1.29,1.44-2.32-.25-1.03-1.28-1.65-2.33-1.43-.53.13-3.19.86-6.21,2.93-.43.29-.72.73-.81,1.24-.1.5.01,1.02.3,1.44.59.86,1.84,1.08,2.68.51Z"/><path class="cls-1" d="M228.71,357.11c.46.92,1.65,1.34,2.58.89.95-.47,1.35-1.62.89-2.58-1.72-3.54-3.87-5.54-3.96-5.63-.37-.34-.84-.51-1.31-.51-.52,0-1.03.21-1.41.61-.72.77-.67,2,.1,2.73.19.19,1.8,1.78,3.11,4.49Z"/><path class="cls-1" d="M483.26,706.09c8.97-12.19,11.9-26.04,8.47-40.07-.18-.73-.79-1.3-1.54-1.45-.77-.13-1.49.18-1.92.82-9.65,14.11-25.23,10.35-40.31,6.71-8.86-2.14-17.98-4.33-25.56-2.43-.33.08-.7-.02-.94-.28-.24-.26-.32-.63-.2-.96,4.57-13.4,4.04-24.04,3.97-25.21-.76-12.14-5.93-52.46-40.66-61.58-.86-.24-1.76.15-2.2.94-.43.77-.27,1.73.38,2.33,8.95,8.33,8.84,18.28,4.96,23.99-2.81,4.12-7.73,6.73-12.49,9.25-8.17,4.35-17.44,9.27-14.5,22.52,2.59,11.63-.94,35.19-16.87,51.15-.87.87-1.77,1.69-2.53,2.38-22.48,12.92-41.51,9.16-53.56,3.75-16.55-7.43-27.7-20.87-32.62-30.98-.18-.37-.11-.82.19-1.11.3-.29.74-.37,1.12-.17,4.66,2.41,9.48,3.68,13.92,3.68h.54c9.18-.21,15.49-4.42,21.05-8.14,6.62-4.44,11.85-7.93,20.21-3.88.87.42,1.93.12,2.46-.69.53-.81.36-1.9-.38-2.53-4.67-3.93-7.12-8.11-9.27-11.8-3.37-5.73-6.55-11.16-16.49-12.76-2.29-.37-5.26-.67-8.14-.95-13.29-1.31-33.36-3.29-45.13-15.27-.11-.12-.2-.26-.24-.42-3.42-12.61-8.81-37.1-6.46-59.43,1.19-11.3,4.66-23.88,8.01-36.04,2.89-10.51,6.17-22.42,7.57-33.03.05-.37.31-.68.67-.79.34-.11.75-.01,1,.26,4.06,4.39,5.32,11.25,6.79,19.2,1.43,7.76,2.91,15.78,7.42,22.2,10.9,15.52,30.68,13.09,38.13,12.18l.44-.05c.55-.07.98-.12,1.34-.15,6.24-.57,20.97.06,22.64,18.22.08.88.75,1.59,1.63,1.72.87.15,1.71-.31,2.07-1.15,8.63-20.35,9.22-38.1,1.76-52.75-8.41-16.52-25.68-25.72-39.03-28.82-13.01-3.02-22.68-8.32-30.44-12.58-4.03-2.21-7.61-4.13-10.81-5.29-.46-.17-.73-.67-.6-1.15.24-.92.57-1.95.93-3.07,1.37-4.21,2.93-8.97.7-12.75-.99-1.68-2.59-2.91-4.9-3.75-.46-.17-.72-.64-.61-1.11,4.04-18.73,4.67-31.55,1.73-35.16-.11-.13-.23-.24-.41-.37-.29-.21-.43-.56-.38-.91,2.5-17.03.29-56.4-22.56-62.43-22.91-6.1-44.27,27.09-50.51,43.16-.13.33-.43.56-.77.61-.14.02-.32.05-.49.12-6.31,2.57-14.14,23.98-19.35,43.16-.09.34-.36.6-.69.68-5.37,1.36-7.56,10.34-9.34,19.42-.03.18-.12.35-.24.48-5.26,5.55-19.73,11.12-33.72,16.5-13.62,5.25-27.65,10.65-35.29,16.63-18.19,14.25-32.07,43.29-21.95,69.03.32.82,1.19,1.36,2.07,1.2.9-.14,1.57-.85,1.64-1.75.85-10.82,6.87-16.43,17.89-16.68,1.33-.03,3.37.09,5.74.24,8.62.51,23.03,1.37,32.48-3.77,10.06-5.48,14.76-17.48,18.92-28.07,1.61-4.1,3.28-8.35,5.2-11.88.22-.4.69-.61,1.12-.46.43.13.72.54.69.99-1.17,15.6-2.07,37.53.27,53.44.03.2,0,.39-.09.57-4.85,9.73-9.09,21.13-3.67,31.96,12.11,24.18,12.67,56.12,5.07,67.46-.47.71-.43,1.63.11,2.29.52.65,1.42.88,2.23.57,12.39-5.01,17.43-12.95,21.18-20.01.17-.31.49-.5.85-.51.35,0,.66.18.84.49,4.26,7.42,8.14,13.83,11.88,19.59.06.09.1.18.12.28,1.6,6.1.18,14.79-1.31,23.98-2.08,12.78-4.42,27.25.42,39.7,5.11,13.13,14.72,16.42,22.45,19.06,5.31,1.81,9.49,3.25,11.39,7.15.41.84,1.31,1.31,2.33.99.9-.29,1.46-1.19,1.3-2.14-1.17-7.28-4.06-10.08-6.17-12.13-1.39-1.34-2.15-2.09-2.22-3.72-.12-2.64.95-4.3,2.19-6.22,1.64-2.55,3.5-5.43,2.36-10.46-.67-2.97-2.46-5.86-4.53-9.2-2.59-4.18-5.81-9.38-7.33-16.3-.09-.43.11-.87.5-1.07.4-.21.87-.11,1.16.22,35.53,40.44,77.57,59.68,124.84,56.76,12.18-.76,23.59-2.48,33.93-5.09,12.05-2.67,26.54.52,41.9,3.91,13.36,2.94,27.11,5.95,39.83,5.17,17.06-1.07,35.74-11.59,46.47-26.17ZM447.03,675.85c13.74,3.31,29.29,7.07,40.39-3.49.26-.26.65-.34,1-.21.34.13.59.44.63.81,1.35,13.1-3.67,23.42-8.12,29.79-13.64,12.12-26.53,16.08-38.28,16.08-12.76,0-24.18-4.67-33.76-8.58-4.73-1.93-8.94-3.6-12.68-4.5-.36-.09-.64-.37-.72-.73s.05-.73.34-.96c6.19-4.9,11.51-10.5,15.82-16.65.32-.45.61-.9.9-1.36l.35-.55c.11-.17.27-.31.46-.38,5.51-2.14,15.62-.27,25.71,2.08.99.22,2.09-.44,2.32-1.44.24-1.04-.41-2.07-1.44-2.32-7.28-1.69-15.6-3.5-22.29-3.04-.33-.02-.68-.15-.87-.44-.19-.29-.21-.66-.05-.97.59-1.13,1.12-2.2,1.6-3.22.07-.16.19-.3.34-.4,7.02-4.67,17.39-2.16,28.35.49ZM234.28,622.73c.38-.13.82.02,1.07.35,9.6,13.11,32.16,20.11,42.08,20.35.86-.06,1.86-.78,1.89-1.88.01-.52-.18-1-.53-1.37-.36-.37-.84-.59-1.35-.6-7.89-.19-24.14-5-34.14-13.56-.37-.32-.45-.86-.18-1.26.27-.41.79-.56,1.23-.34,11.63,5.67,25.49,7.03,35.61,8.03l.32.03c3.02.3,5.54.55,7.58.88,8.16,1.33,10.52,5.35,13.79,10.92,1.05,1.8,2.25,3.84,3.75,5.92.21.29.24.67.09.99-.16.32-.48.53-.83.54-5.71.2-10.35,3.3-14.84,6.3-5.38,3.59-10.94,7.3-19,7.48h-.42c-9.41,0-20.45-6.86-28.14-17.48-5.72-7.9-8.71-16.33-8.63-24.4,0-.42.27-.78.67-.91ZM256.61,465.29c8.02,4.4,17.94,9.84,31.43,12.97,12.51,2.9,28.65,11.47,36.46,26.81,5.84,11.46,6.3,25.16,1.39,40.73-.12.38-.47.65-.92.67-.38,0-.73-.23-.88-.58-5.71-13.07-19.88-12.9-24.59-12.45-.44.04-.97.11-1.6.18l-.31.04c-7.46.9-24.95,3.02-34.49-10.57-4.03-5.75-5.43-13.34-6.79-20.69-1.86-10.03-3.77-20.39-12.75-24.87-6.83-3.41-6.44-10.29-5.77-12.43l.15-.47c.1-.3.34-.53.65-.61.3-.09.63-.02.87.18,5.65,4.61,14.9,10.63,19.05,12.38.44.19.98.19,1.46,0,.49-.2.88-.56,1.07-1.01.21-.48.21-1,.02-1.48-.2-.48-.56-.85-1.04-1.05-3.37-1.43-12.62-7.33-18.22-11.92-.29-.24-.42-.62-.32-.99.09-.36.39-.64.76-.71.61-.11,1.28-.08,2.06.13,3.39.84,7.53,3.11,12.32,5.74ZM239.38,371.48c.46.03.83.38.89.83.62,4.51.92,9.19.88,13.9,0,.44-.31.83-.74.93-.07.02-.15.03-.22.03-.35,0-.69-.2-.86-.52-.14-.26-.26-.53-.38-.82-1.69-4.02-1.9-8.86-.57-13.64.12-.44.54-.77.99-.7ZM179.65,369.96c2.29-4.1,4.86-8.03,7.65-11.66.28-.37.79-.47,1.18-.28.41.2.63.66.52,1.1-1.2,4.81-3.77,8.92-7.23,11.58-.24.18-.49.37-.73.53-.17.11-.35.17-.54.17-.24,0-.47-.09-.65-.26-.33-.3-.41-.79-.19-1.18ZM175.98,377.28c.15-.34.49-.57.87-.57,2.28-.03,4.79-1.05,7.26-2.95,4.92-3.78,9.99-11.6,9.44-22.23-.01-.27.09-.53.28-.73,6.54-6.6,16.51-13.91,26.75-11.16,10.26,2.71,15.3,13.97,17.72,22.93.07.26.03.54-.12.77-5.72,8.97-5.19,18.27-2.78,23.99,1.2,2.84,2.88,4.94,4.85,6.09.33.19.52.55.48.93-.09.81-.18,1.6-.27,2.37-.04.3-.22.56-.48.72-.15.08-.31.12-.47.12-.13,0-.26-.03-.39-.08-1.87-.82-3.75-2.26-5.32-4.03-2.42-2.78-6.25-8.95-4.64-19.08,1.74-11.02-4.77-19.6-12.08-21.54-1.12-.29-2.32-.44-3.55-.44-6.28,0-14.16,4.08-17.58,13.2-3.62,9.62-9.99,13.08-13.47,14.29-2.26.79-4.61,1.1-6.62.89-.3-.03-.57-.21-.73-.47-.15-.26-.18-.58-.06-.86.29-.71.59-1.43.92-2.16ZM154.7,421.99c6.42-23.04,13.24-36.52,15.83-38.38.29-.21.68-.24,1-.07,2.99,1.53,7.77,1.53,12.21-.02,4.11-1.43,11.63-5.49,15.81-16.58,3.16-8.39,10.89-11.85,16.55-10.39,5.65,1.5,10.65,8.35,9.25,17.21-1.85,11.68,2.68,18.94,5.55,22.22,3.1,3.55,7.24,5.92,10.54,6.02.35.01.66.21.82.52,1.36,2.59.84,14.39-2.79,31.17-.06.26-.22.49-.45.63-.15.09-.32.14-.49.14-.09,0-.18-.01-.27-.04-13.96-4.06-17.86-16.25-21.3-27.01-2.65-8.27-4.94-15.41-11.4-17.04-.75-.19-1.52-.29-2.29-.29-6.68,0-13.74,6.94-21.91,14.98-7.44,7.32-16.71,16.42-25.52,18.12-.35.06-.67-.05-.89-.29-.23-.25-.31-.59-.22-.91ZM142.75,451.5c2.65-14.62,4.69-24.2,8.87-24.2,11.65.88,22.61-9.85,32.31-19.37,7.61-7.48,15.32-15.1,20.66-13.82,4.4,1.11,6.39,7.31,8.68,14.49,2.13,6.66,4.79,14.95,10.33,21.15.2.23.28.53.23.82-1.38,7.4-2.76,14.42-4.11,21.3l-.11.57c-4.88,24.8-9.09,46.22-10.01,69.74-.02.51.16.99.5,1.37.37.4.87.62,1.46.64,1.01,0,1.85-.81,1.89-1.86.91-23.24,5.1-44.55,9.96-69.22,1.16-5.87,2.36-12.03,3.56-18.43.06-.32.28-.59.58-.72.3-.13.64-.09.92.1,3.4,2.38,7.29,3.97,11.86,4.85,2.58.5,4.27,1.4,5.03,2.7,1.34,2.28.08,6.15-1.03,9.57-.41,1.24-.79,2.45-1.07,3.63-.1.41-.46.71-.88.74-3.82.23-6.6,3.05-8.27,8.39-1.2,3.84-.63,11.57,6.06,15.98.3.2.46.54.43.9-1.06,11.05-4.5,23.53-7.82,35.6-3.4,12.35-6.91,25.07-8.12,36.66-2.41,22.89,3.06,47.87,6.54,60.72.05.18.05.37-.01.55-3.46,10.88-.5,24.32,7.92,35.96,2.67,3.69,5.79,7.03,9.29,9.94.16.13.27.31.32.51,3.18,13.01,17.38,31.7,37.45,40.71,5.39,2.42,10.96,4.04,16.56,4.82.5.07.86.51.83,1.01-.03.5-.43.9-.93.91-.86.03-1.72.04-2.6.04-7.32,0-15.1-.9-23.2-2.68-22.26-4.91-42.62-21.9-58.85-49.15-35.58-59.73-45.2-155.26-23.71-233.39.27-.98.6-2.14.83-2.94.72-2.53-2.93-3.75-3.71-1.06-.22.76-.56,1.96-.83,2.95-1.11,4.05-2.13,8.11-3.03,12.09-4.49,10.86-11.08,18.65-17.45,26.18-8.94,10.59-17.38,20.6-17.35,36.29.02,10.95-6.18,22.09-12.17,32.86l-.6,1.09c-.21.37-.64.55-1.05.47-.41-.09-.72-.44-.75-.87-2.01-26.58,1.99-64.28,4.58-78.56ZM124.36,495.46c-4.1,10.47-8.35,21.29-17.18,26.09-8.54,4.65-22.41,3.8-30.7,3.3-2.38-.15-4.35-.27-5.75-.23-8.84.2-15.34,3.65-18.81,9.96-.17.31-.5.5-1.02.49-.41-.08-.72-.4-.78-.81-3.25-22.34,9.85-43.93,23.4-54.54,7.19-5.63,20.95-10.92,34.25-16.04,11.51-4.42,22.37-8.6,29.6-13.13.33-.2.73-.2,1.05.02.31.21.47.59.41.96-.23,1.37-.49,3-.75,4.77-.02.16-.09.31-.18.44-8.26,10.93-23.6,17.03-38.42,22.92-4.52,1.79-9.2,3.65-13.5,5.61-.96.44-1.39,1.59-.95,2.56.43.93,1.63,1.37,2.56.95,4.13-1.89,8.59-3.66,13.31-5.54,11.06-4.4,24.83-9.87,34.34-18.25.3-.26.73-.31,1.08-.13.35.19.56.57.51.97-.34,2.83-.66,5.91-.98,9.18-.03.25-.15.48-.34.64-5.06,4.24-8.16,12.16-11.16,19.81ZM157.46,618.45c-2.74,5.23-5.85,11.15-12.76,15.91-.34.23-.78.23-1.11-.02-.33-.24-.47-.66-.36-1.05,4.99-16.8,1.41-44.1-8.31-63.52-5.87-11.73,1.36-24.72,9.02-38.49,6.25-11.24,12.7-22.82,12.67-34.77-.03-14.28,7.6-23.32,16.44-33.79,2.56-3.04,4.35-5.23,5.98-7.31.3-.39.84-.48,1.25-.24.42.25.58.77.39,1.22-2.12,4.82-4.56,9.09-6.71,12.86-5.24,9.18-9.73,17.05-8.89,28.18.63,8.32-1.52,18.72-5.62,27.16-.46.95-.06,2.11.9,2.58.9.43,2.14.02,2.58-.89,4.44-9.15,6.68-20.04,5.99-29.13-.75-9.94,3.46-17.33,8.34-25.89.92-1.61,1.85-3.26,2.78-4.97.22-.41.7-.59,1.14-.46.44.14.72.58.66,1.04-7.55,60.69,1.15,125.44,23.28,173.2.2.43.06.95-.34,1.21-.16.11-.35.16-.53.16-.26,0-.52-.11-.71-.31-3.25-3.51-6.56-8.31-9.48-12.54-7.27-10.51-14.77-21.35-23.43-21.35-1.66,0-3.36.4-5.04,1.2-3.79,1.79-5.79,5.61-8.11,10.03ZM198.43,690.28c.08.13.17.28.25.41,1.63,2.67,3.59,6,4.05,8.02.78,3.46-.38,5.26-1.86,7.53-1.39,2.17-2.96,4.61-2.78,8.47.11,2.51,1.12,4.03,2.6,5.55.32.32.37.82.12,1.2-.18.28-.49.44-.81.44-.11,0-.23-.02-.34-.06-1.04-.38-2.08-.74-3.11-1.1-7.35-2.52-15.66-5.36-20.11-16.82-4.46-11.47-2.2-25.4-.2-37.68.87-5.32,1.66-10.49,1.9-15.1.02-.41.3-.76.7-.88.39-.12.82.03,1.05.37,3.18,4.51,6.47,8.86,9.75,12.96.14.17.21.38.21.6.02,11.23,4.96,20.2,8.58,26.09ZM297.95,723.95c-36.87-3.89-90.06-25.54-134.1-106.58l-.4-.73c-.17-.31-.16-.69.03-.99,1.27-1.97,2.42-3.12,3.74-3.75,7.95-3.79,15.95,7.72,23.65,18.86,6.23,9.01,12.1,17.5,18.82,19.19.27.07.49.24.62.49l.35.67c1.36,2.56,2.65,4.99,4.01,7.27,16.79,28.18,38,45.8,61.33,50.94,3.17.7,6.37,1.26,10.07,1.77.27.04.5.18.66.41,1.31,1.88,5.09,6.69,11.8,10.66.39.23.57.7.43,1.13-.13.4-.5.66-1.02.66ZM321.02,724.41c-13.91-.33-22.61-6.08-27.47-10.84-.29-.28-.37-.71-.21-1.08.16-.37.52-.57.94-.57,27.22,1.65,43.47-8.54,52.28-17.38,17.92-17.95,20.49-43.08,17.91-54.71-2.31-10.39,4.25-13.88,12.55-18.28,5.17-2.75,10.52-5.58,13.85-10.48,3.11-4.57,4.95-12.43.76-20.77-.19-.38-.11-.83.19-1.12.3-.3.75-.36,1.13-.16,23.99,12.73,27.82,44.89,28.42,54.45.14,2.19.95,21.98-12.89,41.73-16.39,23.39-45.81,36.58-87.46,39.22ZM432.53,728.52c-11.14,0-23.11-2.64-34.74-5.2-8.34-1.83-16.47-3.55-24.06-4.36-.44-.05-.79-.38-.85-.82-.06-.43.17-.85.58-1.03,5.41-2.29,10.55-4.97,15.26-7.99.1-.06.21-.11.32-.13,4.33-.88,11.17,1.88,18.4,4.84,9.64,3.93,21.63,8.83,35.31,8.83,4.64,0,9.28-.61,13.81-1.82.47-.13.98.12,1.15.59.17.46-.03.99-.48,1.2-6.82,3.35-13.97,5.35-20.68,5.77-1.33.08-2.66.12-4.01.12Z"/><path class="cls-1" d="M395.16,678.48c-.12,0-.25.01-.38.03-.51.1-.95.39-1.23.81-.98,1.45-2.02,2.91-3.14,4.39-.31.41-.44.91-.37,1.42.07.51.34.96.75,1.28.8.61,2.07.44,2.7-.37,1.17-1.55,2.27-3.08,3.26-4.56.59-.88.36-2.08-.52-2.68-.32-.21-.68-.32-1.06-.32Z"/><path class="cls-1" d="M407.27,618.17c-.13-.5-.45-.91-.9-1.17-.29-.17-.62-.26-.95-.26-.17,0-.34.02-.5.07-.51.14-.93.46-1.18.9-.26.44-.32.96-.19,1.46,5.03,18.65,3.33,35.67-5.18,52.06-.24.46-.28.98-.13,1.46.15.5.49.89.94,1.13.88.47,2.13.1,2.61-.82,8.98-17.28,10.78-35.22,5.48-54.84Z"/><path class="cls-1" d="M450.98,689.86c2.49.47,4.43.72,6.1.77,1.01,0,1.86-.82,1.89-1.86.02-.51-.17-1.01-.52-1.38-.35-.38-.83-.59-1.34-.61-1.38-.05-3.15-.28-5.41-.7-.12-.02-.24-.03-.36-.03-.91,0-1.72.65-1.89,1.57-.2,1.05.49,2.06,1.54,2.25Z"/><path class="cls-1" d="M156.95,532.9c-.33-.24-.73-.36-1.14-.36-.1,0-.2,0-.31.02-.5.08-.94.36-1.24.78-1.06,1.48-2.15,2.82-3.22,3.99-.71.78-.66,2.01.12,2.73.75.67,2.03.63,2.73-.13,1.17-1.29,2.36-2.75,3.5-4.35.62-.86.42-2.07-.44-2.69Z"/><path class="cls-1" d="M73.55,493.06c-.52-.05-1.02.12-1.41.46-1.95,1.68-3.52,3.45-4.67,5.29-.57.9-.3,2.09.6,2.66.85.55,2.11.27,2.66-.61.95-1.51,2.27-2.99,3.92-4.42.39-.34.63-.81.67-1.32.04-.51-.13-1.01-.46-1.4-.34-.39-.8-.63-1.31-.67Z"/><path class="cls-1" d="M110.37,503.24c-.3-.18-.64-.26-.97-.26-.66,0-1.31.34-1.67.95-2.1,3.55-5.78,6.14-9.83,6.92-1.04.2-1.72,1.22-1.52,2.26.2,1.02,1.14,1.73,2.26,1.53,5.12-.99,9.76-4.26,12.42-8.75.26-.44.34-.96.21-1.46-.13-.5-.44-.92-.89-1.19Z"/><path class="cls-1" d="M168.85,601.07c.98.37,2.11-.12,2.49-1.11.38-.99-.12-2.11-1.11-2.49-4.32-1.66-9.47-.37-12.52,3.13-.7.8-.61,2.02.19,2.72.78.67,2.05.59,2.73-.2,1.97-2.27,5.43-3.13,8.22-2.05Z"/><path class="cls-1" d="M190.22,701.35c-.07.51.06,1.01.38,1.42.62.82,1.87,1,2.7.38,1.39-1.05,2.29-2.71,2.47-4.58.18-1.85-.38-3.66-1.54-4.95-.32-.37-.77-.58-1.38-.64-.54,0-1.01.18-1.35.48-.38.35-.61.82-.64,1.33-.03.52.14,1.01.49,1.39.44.5.66,1.25.58,2.01-.08.77-.43,1.47-.95,1.87-.42.31-.68.76-.76,1.28Z"/><path class="cls-1" d="M376.5,629.11c-.15-.03-.3-.05-.45-.05-.35,0-.7.09-1,.29-4.13,2.54-5.88,8.22-3.89,12.64.42.94,1.65,1.38,2.54.97.47-.21.84-.59,1.02-1.08.18-.48.17-1.01-.04-1.47-1.2-2.68-.11-6.24,2.39-7.78.44-.27.75-.69.87-1.2.12-.5.03-1.02-.23-1.45-.27-.44-.7-.75-1.2-.87Z"/><path class="cls-1" d="M211.49,542.82c.58-.02,1.07-.24,1.43-.63.35-.37.53-.85.51-1.37-.09-2.4-.14-4.77-.16-7.11,0-1.05-.88-1.91-1.95-1.91-1.05,0-1.91.88-1.91,1.94.02,2.37.07,4.77.16,7.21.04,1.04.88,1.85,1.91,1.86Z"/><path class="cls-1" d="M316.62,518.48c.22,1.01,1.09,1.71,2.31,1.48,1.02-.22,1.68-1.25,1.46-2.29-1.89-8.78-7.37-16.61-16.26-23.26-.85-.63-2.06-.45-2.7.39-.63.85-.46,2.06.39,2.7,8.13,6.08,13.11,13.14,14.8,20.99Z"/><path class="cls-1" d="M290.48,490.7c1.23.59,2.44,1.21,3.6,1.84.91.5,2.13.14,2.62-.76.52-.93.17-2.11-.76-2.62-1.23-.67-2.49-1.32-3.78-1.93-.27-.14-.56-.2-.85-.2-.21,0-.42.03-.62.11-.5.17-.89.52-1.12.99-.22.46-.25.99-.08,1.47.17.48.52.87.98,1.1Z"/><path class="cls-1" d="M81.45,381.07c16.47,0,29.87-13.4,29.87-29.87s-13.4-29.87-29.87-29.87-29.87,13.4-29.87,29.87,13.4,29.87,29.87,29.87ZM81.45,325.19c14.34,0,26.01,11.67,26.01,26.01s-11.67,26.01-26.01,26.01-26.01-11.67-26.01-26.01,11.67-26.01,26.01-26.01Z"/><path class="cls-1" d="M584.96,648.38c0-16.47-13.4-29.87-29.87-29.87s-29.87,13.4-29.87,29.87,13.4,29.87,29.87,29.87,29.87-13.4,29.87-29.87ZM529.08,648.38c0-14.34,11.67-26.01,26.01-26.01s26.01,11.67,26.01,26.01-11.67,26.01-26.01,26.01-26.01-11.67-26.01-26.01Z"/><path class="cls-1" d="M609.43,512.89c-.2.47-.73.71-1.22.53-3.42-1.26-6.94-1.89-10.46-1.89-17.02,0-30.87,13.85-30.87,30.87s13.85,30.87,30.87,30.87c15.83,0,29.32-12.36,30.71-28.13.05-.52.46-.9,1.02-.88.24.02.49.02.74.02,12.46,0,22.59-10.14,22.59-22.59s-10.14-22.6-22.59-22.6c-8.93,0-17.28,5.55-20.78,13.81ZM597.74,569.4c-14.9,0-27.01-12.12-27.01-27.01s12.12-27.01,27.01-27.01c3.21,0,6.42.61,9.55,1.81.42.16.68.6.61,1.05-.18,1.17-.27,2.33-.27,3.44,0,9.99,6.72,18.91,16.34,21.68.44.13.73.54.69.99-1.01,14.05-12.83,25.05-26.91,25.05ZM648.95,521.67c0,10.33-8.4,18.74-18.74,18.74s-18.74-8.4-18.74-18.74,8.4-18.74,18.74-18.74,18.74,8.41,18.74,18.74Z"/><path class="cls-1" d="M388.42,507.62c0,9.31,7.58,16.89,16.89,16.89s16.89-7.58,16.89-16.89-7.58-16.89-16.89-16.89-16.89,7.58-16.89,16.89ZM418.34,507.62c0,7.18-5.85,13.03-13.03,13.03s-13.03-5.85-13.03-13.03,5.85-13.03,13.03-13.03,13.03,5.85,13.03,13.03Z"/><path class="cls-1" d="M142.14,314.47c22.72,0,41.21-18.48,41.21-41.21s-18.48-41.2-41.21-41.2-41.2,18.48-41.2,41.2,18.48,41.21,41.2,41.21ZM142.14,235.92c20.6,0,37.35,16.76,37.35,37.35s-16.76,37.35-37.35,37.35-37.35-16.76-37.35-37.35,16.76-37.35,37.35-37.35Z"/><path class="cls-1" d="M126.47,251.88c1.89-1.39,3.95-2.51,6.12-3.35.48-.18.86-.55,1.07-1.02.21-.47.22-.99.03-1.47-.18-.48-.55-.86-1.02-1.07-.25-.11-.51-.16-.77-.16-.24,0-.47.04-.7.13-2.49.96-4.85,2.25-7.01,3.83-.41.3-.69.75-.77,1.27-.08.51.05,1.02.35,1.43.61.82,1.88,1.02,2.69.42Z"/><path class="cls-1" d="M130.77,301.43c.99.38,2.12-.12,2.5-1.07.19-.48.19-1-.02-1.48-.2-.47-.57-.84-1.05-1.04-3.97-1.61-7.54-4.19-10.32-7.48-4.04-4.77-6.26-10.85-6.26-17.11,0-1.06-.87-1.93-1.93-1.93s-1.93.87-1.93,1.93c0,7.17,2.55,14.13,7.17,19.6,3.19,3.77,7.27,6.73,11.83,8.57Z"/><path class="cls-1" d="M156.82,295.34c-1.3.87-2.7,1.63-4.16,2.27-.47.2-.84.58-1.03,1.06-.19.47-.18,1,.02,1.47.41.96,1.64,1.4,2.53,1.01,1.69-.73,3.3-1.61,4.79-2.61.88-.59,1.12-1.79.53-2.68-.59-.87-1.8-1.11-2.68-.53Z"/><path class="cls-1" d="M142.14,246.75c14.62,0,26.51,11.89,26.51,26.51,0,5.21-1.51,10.24-4.35,14.55-.58.89-.34,2.09.55,2.67.85.56,2.1.31,2.67-.55,3.26-4.95,4.98-10.71,4.98-16.67,0-16.74-13.62-30.37-30.37-30.37-1.06,0-1.93.87-1.93,1.93s.87,1.93,1.93,1.93Z"/><path class="cls-1" d="M79.52,367.49c0,1.06.87,1.93,1.93,1.93,10.05,0,18.22-8.17,18.22-18.22,0-1.06-.87-1.93-1.93-1.93s-1.93.87-1.93,1.93c0,7.92-6.44,14.36-14.36,14.36-1.06,0-1.93.87-1.93,1.93Z"/><path class="cls-1" d="M73.05,339.55c2.46-1.78,5.37-2.71,8.4-2.71,1.06,0,1.93-.87,1.93-1.93s-.87-1.93-1.93-1.93c-3.86,0-7.55,1.19-10.67,3.45-.86.63-1.06,1.83-.44,2.69.59.82,1.84,1.04,2.7.43Z"/><path class="cls-1" d="M575.06,648.38c0-7.33-4-14.06-10.45-17.56-.45-.24-.96-.29-1.47-.15-.5.15-.9.47-1.15.93-.24.45-.3.97-.15,1.46.15.49.48.9.93,1.14,5.2,2.82,8.43,8.25,8.43,14.17,0,8.88-7.23,16.11-16.11,16.11-2.92,0-5.78-.79-8.27-2.27-.3-.19-.64-.28-.99-.28-.15,0-.31.02-.47.06-.5.12-.92.43-1.19.88-.27.44-.35.96-.22,1.46.13.51.43.92.88,1.19,3.09,1.84,6.63,2.82,10.25,2.82,11.01,0,19.97-8.95,19.97-19.96Z"/><path class="cls-1" d="M551.53,632.66c.5-.11.93-.41,1.21-.85.27-.43.36-.95.24-1.45-.11-.51-.42-.94-.87-1.22-.3-.19-.66-.29-1-.29-.14,0-.28.02-.42.05-3.1.7-6.01,2.15-8.44,4.19-.4.33-.64.8-.68,1.31-.05.51.11,1.01.44,1.4.66.79,1.94.9,2.72.24,1.96-1.65,4.31-2.81,6.79-3.37Z"/><path class="cls-1" d="M614.61,547.59c-.47-.21-.99-.23-1.48-.03-.48.18-.86.55-1.07,1.03-2.47,5.72-8.1,9.41-14.33,9.41-5.31,0-10.2-2.66-13.09-7.11-.28-.43-.72-.73-1.23-.84-.13-.03-.26-.04-.39-.04-.37,0-.73.11-1.04.31-.44.29-.74.72-.84,1.22-.11.5-.02,1.02.27,1.46,3.61,5.55,9.71,8.86,16.32,8.86,7.76,0,14.78-4.61,17.87-11.73.42-.97-.03-2.11-1-2.53Z"/><path class="cls-1" d="M590.49,528.56c2.21-1.16,4.72-1.78,7.25-1.78,1.06,0,1.93-.87,1.93-1.93s-.87-1.93-1.93-1.93c-3.14,0-6.27.77-9.04,2.22-.46.24-.79.64-.95,1.13-.15.49-.11,1.01.14,1.47.47.91,1.68,1.29,2.6.81Z"/><path class="cls-1" d="M628.28,533.03c0,1.06.87,1.93,1.93,1.93,7.32,0,13.28-5.96,13.28-13.28,0-1.06-.87-1.93-1.93-1.93s-1.93.87-1.93,1.93c0,5.2-4.23,9.42-9.42,9.42-1.06,0-1.93.87-1.93,1.93Z"/><path class="cls-1" d="M403.38,514.21c0,1.06.87,1.93,1.93,1.93,4.7,0,8.52-3.82,8.52-8.52,0-1.06-.87-1.93-1.93-1.93s-1.93.87-1.93,1.93c0,2.57-2.09,4.67-4.67,4.67-1.06,0-1.93.87-1.93,1.93Z"/><path class="cls-1" d="M394.69,847.27h-22.34c-.26,0-.51-.11-.69-.29-.18-.18-.28-.43-.27-.69.37-19.9,4.45-39.39,12.12-57.91.2-.47.2-1,0-1.48-.2-.47-.56-.84-1.04-1.04-.47-.2-.99-.2-1.47,0-.48.2-.85.57-1.06,1.05-7.87,19.01-12.05,39-12.41,59.42-.01.52-.44.95-.96.95h-34.62c-.53,0-.95-.42-.96-.95-.37-20.42-4.54-40.42-12.42-59.43-.4-.98-1.55-1.45-2.52-1.04-.47.2-.84.57-1.03,1.04-.2.47-.2,1,0,1.48,7.68,18.53,11.76,38.01,12.12,57.91,0,.26-.09.51-.27.69-.18.18-.43.29-.69.29h-22.34c-1.06,0-1.93.87-1.93,1.93s.87,1.93,1.93,1.93h22.34c.26,0,.51.11.69.29.18.18.28.43.27.69-.37,19.9-4.45,39.38-12.13,57.91-.19.47-.19,1,0,1.48.2.47.56.84,1.04,1.04.44.18.98.17,1.46-.02.49-.2.88-.57,1.07-1.02,7.87-19.01,12.05-39,12.41-59.42.01-.52.44-.95.96-.95h34.62c.53,0,.95.42.96.95.37,20.42,4.54,40.42,12.42,59.43.4.96,1.61,1.43,2.51,1.05.48-.2.85-.57,1.04-1.05.2-.47.2-1,0-1.48-7.67-18.52-11.75-38-12.12-57.91,0-.26.09-.51.27-.69.18-.18.43-.29.69-.29h22.34c1.06,0,1.93-.87,1.93-1.93s-.87-1.93-1.93-1.93Z"/><path class="cls-1" d="M349.26,116.32c32.07,0,58.16-26.09,58.16-58.16S381.33,0,349.26,0s-58.16,26.09-58.16,58.16,26.09,58.16,58.16,58.16ZM345.25,4.05c2.93-.21,5.23-.2,8.03,0,20.78,2.12,36.37,19.39,36.37,40.2,0,22.28-18.12,40.4-40.39,40.4s-40.39-18.12-40.39-40.4c0-20.8,15.65-38.09,36.39-40.2ZM308.94,21.86c.33-.36.88-.41,1.28-.14.4.28.52.82.28,1.25-3.59,6.53-5.49,13.89-5.49,21.28,0,24.4,19.85,44.25,44.25,44.25s44.25-19.85,44.25-44.25c0-7.4-1.9-14.76-5.49-21.27-.24-.43-.11-.97.28-1.25.4-.29.95-.23,1.28.14,9.02,9.96,13.98,22.85,13.98,36.3,0,29.94-24.36,54.3-54.3,54.3s-54.3-24.36-54.3-54.3c0-13.45,4.97-26.34,13.98-36.3Z"/><path class="cls-1" d="M443.93,74.65c4.16,0,7.95-2.3,9.89-6,.17-.32.5-.52.85-.52.08,0,.17.01.26.03,91.25,25,170.96,82.07,224.45,160.69.26.38.21.88-.1,1.21-2.03,2.11-3.14,4.85-3.14,7.71,0,6.17,5.02,11.19,11.19,11.19s11.19-5.02,11.19-11.19-5.02-11.19-11.19-11.19c-1.21,0-2.41.2-3.57.59-.4.15-.86-.01-1.11-.37-54.03-79.48-134.58-137.15-226.82-162.42-.42-.12-.71-.5-.71-.93,0-6.17-5.02-11.19-11.19-11.19s-11.19,5.02-11.19,11.19,5.02,11.19,11.19,11.19ZM687.33,230.44c4.04,0,7.33,3.29,7.33,7.33s-3.29,7.33-7.33,7.33-7.33-3.29-7.33-7.33,3.29-7.33,7.33-7.33ZM443.93,56.13c4.04,0,7.33,3.29,7.33,7.33s-3.29,7.33-7.33,7.33-7.33-3.29-7.33-7.33,3.29-7.33,7.33-7.33Z"/><path class="cls-1" d="M687.33,657.3c-6.17,0-11.19,5.02-11.19,11.19,0,2.85,1.09,5.57,3.08,7.66.31.33.35.83.1,1.2-53.51,78.59-133.22,135.63-224.44,160.6-.45.12-.9-.08-1.1-.47-1.97-3.64-5.73-5.9-9.84-5.9-6.17,0-11.19,5.02-11.19,11.19s5.02,11.19,11.19,11.19c2.99,0,5.79-1.17,7.9-3.29,2.12-2.13,3.28-4.99,3.28-8.03,0-.43.29-.81.71-.93,92.17-25.22,172.69-82.85,226.73-162.26.25-.36.7-.5,1.11-.37,1.18.41,2.41.61,3.66.61,6.17,0,11.19-5.02,11.19-11.19s-5.02-11.19-11.19-11.19ZM443.93,850.09c-4.04,0-7.33-3.29-7.33-7.33s3.29-7.33,7.33-7.33,7.33,3.29,7.33,7.33-3.29,7.33-7.33,7.33ZM687.33,675.82c-4.04,0-7.33-3.29-7.33-7.33s3.29-7.33,7.33-7.33,7.33,3.29,7.33,7.33-3.29,7.33-7.33,7.33Z"/><path class="cls-1" d="M438.77,787.19c-1.01.28-1.62,1.34-1.34,2.36l9.2,34.35c.27.99,1.14,1.66,2.39,1.35,1-.27,1.62-1.33,1.34-2.36l-9.2-34.35c-.27-1.02-1.28-1.6-2.38-1.36Z"/><path class="cls-1" d="M469.06,778.2c-.26-.12-.54-.18-.82-.18-.22,0-.45.04-.67.12-.47.18-.86.53-1.08,1-.22.46-.24.99-.06,1.48l12.15,33.38c.35.97,1.41,1.52,2.48,1.15.47-.17.85-.53,1.07-.99.22-.46.24-.99.06-1.48l-12.15-33.38c-.17-.48-.52-.87-.99-1.09Z"/><path class="cls-1" d="M496.92,766.49c-.21-.08-.43-.11-.65-.11-.28,0-.56.06-.83.18-.46.21-.82.6-.99,1.08-.18.49-.15,1.01.06,1.47l15.03,32.23c.43.94,1.66,1.37,2.55.94.48-.22.83-.61,1.01-1.09.18-.49.15-1.01-.06-1.47l-15.03-32.23c-.21-.47-.6-.82-1.09-1Z"/><path class="cls-1" d="M539.29,786.05c.5.88,1.74,1.22,2.63.7.45-.26.76-.67.9-1.17.13-.5.06-1.02-.19-1.46l-17.79-30.81c-.26-.45-.68-.77-1.17-.9-.16-.04-.33-.06-.49-.06-.34,0-.67.09-.97.26-.45.26-.77.67-.9,1.17-.13.5-.06,1.02.19,1.46l17.79,30.81Z"/><path class="cls-1" d="M567.59,768.22c.58.84,1.85,1.06,2.68.47.42-.29.7-.74.79-1.24.09-.51-.02-1.02-.32-1.44l-20.43-29.16c-.29-.43-.73-.7-1.23-.79-.11-.02-.22-.03-.34-.03-.4,0-.79.12-1.12.35-.42.29-.7.73-.79,1.24-.09.51.02,1.02.32,1.44l20.43,29.17Z"/><path class="cls-1" d="M594.23,747.99c.66.79,1.93.9,2.72.24.4-.33.64-.79.68-1.31.05-.51-.11-1.01-.44-1.41l-22.9-27.28c-.31-.37-.75-.58-1.4-.68-.56,0-.99.15-1.32.44-.4.33-.64.79-.68,1.31-.05.51.11,1.01.44,1.41l22.9,27.28Z"/><path class="cls-1" d="M621.73,725.52c.75-.75.75-1.97,0-2.73l-25.18-25.18c-.37-.37-.85-.56-1.36-.56s-1,.2-1.36.56c-.75.75-.75,1.97,0,2.73l25.18,25.18c.73.73,2,.73,2.73,0Z"/><path class="cls-1" d="M644.44,700.74c.69-.82.58-2.04-.23-2.72l-27.3-22.9c-.36-.3-.77-.46-1.25-.46-.67.05-1.14.29-1.47.69-.68.82-.58,2.04.24,2.72l27.3,22.9c.78.66,2.07.55,2.71-.23Z"/><path class="cls-1" d="M664.9,674.07c.3-.43.41-.93.32-1.44-.09-.51-.37-.95-.79-1.25l-29.17-20.42c-.33-.23-.71-.35-1.11-.35-.12,0-.23.01-.35.03-.49.09-.93.37-1.22.78-.3.43-.42.94-.33,1.45.09.51.37.95.79,1.25l29.17,20.42c.84.59,2.1.37,2.68-.47Z"/><path class="cls-1" d="M664.91,232.03c-.37-.54-.97-.82-1.58-.82-.38,0-.77.11-1.11.35l-29.16,20.42c-.42.29-.7.73-.79,1.24-.09.51.02,1.02.32,1.43.59.85,1.85,1.07,2.69.48l29.17-20.42c.42-.29.7-.73.79-1.24.09-.51-.02-1.02-.32-1.44Z"/><path class="cls-1" d="M613.75,229.34c-.05.51.11,1.01.44,1.4.65.78,1.93.89,2.71.24l27.3-22.9c.4-.33.64-.79.68-1.31.05-.51-.11-1.01-.44-1.41-.33-.4-.8-.64-1.31-.69-.07,0-.13,0-.2,0-.45,0-.85.15-1.2.45l-27.3,22.9c-.4.33-.64.79-.68,1.31Z"/><path class="cls-1" d="M620.36,180.02c-.52,0-1,.2-1.36.56l-25.18,25.18c-.75.75-.75,1.97,0,2.73.73.73,2,.73,2.73,0l25.18-25.18c.75-.75.75-1.97,0-2.73-.37-.37-.85-.56-1.36-.56Z"/><path class="cls-1" d="M595.54,157.42c-.51.05-.98.29-1.31.68l-22.9,27.3c-.33.4-.49.9-.44,1.4.05.52.29.98.68,1.31.78.66,2.06.55,2.71-.23l22.9-27.3c.33-.4.49-.9.44-1.4-.05-.52-.29-.98-.68-1.31-.39-.33-.93-.49-1.41-.44Z"/><path class="cls-1" d="M569.17,137.05c-.11,0-.23.01-.34.03-.51.09-.95.37-1.24.79l-20.42,29.17c-.3.42-.41.93-.32,1.44.09.51.37.95.79,1.25.84.58,2.1.37,2.68-.47l20.42-29.17c.3-.42.41-.93.32-1.44-.09-.51-.37-.95-.79-1.24-.33-.24-.72-.36-1.11-.36Z"/><path class="cls-1" d="M522.21,153.48c.88.51,2.13.18,2.64-.7l17.78-30.81c.26-.44.33-.96.2-1.46-.14-.49-.45-.91-.9-1.17-.3-.17-.63-.26-.96-.26-.17,0-.34.02-.5.07-.5.14-.92.45-1.17.9l-17.78,30.8c-.26.44-.33.96-.2,1.46.14.49.45.91.9,1.16Z"/><path class="cls-1" d="M495.45,139.54c.92.44,2.13,0,2.56-.93l15.03-32.22c.22-.47.24-.99.06-1.48-.17-.48-.52-.87-.99-1.08-.27-.12-.55-.19-.83-.19-.21,0-.43.04-.65.11-.48.17-.87.53-1.09,1.01l-15.03,32.22c-.22.47-.24.99-.06,1.48.17.48.53.87.99,1.08Z"/><path class="cls-1" d="M467.58,127.96c1.05.37,2.12-.19,2.48-1.15l12.15-33.38c.36-1-.16-2.1-1.16-2.47-.98-.34-2.1.15-2.47,1.16l-12.15,33.38c-.18.48-.15,1.01.06,1.48.22.46.6.82,1.08.99Z"/><path class="cls-1" d="M441.15,117.55l9.2-34.34c.27-1.03-.35-2.09-1.39-2.37-.15-.03-.3-.05-.46-.05-.86,0-1.65.56-1.88,1.43l-9.2,34.34c-.27,1.03.35,2.09,1.39,2.37.97.22,2.07-.37,2.34-1.37Z"/><path class="cls-1" d="M254.58,831.58c-4.1,0-7.87,2.26-9.84,5.9-.21.4-.66.59-1.1.47-91.22-24.98-170.93-82.02-224.44-160.6-.25-.37-.21-.88.1-1.2,1.98-2.09,3.08-4.81,3.08-7.66,0-6.17-5.02-11.19-11.19-11.19s-11.19,5.02-11.19,11.19,5.02,11.19,11.19,11.19c1.25,0,2.48-.21,3.66-.61.11-.03.21-.05.32-.05.31,0,.61.15.8.42,54,79.36,134.51,137.03,226.72,162.4.42.12.71.5.71.93,0,6.17,5.02,11.19,11.19,11.19s11.19-5.02,11.19-11.19-5.02-11.19-11.19-11.19ZM11.19,675.82c-4.04,0-7.33-3.29-7.33-7.33s3.29-7.33,7.33-7.33,7.33,3.29,7.33,7.33-3.29,7.33-7.33,7.33ZM254.58,850.09c-4.04,0-7.33-3.29-7.33-7.33s3.29-7.33,7.33-7.33,7.33,3.29,7.33,7.33-3.29,7.33-7.33,7.33Z"/><path class="cls-1" d="M11.19,248.96c6.17,0,11.19-5.02,11.19-11.19,0-2.86-1.11-5.6-3.14-7.71-.31-.33-.36-.83-.1-1.21,53.5-78.62,133.21-135.69,224.45-160.69.46-.12.9.08,1.11.48,1.94,3.7,5.73,6,9.89,6,6.17,0,11.19-5.02,11.19-11.19s-5.02-11.19-11.19-11.19-11.19,5.03-11.19,11.21c0,.43-.29.81-.71.93C150.45,89.65,69.9,147.32,15.87,226.81c-.24.35-.69.53-1.11.37-1.16-.39-2.36-.59-3.57-.59-6.17,0-11.19,5.02-11.19,11.19s5.02,11.19,11.19,11.19ZM254.58,56.13c4.04,0,7.33,3.29,7.33,7.33s-3.29,7.33-7.33,7.33-7.33-3.29-7.33-7.33,3.29-7.33,7.33-7.33ZM11.19,230.44c4.04,0,7.33,3.29,7.33,7.33s-3.29,7.33-7.33,7.33-7.33-3.29-7.33-7.33,3.29-7.33,7.33-7.33Z"/><path class="cls-1" d="M251.89,823.89l9.2-34.34c.27-1.03-.35-2.09-1.39-2.37-1.01-.23-2.06.36-2.33,1.37l-9.2,34.34c-.27,1.03.35,2.09,1.39,2.37.96.21,2.07-.37,2.34-1.37Z"/><path class="cls-1" d="M217.47,815.15c1,.34,2.12-.19,2.47-1.16l12.15-33.39c.36-1-.16-2.1-1.16-2.47-1-.35-2.1.17-2.47,1.16l-12.15,33.39c-.18.48-.15,1.01.06,1.48.22.46.61.82,1.09,1Z"/><path class="cls-1" d="M186.41,802.28c.93.44,2.13,0,2.56-.93l15.03-32.22c.22-.47.24-.99.06-1.48-.17-.48-.52-.87-.99-1.08-.27-.12-.55-.19-.83-.19-.21,0-.43.04-.65.11-.48.17-.87.53-1.09,1.01l-15.03,32.22c-.22.47-.24.99-.06,1.48.17.48.53.87.99,1.08Z"/><path class="cls-1" d="M156.59,786.75c.9.52,2.13.18,2.64-.7l17.78-30.81c.26-.44.33-.96.2-1.46-.14-.49-.45-.91-.9-1.16-.3-.17-.63-.26-.96-.26-.17,0-.34.02-.5.07-.49.13-.91.45-1.17.9l-17.78,30.8c-.26.44-.33.96-.2,1.46.14.49.45.91.9,1.16Z"/><path class="cls-1" d="M130.92,768.23l20.42-29.17c.3-.42.41-.93.32-1.44-.09-.51-.37-.95-.79-1.25-.33-.23-.71-.35-1.1-.35-.11,0-.22.01-.34.03-.51.09-.95.37-1.25.79l-20.42,29.17c-.3.42-.41.93-.32,1.44.09.51.37.95.79,1.25.84.58,2.1.37,2.68-.47Z"/><path class="cls-1" d="M125.7,717.54c-.67.05-1.13.29-1.46.69l-22.9,27.29c-.33.39-.49.89-.44,1.4.05.52.29.98.68,1.31.78.66,2.07.55,2.71-.23l22.91-27.3c.33-.39.49-.89.44-1.4-.05-.52-.29-.98-.68-1.31-.35-.29-.79-.45-1.25-.45Z"/><path class="cls-1" d="M103.33,697.05c-.52,0-1,.2-1.36.56l-25.18,25.18c-.75.75-.75,1.97,0,2.73.73.73,2,.73,2.73,0l25.18-25.18c.75-.75.75-1.97,0-2.73-.37-.37-.85-.56-1.36-.56Z"/><path class="cls-1" d="M83.01,674.67c-.07,0-.14-.01-.2-.01-.44,0-.84.15-1.2.46l-27.29,22.9c-.4.33-.64.8-.68,1.31-.05.51.11,1.01.44,1.4.66.79,1.93.9,2.72.24l27.29-22.9c.4-.33.64-.8.68-1.31.05-.51-.11-1.01-.44-1.4-.34-.4-.8-.64-1.31-.69Z"/><path class="cls-1" d="M64.7,650.64c-.11-.02-.23-.03-.34-.03-.4,0-.79.12-1.12.35l-29.16,20.42c-.42.29-.7.74-.79,1.24-.09.51.02,1.02.32,1.43.58.85,1.85,1.07,2.69.48l29.17-20.42c.42-.29.7-.73.79-1.24.09-.51-.02-1.02-.32-1.43-.29-.43-.73-.71-1.23-.8Z"/><path class="cls-1" d="M65.93,254.67c.3-.43.41-.93.32-1.44-.09-.51-.37-.95-.79-1.25l-29.17-20.42c-.33-.23-.72-.35-1.11-.35-.11,0-.23.01-.34.03-.5.09-.94.37-1.23.79-.3.43-.41.93-.32,1.44.09.51.37.95.79,1.25l29.17,20.42c.84.59,2.1.37,2.68-.47Z"/><path class="cls-1" d="M55.37,204.68c-.5.05-.97.29-1.3.69-.33.39-.49.89-.44,1.4.05.51.29.98.68,1.31l27.29,22.9c.79.66,2.06.55,2.71-.23.34-.4.49-.9.45-1.41-.05-.51-.29-.98-.68-1.31l-27.29-22.9c-.4-.34-.89-.48-1.42-.44Z"/><path class="cls-1" d="M78.15,180.02c-.52,0-1,.2-1.36.56-.75.75-.75,1.97,0,2.73l25.18,25.18c.73.73,2,.73,2.73,0s.75-1.97,0-2.73l-25.18-25.18c-.37-.37-.85-.56-1.36-.56Z"/><path class="cls-1" d="M104.29,158.11c-.31-.37-.75-.59-1.4-.68-.56.01-.99.15-1.32.43-.4.33-.64.8-.68,1.31-.05.51.11,1.01.44,1.4l22.9,27.29c.66.79,1.93.9,2.72.24.4-.33.64-.8.68-1.31.05-.51-.11-1.01-.44-1.4l-22.9-27.29Z"/><path class="cls-1" d="M148.19,169.26c.58.84,1.84,1.06,2.68.47.42-.29.7-.74.79-1.24.09-.51-.02-1.02-.32-1.44l-20.43-29.16c-.29-.43-.73-.71-1.23-.8-.12-.02-.23-.03-.35-.03-.39,0-.77.12-1.1.35-.42.29-.7.74-.79,1.24-.09.51.02,1.02.32,1.44l20.43,29.17Z"/><path class="cls-1" d="M176.3,153.48c.45-.26.77-.67.9-1.17.13-.5.06-1.02-.19-1.46l-17.79-30.8c-.26-.45-.68-.77-1.18-.9-.17-.04-.33-.06-.5-.06-.34,0-.66.09-.95.26-.46.26-.77.68-.91,1.17-.13.5-.06,1.02.19,1.46l17.79,30.8c.51.89,1.74,1.22,2.63.71Z"/><path class="cls-1" d="M188.97,104.75c-.22-.47-.6-.82-1.08-.99-.22-.08-.44-.12-.67-.12-.28,0-.55.06-.81.18-.47.22-.82.6-1,1.08-.18.49-.15,1.01.06,1.47l15.03,32.23c.43.94,1.66,1.37,2.55.94.48-.22.83-.61,1.01-1.09.18-.49.15-1.01-.06-1.47l-15.03-32.23Z"/><path class="cls-1" d="M230.95,127.96c.47-.17.85-.53,1.07-.99.22-.46.24-.99.06-1.48l-12.15-33.38c-.28-.78-1.03-1.27-1.83-1.27-.22,0-.44.04-.66.11-.99.37-1.5,1.48-1.14,2.47l12.15,33.38c.35.97,1.4,1.52,2.48,1.15Z"/><path class="cls-1" d="M259.75,118.91c1-.27,1.62-1.33,1.34-2.36l-9.2-34.34c-.23-.85-1.01-1.42-1.89-1.42-.17,0-.33.02-.5.06-1,.27-1.62,1.33-1.34,2.36l9.2,34.34c.27.99,1.14,1.66,2.39,1.35Z"/><path class="cls-1" d="M50.72,23.72c4.1,8.36,4.1,8.68-.02,17.09-1.01,2.06-2.24,4.57-3.69,7.73-.34.73-.18,1.6.39,2.17s1.43.72,2.17.39c3.16-1.45,5.67-2.68,7.78-3.72,4.18-2.05,6.34-3.08,8.51-3.08s4.35,1.03,8.54,3.08c2.09,1.03,4.61,2.26,7.76,3.71.73.35,1.6.19,2.17-.38.57-.57.73-1.45.4-2.17-1.36-2.96-2.53-5.35-3.5-7.33l-.22-.45c-4.1-8.36-4.1-8.67,0-17.04l.19-.38c1-2.04,2.17-4.44,3.52-7.4.34-.73.18-1.6-.38-2.17-.56-.56-1.46-.72-2.17-.39-3.16,1.45-5.67,2.68-7.78,3.72-8.35,4.1-8.66,4.1-17.05,0-2.09-1.03-4.6-2.26-7.76-3.7-.73-.34-1.6-.19-2.17.38s-.73,1.44-.39,2.17c1.46,3.18,2.7,5.71,3.72,7.78ZM54.18,22.02l-.17-.34c-.18-.37-.11-.81.18-1.1.29-.29.75-.36,1.1-.18l.34.17c10.03,4.91,10.42,4.91,20.77-.17.37-.18.81-.11,1.11.18.29.29.37.73.18,1.1l-.17.34c-4.87,9.93-4.87,10.51,0,20.43l.17.35c.18.37.11.81-.19,1.1-.29.29-.74.36-1.1.18l-.34-.17c-9.74-4.77-10.69-4.77-20.43,0l-.34.17c-.13.07-.28.1-.42.1-.25,0-.5-.1-.68-.28-.29-.29-.37-.74-.18-1.11l.17-.34c4.87-9.93,4.87-10.5,0-20.43Z"/><path class="cls-1" d="M25.2,124.68c-.76,1.54-1.62,3.31-2.62,5.49-.34.73-.19,1.6.38,2.17s1.46.72,2.17.39c2.26-1.04,4.08-1.93,5.59-2.67l.23-.11c5.93-2.92,6.28-2.92,12.32.05,1.53.75,3.39,1.66,5.71,2.73.72.34,1.61.18,2.17-.38s.73-1.44.39-2.17c-1.04-2.26-1.93-4.08-2.67-5.59l-.11-.23c-2.91-5.94-2.91-6.28.05-12.32.75-1.53,1.66-3.39,2.73-5.72.34-.73.18-1.6-.38-2.17s-1.45-.72-2.17-.39c-2.32,1.07-4.16,1.97-5.79,2.76-5.97,2.93-6.31,2.93-12.26.01-1.72-.84-3.54-1.73-5.8-2.77-.26-.12-.53-.18-.81-.18-.5,0-1,.19-1.37.56-.57.57-.73,1.44-.39,2.17.95,2.07,1.78,3.76,2.48,5.19l.15.3s.15.32.15.32c2.91,5.94,2.91,6.29,0,12.24l-.15.3ZM29.62,112.08c-.18-.37-.1-.81.19-1.1.29-.29.73-.37,1.1-.19,5.52,2.62,6.79,2.62,12.32,0,.37-.18.81-.1,1.1.19.29.29.37.73.19,1.1-2.62,5.52-2.62,6.79,0,12.32.18.37.1.81-.19,1.1-.29.29-.73.37-1.1.19-5.53-2.62-6.8-2.62-12.32,0-.13.06-.27.09-.41.09-.25,0-.5-.1-.68-.28-.29-.29-.37-.73-.19-1.1,2.62-5.53,2.62-6.79,0-12.32Z"/><path class="cls-1" d="M148.76,24.44c2.31,4.73,2.31,5,0,9.72-.62,1.27-1.37,2.81-2.27,4.76-.34.73-.18,1.6.39,2.17.55.55,1.44.72,2.16.39,1.82-.84,3.29-1.55,4.5-2.15l.26-.12c4.71-2.3,4.98-2.31,9.71,0l.25.12c1.23.6,2.69,1.32,4.51,2.15.72.33,1.62.17,2.17-.38.57-.57.73-1.44.39-2.17-.83-1.82-1.55-3.28-2.15-4.5l-.13-.27c-2.31-4.71-2.31-4.98,0-9.7l.12-.25c.6-1.23,1.32-2.69,2.15-4.51.34-.73.18-1.6-.38-2.17-.58-.59-1.43-.72-2.17-.39-1.94.89-3.49,1.65-4.77,2.28-4.66,2.29-5.02,2.29-9.68,0-1.28-.63-2.83-1.39-4.77-2.28-.26-.12-.53-.18-.8-.18-.5,0-1,.2-1.37.56-.57.57-.73,1.44-.39,2.17.9,1.95,1.65,3.49,2.27,4.76ZM153.66,24.3c.28-.28.7-.36,1.07-.2,3.23,1.42,4.63,1.41,7.87,0,.36-.16.79-.08,1.07.2.28.28.36.7.2,1.07-1.43,3.27-1.43,4.59,0,7.86.16.37.08.79-.2,1.07-.18.18-.43.28-.68.28-.13,0-.26-.03-.39-.08-3.46-1.51-4.41-1.51-7.86,0-.36.16-.79.08-1.07-.2-.28-.28-.36-.7-.2-1.07,1.43-3.28,1.43-4.6,0-7.87-.16-.37-.08-.79.2-1.07Z"/><path class="cls-1" d="M617.3,23.27c.03.06.22.45.22.45,4.1,8.36,4.1,8.68,0,17.04l-.19.38c-1,2.04-2.17,4.44-3.53,7.4-.34.73-.18,1.6.39,2.17s1.42.74,2.17.39c3.16-1.45,5.67-2.68,7.78-3.72,8.35-4.1,8.66-4.1,17.05,0,2.09,1.03,4.61,2.26,7.76,3.71.72.34,1.61.18,2.17-.38s.73-1.44.39-2.17c-1.46-3.18-2.7-5.71-3.72-7.78-4.1-8.36-4.1-8.68,0-17.04,1.02-2.07,2.26-4.6,3.71-7.78.34-.73.18-1.6-.39-2.17-.57-.56-1.43-.71-2.17-.38-2.95,1.36-5.34,2.53-7.33,3.5l-.47.23c-8.34,4.1-8.66,4.09-17.02,0l-.5-.24c-1.98-.97-4.35-2.12-7.29-3.47-.26-.12-.54-.18-.81-.18-.5,0-.98.2-1.36.57-.57.57-.73,1.44-.39,2.17,1.36,2.96,2.53,5.35,3.5,7.33ZM620.99,20.57c.29-.29.74-.37,1.11-.18l.34.17c9.92,4.85,10.49,4.87,20.57-.08.01,0,.22-.11.23-.11.37-.16.81-.08,1.09.21.28.29.35.73.17,1.09l-.17.34c-4.86,9.93-4.86,10.51,0,20.43l.16.34c.18.37.11.81-.17,1.1-.18.19-.44.29-.69.29-.14,0-.28-.03-.41-.09l-.36-.18c-9.79-4.8-10.28-4.97-20.76.17-.37.17-.81.1-1.11-.18-.29-.29-.37-.73-.18-1.1.05-.11.11-.23.18-.34,4.86-9.93,4.86-10.51-.01-20.43l-.17-.35c-.18-.37-.11-.81.18-1.1Z"/><path class="cls-1" d="M647.36,104.15c-.57.57-.73,1.44-.39,2.17,1.06,2.3,1.97,4.15,2.75,5.76,2.94,5.99,2.94,6.34.02,12.29-.84,1.72-1.73,3.54-2.77,5.8-.34.73-.18,1.6.38,2.17s1.43.72,2.17.39c2.07-.95,3.76-1.77,5.18-2.47l.62-.3c2.97-1.46,4.54-2.19,6.11-2.19s3.14.73,6.11,2.18l.62.3c1.43.7,3.12,1.53,5.19,2.47.72.35,1.6.19,2.17-.38s.73-1.44.39-2.17c-.95-2.07-1.78-3.76-2.48-5.19l-.3-.62c-2.91-5.94-2.91-6.29,0-12.24l.29-.59c.7-1.43,1.53-3.13,2.47-5.2.34-.73.18-1.6-.38-2.17s-1.45-.72-2.17-.39c-2.07.95-3.77,1.78-5.19,2.48l-.62.3c-5.93,2.92-6.28,2.92-12.22,0l-.62-.3c-1.43-.7-3.12-1.52-5.19-2.47-.73-.34-1.6-.19-2.17.38ZM654.01,112.08c-.18-.37-.1-.81.19-1.1.29-.29.73-.36,1.1-.19,5.54,2.63,6.8,2.63,12.32,0,.37-.18.81-.1,1.1.19s.37.73.19,1.1c-2.63,5.53-2.63,6.8,0,12.33.18.37.1.81-.19,1.1-.29.29-.73.37-1.1.19-5.35-2.54-6.98-2.54-12.32,0-.13.06-.27.09-.41.09-.25,0-.5-.1-.68-.28-.29-.29-.37-.73-.19-1.1,2.62-5.53,2.62-6.8,0-12.33Z"/><path class="cls-1" d="M529.96,24.44c2.31,4.73,2.31,5,0,9.72-.62,1.27-1.37,2.81-2.27,4.76-.34.73-.18,1.6.39,2.17.56.56,1.46.72,2.16.39,1.95-.9,3.49-1.65,4.77-2.29,4.71-2.3,4.98-2.3,9.7,0,1.27.62,2.82,1.38,4.76,2.27.72.32,1.61.18,2.17-.39.57-.57.73-1.44.39-2.17-.9-1.95-1.65-3.49-2.27-4.76-2.31-4.72-2.31-4.99,0-9.72.62-1.27,1.38-2.81,2.27-4.75.34-.73.18-1.6-.39-2.18s-1.42-.72-2.17-.38c-1.94.89-3.49,1.65-4.77,2.28-4.67,2.29-5.03,2.29-9.74-.03-1.34-.66-2.84-1.39-4.72-2.25-.27-.12-.54-.18-.81-.18-.5,0-.98.2-1.35.57-.57.57-.73,1.44-.39,2.17.9,1.95,1.65,3.49,2.27,4.76ZM534.86,24.3c.28-.28.71-.36,1.07-.2,3.22,1.41,4.61,1.41,7.87,0,.36-.15.78-.08,1.07.2.28.28.36.7.2,1.07-1.43,3.27-1.43,4.59,0,7.86.16.37.08.79-.2,1.07-.18.18-.43.28-.68.28-.13,0-.26-.03-.39-.08-3.05-1.34-4.8-1.34-7.85,0-.36.17-.79.08-1.07-.2s-.36-.7-.2-1.07c1.43-3.27,1.43-4.59,0-7.86-.16-.37-.08-.79.2-1.07Z"/><path class="cls-1" d="M647.8,882.38c-4.1-8.36-4.1-8.68,0-17.04,1.02-2.07,2.26-4.6,3.72-7.78.34-.73.18-1.6-.39-2.17s-1.42-.72-2.18-.39c-3.15,1.45-5.66,2.68-7.78,3.72-8.35,4.1-8.66,4.11-17.05,0-2.09-1.03-4.6-2.26-7.76-3.71-.74-.35-1.59-.2-2.17.38s-.73,1.44-.39,2.17c1.36,2.96,2.53,5.35,3.5,7.33l.22.45c4.1,8.36,4.1,8.67,0,17.04l-.19.38c-1,2.04-2.17,4.44-3.52,7.4-.34.73-.18,1.6.38,2.17.56.56,1.43.72,2.17.39,2.93-1.35,5.3-2.5,7.28-3.47l.51-.24c4.18-2.05,6.34-3.07,8.51-3.07s4.33,1.02,8.49,3.06l.41.2c2.04,1,4.44,2.17,7.39,3.52.73.35,1.6.18,2.17-.38.57-.57.73-1.44.39-2.17-1.46-3.19-2.7-5.71-3.72-7.78ZM644.32,885.52c-.29.29-.74.36-1.1.18l-.34-.17c-9.74-4.77-10.69-4.78-20.43,0l-.35.17c-.13.06-.28.1-.42.1-.25,0-.5-.1-.68-.28-.29-.29-.37-.74-.18-1.11l.17-.34c4.87-9.93,4.87-10.5,0-20.42l-.17-.35c-.18-.37-.11-.81.19-1.1.29-.29.74-.36,1.1-.18l.34.17c10.03,4.9,10.41,4.91,20.57-.08.38-.18.92-.15,1.2.14.29.29.47.69.29,1.05l-.17.35c-4.87,9.93-4.87,10.5,0,20.42l.17.35c.18.37.11.81-.18,1.1Z"/><path class="cls-1" d="M673.19,794.02l.84-.47-.87.43c-2.92-5.95-2.92-6.3,0-12.24.84-1.72,1.73-3.54,2.77-5.8.34-.73.18-1.6-.38-2.17s-1.42-.72-2.18-.39c-2.36,1.09-4.24,2.01-5.79,2.78-5.95,2.92-6.3,2.92-12.25,0-1.54-.76-3.43-1.68-5.8-2.77-.26-.12-.53-.18-.8-.18-.5,0-1,.2-1.37.57-.56.56-.72,1.44-.39,2.17,1.04,2.26,1.93,4.08,2.67,5.59l.11.23c2.91,5.94,2.91,6.28-.05,12.32-.75,1.53-1.66,3.39-2.73,5.72-.34.73-.18,1.6.38,2.17s1.46.72,2.16.39c2.08-.95,3.77-1.78,5.2-2.48l.62-.3c5.93-2.92,6.28-2.92,12.22,0l.62.3c1.43.7,3.12,1.53,5.19,2.47.72.34,1.61.18,2.17-.38.57-.57.73-1.44.39-2.17-1.06-2.3-1.97-4.15-2.75-5.76ZM668.89,794.02c.18.37.1.81-.19,1.1-.18.18-.43.28-.68.28-.14,0-.28-.03-.41-.09-5.34-2.55-6.97-2.55-12.31,0-.37.18-.81.1-1.1-.19-.29-.29-.37-.73-.19-1.1,2.62-5.52,2.62-6.79,0-12.32-.18-.37-.1-.81.19-1.1s.73-.36,1.1-.19c5.53,2.62,6.8,2.62,12.32,0,.37-.18.81-.1,1.1.19.29.29.37.73.19,1.1-2.62,5.52-2.62,6.79,0,12.32Z"/><path class="cls-1" d="M549.76,881.66c-2.31-4.73-2.31-5,0-9.72.62-1.27,1.38-2.81,2.27-4.76.34-.73.18-1.6-.39-2.17-.57-.56-1.45-.73-2.17-.38-1.94.9-3.49,1.65-4.77,2.28-4.71,2.3-4.98,2.3-9.7,0-1.27-.62-2.82-1.38-4.76-2.27-.73-.35-1.59-.19-2.17.39-.57.57-.73,1.44-.39,2.17.9,1.95,1.65,3.49,2.27,4.76,2.31,4.72,2.31,4.99,0,9.72-.62,1.27-1.38,2.81-2.27,4.75-.34.73-.18,1.6.38,2.17.56.56,1.45.72,2.17.39,1.92-.88,3.44-1.63,4.76-2.27,2.36-1.16,3.61-1.73,4.86-1.73s2.49.58,4.85,1.73c1.27.62,2.81,1.38,4.75,2.27.71.34,1.62.17,2.17-.38.57-.57.73-1.44.39-2.17-.9-1.95-1.65-3.49-2.27-4.76ZM544.86,881.8c-.28.28-.7.36-1.07.2-3.23-1.41-4.63-1.42-7.87,0-.12.05-.26.08-.39.08-.25,0-.5-.1-.68-.28-.28-.28-.36-.7-.2-1.07,1.42-3.23,1.42-4.63,0-7.86-.16-.37-.08-.79.2-1.07.28-.28.72-.35,1.07-.2,3.23,1.42,4.62,1.42,7.85,0,.36-.15.79-.08,1.07.2.28.28.36.7.2,1.07-1.43,3.28-1.43,4.6,0,7.87.16.37.08.79-.2,1.07Z"/><path class="cls-1" d="M81.22,882.83c-.03-.06-.22-.45-.22-.45-4.1-8.36-4.1-8.68,0-17.04l.19-.38c1-2.04,2.17-4.44,3.53-7.4.34-.73.18-1.6-.38-2.17-.57-.57-1.44-.73-2.17-.39-3.16,1.45-5.67,2.68-7.78,3.72-8.35,4.1-8.66,4.1-17.05,0-2.09-1.03-4.6-2.26-7.76-3.71-.26-.12-.53-.18-.81-.18-.5,0-1,.2-1.37.56-.57.57-.73,1.44-.39,2.17,1.36,2.96,2.53,5.35,3.5,7.33l.22.45c4.1,8.36,4.1,8.67,0,17.04l-.19.38c-1,2.04-2.17,4.44-3.52,7.4-.34.73-.18,1.6.38,2.17s1.45.72,2.17.39c3.16-1.45,5.67-2.68,7.78-3.72,8.35-4.1,8.66-4.1,17.05,0,2.09,1.03,4.61,2.26,7.76,3.7.72.33,1.61.18,2.17-.38.57-.57.73-1.44.39-2.17-1.36-2.96-2.53-5.35-3.5-7.33ZM77.54,884.07l.17.35c.18.37.11.81-.19,1.1-.29.29-.74.36-1.1.18l-.34-.17c-9.84-4.81-10.61-4.82-20.77.17-.14.06-.28.1-.43.1-.25,0-.5-.1-.68-.28-.29-.29-.37-.73-.18-1.1l.17-.34c4.87-9.93,4.87-10.51,0-20.43l-.17-.35c-.18-.37-.11-.81.19-1.1.29-.29.73-.36,1.1-.18l.34.17c10.03,4.91,10.42,4.91,20.77-.17.37-.18.81-.11,1.11.18.29.29.37.73.18,1.1-.05.11-.11.23-.18.34-4.86,9.93-4.86,10.51.01,20.43Z"/><path class="cls-1" d="M51.16,801.95c.57-.57.73-1.44.39-2.17-1.06-2.3-1.97-4.15-2.75-5.76-2.94-5.99-2.94-6.34-.02-12.29.84-1.72,1.73-3.54,2.77-5.8.34-.73.18-1.6-.38-2.17s-1.42-.72-2.18-.38c-2.36,1.09-4.25,2.01-5.82,2.78-5.94,2.9-6.28,2.9-12.4-.09-1.53-.75-3.35-1.64-5.63-2.68-.26-.12-.53-.18-.8-.18-.5,0-1,.2-1.37.57-.56.56-.72,1.44-.39,2.17,1.04,2.26,1.93,4.08,2.67,5.59l.11.23c2.91,5.94,2.91,6.28-.05,12.32-.75,1.53-1.66,3.39-2.73,5.72-.34.73-.19,1.6.38,2.17.56.56,1.46.73,2.17.4,2.27-1.04,4.09-1.93,5.6-2.67l.23-.11c5.93-2.92,6.28-2.92,12.32.05,1.53.75,3.39,1.66,5.71,2.73.72.34,1.61.17,2.17-.38ZM44.5,794.01c.18.37.1.81-.19,1.1-.29.29-.73.37-1.1.19-5.52-2.62-6.79-2.62-12.31,0-.13.06-.27.09-.41.09-.25,0-.5-.1-.68-.28-.29-.29-.37-.73-.19-1.1,2.62-5.52,2.62-6.79,0-12.32-.18-.37-.1-.81.19-1.1s.73-.36,1.1-.19c5.53,2.62,6.79,2.62,12.32,0,.37-.18.81-.1,1.1.19.29.29.37.73.19,1.1-2.62,5.53-2.62,6.8,0,12.32Z"/><path class="cls-1" d="M168.68,871.7c.61-1.23,1.32-2.69,2.15-4.51.34-.73.18-1.6-.39-2.17-.58-.57-1.44-.72-2.17-.39-1.82.84-3.28,1.55-4.5,2.15l-.29.14c-4.69,2.3-4.96,2.3-9.68-.02l-.25-.12c-1.23-.61-2.69-1.32-4.5-2.15-.26-.12-.54-.18-.81-.18-.5,0-.99.2-1.36.56-.57.57-.73,1.44-.39,2.17.9,1.95,1.65,3.49,2.27,4.76,2.31,4.72,2.31,4.99,0,9.72-.62,1.27-1.38,2.81-2.27,4.75-.34.73-.18,1.6.39,2.18.55.55,1.44.72,2.16.39,1.95-.89,3.49-1.65,4.76-2.27,4.69-2.29,5.05-2.29,9.7-.01,1.29.63,2.83,1.39,4.77,2.28.72.34,1.62.17,2.17-.38.57-.57.73-1.44.39-2.17-.83-1.82-1.55-3.28-2.15-4.5l-.13-.27c-2.31-4.71-2.31-4.98,0-9.7l.12-.25ZM163.86,880.73c.16.37.08.79-.2,1.07-.28.28-.7.35-1.07.2-3.24-1.41-4.64-1.41-7.87,0-.12.05-.25.08-.38.08-.25,0-.5-.1-.68-.28-.28-.28-.36-.7-.2-1.07,1.43-3.27,1.43-4.59,0-7.87-.16-.36-.08-.79.2-1.07.29-.28.72-.36,1.07-.2,3.26,1.43,4.59,1.43,7.86,0,.36-.16.79-.08,1.07.2.28.28.36.7.2,1.07-1.43,3.27-1.43,4.59,0,7.86Z"/></g></svg>