<?xml version="1.0" encoding="UTF-8"?><svg id="Layer_2" xmlns="http://www.w3.org/2000/svg" viewBox="0 0 698.52 960.01"><defs><style>.cls-1{fill:#58365f;}</style></defs><g id="graphics"><path class="cls-1" d="M430.88,535.54c.44.97,1.69,1.44,2.63,1,1.01-.46,1.46-1.64,1-2.64l-1.76-3.9c-.22-.48-.62-.86-1.13-1.05-.22-.08-.46-.12-.69-.12-.28,0-.56.06-.81.18-1.01.46-1.46,1.64-1,2.64l1.76,3.9Z"/><path class="cls-1" d="M423.94,520.18c.44.97,1.63,1.45,2.65.99.99-.45,1.44-1.64.99-2.64l-60.37-133.63c-.33-.73-1.06-1.16-1.83-1.16-.27,0-.55.06-.82.18-.99.45-1.44,1.64-.99,2.64,0,0,60.26,133.4,60.37,133.62Z"/><path class="cls-1" d="M347.44,349.21l-25.2,55.77c-.45,1,0,2.19,1.01,2.65.94.41,2.19-.04,2.63-1.01l22.47-49.74c.32-.72,1.5-.72,1.82,0l7.38,16.33c.45.99,1.63,1.44,2.65.99.99-.45,1.43-1.63.98-2.63l-10.11-22.37c-.6-1.32-3.03-1.32-3.63,0Z"/><path class="cls-1" d="M315.77,424.13c-.26-.11-.54-.17-.81-.17-.76,0-1.49.44-1.82,1.17l-3.91,8.66c-.45,1,0,2.19,1.01,2.65.94.41,2.19-.03,2.63-1.01l3.91-8.66c.45-1,0-2.19-1-2.65Z"/><path class="cls-1" d="M339.57,531.72c-.07,0-.15-.01-.22-.01-.44,0-.85.15-1.19.42-.43.35-.71.87-.75,1.42-.33,4.21-.63,8.51-.88,12.91-.03.52.14,1.03.49,1.42.38.42.91.66,1.55.69,1,0,1.88-.83,1.94-1.88.26-4.37.55-8.64.88-12.83.08-1.09-.73-2.05-1.82-2.14Z"/><path class="cls-1" d="M651.45,457.68c0-79.13-30.39-153.93-85.56-210.63-54.45-55.95-127.37-88.35-205.33-91.23-.44-.02-.82-.32-.93-.75l-8.45-32.93c-.2-.8-.98-1.33-1.93-1.33s-1.73.53-1.93,1.33l-8.45,32.93c-.11.42-.49.73-.93.75-77.96,2.87-150.87,35.28-205.33,91.23-55.17,56.69-85.56,131.5-85.56,210.63,0,120.94,71.82,229.95,182.98,277.73.93.4,2.16-.05,2.59-.96.47-.97.1-2.12-.85-2.63-81.17-43.51-131.59-127.67-131.59-219.64,0-120.62,89.7-226.25,208.66-245.7.35-.05.67.07.9.31.23.25.31.6.23.92l-4.2,16.38c-.1.37-.4.66-.78.73-108.56,21.01-187.35,116.63-187.35,227.35,0,102.46,65.76,191.47,163.64,221.48,1.03.31,2.17-.3,2.48-1.32.16-.51.11-1.05-.14-1.52-.25-.48-.67-.82-1.18-.97-96.19-29.49-160.81-116.96-160.81-217.66,0-107.43,76.25-201.15,181.31-222.85.34-.06.69.04.93.29.24.25.33.6.24.94l-91.83,357.98c-.02.25-.02.54.06.86.11.38.27.67.5.88l.23.21c.11.04.15.07.24.15.76.31,1.24.32,1.76.07l90.16-41.17c.13-.06.27-.09.41-.09.19,0,.38.05.54.16.28.18.46.5.46.84v143.87c0,1.1.89,1.99,1.99,1.99h81.25c1.1,0,1.99-.9,1.99-1.99v-143.87c0-.34.17-.65.46-.84s.64-.21.95-.07l90.16,41.17c.23.11.41.05.58.11.04.02.13.05.41.05.06-.03.16-.05.31-.09.17-.03.26-.04.36-.09.06-.03.12-.07.3-.21.44-.37.63-.63.77-1.04.07-.33.07-.58.05-.63-.01-.07-.03-.18-.03-.25-.12-.56-4.46-17.55-91.81-357.99-.09-.34,0-.69.24-.94.24-.25.58-.35.93-.29,105.06,21.71,181.31,115.43,181.31,222.86,0,100.67-64.6,188.13-160.75,217.64-.51.15-.93.49-1.18.97s-.3,1.01-.15,1.52c.31,1.03,1.5,1.62,2.49,1.32,97.84-30.02,163.57-119.02,163.57-221.46,0-110.75-78.79-206.36-187.35-227.36-.38-.07-.68-.36-.78-.73l-4.2-16.38c-.08-.33,0-.67.23-.92.23-.25.55-.37.9-.31,118.96,19.45,208.66,125.08,208.66,245.7,0,91.97-50.42,176.13-131.59,219.64-.95.51-1.32,1.66-.86,2.61.43.9,1.68,1.36,2.58.98,111.17-47.78,182.99-156.8,182.99-277.74ZM640.41,522.13c-5.25,23.79-13.42,46.89-24.28,68.66-.17.35-.52.55-.89.55-.08,0-.17-.01-.25-.03-.46-.12-.77-.54-.75-1.01,1-22.72-3.44-46.91-12.18-66.36-.06-.14-.09-.3-.09-.45.18-3.98.33-7.58.33-11.31,0-14.45-1.27-29-3.77-43.25-.07-.42.12-.83.49-1.04.36-.21.82-.16,1.15.12,15.71,13.72,38.44,40.04,40.24,53.77.01.11,0,.23-.02.34ZM495.95,198.54c.31-.36.84-.45,1.25-.22,58.03,32.88,103.71,85.09,128.63,147.02.1.25.1.54-.02.79-.11.25-.32.44-.58.53-2.53.88-5.47,1.31-8.67,1.31-4.62,0-9.78-.9-15.04-2.68-9.86-3.34-28.06-12.61-39.26-37.18l-1.31-2.87c-15.11-33.24-29.39-64.63-71.16-98.88-.23-.19-.36-.46-.36-.75,0-.29.12-.57.34-.77,2.24-1.98,4.32-4.1,6.18-6.29ZM460.01,180.51c10.54,4.16,21.24,9.17,31.82,14.89.27.14.46.41.51.71.05.3-.04.61-.24.84-20.61,23.04-70.12,38.62-103.66,38.62-2.61,0-5.13-.09-7.53-.29-.42-.04-.78-.33-.89-.74l-2.76-10.74c-.07-.29-.01-.6.17-.85s.46-.39.76-.4c25.21-.9,68.4-16.22,80.55-41.54.23-.47.79-.69,1.27-.49ZM421.42,168.3c11.05,2.7,22.13,6.11,32.94,10.12.27.1.48.3.58.57.11.26.09.56-.04.81-11.69,23.32-53.41,38.3-78.17,38.78-.47,0-.87-.31-.99-.75l-2.51-9.77c-.13-.52.17-1.06.69-1.21,16.91-4.91,38.62-18.89,46.33-37.96.19-.45.68-.71,1.16-.6ZM361.39,160.28c.2-.25.47-.37.82-.37,18.03.77,35.97,3.11,53.3,6.98.29.07.54.26.67.52.13.26.15.57.03.85-7.48,17.35-27.64,30.16-43.21,34.73-.09.03-.19.04-.28.04-.17,0-.34-.04-.49-.13-.24-.14-.41-.36-.47-.62l-10.55-41.12c-.08-.31,0-.63.19-.88ZM282.34,167.41c.13-.26.38-.46.67-.52,17.34-3.86,35.27-6.21,53.3-6.98.37-.01.62.12.82.37.2.25.27.57.19.88l-10.55,41.12c-.07.26-.24.48-.47.62-.15.09-.32.13-.49.13-.09,0-.19-.01-.28-.04-15.57-4.57-35.73-17.38-43.21-34.73-.12-.27-.11-.58.03-.85ZM244.16,178.42c10.78-4.01,21.86-7.42,32.93-10.12.49-.12.98.14,1.16.6,7.72,19.07,29.43,33.05,46.33,37.96.52.15.82.69.69,1.21l-2.51,9.77c-.11.44-.51.75-.97.75-24.8-.51-66.52-15.51-78.19-38.78-.13-.25-.14-.55-.03-.81.1-.26.31-.47.58-.57ZM206.68,195.4c10.57-5.72,21.28-10.72,31.82-14.89.48-.19,1.04.02,1.27.49,12.15,25.32,55.34,40.64,80.54,41.54.3.01.58.16.76.4s.24.55.17.85l-2.76,10.74c-.11.41-.46.71-.88.74-2.44.2-5.01.3-7.67.3-33.5,0-82.88-15.56-103.52-38.63-.2-.23-.29-.54-.24-.84.05-.3.24-.56.51-.71ZM201.31,198.32c.41-.24.94-.14,1.25.22,1.89,2.22,3.99,4.36,6.23,6.34.22.19.34.48.34.77,0,.29-.14.56-.36.75-41.87,34.31-56.15,65.72-71.27,98.97l-1.24,2.73c-11.19,24.57-29.4,33.85-39.26,37.18-5.26,1.78-10.42,2.68-15.04,2.68-3.2,0-6.15-.44-8.67-1.31-.26-.09-.47-.28-.58-.53-.11-.25-.12-.53-.02-.79,24.92-61.93,70.6-114.14,128.63-147.02ZM83.51,591.3c-.08.02-.17.03-.25.03-.37,0-.72-.21-.89-.55-10.85-21.77-19.02-44.86-24.27-68.65-.03-.11-.03-.23-.02-.34,1.81-13.73,24.53-40.04,40.24-53.75.32-.28.78-.33,1.15-.12.37.21.57.62.49,1.04-2.5,14.24-3.76,28.78-3.76,43.23,0,3.72.15,7.32.33,11.31,0,.16-.02.31-.09.45-8.74,19.45-13.18,43.63-12.18,66.34.02.47-.29.89-.75,1.01ZM182.55,702.59c.4.35.46.95.13,1.36-.2.25-.49.39-.79.39-.19,0-.39-.05-.56-.17-37.48-25.54-69.11-59.87-91.47-99.28-.06-.1-.1-.2-.11-.32-2.69-14.94-2.76-41.56,5.86-67.41.15-.44.59-.72,1.06-.67.47.05.84.42.88.89,6.39,64.13,36.57,122.8,85,165.21ZM106.8,440.34c-1.9,6.33-3.57,12.83-4.96,19.31-.05.23-.18.44-.37.58-12.7,9.79-34.98,32.88-43.79,50.76-.17.34-.52.56-.89.56-.56-.07-.91-.4-.98-.82-3.16-17.52-4.76-35.36-4.76-53.05,0-1.24.04-2.47.08-3.7l1-.13-1-.03.05-1.46c.01-.51.4-.92.91-.97,17.23-1.59,41.52-7.63,53.4-12.27.35-.14.76-.07,1.04.19.28.26.39.65.28,1.02ZM131.5,383.96c-9.18,15.5-16.7,31.91-22.35,48.79-.08.23-.24.43-.46.55-7.92,4.48-36.62,12.1-56.26,14.05-.35,0-.59-.09-.78-.26-.21-.2-.32-.48-.31-.76.63-16.98,2.65-33.88,6.04-50.23.1-.48.53-.75,1.02-.79,1.68.07,3.44.11,5.31.11,19.81,0,48.05-3.97,66.51-12.85.4-.19.87-.1,1.17.23.3.32.35.8.12,1.18ZM177.27,327.1c-14.81,13.83-27.92,29.28-38.96,45.95-.14.21-.35.35-.59.42-16.39,12.67-51.78,17.93-74.17,17.93-1.35,0-2.65-.02-3.9-.05-.3,0-.58-.15-.76-.39-.18-.24-.25-.54-.18-.83,3.03-13.29,7.01-26.47,11.83-39.18.19-.51.77-.76,1.26-.58,6.96,2.45,16.86,1.97,26.48-1.29,10.47-3.55,29.79-13.37,41.61-39.31l1.24-2.73c15.05-33.08,29.25-64.32,71.15-98.35.36-.29.87-.3,1.23-.02,4.55,3.45,9.8,6.76,15.61,9.85.31.16.51.48.53.83.02.35-.14.68-.43.88-30.74,20.96-51.51,71.82-51.61,106.17,0,.27-.11.54-.32.72ZM223.75,292.68c-14.34,8.27-27.87,17.92-40.22,28.7-.19.16-.42.25-.66.25-.15,0-.3-.04-.44-.11-.36-.18-.58-.56-.55-.96,2.24-33.64,22.88-81.03,52.3-98.93.29-.17.64-.19.95-.05,2.99,1.42,6.28,2.84,10.03,4.33.27.11.48.33.57.6.1.28.06.58-.08.83-5.33,9.14-22.63,40.8-21.41,64.43.02.37-.17.73-.5.92ZM271.79,271.36c-14.59,4.71-28.75,10.76-42.1,17.98-.15.08-.31.12-.48.12-.18,0-.36-.05-.52-.14-.3-.19-.48-.52-.48-.87.42-22.39,16.47-51.52,21.38-59.92.24-.42.74-.59,1.2-.44,5.47,1.99,11.25,3.79,17.18,5.36.47.12.78.56.74,1.04-.83,10.28,2.35,28.41,3.75,35.73.1.49-.19.98-.67,1.14ZM277.52,269.56c-.09.03-.19.04-.28.04-.18,0-.36-.05-.52-.15-.24-.14-.41-.39-.46-.67-1.26-6.7-4.14-23.32-3.65-32.91.01-.3.16-.57.4-.75.24-.17.54-.25.83-.17,12.91,3.02,25.47,4.62,36.32,4.62,1.82,0,3.7-.06,5.75-.19.32,0,.63.12.83.36.2.25.28.57.2.88l-5.32,20.74c-.1.39-.42.68-.82.74-11.13,1.7-22.33,4.21-33.27,7.45ZM387.89,751.32c0,.55-.45,1-1,1h-46.59c-.55,0-1-.45-1-1v-162.83c0-1.1-.89-1.99-1.99-1.99s-1.99.9-1.99,1.99v162.83c0,.55-.45,1-1,1h-22.69c-.55,0-1-.45-1-1v-152.11c0-40.82,11.65-85.82,31.96-123.46.23-.42.73-.64,1.2-.47.46.16.74.63.66,1.11-2.09,12.56-3.72,24.2-5,35.57-.12,1.09.67,2.08,1.77,2.21h.22c1,0,1.85-.76,1.97-1.77,1.59-14.2,3.63-28.14,6.41-43.86.07-.41.39-.73.81-.81.41-.09.82.11,1.04.48,22.67,38.69,36.21,87.66,36.21,130.99v152.11ZM473.78,615.99c.13.5-.15,1.02-.64,1.19-.49.15-1.03-.06-1.24-.53l-28.46-63c-.44-.99-1.64-1.43-2.65-.99-.99.45-1.44,1.63-.98,2.63l39.37,87.15c.17.38.09.82-.21,1.11-.19.19-.44.29-.7.29-.14,0-.28-.03-.41-.09l-85.4-38.99c-.35-.16-.58-.52-.58-.91v-4.66c0-47.15-15.3-99.45-40.93-139.91-.31-.48-.95-.79-1.68-.79s-1.38.3-1.69.79c-25.63,40.46-40.93,92.76-40.93,139.91v4.65c0,.39-.23.74-.58.91l-85.4,39c-.38.17-.82.09-1.12-.2-.29-.29-.38-.74-.21-1.11l77.03-170.49c.45-1,0-2.19-1-2.65-1.01-.43-2.19.01-2.64,1.01l-66.12,146.34c-.21.47-.75.69-1.24.53-.49-.17-.76-.69-.63-1.19l123.55-481.57c.23-.88,1.71-.88,1.93,0l123.56,481.56ZM422.26,268.78c-.05.28-.22.52-.46.67-.16.1-.34.15-.52.15-.1,0-.19-.01-.28-.04-10.93-3.24-22.12-5.75-33.27-7.46-.4-.06-.72-.35-.82-.74l-5.32-20.74c-.08-.31,0-.64.2-.88.2-.25.46-.37.83-.36,2.09.13,3.91.19,5.75.19,10.85,0,23.39-1.59,36.27-4.61.29-.07.59,0,.83.17.24.18.38.45.4.75.5,9.58-2.36,26.2-3.61,32.9ZM469.89,289.35c-.16.1-.34.14-.52.14-.16,0-.33-.04-.48-.12-13.38-7.24-27.57-13.31-42.17-18.02-.48-.16-.77-.64-.67-1.14,1.39-7.3,4.54-25.41,3.7-35.71-.04-.48.27-.92.74-1.04,6.01-1.6,11.8-3.4,17.23-5.38.46-.16.96.02,1.2.44,4.92,8.42,21.02,37.63,21.45,59.96,0,.35-.18.69-.48.87ZM516.09,321.52c-.14.07-.29.11-.44.11-.24,0-.47-.09-.66-.25-12.34-10.77-25.87-20.43-40.22-28.7-.33-.19-.52-.54-.5-.92,1.22-23.61-16.08-55.28-21.41-64.43-.15-.25-.18-.55-.08-.83.1-.27.3-.49.57-.6,3.84-1.53,7.25-3.01,10.42-4.52.31-.14.66-.12.95.05,29.23,17.81,49.7,65.33,51.91,99.14.03.41-.19.78-.55.96ZM560.2,373.04c-11.04-16.67-24.15-32.12-38.96-45.94-.2-.19-.32-.45-.32-.72-.1-34.53-20.71-85.51-51.23-106.37-.29-.19-.45-.53-.43-.88.02-.35.22-.66.52-.83,5.67-3.03,10.81-6.29,15.28-9.69.37-.28.87-.27,1.23.02,41.79,33.95,55.99,65.18,71.02,98.24l1.31,2.88c11.82,25.95,31.14,35.77,41.61,39.31,9.62,3.26,19.52,3.75,26.48,1.29.51-.17,1.07.08,1.26.58,4.82,12.72,8.79,25.89,11.83,39.18.07.29,0,.6-.18.83-.18.24-.46.38-.76.39-1.31.04-2.67.06-4.09.06-22.38,0-57.6-5.25-73.98-17.94-.24-.06-.46-.21-.59-.42ZM589.36,432.75c-5.64-16.85-13.16-33.26-22.35-48.78-.22-.38-.17-.86.12-1.18.3-.32.77-.42,1.17-.23,20.18,9.7,52.21,13.55,71.81,12.73.49.04.92.32,1.02.79,3.38,16.34,5.41,33.24,6.04,50.23,0,.28-.11.56-.31.76-.19.17-.43.27-.68.27-19.74-1.95-48.44-9.57-56.36-14.05-.21-.12-.38-.32-.46-.55ZM597.04,460.23c-.19-.14-.32-.35-.37-.58-1.39-6.47-3.06-12.97-4.96-19.31-.11-.36,0-.76.28-1.02.28-.26.68-.34,1.04-.19,11.88,4.64,36.18,10.67,53.4,12.27.5.05.89.46.91.97l.05,1.52c.04,1.26.08,2.53.08,3.81,0,17.67-1.6,35.5-4.75,53.01-.08.42-.42.75-.84.81-.52.01-.86-.2-1.03-.55-8.83-17.87-31.11-40.94-43.8-50.72ZM517.18,704.16c-.17.12-.37.17-.56.17-.3,0-.59-.13-.79-.39-.32-.42-.26-1.01.13-1.36,48.42-42.41,78.61-101.08,85-165.21.04-.47.41-.84.88-.89.45-.04.91.23,1.06.67,8.63,25.86,8.55,52.48,5.86,67.42-.02.11-.06.22-.11.32-22.36,39.4-53.99,73.73-91.47,99.27Z"/><path class="cls-1" d="M165.08,510.19c-1.1,0-1.99.9-1.99,1.99s.89,1.99,1.99,1.99h67.6c1.1,0,1.99-.9,1.99-1.99s-.89-1.99-1.99-1.99h-67.6Z"/><path class="cls-1" d="M136.41,512.19c0,1.1.89,1.99,1.99,1.99h6.55c1.1,0,1.99-.9,1.99-1.99s-.89-1.99-1.99-1.99h-6.55c-1.1,0-1.99.9-1.99,1.99Z"/><path class="cls-1" d="M228.81,534.85c.31-.44.42-.96.33-1.48-.09-.53-.4-1.01-.85-1.32-.33-.23-.7-.34-1.08-.34-.12,0-.24.01-.36.03l-85.59,15.09c-.53.09-.98.38-1.29.82-.31.44-.42.96-.33,1.48.19,1.07,1.32,1.82,2.29,1.62l85.59-15.09c.53-.09.98-.38,1.29-.82Z"/><path class="cls-1" d="M221.54,557.17c-.27-.13-.55-.19-.83-.19-.23,0-.47.04-.69.12l-43.19,15.72c-.5.18-.9.55-1.13,1.03-.23.48-.25,1.02-.07,1.52.36,1.01,1.52,1.57,2.56,1.2l43.19-15.72c.5-.18.9-.55,1.13-1.03.23-.48.25-1.02.07-1.52-.18-.51-.55-.91-1.03-1.13Z"/><path class="cls-1" d="M160.75,579.29c-.27-.12-.55-.19-.84-.19-.23,0-.46.04-.69.12l-8.79,3.2c-.5.18-.9.55-1.13,1.03-.23.48-.25,1.02-.07,1.52.36,1.01,1.52,1.57,2.56,1.2l8.79-3.2c1.03-.38,1.57-1.52,1.19-2.55-.18-.5-.55-.9-1.03-1.13Z"/><path class="cls-1" d="M214.36,591.7c.14-.51.07-1.05-.2-1.52-.27-.47-.7-.8-1.22-.93-.17-.05-.34-.07-.51-.07-.34,0-.69.09-.99.27l-45.78,26.43c-.46.26-.79.69-.93,1.21-.14.51-.07,1.05.2,1.51.53.92,1.81,1.25,2.72.73l45.78-26.44c.46-.26.79-.69.93-1.21Z"/><path class="cls-1" d="M200.68,634.82c-.45,0-.87.16-1.24.47,0,0-12.99,10.9-12.99,10.9-.84.71-.95,1.97-.25,2.81.68.81,2,.93,2.81.25l12.99-10.9c.84-.71.95-1.97.25-2.81-.34-.41-.82-.66-1.35-.71-.07,0-.15-.01-.22-.01Z"/><path class="cls-1" d="M215.25,674.99l9.4-11.2c.34-.41.5-.92.46-1.45-.05-.53-.3-1.02-.7-1.36-.41-.34-.92-.49-1.47-.46-.52.04-1,.29-1.34.71l-9.4,11.2c-.34.41-.5.92-.46,1.45.05.53.3,1.02.7,1.36.81.68,2.13.57,2.81-.24Z"/><path class="cls-1" d="M278.48,637.59c-.14-.51-.47-.94-.93-1.2-.31-.18-.66-.27-1.01-.27-.17,0-.34.02-.51.07-.51.14-.94.47-1.2.93l-18.88,32.69c-.27.46-.34,1-.2,1.52.14.51.47.94.92,1.2.94.54,2.2.19,2.73-.72l18.87-32.69c.27-.46.34-1,.2-1.52Z"/><path class="cls-1" d="M249.67,684.69c-.32-.18-.66-.28-1.01-.28-.17,0-.34.02-.51.07-.52.14-.95.47-1.22.93l-4.84,8.38c-.27.46-.34,1-.2,1.52.14.51.47.94.92,1.2.94.54,2.2.19,2.73-.72l4.83-8.38c.27-.46.34-1,.2-1.52-.14-.51-.47-.94-.92-1.2Z"/><path class="cls-1" d="M295.23,660.63c-.22-.08-.45-.12-.67-.12-.82,0-1.59.51-1.89,1.31l-17.4,47.81c-.18.5-.16,1.04.07,1.53.22.48.62.85,1.12,1.02,1.04.38,2.2-.18,2.56-1.18l17.4-47.82c.18-.5.16-1.04-.07-1.53-.22-.48-.62-.85-1.13-1.03Z"/><path class="cls-1" d="M281.59,326.27c.49-.18.9-.55,1.12-1.03.23-.48.25-1.02.07-1.53l-3.77-10.34c-.18-.5-.55-.9-1.03-1.13-.27-.13-.56-.19-.85-.19-.23,0-.46.04-.67.12-.5.18-.9.55-1.13,1.03-.23.48-.25,1.02-.07,1.53l3.77,10.34c.36,1.01,1.51,1.57,2.56,1.2Z"/><path class="cls-1" d="M248.74,338.1c.47-.27.8-.7.94-1.22.14-.51.07-1.05-.2-1.51l-3.92-6.79c-.27-.47-.71-.8-1.22-.93-.17-.05-.34-.07-.52-.07-.34,0-.68.09-.98.26-.47.27-.8.7-.94,1.22-.14.51-.07,1.05.2,1.51l3.92,6.79c.53.92,1.81,1.25,2.72.73Z"/><path class="cls-1" d="M269.55,374.14c.47-.27.8-.7.94-1.22.14-.51.07-1.05-.2-1.51l-11.32-19.61c-.27-.47-.71-.8-1.22-.93-.17-.05-.34-.07-.52-.07-.34,0-.68.09-.98.27-.47.27-.8.7-.94,1.22-.14.51-.07,1.05.2,1.51l11.32,19.61c.53.92,1.81,1.25,2.72.73Z"/><path class="cls-1" d="M213.9,348.67c-.63,0-1.1.16-1.46.46-.41.34-.66.83-.7,1.36-.04.53.12,1.04.46,1.45l46.27,55.14c.68.81,2,.93,2.81.25.41-.35.66-.83.71-1.36.04-.53-.12-1.04-.46-1.45l-46.27-55.14c-.34-.41-.82-.66-1.36-.71Z"/><path class="cls-1" d="M196.16,383.72c.34-.41.51-.93.46-1.45-.05-.53-.3-1.02-.71-1.36l-6.89-5.79c-.36-.3-.81-.47-1.26-.47-.72.05-1.21.3-1.55.71-.34.41-.5.92-.46,1.45.04.53.3,1.02.71,1.36l6.9,5.79c.81.68,2.14.57,2.81-.24Z"/><path class="cls-1" d="M206.86,390.68c-.73.05-1.21.3-1.56.71-.34.41-.5.92-.46,1.45.04.53.3,1.02.71,1.36l46.51,39.03c.81.69,2.14.57,2.81-.24.34-.41.51-.93.46-1.45-.05-.53-.3-1.02-.71-1.36l-46.51-39.03c-.37-.31-.79-.47-1.26-.47Z"/><path class="cls-1" d="M166.15,404.82c-.52.14-.95.47-1.23.94-.27.46-.34,1-.2,1.52.14.51.47.94.93,1.21l57.71,33.32c.93.54,2.2.19,2.73-.72.27-.46.34-1,.2-1.52-.14-.51-.47-.94-.93-1.21l-57.71-33.32c-.47-.27-1.01-.35-1.51-.21Z"/><path class="cls-1" d="M249.49,454.58c.27-.46.34-1,.2-1.52-.14-.51-.47-.94-.93-1.21l-9.66-5.57c-.31-.18-.66-.28-1-.28-.17,0-.34.02-.5.07-.52.14-.95.47-1.22.93-.27.46-.34,1-.2,1.52.14.51.47.94.93,1.21l9.66,5.57c.93.54,2.2.19,2.73-.72Z"/><path class="cls-1" d="M150.43,441.94s5.52,2.01,5.65,2.06c1.05.36,2.2-.19,2.56-1.19.18-.5.16-1.04-.07-1.53-.23-.48-.63-.85-1.13-1.04l-5.66-2.06c-1.03-.38-2.18.16-2.55,1.19-.18.5-.16,1.04.07,1.53.22.48.62.85,1.12,1.03Z"/><path class="cls-1" d="M244.53,474.07c.38-1.03-.16-2.18-1.19-2.56l-69.72-25.37c-.22-.09-.45-.12-.68-.12-.28,0-.57.06-.84.19-.48.22-.85.62-1.04,1.13-.38,1.03.16,2.18,1.19,2.56l69.72,25.37c1.04.38,2.2-.18,2.56-1.18Z"/><path class="cls-1" d="M140.49,473.91c-.45.3-.76.78-.85,1.31-.09.53.02,1.06.33,1.49.31.44.76.73,1.28.82l49.52,8.73c1.23.25,2.14-.55,2.33-1.61.09-.53-.02-1.06-.33-1.49-.31-.44-.76-.73-1.28-.82l-49.52-8.73c-.54-.11-1.06,0-1.49.3Z"/><path class="cls-1" d="M239.7,492.87c.09-.53-.02-1.06-.33-1.49-.31-.44-.76-.73-1.28-.82l-32.15-5.67c-.14-.03-.27-.04-.41-.04-.39,0-.75.12-1.08.34-.44.3-.75.79-.85,1.31-.09.53.02,1.06.33,1.49.31.44.76.73,1.28.82l32.15,5.67c1.25.24,2.14-.55,2.33-1.61Z"/><path class="cls-1" d="M465.83,514.18h73.88c1.1,0,1.99-.9,1.99-1.99s-.89-1.99-1.99-1.99h-73.88c-1.1,0-1.99.9-1.99,1.99s.89,1.99,1.99,1.99Z"/><path class="cls-1" d="M551.86,512.19c0,1.1.89,1.99,1.99,1.99h6.26c1.1,0,1.99-.9,1.99-1.99s-.89-1.99-1.99-1.99h-6.26c-1.1,0-1.99.9-1.99,1.99Z"/><path class="cls-1" d="M470.99,535.67s85.55,15.08,85.55,15.08c1.24.24,2.14-.55,2.33-1.61.09-.53-.02-1.06-.33-1.49-.31-.44-.76-.73-1.28-.82l-85.56-15.08c-.13-.03-.26-.04-.39-.04-.39,0-.77.12-1.1.35-.44.3-.74.78-.84,1.3-.09.53.02,1.06.33,1.49.31.44.76.73,1.28.82Z"/><path class="cls-1" d="M477.14,560.85l49.63,18.06c1.03.38,2.2-.18,2.56-1.18.18-.51.16-1.05-.07-1.53-.22-.48-.63-.85-1.13-1.03l-49.62-18.06c-.51-.19-1.03-.17-1.52.06-.49.23-.86.62-1.04,1.13-.18.5-.16,1.04.07,1.53.22.48.63.85,1.13,1.03Z"/><path class="cls-1" d="M548.08,582.42l-7.68-2.79c-.22-.08-.45-.12-.67-.12-.82,0-1.59.51-1.88,1.31-.18.5-.16,1.04.06,1.52.23.49.63.85,1.13,1.04l7.67,2.79c1.04.38,2.2-.18,2.56-1.18.18-.5.16-1.04-.06-1.52-.23-.49-.63-.85-1.13-1.04Z"/><path class="cls-1" d="M485.08,592.9s6.87,3.97,6.87,3.97c.92.54,2.2.19,2.73-.72.27-.46.34-1,.2-1.52-.14-.51-.47-.94-.93-1.21l-6.88-3.97c-.31-.18-.66-.27-1.01-.27-.17,0-.34.02-.5.07-.52.14-.95.47-1.22.93-.27.46-.34,1-.2,1.52.14.51.47.94.93,1.21Z"/><path class="cls-1" d="M533.59,618.61c.27-.46.34-1,.2-1.52-.14-.51-.47-.94-.93-1.21l-27.57-15.92c-.32-.18-.66-.28-1.01-.28-.17,0-.33.02-.5.07-.52.14-.95.47-1.22.94-.27.46-.34,1-.2,1.52.14.51.47.94.93,1.21l27.58,15.92c.93.54,2.2.19,2.73-.72Z"/><path class="cls-1" d="M497.82,634.82c-.72.06-1.21.31-1.55.72-.71.84-.59,2.1.25,2.81l12.99,10.9c.81.69,2.13.56,2.81-.24.71-.85.6-2.11-.24-2.81l-12.99-10.9c-.37-.31-.81-.48-1.26-.48Z"/><path class="cls-1" d="M475.57,660.52c-.65,0-1.09.16-1.46.46-.41.34-.66.83-.71,1.36-.04.53.12,1.04.46,1.45l9.4,11.19c.68.82,2,.93,2.81.25.41-.35.66-.83.71-1.36.04-.53-.12-1.04-.46-1.45l-9.4-11.19c-.34-.41-.82-.66-1.35-.71Z"/><path class="cls-1" d="M442.62,673.9c.47-.27.8-.7.94-1.22.14-.51.07-1.05-.2-1.51l-19.66-34.06c-.27-.47-.71-.8-1.22-.93-.17-.05-.35-.07-.52-.07-.34,0-.68.09-.97.26-.47.27-.8.7-.94,1.22-.14.51-.07,1.05.2,1.51l19.66,34.06c.53.92,1.81,1.25,2.72.73Z"/><path class="cls-1" d="M455.68,696.52c.47-.27.8-.7.94-1.22.14-.51.07-1.05-.2-1.51l-3.93-6.81c-.27-.47-.71-.8-1.22-.93-.17-.05-.34-.07-.52-.07-.34,0-.68.09-.98.26-.47.27-.8.7-.94,1.22-.14.51-.07,1.05.2,1.51l3.93,6.81c.53.92,1.81,1.25,2.72.73Z"/><path class="cls-1" d="M404.6,658.41c-.18-.5-.55-.9-1.03-1.13-.27-.12-.56-.19-.85-.19-.23,0-.46.04-.68.12-.5.18-.9.55-1.12,1.03-.23.48-.25,1.02-.07,1.53l3.27,8.98c.36,1.01,1.52,1.57,2.56,1.2.49-.18.9-.55,1.12-1.03.23-.48.25-1.02.07-1.53l-3.27-8.98Z"/><path class="cls-1" d="M422.06,712.2c.49-.18.9-.55,1.12-1.03.23-.48.25-1.02.07-1.53l-9.32-25.61c-.18-.51-.55-.91-1.04-1.13-.26-.12-.55-.18-.83-.18-.23,0-.46.04-.68.12-.5.18-.9.55-1.13,1.03-.23.48-.25,1.02-.07,1.53l9.32,25.61c.36,1.01,1.51,1.57,2.56,1.2Z"/><path class="cls-1" d="M422.06,312.17c-.22-.08-.45-.12-.67-.12-.82,0-1.59.5-1.88,1.31l-3.77,10.35c-.18.5-.16,1.04.07,1.53.22.48.62.85,1.12,1.02,1.04.38,2.2-.18,2.56-1.18l3.77-10.35c.18-.5.16-1.04-.07-1.53-.22-.48-.62-.85-1.13-1.03Z"/><path class="cls-1" d="M449.76,338.09c.92.53,2.2.19,2.73-.72l3.92-6.79c.27-.46.34-1,.2-1.52-.14-.51-.47-.94-.92-1.2-.31-.18-.66-.27-1.01-.27-.17,0-.34.02-.51.07-.51.14-.94.47-1.21.93l-3.92,6.79c-.27.46-.34,1-.2,1.52.14.51.47.94.92,1.2Z"/><path class="cls-1" d="M444.86,349.43c-.14-.52-.47-.95-.93-1.21-.31-.18-.66-.28-1-.28-.17,0-.34.02-.5.07-.53.14-.96.47-1.23.93l-12.97,22.47c-.27.46-.34,1-.2,1.52.14.51.47.94.92,1.2.94.54,2.2.19,2.73-.72l12.97-22.47c.27-.46.34-1,.2-1.51Z"/><path class="cls-1" d="M449.48,392.74c.81.69,2.13.57,2.81-.24l34.03-40.56c.34-.41.5-.92.46-1.45-.04-.53-.3-1.02-.7-1.36-.36-.3-.81-.47-1.28-.47-.7.05-1.19.3-1.53.71l-34.03,40.55c-.34.41-.5.92-.46,1.45.04.53.3,1.02.71,1.36Z"/><path class="cls-1" d="M440.05,407.09l4.41-5.25c.34-.41.51-.92.46-1.45-.04-.53-.29-1.01-.7-1.35-.36-.3-.82-.47-1.29-.47-.69.05-1.18.3-1.52.71l-4.41,5.25c-.34.41-.51.92-.46,1.45.04.53.29,1.01.7,1.36.82.69,2.14.57,2.81-.24Z"/><path class="cls-1" d="M505.14,383.99s6.92-5.81,6.92-5.81c.41-.34.66-.83.71-1.36.05-.53-.11-1.04-.46-1.45-.34-.41-.82-.66-1.36-.71-.63,0-1.09.16-1.46.46l-6.92,5.81c-.41.34-.66.83-.71,1.36-.05.53.11,1.04.46,1.45.69.82,2.01.93,2.81.25Z"/><path class="cls-1" d="M446.44,433.24l40.63-34.09c.41-.34.66-.82.7-1.35.05-.53-.11-1.05-.46-1.45-.34-.41-.82-.66-1.35-.71-.64,0-1.09.16-1.46.46l-40.62,34.09c-.84.71-.95,1.97-.25,2.81.68.81,2,.93,2.81.25Z"/><path class="cls-1" d="M451.75,455.31l81.11-46.83c.46-.27.79-.69.93-1.21.14-.51.07-1.05-.2-1.51-.27-.47-.71-.8-1.23-.93-.17-.05-.34-.07-.51-.07-.34,0-.68.09-.98.27l-81.12,46.83c-.46.27-.79.69-.93,1.21-.14.51-.07,1.05.2,1.51.53.92,1.81,1.25,2.72.73Z"/><path class="cls-1" d="M540.36,444.75l7.72-2.81c.5-.18.9-.55,1.13-1.03.23-.49.25-1.02.07-1.52-.18-.5-.55-.9-1.04-1.13-.27-.12-.55-.19-.84-.19-.23,0-.46.04-.68.12l-7.73,2.82c-.5.18-.9.55-1.13,1.03-.23.49-.25,1.02-.07,1.52.36,1.01,1.52,1.57,2.56,1.2Z"/><path class="cls-1" d="M456.55,475.26l66.94-24.37c.5-.18.9-.55,1.13-1.03.23-.48.25-1.02.07-1.52-.18-.51-.55-.91-1.03-1.13-.26-.13-.55-.19-.83-.19-.23,0-.46.04-.69.12l-66.94,24.37c-.5.18-.9.55-1.13,1.03-.23.48-.25,1.02-.07,1.52.36,1.01,1.52,1.57,2.56,1.2Z"/><path class="cls-1" d="M491.32,485.7c-.31.44-.42.96-.33,1.49.19,1.07,1.33,1.82,2.29,1.62l63.97-11.28c.53-.09.98-.38,1.29-.82.31-.44.42-.96.33-1.48-.09-.54-.41-1.02-.86-1.33-.33-.22-.69-.33-1.06-.33-.12,0-.24.01-.36.04l-63.98,11.28c-.53.09-.98.38-1.29.82Z"/><path class="cls-1" d="M461.11,494.49l17.05-3.01c.53-.09.98-.38,1.29-.82.31-.44.42-.96.33-1.48-.1-.54-.41-1.03-.86-1.33-.32-.22-.69-.33-1.05-.33-.12,0-.25.01-.37.04l-17.06,3.01c-.53.09-.98.38-1.29.82-.31.44-.42.96-.33,1.48.19,1.07,1.33,1.83,2.29,1.62Z"/><path class="cls-1" d="M123.89,851.79c-.39-.39-.39-1.02,0-1.41l50.3-50.3c.29-.29.71-.37,1.09-.22.37.16.62.52.62.92v41.87c0,1.1.89,1.99,1.99,1.99s1.99-.9,1.99-1.99v-49.1c0-.26-.05-.51-.16-.77-.2-.48-.6-.88-1.09-1.08-.24-.09-.49-.14-.75-.14h-49.1c-1.1,0-1.99.9-1.99,1.99s.89,1.99,1.99,1.99h41.88c.4,0,.77.24.92.62.15.37.07.8-.22,1.09l-50.3,50.3c-.39.39-1.02.39-1.41,0l-19.79-19.79c-.38-.38-.88-.58-1.41-.58s-1.03.21-1.41.58c-.38.38-.59.88-.59,1.41s.21,1.03.58,1.41l19.79,19.79c.39.39.39,1.02,0,1.41l-47.22,47.22c-.38.37-.58.88-.58,1.41s.21,1.04.58,1.41c.76.76,2.06.76,2.82,0l47.22-47.22c.39-.39,1.02-.39,1.41,0l19.79,19.79c.74.74,2.08.74,2.82,0,.38-.37.58-.88.58-1.41s-.21-1.04-.58-1.41l-19.79-19.79Z"/><path class="cls-1" d="M581.68,851.79c-.39-.39-.39-1.02,0-1.41l19.79-19.79c.38-.38.58-.88.58-1.41s-.21-1.03-.58-1.41c-.75-.76-2.07-.76-2.82,0l-19.79,19.79c-.39.39-1.02.39-1.41,0l-50.3-50.3c-.28-.28-.37-.71-.22-1.09.15-.37.52-.62.92-.62h41.88c1.1,0,1.99-.9,1.99-1.99s-.89-1.99-1.99-1.99h-49.1c-.26,0-.51.05-.77.16-.48.2-.87.59-1.07,1.08-.1.25-.15.5-.15.76v49.1c0,1.1.89,1.99,1.99,1.99s1.99-.9,1.99-1.99v-41.87c0-.41.24-.77.62-.92.37-.15.8-.07,1.09.22l50.3,50.3c.39.39.39,1.02,0,1.41l-19.79,19.79c-.38.37-.58.88-.58,1.41s.21,1.04.58,1.41c.74.74,2.08.74,2.82,0l19.79-19.79c.19-.19.45-.29.71-.29s.51.1.71.29l47.22,47.22c.76.76,2.06.76,2.82,0,.38-.37.58-.88.58-1.41s-.21-1.04-.58-1.41l-47.22-47.22Z"/><path class="cls-1" d="M247.66,900.55c-1.1,0-1.99.9-1.99,1.99v35.77c0,1.1.89,1.99,1.99,1.99s1.99-.9,1.99-1.99v-35.77c0-1.1-.89-1.99-1.99-1.99Z"/><path class="cls-1" d="M247.66,865.15c-1.1,0-1.99.9-1.99,1.99v12.47c0,1.1.89,1.99,1.99,1.99s1.99-.9,1.99-1.99v-12.47c0-1.1-.89-1.99-1.99-1.99Z"/><path class="cls-1" d="M247.66,768.16c-1.1,0-1.99.9-1.99,1.99v70.06c0,1.1.89,1.99,1.99,1.99s1.99-.9,1.99-1.99v-70.06c0-1.1-.89-1.99-1.99-1.99Z"/><path class="cls-1" d="M281.53,938.95c-1.1,0-1.99.9-1.99,1.99v8.68c0,1.1.89,1.99,1.99,1.99s1.99-.9,1.99-1.99v-8.68c0-1.1-.89-1.99-1.99-1.99Z"/><path class="cls-1" d="M281.53,786.87c-1.1,0-1.99.9-1.99,1.99v131.63c0,1.1.89,1.99,1.99,1.99s1.99-.9,1.99-1.99v-131.63c0-1.1-.89-1.99-1.99-1.99Z"/><path class="cls-1" d="M315.39,830.74c-1.1,0-1.99.9-1.99,1.99v123.27c0,1.1.89,1.99,1.99,1.99s1.99-.9,1.99-1.99v-123.27c0-1.1-.89-1.99-1.99-1.99Z"/><path class="cls-1" d="M315.39,795.59c-1.1,0-1.99.9-1.99,1.99v9.72c0,1.1.89,1.99,1.99,1.99s1.99-.9,1.99-1.99v-9.72c0-1.1-.89-1.99-1.99-1.99Z"/><path class="cls-1" d="M349.26,947.62c-1.1,0-1.99.9-1.99,1.99v8.4c0,1.1.89,1.99,1.99,1.99s1.99-.9,1.99-1.99v-8.4c0-1.1-.89-1.99-1.99-1.99Z"/><path class="cls-1" d="M349.26,798.83c-1.1,0-1.99.9-1.99,1.99v126.16c0,1.1.89,1.99,1.99,1.99s1.99-.9,1.99-1.99v-126.16c0-1.1-.89-1.99-1.99-1.99Z"/><path class="cls-1" d="M450.85,900.55c-1.1,0-1.99.9-1.99,1.99v35.77c0,1.1.89,1.99,1.99,1.99s1.99-.9,1.99-1.99v-35.77c0-1.1-.89-1.99-1.99-1.99Z"/><path class="cls-1" d="M450.85,871.38c-1.1,0-1.99.9-1.99,1.99v8.23c0,1.1.89,1.99,1.99,1.99s1.99-.9,1.99-1.99v-8.23c0-1.1-.89-1.99-1.99-1.99Z"/><path class="cls-1" d="M450.85,768.16c-1.1,0-1.99.9-1.99,1.99v76.84c0,1.1.89,1.99,1.99,1.99s1.99-.9,1.99-1.99v-76.84c0-1.1-.89-1.99-1.99-1.99Z"/><path class="cls-1" d="M416.99,938.95c-1.1,0-1.99.9-1.99,1.99v8.68c0,1.1.89,1.99,1.99,1.99s1.99-.9,1.99-1.99v-8.68c0-1.1-.89-1.99-1.99-1.99Z"/><path class="cls-1" d="M416.99,786.87c-1.1,0-1.99.9-1.99,1.99v128.14c0,1.1.89,1.99,1.99,1.99s1.99-.9,1.99-1.99v-128.14c0-1.1-.89-1.99-1.99-1.99Z"/><path class="cls-1" d="M383.12,828.75c-1.1,0-1.99.9-1.99,1.99v125.26c0,1.1.89,1.99,1.99,1.99s1.99-.9,1.99-1.99v-125.26c0-1.1-.89-1.99-1.99-1.99Z"/><path class="cls-1" d="M383.12,795.59c-1.1,0-1.99.9-1.99,1.99v9.72c0,1.1.89,1.99,1.99,1.99s1.99-.9,1.99-1.99v-9.72c0-1.1-.89-1.99-1.99-1.99Z"/><path class="cls-1" d="M349.26,10.64c1.1,0,1.99-.9,1.99-1.99V1.99c0-1.1-.89-1.99-1.99-1.99s-1.99.9-1.99,1.99v6.65c0,1.1.89,1.99,1.99,1.99Z"/><path class="cls-1" d="M349.26,86.8c1.1,0,1.99-.9,1.99-1.99V23.19c0-1.1-.89-1.99-1.99-1.99s-1.99.9-1.99,1.99v61.61c0,1.1.89,1.99,1.99,1.99Z"/><path class="cls-1" d="M376.22,60.08c1.07.33,2.18-.28,2.5-1.3l15.62-49.54c.33-1.05-.26-2.17-1.31-2.5-.19-.06-.39-.09-.58-.09-.85,0-1.64.55-1.91,1.39l-15.62,49.54c-.16.51-.11,1.04.13,1.52.25.47.66.82,1.17.98Z"/><path class="cls-1" d="M366.95,89.5c1.08.33,2.18-.28,2.5-1.3l3.03-9.6c.16-.51.11-1.05-.14-1.52-.25-.48-.66-.82-1.18-.99-.19-.06-.39-.09-.59-.09-.85,0-1.64.55-1.91,1.39l-3.03,9.6c-.16.51-.11,1.04.13,1.52.25.47.66.82,1.17.98Z"/><path class="cls-1" d="M429.55,34.42l3.72-5.31c.63-.9.41-2.15-.49-2.77-.34-.24-.73-.36-1.14-.36-.11,0-.23,0-.35.03-.53.09-.99.39-1.29.82l-3.72,5.31c-.63.9-.41,2.15.49,2.77.87.63,2.17.39,2.78-.48Z"/><path class="cls-1" d="M382.17,96.14c.09.52.38.98.82,1.29.86.61,2.17.38,2.78-.49l35.21-50.29c.3-.44.42-.97.33-1.49-.09-.52-.38-.98-.82-1.29-.35-.24-.73-.37-1.13-.37-.11,0-.23.01-.35.03-.53.09-.99.38-1.3.82l-35.22,50.29c-.3.44-.42.97-.33,1.49Z"/><path class="cls-1" d="M413.15,94.8c-.07.53.07,1.06.4,1.48.65.85,1.96,1.02,2.79.37l48.07-36.88c.42-.33.7-.79.77-1.32.07-.53-.07-1.05-.39-1.47-.33-.42-.8-.7-1.32-.77-.53-.07-1.05.06-1.47.4l-48.06,36.88c-.42.32-.7.79-.77,1.32Z"/><path class="cls-1" d="M400.99,103.39l-4.71,3.62c-.42.32-.69.79-.76,1.32-.07.53.07,1.05.39,1.47.64.84,1.95,1.01,2.8.37l4.71-3.62c.42-.32.69-.79.76-1.32.07-.53-.07-1.05-.39-1.47-.39-.51-.98-.78-1.58-.78-.43,0-.86.14-1.22.41Z"/><path class="cls-1" d="M478.47,100.7l6.42-2.34c.5-.18.9-.55,1.13-1.03.22-.48.25-1.02.07-1.53-.18-.5-.55-.9-1.03-1.13-.27-.12-.56-.19-.85-.19-.23,0-.46.04-.68.12l-6.42,2.34c-.5.18-.9.55-1.13,1.03-.22.48-.25,1.02-.06,1.52.36,1.01,1.52,1.57,2.56,1.2Z"/><path class="cls-1" d="M462.69,105.82c.22-.48.25-1.02.07-1.53-.18-.5-.55-.9-1.03-1.13-.27-.12-.56-.19-.85-.19-.23,0-.46.04-.68.12l-54.47,19.83c-.5.18-.9.55-1.13,1.03-.23.48-.25,1.02-.07,1.52.36,1.01,1.52,1.57,2.56,1.2l54.47-19.83c.5-.18.9-.55,1.13-1.03Z"/><path class="cls-1" d="M477.75,141.99c.14,0,1.4-.06,15.07-.65,1.09-.05,1.95-.99,1.9-2.08-.04-1.07-.94-1.85-2.17-1.91l-14.88.65c-1.09.05-1.95.99-1.9,2.08.04,1.07.92,1.91,1.98,1.91Z"/><path class="cls-1" d="M409.99,144.95c.15,0,1.98-.08,53.29-2.32,1.09-.05,1.95-.99,1.9-2.08-.05-1.11-.94-1.91-2.12-1.91l-53.14,2.32c-1.09.05-1.95.99-1.9,2.08.04,1.07.91,1.9,1.98,1.91Z"/><path class="cls-1" d="M321.55,64.38c.32,1.02,1.4,1.63,2.51,1.3.5-.16.92-.51,1.16-.98.25-.47.29-1.01.13-1.52l-17.38-55.14c-.33-1.04-1.44-1.63-2.51-1.3-.5.16-.91.51-1.16.98-.25.47-.29,1.01-.13,1.52l17.38,55.14Z"/><path class="cls-1" d="M329.06,88.19c.33,1.03,1.45,1.64,2.5,1.3.51-.16.92-.51,1.17-.98.25-.47.29-1.01.13-1.52l-2.3-7.28c-.16-.51-.51-.93-.99-1.17-.29-.15-.6-.23-.91-.23-.2,0-.4.03-.6.1-.51.16-.93.51-1.17.98-.25.47-.29,1.01-.13,1.52l2.3,7.28Z"/><path class="cls-1" d="M268.73,34.07c.61.87,1.91,1.09,2.78.49.9-.64,1.12-1.88.49-2.78l-3.47-4.96c-.63-.9-1.89-1.12-2.78-.49-.9.63-1.12,1.88-.49,2.78l3.47,4.96Z"/><path class="cls-1" d="M312.75,96.95c.61.87,1.92,1.09,2.77.49.44-.31.74-.77.83-1.29.09-.52-.03-1.05-.33-1.49l-35.22-50.3c-.31-.44-.76-.73-1.29-.82-.12-.02-.23-.03-.35-.03-.4,0-.79.12-1.13.36-.44.31-.73.77-.83,1.29-.09.52.03,1.05.33,1.49l35.22,50.3Z"/><path class="cls-1" d="M285.54,99.23c.84.65,2.15.48,2.8-.36.33-.42.47-.95.4-1.48-.07-.53-.34-1-.76-1.32l-51.43-39.47c-.36-.27-.77-.41-1.21-.41-.09,0-.18,0-.26.02-.53.07-1,.34-1.33.76-.32.42-.47.95-.4,1.48.07.53.34,1,.76,1.32l51.43,39.46Z"/><path class="cls-1" d="M296.52,103.35c-.53.07-1.01.34-1.33.76-.32.42-.47.95-.4,1.48.07.53.34,1,.76,1.32l4.23,3.24c.85.66,2.15.48,2.8-.36.33-.42.47-.95.4-1.48-.07-.53-.34-1-.76-1.32l-4.23-3.25c-.42-.32-.94-.46-1.47-.4Z"/><path class="cls-1" d="M213.63,98.37l6.43,2.33c1.04.38,2.2-.18,2.56-1.18.18-.51.16-1.05-.07-1.53-.22-.48-.63-.85-1.13-1.03l-6.43-2.34c-1.04-.38-2.18.16-2.55,1.19-.38,1.03.16,2.18,1.19,2.56Z"/><path class="cls-1" d="M234.63,106.01l56.79,20.66c1.03.39,2.2-.18,2.56-1.18.18-.51.16-1.05-.07-1.53-.22-.48-.63-.85-1.13-1.03l-56.78-20.66c-.5-.19-1.04-.17-1.52.06-.48.23-.86.63-1.04,1.13-.18.5-.16,1.04.07,1.53.22.48.63.85,1.13,1.03Z"/><path class="cls-1" d="M205.7,141.33c31.31,1.37,46.65,2.04,46.91,2.05,1.05,0,1.92-.84,1.97-1.91.05-1.09-.81-2.03-1.91-2.08l-46.89-2.05c-1.09.06-1.94.85-1.99,1.91-.05,1.09.8,2.03,1.91,2.08Z"/><path class="cls-1" d="M270.62,140.17c-1.06.02-2.01.88-2.05,1.91-.05,1.09.81,2.03,1.91,2.08,16.88.74,17.97.78,18.06.78,1.05,0,1.92-.84,1.97-1.91.05-1.09-.8-2.03-1.9-2.08,0,0-17.72-.78-17.98-.78Z"/><path class="cls-1" d="M48.05,157.78c4.15,1.53,7.53,2.7,10.5,3.71,11.6,3.97,11.9,4.26,15.87,15.87.96,2.82,2.14,6.25,3.71,10.49.29.78,1.04,1.3,1.87,1.3s1.58-.52,1.87-1.3c1.55-4.19,2.72-7.59,3.71-10.49,3.97-11.6,4.26-11.9,15.87-15.87,2.82-.96,6.26-2.14,10.49-3.71.78-.29,1.3-1.04,1.3-1.87s-.52-1.58-1.3-1.87c-4.24-1.57-7.67-2.75-10.49-3.71-11.61-3.97-11.91-4.27-15.87-15.87-.96-2.82-2.14-6.26-3.71-10.5-.26-.71-1-1.17-1.87-1.17s-1.61.46-1.87,1.17c-1.56,4.2-2.73,7.62-3.71,10.49-3.97,11.61-4.26,11.9-15.87,15.87-2.82.96-6.25,2.14-10.49,3.71-.78.29-1.3,1.04-1.3,1.87s.52,1.58,1.3,1.87ZM57.32,154.97l2.51-.86c13.3-4.55,13.81-5.06,18.36-18.36l.86-2.51c.28-.81,1.61-.81,1.89,0l.86,2.52c4.55,13.3,5.06,13.81,18.36,18.36l2.51.86c.4.14.67.52.67.94s-.27.8-.67.94l-2.51.86c-13.29,4.54-13.81,5.06-18.36,18.35l-.86,2.52c-.14.41-.52.67-.94.67s-.8-.27-.94-.67l-.86-2.51c-4.55-13.3-5.06-13.81-18.35-18.35l-2.51-.86c-.4-.14-.67-.51-.67-.94s.27-.81.67-.95Z"/><path class="cls-1" d="M586.58,157.78c4.15,1.53,7.53,2.7,10.5,3.71,11.6,3.97,11.9,4.26,15.87,15.87.99,2.88,2.16,6.29,3.71,10.49.29.78,1.04,1.3,1.87,1.3s1.58-.52,1.87-1.3c1.55-4.19,2.72-7.59,3.71-10.49,3.97-11.6,4.26-11.9,15.87-15.87,2.82-.96,6.26-2.14,10.49-3.71.78-.29,1.3-1.04,1.3-1.87s-.52-1.58-1.3-1.87c-4.24-1.57-7.68-2.75-10.49-3.71-11.61-3.97-11.91-4.27-15.87-15.87-.99-2.9-2.16-6.31-3.71-10.49-.26-.71-1-1.17-1.87-1.17s-1.61.46-1.87,1.17c-1.56,4.2-2.73,7.62-3.71,10.49-3.97,11.61-4.26,11.9-15.87,15.87-2.82.96-6.25,2.14-10.49,3.71-.78.29-1.3,1.04-1.3,1.87s.52,1.58,1.3,1.87ZM595.85,154.97l2.51-.86c13.3-4.55,13.81-5.06,18.36-18.36l.86-2.51c.14-.4.52-.67.94-.67s.8.27.94.67l.86,2.51c4.55,13.3,5.06,13.81,18.36,18.36l2.51.86c.4.14.67.52.67.94s-.27.8-.67.94l-2.51.86c-13.29,4.54-13.81,5.06-18.43,18.58l-.79,2.29c-.14.41-.52.67-.94.67s-.8-.27-.94-.67l-.86-2.51c-4.55-13.3-5.06-13.81-18.35-18.35l-2.51-.86c-.4-.14-.67-.51-.67-.94s.27-.81.67-.95Z"/><path class="cls-1" d="M74.41,745.15c.96,2.82,2.14,6.25,3.71,10.49.29.78,1.04,1.3,1.87,1.3s1.58-.52,1.87-1.3c1.55-4.18,2.72-7.58,3.71-10.49,3.97-11.6,4.26-11.9,15.87-15.87,2.82-.96,6.26-2.14,10.49-3.71.78-.29,1.3-1.04,1.3-1.87s-.52-1.58-1.3-1.87c-4.24-1.57-7.67-2.75-10.49-3.71-11.61-3.97-11.91-4.27-15.87-15.87-.96-2.82-2.14-6.26-3.71-10.5-.53-1.43-3.21-1.43-3.74,0-1.56,4.2-2.73,7.62-3.71,10.5-3.97,11.61-4.26,11.9-15.87,15.87-2.82.96-6.25,2.14-10.49,3.71-.78.29-1.3,1.04-1.3,1.87s.52,1.58,1.3,1.87c4.15,1.53,7.53,2.7,10.5,3.71,11.6,3.97,11.9,4.26,15.87,15.87ZM57.32,724.64c-.4-.14-.67-.51-.67-.94s.27-.81.67-.95l2.51-.86c13.3-4.55,13.81-5.06,18.36-18.36l.86-2.51c.28-.81,1.61-.81,1.89,0l.86,2.52c4.55,13.3,5.06,13.81,18.36,18.36l2.51.86c.4.14.67.52.67.94s-.27.8-.67.94l-2.51.86c-13.29,4.54-13.81,5.06-18.36,18.35l-.86,2.52c-.14.41-.52.67-.94.67s-.8-.27-.94-.67l-.86-2.51c-4.55-13.3-5.06-13.81-18.35-18.35,0,0-2.51-.86-2.51-.86Z"/><path class="cls-1" d="M651.77,723.7c0-.83-.52-1.58-1.3-1.87-4.24-1.57-7.68-2.75-10.49-3.71-11.61-3.97-11.91-4.27-15.87-15.87-.99-2.9-2.16-6.31-3.71-10.5-.27-.72-1-1.18-1.87-1.18s-1.61.46-1.87,1.18c-1.56,4.2-2.73,7.62-3.71,10.5-3.97,11.61-4.26,11.9-15.87,15.87-2.82.96-6.25,2.14-10.49,3.71-.78.29-1.3,1.04-1.3,1.87s.52,1.58,1.3,1.87c4.15,1.53,7.53,2.7,10.5,3.71,11.6,3.97,11.9,4.26,15.87,15.87.99,2.88,2.16,6.29,3.71,10.49.29.78,1.04,1.3,1.87,1.3s1.58-.52,1.87-1.3c1.55-4.18,2.72-7.58,3.71-10.49,3.97-11.6,4.26-11.9,15.87-15.87,2.82-.96,6.26-2.14,10.49-3.71.78-.29,1.3-1.04,1.3-1.87ZM641.2,724.64l-2.51.86c-13.29,4.54-13.81,5.06-18.43,18.58l-.79,2.29c-.14.41-.52.67-.94.67s-.8-.27-.94-.67l-.86-2.51c-4.55-13.3-5.06-13.81-18.35-18.35l-2.51-.86c-.4-.14-.67-.51-.67-.94s.27-.81.67-.95l2.51-.86c13.3-4.55,13.81-5.06,18.36-18.36l.86-2.51c.14-.4.52-.67.94-.67s.8.27.94.67l.86,2.51c4.55,13.3,5.06,13.81,18.36,18.36l2.51.86c.4.14.67.52.67.94s-.27.8-.67.94Z"/><path class="cls-1" d="M29.92,457.69c0-8.25-6.71-14.96-14.96-14.96s-14.96,6.71-14.96,14.96,6.71,14.96,14.96,14.96,14.96-6.71,14.96-14.96ZM3.99,457.69c0-6.05,4.92-10.97,10.97-10.97s10.97,4.92,10.97,10.97-4.92,10.97-10.97,10.97-10.97-4.92-10.97-10.97Z"/><path class="cls-1" d="M54.35,619.23c.95.53,1.37.45,1.96.15.11-.05.17-.1.25-.16.23-.16.3-.2.42-.34.02-.03.06-.11.12-.22.13-.22.2-.33.24-.47,0-.03.03-.23.04-.26.03-.16.06-.32.04-.45l-.05-.25c-.06-.24-.09-.38-.17-.53-22.69-41.81-35.95-87.12-39.38-134.65-.04-.53-.28-1.01-.69-1.37-.42-.36-.93-.51-1.4-.48-1.14.09-1.96,1.04-1.88,2.14,3.07,42.49,13.95,83.37,32.33,121.52.21.43.08.95-.3,1.23-.38.29-.91.26-1.27-.06l-19.73-18c-.48-.44-1.06-.48-1.47-.53-.5.02-.99.25-1.35.65-.36.4-.55.91-.52,1.44.03.53.26,1.02.65,1.38l31.9,29.11s.19.12.26.16Z"/><path class="cls-1" d="M13.85,433.01c-.04.53.13,1.03.47,1.42.37.43.92.68,1.59.73.97,0,1.85-.82,1.92-1.86,3.43-47.53,16.7-92.86,39.43-134.71,0-.04.04-.14.09-.34.05-.18.08-.28.09-.48-.01-.23-.03-.47-.12-.71-.09-.25-.23-.47-.42-.69-.12-.12-.28-.28-.62-.46-.3-.09-.51-.16-.79-.16-.28,0-.49.04-.78.14-.13.07-.3.14-.39.21-.37.3-3.83,3.45-30.73,28.01l-1.4,1.28c-.4.36-.63.85-.65,1.38-.02.53.16,1.04.52,1.43.33.37.84.59,1.38.62.55,0,1.07-.16,1.43-.49l19.74-18.01c.35-.32.89-.35,1.27-.06.38.28.51.8.3,1.23-18.39,38.15-29.27,79.03-32.34,121.51Z"/><path class="cls-1" d="M683.56,442.73c-8.25,0-14.96,6.71-14.96,14.96s6.71,14.96,14.96,14.96,14.96-6.71,14.96-14.96-6.71-14.96-14.96-14.96ZM683.56,468.66c-6.05,0-10.97-4.92-10.97-10.97s4.92-10.97,10.97-10.97,10.97,4.92,10.97,10.97-4.92,10.97-10.97,10.97Z"/><path class="cls-1" d="M643.85,295.94c-.37-.15-.56-.17-.8-.17-.33,0-.57.08-.76.16-.4.17-.54.32-.68.47-.19.2-.33.42-.42.69-.07.19-.1.4-.1.66,0,.23.04.37.11.61.03.11.08.25.11.32,22.69,41.79,35.95,87.1,39.38,134.64.08,1.05.96,1.84,2.05,1.84.55-.04,1.09-.3,1.46-.72.34-.39.5-.89.47-1.41-3.07-42.48-13.95-83.36-32.34-121.51-.21-.43-.08-.95.3-1.23s.92-.26,1.27.06l19.73,18.01c.37.33.87.49,1.44.49.54-.03,1.04-.25,1.37-.61.36-.4.55-.91.52-1.44-.03-.53-.26-1.02-.65-1.38-10.89-9.94-31.6-28.84-32.03-29.21-.12-.09-.27-.17-.45-.25Z"/><path class="cls-1" d="M684.66,482.34c.08-1.09-.75-2.05-1.84-2.14-.62,0-1.08.17-1.44.48-.41.35-.66.84-.7,1.37-3.43,47.54-16.69,92.85-39.4,134.67-.06.14-.1.32-.14.49l-.06.28c0,.13.02.28.05.46l.05.28c.03.1.1.21.23.42l.15.25c.09.12.18.18.27.23l.33.25c.68.32,1.17.32,1.81-.02l.46-.29,31.89-29.1c.4-.36.63-.85.65-1.38.02-.53-.16-1.04-.52-1.43-.36-.4-.85-.63-1.38-.65-.51-.05-1.04.15-1.44.52l-19.73,18.01c-.35.32-.88.35-1.27.06-.38-.28-.51-.8-.3-1.23,18.39-38.14,29.26-79.02,32.33-121.51Z"/><path class="cls-1" d="M644.89,228.08c-.01,1.1.87,2.01,1.97,2.02l7.62.1c.54,0,.98.44.98.99l.1,7.62c.01,1.08.91,1.97,2.01,1.97,1.1-.02,1.99-.92,1.98-2.02l-.1-7.46c0-.27.1-.53.29-.72.19-.19.44-.18.72-.29l7.5.1c1.08,0,1.97-.88,1.99-1.97.01-1.1-.87-2.01-1.97-2.02l-7.62-.1c-.54,0-.98-.44-.98-.99l-.1-7.62c-.01-1.08-.93-1.97-2.03-1.97-1.08.02-1.97.92-1.96,2.02l.1,7.47c0,.27-.1.53-.29.72-.19.19-.44.29-.71.29-.01,0-7.51-.1-7.51-.1-1.09,0-1.98.88-1.99,1.97Z"/><path class="cls-1" d="M545.8,105.1l7.62.1c.54,0,.98.44.98.99l.1,7.62c.01,1.08.91,1.97,2.01,1.97,1.1-.02,1.99-.92,1.98-2.02l-.1-7.47c0-.27.1-.53.29-.72.19-.19.43-.18.72-.29l7.5.1c1.08,0,1.97-.88,1.98-1.97.01-1.1-.87-2.01-1.97-2.02l-7.62-.1c-.54,0-.98-.44-.98-.99l-.1-7.62c0-.54-.27-1.08-.72-1.48-.44-.39-.93-.55-1.18-.49-1.21.02-2.1.93-2.08,2.03l.1,7.46c0,.27-.1.53-.29.72-.19.19-.42.17-.72.29l-7.4-.09c-.55-.06-1.03.12-1.43.47-.41.38-.65.92-.66,1.49-.01,1.1.87,2.01,1.97,2.02Z"/><path class="cls-1" d="M522.37,907.19l-7.62-.1c-.54,0-.98-.44-.98-.99l-.1-7.62c0-.55-.27-1.09-.72-1.49-.45-.4-.91-.51-1.21-.48-1.19.02-2.07.93-2.06,2.03l.1,7.46c0,.27-.1.53-.29.72s-.5.23-.72.29l-7.5-.1c-1.08,0-1.97.88-1.98,1.97-.01,1.1.87,2.01,1.97,2.02l7.62.1c.54,0,.98.44.98.99l.1,7.62c.01,1.08.91,1.97,2.01,1.97,1.1-.02,1.99-.92,1.98-2.02l-.1-7.47c0-.27.1-.53.29-.72.19-.19.49-.39.72-.29l7.5.1c1.08,0,1.97-.88,1.99-1.97.01-1.1-.87-2.01-1.97-2.02Z"/><path class="cls-1" d="M667.98,804.8l-7.62-.1c-.54,0-.98-.44-.98-.99l-.1-7.62c-.01-1.08-.93-1.97-2.03-1.97-1.08.02-1.97.92-1.96,2.02l.1,7.47c0,.27-.1.53-.29.72-.19.19-.41.2-.72.29l-7.59-.09c-1.08.13-1.89.92-1.9,1.96-.01,1.1.87,2.01,1.97,2.02l7.62.1c.54,0,.98.44.98.99l.1,7.62c.01,1.08.91,1.97,2.01,1.97,1.1-.02,1.99-.92,1.98-2.02l-.1-7.47c0-.27.1-.53.29-.72.19-.19.44-.42.72-.29l7.5.1c1.08,0,1.97-.88,1.99-1.97.01-1.1-.87-2.01-1.97-2.02Z"/><path class="cls-1" d="M30.56,230.37c.19,0,5.27-.07,7.49-.1.28,0,.53.11.72.29.19.19.3.45.29.72l-.1,7.46c-.01,1.1.89,2.01,2.01,2.02,1.07,0,1.97-.88,1.98-1.97l.1-7.62c0-.54.44-.98.98-.99l7.62-.1c1.1-.02,1.98-.92,1.97-2.02-.01-1.08-.93-1.97-2.03-1.97l-7.45.1c-.28,0-.53-.11-.72-.29-.19-.19-.3-.45-.29-.72l.1-7.47c.01-1.1-.89-2.01-2.01-2.02-1.07,0-1.97.88-1.98,1.97l-.1,7.62c0,.54-.44.98-.98.99l-7.62.1c-1.1.02-1.98.92-1.97,2.02.01,1.08.91,1.96,1.99,1.97Z"/><path class="cls-1" d="M131.61,105.37c.19,0,5.27-.07,7.5-.1.28,0,.53.11.72.29s.3.45.29.72l-.1,7.47c-.01,1.1.89,2.01,2.01,2.02,1.07,0,1.97-.88,1.98-1.97l.1-7.62c0-.54.44-.98.98-.99l7.62-.1c1.1-.02,1.98-.92,1.97-2.03,0-.53-.25-1.06-.67-1.45-.42-.39-.94-.51-1.25-.53l-7.56.11c-.28,0-.53-.11-.72-.29-.19-.19-.3-.45-.29-.72l.1-7.46c.01-1.1-.89-2.01-2.01-2.02-1.07,0-1.97.88-1.98,1.97l-.1,7.62c0,.54-.44.98-.98.99l-7.62.1c-1.1.02-1.98.92-1.97,2.02.01,1.08.91,1.96,1.99,1.97Z"/><path class="cls-1" d="M197.26,906.92c-.07,0-7.51.1-7.51.1-.28,0-.53-.11-.72-.29-.19-.19-.3-.45-.29-.72l.1-7.46c0-.54-.2-1.06-.58-1.45-.35-.36-.81-.56-1.28-.57-.6-.06-1.05.09-1.42.42-.43.37-.7.96-.71,1.54l-.1,7.62c0,.54-.44.98-.98.99l-7.62.1c-1.1.02-1.98.92-1.97,2.02.01,1.08.91,1.97,1.99,1.97.09,0,5.25-.07,7.49-.1.28,0,.53.11.72.29s.3.45.29.72l-.1,7.47c-.01,1.1.89,2.01,2.01,2.02,1.07,0,1.97-.88,1.98-1.97l.1-7.62c0-.54.44-.98.98-.99l7.62-.1c1.1-.02,1.98-.92,1.97-2.02,0-.52-.25-1.05-.68-1.44-.38-.35-.91-.56-1.29-.53Z"/><path class="cls-1" d="M51.52,804.54l-7.38.1c-.28,0-.53-.11-.72-.29-.19-.19-.3-.45-.29-.72l.1-7.47c.01-1.1-.89-2.01-2.01-2.02-1.07,0-1.97.88-1.98,1.97l-.1,7.62c0,.54-.44.98-.98.99l-7.62.1c-1.1.02-1.98.92-1.97,2.02.01,1.08.91,1.97,1.99,1.97.09,0,5.25-.07,7.49-.1.28,0,.53.11.72.29s.3.45.29.72l-.1,7.47c-.01,1.1.89,2.01,2.01,2.02,1.07,0,1.97-.88,1.98-1.97l.1-7.62c0-.54.44-.98.98-.99l7.62-.1c1.1-.02,1.98-.92,1.97-2.03-.02-1.12-1.09-1.79-2.1-1.96Z"/></g></svg>