<?xml version="1.0" encoding="UTF-8"?><svg id="Layer_2" xmlns="http://www.w3.org/2000/svg" viewBox="0 0 698.52 963.57"><defs><style>.cls-1{fill:#58365f;}</style></defs><g id="graphics"><path class="cls-1" d="M295.83,31.73c11.66,18.53,31.63,29.59,53.42,29.59s41.77-11.06,53.42-29.59l.68-1.07-.67-1.07c-11.66-18.53-31.63-29.59-53.42-29.59s-41.77,11.06-53.42,29.59l-.68,1.07.67,1.07h0ZM372.66,9.7c.29-.37.8-.5,1.22-.31,9.81,4.49,18.23,11.64,24.34,20.71.23.34.23.78,0,1.12-6.11,9.06-14.52,16.22-24.34,20.71-.13.06-.27.09-.42.09-.31,0-.6-.14-.8-.4-.28-.37-.27-.9.03-1.26,4.66-5.53,7.22-12.53,7.22-19.7s-2.56-14.18-7.22-19.7c-.3-.36-.31-.88-.03-1.26ZM349.26,4.02c14.69,0,26.65,11.95,26.65,26.65s-11.95,26.65-26.65,26.65-26.65-11.95-26.65-26.65,11.95-26.65,26.65-26.65ZM300.3,30.1c6.11-9.06,14.52-16.22,24.34-20.71.42-.19.93-.07,1.22.31.28.37.27.9-.03,1.26-4.66,5.53-7.22,12.53-7.22,19.7s2.56,14.18,7.22,19.7c.3.36.31.88.03,1.26-.2.26-.49.4-.8.4-.14,0-.28-.03-.42-.09-9.81-4.49-18.23-11.64-24.34-20.71-.23-.34-.23-.78,0-1.12Z"/><path class="cls-1" d="M349.26,48.58c9.88,0,17.92-8.04,17.92-17.92s-8.04-17.91-17.92-17.91-17.91,8.04-17.91,17.91,8.04,17.92,17.91,17.92ZM349.26,16.77c7.66,0,13.9,6.23,13.9,13.9s-6.24,13.9-13.9,13.9-13.9-6.24-13.9-13.9,6.23-13.9,13.9-13.9Z"/><path class="cls-1" d="M357.7,226.09c0,7.33,5.96,13.29,13.29,13.29s13.3-5.96,13.3-13.29c0-10.23-6.11-19.38-12.01-28.24-5.44-8.15-10.56-15.83-10.56-23.6,0-5.12,4.16-9.28,9.28-9.28,1.11,0,2.01-.9,2.01-2.01s-.9-2.01-2.01-2.01c-7.33,0-13.29,5.96-13.29,13.29,0,8.97,5.71,17.53,11.23,25.81,5.58,8.36,11.34,17,11.34,26.02,0,5.12-4.16,9.28-9.28,9.28s-9.28-4.16-9.28-9.28.36-7.87.75-10.99c.45-3.74.93-7.6.93-14.93s-5.97-13.29-13.3-13.29c-4.13,0-7.95,1.89-10.49,5.2-.38.5-1.22.5-1.59,0-2.54-3.3-6.36-5.2-10.49-5.2-2.78,0-5.45.86-7.71,2.48-.29.2-.66.25-.99.1-.33-.14-.55-.45-.59-.8-.12-1.02-.98-1.78-2-1.78-1.11,0-2.01.9-2.01,2.01v48.49c0,1.11.9,2.01,2.01,2.01s2.01-.9,2.01-2.01v-37.2c0-5.12,4.16-9.28,9.28-9.28s9.28,4.16,9.28,9.28v37.2c0,1.11.9,2.01,2.01,2.01s2.01-.9,2.01-2.01v-37.2c0-5.12,4.16-9.28,9.28-9.28s9.28,4.16,9.28,9.28c0,7.13-.46,10.87-.9,14.48-.4,3.25-.77,6.32-.77,11.44Z"/><path class="cls-1" d="M204.7,364.87c-.22-.13.34.47,0,0h0Z"/><path class="cls-1" d="M277.32,200.79l-11.23,11.22c-.38.38-.59.88-.59,1.42s.21,1.04.59,1.42l11.23,11.23c.76.76,2.08.76,2.84,0l11.23-11.23c.38-.38.59-.88.59-1.42s-.21-1.04-.59-1.42l-11.23-11.22c-.78-.78-2.06-.78-2.84,0ZM286.71,213.43c0,.27-.11.52-.29.71l-6.97,6.97c-.2.2-.45.29-.71.29s-.51-.1-.71-.29l-6.97-6.97c-.19-.19-.29-.44-.29-.71s.11-.52.29-.71l6.97-6.96c.39-.39,1.03-.39,1.42,0l6.97,6.96c.19.19.29.44.29.71Z"/><path class="cls-1" d="M421.2,226.07l11.23-11.23c.38-.38.59-.88.59-1.42s-.21-1.04-.59-1.42l-11.23-11.22c-.38-.38-.9-.57-1.42-.57s-1.04.19-1.42.57l-11.22,11.22c-.78.78-.78,2.06,0,2.84l11.22,11.23c.76.76,2.08.76,2.84,0ZM412.1,212.72l6.96-6.96c.38-.38,1.04-.38,1.42,0l6.97,6.96c.19.19.29.44.29.71s-.11.52-.29.71l-6.97,6.97c-.19.19-.44.29-.71.29s-.52-.11-.71-.29l-6.96-6.97c-.39-.39-.39-1.03,0-1.42Z"/><path class="cls-1" d="M431.88,887.43c-.75-.75-2.09-.75-2.84,0l-28.45,28.45c-.39.39-1.03.39-1.42,0l-48.5-48.5c-.76-.76-2.08-.76-2.84,0l-48.5,48.5c-.38.38-1.04.38-1.42,0l-28.44-28.45c-.38-.38-.9-.57-1.42-.57s-1.04.19-1.42.57l-52.67,52.67c-.58.58-.75,1.44-.44,2.19.31.75,1.04,1.24,1.86,1.24h53.88c.41,0,.77.24.93.62.15.38.07.81-.22,1.09l-14.91,14.9c-.58.58-.75,1.44-.44,2.19.31.75,1.04,1.24,1.86,1.24h185.54c.82,0,1.55-.49,1.86-1.24.31-.75.14-1.61-.44-2.19l-14.9-14.9c-.29-.29-.37-.72-.22-1.09.16-.38.52-.62.93-.62h53.88c.82,0,1.55-.49,1.86-1.24.31-.75.14-1.61-.44-2.19l-52.67-52.67ZM222.65,939.51c-.41,0-.77-.24-.93-.62-.15-.38-.07-.81.22-1.09l45.4-45.4c.38-.38,1.04-.38,1.42,0l26.31,26.32c.39.39.39,1.03,0,1.42l-19.08,19.09c-.19.19-.44.29-.71.29h-52.64ZM312.6,959.56h-48.84c-.41,0-.77-.24-.93-.62-.15-.38-.07-.81.22-1.09l77.85-77.85c.33-.33.86-.4,1.25-.13.4.25.56.75.4,1.19l-29.01,77.85c-.15.4-.52.66-.94.66ZM435.46,957.84c.29.29.37.72.22,1.09-.16.38-.52.62-.93.62h-115.73c-.33,0-.64-.16-.82-.43-.19-.27-.23-.62-.12-.92l31.42-84.31c.12-.32.39-.56.73-.63.33-.08.67.03.92.27l84.31,84.31ZM476.79,938.89c-.16.38-.52.62-.93.62h-52.64c-.27,0-.52-.11-.71-.29l-19.09-19.09c-.39-.39-.39-1.03,0-1.42l26.32-26.32c.39-.39,1.03-.39,1.42,0l45.4,45.4c.29.29.37.72.22,1.09Z"/><path class="cls-1" d="M107.96,934.37h-42.91c-1.11,0-2.01.9-2.01,2.01s.9,2.01,2.01,2.01h42.91c1.11,0,2.01-.9,2.01-2.01s-.9-2.01-2.01-2.01Z"/><path class="cls-1" d="M123.93,934.37h-3.91c-1.11,0-2.01.9-2.01,2.01s.9,2.01,2.01,2.01h3.91c1.11,0,2.01-.9,2.01-2.01s-.9-2.01-2.01-2.01Z"/><path class="cls-1" d="M64.31,928.66l5.99-1.6c1.06-.29,1.7-1.4,1.42-2.47-.25-.89-1.06-1.47-1.96-1.47-.17,0-.35.02-.52.06l-5.99,1.6c-1.06.29-1.7,1.4-1.42,2.47.29,1.03,1.25,1.71,2.47,1.41Z"/><path class="cls-1" d="M79.16,922.61c.29,1.03,1.23,1.72,2.48,1.41l42.81-11.47c1.06-.29,1.7-1.4,1.42-2.47-.29-1.06-1.38-1.68-2.48-1.41l-42.81,11.47c-1.07.29-1.7,1.4-1.42,2.47Z"/><path class="cls-1" d="M106.91,892.31c.14-.52.07-1.06-.2-1.52-.27-.47-.7-.81-1.23-.95-.16-.04-.34-.06-.51-.06-.35,0-.7.09-1,.27l-44.92,25.94c-.47.27-.8.7-.94,1.22-.14.52-.07,1.06.2,1.52.54.93,1.82,1.27,2.75.74l44.92-25.93c.47-.27.8-.7.94-1.22Z"/><path class="cls-1" d="M119.19,885.9l3.67-2.12c.96-.55,1.29-1.78.73-2.74-.55-.96-1.78-1.29-2.74-.74l-3.68,2.12c-.96.55-1.29,1.78-.74,2.74.53.92,1.81,1.27,2.75.73Z"/><path class="cls-1" d="M89.34,874.78c-.38-.38-.88-.59-1.42-.59s-1.04.21-1.42.59l-33.81,33.8c-.78.78-.78,2.06,0,2.84.76.76,2.08.76,2.84,0l33.81-33.8c.78-.78.78-2.06,0-2.84Z"/><path class="cls-1" d="M112.33,848.95l-15.63,15.63c-.78.78-.78,2.06,0,2.84s2.08.76,2.84,0l15.63-15.63c.78-.78.78-2.06,0-2.84s-2.08-.76-2.84,0Z"/><path class="cls-1" d="M89.41,832.4c-.14-.51-.47-.95-.93-1.21-.31-.18-.65-.27-1-.27-.18,0-.35.02-.53.07-.52.14-.95.47-1.22.93l-41.07,71.15c-.27.46-.35,1-.21,1.53.14.51.47.95.93,1.21.94.54,2.22.19,2.75-.73l41.07-71.15c.27-.46.34-1,.21-1.53Z"/><path class="cls-1" d="M99.12,812.74c-.31-.18-.66-.27-1-.27-.17,0-.35.02-.51.07-.53.14-.96.47-1.23.94l-3.63,6.29c-.27.46-.34,1-.21,1.53.14.51.47.95.93,1.21.93.55,2.22.19,2.75-.73l3.63-6.29c.27-.46.35-1,.21-1.53-.14-.51-.47-.95-.94-1.22Z"/><path class="cls-1" d="M53.61,839.79c-.16-.04-.33-.05-.49-.05-.91,0-1.71.58-1.96,1.48l-15.7,58.6c-.29,1.07.36,2.18,1.44,2.47,1.01.24,2.16-.39,2.44-1.43l15.7-58.6c.28-1.06-.36-2.17-1.43-2.47Z"/><path class="cls-1" d="M67.84,778.97l-13.04,48.65c-.29,1.07.36,2.18,1.44,2.47,1.01.23,2.16-.39,2.44-1.43l13.04-48.65c.29-1.07-.36-2.18-1.44-2.47-1.09-.25-2.15.38-2.44,1.43Z"/><path class="cls-1" d="M27.74,782.38c-1.11,0-2.01.9-2.01,2.01v114.68c0,1.11.9,2.01,2.01,2.01s2.01-.9,2.01-2.01v-114.68c0-1.11-.9-2.01-2.01-2.01Z"/><path class="cls-1" d="M27.74,761.12c-1.11,0-2.01.9-2.01,2.01v7.14c0,1.11.9,2.01,2.01,2.01s2.01-.9,2.01-2.01v-7.14c0-1.11-.9-2.01-2.01-2.01Z"/><path class="cls-1" d="M633.47,934.37h-42.91c-1.11,0-2.01.9-2.01,2.01s.9,2.01,2.01,2.01h42.91c1.11,0,2.01-.9,2.01-2.01s-.9-2.01-2.01-2.01Z"/><path class="cls-1" d="M578.5,934.37h-3.91c-1.11,0-2.01.9-2.01,2.01s.9,2.01,2.01,2.01h3.91c1.11,0,2.01-.9,2.01-2.01s-.9-2.01-2.01-2.01Z"/><path class="cls-1" d="M635.25,924.78l-6.02-1.62c-.16-.04-.33-.06-.49-.06-.9,0-1.71.58-1.95,1.49-.29,1.07.35,2.17,1.42,2.46l6.02,1.62c1.03.23,2.16-.39,2.44-1.43.29-1.07-.35-2.17-1.42-2.46Z"/><path class="cls-1" d="M572.64,910.09c-.28,1.07.35,2.17,1.42,2.46l42.85,11.48c1.03.23,2.16-.39,2.44-1.43.29-1.07-.35-2.17-1.42-2.46l-42.85-11.48c-1.08-.25-2.15.38-2.44,1.43Z"/><path class="cls-1" d="M639.47,915.99l-44.92-25.93c-.31-.18-.65-.27-1-.27-.18,0-.35.02-.53.07-.51.14-.94.47-1.2.93-.27.47-.35,1.01-.21,1.53.14.51.47.95.94,1.22l44.92,25.93c.93.54,2.21.19,2.74-.73.27-.47.34-1.01.21-1.53-.14-.51-.47-.95-.94-1.22Z"/><path class="cls-1" d="M575.66,883.79l3.67,2.11c.93.55,2.21.19,2.74-.73.27-.47.35-1.01.21-1.53-.14-.51-.47-.95-.94-1.22l-3.67-2.11c-.46-.27-1-.35-1.53-.21-.51.14-.94.47-1.2.93-.28.47-.35,1.01-.21,1.53.14.51.47.95.94,1.22Z"/><path class="cls-1" d="M612.01,874.78c-.38-.38-.88-.59-1.42-.59s-1.04.21-1.42.59c-.78.78-.78,2.06,0,2.84l33.8,33.8c.76.76,2.08.76,2.84,0,.78-.78.78-2.06,0-2.84l-33.8-33.8Z"/><path class="cls-1" d="M584.76,848.36c-.54,0-1.04.21-1.42.59-.78.78-.78,2.06,0,2.84l15.63,15.63c.76.76,2.08.76,2.84,0s.78-2.06,0-2.84l-15.63-15.63c-.38-.38-.88-.59-1.42-.59Z"/><path class="cls-1" d="M612.78,831.92c-.27-.46-.7-.8-1.22-.94-.17-.05-.35-.07-.53-.07-.35,0-.68.09-.99.27-.47.27-.8.71-.94,1.22-.14.52-.07,1.06.2,1.52l41.08,71.15c.53.93,1.81,1.27,2.74.74.47-.27.8-.7.94-1.22.14-.52.07-1.06-.2-1.52l-41.08-71.15Z"/><path class="cls-1" d="M605.03,822.51c.47-.27.8-.7.94-1.22.14-.52.07-1.06-.2-1.52l-3.64-6.29c-.27-.47-.7-.8-1.22-.94-.17-.05-.35-.07-.52-.07-.34,0-.69.09-1.01.27-.46.27-.8.7-.93,1.22-.14.52-.07,1.06.2,1.52l3.64,6.29c.53.93,1.81,1.27,2.74.74Z"/><path class="cls-1" d="M647.37,841.21c-.26-.89-1.09-1.48-1.99-1.48-.16,0-.34.02-.5.06-1.06.28-1.69,1.39-1.41,2.46l15.7,58.61c.29,1.04,1.32,1.7,2.47,1.42,1.06-.28,1.69-1.39,1.41-2.46-13.35-49.82-15.37-57.38-15.68-58.61Z"/><path class="cls-1" d="M626.79,780.01l13.04,48.66c.29,1.03,1.19,1.74,2.49,1.41,1.04-.28,1.68-1.38,1.4-2.46l-13.04-48.66c-.29-1.06-1.37-1.67-2.49-1.41-1.04.28-1.68,1.38-1.4,2.46Z"/><path class="cls-1" d="M670.77,782.38c-1.11,0-2.01.9-2.01,2.01v114.68c0,1.11.9,2.01,2.01,2.01s2.01-.9,2.01-2.01v-114.68c0-1.11-.9-2.01-2.01-2.01Z"/><path class="cls-1" d="M670.77,761.12c-1.11,0-2.01.9-2.01,2.01v7.14c0,1.11.9,2.01,2.01,2.01s2.01-.9,2.01-2.01v-7.14c0-1.11-.9-2.01-2.01-2.01Z"/><path class="cls-1" d="M590.55,28.83h42.91c1.11,0,2.01-.9,2.01-2.01s-.9-2.01-2.01-2.01h-42.91c-1.11,0-2.01.9-2.01,2.01s.9,2.01,2.01,2.01Z"/><path class="cls-1" d="M574.58,28.83h3.91c1.11,0,2.01-.9,2.01-2.01s-.9-2.01-2.01-2.01h-3.91c-1.11,0-2.01.9-2.01,2.01s.9,2.01,2.01,2.01Z"/><path class="cls-1" d="M634.2,34.54l-5.99,1.61c-.52.14-.95.47-1.22.94-.27.47-.34,1.01-.2,1.53.29,1.04,1.36,1.7,2.47,1.42l5.99-1.61c.52-.14.95-.47,1.22-.94.27-.47.34-1.01.2-1.53-.29-1.1-1.35-1.71-2.47-1.42Z"/><path class="cls-1" d="M619.15,42.13c.27-.47.34-1.01.2-1.53-.24-.89-1.06-1.49-1.94-1.49-.17,0-.35.02-.52.07l-42.83,11.48c-.52.14-.95.47-1.22.93-.27.47-.34,1.01-.2,1.53.29,1.04,1.35,1.69,2.47,1.42l42.83-11.48c.52-.14.95-.47,1.22-.94Z"/><path class="cls-1" d="M591.6,70.89c-.14.52-.06,1.06.2,1.52.53.92,1.81,1.26,2.74.74l44.92-25.93c.47-.27.8-.7.94-1.22.14-.52.07-1.06-.2-1.52-.27-.47-.7-.8-1.22-.94-.18-.05-.35-.07-.53-.07-.35,0-.69.09-1,.27l-44.92,25.94c-.47.27-.8.7-.94,1.22Z"/><path class="cls-1" d="M580.86,77.1c-.18-.05-.36-.07-.53-.07-.34,0-.68.09-.99.27l-3.68,2.12c-.47.27-.8.7-.94,1.22-.14.52-.07,1.06.2,1.52.53.93,1.82,1.27,2.75.74l3.67-2.12c.47-.27.8-.7.94-1.22.14-.52.07-1.06-.2-1.52-.27-.47-.7-.8-1.22-.94Z"/><path class="cls-1" d="M609.17,88.42c.76.76,2.08.76,2.84,0l33.8-33.8c.78-.78.78-2.06,0-2.84-.78-.78-2.06-.78-2.84,0l-33.8,33.8c-.78.78-.78,2.06,0,2.84Z"/><path class="cls-1" d="M586.18,114.25l15.63-15.63c.78-.78.78-2.06,0-2.84-.39-.39-.91-.58-1.42-.58s-1.03.19-1.42.59l-15.63,15.63c-.78.78-.78,2.06,0,2.84.76.76,2.08.76,2.84,0Z"/><path class="cls-1" d="M609.1,130.8c.14.52.47.95.94,1.22.92.53,2.2.18,2.74-.73l41.07-71.15c.27-.47.35-1.01.21-1.53-.14-.52-.47-.95-.94-1.22-.96-.55-2.19-.22-2.74.74l-41.07,71.15c-.27.47-.34,1.01-.21,1.53Z"/><path class="cls-1" d="M599.39,150.46c.91.53,2.2.19,2.74-.73l3.63-6.29c.27-.47.35-1.01.21-1.53-.14-.52-.47-.95-.94-1.22-.31-.18-.65-.26-.99-.26-.69,0-1.38.36-1.75,1l-3.62,6.29c-.27.47-.35,1.01-.21,1.53.14.52.47.95.94,1.22Z"/><path class="cls-1" d="M643.67,122.47c.27.47.71.8,1.22.94,1.06.28,2.18-.38,2.46-1.42l15.7-58.6c.14-.52.07-1.06-.2-1.52-.27-.47-.7-.8-1.22-.94-.18-.05-.35-.07-.53-.07-.35,0-.68.09-.99.27-.47.27-.81.71-.95,1.23l-15.7,58.6c-.14.52-.07,1.06.2,1.52Z"/><path class="cls-1" d="M642.29,133.12c-.17-.04-.34-.07-.51-.07-.89,0-1.71.6-1.95,1.49l-13.04,48.65c-.14.52-.07,1.06.2,1.52.27.46.7.8,1.22.94,1.09.29,2.18-.38,2.46-1.42l13.04-48.66c.14-.52.07-1.06-.2-1.52-.27-.47-.71-.8-1.22-.94Z"/><path class="cls-1" d="M670.77,180.82c1.11,0,2.01-.9,2.01-2.01v-114.68c0-1.11-.9-2.01-2.01-2.01s-2.01.9-2.01,2.01v114.68c0,1.11.9,2.01,2.01,2.01Z"/><path class="cls-1" d="M670.77,202.09c1.11,0,2.01-.9,2.01-2.01v-7.14c0-1.11-.9-2.01-2.01-2.01s-2.01.9-2.01,2.01v7.14c0,1.11.9,2.01,2.01,2.01Z"/><path class="cls-1" d="M65.04,28.83h42.91c1.11,0,2.01-.9,2.01-2.01s-.9-2.01-2.01-2.01h-42.91c-1.11,0-2.01.9-2.01,2.01s.9,2.01,2.01,2.01Z"/><path class="cls-1" d="M120.01,28.83h3.91c1.11,0,2.01-.9,2.01-2.01s-.9-2.01-2.01-2.01h-3.91c-1.11,0-2.01.9-2.01,2.01s.9,2.01,2.01,2.01Z"/><path class="cls-1" d="M63.26,38.42l6,1.61c1.08.29,2.18-.38,2.46-1.42.14-.51.07-1.05-.2-1.52-.27-.46-.7-.8-1.22-.94l-6-1.61c-.18-.05-.36-.07-.53-.07-.89,0-1.67.58-1.93,1.5-.14.51-.07,1.05.2,1.52.27.46.7.8,1.22.94Z"/><path class="cls-1" d="M125.87,53.11c.14-.51.07-1.06-.2-1.52-.27-.46-.7-.8-1.22-.94l-42.83-11.48c-.17-.04-.35-.07-.51-.07-.89,0-1.71.59-1.95,1.49-.14.52-.07,1.06.2,1.52.27.46.7.8,1.22.94l42.83,11.48c1.08.29,2.18-.38,2.46-1.42Z"/><path class="cls-1" d="M59.05,47.22s44.92,25.94,44.92,25.94c.91.53,2.21.19,2.73-.73.27-.47.35-1.01.21-1.53-.14-.52-.47-.95-.94-1.22l-44.92-25.94c-.31-.18-.65-.27-.99-.27-.18,0-.35.02-.53.07-.53.14-.95.47-1.21.93-.27.47-.35,1.02-.21,1.53.14.52.47.95.94,1.22Z"/><path class="cls-1" d="M119.19,77.31c-.33-.19-.68-.28-1.02-.28-.69,0-1.37.36-1.74,1-.55.96-.22,2.19.74,2.74l3.68,2.12c.92.54,2.21.19,2.75-.74.55-.96.22-2.18-.74-2.74,0,0-3.46-2-3.66-2.11Z"/><path class="cls-1" d="M86.5,88.42c.76.76,2.08.76,2.84,0,.78-.78.78-2.06,0-2.84l-33.81-33.8c-.39-.39-.91-.58-1.42-.58s-1.03.19-1.42.59c-.78.78-.78,2.06,0,2.84l33.81,33.8Z"/><path class="cls-1" d="M115.17,114.25c.78-.78.78-2.06,0-2.84l-15.63-15.63c-.39-.39-.91-.58-1.42-.58s-1.03.19-1.42.59c-.78.78-.78,2.06,0,2.84l15.63,15.63c.76.76,2.08.76,2.84,0Z"/><path class="cls-1" d="M85.73,131.29c.53.92,1.81,1.26,2.74.74.47-.27.8-.7.94-1.22.14-.52.07-1.06-.2-1.52L48.13,58.13c-.27-.46-.7-.8-1.21-.94-.18-.05-.35-.07-.53-.07-.35,0-.69.09-1,.27-.47.27-.8.7-.94,1.22-.14.52-.07,1.06.2,1.52l41.08,71.15Z"/><path class="cls-1" d="M95.01,140.49c-.17-.05-.35-.07-.53-.07-.35,0-.69.09-1,.27-.47.27-.8.7-.94,1.22-.14.52-.07,1.06.2,1.52l3.63,6.29c.53.93,1.81,1.26,2.74.74.47-.27.8-.7.94-1.22.14-.52.07-1.06-.2-1.52l-3.63-6.29c-.27-.46-.7-.8-1.22-.94Z"/><path class="cls-1" d="M51.14,121.99c.3,1.04,1.38,1.69,2.49,1.42.51-.14.95-.47,1.21-.94.27-.46.34-1.01.2-1.52l-15.7-58.61c-.29-1.06-1.41-1.69-2.47-1.42-.51.14-.95.47-1.21.93-.27.47-.34,1.01-.2,1.53,13.35,49.81,15.37,57.38,15.68,58.61Z"/><path class="cls-1" d="M56.21,133.12c-.51.14-.94.47-1.21.93-.27.47-.34,1.01-.2,1.52l13.04,48.66c.29,1.04,1.36,1.69,2.47,1.42.51-.14.95-.47,1.21-.94.27-.46.34-1.01.2-1.52l-13.04-48.66c-.29-1.07-1.37-1.7-2.47-1.41Z"/><path class="cls-1" d="M27.74,180.82c1.11,0,2.01-.9,2.01-2.01v-114.68c0-1.11-.9-2.01-2.01-2.01s-2.01.9-2.01,2.01v114.68c0,1.11.9,2.01,2.01,2.01Z"/><path class="cls-1" d="M27.74,202.09c1.11,0,2.01-.9,2.01-2.01v-7.14c0-1.11-.9-2.01-2.01-2.01s-2.01.9-2.01,2.01v7.14c0,1.11.9,2.01,2.01,2.01Z"/><path class="cls-1" d="M173.66,82.11c9.38,0,17.41,14.46,17.41,26.3,0,1.11.9,2.01,2.01,2.01s2.01-.9,2.01-2.01c0-11.84,8.04-26.3,17.41-26.3,1.11,0,2.01-.9,2.01-2.01s-.9-2.01-2.01-2.01c-9.38,0-17.41-14.46-17.41-26.3,0-1.11-.9-2.01-2.01-2.01s-2.01.9-2.01,2.01c0,11.84-8.04,26.3-17.41,26.3-1.11,0-2.01.9-2.01,2.01s.9,2.01,2.01,2.01ZM182.21,79.27c4.05-2.78,7.58-7.48,9.95-13.23.31-.75,1.55-.75,1.86,0,2.37,5.75,5.9,10.45,9.95,13.23.27.19.44.5.44.83s-.16.64-.44.83c-4.05,2.78-7.58,7.48-9.95,13.23-.16.38-.52.62-.93.62s-.77-.25-.93-.62c-2.37-5.75-5.9-10.45-9.95-13.23-.27-.19-.44-.5-.44-.83s.16-.64.44-.83Z"/><path class="cls-1" d="M486,82.11c9.38,0,17.41,14.46,17.41,26.3,0,1.11.9,2.01,2.01,2.01s2.01-.9,2.01-2.01c0-11.84,8.04-26.3,17.41-26.3,1.11,0,2.01-.9,2.01-2.01s-.9-2.01-2.01-2.01c-9.38,0-17.41-14.46-17.41-26.3,0-1.11-.9-2.01-2.01-2.01s-2.01.9-2.01,2.01c0,11.84-8.04,26.3-17.41,26.3-1.11,0-2.01.9-2.01,2.01s.9,2.01,2.01,2.01ZM494.54,79.27c4.05-2.78,7.58-7.48,9.95-13.23.31-.75,1.55-.75,1.86,0,2.37,5.75,5.9,10.45,9.95,13.23.27.19.44.5.44.83s-.16.64-.44.83c-4.05,2.78-7.58,7.48-9.95,13.23-.16.38-.52.62-.93.62s-.77-.25-.93-.62c-2.37-5.75-5.9-10.45-9.95-13.23-.27-.19-.44-.5-.44-.83s.16-.64.44-.83Z"/><path class="cls-1" d="M431.51,32.67h3.37c1.11,0,2.01-.9,2.01-2.01s-.9-2.01-2.01-2.01h-3.37c-1.11,0-2.01.9-2.01,2.01s.9,2.01,2.01,2.01Z"/><path class="cls-1" d="M419.14,32.67h3.09c1.11,0,2.01-.9,2.01-2.01s-.9-2.01-2.01-2.01h-3.09c-1.11,0-2.01.9-2.01,2.01s.9,2.01,2.01,2.01Z"/><path class="cls-1" d="M426.33,60.85l2.7.98c1.03.36,2.2-.19,2.57-1.2.19-.51.16-1.05-.06-1.54-.23-.49-.63-.86-1.13-1.04l-2.71-.98c-.22-.08-.45-.12-.67-.12-.82,0-1.6.51-1.89,1.32-.19.51-.16,1.05.06,1.54.23.49.63.86,1.13,1.04Z"/><path class="cls-1" d="M402.88,51.69c.23.49.63.85,1.13,1.04l13.06,4.75c1.01.37,2.2-.19,2.57-1.2.19-.51.16-1.05-.06-1.54-.23-.49-.63-.86-1.13-1.04l-13.06-4.76c-.22-.08-.45-.12-.67-.12-.82,0-1.6.51-1.89,1.32-.19.51-.16,1.05.06,1.54Z"/><path class="cls-1" d="M412.6,81.81c-.58,0-1.15.25-1.55.72-.35.41-.51.93-.46,1.46.05.54.3,1.02.71,1.36l2.26,1.89c.81.68,2.13.57,2.83-.25.35-.41.51-.93.46-1.46-.05-.54-.3-1.02-.71-1.36l-2.26-1.89c-.37-.31-.83-.46-1.28-.46Z"/><path class="cls-1" d="M405.66,78c.35-.42.51-.94.47-1.47-.05-.54-.3-1.02-.71-1.36l-15.45-12.96c-.37-.31-.83-.46-1.29-.46-.57,0-1.15.24-1.54.71-.35.41-.51.93-.46,1.46.05.53.3,1.02.71,1.36l15.45,12.96c.82.69,2.15.57,2.82-.24Z"/><path class="cls-1" d="M391.08,100.28c-.53-.14-1.06-.06-1.5.2-.47.27-.8.71-.95,1.22-.14.52-.07,1.06.2,1.52l1.49,2.59c.54.93,1.86,1.26,2.74.74.47-.27.8-.71.95-1.22.14-.52.07-1.06-.2-1.52l-1.5-2.59c-.27-.47-.7-.8-1.23-.94Z"/><path class="cls-1" d="M386.83,95.74c.47-.27.8-.7.94-1.22.14-.52.07-1.06-.2-1.52l-13.23-22.92c-.27-.47-.7-.8-1.21-.94-.18-.05-.36-.07-.53-.07-.34,0-.69.09-.99.27-.47.27-.8.7-.94,1.22-.14.52-.07,1.06.2,1.52l13.23,22.92c.53.93,1.81,1.27,2.74.74Z"/><path class="cls-1" d="M361.42,111.21l.73,4.12c.18,1.08,1.19,1.83,2.33,1.64.53-.09.99-.39,1.29-.83.31-.44.43-.97.33-1.5l-.73-4.12c-.18-1.06-1.24-1.82-2.34-1.63-1.07.19-1.8,1.23-1.62,2.32Z"/><path class="cls-1" d="M358.09,72.65c-.33-.23-.73-.35-1.13-.35-.12,0-.24,0-.35.03-1.09.2-1.82,1.24-1.63,2.33l4.56,25.83c.19,1.07,1.28,1.83,2.31,1.63,1.1-.19,1.83-1.24,1.64-2.33l-4.56-25.83c-.09-.54-.39-1-.84-1.31Z"/><path class="cls-1" d="M263.63,32.67h2.51c1.11,0,2.01-.9,2.01-2.01s-.9-2.01-2.01-2.01h-2.51c-1.11,0-2.01.9-2.01,2.01s.9,2.01,2.01,2.01Z"/><path class="cls-1" d="M274.47,32.67h4.91c1.11,0,2.01-.9,2.01-2.01s-.9-2.01-2.01-2.01h-4.91c-1.11,0-2.01.9-2.01,2.01s.9,2.01,2.01,2.01Z"/><path class="cls-1" d="M266.98,59.1c-.23.48-.25,1.03-.07,1.53.36,1.01,1.55,1.58,2.57,1.2l2.71-.98c.5-.18.91-.55,1.13-1.04.23-.48.25-1.03.07-1.53-.18-.5-.55-.91-1.04-1.14-.49-.23-1.03-.25-1.52-.07l-2.71.98c-.5.18-.91.55-1.13,1.04Z"/><path class="cls-1" d="M278.93,54.75c-.23.48-.25,1.03-.07,1.53.37,1.01,1.54,1.58,2.58,1.2l13.05-4.75c.51-.18.91-.55,1.14-1.04.23-.48.25-1.03.07-1.53-.3-.82-1.06-1.32-1.88-1.32-.23,0-.47.04-.7.12l-13.05,4.75c-.51.18-.91.55-1.14,1.04Z"/><path class="cls-1" d="M284.63,82.27l-2.26,1.89c-.41.34-.66.83-.71,1.36-.05.53.12,1.05.46,1.46.69.82,2.02.94,2.82.25l2.26-1.89c.41-.34.66-.83.71-1.36.05-.53-.12-1.05-.46-1.46-.35-.42-.83-.67-1.36-.72-.65,0-1.1.16-1.47.46Z"/><path class="cls-1" d="M311.82,63.93c.05-.53-.12-1.06-.46-1.47-.34-.41-.83-.66-1.36-.71-.65,0-1.11.16-1.47.46l-16,13.43c-.42.35-.67.83-.71,1.36-.05.54.12,1.06.46,1.46.69.82,2.01.94,2.84.25l16-13.43c.42-.35.67-.83.71-1.36Z"/><path class="cls-1" d="M306.19,101.22l-1.49,2.59c-.55.96-.22,2.19.74,2.74.92.53,2.21.19,2.75-.74l1.49-2.59c.55-.96.22-2.19-.74-2.74-.96-.56-2.2-.22-2.75.74Z"/><path class="cls-1" d="M312.36,94.58c.91.53,2.2.19,2.74-.73l12.56-21.77c.27-.47.35-1.01.21-1.53-.14-.52-.47-.95-.94-1.22-.31-.18-.65-.27-1-.27-.17,0-.35.02-.52.07-.52.14-.95.47-1.22.94l-12.56,21.77c-.27.47-.35,1.01-.21,1.53.14.52.47.95.94,1.22Z"/><path class="cls-1" d="M333.3,109.58l-.89,5.06c-.09.53.02,1.06.33,1.5.31.44.76.74,1.29.83,1.08.21,2.14-.55,2.33-1.63l.89-5.06c.09-.53-.02-1.06-.33-1.5-.31-.44-.77-.74-1.3-.83-.51-.09-1.04.02-1.48.34-.45.31-.75.77-.84,1.29Z"/><path class="cls-1" d="M338.78,101.62l4.75-26.97c.19-1.09-.53-2.13-1.62-2.32-.13-.02-.26-.04-.38-.04-.4,0-.78.12-1.12.36-.44.31-.74.77-.84,1.3l-4.75,26.97c-.19,1.09.54,2.13,1.62,2.33,1.1.2,2.14-.55,2.33-1.63Z"/><path class="cls-1" d="M151.55,716.08c-.82-.56-1.7-1.37-2.55-2.06-63.88-52.23-105.37-128.85-113.98-210.75-.05-.55.34-1.04.89-1.1,16.13-1.8,28.77-15.89,28.77-32.09s-12.64-30.3-28.78-32.09c-.55-.06-.95-.55-.89-1.1,7.82-74.55,42.07-143.8,96.57-195.43.92-.87,2.23-2.07,2.77-2.59,2.49-2.4-.06-5.42-2.73-2.95-.69.64-1.93,1.79-2.88,2.7-55.28,52.41-89.96,122.69-97.78,198.35-.05.48-.44.86-.93.9-16.84,1.19-30.04,15.34-30.04,32.22s13.2,30.88,30.04,32.19c.48.04.87.41.92.9,8.6,83.14,50.62,160.93,115.46,213.96.87.71,1.72,1.44,2.61,2.11,2.32,1.76,5.13-1.34,2.51-3.14ZM4.02,470.07c0-15.62,12.7-28.32,28.3-28.32l.36.02c15.43.17,27.99,12.87,27.99,28.31s-12.7,28.14-28.31,28.33c-15.63,0-28.34-12.71-28.34-28.33Z"/><path class="cls-1" d="M668.47,437.89c-.48-.04-.87-.42-.92-.9-7.83-75.91-42.69-146.39-98.27-198.85-.79-.75-1.58-1.51-2.4-2.24-1.91-1.72-4.78,1.06-2.73,2.95.86.8,1.52,1.42,2.28,2.13,54.79,51.68,89.21,121.12,97.06,195.9.06.55-.34,1.04-.89,1.1-16.13,1.8-28.77,15.89-28.77,32.09s12.64,30.29,28.77,32.09c.55.06.95.56.89,1.1-8.6,81.8-49.99,158.34-113.73,210.56-.93.76-1.81,1.56-2.79,2.26-2.2,1.57-.08,5.09,2.51,3.14.97-.73,1.89-1.52,2.82-2.28,64.71-53.01,106.65-130.7,115.24-213.75.05-.48.44-.86.93-.9,16.85-1.18,30.04-15.33,30.04-32.22s-13.2-30.84-30.04-32.18ZM665.86,498.38c-15.45-.18-28.01-12.88-28.01-28.31s12.57-28.14,28.02-28.31c15.9,0,28.64,12.7,28.64,28.31s-12.85,28.3-28.64,28.31Z"/><path class="cls-1" d="M19.63,269.69c6.11,0,11.35,9.61,11.35,17.48,0,1.11.9,2.01,2.01,2.01s2.01-.9,2.01-2.01c0-7.87,5.24-17.48,11.36-17.48,1.11,0,2.01-.9,2.01-2.01s-.9-2.01-2.01-2.01c-6.12,0-11.36-9.61-11.36-17.48,0-1.11-.9-2.01-2.01-2.01s-2.01.9-2.01,2.01c0,7.87-5.24,17.48-11.35,17.48-1.11,0-2.01.9-2.01,2.01s.9,2.01,2.01,2.01ZM26.79,266.91c2.05-1.68,3.89-4.06,5.3-6.87.35-.68,1.45-.68,1.8,0,1.42,2.82,3.25,5.2,5.3,6.87.23.19.37.47.37.78s-.14.59-.37.78c-2.05,1.68-3.89,4.05-5.3,6.87-.17.34-.52.55-.9.55s-.73-.21-.9-.55c-1.42-2.82-3.25-5.19-5.3-6.87-.23-.19-.37-.47-.37-.78s.14-.59.37-.78Z"/><path class="cls-1" d="M68.41,695.42c-6.12,0-11.36-9.61-11.36-17.47,0-1.11-.9-2.01-2.01-2.01s-2.01.9-2.01,2.01c0,7.86-5.24,17.47-11.36,17.47-1.11,0-2.01.9-2.01,2.01s.9,2.01,2.01,2.01c6.12,0,11.36,9.61,11.36,17.48,0,1.11.9,2.01,2.01,2.01s2.01-.9,2.01-2.01c0-7.87,5.24-17.48,11.36-17.48,1.11,0,2.01-.9,2.01-2.01s-.9-2.01-2.01-2.01ZM61.24,698.2c-2.05,1.68-3.88,4.06-5.3,6.88-.17.34-.52.55-.9.55s-.73-.21-.9-.55c-1.42-2.82-3.26-5.2-5.3-6.88-.24-.19-.37-.47-.37-.78s.14-.59.37-.78c2.05-1.67,3.88-4.05,5.3-6.87.34-.68,1.45-.68,1.8,0,1.42,2.82,3.26,5.2,5.3,6.87.23.19.37.47.37.78s-.13.58-.37.78Z"/><path class="cls-1" d="M652.15,265.67c-1.11,0-2.01.9-2.01,2.01s.9,2.01,2.01,2.01c6.12,0,11.36,9.61,11.36,17.48,0,1.11.9,2.01,2.01,2.01s2.01-.9,2.01-2.01c0-7.87,5.24-17.48,11.36-17.48,1.11,0,2.01-.9,2.01-2.01s-.9-2.01-2.01-2.01c-6.12,0-11.36-9.61-11.36-17.48,0-1.11-.9-2.01-2.01-2.01s-2.01.9-2.01,2.01c0,7.87-5.24,17.48-11.36,17.48ZM659.32,266.91c2.04-1.67,3.88-4.05,5.3-6.88.34-.67,1.45-.67,1.8,0,1.42,2.83,3.26,5.2,5.3,6.88.23.19.37.47.37.78s-.14.59-.37.78c-2.04,1.67-3.88,4.05-5.3,6.88-.17.34-.52.55-.9.55s-.73-.21-.9-.55c-1.42-2.83-3.26-5.2-5.3-6.88-.23-.19-.37-.47-.37-.78s.14-.59.37-.78Z"/><path class="cls-1" d="M630.11,699.43c6.11,0,11.35,9.61,11.35,17.48,0,1.11.9,2.01,2.01,2.01s2.01-.9,2.01-2.01c0-7.87,5.24-17.48,11.36-17.48,1.11,0,2.01-.9,2.01-2.01s-.9-2.01-2.01-2.01c-6.12,0-11.36-9.61-11.36-17.47,0-1.11-.9-2.01-2.01-2.01s-2.01.9-2.01,2.01c0,7.86-5.24,17.47-11.35,17.47-1.11,0-2.01.9-2.01,2.01s.9,2.01,2.01,2.01ZM637.27,696.65c2.04-1.67,3.88-4.04,5.3-6.87.35-.68,1.45-.68,1.8,0,1.42,2.82,3.26,5.2,5.3,6.87.23.19.37.47.37.78s-.13.58-.37.78c-2.06,1.68-3.89,4.06-5.3,6.87-.17.34-.52.55-.9.55s-.73-.22-.9-.55c-1.42-2.82-3.25-5.2-5.3-6.87-.24-.19-.37-.47-.37-.78s.14-.59.37-.78Z"/><path class="cls-1" d="M205.07,860.08c-6.12,0-11.36-9.61-11.36-17.47,0-1.11-.9-2.01-2.01-2.01s-2.01.9-2.01,2.01c0,7.86-5.24,17.47-11.36,17.47-1.11,0-2.01.9-2.01,2.01s.9,2.01,2.01,2.01c6.12,0,11.36,9.61,11.36,17.48,0,1.11.9,2.01,2.01,2.01s2.01-.9,2.01-2.01c0-7.87,5.24-17.48,11.36-17.48,1.11,0,2.01-.9,2.01-2.01s-.9-2.01-2.01-2.01ZM197.91,862.87c-2.05,1.68-3.88,4.06-5.3,6.88-.17.34-.52.55-.9.55s-.73-.21-.9-.55c-1.42-2.82-3.26-5.2-5.3-6.88-.24-.19-.37-.47-.37-.78s.14-.59.37-.78c2.05-1.67,3.88-4.05,5.3-6.87.34-.68,1.45-.68,1.8,0,1.42,2.82,3.26,5.2,5.3,6.87.23.19.37.47.37.78s-.13.58-.37.78Z"/><path class="cls-1" d="M520.17,860.08c-6.11,0-11.35-9.61-11.35-17.47,0-1.11-.9-2.01-2.01-2.01s-2.01.9-2.01,2.01c0,7.86-5.24,17.47-11.36,17.47-1.11,0-2.01.9-2.01,2.01s.9,2.01,2.01,2.01c6.12,0,11.36,9.61,11.36,17.48,0,1.11.9,2.01,2.01,2.01s2.01-.9,2.01-2.01c0-7.87,5.24-17.48,11.35-17.48,1.11,0,2.01-.9,2.01-2.01s-.9-2.01-2.01-2.01ZM513.01,862.87c-2.05,1.67-3.88,4.05-5.3,6.87-.17.34-.52.55-.9.55s-.73-.22-.9-.55c-1.42-2.81-3.25-5.19-5.3-6.87-.24-.19-.37-.47-.37-.78s.14-.59.37-.78c2.05-1.67,3.88-4.05,5.3-6.87.34-.68,1.45-.68,1.8,0,1.42,2.83,3.26,5.2,5.3,6.87.23.19.37.47.37.78s-.13.59-.37.78Z"/><path class="cls-1" d="M541.57,745.4c-3.27-17.61-15.16-31.77-25.2-39.15-11.21-8.25-28.32-14.16-44.87-19.87-20.84-7.2-42.37-14.65-50.47-26.37-14.46-20.94-9.91-38.78-7.28-45.47.36-.93-.02-2-.89-2.48-.86-.49-1.99-.25-2.58.53-9.7,12.84-12.32,37.64,1.44,60.21,5.62,9.23,21.05,26.24,37.39,44.25,26,28.63,49.11,54.71,47.98,61.23-.72,4.18-2.03,6.91-3.89,8.1-2.28,1.46-5.57.58-8.46-.2l-.68-.18c-11.35-3.02-21.5-8.43-30.46-13.2-9.18-4.89-17.11-9.12-23.61-9.12-12.28,0-27.23,10.35-36.31,19.22-.2.2-.49.34-.76.28-.29-.02-.55-.15-.73-.38-1.05-1.33-2.36-3-3.58-4.58-.17-.22-.24-.5-.2-.78.05-.27.21-.52.44-.67,3.58-2.36,5.88-6.46,6.71-8.12.26-.53.28-1.14.05-1.68-.23-.54-.68-.95-1.24-1.13-7.08-2.27-13.65-11.44-15.92-18.98-.1-.34-.02-.7.22-.96.24-.26.59-.37.94-.31.27.05.53.09.8.11.41,0,.89-.19,1.26-.53.42-.38.66-.92.66-1.49,0-8.08.22-16.11.41-23.2.37-13.61.72-26.47-.51-35.82-.04-.31.07-.63.29-.85.23-.22.54-.31.86-.27l.31.04c.54.06,1.13-.11,1.58-.51.41-.37.65-.92.65-1.48,0-8.75.23-17.25.45-25.47v-.47c.69-25.18,1.23-45.08-5.05-53.94-.15-.22-.22-.49-.17-.75,1.2-7.06,1.93-14.84,2.03-21.34,0-.26.11-.51.3-.7,1.62-1.59,2.66-3.37,3.09-5.29,3.72-16.38,5.51-35.76,5.97-41.32.02-.27.15-.51.35-.68,1.43-1.2,2.67-3.3,3.68-6.23.15-.43.5-.72,1.02-.67.45.03.83.37.91.81,1.44,7.53,3.43,15.63,5.47,22.42,6.46,20.74,14.38,35.11,19.32,40.7,4.16,4.72,10.79,9.54,20.59,14.98,5.87,3.26,12.3,6.46,18.96,9.77,24.85,12.35,53.02,26.36,59.73,48.34.29.93,1.18,1.49,2.2,1.4.96-.13,1.69-.94,1.73-1.93,1.4-41.98-31.04-67.14-48.1-68.3-7.71-.52-13.25,2.19-18.12,4.59-4.7,2.32-8.68,4.28-13.54,2.9-.28-.08-.51-.27-.64-.54-3.3-7-4.3-16.58-5.17-25.03-.93-8.87-1.65-15.87-4.7-19.18-5.48-5.95-12.74-6.29-18.58-6.57-3.91-.18-7.29-.34-9.41-1.99-.28-.22-.42-.57-.38-.92.6-4.7,6.12-8.44,10.99-11.74,4.36-2.95,7.79-5.27,7.93-8.4.07-1.52-.61-2.85-2.09-4.07-10.21-8.38-18.47-20.01-24.53-34.59-.05-.12-.07-.24-.08-.37-.03-1.83-.07-3.47-.12-4.88-.01-.38.19-.73.52-.91,1.87-1.04,3.02-2.18,3.4-3.38.13-.38.47-.66.87-.69.45-.05.79.18.98.53,16.39,30.96,41.28,54.93,52.93,61.39,22.46,12.44,45.95,14,61.5,15.03l.75.05c23.6,1.57,54.8,10.07,69.37,41.62.41.86,1.47,1.34,2.4,1.08.94-.27,1.55-1.22,1.42-2.2-4.53-33.09-45.43-66.09-65-70.67-12.25-2.87-22.08,1.97-28.17,6.53-6.75,5.05-10.13,10.56-11.28,12.7-.17.32-.5.52-.86.53-.38,0-.71-.18-.89-.48-2.08-3.44-3.06-8.17-4.01-12.74-1.66-8.02-3.55-17.11-12.09-18.97-18.49-4.02-42.34-11.33-50.23-16.62-.22-.14-.37-.36-.42-.61-1.1-4.92,1.17-10.27,3.18-15,2.77-6.52,4.37-11.35-.22-14.1-2.14-1.28-4.65-2.57-6.86-3.72-5.42-2.8-11.56-5.97-15.68-10.12-.14-.14-.24-.32-.27-.52-.7-3.68-1.51-7.37-2.4-10.96-.1-.42.07-.86.44-1.09.37-.23.84-.2,1.17.07,19.9,16.32,61.62,33.22,89.28,36.17,17.6,1.88,28.16-.29,39.36-2.59,5.86-1.2,11.92-2.44,19.24-3.1,23.38-2.11,37.48,1.1,50.3,11.46.71.57,1.85.56,2.55-.02.74-.62.94-1.67.47-2.51-14.29-25.79-50.11-32.5-62.67-30.95-15.76,1.9-21.06,10.97-24.93,17.58-1.71,2.91-3.05,5.21-4.82,6.27-.24.14-.54.18-.8.1-11.9-3.61-17.43-8.34-22.31-12.51-4.21-3.59-7.84-6.7-14.21-7.87-6.44-1.2-10.67,2.47-14.4,5.7-2.33,2.02-4.3,3.73-6.48,4.17-.24.06-.53,0-.75-.15-8.12-5.36-12.91-13.84-17.98-22.81-5.37-9.52-11.45-20.3-22.63-26.44-.24-.13-.42-.36-.49-.62-2.35-8.86-9.68-13.86-12.73-15.59-.36-.21-.56-.61-.49-1.02.43-2.84.7-5.92.76-8.47,0-.44.31-.83.74-.95,2.78-.76,5.31-2.51,7.13-4.91.23-.31.61-.45,1.01-.38.38.08.68.37.77.75.36,1.53.67,3.13,1,4.81,1.03,5.37,2.1,10.91,5.4,15.49,6.8,9.43,32.08,22.5,45.99,25.37,7.7,1.59,18.01,2.46,29.01,2.46,16.14,0,30.38-1.85,38.08-4.95.02,0,.31-.12.32-.13.96-.39,1.82-.82,2.58-1.25,7.46-4.39,12.73-12.76,18.31-21.63,10.19-16.18,19.82-31.46,42.43-24.49.95.28,1.98-.16,2.4-1.06.43-.9.13-1.99-.7-2.54-7.68-5.13-19.39-6.57-32.13-3.94-15.08,3.11-28.1,11.19-34.84,21.59-5.14,7.94-7.17,17.15-5.44,24.62.22.93.49,1.83.83,2.69.13.34.07.72-.15,1-.23.28-.6.43-.95.36-8.67-1.49-17.02-4.47-23.12-6.64-4.91-1.75-8.45-3.02-10.63-3.02-5.91,0-9.27,2.57-13.15,5.56-2.97,2.28-6.33,4.87-11.74,6.98-.3.12-.64.08-.92-.1-16.76-11.04-24.13-32.39-28.1-43.86-1.22-3.51-2.07-5.99-2.9-7.42-2.01-3.47-6.3-7.6-12.31-8.75-2.05-.39-5.3-.57-9.17.83-.45.15-.93,0-1.18-.4-2.91-4.52-7.05-6.45-12.24-5.76-.28.06-.58-.05-.8-.24-.22-.19-.34-.46-.34-.76v-2.03c0-.2.06-.39.17-.56,3.97-5.94,15.82-6.67,18.87-5.58.56.21,1.17.16,1.69-.14.51-.3.87-.8.97-1.38.74-4.15,1.32-8.46-.37-11.66-.2-.38-.14-.85.16-1.16,2.13-2.25,3.77-3.08,5.62-2.84.37.05.68.29.82.63,8.91,22.98,27.06,32.27,37.09,35.77,1.86.65,3.87,1.21,6.31,1.78.26.06.49.23.63.46,5.24,8.64,15,24.73,22.96,24.73,4.28,0,24.06-8.06,36.65-25.86,13.5-19.08,20.39-48.04,16.77-70.42-.04-.27.02-.54.19-.76.16-.22.4-.36.67-.4,5.13-.66,9.46-2.75,12.52-6.04,4.23-4.55,6.16-11.26,5.57-19.41-1.18-16.35-16.59-62.15-27.25-72.53-9.51-9.27-27.7-20.51-33.05-23.74-5.08-3.07-11.45-8.81-17.61-14.37-5.86-5.29-11.39-10.28-16.14-13.36-14.84-9.62-46.38-20.77-64.58-15.77-.91.25-1.53,1.12-1.47,2.06.06.94.78,1.73,1.72,1.86,47.08,6.72,66.19,44.57,67.75,51.25,1.18,5.02.93,12.13.71,18.4-.11,3.19-.21,6.07-.15,8.61.11,5.15,1.52,17.82,2.65,28l.11,1.01c.54,4.86,1.04,9.45,1.22,11.64.59,7.48,9.3,23.11,16.02,30.67.42.47,1.09.72,1.66.66,12.52-1,20.92,5.83,23.66,13.06,1.78,4.69,4.36,16.91-10.08,29.16-1.89.98-3.4,1.65-4.8,2.19-13.66,5.26-11.25,17.8-9.65,26.11.27,1.41.56,2.94.72,4.28.04.37-.12.73-.42.94-.3.22-.69.24-1.03.07-16.2-8.22-32.85-40.64-37.41-51.35-1.91-4.5-7.37-11.87-14.59-13.7-2.84-.72-5.8-.47-8.57.74-.25.11-.55.11-.81,0-.26-.12-.46-.34-.54-.6-2.74-8.39-9.85-11.66-10.15-11.79-.55-.24-1.19-.23-1.73.05-4.03,2.07-8.84,6.57-11.35,9.07-.21.21-.47.31-.8.29-.29-.02-.56-.18-.73-.42-.99-1.38-1.73-2.5-1.79-2.59-.31-.47-.82-.78-1.38-.86-.53-.08-1.15.09-1.57.45-4.22,3.55-10.5,10.12-11.21,10.85-.52.55-.69,1.36-.42,2.07,1.24,3.37.97,7.41-.69,10.3-.27.48-.76,1.19-1.51,1.89-.29.27-.7.34-1.07.19-.36-.15-.6-.5-.62-.89-.29-7.81-4.33-12.47-10.79-12.47-3.15,0-6.04,1.31-9.1,2.7-3.64,1.65-7.75,3.51-13.15,3.51s-9.52-1.86-13.15-3.51c-3.06-1.39-5.95-2.7-9.1-2.7-6.46,0-10.49,4.66-10.78,12.47-.02.39-.26.74-.62.89-.36.15-.78.08-1.07-.19-.76-.7-1.24-1.42-1.52-1.91-1.66-2.89-1.93-6.92-.69-10.29.26-.71.09-1.53-.43-2.08-.7-.73-6.96-7.29-11.21-10.84-.44-.36-.99-.53-1.6-.45-.54.08-1.04.4-1.36.87-.22.33-.91,1.35-1.78,2.57-.17.24-.44.39-.73.42-.32.03-.58-.08-.8-.29-2.51-2.49-7.31-6.99-11.34-9.07-.55-.28-1.18-.29-1.76-.04-.29.13-7.41,3.44-10.13,11.78-.09.27-.28.49-.54.6-.26.12-.56.12-.81,0-2.77-1.21-5.74-1.46-8.56-.74-7.22,1.84-12.69,9.2-14.6,13.7-4.56,10.71-21.2,43.13-37.41,51.35-.33.16-.73.14-1.03-.07-.3-.21-.47-.57-.42-.94.16-1.28.43-2.79.72-4.28,1.6-8.31,4.01-20.85-9.66-26.11-1.26-.48-2.65-1.09-4.38-1.92-.08-.04-.15-.08-.22-.14-14.62-12.36-12.07-24.61-10.29-29.3,2.75-7.26,11.14-14.13,23.64-13.06.63.06,1.26-.19,1.68-.67,6.72-7.56,15.43-23.2,16.02-30.67.17-2.21.67-6.68,1.24-11.86l.09-.77c1.13-10.19,2.53-22.87,2.65-28.02.05-2.51-.04-5.38-.15-8.42-.23-6.49-.48-13.57.7-18.6,1.56-6.68,20.67-44.52,67.75-51.24.94-.14,1.66-.92,1.73-1.86.05-.94-.56-1.81-1.47-2.06-18.23-5-49.74,6.16-64.58,15.77-4.75,3.08-10.3,8.09-16.18,13.39-6.17,5.57-12.5,11.28-17.57,14.34-5.35,3.23-23.54,14.47-33.05,23.74-10.66,10.38-26.07,56.18-27.25,72.53-.59,8.15,1.34,14.86,5.57,19.41,3.07,3.29,7.4,5.38,12.52,6.04.27.04.51.18.67.4.16.22.23.49.19.76-3.62,22.39,3.28,51.34,16.77,70.42,12.59,17.8,32.38,25.86,36.65,25.86,7.97,0,17.72-16.08,22.96-24.73.14-.23.37-.4.63-.46,2.44-.57,4.45-1.13,6.31-1.78,10.03-3.5,28.18-12.79,37.09-35.76.14-.35.45-.59.82-.64,1.63-.18,3.15.23,5.62,2.84.29.31.36.78.16,1.16-1.69,3.2-1.11,7.51-.36,11.66.11.58.46,1.09.97,1.38.53.31,1.14.37,1.68.16,2.96-1.07,14.97-.28,18.89,5.57.11.16.17.36.17.56v2.03c0,.29-.13.56-.34.76-.22.19-.51.28-.8.24-5.21-.7-9.33,1.23-12.23,5.76-.26.39-.76.55-1.18.4-3.89-1.39-7.14-1.22-9.19-.82-6,1.15-10.29,5.27-12.3,8.75-.85,1.45-1.72,3.98-2.93,7.48-3.96,11.46-11.33,32.77-28.08,43.81-.27.18-.61.22-.92.1-5.39-2.1-8.76-4.69-11.74-6.97-3.89-2.99-7.24-5.57-13.16-5.57-2.16,0-5.71,1.27-10.63,3.02-6.12,2.18-14.46,5.16-23.11,6.64-.36.07-.72-.07-.95-.36-.23-.28-.29-.66-.15-1,.34-.86.62-1.76.82-2.68,1.74-7.48-.29-16.68-5.43-24.63-6.74-10.41-19.76-18.48-34.85-21.59-12.72-2.63-24.43-1.2-32.12,3.94-.82.55-1.13,1.64-.7,2.53.42.9,1.46,1.36,2.41,1.06,22.62-6.96,32.24,8.32,42.43,24.49,5.58,8.86,10.84,17.23,18.33,21.64.79.46,1.66.88,2.75,1.32,7.73,3.13,22,4.99,38.19,4.99,11.01,0,21.32-.88,29.03-2.47,13.9-2.87,39.18-15.94,45.98-25.37,3.3-4.57,4.37-10.14,5.4-15.52l.05-.29c.3-1.55.59-3.05.94-4.49.09-.38.39-.67.77-.75.4-.08.77.07,1.01.38,1.82,2.4,4.35,4.15,7.13,4.91.43.12.73.5.74.95.05,2.53.33,5.62.76,8.46.06.41-.13.82-.49,1.02-3.04,1.74-10.37,6.73-12.72,15.59-.07.26-.24.49-.49.62-11.19,6.14-17.27,16.92-22.63,26.44-5.06,8.97-9.84,17.45-17.98,22.82-.22.15-.49.2-.75.15-2.19-.44-4.18-2.17-6.5-4.18-3.34-2.9-7.91-6.88-14.38-5.69-6.38,1.17-10.01,4.28-14.21,7.87-4.89,4.18-10.42,8.9-22.32,12.51-.27.08-.56.04-.8-.1-1.76-1.05-3.11-3.36-4.82-6.27-3.87-6.61-9.17-15.67-24.93-17.58-12.55-1.48-48.44,5.27-62.66,30.95-.47.84-.27,1.9.46,2.51.71.59,1.85.6,2.55.03,12.83-10.36,26.94-13.57,50.31-11.46,7.32.66,13.41,1.91,19.31,3.11,11.15,2.29,21.68,4.45,39.3,2.57,27.66-2.95,69.38-19.86,89.28-36.18.33-.27.8-.31,1.17-.07.36.23.54.67.44,1.09-.9,3.62-1.7,7.31-2.4,10.96-.04.2-.13.38-.27.52-4.11,4.14-10.26,7.31-15.68,10.12-2.49,1.29-4.83,2.49-6.87,3.72-4.58,2.75-3,7.58-.27,14.11,1.98,4.72,4.22,10.07,3.12,14.98-.06.25-.21.47-.42.61-7.81,5.24-32.09,12.71-50.12,16.62-8.53,1.85-10.34,10.54-12.09,18.95-.95,4.59-1.93,9.32-4.01,12.76-.18.3-.51.48-.86.48-.39,0-.71-.21-.89-.53-1.14-2.14-4.53-7.65-11.28-12.7-6.1-4.56-15.94-9.4-28.17-6.53-19.57,4.59-60.48,37.58-65,70.68-.14.98.47,1.92,1.42,2.2.93.25,1.98-.22,2.39-1.09,14.58-31.54,45.77-40.04,69.37-41.61l.75-.05c15.55-1.03,39.05-2.59,61.5-15.03,11.66-6.45,36.54-30.43,52.93-61.39.18-.35.51-.58.98-.53.4.04.74.31.87.69.38,1.2,1.53,2.34,3.4,3.38.33.18.53.54.52.91-.05,1.41-.09,3.05-.12,4.88,0,.13-.03.25-.08.37-6.06,14.58-14.31,26.21-24.53,34.59-1.48,1.21-2.16,2.54-2.09,4.07.15,3.13,3.58,5.46,7.93,8.4,4.87,3.3,10.39,7.03,10.99,11.74.04.35-.1.7-.38.92-2.11,1.64-5.49,1.8-9.41,1.99-5.84.27-13.1.62-18.59,6.57-3.04,3.3-3.77,10.29-4.69,19.14-.88,8.49-1.87,18.07-5.18,25.07-.13.26-.35.46-.63.54-4.86,1.4-8.65-.47-13.45-2.85-4.93-2.43-10.52-5.15-18.21-4.64-17.06,1.16-49.5,26.33-48.1,68.3.04.98.77,1.8,1.75,1.93.96.14,1.89-.46,2.18-1.41,6.7-21.96,34.89-35.98,59.75-48.34,6.36-3.16,12.86-6.39,18.72-9.64.04-.03.25-.13.29-.16,9.83-5.46,16.34-10.21,20.51-14.93,4.93-5.59,12.92-19.7,19.27-40.51,2.13-6.99,4.07-15.04,5.52-22.6.08-.45.46-.78.91-.81.42-.07.87.24,1.02.67,1.01,2.92,2.25,5.02,3.68,6.22.2.17.33.42.35.68.46,5.54,2.25,24.91,5.97,41.32.44,1.92,1.47,3.7,3.09,5.29.19.18.29.44.3.7.1,6.49.84,14.26,2.03,21.34.05.26-.02.53-.17.75-6.28,8.86-5.75,28.74-5.07,53.91.22,7.93.46,16.87.46,25.98,0,.56.24,1.11.67,1.49.42.38.98.56,1.53.5l.33-.04c.31-.06.64.06.86.27.22.22.35.53.31.84-1.23,9.37-.88,22.27-.51,35.93.19,7.05.4,15.05.4,23.08,0,.56.24,1.11.67,1.49.42.37.94.56,1.55.5.16-.02.33-.04.51-.07.35-.06.7.05.93.31.24.26.32.62.22.96-2.28,7.54-8.85,16.69-15.9,18.95-.56.18-1.01.59-1.24,1.13-.23.54-.21,1.15.05,1.67.82,1.65,3.13,5.75,6.71,8.12.24.16.39.4.44.67.04.28-.03.56-.2.78-1.22,1.58-2.53,3.24-3.58,4.58-.18.22-.44.36-.73.38-.28.05-.56-.09-.76-.28-9.07-8.87-24.02-19.22-36.31-19.22-6.49,0-14.43,4.23-23.62,9.12-8.95,4.77-19.09,10.17-30.45,13.19l-.67.18c-2.89.78-6.15,1.67-8.45.2-1.86-1.18-3.17-3.91-3.9-8.1-1.13-6.51,22-32.62,47.87-61.11,16.46-18.14,31.88-35.12,37.5-44.36,13.76-22.58,11.14-47.38,1.44-60.21-.61-.8-1.72-1.04-2.58-.55-.88.49-1.26,1.56-.89,2.49,2.63,6.68,7.19,24.5-7.28,45.47-8.1,11.73-29.66,19.18-50.5,26.38-16.54,5.71-33.63,11.62-44.84,19.87-10.03,7.37-21.88,21.51-25.06,39.06-.02.08-.04.16-.08.24.01.09-.04.38-.05.47-1.67,10.08-.36,20.2,3.92,30.06,13.56,31.26,46.09,34.88,69.37,34.88h75.72c17.13,0,31.51-3.47,42.76-10.32.16-.1.34-.15.52-.15s.36.05.52.15c11.29,6.84,25.68,10.32,42.79,10.32h75.72c23.29,0,55.81-3.62,69.37-34.88,4.27-9.85,5.6-19.98,3.94-30.11,0-.29,0-.4-.01-.58ZM456.24,603.71c1.97-.7,3.89-1.65,5.74-2.57,4.42-2.19,9.41-4.67,16.15-4.22,12.27.84,37.98,18.68,43.39,49.82.08.46-.16.91-.6,1.09-.13.05-.26.08-.39.08-.31,0-.62-.15-.81-.41-11.95-16.25-34.88-27.65-55.12-37.71-2.89-1.43-5.72-2.84-8.48-4.24-.36-.18-.57-.56-.55-.96.02-.4.29-.75.66-.88ZM410.32,552.88c.23-.27.59-.39.94-.34,1.64.3,4.38.46,6.22.56,5.32.27,11.71.82,15.81,5.28,2.15,2.32,2.88,9.4,3.66,16.89.65,6.22,1.38,13.21,3.06,19.41.11.4-.04.82-.37,1.07-.18.13-.39.2-.6.2-.19,0-.37-.05-.54-.16-5.42-3.44-9.41-6.64-12.19-9.79-4.02-4.57-10.39-15.4-16.18-32.14-.12-.34-.05-.71.19-.98ZM492.9,545.63c.77-1.54,3.78-6.94,10.43-11.91,5.4-4.04,14.11-8.33,24.85-5.84,14.69,3.44,40.28,22.72,53.53,44.87.26.44.15,1-.25,1.31-.18.14-.4.21-.62.21-.26,0-.52-.1-.71-.3-17.4-17.61-41.66-22.68-58.95-23.84l-.75-.05c-7.5-.5-16.76-1.11-26.82-3.02-.31-.06-.57-.26-.71-.54-.14-.28-.14-.61,0-.89ZM428.42,503.65c.27-.37.76-.5,1.18-.33,11.94,4.78,29.38,9.55,41.35,12.15,5.99,1.3,7.39,8.05,9.02,15.87.83,4,1.68,8.11,3.25,11.62.16.36.09.77-.16,1.07-.19.22-.47.35-.76.35-.09,0-.19-.01-.28-.04-7.7-2.22-14.9-5.18-21.4-8.78-6.86-3.8-19.47-14.76-32.18-30.68-.29-.35-.29-.86-.02-1.22ZM403.21,458.71c.33-.2.76-.2,1.09.02,3.39,2.3,8.2,4.58,11.13,6.25,1.98,1.13,4.87,2.64,6.6,3.68,1.75,1.05.86,3.72-1.44,9.14-1.12,2.65-2.4,5.65-3.13,8.78-.09.39-.41.69-.81.76-.51.01-.83-.16-1.02-.46-5.05-8.04-9.24-16.12-12.46-24.01-.04-.08-.06-.17-.07-.26-.11-.98-.24-1.96-.37-2.92-.05-.39.13-.78.47-.99ZM516.33,469.08c.25-.41,1-1.7,1.25-2.12,3.56-6.05,8.8-14.03,21.94-15.62,8.84-1.1,31.93,2.45,47.86,15.91.38.32.47.86.22,1.28-.26.42-.77.59-1.23.42-7.24-2.86-15.47-4.25-25.16-4.25-3.93,0-8.24.22-13.18.66-7.57.68-13.75,1.95-19.74,3.18-3.77.77-7.24,1.48-10.96,2.05-.49.01-.8-.16-.99-.44-.22-.33-.22-.75-.02-1.08ZM457.69,461.76c.6-.46,1.93-1.61,2.5-2.1,2.97-2.55,6.87-5.58,11.05-4.8,5.31.98,8.41,3.62,12.33,6.96,2.79,2.38,5.91,5.06,10.43,7.66.41.23.6.72.46,1.17-.13.42-.52.7-.96.7-1.13-.09-2.2-.19-3.28-.31-9.19-.98-20.34-3.59-32.22-7.56-.35-.12-.61-.42-.67-.78-.06-.36.08-.74.37-.96ZM527.65,392.13c6.16-9.52,18.23-16.93,32.28-19.84,1.82-.38,3.66-.66,5.45-.86.46-.07.93.25,1.07.71.14.46-.07.96-.5,1.18-9.74,5.08-16.37,15.61-22.23,24.9-5.32,8.45-10.34,16.42-16.95,20.31-.16.09-.33.19-.5.28-.15.08-.31.12-.47.12-.28,0-.56-.12-.76-.35-1.02-1.18-1.82-2.88-2.29-4.92-1.49-6.44.34-14.49,4.9-21.54ZM468.76,421.53c2.09-1.32,3.8-2.63,5.3-3.78,3.63-2.79,6.21-4.77,10.77-4.77,1.37,0,4.57,1.11,9.29,2.79,4.57,1.63,10.26,3.66,16.36,5.22.47.12.78.55.76,1.03-.03.48-.39.87-.87.94-6.68.9-14.56,1.35-22.43,1.35-6.48,0-12.95-.31-18.74-.93-.43-.05-.78-.36-.87-.77-.1-.42.08-.85.44-1.07ZM405.64,366.93c3.12-1.67,6.25-2.21,9.31-1.61,4.68.9,8.09,4.23,9.59,6.81.62,1.07,1.43,3.38,2.6,6.78,3.18,9.18,8.48,24.51,18.89,36.36.31.35.33.88.06,1.26-.2.27-.5.41-.81.41-.14,0-.27-.03-.4-.08-11.15-4.9-24.37-12.58-28.79-18.7-2.78-3.85-3.76-8.96-4.71-13.9-1.09-5.66-2.21-11.51-6.01-15.77-.2-.23-.29-.54-.24-.85.06-.3.24-.56.51-.71ZM175.76,413.67c-.47,2.04-1.27,3.74-2.29,4.92-.2.23-.47.35-.76.35-.16,0-.33-.04-.47-.12l-.47-.26c-6.63-3.91-11.65-11.88-16.97-20.32-5.85-9.29-12.48-19.82-22.22-24.91-.43-.22-.64-.72-.49-1.18s.54-.75,1.07-.71c1.8.2,3.62.49,5.42.86,14.06,2.91,26.13,10.32,32.29,19.84,4.56,7.05,6.39,15.1,4.9,21.53ZM229.33,423.38c-5.8.62-12.26.93-18.74.93-7.88,0-15.76-.46-22.44-1.35-.48-.06-.84-.45-.87-.94-.03-.48.29-.91.76-1.03,6.07-1.55,11.53-3.5,16.34-5.21,4.76-1.7,7.94-2.8,9.31-2.8,4.56,0,7.15,1.99,10.73,4.75,1.57,1.2,3.29,2.52,5.34,3.81.36.23.54.66.44,1.08-.09.42-.44.73-.87.77ZM293.15,368.48c-3.8,4.27-4.92,10.11-6.01,15.77-.95,4.94-1.93,10.04-4.71,13.9-4.42,6.12-17.64,13.81-28.79,18.71-.13.06-.27.08-.4.08-.31,0-.62-.14-.81-.41-.27-.38-.26-.9.06-1.26,10.42-11.86,15.72-27.19,18.89-36.34,1.18-3.43,1.99-5.74,2.61-6.8,1.49-2.58,4.9-5.92,9.58-6.81,3.09-.59,6.21-.05,9.31,1.62.27.15.46.41.51.71.05.3-.04.61-.24.84ZM182.17,470.16c-.19.28-.5.45-.84.45-3.87-.58-7.35-1.29-11.03-2.05-6.07-1.25-12.25-2.51-19.82-3.19-12.37-1.12-25.56-1.46-38.34,3.59-.46.18-.98,0-1.23-.42-.25-.42-.16-.96.22-1.28,15.91-13.44,39.05-17,47.87-15.92,13.77,1.66,18.32,9.43,21.97,15.67.43.74.83,1.42,1.23,2.07.2.33.2.76-.02,1.08ZM240.53,463.51c-11.89,3.96-23.03,6.58-32.22,7.56-1.08.12-2.15.22-3.2.3-.52,0-.91-.28-1.04-.7-.14-.45.05-.94.46-1.17,4.52-2.61,7.65-5.29,10.41-7.65,3.94-3.36,7.03-6,12.35-6.98,4.55-.84,7.72,1.91,11.1,4.85.84.73,1.63,1.41,2.45,2.05.29.23.44.6.37.96-.06.36-.32.66-.67.78ZM205.61,546.53c-.14.28-.4.48-.71.54-10.08,1.91-19.35,2.52-26.8,3.02l-.78.05c-17.29,1.15-41.54,6.23-58.94,23.84-.2.2-.46.3-.71.3-.22,0-.43-.07-.62-.21-.4-.31-.51-.87-.25-1.31,13.24-22.16,38.83-41.43,53.53-44.88,2.12-.5,4.27-.75,6.38-.75,7.99,0,14.45,3.58,18.47,6.59,6.65,4.97,9.67,10.37,10.43,11.91.14.28.14.61,0,.9ZM270.15,504.77c-12.74,15.98-25.38,26.97-32.26,30.78-6.5,3.6-13.7,6.55-21.4,8.78-.09.03-.18.04-.28.04-.29,0-.56-.12-.76-.35-.25-.29-.32-.71-.16-1.07,1.56-3.51,2.42-7.61,3.24-11.57,1.63-7.87,3.02-14.61,9.02-15.91,11.92-2.59,29.35-7.39,41.43-12.25.42-.17.91-.04,1.18.33.27.36.27.87-.02,1.23ZM295.4,462.62c-.01.09-.03.18-.07.26-3.23,7.93-7.45,16.05-12.54,24.13-.19.29-.51.47-.85.47-.57-.08-.89-.39-.98-.78-.71-3.14-1.98-6.19-3.11-8.87-2.14-5.12-3.26-8.04-1.39-9.16,1.97-1.18,4.24-2.35,6.64-3.59,3.73-1.92,7.65-3.99,11.11-6.34.33-.23.76-.23,1.09-.02.34.21.52.6.47.99-.13.96-.25,1.94-.37,2.92ZM242.39,605.55c-2.77,1.41-5.61,2.82-8.48,4.24-20.23,10.06-43.16,21.46-55.11,37.71-.19.26-.5.41-.81.41-.13,0-.27-.03-.39-.08-.43-.18-.68-.64-.6-1.09,5.41-31.14,31.12-48.98,43.39-49.82,6.71-.48,11.52,1.94,16.19,4.25,1.84.91,3.73,1.84,5.7,2.54.38.13.64.48.66.88.03.4-.19.78-.55.96ZM288.39,553.86c-5.79,16.73-12.15,27.57-16.18,32.14-2.78,3.15-6.76,6.35-12.19,9.79-.16.11-.35.16-.54.16-.21,0-.42-.07-.6-.2-.33-.25-.48-.67-.37-1.07,1.69-6.22,2.42-13.23,3.06-19.41.78-7.52,1.52-14.57,3.66-16.89,4.36-4.74,10.19-5.01,15.83-5.28,2.22-.11,4.28-.21,6.2-.56.35-.06.71.06.94.34.24.27.31.64.19.98ZM415.14,670.7c-5.52-9.09-8.6-19.16-8.94-29.19-.02-.52.36-.96.87-1.03.49-.05.99.27,1.11.77,1.63,7.15,4.84,14.23,9.53,21.04,8.85,12.82,30.05,20.14,52.5,27.89,16.27,5.62,33.07,11.43,43.77,19.3,2,1.47,19.68,14.99,23.6,35.9.11,6.69-2.49,11.72-7.3,14.32-2.27,1.22-4.86,1.82-7.61,1.82-4.51,0-9.42-1.62-13.95-4.75-6.69-4.61-9.76-12.38-13.01-20.6-3.68-9.3-7.85-19.83-17.98-27.71-7.68-5.97-17.14-10.01-26.29-13.92-13.48-5.75-27.38-11.69-36.31-23.84ZM394.18,788.09c9.25-9.83,24.4-20.41,35.79-20.41,5.48,0,13.02,4.02,21.76,8.66,9.13,4.86,19.49,10.38,31.28,13.52l.66.18c1.43.39,2.95.78,4.48.98.38.05.7.31.82.67.13.36.03.76-.24,1.03-3.55,3.53-8.32,5.26-14.71,5.26-2.29,0-4.79-.22-7.51-.66-8.92-1.42-15.46-4.15-21.24-6.57-6.93-2.89-12.91-5.4-20.87-5.4s-17.36,2.6-29.24,8.2c-.45.2-1,.05-1.27-.37-1.34-2.12-1.26-3.45.29-5.1ZM399.98,500.56c.02-.45.33-.84.77-.94.43-.1.89.1,1.11.49,5.58,10.1,12.45,18.54,20.41,25.08.42.34.49.95.17,1.37-.79,1.06-3.39,2.89-5.84,4.55-3.24,2.19-6.86,4.66-9.42,7.65-.19.23-.47.35-.76.35-.07,0-.15,0-.22-.03-.36-.08-.66-.36-.75-.73-2.7-10.41-4.64-21.09-5.77-31.74.13-2.12.23-4.09.31-6.07ZM403.2,413.79c.09-.25.29-.46.54-.56.25-.11.53-.11.78,0,12.22,5.07,18.11,15.51,24.35,26.57,2.6,4.61,5.29,9.38,8.51,13.7.27.37.27.87-.02,1.23-.2.24-.49.38-.78.38-.14,0-.28-.03-.41-.09-16.91-7.55-30.66-16.06-37.72-23.36-.38-.39-.38-1.02,0-1.41.96-.96,1.44-1.97,1.44-2.98,0-.15-.02-.31-.05-.44-.45-1.99-1.15-4.09-2.11-6.43-.19-.45-.02-.98.4-1.24,1.8-1.12,4.15-2.97,5.06-5.37ZM396.3,399.73c2.77,1.88,5.11,4.3,6.57,6.8.21.36.18.8-.07,1.12-.25.33-.67.46-1.07.35-.76-.22-1.58.03-2.09.64-.51.61-.62,1.46-.27,2.17.25.51.28.98.09,1.51-.42,1.16-1.76,2.28-2.81,3-.17.12-.37.18-.57.18-.08,0-.16,0-.24-.03-.28-.07-.52-.25-.65-.51-1.35-2.59-2.63-4.7-3.47-6.01-.2-.32-.21-.73-.01-1.06,1.21-2,2.24-4.56,3.06-7.6.08-.31.31-.57.62-.68.31-.11.65-.07.91.11ZM395.74,426.9c.09.35-.01.72-.27.97-2.4,2.38-18.92,7.04-46.22,7.04s-43.83-4.65-46.22-7.03c-.25-.25-.36-.62-.27-.97,1.38-5.26,4.35-10.78,6.6-14.48.29-.47.91-.62,1.38-.34.7.42,1.43.72,2.17.9,2.84.68,12.8,2.88,21.85,2.88,6.31,0,10.86-1.07,13.52-3.18l.29-.25c.38-.34.96-.35,1.34,0l.3.25c2.66,2.11,7.22,3.18,13.52,3.18,9.04,0,19.01-2.2,21.86-2.88.74-.18,1.47-.48,2.17-.9.47-.28,1.09-.14,1.38.34,2.24,3.69,5.2,9.19,6.59,14.46ZM392.78,360.17c3.8-.77,6.73.29,8.85,3.25.16.22.22.49.17.76-.05.27-.2.5-.42.66-.48.33-.96.68-1.45,1.06-.5.4-.79,1.02-.76,1.66.03.64.36,1.23.89,1.58,1.17.78,2.17,1.76,3.06,3,.14.2.21.44.18.69-.44,4.41-3.88,7.25-6.87,8.03-.08.02-.17.03-.25.03-.31,0-.62-.15-.81-.41-.72-.97-1.67-1.74-2.82-2.3-.35-.17-.57-.52-.57-.91v-16.12c0-.48.34-.89.81-.98ZM473.19,211.18c0-2.17.08-4.57.17-7.12.23-6.55.48-13.89-.81-19.42-1.92-8.26-16.9-34.97-48.15-48.02-.47-.2-.72-.73-.57-1.22.15-.49.62-.8,1.16-.69,15.16,3.02,30.03,9.62,38.05,14.82,4.49,2.91,10.18,8.04,15.68,13.01,6.28,5.67,12.77,11.53,18.18,14.79,5.27,3.18,23.17,14.26,32.32,23.18,9.31,9.07,24.82,53.01,26.04,69.94.51,7.11-1,12.62-4.5,16.38-3.06,3.28-7.66,5.09-12.98,5.09-4.97,0-9.82-2.3-13.66-6.47-5.43-5.89-8.25-14.62-7.54-23.35,1.77-21.57-.13-37.81-5.66-48.28-5.34-10.11-14.13-11.62-18.89-11.62-2.8,0-5.69.5-8.39,1.43-3.5,1.22-6.39,3.92-8.56,8.01-.22.4-.66.62-1.13.5-.45-.11-.76-.51-.76-.97ZM493.36,280.43c-.44,0-.87,0-1.32.03-.38-.05-.62-.13-.81-.36-6.52-7.87-13.62-21.59-14.06-27.19-.18-2.3-.69-6.95-1.29-12.34l-1.16-10.56c.02-.93.8-19.27,10.26-22.56,7.02-2.46,17.1-1.76,22.4,8.27,5.09,9.63,6.89,25.56,5.21,46.07-.8,9.83,2.4,19.7,8.59,26.4,3.51,3.81,7.8,6.33,12.4,7.3.3.06.56.26.69.55.14.28.14.61,0,.88-3.27,6.59-8.44,13.37-14.57,19.09-.19.18-.44.27-.69.27-.2,0-.39-.06-.56-.17-.39-.26-.55-.75-.38-1.19,3.3-8.69,1.24-15.99.2-18.72-3.02-7.96-11.85-15.76-24.91-15.76ZM493.3,365.5c.26-.16.42-.41.56-.61.13-.19.17-.26.17-.26,1.38-2.65.66-6.37-.1-10.3-1.92-9.94-2.61-17.85,7.15-21.6,13.27-5.1,26.05-16.07,34.19-29.35.23-.37.67-.55,1.09-.45.42.1.73.47.76.91,1.42,20.61-5.2,44.57-16.85,61.04-11.59,16.39-30.15,24.16-33.37,24.16-3.45,0-9.1-6.17-16.78-18.33-.21-.33-.21-.74,0-1.07.2-.33.58-.51.96-.47,1.93.21,3.66.31,5.29.31,6.9,0,12.76-1.37,16.94-3.97ZM427.73,301.39c.07-.15.18-.27.31-.37,2.68-1.93,5.37-2.51,8.21-1.81,5.14,1.31,9.96,6.84,11.89,11.38.17.39,17.18,39.69,37.03,52.14.34.22.52.62.46,1.01-.07.4-.36.72-.76.81-2.63.63-5.51.94-8.55.94-5.7,0-11.93-1.09-18.01-3.2-9.31-3.25-26.17-11.86-34.54-33.11-.15-.36-.06-.78.21-1.06,4.49-4.7,5.41-8.98,2.97-13.87-1.42-2.84-1.03-9.21.78-12.86ZM382.31,320.98c0-.42.26-.79.64-.94,2.56-.99,4.64-2.78,6.02-5.19,1.95-3.39,2.51-7.85,1.51-11.93-.08-.34.02-.69.26-.94,1.5-1.54,4.42-4.51,7.15-7.04.21-.2.49-.29.78-.26.29.03.55.18.71.42.65.9,1.39,1.91,2.11,2.83,1.53,1.95,5.77,6.78,12.16,9.57.49.22,1.03.24,1.53.04.5-.2.9-.57,1.11-1.07.22-.49.23-1.04.03-1.54-.2-.5-.58-.89-1.07-1.11-3.97-1.74-7-4.41-8.83-6.33-.38-.39-.37-1.01.02-1.4,2.49-2.51,6.15-5.93,9.39-7.98.33-.21.76-.21,1.09,0,2.27,1.49,6.23,4.91,7.24,10.97.03.2,0,.41-.09.6-2.11,4.38-2.9,12-.71,16.36.87,1.74,2.32,4.64-2.38,9.46-.22.23-.53.36-.88.29-4.12-.64-7.22.96-11.33,6.03-.69.84-.58,2.06.23,2.77,1.27,1.11,1.65,3.34,1.2,7.02-.07.53-.42.91-1.07.88-3.97-.3-10.5.45-15.63,3.47-.16.09-.33.14-.51.14s-.35-.04-.5-.13c-.31-.18-.51-.51-.51-.87v-3.06c0-2.15-.93-4.21-2.54-5.65-1.59-1.41-3.68-2.1-5.8-1.85-.26.03-.67-.04-.88-.24-.22-.19-.44-.45-.44-.74v-12.59ZM384.1,338.53c.94-.14,1.89.17,2.66.86.76.67,1.19,1.64,1.19,2.65v34.12c0,.55-.44.99-.98,1-5.27.13-10.79,2.71-13.76,6.41-.69.86-.55,2.13.31,2.82.86.69,2.13.55,2.82-.32,3.32-4.15,10.24-5.83,13.98-4.51,2.19.77,2.45,2.23,2.45,3.26,0,9.36-2.82,23-8.12,24.26-5.28,1.26-13.97,2.77-21.19,2.77-4.62,0-8.62-.62-10.77-2.31-.98-.77-1.44-1.73-1.44-2.99v-32.43c0-19.03,13.19-33.34,32.84-35.61ZM320.22,314.98c0-6.05,2.41-9.38,6.79-9.38,2.28,0,4.67,1.08,7.44,2.34,3.81,1.73,8.55,3.87,14.81,3.87s11.01-2.15,14.81-3.87c2.77-1.26,5.15-2.34,7.44-2.34,4.38,0,6.79,3.33,6.79,9.38v19.72c0,.46-.31.86-.76.97-12.97,3.22-22.68,11.39-27.35,23.01-.15.38-.52.63-.93.63s-.78-.25-.93-.63c-4.66-11.62-14.37-19.79-27.34-23.01-.45-.11-.76-.51-.76-.97v-19.72ZM222.68,240.15c-.65,5.83-1.15,10.47-1.33,12.75-.44,5.6-7.54,19.32-14.06,27.19-.2.24-.49.38-.82.36-14.63-.6-23.33,8.08-26.23,15.73-1.04,2.73-3.09,10.03.21,18.72.17.44.01.93-.38,1.19-.17.11-.36.17-.56.17-.25,0-.49-.09-.69-.27-6.12-5.72-11.3-12.51-14.57-19.1-.14-.28-.14-.61,0-.88.13-.28.39-.48.69-.55,4.6-.96,8.89-3.49,12.4-7.3,6.18-6.7,9.39-16.58,8.59-26.4-1.68-20.51.12-36.44,5.21-46.07,5.3-10.01,15.37-10.71,22.4-8.27,8.86,3.09,10.11,19.05,10.26,22.22-.37,3.64-.76,7.2-1.13,10.49ZM147.75,286.84c-3.5-3.76-5.02-9.28-4.5-16.38,1.22-16.93,16.74-60.87,26.04-69.94,9.19-8.96,27.06-20,32.32-23.18,5.41-3.27,11.89-9.11,18.15-14.76,5.52-4.99,11.2-10.12,15.71-13.04,8.02-5.2,22.89-11.8,38.06-14.82.53-.12,1,.2,1.16.69.15.49-.1,1.02-.57,1.22-31.24,13.05-46.23,39.76-48.16,48.02-1.29,5.52-1.04,12.88-.81,19.38.09,2.59.18,4.99.17,7.16,0,.46-.31.86-.76.97-.47.11-.91-.1-1.13-.5-2.18-4.09-5.06-6.78-8.56-8.01-8.55-2.97-20.8-2.08-27.28,10.19-5.52,10.46-7.42,26.7-5.66,48.28.71,8.73-2.11,17.46-7.54,23.35-3.84,4.17-8.7,6.47-13.66,6.47-5.32,0-9.93-1.81-12.98-5.09ZM228.4,370.7c-7.69,12.16-13.33,18.33-16.78,18.33-3.22,0-21.78-7.77-33.37-24.16-11.64-16.47-18.26-40.43-16.85-61.04.03-.44.34-.8.76-.91.42-.1.87.08,1.09.45,8.14,13.27,20.92,24.25,34.19,29.35,9.75,3.75,9.07,11.66,7.15,21.6-.76,3.94-1.76,8.54.11,10.54,3.36,3.61,10.55,4.61,17.46,4.61,1.63,0,3.36-.1,5.29-.31.38-.05.75.14.96.47.2.33.2.74,0,1.07ZM274.74,329.18c-8.37,21.25-25.24,29.87-34.54,33.11-6.07,2.12-12.3,3.2-18,3.2-3.04,0-5.92-.31-8.55-.93-.4-.09-.69-.41-.76-.81-.06-.4.12-.8.46-1.01,19.54-12.26,36.86-51.75,37.03-52.15,1.93-4.54,6.76-10.07,11.89-11.38,2.79-.71,5.56-.1,8.21,1.81.13.1.24.22.31.37,1.81,3.66,2.2,10.03.78,12.86-2.44,4.89-1.53,9.17,2.97,13.87.27.28.35.7.21,1.06ZM306.04,345.98c-.15.09-.33.13-.5.13s-.35-.05-.51-.14c-3.7-2.18-9.02-3.54-13.88-3.54-.6,0-1.19.02-1.75.06-.59.04-1-.35-1.07-.88-.46-3.67-.07-5.9,1.19-7.02.82-.72.93-1.94.24-2.78-4.1-5.05-7.15-6.69-11.34-6.02-.31.05-.65-.06-.87-.29-4.34-4.45-3.56-7.11-2.38-9.46,2.18-4.36,1.4-11.98-.71-16.36-.09-.19-.12-.39-.09-.6,1-6.1,4.97-9.5,7.24-10.98.33-.21.75-.22,1.09,0,3.44,2.18,7.35,5.94,9.39,7.98.38.39.39,1.01.02,1.4-1.84,1.93-4.86,4.6-8.83,6.34-.49.22-.87.61-1.07,1.11-.2.5-.18,1.04.03,1.54.22.49.61.87,1.12,1.07.49.19,1.04.18,1.53-.04,6.37-2.79,10.63-7.62,12.16-9.57.72-.91,1.46-1.92,2.1-2.83.17-.24.43-.39.72-.42.29-.02.57.06.78.26,2.49,2.31,5.26,5.1,7.15,7.04.24.25.34.6.26.94-1,4.08-.44,8.54,1.5,11.93,1.38,2.41,3.46,4.2,6.02,5.19.39.15.64.52.64.94v12.59c0,.29-.13.57-.35.76-.22.19-.51.28-.8.24-2.27-.27-4.37.4-5.97,1.83-1.61,1.44-2.54,3.49-2.54,5.65v3.07c0,.36-.19.69-.51.87ZM308.18,381.58c.81-.29,1.82-.44,2.91-.44,3.42,0,8.35,1.55,11.08,4.96.69.86,1.95,1.01,2.82.31.86-.69,1-1.96.31-2.83-2.95-3.68-8.6-6.34-13.76-6.46-.55-.01-.98-.46-.98-1v-34.07c0-1.01.44-1.97,1.2-2.65.73-.66,1.68-.98,2.66-.86,19.63,2.27,32.83,16.58,32.83,35.61v32.43c0,1.26-.46,2.21-1.45,2.99-2.14,1.69-6.15,2.31-10.76,2.31-7.22,0-15.91-1.51-21.19-2.77-5.29-1.26-8.11-14.9-8.11-24.26,0-1.03.25-2.49,2.45-3.26ZM302.32,380.89c-.08,0-.17,0-.26-.03-2.99-.78-6.4-3.62-6.85-8.02-.02-.24.04-.49.18-.69.89-1.23,1.89-2.21,3.06-3,.53-.36.87-.95.89-1.6.02-.63-.26-1.25-.76-1.64-.49-.39-.97-.74-1.45-1.06-.22-.15-.38-.39-.42-.66-.05-.27.02-.54.18-.76,2.13-2.94,5.02-4,8.85-3.25.47.09.81.51.81.98v16.08c0,.39-.22.74-.57.91-1.16.55-2.11,1.34-2.84,2.33-.19.26-.49.41-.81.41ZM295.49,406.54c1.68-2.61,4.01-4.97,6.73-6.82.27-.18.61-.22.91-.11.31.11.54.37.62.68.82,3.04,1.85,5.59,3.06,7.6.2.33.19.74-.01,1.06-1.21,1.91-2.41,3.98-3.47,6.01-.13.26-.37.44-.65.51-.08.02-.16.03-.24.03-.2,0-.4-.06-.57-.18-1.05-.73-2.4-1.84-2.82-3.01-.18-.53-.16-.99.09-1.5.35-.71.24-1.56-.27-2.17-.38-.46-.95-.72-1.54-.72-.17,0-.36.02-.72.13-.41.12-.84-.03-1.09-.36-.25-.34-.27-.79-.04-1.14ZM262.34,455.02c-.13.06-.27.09-.41.09-.3,0-.59-.13-.78-.38-.29-.36-.29-.86-.02-1.23,3.23-4.33,5.92-9.1,8.51-13.71,6.25-11.07,12.14-21.51,24.34-26.57.25-.1.53-.1.78,0,.25.11.44.31.54.56.93,2.41,3.27,4.25,5.07,5.37.42.26.58.78.4,1.24-.96,2.32-1.67,4.48-2.12,6.41-.04.15-.05.3-.05.46,0,1.02.49,2.02,1.45,2.99.38.39.39,1.01,0,1.41-7.07,7.31-20.82,15.82-37.72,23.36ZM293.06,538.36c-.09.36-.38.64-.75.73-.07.02-.15.03-.22.03-.29,0-.57-.13-.76-.35-2.57-3.01-6.22-5.48-9.44-7.66-3.06-2.07-5.19-3.62-5.85-4.52-.3-.41-.24-.99.14-1.33.01-.01.18-.16.2-.17,7.87-6.46,14.7-14.86,20.28-24.96.22-.39.67-.61,1.11-.49.44.1.75.49.77.94.07,1.95.18,3.88.31,5.71-1.13,10.96-3.07,21.7-5.77,32.09ZM298.77,477.27c-.19-.19-.29-.44-.29-.71.07-17.33,5.17-36.58,6.73-42.06.07-.27.26-.49.5-.62.25-.13.53-.14.8-.05,10.7,3.77,29.71,5.1,42.74,5.1s32.05-1.34,42.75-5.1c.27-.09.55-.07.8.05.24.13.43.35.5.62,1.56,5.5,6.67,24.76,6.76,41.89,0,.25-.09.5-.26.68-2.33,2.56-23.83,7.47-50.54,7.47s-48.01-4.77-50.48-7.27ZM302.5,484.43c0-.31.16-.6.42-.79.25-.18.57-.24.87-.15,14.13,4.2,39.46,5.06,45.47,5.06s31.33-.86,45.47-5.06c.31-.09.62-.03.87.15.25.18.41.47.42.79.51,20.28-1.44,42.74-6.06,44.44-10.49,3.87-29.04,8.04-40.7,8.04s-30.21-4.17-40.7-8.04c-4.61-1.69-6.56-24.16-6.05-44.44ZM315.85,572.74c-3.11-13.73-4.84-29.43-5.6-37.57-.03-.34.11-.66.37-.87.26-.21.62-.27.93-.17,10.73,3.39,26.55,6.8,37.7,6.8s26.96-3.42,37.7-6.8c.32-.1.67-.04.93.18.26.21.4.54.37.87-.76,8.17-2.51,23.92-5.6,37.57-1.65,7.26-18.44,11.18-33.4,11.18s-31.75-3.92-33.4-11.18ZM379.02,583.79c-1.42,26.76-10.07,58.01-29.77,58.01s-28.34-31.25-29.76-58.01c-.02-.35.15-.69.44-.89.29-.2.67-.22.99-.08,8.04,3.77,19.91,5.11,28.33,5.11s20.3-1.34,28.33-5.11c.33-.15.69-.12.99.08.29.2.46.53.44.89ZM318.12,678.07c-.31.2-.69.21-1.02.04-.32-.18-.52-.51-.52-.87-.06-7.7-.27-15.45-.44-21.68-.47-17.59-.92-34.2,1.42-44.32.1-.45.5-.77.96-.78.47-.04.87.31.98.76,4.01,15.79,12.43,34.61,29.75,34.61s25.74-18.82,29.75-34.61c.11-.45.58-.83.98-.76.46,0,.86.33.96.78,2.35,10.13,1.89,26.83,1.42,44.51v.25c-.19,6.87-.38,13.97-.44,21.25,0,.36-.2.7-.52.87-.33.17-.71.16-1.02-.04-2.36-1.49-4.88-3.87-6.33-5.56-.46-.53-1.12-.8-1.79-.68-.68.09-1.26.51-1.55,1.12-1.9,3.98-6.27,6.62-21.48,6.62s-19.58-2.64-21.47-6.61c-.29-.62-.87-1.04-1.55-1.13-.54-.08-1.34.16-1.79.69-.81.94-3.52,3.76-6.33,5.54ZM319.8,720.7v-.32c-.44-16.06-.82-29.94,1.13-39.02.05-.25.2-.46.4-.61,1.18-.82,2.37-1.81,3.56-2.92.19-.18.42-.27.72-.27.27,0,.52.13.7.32,3.73,4,10.6,5.71,22.95,5.71s19.21-1.71,22.95-5.71c.18-.19.43-.31.7-.32.23,0,.52.09.72.27,1.22,1.14,2.41,2.12,3.56,2.92.21.14.35.36.4.62,1.94,9.08,1.55,23.58,1.13,38.94v.39c-.17,5.99-.33,12.17-.39,18.49,0,.37-.21.71-.54.88-.33.16-.73.15-1.03-.06-2.06-1.4-4-3.3-5.13-4.6-.44-.51-1.13-.77-1.77-.68-.69.09-1.27.51-1.56,1.13-1.66,3.49-5.54,5.81-19.05,5.81s-17.39-2.32-19.05-5.81c-.29-.62-.87-1.04-1.55-1.13-.7-.11-1.34.16-1.8.69-1.12,1.3-3.05,3.19-5.11,4.6-.31.21-.7.22-1.03.06-.33-.17-.53-.51-.54-.88-.06-6.33-.22-12.51-.38-18.49ZM209.53,791.68c.12-.36.44-.62.82-.67,1.69-.21,3.29-.65,4.46-.96l.68-.18c11.79-3.14,22.14-8.65,31.27-13.52,8.75-4.66,16.27-8.67,21.77-8.67,11.41,0,26.55,10.58,35.79,20.41,1.55,1.65,1.63,2.98.29,5.1-.27.43-.82.58-1.27.37-26.69-12.57-37.03-8.26-50.1-2.81-5.78,2.42-12.32,5.15-21.24,6.57-2.71.43-5.21.65-7.49.65-6.4,0-11.18-1.72-14.73-5.26-.27-.27-.37-.67-.24-1.04ZM184.53,709.49c10.71-7.88,27.52-13.68,43.78-19.3,22.44-7.75,43.64-15.08,52.49-27.89,4.7-6.81,7.91-13.89,9.53-21.04.12-.51.59-.82,1.11-.77.51.07.89.51.87,1.03-.34,10.03-3.39,20.07-8.84,29.05-9.04,12.31-22.94,18.25-36.39,23.99-9.16,3.91-18.62,7.95-26.3,13.92-10.13,7.88-14.3,18.4-17.98,27.69-3.26,8.24-6.33,16.01-13.03,20.62-4.53,3.13-9.44,4.74-13.95,4.74-2.74,0-5.33-.6-7.59-1.81-4.83-2.6-7.42-7.57-7.3-13.99,3.91-21.23,21.59-34.76,23.59-36.23ZM176.96,791.39c-.25,0-.49-.09-.68-.26-4.97-4.56-8.91-10.15-11.72-16.63-1.91-4.4-3.23-8.9-3.91-13.37-.07-.43.15-.86.54-1.05.39-.19.86-.12,1.16.19,1.16,1.18,2.5,2.18,3.97,2.97,7.22,3.89,17.32,2.65,25.73-3.16,7.69-5.3,10.98-13.62,14.46-22.42,3.68-9.28,7.46-18.83,16.72-26.03,7.26-5.64,16.07-9.41,25.39-13.39,5.13-2.18,10.92-4.65,16.48-7.62.43-.22.95-.12,1.26.26.3.38.29.92-.03,1.29-6.15,7.03-13.22,14.81-20.05,22.33-26.4,29.08-45.33,50.47-48.53,60.9-.13.42-.52.71-.96.71-4.13,0-6.26,3.42-8.13,6.43-2.29,3.68-4.89,7.84-11.56,8.84-.05,0-.1.01-.15.01ZM300.93,798.15c-1.57,2.3-2.11,4.18-1.75,6.1.09.44.22.88.41,1.3.13.31.1.67-.08.95-.18.28-.5.45-.84.45h-68.42c-13.38,0-32.92-1.16-48.01-11.16-.31-.2-.48-.56-.45-.93.04-.37.27-.69.6-.83,5.24-2.24,7.81-6.37,9.68-9.37,1.92-3.08,3.03-4.54,4.84-4.54.53,0,.92.33,1.02.77.87,3.67,2.25,6.28,4.21,7.97.1.09.18.2.24.32,5.22,10.69,14.82,14.54,30.24,12.11,9.4-1.5,16.18-4.33,22.16-6.83,12.47-5.22,21.48-8.99,45.73,2.22.27.12.47.36.55.64.08.28.03.59-.14.83ZM306.8,806.95c-.2,0-.38-.05-.54-.15-2.34-1.47-3-2.61-3.13-3.31-.26-1.33.9-2.91,2.7-5.17,2.1-2.63,5.27-6.61,2.83-11.01-.2-.35-.16-.79.09-1.11,1.78-2.25,4.86-6.17,6.71-8.65.42-.56.51-1.29.26-1.94-.26-.64-.84-1.12-1.51-1.24-1.93-.35-4.03-2.01-5.93-4.69-.16-.23-.22-.53-.16-.8.07-.28.25-.52.49-.65,8.79-4.84,15.47-16.86,16.2-25.05.02-.28.16-.53.39-.71.84-.64,1.57-1.27,2.15-1.81.4-.37,1.02-.35,1.4.04,3.42,3.49,9.56,4.98,20.52,4.98s17.1-1.49,20.52-4.98c.38-.39,1-.4,1.4-.04.66.61,1.33,1.17,1.99,1.69.25.19.39.49.39.81-.36,23.65-9.52,63.4-66.75,63.79ZM392.25,806.8c-.16.1-.35.15-.53.15-14.75-.1-27.35-2.91-37.45-8.35-.3-.16-.5-.46-.53-.8-.03-.34.11-.67.38-.88,14.84-11.61,20.3-28.39,22.27-40.42.07-.42.39-.75.81-.83.42-.07.83.11,1.05.48,3.13,5.31,7.38,9.72,11.66,12.09.25.14.43.38.49.65.06.28,0,.57-.16.8-1.9,2.68-4.01,4.34-5.93,4.69-.68.12-1.26.6-1.51,1.24-.25.65-.16,1.38.26,1.94,1.86,2.47,4.93,6.39,6.71,8.64.25.32.29.76.09,1.11-2.43,4.39.74,8.37,2.84,11.01,1.79,2.25,2.95,3.83,2.7,5.16-.14.7-.79,1.84-3.13,3.31ZM516.28,795.79c-15.09,10.01-34.63,11.16-48.01,11.16h-68.43c-.34,0-.66-.17-.84-.45-.18-.28-.22-.64-.08-.95.18-.42.32-.86.41-1.3.36-1.91-.18-3.79-1.75-6.1-.17-.24-.22-.55-.14-.83.08-.29.28-.52.55-.64,24.23-11.18,33.25-7.43,45.73-2.22,5.98,2.5,12.76,5.33,22.16,6.83,2.88.46,5.59.69,8.06.69,10.57,0,18.04-4.3,22.18-12.79.06-.12.14-.23.24-.32,1.96-1.7,3.34-4.31,4.22-7.99.11-.46.47-.83,1-.77,1.87.04,2.82,1.27,4.86,4.55,1.87,3.01,4.44,7.13,9.68,9.37.34.15.57.46.6.83.03.37-.14.72-.45.93ZM533.95,774.5c-2.81,6.48-6.75,12.07-11.72,16.63-.18.17-.43.26-.68.26-6.82-1.01-9.42-5.17-11.71-8.84-1.88-3.02-4-6.43-8.15-6.43-.44,0-.83-.29-.96-.71-3.18-10.43-22.11-31.82-48.52-60.91-6.47-7.12-13.8-15.19-20.05-22.33-.32-.36-.33-.91-.03-1.29.3-.38.83-.49,1.26-.26,5.5,2.93,11.29,5.41,16.4,7.59,9.4,4.01,18.2,7.77,25.48,13.42,9.27,7.22,13.06,16.78,16.72,26.04,3.48,8.8,6.77,17.11,14.46,22.41,8.43,5.82,18.53,7.05,25.73,3.16,1.47-.79,2.8-1.78,3.97-2.97.3-.31.77-.38,1.16-.19.39.2.61.62.54,1.05-.67,4.44-1.99,8.94-3.91,13.37Z"/></g></svg>