<?xml version="1.0" encoding="UTF-8"?><svg id="Layer_2" xmlns="http://www.w3.org/2000/svg" viewBox="0 0 136.59 133.68"><defs><style>.cls-1{fill:#e3cda2;}</style></defs><g id="graphics2"><path class="cls-1" d="M105.54,102.63v10.06h13.39c-1.67,5.11-6.47,8.81-12.13,8.81-7.04,0-12.77-5.73-12.77-12.77V22.1h-.02c-.38-12.25-10.46-22.1-22.81-22.1-7.19,0-13.61,3.34-17.8,8.56C49.21,3.34,42.79,0,35.6,0s-13.61,3.34-17.8,8.56C13.61,3.34,7.19,0,0,0v10.06c7.04,0,12.77,5.73,12.77,12.77v86.63h10.06V22.83c0-7.04,5.73-12.77,12.77-12.77s12.77,5.73,12.77,12.77v86.63h10.06V22.83c0-7.04,5.73-12.77,12.77-12.77s12.77,5.73,12.77,12.77v86.63h.02c.38,12.25,10.46,22.1,22.81,22.1,8.42,0,15.78-4.59,19.74-11.39v13.51h10.06v-31.05h-31.05Z"/></g></svg>