<?xml version="1.0" encoding="UTF-8"?><svg id="Layer_2" xmlns="http://www.w3.org/2000/svg" viewBox="0 0 820.12 1108.86"><defs><style>.cls-1{fill:#dfc594;}</style></defs><g id="graphics"><path class="cls-1" d="M468.25,74.44s-35.84,30.62-27.37,78.84c8.47,48.22,58.48,89.59,116.63,135.52,58.15,45.93,89.43,102.62,52.29,114.35-37.14,11.73-66.46-15.64-106.53-11.73-40.07,3.91-47.89,39.58,11.24,67.92,59.13,28.34,206.22,64.02,241.89,125.59,35.67,61.57,12.22,124.61-41.05,111.42-53.26-13.19-88.45-72.81-146.6-78.19-58.15-5.38-20.52,25.9-5.86,37.14,14.66,11.24,47.73,56.03,16.13,69.07-31.6,13.03-53.1-31.93-85.35-24.43-32.25,7.49-13.03,30.95,4.89,40.72s29.97,34.86-2.28,48.87c-32.25,14.01-78.84,39.74-90.57,82.42-11.73,42.68,6.84,80.47,44.96,99.36,38.12,18.9,78.51,48.21,90.57,81.12,12.05,32.9,8.14,57.99,5.54,56.36-2.61-1.63.98-38.44-29.32-68.74-30.3-30.3-82.42-34.86-132.27-84.38-49.84-49.52-139.11-162.56-180.81-196.12-41.7-33.56-125.42-69.39-151.16-119.89-25.74-50.5-6.84-91.54,15.96-104.57,22.8-13.03,63.85,15.31,103.92,61.9,40.07,46.59,71.02,110.76,119.56,101.64,48.54-9.12,35.18-47.89,14.01-73.63-21.18-25.74-20.85-45.93-1.95-56.69,18.89-10.75,72.97,27.04,113.04,28.67,40.07,1.63,16.61-49.84-40.72-103.92-57.34-54.08-181.46-108.48-204.91-170.71-23.46-62.22,37.14-77.86,117.93-57.99,80.79,19.87,104.57,51.8,142.69,30.3,38.12-21.5-24.11-80.79-12.38-141.06,11.73-60.27,47.89-79.16,47.89-79.16Z"/><path class="cls-1" d="M536.01,0s-41.05,40.07-43.49,99.2c-2.44,59.13,25.9,107.02,98.71,168.1-47.4-52.78-84.46-100.01-85.52-159.79-1.06-59.79,30.3-107.51,30.3-107.51Z"/><path class="cls-1" d="M202.74,202.31s-87.96,14.17-102.13,84.54c-14.17,70.37,21.5,109.46,59.62,142.69,38.12,33.23,72.32,64.99,72.32,64.99,0,0-67.44-49.84-104.09-77.21-36.65-27.36-61.67-70.86-46.96-130.96,14.71-60.11,88.99-83.07,121.24-84.05Z"/><path class="cls-1" d="M623.97,481.01s98.28,31.93,149.48,89.26c51.2,57.34,40.77,97.73,40.77,97.73,0,0,27.36-46.91-35.84-112.07-63.2-65.15-154.42-74.93-154.42-74.93Z"/><path class="cls-1" d="M68.19,507.07s-44.96-2.61-50.17,52.12c-5.21,54.73,5.67,87.96,59.2,127.05,53.52,39.09,84.8,54.08,84.8,54.08,0,0-108.54-45.93-145.16-111.09-36.62-65.16-10.88-133.57,51.34-122.17Z"/><path class="cls-1" d="M798.42,704.66s-18.57,35.67-71.35,21.5c-52.77-14.17-105.55-70.22-108.97-51.48-3.42,18.74,21.99,42.68,19.55,68.09-2.44,25.41-47.89,14.17-47.89,14.17,0,0,31.27,21.01,51.8,7.82,20.52-13.19-25.49-77.54-17.59-84.05,7.9-6.51,52.78,54.73,106.04,60.11,53.26,5.38,68.41-36.16,68.41-36.16Z"/><path class="cls-1" d="M479.32,814.61s-58.15,17.59-60.59,69.88c-2.44,52.29,32.25,67.44,60.59,86.98,28.34,19.55,36.65,30.79,36.65,30.79,0,0-14.36-22.07-44.47-40.07-30.1-18-47.64-52.29-42.27-86.74,5.38-34.45,38.12-54.24,50.09-60.84Z"/></g></svg>