<?xml version="1.0" encoding="UTF-8"?><svg id="Layer_2" xmlns="http://www.w3.org/2000/svg" viewBox="0 0 96.11 134.11"><defs><style>.cls-1{fill:#e3cda2;}</style></defs><g id="graphics2"><path class="cls-1" d="M69.48,43.03c4.58-2.29,8.83-5.32,12.55-9.05,9.08-9.08,14.08-21.15,14.08-33.98h-10.06c0,20.95-17.05,38-38,38S10.06,20.95,10.06,0H0c0,12.84,5,24.9,14.08,33.98,3.73,3.73,7.97,6.76,12.55,9.05-4.58,2.29-8.83,5.32-12.55,9.05C5,61.15,0,73.22,0,86.06s5,24.9,14.08,33.98c9.08,9.08,21.15,14.08,33.98,14.08s24.9-5,33.98-14.08c9.08-9.08,14.08-21.15,14.08-33.98s-5-24.9-14.08-33.98c-3.73-3.73-7.97-6.76-12.55-9.05ZM48.06,124.05c-20.95,0-38-17.05-38-38s17.05-38,38-38,38,17.05,38,38-17.05,38-38,38Z"/></g></svg>