<?xml version="1.0" encoding="UTF-8"?><svg id="Layer_2" xmlns="http://www.w3.org/2000/svg" viewBox="0 0 698.52 921.33"><defs><style>.cls-1{fill:#58365f;}</style></defs><g id="graphics"><path class="cls-1" d="M238.46,413.57c-.18-.05-.36-.08-.54-.08-.32,0-.64.08-.93.25-1.04.58-2.2,1.13-3.46,1.63-.99.4-1.47,1.54-1.07,2.53.39.97,1.55,1.47,2.53,1.07,1.41-.57,2.72-1.19,3.88-1.84.46-.25.78-.67.93-1.17.14-.5.08-1.02-.17-1.47-.25-.46-.67-.79-1.17-.93Z"/><path class="cls-1" d="M100.93,381.92c-1.67,0-3.34-.14-4.98-.41-.12-.02-.23-.03-.35-.03-.4,0-.78.12-1.11.35-.42.3-.7.75-.79,1.28-.09.51.03,1.03.34,1.45.3.42.75.7,1.26.79,1.85.31,3.74.46,5.62.46,1.07,0,1.94-.87,1.94-1.94s-.87-1.94-1.94-1.94Z"/><path class="cls-1" d="M181.34,312.37c.34.12.58.43.63.79.05.36-.11.71-.4.92-7.67,5.42-17.57,7.35-24.28,7.35-7.81,0-47.71.67-66,13.97-11.93,8.68-20.32,20.47-26.45,29.08-2.28,3.21-4.24,5.95-5.95,7.97-3.96,4.65-5.29,9.04-3.85,12.68,1.56,3.95,6.12,6.43,13.55,7.38.12.02.23.05.33.1,13.32,6.99,31.43,8.85,40.03,8.85,11.96,0,33.23-8.55,42.14-16.93.55-.52,1.13-1.12,1.73-1.75.14-.14.31-.24.51-.28,2.18-.44,4.34-.64,6.45-.64,10.8,0,20.2,5.19,24.17,9.14.19.19.3.46.28.73-.22,4.83.58,9.41,2.39,13.6.05.13.08.26.08.4-.24,22.36-11.35,36.06-22.1,49.3-10.41,12.83-21.16,26.1-21.16,46.61,0,32.68,22.45,77.16,57.2,113.31,32.62,33.93,53.46,59.57,63.73,78.38,2.23,4.08,4.73,9.14,7.39,14.5,15.6,31.51,39.17,79.14,77.5,79.14s61.91-47.62,77.51-79.14c2.65-5.35,5.14-10.4,7.38-14.5,10.26-18.81,31.11-44.44,63.73-78.38,34.75-36.15,57.2-80.63,57.2-113.31,0-20.52-10.76-33.78-21.16-46.61-10.75-13.25-21.86-26.94-22.1-49.31,0-.14.03-.27.08-.4,1.81-4.2,2.62-8.77,2.39-13.6-.01-.27.09-.54.28-.73,4.74-4.74,17.25-11.23,30.61-8.5.2.04.37.14.51.28.6.63,1.18,1.23,1.73,1.75,8.91,8.39,30.18,16.93,42.14,16.93,8.6,0,26.71-1.86,40.03-8.85.1-.05.21-.09.33-.1,7.44-.94,12-3.43,13.55-7.38,1.44-3.64.11-8.03-3.85-12.68-1.73-2.03-3.69-4.79-5.97-7.99-6.12-8.6-14.5-20.39-26.43-29.06-18.29-13.3-58.18-13.97-66-13.97-6.7,0-16.6-1.93-24.28-7.35-.3-.21-.45-.56-.4-.92.05-.36.29-.66.63-.79,103.05-37.24,155.29-82.73,155.29-135.23,0-46.2-49.9-74.76-98.15-102.37-39.62-22.68-77.04-44.09-83.91-73.28-.21-.9-1.1-1.55-1.98-1.49-.95.05-1.72.76-1.84,1.69-7.36,57.65,24.39,81.91,52.41,103.32,16.8,12.84,32.67,24.96,37.74,42.81,5.64,19.89-4.34,41.33-23.22,49.86-22.64,10.24-45.32,15.89-80.91,20.16-.22.02-.43-.02-.61-.13-5.84-3.47-12.51-5.04-19.22-4.56-22.69,1.62-61.8,3.34-103.52,3.34s-80.83-1.73-103.52-3.34c-6.76-.5-13.4,1.09-19.23,4.56-.18.11-.4.16-.61.13-35.58-4.27-58.27-9.92-80.9-20.16-18.88-8.54-28.86-29.97-23.22-49.86,5.06-17.84,20.93-29.97,37.74-42.81,28.01-21.41,59.76-45.67,52.41-103.32-.12-.93-.9-1.65-1.85-1.7-.82-.02-1.76.63-1.96,1.5-6.87,29.18-44.29,50.6-83.9,73.27-48.27,27.62-98.16,56.17-98.16,102.38,0,52.49,52.25,97.99,155.29,135.23ZM148.42,381.72c-8.2,7.72-28.49,15.88-39.47,15.88-7.82,0-25.97-1.81-38.67-8.64-.22-.12-.45-.19-.69-.22-6.05-.69-9.93-2.47-10.93-5.01-.86-2.19.27-5.29,3.2-8.73,1.84-2.16,3.83-4.96,6.14-8.21,6-8.44,14.17-19.92,25.59-28.23,17.31-12.59,56.11-13.23,63.71-13.23s19.67-2.48,28.3-9.45c.21-.17.47-.24.73-.21.26.03.5.17.66.38,2.27,3.02,5.1,5.56,8.42,7.55,1.44.86,2.95,1.75,4.51,2.67l1.08.64c.29.17.47.47.48.8.15,4.54.84,7.8,1.54,10.76.47,1.98.8,3.5.75,4.93-.02.45-.34.83-.78.92-6.87,1.4-19.41-.91-31.54-3.14-18.32-3.37-39.08-7.18-55.64-3.41-26.83,6.1-39.06,28.48-38.43,35.11.26,2.71,2.32,5.5,5.79,7.85.4.27.93.37,1.45.27.52-.1.97-.39,1.25-.79.29-.43.4-.95.3-1.46-.1-.51-.39-.95-.82-1.24-2.42-1.64-3.95-3.51-4.1-5-.42-4.44,9.95-25.17,35.42-30.96,15.81-3.59,36.17.15,54.13,3.45,2.71.5,5.36.98,7.91,1.43.38.06.68.35.77.72.1.37-.04.76-.34,1-7.44,5.86-14.88,14.96-20.87,22.27-3.87,4.73-7.22,8.82-9.85,11.3ZM474.28,421.88c6.84,1.06,13.52.74,19.34-.94.37-.1.75,0,1,.29.25.28.31.68.17,1.02-6.19,14.56-9.73,32.11-10.25,39.93-.61,9.14-6.42,51.19-8.18,57.93-4.17,16.01-18.78,35.18-30.51,50.58-3.56,4.67-6.71,8.83-9.32,12.55-.19.26-.49.41-.79.41-.1,0-.21-.02-.31-.05-.41-.14-.68-.53-.66-.96.16-3.72.36-7.83.56-11.98.37-7.76.75-15.79.75-18.94,0-8.21-5.02-17.95-16.05-19.95-.46-.08-.8-.49-.8-.95v-3.48c-.05-25.55-.1-54.51,6.32-69.26,2.24-5.14,5.63-10.22,9.22-15.59,6.62-9.9,13.45-20.12,13.45-31.65,0-1.22-.05-2.4-.1-3.58-.02-.43.25-.83.66-.97,3.1-1.03,6.38-3.13,9.47-6.08.21-.2.49-.29.77-.26,2.56.27,4.97,1.34,8.08,2.82,4.17,1.98,9.37,4.44,16.38,4.44,1.24,0,2.52-.08,3.83-.23,10.73-1.3,18.37-7.56,20.97-17.19.12-.45.51-.8,1.01-.71.46.04.84.4.89.86,1.4,12.76-5.28,21.34-11.43,24.8-8.53,4.81-18.61,4.14-23.86,3.33-1.05-.16-2.05.56-2.22,1.62-.16,1.06.56,2.05,1.62,2.22ZM349.26,654.05c-12.08,0-21.66,3.12-29.36,5.62-5.43,1.76-10.1,3.28-14.2,3.28s-7.03-3.93-7.86-11.07c-.03-.29.06-.57.26-.78.2-.21.48-.34.77-.3h.27c5.46.01,9.79-2.44,13.98-4.8,4.04-2.28,8.21-4.64,13.67-5.04.45-.04.87-.08,1.3-.11l.72-.06c6.56-.57,13.28-1.15,20.45-1.15s13.91.58,20.43,1.15l2,.16c5.51.42,9.68,2.77,13.71,5.05,4.19,2.37,8.52,4.81,13.98,4.81h.27c.3-.05.57.08.77.29.2.21.29.5.26.78-.84,7.14-3.63,11.07-7.86,11.07s-8.78-1.52-14.19-3.28c-7.71-2.51-17.29-5.62-29.37-5.62ZM378.48,664.32c.04.39-.16.76-.5.95-4.81,2.65-10.8,5.94-28.72,5.94s-23.91-3.3-28.72-5.94c-.34-.19-.54-.56-.5-.95s.3-.71.67-.83l.4-.13c7.82-2.54,16.69-5.43,28.15-5.43s20.33,2.89,28.15,5.43l.39.13c.37.12.64.44.67.83ZM292.36,602.84c5.57,7.26,13.01,11.77,19.41,11.77,5.1,0,9.4-3.79,10.21-9.02.68-4.39-1.36-10.42-9.38-12.99-7.23-2.32-16.93-8.19-23.6-14.29-5.53-5.06-8.57-9.85-8.57-13.49,0-4.29,2.84-8.91,9.07-8.91,4.71,0,10.67,4.96,17.57,10.71,10.86,9.04,24.38,20.3,42.18,20.3s31.32-11.26,42.18-20.3c6.9-5.75,12.86-10.71,17.57-10.71,6.23,0,9.07,4.62,9.07,8.91,0,3.65-3.05,8.44-8.58,13.49-6.66,6.1-16.37,11.97-23.6,14.29-8.02,2.57-10.06,8.61-9.38,12.99.82,5.23,5.11,9.02,10.21,9.02,6.4,0,13.83-4.51,19.41-11.77,3.3-4.3,5.58-9.01,6.58-13.61.09-.43.46-.74.9-.76.46-.03.83.25.97.67,2.4,7.28,1.83,16.58.09,21.63-.39,1.11-9.71,27.16-27.22,27.16-5.6,0-11.31-.49-17.35-1.02-6.71-.58-13.52-1.17-20.86-1.17s-14.19.59-20.82,1.17c-6.13.53-11.81,1.02-17.4,1.02-17.64,0-27.12-26.9-27.22-27.17-1.75-5.05-2.31-14.34.09-21.63.13-.42.54-.74.97-.67.44.02.81.33.9.76,1.01,4.61,3.28,9.31,6.58,13.61ZM289.17,585.64c-.03-.39.17-.75.51-.94.33-.18.76-.15,1.06.09,6.6,5.17,14.33,9.47,20.68,11.51,4.82,1.54,7.33,4.79,6.72,8.69-.45,2.85-2.78,5.73-6.37,5.73-5.22,0-11.47-3.93-16.32-10.25-3.64-4.75-5.87-10.02-6.27-14.84ZM409.34,585.64c-.4,4.82-2.63,10.09-6.27,14.84-4.85,6.32-11.11,10.25-16.32,10.25-3.59,0-5.93-2.88-6.37-5.73-.61-3.9,1.9-7.15,6.72-8.69,6.35-2.04,14.08-6.34,20.68-11.51.31-.24.72-.27,1.06-.09.34.18.54.55.51.94ZM399.38,646.92c-3.96,0-7.3-1.66-10.39-3.37-.37-.21-.57-.63-.48-1.05.09-.42.44-.73.86-.77,19.08-1.7,28.6-28.56,28.99-29.7,2.23-6.44,3.34-22.87-4.17-31.69-.32-.38-.31-.95.04-1.31,3.53-3.63,7.73-9.05,7.73-14.22,0-6.36-4.45-12.79-12.96-12.79-6.13,0-12.58,5.38-20.06,11.61-10.38,8.64-23.3,19.4-39.69,19.4s-29.31-10.76-39.69-19.4c-7.48-6.23-13.93-11.61-20.06-11.61-8.51,0-12.96,6.43-12.96,12.79,0,5.17,4.2,10.58,7.73,14.22.35.36.37.93.04,1.31-7.51,8.82-6.4,25.26-4.17,31.7.4,1.14,9.93,27.99,28.99,29.7.42.04.78.35.86.77.09.42-.11.84-.48,1.05-3.08,1.7-6.43,3.37-10.38,3.37-12.85,0-31.11-27.13-31.11-52.47,0-4.53-.46-14.23-.91-23.62l-.02-.35c-.39-8.14-.75-15.75-.75-18.76,0-5.7,3.45-16.48,16.52-16.48,9.9,0,19.79,6.89,30.25,14.18,11.38,7.92,23.14,16.12,36.14,16.12s24.77-8.2,36.15-16.13c10.46-7.29,20.34-14.17,30.24-14.17,13.07,0,16.52,10.78,16.52,16.48,0,3.02-.36,10.63-.75,18.68l-.02.43c-.45,9.38-.91,19.08-.91,23.61,0,25.33-18.26,52.47-31.11,52.47ZM263.22,570.81l.06,1.24c.17,3.64.35,7.27.49,10.61.02.43-.25.82-.66.96-.1.03-.21.05-.31.05-.31,0-.61-.15-.8-.41-2.69-3.83-5.94-8.12-9.32-12.54-11.74-15.4-26.34-34.57-30.52-50.58-1.76-6.74-7.57-48.8-8.18-57.94-.53-7.8-4.05-25.33-10.23-39.87-.15-.34-.08-.74.16-1.02.25-.28.64-.4.99-.29,5.87,1.67,12.92,1.95,19.84.8.51-.09.96-.36,1.26-.79.3-.42.42-.94.34-1.45-.09-.52-.37-.98-.8-1.28-.42-.3-.93-.41-1.42-.32-5.37.89-15.66,1.66-24.35-3.25-6.12-3.45-12.79-11.99-11.45-24.68.05-.46.42-.83.89-.87.46-.04.89.26,1.02.71,2.63,9.56,10.28,15.78,20.99,17.07,1.29.16,2.57.23,3.83.23,7.02,0,12.21-2.46,16.38-4.44,3.01-1.43,5.52-2.54,8.08-2.82.29-.03.57.07.77.26,3.1,2.95,6.37,5.06,9.47,6.09.41.14.68.53.66.97-.05,1.18-.1,2.35-.1,3.57,0,11.53,6.83,21.75,13.43,31.63,3.6,5.39,7,10.47,9.24,15.62,6.42,14.76,6.37,43.73,6.32,69.28v3.46c0,.47-.34.87-.8.95-11.03,2-16.05,11.75-16.05,19.95,0,3.17.39,11.25.76,19.08ZM206.79,337.56c-.38-1.6-.85-3.6-1.16-6.06-.05-.37.12-.73.44-.94.31-.2.72-.21,1.03-.01,14.94,9.12,31.05,20.93,37.33,39.29,5.62,16.44,6.29,25,6.21,31.21,0,.33-.18.64-.46.82-.16.09-.33.14-.51.14-.15,0-.29-.03-.43-.1-4.21-2.09-10.14-7.19-14.18-15.26-6.64-13.29-15.81-20.02-27.24-20.02-2.42,0-10.71.6-15.75,8.25-.22.33-.63.49-1.02.42-.39-.09-.69-.4-.75-.8-.55-3.56.02-7.54,1.54-10.66,1.88-3.88,5.49-6.95,8.67-9.65,3.19-2.71,5.94-5.05,6.76-7.91.87-3.06.22-5.8-.46-8.69ZM206.79,391.35c-.11-.51-.41-.94-.84-1.23-3.21-2.08-6.28-10.61-3.94-18.14.09-.3.32-.53.62-.63,2.07-.7,3.96-.85,5.19-.85,8.59,0,15.81,4.63,21.46,13.76.15.24.19.55.09.82-1.42,4.21-5.81,7.38-7.67,7.82-.5.12-.93.43-1.2.87-.27.44-.36.96-.24,1.46.12.5.43.92.88,1.2.45.28.97.36,1.46.25,2.19-.52,5.87-2.98,8.38-6.5.19-.27.52-.47.84-.41.33.02.63.2.79.49.99,1.75,2.12,3.46,3.36,5.08.19.25.25.58.15.88-.1.3-.33.54-.64.63-1.95.61-3.82,1.47-5.72,2.37-4.23,2.01-8.58,4.07-14.65,4.07-1.09,0-2.22-.07-3.43-.21-15.24-1.84-18.57-12.3-18.69-20.75,0-.1.01-.2.04-.29.6-2.02,1.44-3.83,2.5-5.35.24-.35.68-.5,1.1-.37.41.13.68.51.67.94-.12,6.8,2.62,13.57,6.53,16.11.41.27.94.36,1.46.24.52-.11.96-.41,1.23-.81.28-.44.38-.96.27-1.46ZM305.67,500.53c7.44-3.26,15.86-6.96,22.22-22.08,1.85-4.4,3-10.36,4.22-16.66,2.69-13.95,5.75-29.76,17.15-29.76s14.45,15.81,17.15,29.76c1.22,6.31,2.37,12.26,4.22,16.66,6.36,15.12,14.78,18.82,22.22,22.08,7.13,3.13,12.3,15.38,6.82,34.91-.07.26-.25.48-.49.6-5.36,2.78-10.77,6.55-16,10.2-10.88,7.58-22.14,15.42-33.92,15.42s-23.04-7.84-33.92-15.42c-5.23-3.65-10.64-7.42-16-10.2-.24-.12-.42-.34-.49-.6-5.48-19.52-.3-31.78,6.82-34.91ZM478.03,393.77c-.27-.44-.7-.75-1.2-.87-1.86-.44-6.25-3.61-7.67-7.82-.09-.28-.06-.58.09-.82,5.65-9.13,12.87-13.76,21.46-13.76,1.23,0,3.12.15,5.19.85.29.1.52.34.61.63,2.33,7.53-.74,16.06-3.94,18.14-.44.28-.74.72-.84,1.22-.11.51-.01,1.03.27,1.46.55.85,1.83,1.12,2.69.57,3.91-2.54,6.65-9.32,6.52-16.12,0-.43.27-.81.67-.94.4-.13.85.02,1.1.37,1.06,1.53,1.91,3.33,2.51,5.37.03.09.04.19.04.29-.12,8.45-3.45,18.91-18.69,20.75-1.21.15-2.35.21-3.45.21-6.05,0-10.4-2.07-14.63-4.07-1.8-.85-3.73-1.74-5.73-2.36-.3-.09-.54-.33-.64-.63s-.04-.63.15-.88c1.24-1.63,2.37-3.33,3.36-5.07.16-.29.46-.47.8-.49.34-.04.65.13.84.4,2.51,3.51,6.2,5.96,8.39,6.48.5.12,1.02.03,1.46-.25.45-.28.76-.7.88-1.19.12-.5.04-1.03-.24-1.47ZM508.23,374.48c-.06.4-.36.72-.75.8-.39.09-.8-.08-1.02-.42-5.04-7.66-13.33-8.25-15.75-8.25-11.44,0-20.6,6.73-27.24,20.02-4.03,8.07-9.97,13.15-14.19,15.22-.13.07-.28.1-.43.1-.18,0-.35-.05-.51-.14-.28-.17-.46-.48-.46-.81-.08-6.19.59-14.73,6.21-31.16,6.28-18.35,22.38-30.15,37.31-39.27.32-.19.72-.19,1.03.01.31.2.48.57.44.94-.29,2.38-.72,4.29-1.14,6.06-.69,2.9-1.34,5.64-.46,8.69.82,2.86,3.57,5.2,6.76,7.91,3.18,2.71,6.78,5.77,8.66,9.65,1.51,3.12,2.09,7.1,1.54,10.66ZM493.73,324.39c-.08.2-.22.37-.41.47-16.97,10.07-35.69,22.59-42.91,43.71-7.03,20.56-6.62,29.46-6.25,37.32.08,1.64.15,3.25.15,4.93,0,10.36-6.5,20.08-12.79,29.49-3.54,5.29-7.19,10.76-9.56,16.22-6.74,15.5-6.69,44.9-6.64,70.84v3.08c0,.52-.4.95-.92.97-2.8.13-5.63.72-8.66,1.77-.33.12-.7.05-.96-.19-.26-.23-.38-.59-.31-.93,4.14-19.39-2.07-31.6-10.06-35.1-7.43-3.26-14.44-6.33-20.2-20.02-1.69-4.03-2.8-9.78-3.98-15.87-2.98-15.45-6.36-32.93-20.97-32.93s-17.99,17.48-20.97,32.91c-1.18,6.1-2.29,11.85-3.98,15.89-5.76,13.69-12.77,16.77-20.2,20.02-7.99,3.5-14.19,15.71-10.05,35.1.07.34-.05.7-.31.93-.18.16-.41.24-.64.24-.11,0-.21-.02-.32-.05-3.04-1.06-5.88-1.64-8.67-1.78-.52-.02-.92-.45-.92-.97v-3.1c.05-25.93.1-55.32-6.64-70.82-2.37-5.45-6.02-10.92-9.55-16.2-6.3-9.42-12.8-19.14-12.8-29.5,0-1.68.07-3.29.16-5.02.37-7.81.78-16.66-6.25-37.23-7.22-21.12-25.94-33.64-42.91-43.71-.18-.11-.33-.28-.41-.47-2.24-5.59-1.11-13.28,2.88-19.59,4.84-7.65,12.86-12.03,22-12.03,30.83,0,53.15,30.82,72.85,58.02,16.24,22.43,30.27,41.8,46.74,41.8s30.49-19.37,46.74-41.8c19.7-27.2,42.03-58.02,72.85-58.02,9.14,0,17.16,4.39,22,12.03,3.99,6.31,5.12,14,2.88,19.59ZM185.18,385.18c-.07.32-.3.58-.61.69-.11.04-.22.06-.34.06-.21,0-.41-.06-.58-.19-6.49-4.82-15.35-7.7-23.68-7.7h-.87c-.43-.06-.73-.2-.9-.54-.17-.34-.12-.75.13-1.04.95-1.14,1.93-2.33,2.95-3.59l.75.61-.74-.63c7.47-9.14,16.77-20.5,25.23-25.02.18-.09.38-.13.59-.1,4.71.64,8.28.9,11.27.86.34.02.78.24.92.62.15.38.04.81-.27,1.08l-1.05.9c-3.47,2.95-7.4,6.29-9.64,10.92-1.8,3.71-3.03,9.86-1.11,16,.07.21.06.44-.02.65-.85,2.12-1.52,4.28-2.01,6.41ZM530.89,457.5c10.44,12.87,20.3,25.02,20.3,44.17,0,31.73-22.03,75.15-56.11,110.62-33.32,34.67-53.77,59.84-64.34,79.21-2.27,4.16-4.89,9.45-7.42,14.57-15.21,30.73-38.14,77.05-74.06,77.05s-58.85-46.32-74.02-76.98c-2.57-5.19-5.18-10.47-7.46-14.64-10.57-19.37-31.02-44.54-64.34-79.21-34.09-35.47-56.11-78.89-56.11-110.62,0-19.15,9.86-31.3,20.3-44.17,9.83-12.12,19.99-24.65,22.4-43.78.05-.38.31-.69.67-.8.35-.12.75-.01,1.01.27,1.61,1.74,3.43,3.24,5.4,4.45.15.09.27.22.35.38,2.05,3.96,4.01,8.69,5.83,14.07.05.16.06.33.03.49-3.38,17.74-10.96,32-23.85,44.89-10.58,10.58-11.87,33.04-3.2,55.89.17.46.55.84,1.05,1.06.49.21,1.01.24,1.45.07.5-.19.88-.55,1.09-1.02.21-.47.23-1,.04-1.49-8.13-21.44-7.2-42.24,2.32-51.76,11.08-11.08,18.21-22.88,22.46-37.15.13-.42.61-.7.95-.69.44,0,.81.31.92.73,1.91,7.37,3.23,14.6,3.55,19.35.62,9.25,6.52,51.82,8.3,58.65,4.37,16.78,19.24,36.28,31.19,51.96,6.45,8.46,11.99,15.74,14.44,20.69.06.13.1.27.1.42v.27c0,22.27,14.12,49.02,29.05,55.06.35.14.58.47.61.85.22,3.87,1.74,16.49,11.91,16.49,1.85,0,3.88-.27,6.38-.84.15-.04.31-.04.46,0,2.19.56,3.91,1.45,6.1,2.66,5.21,2.87,11.69,6.43,30.62,6.43s25.41-3.57,30.62-6.43c2.19-1.21,3.91-2.1,6.1-2.66.15-.04.31-.04.46,0,2.5.57,4.53.84,6.38.84,10.17,0,11.69-12.62,11.91-16.49.02-.38.26-.7.61-.85,14.93-6.04,29.04-32.93,29.05-55.32,0-.15.03-.3.1-.43,2.45-4.95,7.99-12.23,14.41-20.65,11.98-15.71,26.85-35.22,31.22-52,1.78-6.83,7.68-49.41,8.3-58.65.32-4.74,1.65-11.98,3.55-19.35.11-.42.49-.72.92-.73.48-.04.82.28.95.69,4.25,14.27,11.38,26.07,22.46,37.15,5.3,5.3,8.07,14.34,7.8,25.45-.02,1.07.86,1.96,1.97,1.99,1.04,0,1.89-.83,1.92-1.9.3-12.18-2.88-22.23-8.93-28.28-12.89-12.89-20.47-27.16-23.85-44.89-.03-.17-.02-.33.03-.49,1.82-5.38,3.78-10.11,5.83-14.07.08-.16.21-.29.35-.38,1.97-1.21,3.79-2.71,5.4-4.45.25-.28.65-.38,1.01-.27.36.12.62.43.67.8,2.41,19.14,12.57,31.67,22.4,43.78ZM540.31,377.5c-.17.34-.6.47-.9.55-8.68-.23-17.81,2.67-24.56,7.67-.17.13-.37.19-.58.19-.11,0-.23-.02-.34-.06-.31-.11-.54-.37-.61-.69-.49-2.12-1.16-4.26-2.01-6.39-.08-.21-.09-.44-.02-.65,1.92-6.14.69-12.29-1.11-16-2.24-4.62-6.18-7.97-9.65-10.92l-1.06-.91c-.31-.27-.42-.7-.27-1.08.15-.38.51-.62.92-.63,3.12.04,6.83-.25,11.28-.85.2-.03.41,0,.59.1,8.46,4.52,17.76,15.89,25.23,25.03,1.03,1.26,2.01,2.45,2.95,3.59.24.29.29.7.13,1.04ZM541.23,325.32c7.6,0,46.4.64,63.71,13.23,11.41,8.3,19.59,19.79,25.56,28.18,2.34,3.29,4.33,6.09,6.17,8.25,2.93,3.44,4.06,6.54,3.2,8.73-1,2.54-4.88,4.32-10.92,5.01-.25.03-.48.1-.7.22-12.7,6.84-30.85,8.64-38.67,8.64-10.99,0-31.28-8.16-39.47-15.88-2.63-2.47-5.97-6.55-9.83-11.28-6-7.33-13.44-16.43-20.89-22.3-.3-.24-.43-.63-.34-1,.09-.37.4-.65.77-.72,2.55-.44,5.2-.93,7.91-1.43,17.95-3.3,38.31-7.05,54.13-3.45,25.47,5.79,35.84,26.52,35.42,30.95-.19,1.96-2.67,4.43-6.32,6.31-.46.24-.8.64-.96,1.13-.16.49-.12,1.02.12,1.48.22.43.64.78,1.15.94.51.16,1.04.13,1.46-.09,5.03-2.58,8.1-6,8.42-9.4.63-6.64-11.6-29.02-38.42-35.12-16.59-3.76-37.36.05-55.7,3.42-12.1,2.22-24.62,4.53-31.47,3.13-.44-.09-.76-.47-.78-.92-.05-1.43.28-2.95.75-4.93.7-2.95,1.39-6.22,1.54-10.76.01-.33.19-.64.48-.8l1.08-.63c1.57-.92,3.08-1.81,4.52-2.67,3.32-1.99,6.15-4.53,8.43-7.55.16-.21.39-.35.66-.38.26-.04.53.04.73.21,8.63,6.98,20.64,9.46,28.29,9.46ZM478.08,221.63c.12-.35.43-.61.8-.66,32.46-4.21,54.55-9.93,76.25-19.74,20.62-9.32,31.52-32.74,25.35-54.47-5.42-19.09-21.79-31.59-39.11-44.83-23.25-17.77-49.59-37.9-51.73-78.89-.02-.47.28-.88.74-.99.46-.11.92.11,1.12.54,12.03,26.14,44.65,49.73,76.2,72.53,34.8,25.16,67.67,48.93,72.5,74.12,3.15,16.44-2.2,32.45-15.89,47.59-.35.39-.53.89-.5,1.4.03.52.25,1,.64,1.34.36.32.85.51,1.4.47.53-.03,1.02-.25,1.34-.6,14.56-16.09,20.22-33.23,16.83-50.93-5.12-26.7-38.59-50.9-74.03-76.53-27.21-19.67-55.32-39.99-69.67-61.6-.28-.42-.19-.99.21-1.3.4-.31.97-.26,1.32.11,16.32,17.92,42.66,33,70.54,48.95,47.32,27.08,96.22,55.07,96.22,99.02,0,50.42-50.87,94.5-151.19,131-.11.04-.22.06-.33.06-.25,0-.49-.09-.67-.27-.27-.26-.37-.64-.26-.99.19-.59.34-1.16.48-1.72,1.87-7.75.88-16.46-2.73-23.91-.12-.25-.13-.55-.02-.81s.33-.46.6-.54c23.85-7.48,45.15-15.97,63.31-25.25.95-.49,1.33-1.66.85-2.61-.48-.94-1.66-1.32-2.62-.84-18.31,9.35-39.81,17.89-63.91,25.38-.41.13-.88-.04-1.11-.41l-2.6-4.17c-7.26-11.6-16.29-26.03-23.88-41.04-1.54-3.05-3.63-5.88-6.2-8.39-.27-.26-.36-.65-.24-1ZM245.46,217.04c22.75,1.62,61.96,3.36,103.8,3.36s81.05-1.73,103.8-3.36c11.68-.85,22.73,5.33,27.99,15.74,7.66,15.15,16.75,29.67,24.05,41.34l3.79,6.08c4.35,7,5.86,16.25,3.95,24.13-1.65,6.81-5.7,12.32-11.72,15.93l-1,.59c-.31.19-.7.18-1.01-.01-.31-.19-.48-.54-.45-.9.47-5.74-1.14-11.85-4.53-17.21-5.56-8.8-14.78-13.84-25.29-13.84-32.81,0-55.76,31.68-76,59.63-14.97,20.67-29.11,40.19-43.59,40.19s-28.61-19.52-43.59-40.19c-20.25-27.95-43.19-59.63-76-59.63-10.51,0-19.72,5.04-25.29,13.84-3.39,5.36-5.01,11.47-4.56,17.19.03.36-.15.71-.45.9-.31.19-.69.2-1.01.01l-.97-.57c-6.02-3.61-10.08-9.13-11.73-15.94-1.91-7.88-.39-17.12,3.95-24.12l3.81-6.11c7.3-11.67,16.38-26.18,24.03-41.32,5.25-10.39,16.24-16.56,27.99-15.74ZM126.12,78.15c27.72-15.87,53.89-30.84,70.25-48.6.35-.37.92-.42,1.32-.1.4.32.49.88.21,1.31-14.47,21.49-42.32,41.66-64.7,57.87-.42.3-.7.75-.78,1.26-.08.51.04,1.03.34,1.45.28.39.75.67,1.28.75.52.08,1.05-.03,1.44-.31,26.47-19.18,59.42-43.04,71.58-69.2.2-.42.66-.65,1.11-.53.45.11.76.53.74.99-2.13,41-28.48,61.13-51.73,78.9-17.34,13.25-33.71,25.75-39.12,44.84-6.16,21.73,4.74,45.14,25.35,54.46,21.68,9.81,43.77,15.53,76.24,19.74.37.05.68.3.8.65.12.35.02.74-.24,1-2.57,2.52-4.65,5.34-6.19,8.39-7.59,14.99-16.62,29.43-23.87,41.03l-2.61,4.18c-.23.38-.69.55-1.11.41-42.18-13.14-139.1-49.9-128.07-107.42,2.44-12.72,12.26-26.17,30.9-42.3.39-.34.63-.81.66-1.33s-.13-1.02-.47-1.41c-.34-.39-.81-.63-1.33-.67-.52-.05-1.02.13-1.41.47-19.34,16.74-29.57,30.88-32.18,44.51-11.15,58.18,76.36,94.82,129.52,111.48.27.09.49.28.6.54.11.26.11.55-.02.81-3.61,7.45-4.6,16.16-2.72,23.91.13.56.29,1.13.48,1.71.11.35.01.74-.25.99-.18.18-.42.27-.67.27-.11,0-.22-.02-.33-.06C80.79,271.64,29.93,227.57,29.93,177.15c0-43.95,48.9-71.93,96.19-99Z"/><path class="cls-1" d="M285.54,260.93c.35.01.71.02,1.06.02,12.4,0,22.56-9.71,23.12-22.11.02-.52-.16-1.02-.51-1.4-.36-.39-.85-.61-1.44-.63-.98,0-1.89.85-1.93,1.85-.23,5.14-2.46,9.88-6.26,13.36-3.79,3.46-8.7,5.24-13.87,5.02-5.14-.24-9.89-2.46-13.36-6.26-3.47-3.8-5.25-8.73-5.02-13.87.02-.52-.16-1.02-.51-1.4-.35-.38-.83-.61-1.35-.63-1.06,0-1.97.82-2.02,1.86-.28,6.17,1.86,12.09,6.03,16.66,4.17,4.57,9.87,7.24,16.05,7.52Z"/><path class="cls-1" d="M301.07,289.89c-3.26-3.98-4.78-8.99-4.28-14.11.11-1.07-.68-2.02-1.75-2.13-.08,0-.15-.01-.23-.01-.44,0-.85.14-1.18.42-.41.33-.66.8-.71,1.34-.61,6.16,1.22,12.18,5.14,16.96,3.92,4.78,9.47,7.75,15.63,8.36,6.19.6,12.17-1.21,16.96-5.14,4.78-3.92,7.75-9.47,8.36-15.63.11-1.07-.68-2.02-1.74-2.13-.53-.03-1.05.1-1.45.43-.38.32-.62.79-.68,1.31-.5,5.12-2.98,9.74-6.95,13-3.99,3.28-9.02,4.81-14.12,4.28-5.12-.5-9.74-2.98-13-6.95Z"/><path class="cls-1" d="M109.04,111.09c2.99-2.26,6.04-4.52,9.13-6.78.42-.31.69-.76.77-1.27.08-.51-.05-1.02-.35-1.44-.31-.42-.76-.7-1.28-.78-.1-.02-.21-.02-.31-.02-.4,0-.79.13-1.12.38-3.11,2.28-6.17,4.55-9.17,6.81-.86.65-1.03,1.87-.38,2.72.62.83,1.89,1.01,2.72.38Z"/><path class="cls-1" d="M608.93,235.72c2.35-1.75,4.62-3.53,6.72-5.3.4-.34.65-.8.69-1.32.05-.52-.11-1.02-.44-1.42-.34-.4-.8-.65-1.32-.69-.62,0-1.07.15-1.42.44-2.08,1.74-4.28,3.47-6.55,5.17-.42.31-.69.76-.77,1.28-.07.51.06,1.02.37,1.44.61.83,1.89,1.02,2.72.4Z"/><path class="cls-1" d="M185.84,544.72c-.25-.45-.66-.78-1.16-.92-.18-.05-.36-.07-.54-.07-.33,0-.65.08-.95.25-.45.25-.78.66-.92,1.17-.14.5-.08,1.02.17,1.47.97,1.74,2,3.48,3.08,5.17.55.87,1.8,1.15,2.68.59.44-.28.74-.71.85-1.22.11-.51.02-1.03-.26-1.46-1.01-1.58-2.01-3.25-2.96-4.97Z"/><path class="cls-1" d="M465.7,415.65c-1.55-.59-2.95-1.23-4.16-1.91-.3-.16-.62-.25-.94-.25-.18,0-.36.03-.55.08-.49.14-.9.47-1.15.92-.25.46-.32.98-.17,1.48.14.5.47.91.92,1.16,1.39.78,2.97,1.5,4.67,2.15.97.37,2.14-.15,2.51-1.12.18-.49.17-1.02-.04-1.49-.21-.47-.6-.83-1.08-1.02Z"/><path class="cls-1" d="M602.25,381.56c-1.55.24-3.12.36-4.67.36-1.07,0-1.94.87-1.94,1.94s.87,1.94,1.94,1.94c1.74,0,3.51-.14,5.26-.4.51-.08.96-.35,1.27-.77s.43-.93.35-1.44c-.16-1.03-1.19-1.77-2.22-1.62Z"/><path class="cls-1" d="M349.26,267.42c13.84,0,25.1-11.26,25.1-25.1,0-1.07-.87-1.94-1.94-1.94s-1.94.87-1.94,1.94c0,11.7-9.52,21.22-21.21,21.22s-21.21-9.52-21.21-21.22c0-1.07-.87-1.94-1.94-1.94s-1.94.87-1.94,1.94c0,13.84,11.26,25.1,25.1,25.1Z"/><path class="cls-1" d="M372.41,313.24c-1.07,0-1.94.87-1.94,1.94,0,11.7-9.52,21.21-21.21,21.21s-21.21-9.52-21.21-21.21c0-1.07-.87-1.94-1.94-1.94s-1.94.87-1.94,1.94c0,13.84,11.26,25.1,25.1,25.1s25.1-11.26,25.1-25.1c0-1.07-.87-1.94-1.94-1.94Z"/><path class="cls-1" d="M412.98,260.93c6.18-.28,11.88-2.95,16.05-7.52,4.17-4.57,6.31-10.49,6.03-16.66-.02-.51-.25-.98-.64-1.33-.28-.26-.78-.54-1.38-.52-.53.02-1.01.25-1.36.63s-.53.88-.51,1.4c.23,5.14-1.55,10.07-5.02,13.87-3.47,3.8-8.21,6.02-13.35,6.25-5.08.26-10.04-1.52-13.87-5.02-3.8-3.47-6.02-8.21-6.25-13.36-.05-1.06-.9-1.85-1.95-1.85-.6.02-1.08.25-1.43.63s-.53.88-.51,1.4c.58,12.75,11.31,22.62,24.18,22.09Z"/><path class="cls-1" d="M363.37,279.56c-.1-1.02-.93-1.75-1.93-1.75-.07,0-.13,0-.2.01-1.06.1-1.85,1.06-1.74,2.12.61,6.15,3.58,11.7,8.36,15.63,4.79,3.93,10.77,5.74,16.96,5.14,6.15-.61,11.7-3.58,15.63-8.36,3.92-4.78,5.75-10.81,5.14-16.96-.05-.53-.3-1-.7-1.33-.39-.32-.91-.46-1.43-.41-1.07.11-1.85,1.06-1.74,2.13.51,5.12-1.01,10.13-4.28,14.11-3.26,3.98-7.88,6.45-13.01,6.96-5.1.51-10.12-1.01-14.11-4.28-3.98-3.26-6.45-7.88-6.96-13Z"/><path class="cls-1" d="M521.29,530.36c-1-.37-2.13.14-2.5,1.14-2.36,6.32-5.41,12.44-9.08,18.19-.57.9-.31,2.11.6,2.68.88.56,2.13.28,2.68-.6,3.81-5.99,6.99-12.35,9.44-18.92.18-.49.16-1.02-.05-1.49-.22-.47-.6-.83-1.09-1.01Z"/><path class="cls-1" d="M525.33,514.01c-1.02-.16-2.05.56-2.23,1.6-.28,1.67-.63,3.38-1.03,5.1-.24,1.04.41,2.09,1.45,2.34,1.01.24,2.09-.42,2.33-1.45.42-1.78.78-3.58,1.08-5.35.09-.51-.03-1.02-.33-1.45-.3-.43-.76-.71-1.27-.79Z"/><path class="cls-1" d="M364.89,844.59c9.06-3.19,15.06-9.89,19.71-15.32,5.85-6.82,11.8-13.3,23.46-13.3,1.07,0,1.94-.87,1.94-1.94s-.87-1.94-1.94-1.94c-13.87,0-20.25,7.45-26.42,14.66-6.88,8.05-14,16.36-32.4,16.36s-25.51-8.32-32.39-16.36c-6.17-7.21-12.55-14.66-26.42-14.66-1.07,0-1.94.87-1.94,1.94s.87,1.94,1.94,1.94c12.08,0,17.36,6.16,23.46,13.3,4.8,5.62,10.24,11.98,19.71,15.31.38.13.63.48.65.88.01.4-.22.76-.58.92-14.3,6.23-23.53,20.29-23.53,35.82,0,21.56,17.54,39.11,39.11,39.11s39.11-17.54,39.11-39.11c0-15.54-9.24-29.6-23.53-35.82-.37-.16-.6-.53-.58-.92.02-.4.27-.75.65-.88ZM384.48,882.22c0,19.42-15.8,35.22-35.22,35.22s-35.22-15.8-35.22-35.22,15.8-35.22,35.22-35.22,35.22,15.8,35.22,35.22Z"/><path class="cls-1" d="M349.26,185.6c32.34,0,58.64-26.31,58.64-58.65,0-13.84-4.94-27.28-13.9-37.87-.64-.75-1.73-.91-2.55-.37-.82.54-1.11,1.61-.67,2.49,3.26,6.52,4.91,13.49,4.91,20.7,0,25.61-20.83,46.44-46.44,46.44s-46.44-20.83-46.44-46.44c0-7.21,1.65-14.18,4.91-20.7.44-.88.15-1.95-.67-2.49-.33-.22-.7-.32-1.07-.32-.55,0-1.1.24-1.48.69-8.96,10.58-13.9,24.03-13.9,37.87,0,32.34,26.31,58.65,58.64,58.65ZM297.05,110.51c.14-.46.59-.75,1.08-.67.48.08.82.5.81.98v1.09c-.01,27.75,22.56,50.33,50.31,50.33s50.33-22.58,50.33-50.33v-1.09c-.02-.48.33-.9.8-.98.5-.08.94.21,1.08.67,1.69,5.36,2.55,10.9,2.55,16.44,0,30.2-24.56,54.76-54.76,54.76s-54.76-24.56-54.76-54.76c0-5.55.86-11.08,2.55-16.44Z"/><path class="cls-1" d="M103.6,637.1c-18.85,0-37.22,6.6-51.72,18.58-.76.63-.93,1.73-.39,2.56.54.82,1.61,1.11,2.5.67,9.26-4.63,19.24-6.98,29.65-6.98,36.63,0,66.44,29.8,66.44,66.44s-29.8,66.44-66.44,66.44c-10.4,0-20.38-2.35-29.65-6.99-.28-.14-.57-.2-.87-.2-.64,0-1.26.31-1.63.88-.54.83-.37,1.93.39,2.56,14.51,11.99,32.88,18.59,51.73,18.59,44.81,0,81.27-36.46,81.27-81.27s-36.46-81.27-81.27-81.27ZM103.6,795.76c-9.89,0-19.99-1.98-29.21-5.73-.45-.18-.7-.67-.57-1.14.12-.47.57-.79,1.06-.72,2.88.36,5.83.54,8.76.54,38.78,0,70.32-31.55,70.32-70.32s-31.55-70.32-70.32-70.32c-2.93,0-5.88.18-8.76.54-.48.06-.94-.25-1.06-.72-.12-.47.12-.96.57-1.14,9.22-3.75,19.33-5.73,29.21-5.73,42.67,0,77.38,34.71,77.38,77.38s-34.71,77.38-77.38,77.38Z"/><path class="cls-1" d="M88.57,752.48c0,1.07.87,1.94,1.94,1.94s1.94-.87,1.94-1.94c0-14.48,9.9-32.17,21.46-32.17,1.07,0,1.94-.87,1.94-1.94s-.87-1.94-1.94-1.94c-11.56,0-21.46-17.69-21.46-32.17,0-1.07-.87-1.94-1.94-1.94s-1.94.87-1.94,1.94c0,14.48-9.9,32.17-21.46,32.17-1.07,0-1.94.87-1.94,1.94s.87,1.94,1.94,1.94c11.56,0,21.46,17.69,21.46,32.17ZM76.29,717.55c5.53-3.43,10.38-9.97,13.31-17.93.28-.76,1.54-.76,1.82,0,2.93,7.96,7.78,14.49,13.31,17.93.29.18.46.49.46.83s-.17.65-.46.83c-5.53,3.43-10.38,9.97-13.31,17.93-.14.38-.5.64-.91.64s-.77-.25-.91-.64c-2.93-7.96-7.78-14.49-13.31-17.93-.29-.18-.46-.49-.46-.83s.17-.65.46-.83Z"/><path class="cls-1" d="M647.03,658.24c.54-.83.37-1.93-.39-2.56-14.51-11.98-32.88-18.58-51.73-18.58-44.81,0-81.27,36.46-81.27,81.27s36.46,81.27,81.27,81.27c18.85,0,37.22-6.6,51.72-18.59.76-.63.93-1.73.39-2.56-.54-.82-1.62-1.12-2.49-.67-9.28,4.64-19.25,6.99-29.65,6.99-36.63,0-66.44-29.8-66.44-66.44s29.8-66.44,66.44-66.44c10.4,0,20.38,2.35,29.65,6.99.88.43,1.96.14,2.49-.68ZM623.65,648.59c-2.88-.36-5.83-.54-8.76-.54-38.78,0-70.32,31.55-70.32,70.32s31.55,70.32,70.32,70.32c2.93,0,5.88-.18,8.76-.54.48-.08.94.25,1.06.72.12.47-.12.96-.57,1.14-9.22,3.75-19.32,5.73-29.21,5.73-42.67,0-77.38-34.71-77.38-77.38s34.71-77.38,77.38-77.38c9.89,0,19.99,1.98,29.21,5.73.45.18.7.67.57,1.14-.12.47-.58.79-1.06.72Z"/><path class="cls-1" d="M609.95,684.26c0-1.07-.87-1.94-1.94-1.94s-1.94.87-1.94,1.94c0,14.48-9.9,32.17-21.46,32.17-1.07,0-1.94.87-1.94,1.94s.87,1.94,1.94,1.94c11.56,0,21.46,17.69,21.46,32.17,0,1.07.87,1.94,1.94,1.94s1.94-.87,1.94-1.94c0-14.48,9.9-32.17,21.46-32.17,1.07,0,1.94-.87,1.94-1.94s-.87-1.94-1.94-1.94c-11.56,0-21.46-17.69-21.46-32.17ZM622.22,719.2c-5.53,3.43-10.38,9.97-13.31,17.93-.14.38-.5.64-.91.64s-.77-.25-.91-.64c-2.93-7.96-7.78-14.49-13.31-17.93-.29-.18-.46-.49-.46-.83s.17-.65.46-.83c5.53-3.43,10.38-9.97,13.31-17.93.28-.76,1.54-.76,1.82,0,2.93,7.96,7.78,14.49,13.31,17.93.29.18.46.49.46.83s-.17.65-.46.83Z"/><path class="cls-1" d="M697.95,510.68l-34.7-34.7c-.76-.76-1.99-.76-2.75,0l-20.29,20.29c-.38.38-.99.38-1.37,0l-10.29-10.29c-.72-.72-2.03-.72-2.75,0l-24.71,24.71c-.37.37-.57.86-.57,1.37s.2,1.01.57,1.37l24.71,24.71c.72.72,2.03.72,2.75,0l10.29-10.29c.18-.18.43-.28.69-.28s.5.1.69.28l20.29,20.29c.74.73,2.01.73,2.75,0l34.7-34.7c.37-.37.57-.86.57-1.37s-.2-1.01-.57-1.37ZM636.08,525.09l-8.23,8.23c-.18.18-.43.28-.69.28s-.5-.1-.69-.28l-20.59-20.59c-.18-.18-.28-.43-.28-.69s.1-.5.28-.69l20.59-20.59c.38-.38.99-.38,1.37,0l8.23,8.23c.38.38.38.99,0,1.37l-10.29,10.29c-.37.37-.57.86-.57,1.37s.2,1.01.57,1.37l10.29,10.29c.38.38.38.99,0,1.37ZM639.52,521.26c-.25,0-.5-.1-.69-.28l-8.23-8.23c-.38-.38-.38-.99,0-1.37l8.23-8.23c.38-.38.99-.38,1.37,0l8.23,8.23c.38.38.38.99,0,1.37l-8.23,8.23c-.19.19-.44.28-.69.28ZM693.14,512.74l-30.58,30.58c-.18.18-.43.28-.69.28s-.5-.1-.69-.28l-18.23-18.23c-.38-.38-.38-.99,0-1.37l10.29-10.29c.76-.76.76-1.99,0-2.75l-10.29-10.29c-.38-.38-.38-.99,0-1.37l18.23-18.23c.38-.38.99-.38,1.37,0l30.58,30.58c.18.18.28.43.28.69s-.1.5-.28.69Z"/><path class="cls-1" d="M59.68,527.84l10.29,10.29c.72.72,2.03.72,2.75,0l24.71-24.71c.37-.37.57-.86.57-1.37s-.2-1.01-.57-1.37l-24.71-24.71c-.72-.72-2.03-.72-2.75,0l-10.29,10.29c-.38.38-.99.38-1.37,0l-20.29-20.29c-.38-.38-.88-.57-1.37-.57s-.99.19-1.37.57L.57,510.68c-.37.37-.57.86-.57,1.37s.2,1.01.57,1.37l34.7,34.7c.74.73,2.01.73,2.75,0l20.29-20.29c.36-.36,1.01-.36,1.37,0ZM62.43,499.01l8.23-8.23c.38-.38.99-.38,1.37,0l20.59,20.59c.18.18.28.43.28.69s-.1.5-.28.69l-20.59,20.59c-.18.18-.43.28-.69.28s-.5-.1-.69-.28l-8.23-8.23c-.38-.38-.38-.99,0-1.37l10.29-10.29c.37-.37.57-.86.57-1.37s-.2-1.01-.57-1.37l-10.29-10.29c-.38-.38-.38-.99,0-1.37ZM59.68,503.13l8.23,8.23c.38.38.38.99,0,1.37l-8.23,8.23c-.19.19-.44.28-.69.28s-.5-.1-.69-.28l-8.23-8.23c-.38-.38-.38-.99,0-1.37l8.23-8.23c.38-.38.99-.38,1.37,0ZM55.56,525.09l-18.23,18.23c-.18.18-.43.28-.69.28s-.5-.1-.69-.28l-30.58-30.58c-.18-.18-.28-.43-.28-.69s.1-.5.28-.69l30.58-30.58c.38-.38.99-.38,1.37,0l18.23,18.23c.38.38.38.99,0,1.37l-10.29,10.29c-.76.76-.76,1.99,0,2.75l10.29,10.29c.38.38.38.99,0,1.37Z"/><path class="cls-1" d="M347.74,81.44c.74.93,2.29.93,3.04,0l25.41-31.84c.57-.72.57-1.71,0-2.43l-25.41-31.84c-.64-.8-2.39-.8-3.04,0l-25.41,31.84c-.57.72-.57,1.71,0,2.43l25.41,31.84ZM335.45,36.96l13.05-16.35c.37-.46,1.15-.46,1.52,0l13.05,16.35c.28.35.28.86,0,1.21l-13.05,16.35c-.18.23-.46.37-.76.37s-.57-.13-.76-.37l-13.05-16.35c-.28-.35-.28-.86,0-1.21ZM326.81,47.78l4.9-6.14c.37-.46,1.15-.46,1.52,0l14.5,18.17c.69.86,2.35.86,3.04,0l14.51-18.17c.18-.23.46-.37.76-.37s.57.13.76.37l4.9,6.14c.28.35.28.86,0,1.21l-21.68,27.17c-.18.23-.46.37-.76.37s-.57-.13-.76-.37l-21.68-27.17c-.28-.35-.28-.86,0-1.21Z"/><path class="cls-1" d="M212.3,150.36c-1.41-11.62-11.29-20.38-22.99-20.38-3.29,0-6.49.69-9.52,2.06-.69.31-1.14,1.01-1.14,1.77s.45,1.46,1.14,1.77c6.9,3.12,11.36,10.01,11.36,17.57s-4.46,14.45-11.36,17.57c-.69.31-1.14,1.01-1.14,1.77s.45,1.46,1.14,1.77c3.02,1.37,6.23,2.07,9.52,2.07,11.69,0,21.58-8.76,22.99-20.38.06-.49.47-.85.96-.85h18.84c.41,0,.78.26.92.65,1.09,3.09,4.02,5.17,7.28,5.17s6.19-2.08,7.29-5.17c.14-.39.5-.65.92-.65h27.82c1.07,0,1.94-.87,1.94-1.94s-.87-1.94-1.94-1.94h-27.82c-.41,0-.78-.26-.92-.65-1.1-3.09-4.02-5.17-7.29-5.17s-6.19,2.08-7.28,5.17c-.14.39-.5.65-.92.65h-18.84c-.49,0-.91-.37-.96-.85ZM189.31,172.45c-.58,0-1.17-.03-1.75-.08-.39-.04-.72-.3-.83-.67-.12-.37,0-.78.29-1.03,5.09-4.42,8.02-10.8,8.02-17.51s-2.92-13.09-8.02-17.51c-.29-.25-.41-.66-.29-1.03.12-.37.45-.64.83-.67.58-.05,1.16-.08,1.74-.08,10.63,0,19.29,8.65,19.29,19.29s-8.65,19.29-19.29,19.29ZM240.31,149.29c2.14,0,3.88,1.74,3.88,3.87s-1.74,3.87-3.88,3.87-3.87-1.74-3.87-3.87,1.74-3.87,3.87-3.87Z"/><path class="cls-1" d="M422.19,155.1h27.82c.41,0,.78.26.92.65,1.1,3.09,4.02,5.17,7.29,5.17s6.19-2.08,7.28-5.17c.14-.39.5-.65.92-.65h18.84c.49,0,.91.37.96.85,1.41,11.62,11.29,20.38,22.99,20.38,3.29,0,6.5-.69,9.52-2.06.69-.31,1.14-1.01,1.14-1.77s-.45-1.46-1.14-1.77c-6.9-3.12-11.36-10.01-11.36-17.57s4.46-14.45,11.36-17.57c.69-.31,1.14-1.01,1.14-1.77s-.45-1.46-1.14-1.77c-3.03-1.37-6.24-2.06-9.52-2.06-11.69,0-21.58,8.76-22.99,20.38-.06.49-.47.85-.96.85h-18.84c-.41,0-.78-.26-.92-.65-1.09-3.09-4.02-5.17-7.28-5.17s-6.19,2.08-7.29,5.17c-.14.39-.5.65-.92.65h-27.82c-1.07,0-1.94.87-1.94,1.94s.87,1.94,1.94,1.94ZM509.2,133.87c.58,0,1.17.03,1.74.08.39.04.72.3.83.67.12.37,0,.78-.29,1.03-5.09,4.42-8.02,10.8-8.02,17.51s2.92,13.09,8.02,17.51c.29.25.41.66.29,1.03-.12.37-.45.64-.83.67-.58.05-1.16.08-1.75.08-10.63,0-19.29-8.65-19.29-19.29s8.65-19.29,19.29-19.29ZM458.21,149.29c2.13,0,3.87,1.74,3.87,3.87s-1.74,3.87-3.87,3.87-3.87-1.74-3.87-3.87,1.74-3.87,3.87-3.87Z"/><path class="cls-1" d="M290.52,880.85c0-1.07-.87-1.94-1.94-1.94h-103.54c-1.07,0-1.94.87-1.94,1.94s.87,1.94,1.94,1.94h103.54c1.07,0,1.94-.87,1.94-1.94Z"/><path class="cls-1" d="M206.28,901.37l-4.48.59c-.51.07-.97.33-1.29.74-.31.41-.45.92-.39,1.44.14,1.04,1.07,1.82,2.18,1.67l4.48-.59c.51-.07.97-.33,1.29-.74.32-.41.45-.92.39-1.44-.07-.52-.34-.99-.75-1.3-.41-.31-.9-.44-1.43-.37Z"/><path class="cls-1" d="M291.34,892.13c-.07-.53-.34-.99-.75-1.31-.33-.25-.73-.38-1.15-.38-.09,0-.18,0-.27.02l-74.13,9.76c-1.06.14-1.81,1.12-1.67,2.18.14,1.05,1.06,1.82,2.18,1.67l74.13-9.76c1.06-.14,1.81-1.12,1.67-2.18Z"/><path class="cls-1" d="M264.1,909.54c-.3-.17-.63-.26-.97-.26-.17,0-.34.02-.51.07l-29.74,7.97c-1.04.28-1.65,1.34-1.38,2.38.27,1.01,1.34,1.64,2.39,1.37l29.74-7.97c1.04-.28,1.65-1.34,1.38-2.38-.13-.5-.45-.92-.9-1.18Z"/><path class="cls-1" d="M291.85,901.51l-20.14,5.4c-.5.13-.92.46-1.18.91-.26.45-.33.97-.19,1.47.27,1.02,1.35,1.64,2.39,1.37l20.14-5.4c.5-.13.92-.46,1.18-.91.26-.45.33-.97.19-1.47-.28-1.02-1.35-1.64-2.39-1.37Z"/><path class="cls-1" d="M202.3,855.9c-.11-.02-.2-.02-.29-.02-.41,0-.8.13-1.14.39-.42.32-.68.78-.75,1.31-.14,1.06.61,2.04,1.67,2.18l13.23,1.74c1.09.16,2.04-.63,2.18-1.67.14-1.06-.61-2.04-1.67-2.18l-13.23-1.74Z"/><path class="cls-1" d="M223.17,858.65c-.11-.02-.2-.02-.29-.02-.41,0-.81.13-1.14.39-.42.32-.68.78-.75,1.31-.14,1.06.61,2.04,1.67,2.18l3.58.47c1.08.15,2.04-.63,2.18-1.67.14-1.06-.61-2.04-1.67-2.18l-3.57-.47Z"/><path class="cls-1" d="M236.63,864.34l53.04,6.98c1.08.15,2.04-.63,2.18-1.67.14-1.06-.61-2.04-1.67-2.18l-53.04-6.98c-1.06-.12-2.03.6-2.18,1.67-.14,1.06.61,2.04,1.67,2.18Z"/><path class="cls-1" d="M232.89,844.4l24.61,6.59c1.02.28,2.11-.36,2.38-1.37.28-1.04-.34-2.1-1.37-2.38l-24.6-6.59c-.5-.14-1.03-.07-1.48.19-.45.26-.77.68-.91,1.18-.28,1.03.34,2.1,1.37,2.38Z"/><path class="cls-1" d="M293.84,856.71l-25.37-6.8c-.16-.04-.33-.06-.49-.06-.86,0-1.65.57-1.89,1.44-.28,1.03.34,2.1,1.38,2.38l25.36,6.8c1.02.28,2.11-.36,2.38-1.37.28-1.04-.34-2.1-1.37-2.38Z"/><path class="cls-1" d="M513.48,878.91h-103.54c-1.07,0-1.94.87-1.94,1.94s.87,1.94,1.94,1.94h103.54c1.07,0,1.94-.87,1.94-1.94s-.87-1.94-1.94-1.94Z"/><path class="cls-1" d="M496.72,901.96s-4.48-.59-4.48-.59c-.09-.01-.18-.02-.28-.02-.43,0-.83.13-1.16.39-.41.31-.68.78-.75,1.3-.07.51.07,1.02.39,1.44.32.41.77.68,1.28.74l4.49.59c1.08.15,2.04-.63,2.18-1.67.07-.51-.07-1.03-.39-1.44-.32-.41-.77-.68-1.28-.74Z"/><path class="cls-1" d="M483.49,900.22l-74.12-9.76c-.1-.02-.19-.02-.29-.02-.42,0-.82.13-1.15.39-.42.32-.68.78-.75,1.31-.14,1.06.61,2.04,1.67,2.18l74.13,9.76c1.09.14,2.04-.63,2.18-1.67.14-1.06-.61-2.04-1.67-2.18Z"/><path class="cls-1" d="M465.64,917.32l-29.74-7.97c-.17-.05-.34-.07-.51-.07-.33,0-.66.09-.96.26-.45.26-.78.68-.91,1.18-.28,1.03.34,2.1,1.38,2.38l29.74,7.97c1.03.28,2.11-.36,2.38-1.37.28-1.04-.34-2.1-1.37-2.38Z"/><path class="cls-1" d="M426.8,906.91l-20.15-5.4c-.16-.04-.32-.06-.48-.06-.86,0-1.66.57-1.89,1.44-.28,1.03.34,2.1,1.38,2.38l20.14,5.4c1.01.28,2.11-.36,2.38-1.37.28-1.03-.34-2.1-1.38-2.38Z"/><path class="cls-1" d="M496.52,855.87c-.09,0-.18,0-.28.02-.03,0-13.26,1.75-13.26,1.75-1.06.14-1.81,1.12-1.67,2.18.14,1.05,1.06,1.83,2.18,1.67l13.23-1.74c1.06-.14,1.81-1.12,1.67-2.18-.07-.53-.34-.99-.76-1.31-.33-.25-.73-.39-1.12-.39Z"/><path class="cls-1" d="M472.29,862.97l3.57-.47c.51-.07.97-.33,1.29-.74.32-.41.45-.92.38-1.44-.07-.52-.34-.99-.76-1.3-.33-.25-.73-.39-1.15-.39-.09,0-.18,0-.27.02l-3.58.47c-1.06.14-1.81,1.12-1.67,2.18.14,1.05,1.07,1.82,2.18,1.67Z"/><path class="cls-1" d="M408.34,867.47c-1.06.14-1.81,1.12-1.67,2.18.14,1.05,1.06,1.82,2.18,1.67l53.04-6.98c1.06-.14,1.81-1.12,1.67-2.18-.07-.52-.34-.98-.76-1.3-.42-.31-.93-.45-1.41-.38l-53.05,6.99Z"/><path class="cls-1" d="M466.81,843.49c.26-.45.33-.97.19-1.47-.13-.5-.46-.92-.91-1.18-.3-.17-.62-.26-.96-.26-.17,0-.35.02-.52.07l-24.6,6.59c-1.04.28-1.65,1.34-1.38,2.38.27,1.01,1.34,1.64,2.39,1.37l24.6-6.59c.5-.13.92-.46,1.18-.91Z"/><path class="cls-1" d="M405.68,860.46l25.36-6.8c1.04-.28,1.65-1.35,1.37-2.38-.23-.86-1.02-1.44-1.89-1.44-.16,0-.33.02-.5.06l-25.36,6.8c-1.04.28-1.65,1.35-1.37,2.38.27,1.01,1.34,1.65,2.38,1.37Z"/><path class="cls-1" d="M234.56,768.84v12.62c0,1.07.87,1.94,1.94,1.94s1.94-.87,1.94-1.94v-12.62c0-.54.43-.97.97-.97h8.93c1.07,0,1.94-.87,1.94-1.94s-.87-1.94-1.94-1.94h-8.93c-.54,0-.97-.43-.97-.97v-12.62c0-1.07-.87-1.94-1.94-1.94s-1.94.87-1.94,1.94v12.62c0,.54-.43.97-.97.97h-8.93c-1.07,0-1.94.87-1.94,1.94s.87,1.94,1.94,1.94h8.93c.54,0,.97.43.97.97Z"/><path class="cls-1" d="M117.49,596.98c1.07,0,1.94-.87,1.94-1.94v-8.37c0-.54.43-.97.97-.97h5.69c1.07,0,1.94-.87,1.94-1.94s-.87-1.94-1.94-1.94h-5.69c-.54,0-.97-.43-.97-.97v-8.37c0-1.07-.87-1.94-1.94-1.94s-1.94.87-1.94,1.94v8.37c0,.54-.43.97-.97.97h-5.69c-1.07,0-1.94.87-1.94,1.94s.87,1.94,1.94,1.94h5.69c.54,0,.97.43.97.97v8.37c0,1.07.87,1.94,1.94,1.94Z"/><path class="cls-1" d="M247.42,71.89h5.69c.54,0,.97.43.97.97v8.37c0,1.07.87,1.94,1.94,1.94s1.94-.87,1.94-1.94v-8.37c0-.54.43-.97.97-.97h5.69c1.07,0,1.94-.87,1.94-1.94s-.87-1.94-1.94-1.94h-5.69c-.54,0-.97-.43-.97-.97v-8.37c0-1.07-.87-1.94-1.94-1.94s-1.94.87-1.94,1.94v8.37c0,.54-.43.97-.97.97h-5.69c-1.07,0-1.94.87-1.94,1.94s.87,1.94,1.94,1.94Z"/><path class="cls-1" d="M136.63,847.17h-4.38c-.54,0-.97-.43-.97-.97v-6.65c0-1.07-.87-1.94-1.94-1.94s-1.94.87-1.94,1.94v6.65c0,.54-.43.97-.97.97h-4.38c-1.07,0-1.94.87-1.94,1.94s.87,1.94,1.94,1.94h4.38c.54,0,.97.43.97.97v6.66c0,1.07.87,1.94,1.94,1.94s1.94-.87,1.94-1.94v-6.66c0-.54.43-.97.97-.97h4.38c1.07,0,1.94-.87,1.94-1.94s-.87-1.94-1.94-1.94Z"/><path class="cls-1" d="M111.45,436.04c-1.07,0-1.94.87-1.94,1.94v6.65c0,.54-.43.97-.97.97h-4.38c-1.07,0-1.94.87-1.94,1.94s.87,1.94,1.94,1.94h4.38c.54,0,.97.43.97.97v6.66c0,1.07.87,1.94,1.94,1.94s1.94-.87,1.94-1.94v-6.66c0-.54.43-.97.97-.97h4.38c1.07,0,1.94-.87,1.94-1.94s-.87-1.94-1.94-1.94h-4.38c-.54,0-.97-.43-.97-.97v-6.65c0-1.07-.87-1.94-1.94-1.94Z"/><path class="cls-1" d="M475.79,765.92c0-1.07-.87-1.94-1.94-1.94h-8.93c-.54,0-.97-.43-.97-.97v-12.62c0-1.07-.87-1.94-1.94-1.94s-1.94.87-1.94,1.94v12.62c0,.54-.43.97-.97.97h-8.93c-1.07,0-1.94.87-1.94,1.94s.87,1.94,1.94,1.94h8.93c.54,0,.97.43.97.97v12.62c0,1.07.87,1.94,1.94,1.94s1.94-.87,1.94-1.94v-12.62c0-.54.43-.97.97-.97h8.93c1.07,0,1.94-.87,1.94-1.94Z"/><path class="cls-1" d="M581.02,596.98c1.07,0,1.94-.87,1.94-1.94v-8.37c0-.54.43-.97.97-.97h5.69c1.07,0,1.94-.87,1.94-1.94s-.87-1.94-1.94-1.94h-5.69c-.54,0-.97-.43-.97-.97v-8.37c0-1.07-.87-1.94-1.94-1.94s-1.94.87-1.94,1.94v8.37c0,.54-.43.97-.97.97h-5.69c-1.07,0-1.94.87-1.94,1.94s.87,1.94,1.94,1.94h5.69c.54,0,.97.43.97.97v8.37c0,1.07.87,1.94,1.94,1.94Z"/><path class="cls-1" d="M433.88,71.89h5.69c.54,0,.97.43.97.97v8.37c0,1.07.87,1.94,1.94,1.94s1.94-.87,1.94-1.94v-8.37c0-.54.43-.97.97-.97h5.69c1.07,0,1.94-.87,1.94-1.94s-.87-1.94-1.94-1.94h-5.69c-.54,0-.97-.43-.97-.97v-8.37c0-1.07-.87-1.94-1.94-1.94s-1.94.87-1.94,1.94v8.37c0,.54-.43.97-.97.97h-5.69c-1.07,0-1.94.87-1.94,1.94s.87,1.94,1.94,1.94Z"/><path class="cls-1" d="M576.48,847.17h-4.38c-.54,0-.97-.43-.97-.97v-6.65c0-1.07-.87-1.94-1.94-1.94s-1.94.87-1.94,1.94v6.65c0,.54-.43.97-.97.97h-4.38c-1.07,0-1.94.87-1.94,1.94s.87,1.94,1.94,1.94h4.38c.54,0,.97.43.97.97v6.66c0,1.07.87,1.94,1.94,1.94s1.94-.87,1.94-1.94v-6.66c0-.54.43-.97.97-.97h4.38c1.07,0,1.94-.87,1.94-1.94s-.87-1.94-1.94-1.94Z"/><path class="cls-1" d="M596.3,447.55c0-1.07-.87-1.94-1.94-1.94h-4.38c-.54,0-.97-.43-.97-.97v-6.65c0-1.07-.87-1.94-1.94-1.94s-1.94.87-1.94,1.94v6.65c0,.54-.43.97-.97.97h-4.38c-1.07,0-1.94.87-1.94,1.94s.87,1.94,1.94,1.94h4.38c.54,0,.97.43.97.97v6.66c0,1.07.87,1.94,1.94,1.94s1.94-.87,1.94-1.94v-6.66c0-.54.43-.97.97-.97h4.38c1.07,0,1.94-.87,1.94-1.94Z"/></g></svg>