<?xml version="1.0" encoding="UTF-8"?><svg id="Layer_2" xmlns="http://www.w3.org/2000/svg" viewBox="0 0 698.52 931.15"><defs><style>.cls-1{fill:#58365f;}</style></defs><g id="graphics"><path class="cls-1" d="M312.91,419.37c.7-.62,1.23-.64,3.95-.64h.89c1.07,0,1.94-.87,1.94-1.94s-.87-1.94-1.94-1.94h-.88c-3.01.01-4.71.02-6.52,1.6-6.93,6.07-26.11,11.08-38.01-1.02-.67-.68-1.76-.76-2.54-.19-2.61,1.94-8.56,4.55-11.43,4.27-.51-.06-1.01.09-1.42.42-.41.33-.66.79-.72,1.31-.11,1.06.66,2.03,1.72,2.14,3.31.36,8.48-1.56,12.06-3.64.16-.09.32-.13.49-.13.3,0,.59.13.77.39.3.39.25.95-.1,1.28-1.97,1.89-5.14,4.27-5.75,4.73-.42.31-.69.76-.77,1.28-.08.51.05,1.03.36,1.45.62.83,1.91,1.02,2.7.41.06-.05,4.76-3.5,7.03-5.94.3-.33.79-.41,1.18-.18,4.44,2.49,9.47,3.76,14.97,3.76,9.38,0,17.82-3.71,22.03-7.4Z"/><path class="cls-1" d="M275.94,398.08c5.91-6.21,21.17-8,30.55-1.25.42.31.92.43,1.44.34.51-.08.96-.36,1.27-.78.3-.42.42-.93.34-1.44-.08-.51-.36-.96-.78-1.27-4.95-3.56-11-5.11-16.83-5.11-7.56,0-14.77,2.61-18.8,6.84-.36.38-.55.87-.53,1.39.01.52.23,1,.6,1.36.76.72,2.03.69,2.75-.06Z"/><path class="cls-1" d="M305.76,430.79c-.48-.22-1-.24-1.48-.06-7.73,2.88-17.34,2.09-21.92.85-.17-.05-.35-.07-.53-.07-.33,0-.65.09-.95.25-.45.26-.78.68-.92,1.19-.14.5-.07,1.02.19,1.47.26.45.68.77,1.18.91,3.02.82,6.8,1.27,10.63,1.27,3.51,0,8.73-.39,13.66-2.23.49-.18.88-.54,1.09-1.01.22-.47.24-1,.05-1.49-.18-.49-.54-.87-1.01-1.09Z"/><path class="cls-1" d="M176.42,294.24c2.09-1.19,4.22-2.29,6.34-3.26.97-.45,1.39-1.61.95-2.58-.22-.47-.61-.83-1.1-1.01-.22-.08-.44-.12-.67-.12-.28,0-.56.06-.82.18-2.23,1.04-4.46,2.18-6.6,3.41-.46.26-.78.67-.92,1.17-.14.5-.07,1.02.19,1.47.51.9,1.76,1.24,2.65.73Z"/><path class="cls-1" d="M122.97,349.52c2.96-.65,6.06-.99,8.95-.99,1.07,0,1.94-.87,1.94-1.94s-.87-1.94-1.94-1.94c-3.16,0-6.54.37-9.78,1.08-.51.11-.95.41-1.23.85-.28.44-.37.95-.26,1.46.22,1.02,1.21,1.73,2.32,1.49Z"/><path class="cls-1" d="M110.39,350.86c-.13-.03-.26-.04-.39-.04-.38,0-.75.11-1.07.33-6.43,4.31-10.26,10.3-11.39,17.82-.08.51.05,1.02.36,1.44.31.42.77.69,1.29.77.98.14,2.04-.6,2.19-1.64.96-6.39,4.22-11.49,9.71-15.17.43-.29.72-.73.82-1.24.1-.51,0-1.02-.29-1.45-.29-.43-.72-.73-1.23-.83Z"/><path class="cls-1" d="M152.9,419.52c.27-1.03-.35-2.1-1.38-2.37-.17-.04-.33-.06-.5-.06-.34,0-.68.09-.98.26-.45.26-.77.68-.9,1.18-.66,2.49-.44,4.89.67,7.14.46.92,1.71,1.34,2.59.89.47-.23.82-.63.99-1.12.16-.49.13-1.02-.1-1.48-.69-1.4-.82-2.84-.4-4.42Z"/><path class="cls-1" d="M179.03,573.11c-.39-.32-.91-.46-1.44-.41-.5.05-.97.31-1.29.71-.67.84-.54,2.06.29,2.73,3.86,3.11,7.28,6.22,10.46,9.51.73.76,2,.78,2.75.05.37-.36.58-.84.59-1.36,0-.52-.19-1.01-.54-1.38-3.29-3.42-6.84-6.64-10.83-9.85Z"/><path class="cls-1" d="M181.79,479.8c8.62-6.34,14.4-11.97,18.21-17.73.28-.43.39-.95.28-1.46-.1-.51-.4-.95-.83-1.23-.33-.21-.69-.32-1.07-.32-.14,0-.27.01-.41.04-.5.1-.93.4-1.21.83-3.55,5.37-9.03,10.69-17.26,16.74-.42.31-.69.76-.77,1.28-.08.51.05,1.02.35,1.44.61.84,1.9,1.03,2.71.42Z"/><path class="cls-1" d="M249.95,714.77c.65.82,1.92.96,2.73.33.41-.32.67-.78.73-1.3.06-.52-.08-1.02-.4-1.43-1.29-1.64-2.53-3.27-3.74-4.88-.31-.42-.77-.69-1.28-.77-.5-.08-1.01.05-1.44.37-.42.31-.69.76-.76,1.28-.07.52.06,1.03.37,1.44,1.23,1.65,2.49,3.31,3.79,4.96Z"/><path class="cls-1" d="M237.8,729.35c-8.9-6.96-17.02-15.05-20.2-20.14-.28-.44-.7-.75-1.21-.87-.14-.03-.29-.05-.44-.05-.36,0-.72.1-1.04.3-.44.27-.74.7-.86,1.21-.11.51-.03,1.03.25,1.47,3.46,5.53,11.74,13.84,21.1,21.15.8.64,2.09.5,2.73-.33.32-.41.47-.91.41-1.43-.06-.51-.33-.98-.74-1.3Z"/><path class="cls-1" d="M328.91,604.37c5.41,2.25,12.63,3.49,20.34,3.49s14.94-1.24,20.36-3.49c.98-.41,1.45-1.55,1.04-2.55-.31-.74-1.02-1.14-1.87-1.19-.23,0-.43.05-.67.15-4.65,1.93-11.52,3.04-18.85,3.04-7.33,0-14.21-1.12-18.86-3.06-.23-.09-.49-.14-.76-.14-.77,0-1.48.48-1.78,1.2-.41.99.06,2.13,1.05,2.54Z"/><path class="cls-1" d="M263.18,666.38c2.05.25,4.4.4,7.2.47,1.02,0,1.89-.85,1.92-1.89.03-1.07-.82-1.96-1.89-1.99-2.61-.07-4.81-.21-6.73-.44-.11-.02-.22-.03-.32-.03-.5,0-.87.2-1.11.39-.43.32-.7.8-.76,1.33-.06.52.08,1.03.4,1.43.32.41.78.67,1.3.73Z"/><path class="cls-1" d="M318.51,514.79c-.16.02-.32,0-.46-.07-.33-.14-.68-.31-1.02-.54-.11-.07-.21-.15-.43-.33-.03-.03-.15-.13-.27-.22-.02-.02-.22-.18-.24-.19-.21-.2-.37-.38-.5-.53-.13-.16-.24-.28-.32-.39-.09-.13-.2-.22-.35-.34l-.24-.23c-.06-.04-.18-.08-.39-.15-.61-.22-1.23-.16-1.71.17-.9.59-1.15,1.8-.56,2.69.33.49,2.12,3.01,5.44,3.98.17.05.35.08.54.08,2.55,0,5.61-1.26,9.17-2.73,3.58-1.48,7.64-3.16,11.48-3.56.21-.03.46.04.65.17,2.78,1.93,6.62,3.69,9.29,4.69.42.16.91.15,1.37-.01,2.64-.99,6.48-2.74,9.25-4.68.16-.11.36-.17.55-.17,3.93.4,8.01,2.08,11.61,3.57,3.53,1.46,6.59,2.72,9.14,2.72.18,0,.37-.03.55-.08,3.28-.96,5.1-3.48,5.43-3.98.58-.89.33-2.1-.56-2.68-.43-.28-.94-.39-1.47-.28-.5.11-.93.39-1.21.82-.02.02-1.02,1.51-2.8,2.23-.14.06-.3.09-.47.07-1.78-.19-4.4-1.27-7.17-2.41-4.24-1.75-9.04-3.73-13.91-3.92-.23,0-.78.07-1.21.41-2.09,1.64-5.55,3.32-8.08,4.35-.24.1-.49.1-.73,0-2.54-1.03-5.99-2.71-8.08-4.35-.34-.27-.77-.4-1.35-.41-4.76.2-9.57,2.19-13.82,3.94-2.79,1.15-5.37,2.21-7.14,2.39Z"/><path class="cls-1" d="M368.26,532.18c-2.91.92-6.19.41-9.96-.17-2.71-.43-5.73-.9-9.03-.9s-6.33.47-9.01.89c-3.81.6-7.1,1.11-10.01.17-.19-.06-.38-.09-.57-.09-.82,0-1.6.53-1.87,1.35-.32,1.01.24,2.11,1.26,2.44,3.3,1.05,7.43.63,11.76-.04,2.7-.42,5.43-.85,8.42-.85s5.76.43,8.45.85c4.16.65,8.42,1.09,11.75.04,1.01-.33,1.58-1.43,1.25-2.45-.33-1-1.42-1.58-2.45-1.25Z"/><path class="cls-1" d="M355.78,477.39c.46-.22.99-.58,1.5-.96,1.28-.91,2.19-1.36,2.77-1.38.94.01,1.52.4,1.72.57.79.91,2.01,1.01,2.82.36.4-.33.65-.79.71-1.31.05-.52-.09-1.02-.42-1.42-.17-.21-1.72-2.05-4.72-2.08-2.22.02-3.72,1.09-4.93,1.96l-.4.29c-.29.21-.5.36-.69.46-.49.23-.84.62-1.01,1.11-.17.49-.14,1.01.08,1.48.44.94,1.67,1.36,2.58.93Z"/><path class="cls-1" d="M333.9,475.93c.79.68,2.01.6,2.72-.18.14-.14.73-.68,1.82-.69.8,0,1.7.6,2.79,1.38.42.3,1.02.72,1.49.95.94.44,2.14.02,2.59-.92.23-.47.25-.99.08-1.48-.17-.49-.53-.88-.99-1.1-.19-.09-.4-.24-.63-.41l-.46-.33c-1.41-1.02-2.98-1.96-4.93-1.97-2.9.04-4.45,1.75-4.73,2.09-.65.8-.54,1.98.27,2.67Z"/><path class="cls-1" d="M380.77,418.74h.88c2.84.03,3.27.04,3.95.63,4.21,3.68,12.65,7.4,22.03,7.4,4.27,0,8.31-.78,12.01-2.32.12-.05.25-.07.37-.07.24,0,.47.09.65.25,2.39,2.17,5.51,4.47,5.54,4.5.83.63,2.1.43,2.73-.4.3-.41.43-.93.36-1.44-.08-.52-.36-.96-.8-1.29-.52-.39-2.11-1.59-3.67-2.89-.24-.2-.36-.49-.35-.79.02-.3.17-.58.42-.76.85-.58,1.62-1.17,2.35-1.8.32-.27.76-.31,1.13-.1,3.6,2.12,8.79,4.1,12.18,3.72,1.07-.11,1.84-1.07,1.73-2.14-.05-.51-.31-.98-.71-1.3s-.91-.47-1.44-.42c-2.65.3-8.52-2.11-11.42-4.27-.77-.57-1.87-.49-2.54.2-11.91,12.09-31.08,7.09-38.02,1.02-1.83-1.6-3.45-1.61-6.47-1.6h-.92c-1.07,0-1.95.87-1.95,1.95s.87,1.94,1.95,1.94Z"/><path class="cls-1" d="M390.58,397.17c.53.08,1.02-.03,1.45-.34,4.15-2.99,9.45-4.3,14.58-4.3,6.47,0,12.68,2.09,15.98,5.56.72.74,2,.78,2.74.06.38-.36.6-.84.61-1.36.01-.52-.18-1.01-.54-1.39-7.15-7.51-24.28-9.91-35.64-1.72-.42.3-.7.75-.78,1.26-.08.52.04,1.03.34,1.44.31.42.76.7,1.27.79Z"/><path class="cls-1" d="M417.63,431.77c-.45-.26-.96-.32-1.47-.18-4.57,1.24-14.19,2.04-21.92-.84-.22-.08-.45-.13-.68-.13-.27,0-.54.06-.8.18-.47.21-.83.6-1.02,1.09-.18.49-.16,1.01.05,1.49.22.47.6.83,1.09,1.01,4.93,1.84,10.15,2.23,13.67,2.23,3.83,0,7.61-.45,10.63-1.27.5-.13.92-.46,1.18-.91.26-.45.33-.97.19-1.47-.14-.5-.46-.93-.92-1.19Z"/><path class="cls-1" d="M365.22,553.22c-4.26-2.31-9.93-3.58-15.96-3.58s-11.71,1.27-15.96,3.58c-.94.51-1.29,1.69-.78,2.63.52.95,1.7,1.29,2.63.78,3.62-1.96,8.86-2.95,14.1-2.95s10.49.98,14.12,2.95c.92.5,2.13.13,2.63-.78.51-.94.16-2.12-.78-2.63Z"/><path class="cls-1" d="M495.49,284.66c9.37,1.6,18.08,4.74,26.6,9.58.91.51,2.14.17,2.65-.73.26-.46.33-.98.19-1.48-.14-.5-.46-.91-.91-1.17-8.94-5.08-18.05-8.36-27.86-10.04-.12-.02-.23-.03-.35-.03-.39,0-.77.12-1.1.36-.43.3-.71.75-.8,1.26-.18,1.05.54,2.06,1.59,2.24Z"/><path class="cls-1" d="M566.59,348.54c2.84,0,12.74.42,20.83,5.83.87.58,2.13.32,2.7-.54.29-.43.39-.95.29-1.46-.1-.51-.39-.95-.83-1.24-9-6.02-19.87-6.49-22.99-6.49-1.07,0-1.94.87-1.94,1.94s.87,1.94,1.94,1.94Z"/><path class="cls-1" d="M597.14,369.54c.16,1.05,1.09,1.82,2.21,1.63.51-.08.96-.35,1.27-.76.31-.42.43-.93.36-1.44-.47-3.13-1.43-6.04-2.85-8.65-.35-.65-1.02-1.01-1.71-1.01-.32,0-.63.08-.93.24-.93.51-1.28,1.69-.76,2.63,1.2,2.19,2.01,4.67,2.42,7.36Z"/><path class="cls-1" d="M538.79,433.73c8.36-3.5,12.22-9.04,10.59-15.21-.14-.5-.46-.93-.91-1.19-.3-.17-.63-.26-.96-.26-.17,0-.34.02-.51.07-1.03.28-1.65,1.34-1.38,2.38,1.09,4.14-1.87,7.91-8.34,10.63-.48.2-.85.58-1.05,1.06-.19.48-.19,1.01,0,1.49.41.96,1.58,1.45,2.54,1.04Z"/><path class="cls-1" d="M520.7,482.65c.85.59,2.11.36,2.71-.48.29-.43.41-.95.31-1.45-.09-.52-.37-.95-.8-1.25-7.13-4.98-15.99-11.7-21.16-19.53-.28-.44-.72-.73-1.23-.84-.13-.03-.26-.04-.39-.04-.38,0-.75.11-1.07.32-.43.29-.73.72-.83,1.23-.11.51,0,1.03.28,1.46,5.51,8.35,14.31,15.09,22.19,20.58Z"/><path class="cls-1" d="M465.9,685.78c-.31-.18-.65-.27-.98-.27-.67,0-1.32.35-1.68.96-5.02,8.57-10.99,17.28-17.73,25.9-.66.84-.51,2.07.33,2.73.82.64,2.08.48,2.73-.33,6.85-8.76,12.92-17.62,18.03-26.33.26-.45.33-.97.2-1.47-.13-.5-.45-.93-.9-1.19Z"/><path class="cls-1" d="M482.57,708.29c-.65,0-1.28.32-1.65.91-1.21,1.94-3.22,4.42-5.8,7.17-.73.78-.7,2.02.09,2.76.74.7,2.03.66,2.74-.09,2.78-2.95,4.89-5.57,6.27-7.77.57-.91.29-2.11-.62-2.68-.32-.2-.68-.3-1.02-.3Z"/><path class="cls-1" d="M437.04,664.22c-.13-1.09-1.01-1.8-2.18-1.7-9.27,1.08-22.58.12-34.32-.74-8.89-.65-16.59-1.2-20.42-.65-5.26.77-8.68,3.14-11.99,5.44-4.43,3.07-9,6.24-18.86,6.24s-14.44-3.17-18.86-6.24c-3.31-2.3-6.72-4.67-11.99-5.44-3.81-.55-11.66.02-20.57.66-5.46.39-11.02.79-16.38,1.02-1.07.05-1.91.96-1.86,2.03.05,1.09.88,1.84,2.08,1.86,5.37-.23,11.12-.64,16.43-1.02,6.26-.45,12.16-.88,16.09-.88,1.48,0,2.71.06,3.65.19,4.35.63,7.12,2.55,10.33,4.78,4.69,3.25,10,6.93,21.08,6.93,10.46,0,16.58-3.84,21.09-6.94,2.88-1.98,6.34-4.2,10.32-4.77,3.36-.51,10.91.05,19.45.67,11.94.86,25.52,1.86,35.21.73,1.06-.13,1.83-1.1,1.7-2.16Z"/><path class="cls-1" d="M622.11,358.68c-3.52-10.23-16.78-20.57-31.53-24.59-8.04-2.19-19.59-3.27-37.46-3.51-.48,0-.88-.36-.95-.83-.93-6.25-3.23-10.54-5.07-13.99-1.93-3.59-3.58-6.68-3.97-11.19-.03-.39.17-.76.52-.95,2.68-1.39,4.49-3.73,4.99-6.42.44-2.4.21-7.19-6.33-12.32-2.15-1.69-4.38-3.28-6.62-4.74-.18-.12-.31-.29-.38-.49-7.75-21.57-22.37-37.79-41.16-45.67-.24-.1-.43-.3-.53-.54-22.65-57.91-80.66-96.81-144.35-96.81s-121.71,38.9-144.35,96.81c-.09.25-.28.44-.53.54-18.79,7.88-33.41,24.09-41.16,45.67-.07.2-.21.37-.38.49-2.24,1.46-4.47,3.05-6.62,4.74-6.54,5.13-6.78,9.92-6.34,12.32.49,2.69,2.31,5.03,4.98,6.42.35.18.55.55.52.94-.38,4.52-2.04,7.6-3.96,11.18-1.86,3.46-4.15,7.75-5.08,13.99-.07.47-.47.82-.95.83-17.87.24-29.42,1.32-37.46,3.51-14.75,4.02-28.01,14.36-31.53,24.59-1.9,5.52-1.07,10.89,2.4,15.54,2.14,2.87,4.79,5.35,7.35,7.75,3.85,3.59,7.44,6.96,8.04,10.63.27,1.62-.06,5.09-.44,9.12-1.1,11.55-2.74,28.95,6.17,36.66.2.17.32.42.33.69.37,7.92,3.99,15.51,10.19,21.38,6.8,6.43,16.44,10.22,27.17,10.68.43.02.79.31.9.72.11.41-.06.85-.42,1.07-7.03,4.43-11.69,7.19-11.73,7.22-6.01,3.54-9.43,7.35-10.46,11.66-1.33,5.58,1.76,10.39,4.02,13.9l.8,1.26c.9,1.45,2.03,3,3.31,4.73,3.39,4.63,7.22,9.85,6.74,14.09v.24c-.01,13.41,7.53,25.37,21.23,33.64.24.14.41.38.46.66,2.41,13.4,12.92,22.52,23.08,31.35,9.54,8.29,18.55,16.11,20.97,26.87,2.85,12.66-1.15,24.02-12.61,35.76-.18.19-.43.29-.69.29s-.51-.11-.69-.29c-3.53-3.63-8.05-4.77-12.39-3.15-4.81,1.82-9.32,7.48-7.87,15.59,1.46,8.15,12.34,44.66,35.44,61.3.1.07.18.16.25.27,2.47,3.88,4.79,6.68,6.9,8.34,12.12,9.51,59.42,32.05,97.34,44.8.5.17.77.71.61,1.21-3.51,11.14-5.47,22.32-6.17,35.18-.22,4.11.72,7.26,2.82,9.38,3.62,3.66,9.57,3.4,14.82,3.17l.35-.02c.25-.02.52.09.71.27s.3.44.3.7v19.47c0,7.55,4.38,11.23,13.4,11.23,4.08,0,7.33-.39,10.48-.76,3.11-.37,6.04-.72,9.76-.72s6.65.35,9.76.72c3.15.38,6.4.76,10.48.76,9.02,0,13.4-3.67,13.4-11.23v-19.47c0-.26.11-.52.3-.7.19-.18.51-.28.71-.27l.46.02c1.29.06,2.6.11,3.91.11,3.51,0,7.92-.37,10.8-3.29,2.1-2.12,3.05-5.28,2.82-9.38-.7-12.86-2.66-24.03-6.17-35.18-.16-.5.11-1.04.62-1.21,37.92-12.74,85.22-35.28,97.34-44.8,2.11-1.65,4.43-4.46,6.9-8.34.07-.1.15-.19.25-.27,23.1-16.64,33.99-53.15,35.44-61.3,1.45-8.11-3.07-13.77-7.88-15.6-4.34-1.63-8.85-.48-12.38,3.15-.18.19-.43.3-.69.3s-.51-.11-.69-.29c-11.46-11.74-15.46-23.1-12.61-35.76,2.42-10.76,11.44-18.59,20.98-26.88,10.16-8.82,20.66-17.94,23.07-31.34.05-.28.22-.52.46-.66,13.69-8.27,21.24-20.23,21.24-33.66l-.02-.24c-.48-4.22,3.36-9.45,6.74-14.06,1.33-1.81,2.42-3.31,3.29-4.72l.81-1.27c2.26-3.52,5.36-8.33,4.03-13.91-1.02-4.31-4.45-8.12-10.46-11.66-1.66-.99-5.95-3.58-11.95-7.36-.36-.23-.53-.66-.42-1.07.11-.41.47-.71.9-.72,8.8-.33,16.99-2.82,23.05-7.02,8.62-5.97,14.04-15.27,14.51-24.88.02-.27.14-.51.34-.69,8.92-7.7,7.28-25.11,6.18-36.62-.38-4.06-.71-7.54-.45-9.16.61-3.68,4.22-7.06,8.05-10.64,2.55-2.38,5.18-4.85,7.34-7.74,3.47-4.65,4.3-10.02,2.4-15.54ZM539.9,287.95c3.6,2.82,5.39,5.94,4.92,8.55-.36,1.92-1.96,3.5-4.29,4.22-.82.25-1.37,1-1.37,1.86,0,6.61,2.29,10.88,4.51,15.01,1.79,3.32,3.63,6.75,4.53,11.8.05.28-.03.58-.21.8-.19.22-.46.35-.74.35-6.41-.03-13.03.03-19.93.08-5.71.05-11.46.09-17.15.09-24.11,0-47.22-.83-62.29-6-16.75-5.76-31.17-18.48-40.58-35.81-.19-.34-.15-.76.1-1.07.24-.31.65-.44,1.02-.33,4.53,1.25,9.38,1.86,14.84,1.86,8.36,0,16.92-1.35,25.99-2.77,11.42-1.79,23.18-3.64,35.62-3.06.51.02,1-.13,1.4-.49.39-.35.61-.83.64-1.36.03-.52-.15-1.01-.5-1.39-.35-.39-.83-.61-1.35-.64-12.91-.58-24.85,1.29-36.39,3.1-16.42,2.59-30.6,4.83-43.55-.43-.41-.16-.66-.59-.6-1.03.06-.44.41-.78.85-.83,7.66-.92,16.2-2.67,24.45-4.37,33.59-6.9,75.26-15.45,110.11,11.88ZM445.57,358.29c.07.38-.1.76-.42.98-.33.21-.74.21-1.07,0-7.75-5.06-19.07-8.13-31.06-8.42-17.57-.43-32.63,4.94-40.57,14.37-.69.82-.58,2.05.24,2.74.83.69,2.05.58,2.74-.24,7.22-8.58,21.37-13.41,37.5-12.98,15.08.37,28.61,5.27,34.47,12.47.09.11.15.24.19.38,2.99,11.88,7.55,23.76,11.09,28.89.11.16.17.36.17.55-.08,32.35-4.53,76.52-7.93,87.15-.35,1.1-.78,2.49-1.28,4.11l-.6,1.95c-4.42,14.4-13.6,44.34-21.2,55.46-4.97,7.27-23.91,22.27-50.51,36.88-8.65,4.75-18.36,7.13-28.07,7.13s-19.42-2.38-28.08-7.13c-26.6-14.6-45.54-29.6-50.51-36.88-7.6-11.12-16.78-41.05-21.19-55.43l-.61-1.98c-.5-1.62-.93-3.01-1.28-4.11-3.39-10.63-7.85-54.8-7.93-87.15,0-.2.06-.39.17-.55,3.54-5.13,8.1-17.01,11.09-28.89.03-.14.1-.27.19-.38,5.86-7.2,19.39-12.1,34.48-12.47,16.31-.38,30.32,4.45,37.49,12.98.33.4.8.64,1.32.69.55.05,1.04-.12,1.42-.45.82-.69.93-1.92.24-2.74-7.91-9.4-23.12-14.78-40.56-14.36-12,.3-23.32,3.37-31.07,8.44-.32.21-.74.21-1.07,0-.32-.21-.49-.6-.42-.98,1.4-8.03,1.57-14.46.49-18.61-.06-.24-.03-.5.09-.72,1.42-2.52,2.55-4.88,3.44-7.21.04-.11.1-.21.18-.3,2.43-2.76,4.43-5.47,5.95-8.05.09-.15.21-.27.36-.35,14.64-8.23,26.81-21.79,34.24-38.17.09-.2.25-.36.45-.47,1.8-.91,3.57-1.97,5.26-3.16.16-.11.35-.17.54-.18,17.8-.38,36.49-11.53,44.44-26.53.33-.63,1.38-.63,1.72,0,7.95,15,26.64,26.16,44.44,26.53.19,0,.38.07.54.18,1.69,1.19,3.46,2.25,5.26,3.16.2.1.36.26.45.47,7.44,16.38,19.6,29.94,34.25,38.18.15.08.28.21.36.35,1.53,2.6,3.53,5.3,5.94,8.04.08.09.14.19.18.3.88,2.31,2.01,4.67,3.44,7.21.13.22.16.48.09.72-1.08,4.14-.9,10.58.49,18.6ZM529.43,434.49c-.08-.52-.37-.98-.8-1.28-.41-.29-.91-.4-1.43-.32-5.8.92-15.34,1.12-22.19.44-.2-.02-.38-.1-.54-.23-8.4-7.16-14.45-13.41-17.99-18.56-.15-.22-.21-.5-.15-.76,2.28-10.27-.03-16.68-2.36-20.26-2.35-3.58-5.91-6.09-9.55-6.69-3.55-.59-9.06.21-12.87,4.43-.22.24-.54.35-.85.31-.32-.04-.59-.24-.74-.52-5.35-10.43-11.52-31.47-11.76-44.01,0-.42.25-.8.65-.93.39-.14.83-.01,1.09.31,14.92,19.03,41.39,30.15,64.74,39.97,29.26,12.3,54.53,22.92,54.53,44.33,0,5.7-2.45,11.17-6.89,15.4-6.04,5.74-15.34,8.85-26.38,8.85-.81,0-1.63-.02-2.46-.05-.19,0-.36-.07-.52-.17-7.77-5.42-14.79-10.6-20.87-15.4-.33-.26-.45-.7-.31-1.09.14-.39.5-.65.91-.65,5.5.09,11.12-.25,15.1-.89,1.06-.17,1.78-1.17,1.62-2.23ZM495.65,641.65c.32.4.26.98-.12,1.32-.19.17-.42.25-.65.25s-.49-.09-.68-.27c-18.81-18.23-27.78-43.2-28.17-58.69-.27-10.72,1.3-17.46,2.45-22.38,1.58-6.82,2.62-11.31-2.88-18.16l-1.78-2.21c-7.53-9.35-14.65-18.17-17.63-28.89-.05-.19-.05-.39.02-.57,2.44-7.3,4.57-14.21,6.55-20.67l.14-.44c.72-2.36,1.29-4.19,1.73-5.58.54-1.69,1.11-4.22,1.71-7.54.08-.42.41-.74.84-.79.4-.06.83.17,1,.57,8.1,18,21.45,23.86,39.41,30.18,15.97,5.61,22.8,15.62,20.87,30.6-.87,6.72-8.28,16.91-15.45,26.77-6.4,8.79-13.01,17.88-16.13,25.81-2.82,7.18-10.33,26.25,8.78,50.69ZM211.65,590.96c-3.12-7.93-9.74-17.02-16.13-25.81-7.17-9.86-14.58-20.05-15.45-26.77-1.93-14.98,4.9-24.99,20.87-30.61,17.97-6.32,31.32-12.18,39.42-30.14.17-.39.58-.63,1-.57.42.05.76.37.84.79.59,3.31,1.17,5.83,1.7,7.5.44,1.38,1.01,3.22,1.67,5.39l.19.63c1.98,6.46,4.11,13.37,6.55,20.67.06.18.06.38.02.57-2.98,10.72-10.1,19.55-17.63,28.89l-1.79,2.22c-5.49,6.84-4.45,11.34-2.87,18.16,1.14,4.92,2.71,11.66,2.44,22.37-.38,15.48-9.36,40.45-28.16,58.68-.19.18-.43.27-.68.27s-.46-.08-.65-.25c-.38-.34-.43-.92-.12-1.32,19.1-24.44,11.6-43.51,8.77-50.68ZM212.16,413.77c.06.26,0,.54-.15.76-3.58,5.21-9.71,11.52-18.23,18.76-.15.13-.34.21-.54.23-10.21,1.02-23.33-.18-30.5-2.78-1.01-.36-2.13.16-2.49,1.17-.18.49-.16,1.01.06,1.48.22.47.61.83,1.1,1.01,5.87,2.13,14.82,3.4,23.93,3.4.41,0,.88.26,1.02.65.14.39.11.83-.21,1.08-5.87,4.63-12.6,9.6-19.99,14.77-.15.11-.33.17-.52.17-.86.03-1.7.05-2.54.05-11.42,0-20.99-3.17-27.15-9.02-4.31-4.1-6.68-9.35-6.68-14.78,0-21.41,25.27-32.03,54.53-44.33,23.35-9.82,49.82-20.94,64.74-39.97.25-.33.7-.46,1.09-.31.39.14.65.52.65.93-.24,12.53-6.4,33.57-11.76,44-.15.28-.42.48-.74.52-.32.04-.63-.08-.85-.31-3.8-4.21-9.3-5.01-12.87-4.43-3.63.61-7.2,3.11-9.55,6.69-2.33,3.57-4.64,9.99-2.36,20.26ZM217.78,395.64c1.76-2.69,4.35-4.55,6.93-4.99,3.1-.53,8.83.58,11,5.73.05.12.08.25.08.37l.02,3.53c0,.39-.23.74-.58.9-.35.15-.77.09-1.05-.19-1.58-1.49-3.31-2.47-5.03-2.84-3.23-.7-6.18.6-7.69,3.36-.25.46-.31.98-.17,1.48.14.5.47.91.93,1.16.95.52,2.12.17,2.64-.76.69-1.25,1.94-1.76,3.49-1.43,3.41.72,7.2,5.34,7.85,12.77.24,5.66.57,11.53.98,17.49.02.34-.13.66-.4.86-.27.2-.64.23-.95.1-1.12-.47-2.11-1.21-2.94-2.2-3.65-4.31-3.95-11.96-3.26-16.05.08-.51-.03-1.02-.33-1.45-.3-.42-.76-.71-1.27-.79-1.04-.14-2.05.54-2.22,1.59-.97,5.75-.09,14.22,4.13,19.21,1.76,2.08,4.15,3.45,6.92,3.97.43.08.76.44.79.88.71,9.17,1.6,18.1,2.56,25.82.03.27-.05.54-.22.75-.17.21-.43.33-.7.34-.08,0-.17,0-.25,0-.88,0-1.62-.19-2.34-.58-3.14-1.71-5.18-7.22-7.26-14.96-1.73-6.42-4.22-12.22-6.64-17.82-2.55-5.92-4.96-11.5-6.55-17.78-2.42-9.59-.48-15.35,1.57-18.49ZM236.37,584.36c.28-11.19-1.35-18.21-2.54-23.34-1.51-6.51-2.2-9.49,2.11-14.85l1.78-2.21c5.85-7.25,11.89-14.74,15.76-23.33.16-.35.5-.57.88-.57.44.02.78.27.91.65.44,1.24.88,2.46,1.33,3.68.05.12.06.25.06.37-.17,4.78-2.16,10.1-4.08,15.25-1.98,5.29-4.02,10.77-4.95,16.91-.57,3.73.67,9.04,2.24,15.77,4.18,17.93,10.48,44.98-8.78,72.82-.11.15-.25.27-.41.34-1.54.67-2.97,1.26-4.26,1.79-.44.17-.93.02-1.18-.36-2.67-4.03-8.13-10.4-14.57-7.67-1.16.49-2.71,1.62-3.51,4.21-.22.71-.36,1.54-.45,2.54-.03.35-.25.66-.58.81-.94.41-1.88.82-2.83,1.25-3.61,1.6-7.69,3.41-12.59,5.2-.11.04-.22.06-.33.06-.35,0-.68-.19-.85-.5-.23-.42-.13-.94.25-1.24,23.37-18.23,36.09-47.78,36.58-67.54ZM253.67,571.81c-1.42-6.08-2.64-11.33-2.19-14.32.87-5.74,2.85-11.03,4.76-16.15.88-2.36,1.73-4.66,2.45-6.96.12-.39.47-.66.88-.68.43.03.79.22.94.59,2.52,5.97,4.86,10.55,6.95,13.61,2.64,3.86,8.13,9.04,15.85,14.97.24.18.38.47.38.77,0,21.52,0,50.99-8.45,60.23-5.37,5.88-14.05,11.94-25.09,17.53-.14.07-.29.11-.44.11-.25,0-.51-.1-.69-.29-.3-.31-.36-.77-.16-1.14,14.48-26.76,8.42-52.72,4.81-68.24l.95-.22-.95.2ZM232.74,653.23c7.35-2.66,32.34-12.47,45.38-26.74,8.63-9.44,9.4-34.1,9.46-58.55,0-.36.2-.69.53-.86s.72-.14,1.01.08c8.96,6.4,19.4,12.91,30.21,18.84,9.06,4.97,19.42,7.6,29.94,7.6s20.88-2.63,29.94-7.6c10.8-5.93,21.25-12.44,30.21-18.84.3-.21.69-.24,1.01-.08.32.17.53.5.53.86.05,24.45.83,49.11,9.46,58.55,13.05,14.27,38.03,24.08,45.38,26.74.44.16.7.61.63,1.07-2.87,18.06-39.9,75.14-80.99,102.7-.17.11-.35.16-.54.16-.21,0-.42-.07-.6-.21-3.25-2.51-9.41-2.83-14.41-2.83-3.18,0-6.75.15-10.19.3-7.02.3-13.83.3-20.83,0-10.86-.46-20.22-.85-24.61,2.54-.33.25-.79.27-1.13.04-41.08-27.56-78.11-84.63-80.98-102.69-.07-.46.19-.91.63-1.07ZM414.82,563.63c0-.3.14-.59.38-.77,7.73-5.93,13.21-11.11,15.85-14.97,2.13-3.11,4.41-7.58,6.97-13.65.16-.38.57-.57.95-.6.41.02.76.3.88.69.71,2.36,1.58,4.76,2.42,7,1.92,5.15,3.89,10.43,4.76,16.15.45,2.99-.77,8.24-2.19,14.32-3.62,15.54-9.66,41.51,4.79,68.25.2.38.14.84-.16,1.14-.19.19-.44.29-.69.29-.15,0-.3-.03-.44-.11-11.03-5.59-19.7-11.65-25.07-17.52-8.45-9.24-8.45-38.71-8.45-60.23ZM463.27,647.26c-.25.39-.74.55-1.18.36-1.29-.53-2.72-1.12-4.26-1.79-.17-.07-.31-.19-.41-.34-19.27-27.85-12.96-54.89-8.79-72.78,1.57-6.74,2.81-12.07,2.24-15.81-.93-6.14-2.98-11.63-4.96-16.93-1.92-5.14-3.9-10.44-4.07-15.22,0-.13.02-.25.06-.37.45-1.21.89-2.43,1.33-3.66.13-.37.48-.63.88-.65.37-.01.76.21.92.57,3.84,8.51,9.9,16.03,15.76,23.29l1.79,2.22c4.32,5.37,3.63,8.35,2.12,14.86-1.19,5.13-2.82,12.15-2.54,23.34.49,19.77,13.21,49.32,36.58,67.54.38.3.49.82.25,1.24-.17.32-.5.5-.85.5-.11,0-.22-.02-.33-.06-4.9-1.78-8.98-3.6-12.59-5.2l-2.87-1.26c-.33-.14-.55-.45-.58-.8-.11-1.24-.3-2.22-.59-3.01-.66-1.8-1.82-3.08-3.35-3.73-6.46-2.76-11.89,3.63-14.56,7.67ZM458.58,464.93c-.18-.21-.27-.48-.23-.76.96-7.72,1.84-16.64,2.56-25.79.03-.44.36-.8.79-.88,2.76-.53,5.15-1.91,6.92-4.01,4.22-4.99,5.09-13.46,4.13-19.21-.18-1.06-1.2-1.77-2.25-1.59-.5.08-.94.36-1.25.79-.3.42-.42.94-.33,1.45.69,4.09.39,11.74-3.26,16.06-.85,1-1.81,1.72-2.95,2.19-.31.13-.67.09-.94-.1-.27-.2-.43-.52-.4-.86.41-5.97.73-11.8.96-17.34.69-7.89,4.56-12.21,7.86-12.91,1.56-.32,2.79.19,3.49,1.43.25.46.66.79,1.16.93.51.15,1.02.09,1.48-.16.46-.25.79-.66.93-1.16.14-.5.08-1.02-.17-1.48-1.5-2.72-4.51-4.04-7.69-3.36-1.72.36-3.46,1.35-5.03,2.84-.28.27-.7.34-1.06.19-.36-.16-.59-.51-.58-.9l.02-3.53c0-.13.03-.25.08-.37,2.16-5.14,7.91-6.23,10.99-5.73,2.58.43,5.18,2.29,6.94,4.99,2.05,3.14,3.99,8.9,1.57,18.49-1.59,6.3-4,11.88-6.55,17.79-2.41,5.59-4.9,11.35-6.64,17.81-2.08,7.74-4.11,13.25-7.26,14.96-.73.4-1.46.57-2.44.57-.31,0-.63-.1-.83-.33ZM324.31,250.24c-16.86,0-33.39-5.84-49.55-11.54-10.5-3.7-21.31-7.52-31.56-9.24-.34-.06-.62-.28-.74-.6-.13-.32-.08-.68.13-.95,24.94-32.86,64.82-52.47,106.68-52.47s81.74,19.61,106.69,52.47c.2.27.25.63.13.95-.13.32-.41.54-.74.6-10.25,1.71-21.08,5.54-31.55,9.23-23.91,8.43-48.62,17.15-73.88,6.89-.32-.07-.41-.09-.57-.09-.31,0-.35.02-.6.09-8.21,3.33-16.35,4.66-24.41,4.66ZM528.85,274.24c.17.38.08.82-.21,1.1-.3.28-.76.35-1.11.16-32.76-16.72-69.15-9.25-98.39-3.26l-.22-.95.2.95c-13.04,2.68-24.29,4.99-33.63,4.99-16.62,0-34.66-10.54-41.97-24.53-.18-.35-.14-.76.11-1.07.25-.3.66-.43,1.02-.32,24.5,7.23,48.89-1.37,70.41-8.96,14.56-5.14,28.32-10,40.99-10,27.94,0,50.83,15.26,62.8,41.86ZM210.54,230.07c23.26-53.55,79-89.53,138.72-89.53s115.39,35.98,138.66,89.52c.15.35.09.75-.16,1.03-.25.28-.65.39-1,.29-6.6-1.92-13.56-2.89-20.71-2.89-1.25,0-2.6.05-4.11.17-.4.02-.66-.13-.86-.4-25.56-35.49-67.36-56.68-111.81-56.68s-86.25,21.19-111.81,56.68c-.2.27-.49.42-.86.4-1.51-.11-2.86-.17-4.11-.17-7.17,0-14.16.98-20.77,2.91-.09.02-.18.04-.27.04-.27,0-.54-.12-.73-.33-.25-.28-.31-.68-.16-1.03ZM169.66,274.24c11.97-26.61,34.87-41.87,62.81-41.87,12.67,0,26.43,4.85,40.99,10,21.52,7.6,45.89,16.22,70.41,8.96.38-.11.78.02,1.03.32.25.3.29.72.11,1.07-7.31,13.98-25.36,24.52-41.97,24.52-9.34,0-20.59-2.31-33.63-4.99-15.95-3.28-34-6.99-52.37-6.99s-32.56,3.35-46.06,10.24c-.36.19-.81.13-1.11-.16-.3-.28-.38-.73-.21-1.1ZM150.33,329.39c.9-5.05,2.74-8.48,4.52-11.79,2.22-4.14,4.51-8.41,4.51-15.01,0-.86-.55-1.6-1.37-1.86-2.33-.72-3.94-2.3-4.29-4.22-.48-2.61,1.31-5.73,4.92-8.55,34.86-27.33,76.52-18.78,109.99-11.9,8.37,1.72,16.88,3.46,24.53,4.38.44.05.79.4.85.83.06.44-.19.86-.6,1.03-12.94,5.25-27.1,3.02-43.5.44-16.44-2.59-35.08-5.52-54.79-.33-1.03.27-1.66,1.34-1.38,2.38.27,1.03,1.35,1.63,2.38,1.38,18.88-4.97,36.32-2.23,53.19.42,9.09,1.43,17.65,2.78,26.01,2.78,5.45,0,10.3-.61,14.83-1.86.36-.1.78.03,1.02.33.24.3.28.73.09,1.07-9.42,17.33-23.83,30.05-40.58,35.8-15.07,5.17-38.22,6-62.37,6-5.72,0-11.5-.05-17.24-.09-5.53-.05-10.98-.09-16.28-.09h-3.46c-.29,0-.56-.12-.75-.34-.19-.22-.26-.51-.21-.8ZM99.97,430.8c-.5,0-.86-.22-1.01-.59-3.14-7.52-2.18-20.06-1.37-28.11.41-4.05.76-8.19.44-10.14-.82-4.99-4.9-8.8-9.22-12.83-2.43-2.27-4.94-4.62-6.89-7.23-2.7-3.63-3.32-7.65-1.83-11.95,3.14-9.1,15.28-18.4,28.88-22.11,13.71-3.73,37.19-3.54,62.04-3.34,30.3.25,61.63.5,80.91-6.12l.4-.14c.43-.16.89,0,1.14.37.25.37.21.87-.09,1.2-14.45,15.73-41.84,30.37-73.26,39.16-33.18,9.27-73.86,27.39-79.28,61.03-.07.43-.41.76-.85.81ZM113.11,457.61c-5.83-5.52-9.04-12.59-9.04-19.92,0-35.91,41.92-55.16,77.08-64.99,23.76-6.64,45.61-16.69,61.52-28.31.39-.28.95-.24,1.28.12.34.36.35.91.03,1.29-14.59,17.21-39.6,27.73-61.67,37-29.28,12.31-56.92,23.93-56.92,47.91,0,6.52,2.8,12.76,7.89,17.6,5.8,5.51,14.19,8.9,24.28,9.82.41.04.75.33.85.72.1.4-.06.82-.4,1.05-3.45,2.33-6.79,4.54-9.92,6.58-.11.07-.25.13-.38.15-2.64.41-5.26.62-7.83.62-10.52,0-20.17-3.4-26.77-9.65ZM178.05,588.73c-8.01-6.95-16.27-14.13-20.05-23.39-.16-.39-.05-.84.27-1.11.33-.27.79-.31,1.14-.09,1.92,1.18,3.64,2.27,5.22,3.31.41.27.94.36,1.46.26.52-.11.97-.4,1.24-.8.59-.89.34-2.1-.55-2.69-3.67-2.42-7.62-4.85-11.73-7.21-13.16-7.56-20.41-18.58-20.41-31,0-14.73,16.02-25.29,32.97-36.49l.65-.43c.43-.28.73-.72.83-1.23.11-.51,0-1.03-.28-1.46-.29-.44-.73-.74-1.24-.84-.5-.11-1.02,0-1.44.28l-.66.44c-13.94,9.2-27.1,17.89-32.35,29.21-.15.32-.47.54-.83.56-.35,0-.7-.16-.88-.47-1.32-2.18-2.84-4.25-4.31-6.26-1.2-1.63-2.25-3.07-3.07-4.4l-.85-1.34c-1.99-3.1-4.44-6.93-3.5-10.89.76-3.18,3.67-6.28,8.65-9.22.62-.36,63.12-37.57,84.12-63.11.22-.28.58-.4.93-.34.35.06.63.31.75.65,1.45,4.31,3.15,8.35,5.07,12.8,2.36,5.46,4.79,11.1,6.46,17.27,2.41,8.95,4.77,14.98,9.16,17.36,1.04.57,2.19.91,3.39,1.01.3.03.57.19.73.44.16.25.21.56.11.84-7.12,21.03-19.63,26.76-39.38,33.71-17.72,6.23-25.6,17.93-23.43,34.77.99,7.71,8.37,17.85,16.18,28.59,6.26,8.61,12.71,17.49,15.64,24.93,3.96,10.07,7.58,25.69-6.63,44.97-.19.25-.48.39-.78.39-.15,0-.3-.03-.43-.1-.43-.21-.63-.7-.5-1.15,1.83-6.08,2.03-12.41.58-18.82-2.7-12.01-12.63-20.63-22.23-28.96ZM189.27,713.43c-.16.1-.33.14-.5.14-.28,0-.57-.13-.76-.36-14.32-17.82-21.05-42.1-21.95-47.15-1.06-5.94,2.07-10.01,5.43-11.28,2.89-1.09,5.83-.29,8.21,2.17.18.19.28.45.27.71-.01.27-.13.51-.32.69-.64.57-1.29,1.15-1.97,1.72-.05.05-.12.14-.15.17-.35.43-.49.76-.53,1.18-.69,10.51,4.75,32.36,12.67,50.8.19.45.03.96-.39,1.21ZM207.22,733.58c-10.14-7.95-26.2-50.24-26.43-69.61,0-.46.31-.87.77-.96,16.08-3.41,25.22-7.47,33.28-11.05l.82-.36c.28-.13.6-.11.86.04.27.14.45.41.49.7,1.64,10.7,8.76,26.74,19.08,42.91.55.86,1.82,1.15,2.68.6.44-.28.75-.71.86-1.22.11-.51.02-1.03-.26-1.47-14.78-23.16-20.48-41.79-18.48-48.21.28-.94.71-1.53,1.3-1.78,2.68-1.09,5.77.68,9.04,5.14.18.25.23.57.14.86-.09.29-.32.53-.6.63-.81.29-1.31.47-1.41.5-.78.26-1.32,1-1.32,1.84,0,18.8,41.79,80.49,82.91,108.09.4.27.54.79.33,1.23-.98,2.04-1.91,4.08-2.78,6.08-.11.24-.3.42-.54.52-.24.09-.5.09-.74-.02-29.72-13.04-59.33-31.56-59.62-31.75-.91-.57-2.11-.3-2.68.61-.28.44-.36.96-.25,1.47.11.5.42.93.86,1.21.3.19,30.1,18.84,60.24,32.07.48.21.71.76.51,1.24-.57,1.44-1.1,2.87-1.61,4.3-.14.39-.52.64-.91.64-.1,0-.21-.02-.31-.05-38.5-12.94-85.76-36-96.21-44.2ZM398.02,818.05c.16,3-.39,5.11-1.71,6.43-2.42,2.44-7.46,2.21-11.88,2.02l-.68-.02c-.52-.02-.93-.44-.94-.95-.13-5.89-.6-11.44-1.44-16.96-.08-.52-.35-.97-.77-1.27-.43-.32-.94-.44-1.44-.36-.52.08-.97.35-1.28.77-.3.42-.43.93-.35,1.44.99,6.57,1.48,12.85,1.48,19.19v22.47c0,4.41-1.62,7.34-9.52,7.34-3.86,0-6.85-.36-10.02-.74-3.09-.37-6.29-.75-10.22-.75s-7.13.38-10.24.75c-3.05.36-6.18.74-9.99.74-7.9,0-9.52-2.93-9.52-7.34v-22.47c0-7.37.55-19.25,5.29-37.25.27-1.04-.35-2.1-1.37-2.37-.5-.13-1.02-.07-1.48.19-.45.26-.77.68-.9,1.19-3.39,12.85-5.15,24.44-5.39,35.43-.01.52-.43.94-.95.95l-.65.02c-4.4.2-9.41.44-11.85-2.02-1.31-1.32-1.87-3.43-1.71-6.43,1.13-20.76,5.58-37.33,15.37-57.19,1.59-3.19,10.85-3.06,22.82-2.57,7.12.31,14.1.31,21.31,0,11.47-.48,21.1-.61,22.67,2.57,9.79,19.86,14.24,36.42,15.37,57.19ZM518.83,656.95c2.4-2.48,5.31-3.25,8.21-2.17,3.36,1.28,6.49,5.35,5.43,11.28-.9,5.05-7.63,29.33-21.95,47.14-.19.24-.47.36-.76.36-.17,0-.35-.05-.5-.14-.42-.25-.58-.77-.39-1.21,7.9-18.41,13.35-40.23,12.69-50.8-.06-.37-.17-.71-.57-1.21-.79-.69-1.45-1.28-2.09-1.86-.2-.17-.31-.43-.32-.69,0-.27.09-.52.27-.71ZM516.96,663.01c.46.09.77.5.77.96-.24,19.37-16.29,61.66-26.43,69.61-10.44,8.19-57.69,31.25-96.22,44.2-.1.03-.21.05-.31.05-.4,0-.77-.25-.91-.64-.51-1.42-1.04-2.84-1.6-4.26-.19-.49.04-1.05.52-1.25,21.06-8.91,52.92-25.18,73.37-41.71.41-.33.66-.79.71-1.3.06-.52-.09-1.02-.42-1.43-.33-.41-.79-.66-1.3-.71-.53-.08-1.02.09-1.43.42-20.13,16.26-51.59,32.32-72.41,41.14-.5.21-1.06-.02-1.27-.51-.9-2.06-1.84-4.12-2.8-6.13-.21-.43-.06-.96.33-1.23,41.12-27.59,82.92-89.29,82.92-108.09,0-.84-.54-1.58-1.35-1.85-.08-.03-.58-.2-1.39-.49-.29-.11-.51-.34-.6-.63-.09-.29-.03-.61.14-.86,3.22-4.41,6.44-6.24,9.02-5.14.52.22.93.71,1.23,1.5,1.36,3.67.03,13.88-8.21,30.57-.47.96-.08,2.13.88,2.61.91.44,2.15.02,2.6-.89,4.71-9.53,7.71-18.04,8.69-24.61.05-.3.22-.56.49-.71.27-.14.58-.16.86-.04l.77.34c8.1,3.59,17.24,7.65,33.32,11.07ZM570.19,483.47c4.98,2.93,7.89,6.03,8.65,9.21.94,3.97-1.53,7.82-3.52,10.91l-.85,1.34c-.81,1.32-1.86,2.75-3.07,4.4-1.4,1.91-2.97,4.08-4.3,6.3-.19.31-.5.49-.88.47-.36-.02-.68-.24-.83-.56-4.88-10.48-16.72-18.93-29.45-27.37-.9-.58-2.1-.33-2.7.55-.59.89-.34,2.1.55,2.69,16.46,10.92,30.08,21.05,30.08,34.58,0,12.42-7.25,23.43-20.41,31-14.75,8.48-26.13,16.97-34.81,25.96-.36.37-.55.87-.55,1.39.01.52.22,1.01.6,1.37.34.33.83.52,1.34.52.57-.01,1.06-.22,1.4-.57,7.12-7.39,16.15-14.42,27.6-21.5.36-.22.82-.19,1.14.09.32.27.43.72.27,1.11-3.8,9.3-12.03,16.45-20,23.36-9.6,8.34-19.53,16.95-22.23,28.96-1.44,6.41-1.24,12.74.58,18.82.14.45-.07.94-.5,1.15-.14.07-.28.1-.43.1-.3,0-.59-.14-.78-.39-14.21-19.29-10.59-34.9-6.63-44.97,2.93-7.45,9.41-16.35,15.66-24.96,7.81-10.73,15.17-20.86,16.16-28.56,2.17-16.84-5.72-28.54-23.43-34.77-19.75-6.94-32.26-12.68-39.38-33.71-.1-.28-.06-.59.11-.84.16-.25.43-.41.73-.44,1.21-.11,2.36-.45,3.4-1.02,4.38-2.39,6.74-8.41,9.14-17.36,1.66-6.16,4.1-11.81,6.46-17.27,1.91-4.44,3.62-8.46,5.07-12.8.11-.34.4-.58.74-.65.37-.08.71.06.93.34,20.78,25.25,83.5,62.73,84.13,63.11ZM581.52,460.76c-5.96,4.13-14.14,6.35-22.84,6.35-2.68,0-5.41-.21-8.14-.64-.13-.02-.26-.07-.38-.15-2.87-1.87-5.9-3.87-9.03-5.98-.34-.23-.5-.65-.4-1.05.1-.4.44-.69.85-.73,9.7-.93,17.81-4.26,23.45-9.62,5.22-4.97,8.1-11.44,8.1-18.22,0-23.98-27.64-35.61-56.91-47.91-22.2-9.33-47.35-19.91-61.9-37.17-.31-.38-.3-.93.03-1.29.34-.36.89-.41,1.28-.12,15.93,11.68,37.86,21.79,61.74,28.47,35.16,9.83,77.08,29.08,77.08,64.99,0,8.84-4.83,17.46-12.93,23.07ZM616.6,371.9c-1.97,2.64-4.49,4.98-6.92,7.25-4.31,4.03-8.38,7.83-9.2,12.82-.35,2.09-.02,5.61.41,10.05l-.96.18.97-.09c.77,8.08,1.92,20.28-1.35,28.1-.15.37-.51.6-.9.6-.55-.06-.89-.39-.96-.82-5.42-33.65-46.1-51.76-79.28-61.03-30.87-8.63-58.97-23.64-73.31-39.18-.31-.33-.35-.83-.09-1.2.25-.37.72-.52,1.15-.37l.43.15c19.23,6.61,50.59,6.37,80.88,6.13h1.45c7.16-.07,14.56-.13,21.61-.07,12.76.11,28.73.6,39.02,3.41,13.6,3.71,25.75,13.01,28.88,22.11,1.48,4.31.87,8.33-1.83,11.95Z"/><path class="cls-1" d="M330.62,766.34c-.21-.07-.43-.11-.64-.11-.8,0-1.56.49-1.84,1.28-.87,2.41-1.67,4.75-2.43,7.01-.34,1.01.21,2.11,1.23,2.45.96.34,2.13-.23,2.46-1.23.74-2.23,1.54-4.54,2.4-6.92.36-1.01-.17-2.12-1.18-2.49Z"/><path class="cls-1" d="M370.37,767.51c-.28-.79-1.04-1.28-1.85-1.28-.22,0-.44.03-.65.11-.99.36-1.52,1.48-1.16,2.49,2.79,7.72,5.12,15.13,6.94,22,.27,1.02,1.4,1.65,2.38,1.38,1.03-.27,1.65-1.34,1.38-2.38-1.83-6.93-4.2-14.44-7.04-22.33Z"/><path class="cls-1" d="M433.48,225.6c.7.77,1.99.81,2.74.12.38-.36.61-.84.63-1.35.02-.52-.16-1.01-.51-1.4-21.41-23.23-53.15-36.55-87.08-36.55-1.07,0-1.94.87-1.94,1.94s.87,1.94,1.94,1.94c32.85,0,63.55,12.86,84.23,35.29Z"/><path class="cls-1" d="M332.24,188.1c-.34-.25-.73-.38-1.12-.38-.09,0-.19,0-.29.02-3.25.47-6.49,1.08-9.65,1.8-.5.12-.94.42-1.21.86-.28.44-.36.96-.25,1.47.23,1.03,1.29,1.7,2.32,1.46,3.07-.7,6.21-1.28,9.34-1.74,1.06-.15,1.8-1.14,1.64-2.21-.08-.51-.36-.97-.79-1.28Z"/><path class="cls-1" d="M306.74,194.37c-.26-.12-.53-.18-.8-.18-.23,0-.46.04-.69.13-16.69,6.28-31.58,16.18-43.07,28.65-.35.38-.53.88-.51,1.4.02.52.24,1,.62,1.35.74.69,2.04.65,2.74-.11,11.09-12.02,25.47-21.58,41.59-27.64.49-.18.87-.54,1.09-1.02.21-.47.23-1,.05-1.48-.18-.49-.54-.87-1.01-1.09Z"/><path class="cls-1" d="M661.83,683.57c.06-.22.2-.41.39-.54,4.18-2.79,25.42-18.1,33.28-45.35,4.77-16.56,3.82-29.94-2.43-34.09-1-.66-3.09-1.66-6.03-.85-.29.08-.61.02-.85-.17-.24-.19-.38-.48-.38-.78.25-14.17-1.27-28.11-4.15-38.26-2.24-7.9-5.1-12.81-8.25-14.18-8.01-3.49-11.13,1.54-14.75,7.37-1.99,3.22-4.41,6.92-8.06,10.43-.21.2-.5.29-.79.26-.29-.04-.55-.2-.71-.45-4.53-7.34-9.14-12.37-12.34-13.46-2-.65-3.75.1-4.45,1.94-2.16,5.66-7.73,10.1-12.65,14.01-5.14,4.08-9.57,7.6-9.19,11.96.25,2.9,2.55,5.42,7.22,7.94,3.37,1.82,6.64,4.37,9.99,7.8.25.25.34.62.24.96-2.28,7.72-8.21,10.69-13.44,13.31-6.05,3.03-12.31,6.16-12.31,15.24,0,7.71,7.85,11.73,17.79,16.82,13.78,7.06,30.94,15.84,38.19,38.27.06.19.06.38,0,.57-6.6,22.81-15.81,44.94-27.35,65.8-.23.41-.72.59-1.17.45-.45-.16-.72-.61-.64-1.08,7.59-46.16-19.98-72.7-30.36-82.7-.45-.44-1.1-.63-1.72-.51-.61.11-1.14.52-1.4,1.1-8.06,17.62-6.68,43.73,3.67,69.83,5.69,14.36,13.35,26.1,19.98,30.63.44.3.55.89.27,1.33-25.66,39.55-60.53,73.47-100.84,98.09-.39.25-.9.17-1.22-.17-.32-.34-.35-.85-.07-1.23,20.24-27.67,24.6-66.87,17.14-88.77-.21-.6-.69-1.06-1.29-1.23-.63-.19-1.28-.05-1.77.36-27.04,22.12-33.92,76.88-28.66,99.33.1.43-.1.87-.49,1.08-34.45,18.31-71.63,30.01-110.53,34.78-.52.06-.98.32-1.29.73-.32.41-.46.92-.4,1.43.12.98.95,1.71,1.92,1.71l.27-.02c21.55-2.64,43.04-7.54,63.83-14.56.1-.03.21-.05.31-.05.28,0,.55.12.74.34,12.23,14.27,39.68,22.43,57.61,21.51.6-.03,1.17-.35,1.51-.85.33-.49.43-1.13.24-1.71-1.99-5.96-11.63-15.87-23.74-21.49-3.17-1.47-8.23-3.4-14.36-4.22-.43-.06-.77-.4-.83-.83-.06-.44.18-.85.59-1.02,35.02-14.75,66.88-35.44,94.68-61.48.28-.26.7-.34,1.06-.18,9.45,4.23,20.76,6.47,32.68,6.47,27.64,0,55.72-11.59,71.56-29.53.45-.52.6-1.24.38-1.89-.22-.66-.77-1.15-1.44-1.3-17.84-3.82-55.31-4.28-85.45,10.12-.42.2-.92.07-1.2-.3-.28-.38-.25-.89.06-1.24,33-36.17,57.69-80.24,71.39-127.44ZM686.02,607.36c1.94-1.24,3.58-1.42,4.9-.53,3.93,2.61,5.48,13.67.84,29.77-3.48,12.07-10.14,23.18-19.79,33.03-.19.19-.44.29-.69.29-.2,0-.39-.06-.57-.18-.39-.28-.52-.8-.3-1.22,11.03-22.08,14.33-45.03,15.16-60.39.02-.31.19-.6.45-.77ZM652.31,570.97c4.68-4.18,7.55-8.8,9.64-12.18,3.79-6.12,5.22-7.94,9.9-5.88,1.51.66,3.91,4.07,6.07,11.68,5.58,19.67,7.66,62.3-9.5,99.08-.16.35-.51.56-.88.56-.09,0-.19-.02-.28-.04-.46-.14-.75-.6-.68-1.08,7.25-45.64-9.25-81.16-14.48-90.96-.21-.4-.13-.88.21-1.18ZM655.72,665.92c-.12.05-.24.07-.36.07-.31,0-.61-.15-.8-.42-9.22-13.47-22.87-20.46-32.83-25.56-8.76-4.49-15.68-8.02-15.68-13.36,0-6.67,4.26-8.81,10.16-11.76,4.59-2.3,10.86-5.44,14.18-12.59.14-.3.43-.52.77-.55.34-.03.67.1.88.36,11.27,14.32,20.12,37.19,24.28,62.76.07.45-.18.89-.6,1.06ZM619.54,585.92c-4.13-2.24-5.11-3.88-5.19-4.87-.19-2.11,2.79-4.64,7.71-8.56,4.9-3.89,10.44-8.29,13.26-14.23.13-.27.36-.46.65-.53.28-.07.59,0,.82.17,1.09.84,3.42,2.98,6.74,7.88,10.71,15.79,26.71,54.52,18.72,99.55-.08.46-.49.8-.96.8-.48,0-.88-.35-.96-.82-4.63-28.96-18.09-67.13-40.8-79.4ZM602.79,733.75c-9.07-22.86-11.06-46.33-5.34-62.78.11-.32.37-.55.7-.63.32-.09.66.02.9.25,25.69,25.3,33.34,55.83,22.72,90.73-.09.31-.34.55-.65.65-.09.03-.19.04-.28.04-.22,0-.44-.08-.61-.22-5.65-4.57-12.49-15.58-17.44-28.05ZM491.05,899.93c9.22,4.28,16.06,10.62,19.38,15.13.22.3.25.7.08,1.03-.17.32-.5.52-.86.52-17.31-.56-37.32-8.13-47.59-18.02-.25-.24-.36-.6-.27-.94.09-.34.35-.61.69-.7,11.55-3.15,21.92-.12,28.57,2.98ZM506.76,869.99c-.09,0-.19-.02-.29-.05-.35-.11-.61-.41-.67-.77-3.65-23.14,3.94-68.14,24.61-88.87.25-.25.62-.35.95-.25.34.09.6.37.68.71,4.75,20.41.22,62.78-24.57,88.92-.19.2-.44.3-.71.3ZM670.87,805.29c.37.05.68.31.79.66.11.36.02.74-.25,1-16.16,15.53-41.16,24.38-64.67,24.38-9.85,0-19.43-1.55-28-4.81-.33-.13-.57-.42-.62-.77-.05-.35.1-.7.38-.91,28.98-21.68,71.7-22.49,92.37-19.54Z"/><path class="cls-1" d="M308.11,910.1c-.32-.41-.78-.67-1.3-.73-38.78-4.76-75.86-16.4-110.22-34.61-.39-.2-.59-.65-.49-1.08,5.28-22.44-1.58-77.2-28.64-99.33-.49-.41-1.15-.56-1.77-.37-.61.17-1.1.64-1.31,1.24-7.48,21.93-3.09,61.16,17.19,88.85.27.37.24.89-.07,1.23-.31.35-.83.41-1.22.17-40.41-24.6-75.36-58.53-101.09-98.14-.29-.44-.17-1.03.27-1.33,6.65-4.52,14.32-16.26,20.03-30.65,10.35-26.1,11.73-52.2,3.67-69.83-.26-.57-.79-.98-1.41-1.1-.63-.1-1.27.08-1.71.51-10.4,10.02-38.03,36.62-30.34,82.9.08.47-.19.92-.64,1.08-.44.14-.94-.04-1.17-.45-11.63-20.95-20.9-43.21-27.54-66.16-.05-.19-.05-.38,0-.57,7.25-22.42,24.4-31.21,38.18-38.27,9.95-5.09,17.8-9.11,17.8-16.82,0-9.08-6.26-12.21-12.31-15.24-5.23-2.62-11.16-5.59-13.44-13.31-.1-.34,0-.71.24-.96,3.35-3.43,6.62-5.98,9.99-7.8,4.67-2.52,6.97-5.04,7.22-7.93.39-4.36-4.04-7.88-9.17-11.96-4.92-3.92-10.49-8.35-12.65-14.02-.7-1.85-2.46-2.6-4.47-1.94-3.18,1.09-7.79,6.11-12.32,13.44-.16.25-.41.41-.71.45-.29.02-.58-.06-.79-.26-3.64-3.49-6.07-7.21-8.07-10.42-3.46-5.58-6.73-10.86-14.74-7.36-3.15,1.37-6.01,6.28-8.25,14.18-2.88,10.13-4.4,24.06-4.15,38.21,0,.3-.13.59-.38.78-.24.18-.56.25-.85.17-2.9-.77-5.03.22-6.03.9-6.25,4.15-7.2,17.53-2.43,34.09,7.85,27.26,29.1,42.57,33.28,45.35.19.13.33.32.39.54,13.63,46.94,38.13,90.81,70.86,126.86.31.34.33.86.06,1.23-.28.37-.79.49-1.2.3-30.14-14.32-67.49-13.84-85.24-10.03-.68.14-1.23.64-1.44,1.29-.22.65-.07,1.38.39,1.9,15.83,17.94,43.92,29.53,71.56,29.53,11.88,0,23.13-2.22,32.56-6.41.13-.06.26-.08.39-.08.24,0,.48.09.66.26,27.94,26.26,59.96,47.1,95.18,61.92.41.17.65.59.59,1.02-.06.43-.4.77-.83.84-6.07.83-11.09,2.74-14.23,4.2-12.12,5.62-21.76,15.54-23.75,21.5-.19.58-.1,1.2.24,1.71.34.49.9.81,1.51.84,17.92.93,45.34-7.22,57.57-21.47.25-.3.67-.41,1.05-.29,20.77,7,42.2,11.88,63.72,14.52l.28.02c.96,0,1.79-.73,1.91-1.7.06-.52-.08-1.03-.39-1.43ZM82.3,614.87c5.43,2.75,10.15,5.43,10.15,11.77,0,5.33-6.91,8.87-15.66,13.35-9.97,5.11-23.61,12.09-32.84,25.57-.19.27-.49.42-.8.42-.12,0-.24-.02-.36-.07-.42-.17-.67-.61-.6-1.06,4.15-25.54,12.99-48.4,24.25-62.71.21-.27.58-.39.87-.36.34.04.63.25.77.55,3.09,6.64,9.72,10.26,14.22,12.54ZM27.81,669.77c-.17.12-.37.18-.57.18-.25,0-.5-.1-.69-.29-9.65-9.84-16.31-20.96-19.8-33.06-4.64-16.09-3.09-27.16.85-29.77,1.31-.86,2.96-.7,4.89.53.27.17.43.46.45.77.83,15.37,4.13,38.32,15.17,60.42.21.43.08.94-.3,1.22ZM31.27,664.19c-.09.03-.19.04-.28.04-.37,0-.72-.21-.88-.56-18.5-39.65-14.31-82.15-9.5-99.08,2.16-7.61,4.55-11.02,6.07-11.68,4.68-2.06,6.11-.24,9.89,5.87,2.09,3.37,4.95,7.99,9.65,12.19.33.3.42.79.21,1.18-5.23,9.8-21.74,45.32-14.48,90.96.08.48-.21.94-.68,1.08ZM37.22,666.15c-.48,0-.88-.34-.96-.8-7.99-45.04,8.01-83.77,18.73-99.56,3.31-4.88,5.64-7.02,6.74-7.86.23-.18.53-.25.82-.17.28.07.52.26.65.53,2.82,5.93,8.36,10.34,13.25,14.22,4.94,3.93,7.9,6.46,7.71,8.57-.09.98-1.06,2.62-5.19,4.86-22.71,12.27-36.17,50.44-40.8,79.41-.08.47-.48.82-.95.82ZM77.84,762.18c-.09,0-.19-.02-.28-.04-.31-.09-.55-.34-.65-.65-10.62-34.9-2.97-65.43,22.72-90.73.24-.24.58-.34.9-.25.33.08.59.31.7.63,5.72,16.45,3.72,39.92-5.34,62.78-4.95,12.47-11.79,23.48-17.44,28.05-.17.14-.39.22-.61.22ZM120.08,825.26c-.05.35-.29.65-.62.77-8.57,3.26-18.16,4.82-28,4.82-23.52,0-48.51-8.86-64.67-24.38-.27-.26-.37-.65-.25-1,.11-.35.42-.61.79-.66,20.68-2.94,63.41-2.12,92.37,19.54.28.21.43.56.38.91ZM193.04,869.33c-.06.36-.32.67-.67.77-.1.03-.19.05-.29.05-.26,0-.52-.11-.71-.3-24.8-26.13-29.32-68.51-24.57-88.92.08-.35.34-.62.68-.71.34-.1.71,0,.95.25,20.66,20.73,28.26,65.73,24.61,88.87ZM236.62,898.59c-10.27,9.89-30.28,17.46-47.56,18.02-.39,0-.72-.2-.89-.52-.17-.33-.14-.73.08-1.03,3.32-4.51,10.16-10.86,19.39-15.14,9.54-4.43,19.34-5.48,28.57-2.97.34.09.6.36.69.7.09.34-.02.7-.27.94Z"/><path class="cls-1" d="M349.26,892.28c-10.71,0-19.43,8.72-19.43,19.43s8.72,19.43,19.43,19.43,19.43-8.72,19.43-19.43-8.72-19.43-19.43-19.43ZM349.26,927.26c-8.57,0-15.55-6.97-15.55-15.55s6.97-15.55,15.55-15.55,15.55,6.97,15.55,15.55-6.97,15.55-15.55,15.55Z"/><path class="cls-1" d="M125.54,222.62c-1.07,0-1.94.87-1.94,1.94v6.04c0,1.07.87,1.94,1.94,1.94s1.94-.87,1.94-1.94v-6.04c0-1.07-.87-1.94-1.94-1.94Z"/><path class="cls-1" d="M125.54,95.57c1.07,0,1.94-.87,1.94-1.94v-4.24c0-1.07-.87-1.94-1.94-1.94s-1.94.87-1.94,1.94v4.24c0,1.07.87,1.94,1.94,1.94Z"/><path class="cls-1" d="M79.95,161.94h4.17c1.07,0,1.94-.87,1.94-1.94s-.87-1.94-1.94-1.94h-4.17c-1.07,0-1.94.87-1.94,1.94s.87,1.94,1.94,1.94Z"/><path class="cls-1" d="M92.67,161.94h25.83c.39,0,.75.24.9.6.15.36.06.78-.21,1.06l-12.78,12.78c-.76.76-.76,1.99,0,2.75.72.72,2.03.72,2.75,0l12.78-12.78c.19-.19.43-.28.69-.28.13,0,.25.02.37.07.36.15.6.5.6.9v45.64c0,1.07.87,1.94,1.94,1.94s1.94-.87,1.94-1.94v-45.64c0-.39.24-.75.6-.9.36-.15.78-.07,1.06.21l12.78,12.78c.72.72,2.03.72,2.75,0,.76-.76.76-1.99,0-2.75l-12.78-12.78c-.28-.28-.36-.7-.21-1.06.15-.36.5-.6.9-.6h23.89c1.07,0,1.94-.87,1.94-1.94s-.87-1.94-1.94-1.94h-23.89c-.39,0-.75-.24-.9-.6-.15-.36-.06-.78.21-1.06l11.04-11.04c.76-.76.76-1.99,0-2.75-.76-.76-1.99-.76-2.75,0l-11.04,11.04c-.28.28-.69.36-1.06.21-.36-.15-.6-.5-.6-.9v-48.07c0-1.07-.87-1.94-1.94-1.94s-1.94.87-1.94,1.94v48.07c0,.39-.24.75-.6.9-.37.15-.78.07-1.06-.21l-12.02-12.02c-.76-.76-1.99-.76-2.75,0-.76.76-.76,1.99,0,2.75l12.02,12.02c.28.28.36.7.21,1.06-.15.36-.5.6-.9.6h-25.83c-1.07,0-1.94.87-1.94,1.94s.87,1.94,1.94,1.94Z"/><path class="cls-1" d="M166.68,161.94h4.44c1.07,0,1.94-.87,1.94-1.94s-.87-1.94-1.94-1.94h-4.44c-1.07,0-1.94.87-1.94,1.94s.87,1.94,1.94,1.94Z"/><path class="cls-1" d="M99.53,183.26l-3.16,3.16c-.37.37-.57.85-.57,1.37s.2,1.01.57,1.38c.74.73,2.01.73,2.75,0l3.16-3.16c.37-.37.57-.85.57-1.37s-.2-1.01-.57-1.38c-.76-.76-1.99-.76-2.75,0Z"/><path class="cls-1" d="M151.38,136.91l3.34-3.34c.37-.37.57-.86.57-1.37s-.2-1.01-.57-1.37c-.38-.38-.88-.57-1.37-.57s-.99.19-1.37.57l-3.34,3.33c-.76.76-.76,1.99,0,2.75.74.73,2.01.73,2.75,0Z"/><path class="cls-1" d="M151.07,183.59c-.43.05-1.01.2-1.37.57-.76.76-.76,1.99,0,2.75l2.27,2.27c.74.72,2.01.72,2.75,0,.76-.76.76-1.99,0-2.75l-2.27-2.27c-.36-.36-.85-.56-1.37-.56Z"/><path class="cls-1" d="M98.51,135.72c.74.74,2.01.73,2.75,0,.37-.37.57-.85.57-1.37s-.2-1.01-.57-1.38l-2.14-2.15c-.76-.76-1.99-.76-2.75,0-.37.37-.57.85-.57,1.37s.2,1.01.57,1.38l2.14,2.15Z"/><path class="cls-1" d="M572.98,222.62c-1.07,0-1.94.87-1.94,1.94v6.04c0,1.07.87,1.94,1.94,1.94s1.94-.87,1.94-1.94v-6.04c0-1.07-.87-1.94-1.94-1.94Z"/><path class="cls-1" d="M572.98,95.57c1.07,0,1.94-.87,1.94-1.94v-4.24c0-1.07-.87-1.94-1.94-1.94s-1.94.87-1.94,1.94v4.24c0,1.07.87,1.94,1.94,1.94Z"/><path class="cls-1" d="M614.4,161.94h4.17c1.07,0,1.94-.87,1.94-1.94s-.87-1.94-1.94-1.94h-4.17c-1.07,0-1.94.87-1.94,1.94s.87,1.94,1.94,1.94Z"/><path class="cls-1" d="M542.05,161.94h23.89c.39,0,.75.24.9.6.15.36.06.78-.21,1.06l-12.78,12.78c-.76.76-.76,1.99,0,2.75.72.72,2.03.72,2.75,0l12.78-12.78c.19-.19.43-.28.69-.28.13,0,.25.02.37.07.36.15.6.5.6.9v45.64c0,1.07.87,1.94,1.94,1.94s1.94-.87,1.94-1.94v-45.64c0-.39.24-.75.6-.9.37-.15.78-.07,1.06.21l12.78,12.78c.72.72,2.03.72,2.75,0,.76-.76.76-1.99,0-2.75l-12.78-12.78c-.28-.28-.36-.7-.21-1.06.15-.36.5-.6.9-.6h25.83c1.07,0,1.94-.87,1.94-1.94s-.87-1.94-1.94-1.94h-25.83c-.39,0-.75-.24-.9-.6-.15-.36-.06-.78.21-1.06l12.02-12.02c.76-.76.76-1.99,0-2.75-.76-.76-1.99-.76-2.75,0l-12.02,12.02c-.28.28-.69.36-1.06.21-.36-.15-.6-.5-.6-.9v-48.07c0-1.07-.87-1.94-1.94-1.94s-1.94.87-1.94,1.94v48.07c0,.39-.24.75-.6.9-.37.15-.78.07-1.06-.21l-11.04-11.04c-.76-.76-1.99-.76-2.75,0-.76.76-.76,1.99,0,2.75l11.04,11.04c.28.28.36.7.21,1.06-.15.36-.5.6-.9.6h-23.89c-1.07,0-1.94.87-1.94,1.94s.87,1.94,1.94,1.94Z"/><path class="cls-1" d="M527.39,161.94h4.44c1.07,0,1.94-.87,1.94-1.94s-.87-1.94-1.94-1.94h-4.44c-1.07,0-1.94.87-1.94,1.94s.87,1.94,1.94,1.94Z"/><path class="cls-1" d="M596.24,183.26c-.37.37-.57.86-.57,1.38s.2,1.01.57,1.37l3.16,3.16c.74.73,2.01.73,2.75,0,.37-.37.57-.86.57-1.38s-.2-1.01-.57-1.37l-3.16-3.16c-.76-.76-1.99-.76-2.75,0Z"/><path class="cls-1" d="M547.14,136.91c.74.73,2.01.73,2.75,0,.76-.76.76-1.99,0-2.75l-3.34-3.34c-.38-.38-.88-.57-1.37-.57s-.99.19-1.37.57c-.37.37-.57.85-.57,1.37s.2,1.01.57,1.37l3.34,3.34Z"/><path class="cls-1" d="M546.07,184.16l-2.27,2.26c-.76.76-.76,1.99,0,2.75.73.74,2,.74,2.75,0l2.27-2.26c.76-.76.76-1.99,0-2.75-.36-.37-.85-.57-1.37-.57-.53,0-1.02.2-1.38.57Z"/><path class="cls-1" d="M600,135.72l2.14-2.15c.37-.37.57-.86.57-1.38s-.2-1.01-.57-1.37c-.38-.38-.88-.57-1.37-.57s-.99.19-1.37.57l-2.14,2.14c-.37.37-.57.86-.57,1.38s.2,1.01.57,1.37c.74.74,2.01.73,2.75,0Z"/><path class="cls-1" d="M365.76,99.53c-.94.51-1.29,1.7-.77,2.63.48.89,1.73,1.26,2.63.78.2-.11,4.91-2.7,10.04-7.42.19-.17.42-.26.66-.26s.47.09.66.26c5.12,4.71,9.84,7.31,10.04,7.42.91.5,2.14.13,2.63-.78.51-.94.16-2.12-.78-2.64-.04-.02-4.3-2.4-9.08-6.79-.39-.36-.42-.96-.07-1.36,6.75-7.68,10.17-16.1,10.17-25.01,0-7.48-6.08-13.57-13.57-13.57-4.31,0-8.26,2.01-10.84,5.5-.36.5-1.2.5-1.56,0-2.58-3.5-6.53-5.5-10.84-5.5s-8.26,2.01-10.84,5.5c-.36.5-1.2.5-1.56,0-2.58-3.5-6.53-5.5-10.84-5.5s-8.26,2.01-10.84,5.5c-.36.5-1.2.5-1.56,0-2.58-3.5-6.53-5.5-10.84-5.5-1.07,0-1.94.87-1.94,1.94s.87,1.94,1.94,1.94c5.34,0,9.68,4.34,9.68,9.68v34.87c0,1.07.87,1.94,1.94,1.94s1.94-.87,1.94-1.94v-34.87c0-5.34,4.34-9.68,9.68-9.68s9.68,4.34,9.68,9.68v34.87c0,1.07.87,1.94,1.94,1.94s1.94-.87,1.94-1.94v-34.87c0-5.34,4.34-9.68,9.68-9.68s9.68,4.34,9.68,9.68c0,8.91,3.42,17.33,10.17,25.01.35.4.32,1-.07,1.36-4.74,4.37-9.05,6.78-9.09,6.8ZM368.64,66.36c0-5.34,4.34-9.68,9.68-9.68s9.68,4.34,9.68,9.68c0,7.72-3.01,15.13-8.94,22.03-.19.21-.45.34-.74.34s-.55-.12-.74-.34c-5.93-6.9-8.94-14.31-8.94-22.03Z"/><path class="cls-1" d="M47.16,289.36c-.38.36-.58.85-.59,1.36,0,.52.19,1.01.55,1.39.34.35.84.55,1.37.56.46.03,1.03-.18,1.38-.52l7.28-7.1c.19-.18.44-.28.68-.28s.49.09.68.28l7.29,7.1c.74.73,2.03.71,2.75-.03.36-.37.56-.86.55-1.39,0-.52-.22-1-.59-1.36l-7.18-6.99c-.19-.18-.29-.43-.29-.7s.11-.51.29-.7l7.17-7c.38-.36.58-.85.59-1.36,0-.52-.19-1.01-.55-1.39-.74-.77-1.98-.78-2.75-.03l-7.28,7.1c-.38.37-.98.37-1.36,0l-7.28-7.1c-.76-.75-1.99-.72-2.75.04-.36.37-.55.86-.55,1.38,0,.52.22,1,.59,1.36l7.18,6.99c.19.18.29.43.29.7s-.11.51-.29.7l-7.17,6.99Z"/><path class="cls-1" d="M54.34,465.67c.19.18.29.43.29.7s-.11.51-.29.7l-7.18,6.99c-.77.75-.79,1.99-.04,2.75.35.36.84.59,1.4.56.52,0,1.01-.19,1.34-.52l7.29-7.11c.19-.19.44-.28.68-.28s.49.09.68.28l7.29,7.1c.73.73,2.02.71,2.75-.04.75-.76.73-2-.04-2.75l-7.18-6.99c-.19-.18-.29-.43-.29-.7s.11-.51.29-.7l7.17-6.99c.38-.36.58-.85.59-1.36,0-.52-.19-1.01-.55-1.38-.75-.77-1.98-.78-2.75-.03l-7.28,7.1c-.38.37-.98.37-1.36,0l-7.28-7.1c-.76-.75-1.99-.73-2.75.04-.36.37-.55.86-.55,1.38,0,.52.22,1,.59,1.36l7.18,6.99Z"/><path class="cls-1" d="M636.05,289.36c-.38.36-.58.85-.59,1.36,0,.52.19,1.01.55,1.39.34.35.84.55,1.37.56.65.03,1.04-.18,1.38-.52l7.29-7.1c.19-.18.44-.28.68-.28s.49.09.68.28l7.28,7.1c.74.73,2.03.71,2.75-.03.36-.37.56-.86.55-1.39,0-.52-.22-1-.59-1.36l-7.18-6.99c-.19-.18-.29-.43-.29-.7s.11-.51.29-.7l7.17-7c.38-.36.58-.85.59-1.36,0-.52-.19-1.02-.55-1.39-.74-.76-1.97-.78-2.75-.03l-7.28,7.1c-.38.37-.98.37-1.36,0l-7.29-7.1c-.77-.75-2-.73-2.75.04-.36.37-.56.86-.55,1.38,0,.52.22,1,.59,1.36l7.18,6.99c.19.18.29.43.29.7s-.11.51-.29.7l-7.17,6.99Z"/><path class="cls-1" d="M643.22,465.67c.19.18.29.43.29.7s-.11.51-.29.7l-7.18,6.99c-.77.75-.79,1.99-.04,2.75.35.35.85.56,1.39.56.54,0,1.02-.19,1.36-.52l7.29-7.11c.19-.19.44-.28.68-.28s.49.09.68.28l7.28,7.1c.73.73,2.02.71,2.75-.04.75-.76.73-2-.04-2.75l-7.18-6.99c-.19-.18-.29-.43-.29-.7s.11-.51.29-.7l7.17-6.99c.38-.36.58-.85.59-1.36,0-.52-.19-1.01-.55-1.39-.75-.76-1.98-.77-2.75-.03l-7.28,7.1c-.38.37-.98.37-1.36,0l-7.29-7.1c-.76-.74-1.99-.73-2.75.04-.36.37-.55.86-.55,1.38,0,.52.22,1,.59,1.36l7.18,6.99Z"/><path class="cls-1" d="M193.76,88.01c-.76.76-.76,1.99,0,2.75.72.72,2.03.72,2.75,0l5.18-5.18c.19-.19.44-.28.69-.28s.5.09.69.28l5.18,5.18c.74.73,2.01.73,2.75,0,.76-.76.76-1.99,0-2.75l-5.18-5.18c-.18-.18-.28-.43-.28-.69s.1-.5.28-.69l5.18-5.18c.76-.76.76-1.99,0-2.75-.76-.76-1.99-.76-2.75,0l-5.18,5.18c-.38.38-.99.38-1.37,0l-5.18-5.18c-.76-.76-1.99-.76-2.75,0-.76.76-.76,1.99,0,2.75l5.18,5.18c.18.18.28.43.28.69s-.1.5-.28.69l-5.18,5.18Z"/><path class="cls-1" d="M487.53,88.01c-.76.76-.76,1.99,0,2.75.72.72,2.03.72,2.75,0l5.18-5.18c.19-.19.44-.28.69-.28s.5.09.69.28l5.18,5.18c.74.73,2.01.73,2.75,0,.76-.76.76-1.99,0-2.75l-5.18-5.18c-.18-.18-.28-.43-.28-.69s.1-.5.28-.69l5.18-5.18c.76-.76.76-1.99,0-2.75-.76-.76-1.99-.76-2.75,0l-5.18,5.18c-.38.38-.99.38-1.37,0l-5.18-5.18c-.76-.76-1.99-.76-2.75,0-.76.76-.76,1.99,0,2.75l5.18,5.18c.18.18.28.43.28.69s-.1.5-.28.69l-5.18,5.18Z"/><path class="cls-1" d="M278.28,138.46c.62.84,1.89,1.04,2.71.44.43-.31.71-.75.79-1.27.08-.51-.03-1.03-.34-1.45-10.29-14.28-15.73-31.14-15.73-48.76,0-46.07,37.48-83.54,83.54-83.54s83.54,37.48,83.54,83.54c0,17.61-5.44,34.47-15.72,48.75-.31.42-.43.94-.35,1.45.08.51.36.96.78,1.27.43.31.92.42,1.45.34.51-.09.96-.36,1.26-.78,10.77-14.94,16.46-32.59,16.46-51.03,0-48.21-39.22-87.43-87.43-87.43s-87.43,39.22-87.43,87.43c0,18.43,5.69,36.08,16.45,51.03Z"/><path class="cls-1" d="M259.42,148.45c.44-.29.74-.72.85-1.23.11-.51.02-1.03-.27-1.47-11.23-17.25-17.17-37.31-17.17-57.99,0-25.28,9.02-49.79,25.39-69,.69-.82.6-2.04-.22-2.73-.36-.31-.8-.47-1.28-.47-.66.05-1.13.29-1.47.68-16.97,19.92-26.32,45.32-26.32,71.52,0,21.44,6.16,42.23,17.8,60.12.56.87,1.82,1.13,2.68.57Z"/><path class="cls-1" d="M455.69,87.76c0,20.5-5.84,40.4-16.88,57.55-.28.44-.38.96-.27,1.46.11.51.41.94.85,1.23.87.56,2.13.28,2.68-.58,11.46-17.78,17.51-38.41,17.51-59.66,0-26.22-9.35-51.63-26.34-71.54-.33-.39-.8-.63-1.32-.67-.62,0-1.06.16-1.42.46-.82.7-.91,1.92-.22,2.74,16.39,19.22,25.41,43.73,25.41,69.02Z"/></g></svg>